<?xml version="1.0" encoding="UTF-8" standalone="no"?>
<!DOCTYPE svg PUBLIC "-//W3C//DTD SVG 1.1//EN"
 "http://www.w3.org/Graphics/SVG/1.1/DTD/svg11.dtd">
<!-- Generated by graphviz version 2.38.0 (20140413.2041)
 -->
<!-- Title: /travis/libpairinteraction/Basisnames.h Pages: 1 -->
<!--zoomable 374 -->
<svg id="main" version="1.1" xmlns="http://www.w3.org/2000/svg" xmlns:xlink="http://www.w3.org/1999/xlink" xml:space="preserve" onload="init(evt)">
<style type="text/css"><![CDATA[
.edge:hover path { stroke: red; }
.edge:hover polygon { stroke: red; fill: red; }
]]></style>
<script type="text/javascript"><![CDATA[
var edges = document.getElementsByTagName('g');
if (edges && edges.length) {
  for (var i=0;i<edges.length;i++) {
    if (edges[i].id.substr(0,4)=='edge') {
      edges[i].setAttribute('class','edge');
    }
  }
}
]]></script>
        <defs>
                <circle id="rim" cx="0" cy="0" r="7"/>
                <circle id="rim2" cx="0" cy="0" r="3.5"/>
                <g id="zoomPlus">
                        <use xlink:href="#rim" fill="#404040">
                                <set attributeName="fill" to="#808080" begin="zoomplus.mouseover" end="zoomplus.mouseout"/>
                        </use>
                        <path d="M-4,0h8M0,-4v8" fill="none" stroke="white" stroke-width="1.5" pointer-events="none"/>
                </g>
                <g id="zoomMin">
                        <use xlink:href="#rim" fill="#404040">
                                <set attributeName="fill" to="#808080" begin="zoomminus.mouseover" end="zoomminus.mouseout"/>
                        </use>
                        <path d="M-4,0h8" fill="none" stroke="white" stroke-width="1.5" pointer-events="none"/>
                </g>
                <g id="dirArrow">
                        <path fill="none" stroke="white" stroke-width="1.5" d="M0,-3.0v7 M-2.5,-0.5L0,-3.0L2.5,-0.5"/>
                </g>
               <g id="resetDef">
                       <use xlink:href="#rim2" fill="#404040">
                               <set attributeName="fill" to="#808080" begin="reset.mouseover" end="reset.mouseout"/>
                       </use>
               </g>
        </defs>

<script type="text/javascript">
var viewWidth = 1221;
var viewHeight = 374;
var sectionId = 'dynsection-1';
</script>
<script xlink:href="svgpan.js"/>
<svg id="graph" class="graph">
<g id="viewport">
<title>/travis/libpairinteraction/Basisnames.h</title>
<!-- Node23 -->
<g id="node1" class="node"><title>Node23</title>
<polygon fill="#bfbfbf" stroke="black" points="389,-335.5 389,-365.5 517,-365.5 517,-335.5 389,-335.5"/>
<text text-anchor="start" x="397" y="-353.5" font-family="Helvetica,sans-Serif" font-size="10.00">/travis/libpairinteraction</text>
<text text-anchor="middle" x="453" y="-342.5" font-family="Helvetica,sans-Serif" font-size="10.00">/Basisnames.h</text>
</g>
<!-- Node24 -->
<g id="node2" class="node"><title>Node24</title>
<g id="a_node2"><a xlink:href="Basisnames_8cpp.html" target="_top" xlink:title="/travis/libpairinteraction\l/Basisnames.cpp">
<polygon fill="none" stroke="black" points="0,-268.5 0,-298.5 128,-298.5 128,-268.5 0,-268.5"/>
<text text-anchor="start" x="8" y="-286.5" font-family="Helvetica,sans-Serif" font-size="10.00">/travis/libpairinteraction</text>
<text text-anchor="middle" x="64" y="-275.5" font-family="Helvetica,sans-Serif" font-size="10.00">/Basisnames.cpp</text>
</a>
</g>
</g>
<!-- Node23&#45;&gt;Node24 -->
<g id="edge1" class="edge"><title>Node23&#45;&gt;Node24</title>
<path fill="none" stroke="midnightblue" d="M378.652,-337.916C315.596,-327.974 222.783,-313.066 142,-299 137.522,-298.22 132.902,-297.401 128.252,-296.564"/>
<polygon fill="midnightblue" stroke="midnightblue" points="378.476,-341.431 388.898,-339.529 379.564,-334.516 378.476,-341.431"/>
</g>
<!-- Node25 -->
<g id="node3" class="node"><title>Node25</title>
<g id="a_node3"><a xlink:href="Hamiltonianmatrix_8h.html" target="_top" xlink:title="/travis/libpairinteraction\l/Hamiltonianmatrix.h">
<polygon fill="none" stroke="black" points="330,-268.5 330,-298.5 458,-298.5 458,-268.5 330,-268.5"/>
<text text-anchor="start" x="338" y="-286.5" font-family="Helvetica,sans-Serif" font-size="10.00">/travis/libpairinteraction</text>
<text text-anchor="middle" x="394" y="-275.5" font-family="Helvetica,sans-Serif" font-size="10.00">/Hamiltonianmatrix.h</text>
</a>
</g>
</g>
<!-- Node23&#45;&gt;Node25 -->
<g id="edge2" class="edge"><title>Node23&#45;&gt;Node25</title>
<path fill="none" stroke="midnightblue" d="M433.245,-327.736C424.516,-318.119 414.504,-307.089 406.777,-298.577"/>
<polygon fill="midnightblue" stroke="midnightblue" points="430.885,-330.344 440.198,-335.396 436.068,-325.639 430.885,-330.344"/>
</g>
<!-- Node27 -->
<g id="node5" class="node"><title>Node27</title>
<g id="a_node5"><a xlink:href="HamiltonianOne_8h.html" target="_top" xlink:title="/travis/libpairinteraction\l/HamiltonianOne.h">
<polygon fill="none" stroke="black" points="254,-134.5 254,-164.5 382,-164.5 382,-134.5 254,-134.5"/>
<text text-anchor="start" x="262" y="-152.5" font-family="Helvetica,sans-Serif" font-size="10.00">/travis/libpairinteraction</text>
<text text-anchor="middle" x="318" y="-141.5" font-family="Helvetica,sans-Serif" font-size="10.00">/HamiltonianOne.h</text>
</a>
</g>
</g>
<!-- Node23&#45;&gt;Node27 -->
<g id="edge12" class="edge"><title>Node23&#45;&gt;Node27</title>
<path fill="none" stroke="midnightblue" d="M378.769,-341.16C312.413,-329.296 219.06,-300.697 175,-232 151.705,-195.68 205.643,-173.851 253.808,-162.054"/>
<polygon fill="midnightblue" stroke="midnightblue" points="378.319,-344.634 388.764,-342.858 379.492,-337.733 378.319,-344.634"/>
</g>
<!-- Node29 -->
<g id="node7" class="node"><title>Node29</title>
<g id="a_node7"><a xlink:href="HamiltonianTwo_8h.html" target="_top" xlink:title="/travis/libpairinteraction\l/HamiltonianTwo.h">
<polygon fill="none" stroke="black" points="446,-67.5 446,-97.5 574,-97.5 574,-67.5 446,-67.5"/>
<text text-anchor="start" x="454" y="-85.5" font-family="Helvetica,sans-Serif" font-size="10.00">/travis/libpairinteraction</text>
<text text-anchor="middle" x="510" y="-74.5" font-family="Helvetica,sans-Serif" font-size="10.00">/HamiltonianTwo.h</text>
</a>
</g>
</g>
<!-- Node23&#45;&gt;Node29 -->
<g id="edge17" class="edge"><title>Node23&#45;&gt;Node29</title>
<path fill="none" stroke="midnightblue" d="M497.577,-330.938C536.027,-312.233 589.033,-279.336 613,-232 633.164,-192.174 618.555,-169.12 591,-134 578.622,-118.225 559.85,-106.08 543.493,-97.6581"/>
<polygon fill="midnightblue" stroke="midnightblue" points="495.694,-327.957 488.142,-335.388 498.68,-334.288 495.694,-327.957"/>
</g>
<!-- Node33 -->
<g id="node11" class="node"><title>Node33</title>
<g id="a_node11"><a xlink:href="MatrixElements_8h.html" target="_top" xlink:title="/travis/libpairinteraction\l/MatrixElements.h">
<polygon fill="none" stroke="black" points="476,-201.5 476,-231.5 604,-231.5 604,-201.5 476,-201.5"/>
<text text-anchor="start" x="484" y="-219.5" font-family="Helvetica,sans-Serif" font-size="10.00">/travis/libpairinteraction</text>
<text text-anchor="middle" x="540" y="-208.5" font-family="Helvetica,sans-Serif" font-size="10.00">/MatrixElements.h</text>
</a>
</g>
</g>
<!-- Node23&#45;&gt;Node33 -->
<g id="edge13" class="edge"><title>Node23&#45;&gt;Node33</title>
<path fill="none" stroke="midnightblue" d="M467.939,-326.834C485.977,-299.466 515.756,-254.284 530.756,-231.525"/>
<polygon fill="midnightblue" stroke="midnightblue" points="464.891,-325.098 462.311,-335.374 470.736,-328.95 464.891,-325.098"/>
</g>
<!-- Node35 -->
<g id="node13" class="node"><title>Node35</title>
<g id="a_node13"><a xlink:href="MatrixElementCache_8h.html" target="_top" xlink:title="/travis/libpairinteraction\l/MatrixElementCache.h">
<polygon fill="none" stroke="black" points="824,-268.5 824,-298.5 952,-298.5 952,-268.5 824,-268.5"/>
<text text-anchor="start" x="832" y="-286.5" font-family="Helvetica,sans-Serif" font-size="10.00">/travis/libpairinteraction</text>
<text text-anchor="middle" x="888" y="-275.5" font-family="Helvetica,sans-Serif" font-size="10.00">/MatrixElementCache.h</text>
</a>
</g>
</g>
<!-- Node23&#45;&gt;Node35 -->
<g id="edge18" class="edge"><title>Node23&#45;&gt;Node35</title>
<path fill="none" stroke="midnightblue" d="M527.104,-338.427C610.554,-325.958 744.803,-305.897 823.906,-294.077"/>
<polygon fill="midnightblue" stroke="midnightblue" points="526.559,-334.97 517.186,-339.909 527.593,-341.893 526.559,-334.97"/>
</g>
<!-- Node26 -->
<g id="node4" class="node"><title>Node26</title>
<g id="a_node4"><a xlink:href="Hamiltonian_8h.html" target="_top" xlink:title="/travis/libpairinteraction\l/Hamiltonian.h">
<polygon fill="none" stroke="black" points="330,-201.5 330,-231.5 458,-231.5 458,-201.5 330,-201.5"/>
<text text-anchor="start" x="338" y="-219.5" font-family="Helvetica,sans-Serif" font-size="10.00">/travis/libpairinteraction</text>
<text text-anchor="middle" x="394" y="-208.5" font-family="Helvetica,sans-Serif" font-size="10.00">/Hamiltonian.h</text>
</a>
</g>
</g>
<!-- Node25&#45;&gt;Node26 -->
<g id="edge3" class="edge"><title>Node25&#45;&gt;Node26</title>
<path fill="none" stroke="midnightblue" d="M394,-258.108C394,-249.154 394,-239.323 394,-231.577"/>
<polygon fill="midnightblue" stroke="midnightblue" points="390.5,-258.396 394,-268.396 397.5,-258.396 390.5,-258.396"/>
</g>
<!-- Node32 -->
<g id="node10" class="node"><title>Node32</title>
<g id="a_node10"><a xlink:href="Hamiltonianmatrix_8cpp.html" target="_top" xlink:title="/travis/libpairinteraction\l/Hamiltonianmatrix.cpp">
<polygon fill="none" stroke="black" points="184,-201.5 184,-231.5 312,-231.5 312,-201.5 184,-201.5"/>
<text text-anchor="start" x="192" y="-219.5" font-family="Helvetica,sans-Serif" font-size="10.00">/travis/libpairinteraction</text>
<text text-anchor="middle" x="248" y="-208.5" font-family="Helvetica,sans-Serif" font-size="10.00">/Hamiltonianmatrix.cpp</text>
</a>
</g>
</g>
<!-- Node25&#45;&gt;Node32 -->
<g id="edge11" class="edge"><title>Node25&#45;&gt;Node32</title>
<path fill="none" stroke="midnightblue" d="M353.05,-264.269C329.796,-253.916 301.128,-241.153 279.618,-231.577"/>
<polygon fill="midnightblue" stroke="midnightblue" points="351.761,-267.526 362.32,-268.396 354.608,-261.131 351.761,-267.526"/>
</g>
<!-- Node26&#45;&gt;Node27 -->
<g id="edge4" class="edge"><title>Node26&#45;&gt;Node27</title>
<path fill="none" stroke="midnightblue" d="M369.894,-194.883C358.345,-185.005 344.81,-173.429 334.459,-164.577"/>
<polygon fill="midnightblue" stroke="midnightblue" points="367.635,-197.556 377.509,-201.396 372.184,-192.236 367.635,-197.556"/>
</g>
<!-- Node26&#45;&gt;Node29 -->
<g id="edge10" class="edge"><title>Node26&#45;&gt;Node29</title>
<path fill="none" stroke="midnightblue" d="M400.117,-191.439C405.488,-173.995 414.712,-150.641 429,-134 442.278,-118.535 461.496,-106.273 477.88,-97.7063"/>
<polygon fill="midnightblue" stroke="midnightblue" points="396.645,-190.848 397.259,-201.425 403.375,-192.774 396.645,-190.848"/>
</g>
<!-- Node28 -->
<g id="node6" class="node"><title>Node28</title>
<g id="a_node6"><a xlink:href="HamiltonianOne_8cpp.html" target="_top" xlink:title="/travis/libpairinteraction\l/HamiltonianOne.cpp">
<polygon fill="none" stroke="black" points="300,-67.5 300,-97.5 428,-97.5 428,-67.5 300,-67.5"/>
<text text-anchor="start" x="308" y="-85.5" font-family="Helvetica,sans-Serif" font-size="10.00">/travis/libpairinteraction</text>
<text text-anchor="middle" x="364" y="-74.5" font-family="Helvetica,sans-Serif" font-size="10.00">/HamiltonianOne.cpp</text>
</a>
</g>
</g>
<!-- Node27&#45;&gt;Node28 -->
<g id="edge5" class="edge"><title>Node27&#45;&gt;Node28</title>
<path fill="none" stroke="midnightblue" d="M333.812,-126.157C340.52,-116.679 348.135,-105.919 354.038,-97.5765"/>
<polygon fill="midnightblue" stroke="midnightblue" points="330.901,-124.211 327.981,-134.396 336.615,-128.255 330.901,-124.211"/>
</g>
<!-- Node27&#45;&gt;Node29 -->
<g id="edge6" class="edge"><title>Node27&#45;&gt;Node29</title>
<path fill="none" stroke="midnightblue" d="M369.422,-131.092C400.416,-120.599 439.379,-107.408 468.42,-97.5765"/>
<polygon fill="midnightblue" stroke="midnightblue" points="368.011,-127.874 359.661,-134.396 370.255,-134.504 368.011,-127.874"/>
</g>
<!-- Node31 -->
<g id="node9" class="node"><title>Node31</title>
<g id="a_node9"><a xlink:href="Interface_8cpp.html" target="_top" xlink:title="/travis/libpairinteraction\l/Interface.cpp">
<polygon fill="none" stroke="black" points="254,-0.5 254,-30.5 382,-30.5 382,-0.5 254,-0.5"/>
<text text-anchor="start" x="262" y="-18.5" font-family="Helvetica,sans-Serif" font-size="10.00">/travis/libpairinteraction</text>
<text text-anchor="middle" x="318" y="-7.5" font-family="Helvetica,sans-Serif" font-size="10.00">/Interface.cpp</text>
</a>
</g>
</g>
<!-- Node27&#45;&gt;Node31 -->
<g id="edge9" class="edge"><title>Node27&#45;&gt;Node31</title>
<path fill="none" stroke="midnightblue" d="M302.663,-125.541C297.955,-117.226 293.388,-107.529 291,-98 287.652,-84.6353 287.652,-80.3647 291,-67 294.286,-53.8845 301.701,-40.4518 307.93,-30.7405"/>
<polygon fill="midnightblue" stroke="midnightblue" points="299.763,-127.51 307.93,-134.26 305.755,-123.89 299.763,-127.51"/>
</g>
<!-- Node30 -->
<g id="node8" class="node"><title>Node30</title>
<g id="a_node8"><a xlink:href="HamiltonianTwo_8cpp.html" target="_top" xlink:title="/travis/libpairinteraction\l/HamiltonianTwo.cpp">
<polygon fill="none" stroke="black" points="446,-0.5 446,-30.5 574,-30.5 574,-0.5 446,-0.5"/>
<text text-anchor="start" x="454" y="-18.5" font-family="Helvetica,sans-Serif" font-size="10.00">/travis/libpairinteraction</text>
<text text-anchor="middle" x="510" y="-7.5" font-family="Helvetica,sans-Serif" font-size="10.00">/HamiltonianTwo.cpp</text>
</a>
</g>
</g>
<!-- Node29&#45;&gt;Node30 -->
<g id="edge7" class="edge"><title>Node29&#45;&gt;Node30</title>
<path fill="none" stroke="midnightblue" d="M510,-57.1081C510,-48.1539 510,-38.3227 510,-30.5765"/>
<polygon fill="midnightblue" stroke="midnightblue" points="506.5,-57.3959 510,-67.396 513.5,-57.396 506.5,-57.3959"/>
</g>
<!-- Node29&#45;&gt;Node31 -->
<g id="edge8" class="edge"><title>Node29&#45;&gt;Node31</title>
<path fill="none" stroke="midnightblue" d="M458.578,-64.0917C427.584,-53.5988 388.621,-40.4082 359.58,-30.5765"/>
<polygon fill="midnightblue" stroke="midnightblue" points="457.745,-67.5044 468.339,-67.396 459.989,-60.8741 457.745,-67.5044"/>
</g>
<!-- Node33&#45;&gt;Node27 -->
<g id="edge14" class="edge"><title>Node33&#45;&gt;Node27</title>
<path fill="none" stroke="midnightblue" d="M482.211,-198.58C446.154,-188.022 400.284,-174.592 366.194,-164.611"/>
<polygon fill="midnightblue" stroke="midnightblue" points="481.522,-202.025 492.103,-201.476 483.489,-195.307 481.522,-202.025"/>
</g>
<!-- Node33&#45;&gt;Node29 -->
<g id="edge15" class="edge"><title>Node33&#45;&gt;Node29</title>
<path fill="none" stroke="midnightblue" d="M560.08,-193.463C572.614,-176.911 584.684,-153.787 575,-134 567.336,-118.341 552.215,-106.138 538.484,-97.6528"/>
<polygon fill="midnightblue" stroke="midnightblue" points="557.171,-191.494 553.595,-201.467 562.61,-195.9 557.171,-191.494"/>
</g>
<!-- Node34 -->
<g id="node12" class="node"><title>Node34</title>
<g id="a_node12"><a xlink:href="MatrixElements_8cpp.html" target="_top" xlink:title="/travis/libpairinteraction\l/MatrixElements.cpp">
<polygon fill="none" stroke="black" points="438,-134.5 438,-164.5 566,-164.5 566,-134.5 438,-134.5"/>
<text text-anchor="start" x="446" y="-152.5" font-family="Helvetica,sans-Serif" font-size="10.00">/travis/libpairinteraction</text>
<text text-anchor="middle" x="502" y="-141.5" font-family="Helvetica,sans-Serif" font-size="10.00">/MatrixElements.cpp</text>
</a>
</g>
</g>
<!-- Node33&#45;&gt;Node34 -->
<g id="edge16" class="edge"><title>Node33&#45;&gt;Node34</title>
<path fill="none" stroke="midnightblue" d="M526.598,-192.576C521.141,-183.241 515.007,-172.748 510.229,-164.577"/>
<polygon fill="midnightblue" stroke="midnightblue" points="523.686,-194.529 531.755,-201.396 529.729,-190.997 523.686,-194.529"/>
</g>
<!-- Node36 -->
<g id="node14" class="node"><title>Node36</title>
<g id="a_node14"><a xlink:href="MatrixElementCache_8cpp.html" target="_top" xlink:title="/travis/libpairinteraction\l/MatrixElementCache.cpp">
<polygon fill="none" stroke="black" points="818.5,-201.5 818.5,-231.5 957.5,-231.5 957.5,-201.5 818.5,-201.5"/>
<text text-anchor="start" x="826.5" y="-219.5" font-family="Helvetica,sans-Serif" font-size="10.00">/travis/libpairinteraction</text>
<text text-anchor="middle" x="888" y="-208.5" font-family="Helvetica,sans-Serif" font-size="10.00">/MatrixElementCache.cpp</text>
</a>
</g>
</g>
<!-- Node35&#45;&gt;Node36 -->
<g id="edge19" class="edge"><title>Node35&#45;&gt;Node36</title>
<path fill="none" stroke="midnightblue" d="M888,-258.108C888,-249.154 888,-239.323 888,-231.577"/>
<polygon fill="midnightblue" stroke="midnightblue" points="884.5,-258.396 888,-268.396 891.5,-258.396 884.5,-258.396"/>
</g>
<!-- Node37 -->
<g id="node15" class="node"><title>Node37</title>
<g id="a_node15"><a xlink:href="PerturbativeInteraction_8h.html" target="_top" xlink:title="/travis/libpairinteraction\l/PerturbativeInteraction.h">
<polygon fill="none" stroke="black" points="662,-201.5 662,-231.5 800,-231.5 800,-201.5 662,-201.5"/>
<text text-anchor="start" x="670" y="-219.5" font-family="Helvetica,sans-Serif" font-size="10.00">/travis/libpairinteraction</text>
<text text-anchor="middle" x="731" y="-208.5" font-family="Helvetica,sans-Serif" font-size="10.00">/PerturbativeInteraction.h</text>
</a>
</g>
</g>
<!-- Node35&#45;&gt;Node37 -->
<g id="edge20" class="edge"><title>Node35&#45;&gt;Node37</title>
<path fill="none" stroke="midnightblue" d="M844.63,-264.544C819.507,-254.143 788.336,-241.238 765,-231.577"/>
<polygon fill="midnightblue" stroke="midnightblue" points="843.355,-267.804 853.933,-268.396 846.033,-261.337 843.355,-267.804"/>
</g>
<!-- Node39 -->
<g id="node17" class="node"><title>Node39</title>
<g id="a_node17"><a xlink:href="SystemBase_8h.html" target="_top" xlink:title="/travis/libpairinteraction\l/SystemBase.h">
<polygon fill="none" stroke="black" points="976,-201.5 976,-231.5 1104,-231.5 1104,-201.5 976,-201.5"/>
<text text-anchor="start" x="984" y="-219.5" font-family="Helvetica,sans-Serif" font-size="10.00">/travis/libpairinteraction</text>
<text text-anchor="middle" x="1040" y="-208.5" font-family="Helvetica,sans-Serif" font-size="10.00">/SystemBase.h</text>
</a>
</g>
</g>
<!-- Node35&#45;&gt;Node39 -->
<g id="edge22" class="edge"><title>Node35&#45;&gt;Node39</title>
<path fill="none" stroke="midnightblue" d="M930.311,-264.407C954.577,-254.029 984.589,-241.195 1007.08,-231.577"/>
<polygon fill="midnightblue" stroke="midnightblue" points="928.8,-261.246 920.982,-268.396 931.553,-267.682 928.8,-261.246"/>
</g>
<!-- Node44 -->
<g id="node22" class="node"><title>Node44</title>
<g id="a_node22"><a xlink:href="integration__test_8cpp.html" target="_top" xlink:title="/travis/libpairinteraction\l/unit_test/integration_test.cpp">
<polygon fill="none" stroke="black" points="1051.5,-0.5 1051.5,-30.5 1212.5,-30.5 1212.5,-0.5 1051.5,-0.5"/>
<text text-anchor="start" x="1059.5" y="-18.5" font-family="Helvetica,sans-Serif" font-size="10.00">/travis/libpairinteraction</text>
<text text-anchor="middle" x="1132" y="-7.5" font-family="Helvetica,sans-Serif" font-size="10.00">/unit_test/integration_test.cpp</text>
</a>
</g>
</g>
<!-- Node35&#45;&gt;Node44 -->
<g id="edge30" class="edge"><title>Node35&#45;&gt;Node44</title>
<path fill="none" stroke="midnightblue" d="M962.318,-274.824C1019.68,-267.313 1092.6,-253.775 1113,-232 1166.28,-175.122 1145.67,-68.8681 1135.95,-30.6493"/>
<polygon fill="midnightblue" stroke="midnightblue" points="961.648,-271.381 952.168,-276.112 962.529,-278.325 961.648,-271.381"/>
</g>
<!-- Node38 -->
<g id="node16" class="node"><title>Node38</title>
<g id="a_node16"><a xlink:href="PerturbativeInteraction_8cpp.html" target="_top" xlink:title="/travis/libpairinteraction\l/PerturbativeInteraction.cpp">
<polygon fill="none" stroke="black" points="659.5,-134.5 659.5,-164.5 808.5,-164.5 808.5,-134.5 659.5,-134.5"/>
<text text-anchor="start" x="667.5" y="-152.5" font-family="Helvetica,sans-Serif" font-size="10.00">/travis/libpairinteraction</text>
<text text-anchor="middle" x="734" y="-141.5" font-family="Helvetica,sans-Serif" font-size="10.00">/PerturbativeInteraction.cpp</text>
</a>
</g>
</g>
<!-- Node37&#45;&gt;Node38 -->
<g id="edge21" class="edge"><title>Node37&#45;&gt;Node38</title>
<path fill="none" stroke="midnightblue" d="M732.112,-191.403C732.529,-182.37 732.989,-172.408 733.35,-164.577"/>
<polygon fill="midnightblue" stroke="midnightblue" points="728.616,-191.245 731.651,-201.396 735.608,-191.568 728.616,-191.245"/>
</g>
<!-- Node40 -->
<g id="node18" class="node"><title>Node40</title>
<g id="a_node18"><a xlink:href="SystemOne_8h.html" target="_top" xlink:title="/travis/libpairinteraction\l/SystemOne.h">
<polygon fill="none" stroke="black" points="976,-134.5 976,-164.5 1104,-164.5 1104,-134.5 976,-134.5"/>
<text text-anchor="start" x="984" y="-152.5" font-family="Helvetica,sans-Serif" font-size="10.00">/travis/libpairinteraction</text>
<text text-anchor="middle" x="1040" y="-141.5" font-family="Helvetica,sans-Serif" font-size="10.00">/SystemOne.h</text>
</a>
</g>
</g>
<!-- Node39&#45;&gt;Node40 -->
<g id="edge23" class="edge"><title>Node39&#45;&gt;Node40</title>
<path fill="none" stroke="midnightblue" d="M1040,-191.108C1040,-182.154 1040,-172.323 1040,-164.577"/>
<polygon fill="midnightblue" stroke="midnightblue" points="1036.5,-191.396 1040,-201.396 1043.5,-191.396 1036.5,-191.396"/>
</g>
<!-- Node42 -->
<g id="node20" class="node"><title>Node42</title>
<g id="a_node20"><a xlink:href="SystemTwo_8h.html" target="_top" xlink:title="/travis/libpairinteraction\l/SystemTwo.h">
<polygon fill="none" stroke="black" points="830,-67.5 830,-97.5 958,-97.5 958,-67.5 830,-67.5"/>
<text text-anchor="start" x="838" y="-85.5" font-family="Helvetica,sans-Serif" font-size="10.00">/travis/libpairinteraction</text>
<text text-anchor="middle" x="894" y="-74.5" font-family="Helvetica,sans-Serif" font-size="10.00">/SystemTwo.h</text>
</a>
</g>
</g>
<!-- Node39&#45;&gt;Node42 -->
<g id="edge29" class="edge"><title>Node39&#45;&gt;Node42</title>
<path fill="none" stroke="midnightblue" d="M1008.23,-195.881C994.958,-187.098 979.704,-176.205 967,-165 942.782,-143.64 918.537,-114.709 904.981,-97.6814"/>
<polygon fill="midnightblue" stroke="midnightblue" points="1006.32,-198.818 1016.62,-201.331 1010.14,-192.948 1006.32,-198.818"/>
</g>
<!-- Node41 -->
<g id="node19" class="node"><title>Node41</title>
<g id="a_node19"><a xlink:href="SystemOne_8cpp.html" target="_top" xlink:title="/travis/libpairinteraction\l/SystemOne.cpp">
<polygon fill="none" stroke="black" points="976,-67.5 976,-97.5 1104,-97.5 1104,-67.5 976,-67.5"/>
<text text-anchor="start" x="984" y="-85.5" font-family="Helvetica,sans-Serif" font-size="10.00">/travis/libpairinteraction</text>
<text text-anchor="middle" x="1040" y="-74.5" font-family="Helvetica,sans-Serif" font-size="10.00">/SystemOne.cpp</text>
</a>
</g>
</g>
<!-- Node40&#45;&gt;Node41 -->
<g id="edge24" class="edge"><title>Node40&#45;&gt;Node41</title>
<path fill="none" stroke="midnightblue" d="M1040,-124.108C1040,-115.154 1040,-105.323 1040,-97.5765"/>
<polygon fill="midnightblue" stroke="midnightblue" points="1036.5,-124.396 1040,-134.396 1043.5,-124.396 1036.5,-124.396"/>
</g>
<!-- Node40&#45;&gt;Node42 -->
<g id="edge25" class="edge"><title>Node40&#45;&gt;Node42</title>
<path fill="none" stroke="midnightblue" d="M999.05,-130.269C975.796,-119.916 947.128,-107.153 925.618,-97.5765"/>
<polygon fill="midnightblue" stroke="midnightblue" points="997.761,-133.526 1008.32,-134.396 1000.61,-127.131 997.761,-133.526"/>
</g>
<!-- Node40&#45;&gt;Node44 -->
<g id="edge28" class="edge"><title>Node40&#45;&gt;Node44</title>
<path fill="none" stroke="midnightblue" d="M1078.65,-129.277C1091.31,-121.222 1104.34,-110.734 1113,-98 1126.97,-77.4578 1130.76,-47.9948 1131.73,-30.6943"/>
<polygon fill="midnightblue" stroke="midnightblue" points="1076.78,-126.318 1070.01,-134.462 1080.38,-132.322 1076.78,-126.318"/>
</g>
<!-- Node43 -->
<g id="node21" class="node"><title>Node43</title>
<g id="a_node21"><a xlink:href="SystemTwo_8cpp.html" target="_top" xlink:title="/travis/libpairinteraction\l/SystemTwo.cpp">
<polygon fill="none" stroke="black" points="830,-0.5 830,-30.5 958,-30.5 958,-0.5 830,-0.5"/>
<text text-anchor="start" x="838" y="-18.5" font-family="Helvetica,sans-Serif" font-size="10.00">/travis/libpairinteraction</text>
<text text-anchor="middle" x="894" y="-7.5" font-family="Helvetica,sans-Serif" font-size="10.00">/SystemTwo.cpp</text>
</a>
</g>
</g>
<!-- Node42&#45;&gt;Node43 -->
<g id="edge26" class="edge"><title>Node42&#45;&gt;Node43</title>
<path fill="none" stroke="midnightblue" d="M894,-57.1081C894,-48.1539 894,-38.3227 894,-30.5765"/>
<polygon fill="midnightblue" stroke="midnightblue" points="890.5,-57.3959 894,-67.396 897.5,-57.396 890.5,-57.3959"/>
</g>
<!-- Node42&#45;&gt;Node44 -->
<g id="edge27" class="edge"><title>Node42&#45;&gt;Node44</title>
<path fill="none" stroke="midnightblue" d="M955.459,-64.7149C994.189,-54.1373 1043.63,-40.6348 1080.33,-30.6109"/>
<polygon fill="midnightblue" stroke="midnightblue" points="954.074,-61.465 945.349,-67.476 955.918,-68.2177 954.074,-61.465"/>
</g>
</g>
</svg>
        <g id="navigator" transform="translate(0 0)" fill="#404254">
                <rect fill="#f2f5e9" fill-opacity="0.5" stroke="#606060" stroke-width=".5" x="0" y="0" width="60" height="60"/>
                <use id="zoomplus" xlink:href="#zoomPlus" x="17" y="9" onmousedown="handleZoom(evt,'in')"/>
                <use id="zoomminus" xlink:href="#zoomMin" x="42" y="9" onmousedown="handleZoom(evt,'out')"/>
                <use id="reset" xlink:href="#resetDef" x="30" y="36" onmousedown="handleReset()"/>
                <g id="arrowUp" xlink:href="#dirArrow" transform="translate(30 24)" onmousedown="handlePan(0,-1)">
                  <use xlink:href="#rim" fill="#404040">
                        <set attributeName="fill" to="#808080" begin="arrowUp.mouseover" end="arrowUp.mouseout"/>
                  </use>
                  <path fill="none" stroke="white" stroke-width="1.5" d="M0,-3.0v7 M-2.5,-0.5L0,-3.0L2.5,-0.5"/>
                </g>
                <g id="arrowRight" xlink:href="#dirArrow" transform="rotate(90) translate(36 -43)" onmousedown="handlePan(1,0)">
                  <use xlink:href="#rim" fill="#404040">
                        <set attributeName="fill" to="#808080" begin="arrowRight.mouseover" end="arrowRight.mouseout"/>
                  </use>
                  <path fill="none" stroke="white" stroke-width="1.5" d="M0,-3.0v7 M-2.5,-0.5L0,-3.0L2.5,-0.5"/>
                </g>
                <g id="arrowDown" xlink:href="#dirArrow" transform="rotate(180) translate(-30 -48)" onmousedown="handlePan(0,1)">
                  <use xlink:href="#rim" fill="#404040">
                        <set attributeName="fill" to="#808080" begin="arrowDown.mouseover" end="arrowDown.mouseout"/>
                  </use>
                  <path fill="none" stroke="white" stroke-width="1.5" d="M0,-3.0v7 M-2.5,-0.5L0,-3.0L2.5,-0.5"/>
                </g>
                <g id="arrowLeft" xlink:href="#dirArrow" transform="rotate(270) translate(-36 17)" onmousedown="handlePan(-1,0)">
                  <use xlink:href="#rim" fill="#404040">
                        <set attributeName="fill" to="#808080" begin="arrowLeft.mouseover" end="arrowLeft.mouseout"/>
                  </use>
                  <path fill="none" stroke="white" stroke-width="1.5" d="M0,-3.0v7 M-2.5,-0.5L0,-3.0L2.5,-0.5"/>
                </g>
        </g>
        <svg viewBox="0 0 15 15" width="100%" height="30px" preserveAspectRatio="xMaxYMin meet">
         <g id="arrow_out" transform="scale(0.3 0.3)">
          <a xlink:href="Basisnames_8h__dep__incl_org.svg" target="_base">
           <rect id="button" ry="5" rx="5" y="6" x="6" height="38" width="38"
                fill="#f2f5e9" fill-opacity="0.5" stroke="#606060" stroke-width="1.0"/>
           <path id="arrow"
             d="M 11.500037,31.436501 C 11.940474,20.09759 22.043105,11.32322 32.158766,21.979434 L 37.068811,17.246167 C 37.068811,17.246167 37.088388,32 37.088388,32 L 22.160133,31.978069 C 22.160133,31.978069 26.997745,27.140456 26.997745,27.140456 C 18.528582,18.264221 13.291696,25.230495 11.500037,31.436501 z"
             style="fill:#404040;"/>
          </a>
         </g>
        </svg>
</svg>
