<?xml version="1.0" encoding="UTF-8" standalone="no"?>
<!DOCTYPE svg PUBLIC "-//W3C//DTD SVG 1.1//EN"
 "http://www.w3.org/Graphics/SVG/1.1/DTD/svg11.dtd">
<!-- Generated by graphviz version 2.38.0 (20140413.2041)
 -->
<!-- Title: /travis/libpairinteraction/Basisnames.h Pages: 1 -->
<!--zoomable 218 -->
<svg id="main" version="1.1" xmlns="http://www.w3.org/2000/svg" xmlns:xlink="http://www.w3.org/1999/xlink" xml:space="preserve" onload="init(evt)">
<style type="text/css"><![CDATA[
.edge:hover path { stroke: red; }
.edge:hover polygon { stroke: red; fill: red; }
]]></style>
<script type="text/javascript"><![CDATA[
var edges = document.getElementsByTagName('g');
if (edges && edges.length) {
  for (var i=0;i<edges.length;i++) {
    if (edges[i].id.substr(0,4)=='edge') {
      edges[i].setAttribute('class','edge');
    }
  }
}
]]></script>
        <defs>
                <circle id="rim" cx="0" cy="0" r="7"/>
                <circle id="rim2" cx="0" cy="0" r="3.5"/>
                <g id="zoomPlus">
                        <use xlink:href="#rim" fill="#404040">
                                <set attributeName="fill" to="#808080" begin="zoomplus.mouseover" end="zoomplus.mouseout"/>
                        </use>
                        <path d="M-4,0h8M0,-4v8" fill="none" stroke="white" stroke-width="1.5" pointer-events="none"/>
                </g>
                <g id="zoomMin">
                        <use xlink:href="#rim" fill="#404040">
                                <set attributeName="fill" to="#808080" begin="zoomminus.mouseover" end="zoomminus.mouseout"/>
                        </use>
                        <path d="M-4,0h8" fill="none" stroke="white" stroke-width="1.5" pointer-events="none"/>
                </g>
                <g id="dirArrow">
                        <path fill="none" stroke="white" stroke-width="1.5" d="M0,-3.0v7 M-2.5,-0.5L0,-3.0L2.5,-0.5"/>
                </g>
               <g id="resetDef">
                       <use xlink:href="#rim2" fill="#404040">
                               <set attributeName="fill" to="#808080" begin="reset.mouseover" end="reset.mouseout"/>
                       </use>
               </g>
        </defs>

<script type="text/javascript">
var viewWidth = 1112;
var viewHeight = 218;
var sectionId = 'dynsection-0';
</script>
<script xlink:href="svgpan.js"/>
<svg id="graph" class="graph">
<g id="viewport">
<title>/travis/libpairinteraction/Basisnames.h</title>
<!-- Node0 -->
<g id="node1" class="node"><title>Node0</title>
<polygon fill="#bfbfbf" stroke="black" points="466,-179.5 466,-209.5 594,-209.5 594,-179.5 466,-179.5"/>
<text text-anchor="start" x="474" y="-197.5" font-family="Helvetica,sans-Serif" font-size="10.00">/travis/libpairinteraction</text>
<text text-anchor="middle" x="530" y="-186.5" font-family="Helvetica,sans-Serif" font-size="10.00">/Basisnames.h</text>
</g>
<!-- Node1 -->
<g id="node2" class="node"><title>Node1</title>
<g id="a_node2"><a xlink:href="ConfParser_8h.html" target="_top" xlink:title="ConfParser.h">
<polygon fill="none" stroke="black" points="152.5,-123.5 152.5,-142.5 229.5,-142.5 229.5,-123.5 152.5,-123.5"/>
<text text-anchor="middle" x="191" y="-130.5" font-family="Helvetica,sans-Serif" font-size="10.00">ConfParser.h</text>
</a>
</g>
</g>
<!-- Node0&#45;&gt;Node1 -->
<g id="edge1" class="edge"><title>Node0&#45;&gt;Node1</title>
<path fill="none" stroke="midnightblue" d="M465.838,-182.239C399.97,-170.678 298.94,-152.945 239.467,-142.507"/>
<polygon fill="midnightblue" stroke="midnightblue" points="240.032,-139.052 229.578,-140.771 238.822,-145.947 240.032,-139.052"/>
</g>
<!-- Node4 -->
<g id="node5" class="node"><title>Node4</title>
<polygon fill="none" stroke="#bfbfbf" points="270,-62 270,-81 314,-81 314,-62 270,-62"/>
<text text-anchor="middle" x="292" y="-69" font-family="Helvetica,sans-Serif" font-size="10.00">string</text>
</g>
<!-- Node0&#45;&gt;Node4 -->
<g id="edge26" class="edge"><title>Node0&#45;&gt;Node4</title>
<path fill="none" stroke="midnightblue" d="M465.698,-190.994C422.693,-186.298 367.045,-174.049 328,-143 311.57,-129.934 301.93,-107.361 296.826,-91.2773"/>
<polygon fill="midnightblue" stroke="midnightblue" points="300.109,-90.0259 293.99,-81.3762 293.379,-91.9534 300.109,-90.0259"/>
</g>
<!-- Node6 -->
<g id="node7" class="node"><title>Node6</title>
<g id="a_node7"><a xlink:href="Iter_8h.html" target="_top" xlink:title="Iter.h">
<polygon fill="none" stroke="black" points="542.5,-123.5 542.5,-142.5 583.5,-142.5 583.5,-123.5 542.5,-123.5"/>
<text text-anchor="middle" x="563" y="-130.5" font-family="Helvetica,sans-Serif" font-size="10.00">Iter.h</text>
</a>
</g>
</g>
<!-- Node0&#45;&gt;Node6 -->
<g id="edge6" class="edge"><title>Node0&#45;&gt;Node6</title>
<path fill="none" stroke="midnightblue" d="M537.821,-179.399C542.468,-171.021 548.399,-160.327 553.337,-151.423"/>
<polygon fill="midnightblue" stroke="midnightblue" points="556.409,-153.1 558.198,-142.658 550.287,-149.705 556.409,-153.1"/>
</g>
<!-- Node7 -->
<g id="node8" class="node"><title>Node7</title>
<g id="a_node8"><a xlink:href="State_8h.html" target="_top" xlink:title="State.h">
<polygon fill="none" stroke="black" points="472,-123.5 472,-142.5 524,-142.5 524,-123.5 472,-123.5"/>
<text text-anchor="middle" x="498" y="-130.5" font-family="Helvetica,sans-Serif" font-size="10.00">State.h</text>
</a>
</g>
</g>
<!-- Node0&#45;&gt;Node7 -->
<g id="edge7" class="edge"><title>Node0&#45;&gt;Node7</title>
<path fill="none" stroke="midnightblue" d="M522.416,-179.399C517.958,-171.11 512.281,-160.554 507.523,-151.708"/>
<polygon fill="midnightblue" stroke="midnightblue" points="510.475,-149.807 502.656,-142.658 504.31,-153.123 510.475,-149.807"/>
</g>
<!-- Node8 -->
<g id="node9" class="node"><title>Node8</title>
<g id="a_node9"><a xlink:href="dtypes_8h.html" target="_top" xlink:title="dtypes.h">
<polygon fill="none" stroke="black" points="370,-62 370,-81 428,-81 428,-62 370,-62"/>
<text text-anchor="middle" x="399" y="-69" font-family="Helvetica,sans-Serif" font-size="10.00">dtypes.h</text>
</a>
</g>
</g>
<!-- Node0&#45;&gt;Node8 -->
<g id="edge22" class="edge"><title>Node0&#45;&gt;Node8</title>
<path fill="none" stroke="midnightblue" d="M509.281,-179.417C495.626,-169.772 477.632,-156.354 463,-143 444.22,-125.859 424.903,-103.866 412.474,-89.0384"/>
<polygon fill="midnightblue" stroke="midnightblue" points="415.081,-86.6987 406.009,-81.2273 409.689,-91.1623 415.081,-86.6987"/>
</g>
<!-- Node13 -->
<g id="node14" class="node"><title>Node13</title>
<polygon fill="none" stroke="#bfbfbf" points="305.5,-0.5 305.5,-19.5 352.5,-19.5 352.5,-0.5 305.5,-0.5"/>
<text text-anchor="middle" x="329" y="-7.5" font-family="Helvetica,sans-Serif" font-size="10.00">vector</text>
</g>
<!-- Node0&#45;&gt;Node13 -->
<g id="edge28" class="edge"><title>Node0&#45;&gt;Node13</title>
<path fill="none" stroke="midnightblue" d="M494.4,-179.42C456.402,-162.703 396.841,-131.385 361,-87 347.261,-69.9862 338.525,-46.218 333.713,-29.8131"/>
<polygon fill="midnightblue" stroke="midnightblue" points="336.994,-28.5389 330.995,-19.8058 330.238,-30.3736 336.994,-28.5389"/>
</g>
<!-- Node19 -->
<g id="node20" class="node"><title>Node19</title>
<polygon fill="none" stroke="#bfbfbf" points="602,-123.5 602,-142.5 656,-142.5 656,-123.5 602,-123.5"/>
<text text-anchor="middle" x="629" y="-130.5" font-family="Helvetica,sans-Serif" font-size="10.00">fstream</text>
</g>
<!-- Node0&#45;&gt;Node19 -->
<g id="edge23" class="edge"><title>Node0&#45;&gt;Node19</title>
<path fill="none" stroke="midnightblue" d="M553.462,-179.399C569.331,-169.862 590.191,-157.325 605.968,-147.842"/>
<polygon fill="midnightblue" stroke="midnightblue" points="607.826,-150.809 614.595,-142.658 604.221,-144.809 607.826,-150.809"/>
</g>
<!-- Node20 -->
<g id="node21" class="node"><title>Node20</title>
<polygon fill="none" stroke="#bfbfbf" points="674.5,-123.5 674.5,-142.5 731.5,-142.5 731.5,-123.5 674.5,-123.5"/>
<text text-anchor="middle" x="703" y="-130.5" font-family="Helvetica,sans-Serif" font-size="10.00">memory</text>
</g>
<!-- Node0&#45;&gt;Node20 -->
<g id="edge24" class="edge"><title>Node0&#45;&gt;Node20</title>
<path fill="none" stroke="midnightblue" d="M570.999,-179.399C600.632,-169.207 640.226,-155.59 668.298,-145.935"/>
<polygon fill="midnightblue" stroke="midnightblue" points="669.761,-149.133 678.08,-142.571 667.485,-142.514 669.761,-149.133"/>
</g>
<!-- Node21 -->
<g id="node22" class="node"><title>Node21</title>
<polygon fill="none" stroke="#bfbfbf" points="750,-123.5 750,-142.5 782,-142.5 782,-123.5 750,-123.5"/>
<text text-anchor="middle" x="766" y="-130.5" font-family="Helvetica,sans-Serif" font-size="10.00">set</text>
</g>
<!-- Node0&#45;&gt;Node21 -->
<g id="edge25" class="edge"><title>Node0&#45;&gt;Node21</title>
<path fill="none" stroke="midnightblue" d="M594.2,-180.072C633.882,-171.325 685.976,-159.04 740.167,-143.003"/>
<polygon fill="midnightblue" stroke="midnightblue" points="741.373,-146.296 749.949,-140.074 739.365,-139.59 741.373,-146.296"/>
</g>
<!-- Node22 -->
<g id="node23" class="node"><title>Node22</title>
<polygon fill="none" stroke="#bfbfbf" points="800,-123.5 800,-142.5 886,-142.5 886,-123.5 800,-123.5"/>
<text text-anchor="middle" x="843" y="-130.5" font-family="Helvetica,sans-Serif" font-size="10.00">unordered_set</text>
</g>
<!-- Node0&#45;&gt;Node22 -->
<g id="edge27" class="edge"><title>Node0&#45;&gt;Node22</title>
<path fill="none" stroke="midnightblue" d="M594.096,-181.316C651.727,-170.36 735.407,-154.453 789.519,-144.167"/>
<polygon fill="midnightblue" stroke="midnightblue" points="790.428,-147.557 799.598,-142.251 789.12,-140.68 790.428,-147.557"/>
</g>
<!-- Node2 -->
<g id="node3" class="node"><title>Node2</title>
<polygon fill="none" stroke="#bfbfbf" points="0,-62 0,-81 38,-81 38,-62 0,-62"/>
<text text-anchor="middle" x="19" y="-69" font-family="Helvetica,sans-Serif" font-size="10.00">map</text>
</g>
<!-- Node1&#45;&gt;Node2 -->
<g id="edge2" class="edge"><title>Node1&#45;&gt;Node2</title>
<path fill="none" stroke="midnightblue" d="M158.113,-123.492C128.546,-115.43 84.1806,-102.299 47,-87 45.9622,-86.573 44.9111,-86.1214 43.8554,-85.6518"/>
<polygon fill="midnightblue" stroke="midnightblue" points="44.9961,-82.3162 34.4687,-81.1226 41.9541,-88.6206 44.9961,-82.3162"/>
</g>
<!-- Node3 -->
<g id="node4" class="node"><title>Node3</title>
<polygon fill="none" stroke="#bfbfbf" points="56,-62 56,-81 112,-81 112,-62 56,-62"/>
<text text-anchor="middle" x="84" y="-69" font-family="Helvetica,sans-Serif" font-size="10.00">sstream</text>
</g>
<!-- Node1&#45;&gt;Node3 -->
<g id="edge3" class="edge"><title>Node1&#45;&gt;Node3</title>
<path fill="none" stroke="midnightblue" d="M175.67,-123.475C158.03,-113.666 128.84,-97.4346 108.142,-85.925"/>
<polygon fill="midnightblue" stroke="midnightblue" points="109.743,-82.8102 99.3021,-81.0091 106.341,-88.9279 109.743,-82.8102"/>
</g>
<!-- Node1&#45;&gt;Node4 -->
<g id="edge4" class="edge"><title>Node1&#45;&gt;Node4</title>
<path fill="none" stroke="midnightblue" d="M205.471,-123.475C221.971,-113.755 249.178,-97.7266 268.681,-86.2372"/>
<polygon fill="midnightblue" stroke="midnightblue" points="270.716,-89.1005 277.556,-81.0091 267.163,-83.0693 270.716,-89.1005"/>
</g>
<!-- Node5 -->
<g id="node6" class="node"><title>Node5</title>
<polygon fill="none" stroke="#bfbfbf" points="130,-62 130,-81 252,-81 252,-62 130,-62"/>
<text text-anchor="middle" x="191" y="-69" font-family="Helvetica,sans-Serif" font-size="10.00">boost/lexical_cast.hpp</text>
</g>
<!-- Node1&#45;&gt;Node5 -->
<g id="edge5" class="edge"><title>Node1&#45;&gt;Node5</title>
<path fill="none" stroke="midnightblue" d="M191,-123.475C191,-115.08 191,-101.981 191,-91.1631"/>
<polygon fill="midnightblue" stroke="midnightblue" points="194.5,-91.0091 191,-81.0091 187.5,-91.0091 194.5,-91.0091"/>
</g>
<!-- Node7&#45;&gt;Node4 -->
<g id="edge18" class="edge"><title>Node7&#45;&gt;Node4</title>
<path fill="none" stroke="midnightblue" d="M471.91,-124.464C434.183,-113.567 364.472,-93.4325 323.79,-81.6821"/>
<polygon fill="midnightblue" stroke="midnightblue" points="324.688,-78.2985 314.11,-78.8861 322.746,-85.0236 324.688,-78.2985"/>
</g>
<!-- Node7&#45;&gt;Node8 -->
<g id="edge8" class="edge"><title>Node7&#45;&gt;Node8</title>
<path fill="none" stroke="midnightblue" d="M483.816,-123.475C467.642,-113.755 440.974,-97.7266 421.857,-86.2372"/>
<polygon fill="midnightblue" stroke="midnightblue" points="423.532,-83.1606 413.158,-81.0091 419.926,-89.1603 423.532,-83.1606"/>
</g>
<!-- Node11 -->
<g id="node12" class="node"><title>Node11</title>
<polygon fill="none" stroke="#bfbfbf" points="620.5,-0.5 620.5,-19.5 661.5,-19.5 661.5,-0.5 620.5,-0.5"/>
<text text-anchor="middle" x="641" y="-7.5" font-family="Helvetica,sans-Serif" font-size="10.00">array</text>
</g>
<!-- Node7&#45;&gt;Node11 -->
<g id="edge14" class="edge"><title>Node7&#45;&gt;Node11</title>
<path fill="none" stroke="midnightblue" d="M524.271,-125.075C527.535,-124.32 530.836,-123.607 534,-123 592.798,-111.722 761.595,-132.074 801,-87 840.17,-42.1938 728.68,-21.6987 671.933,-14.364"/>
<polygon fill="midnightblue" stroke="midnightblue" points="672.05,-10.8522 661.698,-13.1069 671.197,-17.8 672.05,-10.8522"/>
</g>
<!-- Node12 -->
<g id="node13" class="node"><title>Node12</title>
<polygon fill="none" stroke="#bfbfbf" points="790.5,-0.5 790.5,-19.5 837.5,-19.5 837.5,-0.5 790.5,-0.5"/>
<text text-anchor="middle" x="814" y="-7.5" font-family="Helvetica,sans-Serif" font-size="10.00">cmath</text>
</g>
<!-- Node7&#45;&gt;Node12 -->
<g id="edge16" class="edge"><title>Node7&#45;&gt;Node12</title>
<path fill="none" stroke="midnightblue" d="M524.266,-125.049C527.531,-124.299 530.834,-123.594 534,-123 596.744,-111.238 776.784,-134.884 819,-87 832.759,-71.3936 827.716,-46.2614 821.786,-29.2085"/>
<polygon fill="midnightblue" stroke="midnightblue" points="825.014,-27.853 818.139,-19.792 818.487,-30.3812 825.014,-27.853"/>
</g>
<!-- Node14 -->
<g id="node15" class="node"><title>Node14</title>
<polygon fill="none" stroke="#bfbfbf" points="886,-62 886,-81 1026,-81 1026,-62 886,-62"/>
<text text-anchor="middle" x="956" y="-69" font-family="Helvetica,sans-Serif" font-size="10.00">boost/functional/hash.hpp</text>
</g>
<!-- Node7&#45;&gt;Node14 -->
<g id="edge15" class="edge"><title>Node7&#45;&gt;Node14</title>
<path fill="none" stroke="midnightblue" d="M524.255,-124.989C527.522,-124.249 530.828,-123.563 534,-123 682.75,-96.6163 722.375,-107.86 872,-87 881.042,-85.7395 890.603,-84.2445 899.909,-82.7012"/>
<polygon fill="midnightblue" stroke="midnightblue" points="900.594,-86.1352 909.87,-81.0165 899.427,-79.2332 900.594,-86.1352"/>
</g>
<!-- Node15 -->
<g id="node16" class="node"><title>Node15</title>
<polygon fill="none" stroke="#bfbfbf" points="1044.5,-62 1044.5,-81 1103.5,-81 1103.5,-62 1044.5,-62"/>
<text text-anchor="middle" x="1074" y="-69" font-family="Helvetica,sans-Serif" font-size="10.00">iostream</text>
</g>
<!-- Node7&#45;&gt;Node15 -->
<g id="edge17" class="edge"><title>Node7&#45;&gt;Node15</title>
<path fill="none" stroke="midnightblue" d="M524.238,-124.883C527.507,-124.161 530.819,-123.508 534,-123 754.448,-87.7961 816.844,-134.376 1035,-87 1038.08,-86.3317 1041.24,-85.4705 1044.36,-84.5016"/>
<polygon fill="midnightblue" stroke="midnightblue" points="1045.78,-87.7165 1054.09,-81.1433 1043.49,-81.1 1045.78,-87.7165"/>
</g>
<!-- Node16 -->
<g id="node17" class="node"><title>Node16</title>
<polygon fill="none" stroke="#bfbfbf" points="446,-56.5 446,-86.5 550,-86.5 550,-56.5 446,-56.5"/>
<text text-anchor="start" x="454" y="-74.5" font-family="Helvetica,sans-Serif" font-size="10.00">boost/serialization</text>
<text text-anchor="middle" x="498" y="-63.5" font-family="Helvetica,sans-Serif" font-size="10.00">/array.hpp</text>
</g>
<!-- Node7&#45;&gt;Node16 -->
<g id="edge19" class="edge"><title>Node7&#45;&gt;Node16</title>
<path fill="none" stroke="midnightblue" d="M498,-123.475C498,-116.471 498,-106.192 498,-96.6956"/>
<polygon fill="midnightblue" stroke="midnightblue" points="501.5,-96.5229 498,-86.523 494.5,-96.523 501.5,-96.5229"/>
</g>
<!-- Node17 -->
<g id="node18" class="node"><title>Node17</title>
<polygon fill="none" stroke="#bfbfbf" points="568,-56.5 568,-86.5 672,-86.5 672,-56.5 568,-56.5"/>
<text text-anchor="start" x="576" y="-74.5" font-family="Helvetica,sans-Serif" font-size="10.00">boost/serialization</text>
<text text-anchor="middle" x="620" y="-63.5" font-family="Helvetica,sans-Serif" font-size="10.00">/string.hpp</text>
</g>
<!-- Node7&#45;&gt;Node17 -->
<g id="edge20" class="edge"><title>Node7&#45;&gt;Node17</title>
<path fill="none" stroke="midnightblue" d="M515.48,-123.475C532.775,-115.04 559.81,-101.855 582.051,-91.008"/>
<polygon fill="midnightblue" stroke="midnightblue" points="583.793,-94.0524 591.247,-86.523 580.725,-87.7607 583.793,-94.0524"/>
</g>
<!-- Node18 -->
<g id="node19" class="node"><title>Node18</title>
<polygon fill="none" stroke="#bfbfbf" points="690.5,-62 690.5,-81 791.5,-81 791.5,-62 690.5,-62"/>
<text text-anchor="middle" x="741" y="-69" font-family="Helvetica,sans-Serif" font-size="10.00">boost/variant.hpp</text>
</g>
<!-- Node7&#45;&gt;Node18 -->
<g id="edge21" class="edge"><title>Node7&#45;&gt;Node18</title>
<path fill="none" stroke="midnightblue" d="M524.342,-125.396C527.594,-124.586 530.873,-123.772 534,-123 589.737,-109.234 653.975,-93.5982 695.92,-83.4195"/>
<polygon fill="midnightblue" stroke="midnightblue" points="696.931,-86.7759 705.824,-81.0171 695.281,-79.9732 696.931,-86.7759"/>
</g>
<!-- Node9 -->
<g id="node10" class="node"><title>Node9</title>
<polygon fill="none" stroke="#bfbfbf" points="469.5,-0.5 469.5,-19.5 546.5,-19.5 546.5,-0.5 469.5,-0.5"/>
<text text-anchor="middle" x="508" y="-7.5" font-family="Helvetica,sans-Serif" font-size="10.00">Eigen/Dense</text>
</g>
<!-- Node8&#45;&gt;Node9 -->
<g id="edge9" class="edge"><title>Node8&#45;&gt;Node9</title>
<path fill="none" stroke="midnightblue" d="M414.617,-61.9751C432.586,-52.1664 462.321,-35.9346 483.406,-24.425"/>
<polygon fill="midnightblue" stroke="midnightblue" points="485.311,-27.3726 492.412,-19.5091 481.958,-21.2284 485.311,-27.3726"/>
</g>
<!-- Node10 -->
<g id="node11" class="node"><title>Node10</title>
<polygon fill="none" stroke="#bfbfbf" points="371,-0.5 371,-19.5 451,-19.5 451,-0.5 371,-0.5"/>
<text text-anchor="middle" x="411" y="-7.5" font-family="Helvetica,sans-Serif" font-size="10.00">Eigen/Sparse</text>
</g>
<!-- Node8&#45;&gt;Node10 -->
<g id="edge10" class="edge"><title>Node8&#45;&gt;Node10</title>
<path fill="none" stroke="midnightblue" d="M400.719,-61.9751C402.43,-53.4919 405.11,-40.2043 407.305,-29.3222"/>
<polygon fill="midnightblue" stroke="midnightblue" points="410.738,-30.0037 409.284,-19.5091 403.876,-28.6197 410.738,-30.0037"/>
</g>
<!-- Node8&#45;&gt;Node11 -->
<g id="edge11" class="edge"><title>Node8&#45;&gt;Node11</title>
<path fill="none" stroke="midnightblue" d="M419.716,-61.9622C425.273,-59.8465 431.318,-57.7008 437,-56 497.6,-37.862 570.318,-23.5511 610.513,-16.2717"/>
<polygon fill="midnightblue" stroke="midnightblue" points="611.249,-19.6956 620.477,-14.4909 610.017,-12.8048 611.249,-19.6956"/>
</g>
<!-- Node8&#45;&gt;Node12 -->
<g id="edge12" class="edge"><title>Node8&#45;&gt;Node12</title>
<path fill="none" stroke="midnightblue" d="M418.821,-61.8835C424.591,-59.6652 430.967,-57.4871 437,-56 501.926,-39.9971 700.741,-21.0946 780.438,-13.9404"/>
<polygon fill="midnightblue" stroke="midnightblue" points="780.78,-17.4239 790.43,-13.0492 780.158,-10.4516 780.78,-17.4239"/>
</g>
<!-- Node8&#45;&gt;Node13 -->
<g id="edge13" class="edge"><title>Node8&#45;&gt;Node13</title>
<path fill="none" stroke="midnightblue" d="M388.971,-61.9751C377.951,-52.6082 360.04,-37.3839 346.657,-26.0081"/>
<polygon fill="midnightblue" stroke="midnightblue" points="348.897,-23.3188 339.011,-19.5091 344.363,-28.6524 348.897,-23.3188"/>
</g>
</g>
</svg>
        <g id="navigator" transform="translate(0 0)" fill="#404254">
                <rect fill="#f2f5e9" fill-opacity="0.5" stroke="#606060" stroke-width=".5" x="0" y="0" width="60" height="60"/>
                <use id="zoomplus" xlink:href="#zoomPlus" x="17" y="9" onmousedown="handleZoom(evt,'in')"/>
                <use id="zoomminus" xlink:href="#zoomMin" x="42" y="9" onmousedown="handleZoom(evt,'out')"/>
                <use id="reset" xlink:href="#resetDef" x="30" y="36" onmousedown="handleReset()"/>
                <g id="arrowUp" xlink:href="#dirArrow" transform="translate(30 24)" onmousedown="handlePan(0,-1)">
                  <use xlink:href="#rim" fill="#404040">
                        <set attributeName="fill" to="#808080" begin="arrowUp.mouseover" end="arrowUp.mouseout"/>
                  </use>
                  <path fill="none" stroke="white" stroke-width="1.5" d="M0,-3.0v7 M-2.5,-0.5L0,-3.0L2.5,-0.5"/>
                </g>
                <g id="arrowRight" xlink:href="#dirArrow" transform="rotate(90) translate(36 -43)" onmousedown="handlePan(1,0)">
                  <use xlink:href="#rim" fill="#404040">
                        <set attributeName="fill" to="#808080" begin="arrowRight.mouseover" end="arrowRight.mouseout"/>
                  </use>
                  <path fill="none" stroke="white" stroke-width="1.5" d="M0,-3.0v7 M-2.5,-0.5L0,-3.0L2.5,-0.5"/>
                </g>
                <g id="arrowDown" xlink:href="#dirArrow" transform="rotate(180) translate(-30 -48)" onmousedown="handlePan(0,1)">
                  <use xlink:href="#rim" fill="#404040">
                        <set attributeName="fill" to="#808080" begin="arrowDown.mouseover" end="arrowDown.mouseout"/>
                  </use>
                  <path fill="none" stroke="white" stroke-width="1.5" d="M0,-3.0v7 M-2.5,-0.5L0,-3.0L2.5,-0.5"/>
                </g>
                <g id="arrowLeft" xlink:href="#dirArrow" transform="rotate(270) translate(-36 17)" onmousedown="handlePan(-1,0)">
                  <use xlink:href="#rim" fill="#404040">
                        <set attributeName="fill" to="#808080" begin="arrowLeft.mouseover" end="arrowLeft.mouseout"/>
                  </use>
                  <path fill="none" stroke="white" stroke-width="1.5" d="M0,-3.0v7 M-2.5,-0.5L0,-3.0L2.5,-0.5"/>
                </g>
        </g>
        <svg viewBox="0 0 15 15" width="100%" height="30px" preserveAspectRatio="xMaxYMin meet">
         <g id="arrow_out" transform="scale(0.3 0.3)">
          <a xlink:href="Basisnames_8h__incl_org.svg" target="_base">
           <rect id="button" ry="5" rx="5" y="6" x="6" height="38" width="38"
                fill="#f2f5e9" fill-opacity="0.5" stroke="#606060" stroke-width="1.0"/>
           <path id="arrow"
             d="M 11.500037,31.436501 C 11.940474,20.09759 22.043105,11.32322 32.158766,21.979434 L 37.068811,17.246167 C 37.068811,17.246167 37.088388,32 37.088388,32 L 22.160133,31.978069 C 22.160133,31.978069 26.997745,27.140456 26.997745,27.140456 C 18.528582,18.264221 13.291696,25.230495 11.500037,31.436501 z"
             style="fill:#404040;"/>
          </a>
         </g>
        </svg>
</svg>
