<?xml version="1.0" encoding="UTF-8" standalone="no"?>
<!DOCTYPE svg PUBLIC "-//W3C//DTD SVG 1.1//EN"
 "http://www.w3.org/Graphics/SVG/1.1/DTD/svg11.dtd">
<!-- Generated by graphviz version 2.38.0 (20140413.2041)
 -->
<!-- Title: /travis/libpairinteraction/Cache.h Pages: 1 -->
<!--zoomable 530 -->
<svg id="main" version="1.1" xmlns="http://www.w3.org/2000/svg" xmlns:xlink="http://www.w3.org/1999/xlink" xml:space="preserve" onload="init(evt)">
<style type="text/css"><![CDATA[
.edge:hover path { stroke: red; }
.edge:hover polygon { stroke: red; fill: red; }
]]></style>
<script type="text/javascript"><![CDATA[
var edges = document.getElementsByTagName('g');
if (edges && edges.length) {
  for (var i=0;i<edges.length;i++) {
    if (edges[i].id.substr(0,4)=='edge') {
      edges[i].setAttribute('class','edge');
    }
  }
}
]]></script>
        <defs>
                <circle id="rim" cx="0" cy="0" r="7"/>
                <circle id="rim2" cx="0" cy="0" r="3.5"/>
                <g id="zoomPlus">
                        <use xlink:href="#rim" fill="#404040">
                                <set attributeName="fill" to="#808080" begin="zoomplus.mouseover" end="zoomplus.mouseout"/>
                        </use>
                        <path d="M-4,0h8M0,-4v8" fill="none" stroke="white" stroke-width="1.5" pointer-events="none"/>
                </g>
                <g id="zoomMin">
                        <use xlink:href="#rim" fill="#404040">
                                <set attributeName="fill" to="#808080" begin="zoomminus.mouseover" end="zoomminus.mouseout"/>
                        </use>
                        <path d="M-4,0h8" fill="none" stroke="white" stroke-width="1.5" pointer-events="none"/>
                </g>
                <g id="dirArrow">
                        <path fill="none" stroke="white" stroke-width="1.5" d="M0,-3.0v7 M-2.5,-0.5L0,-3.0L2.5,-0.5"/>
                </g>
               <g id="resetDef">
                       <use xlink:href="#rim2" fill="#404040">
                               <set attributeName="fill" to="#808080" begin="reset.mouseover" end="reset.mouseout"/>
                       </use>
               </g>
        </defs>

<script type="text/javascript">
var viewWidth = 1121;
var viewHeight = 530;
var sectionId = 'dynsection-1';
</script>
<script xlink:href="svgpan.js"/>
<svg id="graph" class="graph">
<g id="viewport">
<title>/travis/libpairinteraction/Cache.h</title>
<!-- Node4 -->
<g id="node1" class="node"><title>Node4</title>
<polygon fill="#bfbfbf" stroke="black" points="641,-491.5 641,-521.5 769,-521.5 769,-491.5 641,-491.5"/>
<text text-anchor="start" x="649" y="-509.5" font-family="Helvetica,sans-Serif" font-size="10.00">/travis/libpairinteraction</text>
<text text-anchor="middle" x="705" y="-498.5" font-family="Helvetica,sans-Serif" font-size="10.00">/Cache.h</text>
</g>
<!-- Node5 -->
<g id="node2" class="node"><title>Node5</title>
<g id="a_node2"><a xlink:href="QuantumDefect_8h.html" target="_top" xlink:title="/travis/libpairinteraction\l/QuantumDefect.h">
<polygon fill="none" stroke="black" points="566,-424.5 566,-454.5 694,-454.5 694,-424.5 566,-424.5"/>
<text text-anchor="start" x="574" y="-442.5" font-family="Helvetica,sans-Serif" font-size="10.00">/travis/libpairinteraction</text>
<text text-anchor="middle" x="630" y="-431.5" font-family="Helvetica,sans-Serif" font-size="10.00">/QuantumDefect.h</text>
</a>
</g>
</g>
<!-- Node4&#45;&gt;Node5 -->
<g id="edge1" class="edge"><title>Node4&#45;&gt;Node5</title>
<path fill="none" stroke="midnightblue" d="M680.882,-484.598C669.557,-474.783 656.359,-463.344 646.242,-454.577"/>
<polygon fill="midnightblue" stroke="midnightblue" points="678.877,-487.492 688.726,-491.396 683.461,-482.202 678.877,-487.492"/>
</g>
<!-- Node29 -->
<g id="node26" class="node"><title>Node29</title>
<g id="a_node26"><a xlink:href="cache__test_8cpp.html" target="_top" xlink:title="/travis/libpairinteraction\l/unit_test/cache_test.cpp">
<polygon fill="none" stroke="black" points="712.5,-424.5 712.5,-454.5 849.5,-454.5 849.5,-424.5 712.5,-424.5"/>
<text text-anchor="start" x="720.5" y="-442.5" font-family="Helvetica,sans-Serif" font-size="10.00">/travis/libpairinteraction</text>
<text text-anchor="middle" x="781" y="-431.5" font-family="Helvetica,sans-Serif" font-size="10.00">/unit_test/cache_test.cpp</text>
</a>
</g>
</g>
<!-- Node4&#45;&gt;Node29 -->
<g id="edge34" class="edge"><title>Node4&#45;&gt;Node29</title>
<path fill="none" stroke="midnightblue" d="M729.106,-484.883C740.655,-475.005 754.19,-463.429 764.541,-454.577"/>
<polygon fill="midnightblue" stroke="midnightblue" points="726.816,-482.236 721.491,-491.396 731.365,-487.556 726.816,-482.236"/>
</g>
<!-- Node6 -->
<g id="node3" class="node"><title>Node6</title>
<g id="a_node3"><a xlink:href="Wavefunction_8h.html" target="_top" xlink:title="/travis/libpairinteraction\l/Wavefunction.h">
<polygon fill="none" stroke="black" points="455,-352 455,-382 583,-382 583,-352 455,-352"/>
<text text-anchor="start" x="463" y="-370" font-family="Helvetica,sans-Serif" font-size="10.00">/travis/libpairinteraction</text>
<text text-anchor="middle" x="519" y="-359" font-family="Helvetica,sans-Serif" font-size="10.00">/Wavefunction.h</text>
</a>
</g>
</g>
<!-- Node5&#45;&gt;Node6 -->
<g id="edge2" class="edge"><title>Node5&#45;&gt;Node6</title>
<path fill="none" stroke="midnightblue" d="M599.176,-418.922C580.757,-407.224 557.785,-392.634 541.157,-382.073"/>
<polygon fill="midnightblue" stroke="midnightblue" points="597.486,-421.996 607.804,-424.403 601.239,-416.087 597.486,-421.996"/>
</g>
<!-- Node13 -->
<g id="node10" class="node"><title>Node13</title>
<g id="a_node10"><a xlink:href="MatrixElements_8cpp.html" target="_top" xlink:title="/travis/libpairinteraction\l/MatrixElements.cpp">
<polygon fill="none" stroke="black" points="0,-201.5 0,-231.5 128,-231.5 128,-201.5 0,-201.5"/>
<text text-anchor="start" x="8" y="-219.5" font-family="Helvetica,sans-Serif" font-size="10.00">/travis/libpairinteraction</text>
<text text-anchor="middle" x="64" y="-208.5" font-family="Helvetica,sans-Serif" font-size="10.00">/MatrixElements.cpp</text>
</a>
</g>
</g>
<!-- Node5&#45;&gt;Node13 -->
<g id="edge28" class="edge"><title>Node5&#45;&gt;Node13</title>
<path fill="none" stroke="midnightblue" d="M555.777,-435.62C451.566,-428.228 259.99,-402.079 129,-310 100.097,-289.683 79.7039,-252.206 70.1428,-231.745"/>
<polygon fill="midnightblue" stroke="midnightblue" points="555.68,-439.121 565.892,-436.298 556.148,-432.137 555.68,-439.121"/>
</g>
<!-- Node15 -->
<g id="node12" class="node"><title>Node15</title>
<g id="a_node12"><a xlink:href="MatrixElementCache_8cpp.html" target="_top" xlink:title="/travis/libpairinteraction\l/MatrixElementCache.cpp">
<polygon fill="none" stroke="black" points="330.5,-201.5 330.5,-231.5 469.5,-231.5 469.5,-201.5 330.5,-201.5"/>
<text text-anchor="start" x="338.5" y="-219.5" font-family="Helvetica,sans-Serif" font-size="10.00">/travis/libpairinteraction</text>
<text text-anchor="middle" x="400" y="-208.5" font-family="Helvetica,sans-Serif" font-size="10.00">/MatrixElementCache.cpp</text>
</a>
</g>
</g>
<!-- Node5&#45;&gt;Node15 -->
<g id="edge27" class="edge"><title>Node5&#45;&gt;Node15</title>
<path fill="none" stroke="midnightblue" d="M555.388,-434.123C518.363,-428.301 475.391,-415.53 446,-388 401.024,-345.872 398.317,-264.79 399.229,-231.895"/>
<polygon fill="midnightblue" stroke="midnightblue" points="555.263,-437.64 565.657,-435.587 556.251,-430.711 555.263,-437.64"/>
</g>
<!-- Node24 -->
<g id="node21" class="node"><title>Node24</title>
<g id="a_node21"><a xlink:href="wavefunction__test_8cpp.html" target="_top" xlink:title="/travis/libpairinteraction\l/unit_test/wavefunction\l_test.cpp">
<polygon fill="none" stroke="black" points="574,-268.5 574,-309.5 702,-309.5 702,-268.5 574,-268.5"/>
<text text-anchor="start" x="582" y="-297.5" font-family="Helvetica,sans-Serif" font-size="10.00">/travis/libpairinteraction</text>
<text text-anchor="start" x="582" y="-286.5" font-family="Helvetica,sans-Serif" font-size="10.00">/unit_test/wavefunction</text>
<text text-anchor="middle" x="638" y="-275.5" font-family="Helvetica,sans-Serif" font-size="10.00">_test.cpp</text>
</a>
</g>
</g>
<!-- Node5&#45;&gt;Node24 -->
<g id="edge32" class="edge"><title>Node5&#45;&gt;Node24</title>
<path fill="none" stroke="midnightblue" d="M631.316,-414.075C632.891,-384.831 635.498,-336.439 636.947,-309.547"/>
<polygon fill="midnightblue" stroke="midnightblue" points="627.81,-414.087 630.767,-424.261 634.8,-414.464 627.81,-414.087"/>
</g>
<!-- Node25 -->
<g id="node22" class="node"><title>Node25</title>
<g id="a_node22"><a xlink:href="Wavefunction_8cpp.html" target="_top" xlink:title="/travis/libpairinteraction\l/Wavefunction.cpp">
<polygon fill="none" stroke="black" points="720,-274 720,-304 848,-304 848,-274 720,-274"/>
<text text-anchor="start" x="728" y="-292" font-family="Helvetica,sans-Serif" font-size="10.00">/travis/libpairinteraction</text>
<text text-anchor="middle" x="784" y="-281" font-family="Helvetica,sans-Serif" font-size="10.00">/Wavefunction.cpp</text>
</a>
</g>
</g>
<!-- Node5&#45;&gt;Node25 -->
<g id="edge33" class="edge"><title>Node5&#45;&gt;Node25</title>
<path fill="none" stroke="midnightblue" d="M634.804,-414.447C639.959,-394.058 649.958,-365.158 668,-346 686.398,-326.464 713.036,-312.938 736.147,-304.081"/>
<polygon fill="midnightblue" stroke="midnightblue" points="631.383,-413.704 632.533,-424.237 638.202,-415.287 631.383,-413.704"/>
</g>
<!-- Node26 -->
<g id="node23" class="node"><title>Node26</title>
<g id="a_node23"><a xlink:href="QuantumDefect_8cpp.html" target="_top" xlink:title="/travis/libpairinteraction\l/QuantumDefect.cpp">
<polygon fill="none" stroke="black" points="677,-352 677,-382 805,-382 805,-352 677,-352"/>
<text text-anchor="start" x="685" y="-370" font-family="Helvetica,sans-Serif" font-size="10.00">/travis/libpairinteraction</text>
<text text-anchor="middle" x="741" y="-359" font-family="Helvetica,sans-Serif" font-size="10.00">/QuantumDefect.cpp</text>
</a>
</g>
</g>
<!-- Node5&#45;&gt;Node26 -->
<g id="edge29" class="edge"><title>Node5&#45;&gt;Node26</title>
<path fill="none" stroke="midnightblue" d="M660.824,-418.922C679.243,-407.224 702.215,-392.634 718.843,-382.073"/>
<polygon fill="midnightblue" stroke="midnightblue" points="658.761,-416.087 652.196,-424.403 662.514,-421.996 658.761,-416.087"/>
</g>
<!-- Node27 -->
<g id="node24" class="node"><title>Node27</title>
<g id="a_node24"><a xlink:href="State_8cpp.html" target="_top" xlink:title="/travis/libpairinteraction\l/State.cpp">
<polygon fill="none" stroke="black" points="823,-352 823,-382 951,-382 951,-352 823,-352"/>
<text text-anchor="start" x="831" y="-370" font-family="Helvetica,sans-Serif" font-size="10.00">/travis/libpairinteraction</text>
<text text-anchor="middle" x="887" y="-359" font-family="Helvetica,sans-Serif" font-size="10.00">/State.cpp</text>
</a>
</g>
</g>
<!-- Node5&#45;&gt;Node27 -->
<g id="edge30" class="edge"><title>Node5&#45;&gt;Node27</title>
<path fill="none" stroke="midnightblue" d="M690.814,-421.818C734.891,-409.727 793.836,-393.557 835.575,-382.107"/>
<polygon fill="midnightblue" stroke="midnightblue" points="689.8,-418.466 681.082,-424.487 691.652,-425.217 689.8,-418.466"/>
</g>
<!-- Node28 -->
<g id="node25" class="node"><title>Node28</title>
<g id="a_node25"><a xlink:href="quantum__defect__test_8cpp.html" target="_top" xlink:title="/travis/libpairinteraction\l/unit_test/quantum_defect\l_test.cpp">
<polygon fill="none" stroke="black" points="969.5,-346.5 969.5,-387.5 1112.5,-387.5 1112.5,-346.5 969.5,-346.5"/>
<text text-anchor="start" x="977.5" y="-375.5" font-family="Helvetica,sans-Serif" font-size="10.00">/travis/libpairinteraction</text>
<text text-anchor="start" x="977.5" y="-364.5" font-family="Helvetica,sans-Serif" font-size="10.00">/unit_test/quantum_defect</text>
<text text-anchor="middle" x="1041" y="-353.5" font-family="Helvetica,sans-Serif" font-size="10.00">_test.cpp</text>
</a>
</g>
</g>
<!-- Node5&#45;&gt;Node28 -->
<g id="edge31" class="edge"><title>Node5&#45;&gt;Node28</title>
<path fill="none" stroke="midnightblue" d="M704.259,-423.856C818.489,-405.024 849.959,-409.234 960,-388 962.987,-387.424 966.028,-386.807 969.096,-386.161"/>
<polygon fill="midnightblue" stroke="midnightblue" points="703.342,-420.461 694.056,-425.562 704.496,-427.365 703.342,-420.461"/>
</g>
<!-- Node7 -->
<g id="node4" class="node"><title>Node7</title>
<g id="a_node4"><a xlink:href="MatrixElements_8h.html" target="_top" xlink:title="/travis/libpairinteraction\l/MatrixElements.h">
<polygon fill="none" stroke="black" points="138,-274 138,-304 266,-304 266,-274 138,-274"/>
<text text-anchor="start" x="146" y="-292" font-family="Helvetica,sans-Serif" font-size="10.00">/travis/libpairinteraction</text>
<text text-anchor="middle" x="202" y="-281" font-family="Helvetica,sans-Serif" font-size="10.00">/MatrixElements.h</text>
</a>
</g>
</g>
<!-- Node6&#45;&gt;Node7 -->
<g id="edge3" class="edge"><title>Node6&#45;&gt;Node7</title>
<path fill="none" stroke="midnightblue" d="M450.536,-349.586C393.847,-335.995 314.167,-316.892 260.439,-304.011"/>
<polygon fill="midnightblue" stroke="midnightblue" points="449.947,-353.044 460.488,-351.972 451.579,-346.237 449.947,-353.044"/>
</g>
<!-- Node14 -->
<g id="node11" class="node"><title>Node14</title>
<g id="a_node11"><a xlink:href="MatrixElementCache_8h.html" target="_top" xlink:title="/travis/libpairinteraction\l/MatrixElementCache.h">
<polygon fill="none" stroke="black" points="428,-274 428,-304 556,-304 556,-274 428,-274"/>
<text text-anchor="start" x="436" y="-292" font-family="Helvetica,sans-Serif" font-size="10.00">/travis/libpairinteraction</text>
<text text-anchor="middle" x="492" y="-281" font-family="Helvetica,sans-Serif" font-size="10.00">/MatrixElementCache.h</text>
</a>
</g>
</g>
<!-- Node6&#45;&gt;Node14 -->
<g id="edge12" class="edge"><title>Node6&#45;&gt;Node14</title>
<path fill="none" stroke="midnightblue" d="M510.46,-341.963C506.051,-329.551 500.821,-314.83 497.056,-304.231"/>
<polygon fill="midnightblue" stroke="midnightblue" points="507.276,-343.454 513.922,-351.705 513.872,-341.11 507.276,-343.454"/>
</g>
<!-- Node6&#45;&gt;Node24 -->
<g id="edge25" class="edge"><title>Node6&#45;&gt;Node24</title>
<path fill="none" stroke="midnightblue" d="M549.858,-346.292C567.451,-335.056 589.432,-321.018 607.042,-309.771"/>
<polygon fill="midnightblue" stroke="midnightblue" points="547.648,-343.551 541.104,-351.883 551.416,-349.45 547.648,-343.551"/>
</g>
<!-- Node6&#45;&gt;Node25 -->
<g id="edge26" class="edge"><title>Node6&#45;&gt;Node25</title>
<path fill="none" stroke="midnightblue" d="M577.695,-349.167C624.905,-335.627 690.472,-316.823 734.923,-304.075"/>
<polygon fill="midnightblue" stroke="midnightblue" points="576.562,-345.851 567.914,-351.972 578.491,-352.579 576.562,-345.851"/>
</g>
<!-- Node8 -->
<g id="node5" class="node"><title>Node8</title>
<g id="a_node5"><a xlink:href="HamiltonianOne_8h.html" target="_top" xlink:title="/travis/libpairinteraction\l/HamiltonianOne.h">
<polygon fill="none" stroke="black" points="184,-201.5 184,-231.5 312,-231.5 312,-201.5 184,-201.5"/>
<text text-anchor="start" x="192" y="-219.5" font-family="Helvetica,sans-Serif" font-size="10.00">/travis/libpairinteraction</text>
<text text-anchor="middle" x="248" y="-208.5" font-family="Helvetica,sans-Serif" font-size="10.00">/HamiltonianOne.h</text>
</a>
</g>
</g>
<!-- Node7&#45;&gt;Node8 -->
<g id="edge4" class="edge"><title>Node7&#45;&gt;Node8</title>
<path fill="none" stroke="midnightblue" d="M216.97,-265.057C224.128,-254.086 232.473,-241.297 238.705,-231.746"/>
<polygon fill="midnightblue" stroke="midnightblue" points="213.842,-263.446 211.309,-273.733 219.705,-267.271 213.842,-263.446"/>
</g>
<!-- Node10 -->
<g id="node7" class="node"><title>Node10</title>
<g id="a_node7"><a xlink:href="HamiltonianTwo_8h.html" target="_top" xlink:title="/travis/libpairinteraction\l/HamiltonianTwo.h">
<polygon fill="none" stroke="black" points="65,-134.5 65,-164.5 193,-164.5 193,-134.5 65,-134.5"/>
<text text-anchor="start" x="73" y="-152.5" font-family="Helvetica,sans-Serif" font-size="10.00">/travis/libpairinteraction</text>
<text text-anchor="middle" x="129" y="-141.5" font-family="Helvetica,sans-Serif" font-size="10.00">/HamiltonianTwo.h</text>
</a>
</g>
</g>
<!-- Node7&#45;&gt;Node10 -->
<g id="edge10" class="edge"><title>Node7&#45;&gt;Node10</title>
<path fill="none" stroke="midnightblue" d="M189.744,-264.914C174.578,-236.349 149.22,-188.585 136.606,-164.826"/>
<polygon fill="midnightblue" stroke="midnightblue" points="186.682,-266.612 194.463,-273.803 192.865,-263.329 186.682,-266.612"/>
</g>
<!-- Node7&#45;&gt;Node13 -->
<g id="edge11" class="edge"><title>Node7&#45;&gt;Node13</title>
<path fill="none" stroke="midnightblue" d="M165.23,-269.215C142.081,-257.389 112.689,-242.374 91.5469,-231.573"/>
<polygon fill="midnightblue" stroke="midnightblue" points="163.908,-272.47 174.405,-273.903 167.092,-266.236 163.908,-272.47"/>
</g>
<!-- Node9 -->
<g id="node6" class="node"><title>Node9</title>
<g id="a_node6"><a xlink:href="HamiltonianOne_8cpp.html" target="_top" xlink:title="/travis/libpairinteraction\l/HamiltonianOne.cpp">
<polygon fill="none" stroke="black" points="211,-134.5 211,-164.5 339,-164.5 339,-134.5 211,-134.5"/>
<text text-anchor="start" x="219" y="-152.5" font-family="Helvetica,sans-Serif" font-size="10.00">/travis/libpairinteraction</text>
<text text-anchor="middle" x="275" y="-141.5" font-family="Helvetica,sans-Serif" font-size="10.00">/HamiltonianOne.cpp</text>
</a>
</g>
</g>
<!-- Node8&#45;&gt;Node9 -->
<g id="edge5" class="edge"><title>Node8&#45;&gt;Node9</title>
<path fill="none" stroke="midnightblue" d="M257.765,-191.991C261.581,-182.804 265.829,-172.578 269.153,-164.577"/>
<polygon fill="midnightblue" stroke="midnightblue" points="254.462,-190.818 253.859,-201.396 260.927,-193.504 254.462,-190.818"/>
</g>
<!-- Node8&#45;&gt;Node10 -->
<g id="edge6" class="edge"><title>Node8&#45;&gt;Node10</title>
<path fill="none" stroke="midnightblue" d="M213.353,-196.575C194.633,-186.35 171.913,-173.94 154.771,-164.577"/>
<polygon fill="midnightblue" stroke="midnightblue" points="211.725,-199.674 222.179,-201.396 215.08,-193.531 211.725,-199.674"/>
</g>
<!-- Node12 -->
<g id="node9" class="node"><title>Node12</title>
<g id="a_node9"><a xlink:href="Interface_8cpp.html" target="_top" xlink:title="/travis/libpairinteraction\l/Interface.cpp">
<polygon fill="none" stroke="black" points="257,-67.5 257,-97.5 385,-97.5 385,-67.5 257,-67.5"/>
<text text-anchor="start" x="265" y="-85.5" font-family="Helvetica,sans-Serif" font-size="10.00">/travis/libpairinteraction</text>
<text text-anchor="middle" x="321" y="-74.5" font-family="Helvetica,sans-Serif" font-size="10.00">/Interface.cpp</text>
</a>
</g>
</g>
<!-- Node8&#45;&gt;Node12 -->
<g id="edge9" class="edge"><title>Node8&#45;&gt;Node12</title>
<path fill="none" stroke="midnightblue" d="M310.065,-197.147C325.032,-189.65 339.222,-179.267 348,-165 361.279,-143.418 345.015,-114.56 332.59,-97.6065"/>
<polygon fill="midnightblue" stroke="midnightblue" points="308.316,-194.099 300.687,-201.452 311.236,-200.461 308.316,-194.099"/>
</g>
<!-- Node11 -->
<g id="node8" class="node"><title>Node11</title>
<g id="a_node8"><a xlink:href="HamiltonianTwo_8cpp.html" target="_top" xlink:title="/travis/libpairinteraction\l/HamiltonianTwo.cpp">
<polygon fill="none" stroke="black" points="65,-67.5 65,-97.5 193,-97.5 193,-67.5 65,-67.5"/>
<text text-anchor="start" x="73" y="-85.5" font-family="Helvetica,sans-Serif" font-size="10.00">/travis/libpairinteraction</text>
<text text-anchor="middle" x="129" y="-74.5" font-family="Helvetica,sans-Serif" font-size="10.00">/HamiltonianTwo.cpp</text>
</a>
</g>
</g>
<!-- Node10&#45;&gt;Node11 -->
<g id="edge7" class="edge"><title>Node10&#45;&gt;Node11</title>
<path fill="none" stroke="midnightblue" d="M129,-124.108C129,-115.154 129,-105.323 129,-97.5765"/>
<polygon fill="midnightblue" stroke="midnightblue" points="125.5,-124.396 129,-134.396 132.5,-124.396 125.5,-124.396"/>
</g>
<!-- Node10&#45;&gt;Node12 -->
<g id="edge8" class="edge"><title>Node10&#45;&gt;Node12</title>
<path fill="none" stroke="midnightblue" d="M180.422,-131.092C211.416,-120.599 250.379,-107.408 279.42,-97.5765"/>
<polygon fill="midnightblue" stroke="midnightblue" points="179.011,-127.874 170.661,-134.396 181.255,-134.504 179.011,-127.874"/>
</g>
<!-- Node14&#45;&gt;Node15 -->
<g id="edge13" class="edge"><title>Node14&#45;&gt;Node15</title>
<path fill="none" stroke="midnightblue" d="M465.392,-267.61C450.279,-256.029 431.747,-241.828 418.276,-231.505"/>
<polygon fill="midnightblue" stroke="midnightblue" points="463.316,-270.429 473.382,-273.733 467.574,-264.873 463.316,-270.429"/>
</g>
<!-- Node16 -->
<g id="node13" class="node"><title>Node16</title>
<g id="a_node13"><a xlink:href="PerturbativeInteraction_8h.html" target="_top" xlink:title="/travis/libpairinteraction\l/PerturbativeInteraction.h">
<polygon fill="none" stroke="black" points="488,-201.5 488,-231.5 626,-231.5 626,-201.5 488,-201.5"/>
<text text-anchor="start" x="496" y="-219.5" font-family="Helvetica,sans-Serif" font-size="10.00">/travis/libpairinteraction</text>
<text text-anchor="middle" x="557" y="-208.5" font-family="Helvetica,sans-Serif" font-size="10.00">/PerturbativeInteraction.h</text>
</a>
</g>
</g>
<!-- Node14&#45;&gt;Node16 -->
<g id="edge14" class="edge"><title>Node14&#45;&gt;Node16</title>
<path fill="none" stroke="midnightblue" d="M511.948,-266.364C522.32,-255.114 534.708,-241.679 543.866,-231.746"/>
<polygon fill="midnightblue" stroke="midnightblue" points="509.359,-264.009 505.154,-273.733 514.505,-268.754 509.359,-264.009"/>
</g>
<!-- Node18 -->
<g id="node15" class="node"><title>Node18</title>
<g id="a_node15"><a xlink:href="SystemBase_8h.html" target="_top" xlink:title="/travis/libpairinteraction\l/SystemBase.h">
<polygon fill="none" stroke="black" points="774,-201.5 774,-231.5 902,-231.5 902,-201.5 774,-201.5"/>
<text text-anchor="start" x="782" y="-219.5" font-family="Helvetica,sans-Serif" font-size="10.00">/travis/libpairinteraction</text>
<text text-anchor="middle" x="838" y="-208.5" font-family="Helvetica,sans-Serif" font-size="10.00">/SystemBase.h</text>
</a>
</g>
</g>
<!-- Node14&#45;&gt;Node18 -->
<g id="edge16" class="edge"><title>Node14&#45;&gt;Node18</title>
<path fill="none" stroke="midnightblue" d="M550.772,-271.437C555.573,-270.225 560.361,-269.063 565,-268 636.062,-251.723 718.45,-237.052 773.975,-227.771"/>
<polygon fill="midnightblue" stroke="midnightblue" points="549.745,-268.088 540.94,-273.981 551.498,-274.864 549.745,-268.088"/>
</g>
<!-- Node23 -->
<g id="node20" class="node"><title>Node23</title>
<g id="a_node20"><a xlink:href="integration__test_8cpp.html" target="_top" xlink:title="/travis/libpairinteraction\l/unit_test/integration_test.cpp">
<polygon fill="none" stroke="black" points="721.5,-0.5 721.5,-30.5 882.5,-30.5 882.5,-0.5 721.5,-0.5"/>
<text text-anchor="start" x="729.5" y="-18.5" font-family="Helvetica,sans-Serif" font-size="10.00">/travis/libpairinteraction</text>
<text text-anchor="middle" x="802" y="-7.5" font-family="Helvetica,sans-Serif" font-size="10.00">/unit_test/integration_test.cpp</text>
</a>
</g>
</g>
<!-- Node14&#45;&gt;Node23 -->
<g id="edge24" class="edge"><title>Node14&#45;&gt;Node23</title>
<path fill="none" stroke="midnightblue" d="M551.729,-270.795C585.599,-259.889 623.466,-245.366 635,-232 684.164,-175.027 623.833,-123.97 673,-67 688.085,-49.5206 709.997,-38.0492 731.494,-30.5379"/>
<polygon fill="midnightblue" stroke="midnightblue" points="550.328,-267.567 541.845,-273.914 552.435,-274.242 550.328,-267.567"/>
</g>
<!-- Node17 -->
<g id="node14" class="node"><title>Node17</title>
<g id="a_node14"><a xlink:href="PerturbativeInteraction_8cpp.html" target="_top" xlink:title="/travis/libpairinteraction\l/PerturbativeInteraction.cpp">
<polygon fill="none" stroke="black" points="477.5,-134.5 477.5,-164.5 626.5,-164.5 626.5,-134.5 477.5,-134.5"/>
<text text-anchor="start" x="485.5" y="-152.5" font-family="Helvetica,sans-Serif" font-size="10.00">/travis/libpairinteraction</text>
<text text-anchor="middle" x="552" y="-141.5" font-family="Helvetica,sans-Serif" font-size="10.00">/PerturbativeInteraction.cpp</text>
</a>
</g>
</g>
<!-- Node16&#45;&gt;Node17 -->
<g id="edge15" class="edge"><title>Node16&#45;&gt;Node17</title>
<path fill="none" stroke="midnightblue" d="M555.146,-191.403C554.452,-182.37 553.685,-172.408 553.083,-164.577"/>
<polygon fill="midnightblue" stroke="midnightblue" points="551.658,-191.694 555.915,-201.396 558.638,-191.157 551.658,-191.694"/>
</g>
<!-- Node19 -->
<g id="node16" class="node"><title>Node19</title>
<g id="a_node16"><a xlink:href="SystemOne_8h.html" target="_top" xlink:title="/travis/libpairinteraction\l/SystemOne.h">
<polygon fill="none" stroke="black" points="774,-134.5 774,-164.5 902,-164.5 902,-134.5 774,-134.5"/>
<text text-anchor="start" x="782" y="-152.5" font-family="Helvetica,sans-Serif" font-size="10.00">/travis/libpairinteraction</text>
<text text-anchor="middle" x="838" y="-141.5" font-family="Helvetica,sans-Serif" font-size="10.00">/SystemOne.h</text>
</a>
</g>
</g>
<!-- Node18&#45;&gt;Node19 -->
<g id="edge17" class="edge"><title>Node18&#45;&gt;Node19</title>
<path fill="none" stroke="midnightblue" d="M838,-191.108C838,-182.154 838,-172.323 838,-164.577"/>
<polygon fill="midnightblue" stroke="midnightblue" points="834.5,-191.396 838,-201.396 841.5,-191.396 834.5,-191.396"/>
</g>
<!-- Node21 -->
<g id="node18" class="node"><title>Node21</title>
<g id="a_node18"><a xlink:href="SystemTwo_8h.html" target="_top" xlink:title="/travis/libpairinteraction\l/SystemTwo.h">
<polygon fill="none" stroke="black" points="866,-67.5 866,-97.5 994,-97.5 994,-67.5 866,-67.5"/>
<text text-anchor="start" x="874" y="-85.5" font-family="Helvetica,sans-Serif" font-size="10.00">/travis/libpairinteraction</text>
<text text-anchor="middle" x="930" y="-74.5" font-family="Helvetica,sans-Serif" font-size="10.00">/SystemTwo.h</text>
</a>
</g>
</g>
<!-- Node18&#45;&gt;Node21 -->
<g id="edge23" class="edge"><title>Node18&#45;&gt;Node21</title>
<path fill="none" stroke="midnightblue" d="M876.654,-196.277C889.314,-188.222 902.338,-177.734 911,-165 924.973,-144.458 928.756,-114.995 929.728,-97.6943"/>
<polygon fill="midnightblue" stroke="midnightblue" points="874.782,-193.318 868.005,-201.462 878.381,-199.322 874.782,-193.318"/>
</g>
<!-- Node20 -->
<g id="node17" class="node"><title>Node20</title>
<g id="a_node17"><a xlink:href="SystemOne_8cpp.html" target="_top" xlink:title="/travis/libpairinteraction\l/SystemOne.cpp">
<polygon fill="none" stroke="black" points="682,-67.5 682,-97.5 810,-97.5 810,-67.5 682,-67.5"/>
<text text-anchor="start" x="690" y="-85.5" font-family="Helvetica,sans-Serif" font-size="10.00">/travis/libpairinteraction</text>
<text text-anchor="middle" x="746" y="-74.5" font-family="Helvetica,sans-Serif" font-size="10.00">/SystemOne.cpp</text>
</a>
</g>
</g>
<!-- Node19&#45;&gt;Node20 -->
<g id="edge18" class="edge"><title>Node19&#45;&gt;Node20</title>
<path fill="none" stroke="midnightblue" d="M809.623,-128.451C795.47,-118.452 778.695,-106.6 765.924,-97.5765"/>
<polygon fill="midnightblue" stroke="midnightblue" points="807.851,-131.484 818.037,-134.396 811.89,-125.767 807.851,-131.484"/>
</g>
<!-- Node19&#45;&gt;Node21 -->
<g id="edge19" class="edge"><title>Node19&#45;&gt;Node21</title>
<path fill="none" stroke="midnightblue" d="M866.377,-128.451C880.53,-118.452 897.305,-106.6 910.076,-97.5765"/>
<polygon fill="midnightblue" stroke="midnightblue" points="864.11,-125.767 857.963,-134.396 868.149,-131.484 864.11,-125.767"/>
</g>
<!-- Node19&#45;&gt;Node23 -->
<g id="edge22" class="edge"><title>Node19&#45;&gt;Node23</title>
<path fill="none" stroke="midnightblue" d="M833.027,-124.449C829.499,-108.138 824.441,-86.1452 819,-67 815.46,-54.5421 810.707,-40.6069 807.128,-30.536"/>
<polygon fill="midnightblue" stroke="midnightblue" points="829.609,-125.207 835.112,-134.26 836.456,-123.751 829.609,-125.207"/>
</g>
<!-- Node22 -->
<g id="node19" class="node"><title>Node22</title>
<g id="a_node19"><a xlink:href="SystemTwo_8cpp.html" target="_top" xlink:title="/travis/libpairinteraction\l/SystemTwo.cpp">
<polygon fill="none" stroke="black" points="901,-0.5 901,-30.5 1029,-30.5 1029,-0.5 901,-0.5"/>
<text text-anchor="start" x="909" y="-18.5" font-family="Helvetica,sans-Serif" font-size="10.00">/travis/libpairinteraction</text>
<text text-anchor="middle" x="965" y="-7.5" font-family="Helvetica,sans-Serif" font-size="10.00">/SystemTwo.cpp</text>
</a>
</g>
</g>
<!-- Node21&#45;&gt;Node22 -->
<g id="edge20" class="edge"><title>Node21&#45;&gt;Node22</title>
<path fill="none" stroke="midnightblue" d="M942.344,-58.5756C947.37,-49.2406 953.02,-38.7483 957.42,-30.5765"/>
<polygon fill="midnightblue" stroke="midnightblue" points="939.254,-56.9319 937.594,-67.396 945.417,-60.2506 939.254,-56.9319"/>
</g>
<!-- Node21&#45;&gt;Node23 -->
<g id="edge21" class="edge"><title>Node21&#45;&gt;Node23</title>
<path fill="none" stroke="midnightblue" d="M893.28,-62.8533C873.042,-52.5761 848.326,-40.0252 829.72,-30.5765"/>
<polygon fill="midnightblue" stroke="midnightblue" points="891.725,-65.9888 902.226,-67.396 894.894,-59.7475 891.725,-65.9888"/>
</g>
</g>
</svg>
        <g id="navigator" transform="translate(0 0)" fill="#404254">
                <rect fill="#f2f5e9" fill-opacity="0.5" stroke="#606060" stroke-width=".5" x="0" y="0" width="60" height="60"/>
                <use id="zoomplus" xlink:href="#zoomPlus" x="17" y="9" onmousedown="handleZoom(evt,'in')"/>
                <use id="zoomminus" xlink:href="#zoomMin" x="42" y="9" onmousedown="handleZoom(evt,'out')"/>
                <use id="reset" xlink:href="#resetDef" x="30" y="36" onmousedown="handleReset()"/>
                <g id="arrowUp" xlink:href="#dirArrow" transform="translate(30 24)" onmousedown="handlePan(0,-1)">
                  <use xlink:href="#rim" fill="#404040">
                        <set attributeName="fill" to="#808080" begin="arrowUp.mouseover" end="arrowUp.mouseout"/>
                  </use>
                  <path fill="none" stroke="white" stroke-width="1.5" d="M0,-3.0v7 M-2.5,-0.5L0,-3.0L2.5,-0.5"/>
                </g>
                <g id="arrowRight" xlink:href="#dirArrow" transform="rotate(90) translate(36 -43)" onmousedown="handlePan(1,0)">
                  <use xlink:href="#rim" fill="#404040">
                        <set attributeName="fill" to="#808080" begin="arrowRight.mouseover" end="arrowRight.mouseout"/>
                  </use>
                  <path fill="none" stroke="white" stroke-width="1.5" d="M0,-3.0v7 M-2.5,-0.5L0,-3.0L2.5,-0.5"/>
                </g>
                <g id="arrowDown" xlink:href="#dirArrow" transform="rotate(180) translate(-30 -48)" onmousedown="handlePan(0,1)">
                  <use xlink:href="#rim" fill="#404040">
                        <set attributeName="fill" to="#808080" begin="arrowDown.mouseover" end="arrowDown.mouseout"/>
                  </use>
                  <path fill="none" stroke="white" stroke-width="1.5" d="M0,-3.0v7 M-2.5,-0.5L0,-3.0L2.5,-0.5"/>
                </g>
                <g id="arrowLeft" xlink:href="#dirArrow" transform="rotate(270) translate(-36 17)" onmousedown="handlePan(-1,0)">
                  <use xlink:href="#rim" fill="#404040">
                        <set attributeName="fill" to="#808080" begin="arrowLeft.mouseover" end="arrowLeft.mouseout"/>
                  </use>
                  <path fill="none" stroke="white" stroke-width="1.5" d="M0,-3.0v7 M-2.5,-0.5L0,-3.0L2.5,-0.5"/>
                </g>
        </g>
        <svg viewBox="0 0 15 15" width="100%" height="30px" preserveAspectRatio="xMaxYMin meet">
         <g id="arrow_out" transform="scale(0.3 0.3)">
          <a xlink:href="Cache_8h__dep__incl_org.svg" target="_base">
           <rect id="button" ry="5" rx="5" y="6" x="6" height="38" width="38"
                fill="#f2f5e9" fill-opacity="0.5" stroke="#606060" stroke-width="1.0"/>
           <path id="arrow"
             d="M 11.500037,31.436501 C 11.940474,20.09759 22.043105,11.32322 32.158766,21.979434 L 37.068811,17.246167 C 37.068811,17.246167 37.088388,32 37.088388,32 L 22.160133,31.978069 C 22.160133,31.978069 26.997745,27.140456 26.997745,27.140456 C 18.528582,18.264221 13.291696,25.230495 11.500037,31.436501 z"
             style="fill:#404040;"/>
          </a>
         </g>
        </svg>
</svg>
