<?xml version="1.0" encoding="UTF-8" standalone="no"?>
<!DOCTYPE svg PUBLIC "-//W3C//DTD SVG 1.1//EN"
 "http://www.w3.org/Graphics/SVG/1.1/DTD/svg11.dtd">
<!-- Generated by graphviz version 2.38.0 (20140413.2041)
 -->
<!-- Title: sqlite::statement::set Pages: 1 -->
<svg width="543pt" height="165pt"
 viewBox="0.00 0.00 543.00 165.00" xmlns="http://www.w3.org/2000/svg" xmlns:xlink="http://www.w3.org/1999/xlink">
<g id="graph0" class="graph" transform="scale(1 1) rotate(0) translate(4 161)">
<title>sqlite::statement::set</title>
<!-- Node57 -->
<g id="node1" class="node"><title>Node57</title>
<polygon fill="#bfbfbf" stroke="black" points="5.68434e-14,-68.5 5.68434e-14,-87.5 119,-87.5 119,-68.5 5.68434e-14,-68.5"/>
<text text-anchor="middle" x="59.5" y="-75.5" font-family="Helvetica,sans-Serif" font-size="10.00">sqlite::statement::set</text>
</g>
<!-- Node58 -->
<g id="node2" class="node"><title>Node58</title>
<g id="a_node2"><a xlink:href="quantum__defect__test_8cpp.html#aa6d045e9def139cd75c41b225e83676e" target="_top" xlink:title="BOOST_AUTO_TEST_CASE">
<polygon fill="none" stroke="black" points="171.5,-137.5 171.5,-156.5 314.5,-156.5 314.5,-137.5 171.5,-137.5"/>
<text text-anchor="middle" x="243" y="-144.5" font-family="Helvetica,sans-Serif" font-size="10.00">BOOST_AUTO_TEST_CASE</text>
</a>
</g>
</g>
<!-- Node57&#45;&gt;Node58 -->
<g id="edge1" class="edge"><title>Node57&#45;&gt;Node58</title>
<path fill="none" stroke="midnightblue" d="M84.3016,-92.9298C102.924,-104.025 129.8,-118.777 155,-128 165.308,-131.773 176.59,-134.914 187.514,-137.484"/>
<polygon fill="midnightblue" stroke="midnightblue" points="85.9833,-89.8563 75.6178,-87.6637 82.3536,-95.8418 85.9833,-89.8563"/>
</g>
<!-- Node59 -->
<g id="node3" class="node"><title>Node59</title>
<g id="a_node3"><a xlink:href="classMatrixElements.html#adebeaf2c43204d0ed2f5d36b3ef9846b" target="_top" xlink:title="MatrixElements::precalculate\lDiamagnetism">
<polygon fill="none" stroke="black" points="165.5,-88 165.5,-118 320.5,-118 320.5,-88 165.5,-88"/>
<text text-anchor="start" x="173.5" y="-106" font-family="Helvetica,sans-Serif" font-size="10.00">MatrixElements::precalculate</text>
<text text-anchor="middle" x="243" y="-95" font-family="Helvetica,sans-Serif" font-size="10.00">Diamagnetism</text>
</a>
</g>
</g>
<!-- Node57&#45;&gt;Node59 -->
<g id="edge2" class="edge"><title>Node57&#45;&gt;Node59</title>
<path fill="none" stroke="midnightblue" d="M129.35,-87.4835C141.104,-89.1025 153.379,-90.7932 165.321,-92.4381"/>
<polygon fill="midnightblue" stroke="midnightblue" points="129.561,-83.9796 119.177,-86.0823 128.606,-90.9141 129.561,-83.9796"/>
</g>
<!-- Node60 -->
<g id="node4" class="node"><title>Node60</title>
<g id="a_node4"><a xlink:href="classMatrixElementCache.html#a41efbe3c4a7e3e5f2ed2c807a0b3178e" target="_top" xlink:title="MatrixElementCache\l::precalculateDiamagnetism">
<polygon fill="none" stroke="black" points="167,-39 167,-69 319,-69 319,-39 167,-39"/>
<text text-anchor="start" x="175" y="-57" font-family="Helvetica,sans-Serif" font-size="10.00">MatrixElementCache</text>
<text text-anchor="middle" x="243" y="-46" font-family="Helvetica,sans-Serif" font-size="10.00">::precalculateDiamagnetism</text>
</a>
</g>
</g>
<!-- Node57&#45;&gt;Node60 -->
<g id="edge3" class="edge"><title>Node57&#45;&gt;Node60</title>
<path fill="none" stroke="midnightblue" d="M129.345,-68.8965C141.636,-67.2713 154.496,-65.5708 166.949,-63.9241"/>
<polygon fill="midnightblue" stroke="midnightblue" points="128.632,-65.4602 119.177,-70.241 129.55,-72.3998 128.632,-65.4602"/>
</g>
<!-- Node62 -->
<g id="node6" class="node"><title>Node62</title>
<g id="a_node6"><a xlink:href="classQuantumDefect.html#ae35ddcbfdf6d217950469549c60743d2" target="_top" xlink:title="QuantumDefect::QuantumDefect">
<polygon fill="none" stroke="black" points="155,-0.5 155,-19.5 331,-19.5 331,-0.5 155,-0.5"/>
<text text-anchor="middle" x="243" y="-7.5" font-family="Helvetica,sans-Serif" font-size="10.00">QuantumDefect::QuantumDefect</text>
</a>
</g>
</g>
<!-- Node57&#45;&gt;Node62 -->
<g id="edge5" class="edge"><title>Node57&#45;&gt;Node62</title>
<path fill="none" stroke="midnightblue" d="M85.0767,-63.4139C103.726,-52.8719 130.287,-38.9642 155,-30 166.364,-25.8779 178.88,-22.4111 190.79,-19.5828"/>
<polygon fill="midnightblue" stroke="midnightblue" points="83.2757,-60.4121 76.3487,-68.4288 86.7631,-66.4816 83.2757,-60.4121"/>
</g>
<!-- Node61 -->
<g id="node5" class="node"><title>Node61</title>
<g id="a_node5"><a xlink:href="classSystemOne.html#abf6d26d44765fa787251956c128644a7" target="_top" xlink:title="Method that allows base class to calculate the interaction /////. ">
<polygon fill="none" stroke="black" points="367,-44.5 367,-63.5 535,-63.5 535,-44.5 367,-44.5"/>
<text text-anchor="middle" x="451" y="-51.5" font-family="Helvetica,sans-Serif" font-size="10.00">SystemOne::initializeInteraction</text>
</a>
</g>
</g>
<!-- Node60&#45;&gt;Node61 -->
<g id="edge4" class="edge"><title>Node60&#45;&gt;Node61</title>
<path fill="none" stroke="midnightblue" d="M329.542,-54C341.916,-54 354.636,-54 366.96,-54"/>
<polygon fill="midnightblue" stroke="midnightblue" points="329.245,-50.5001 319.245,-54 329.245,-57.5001 329.245,-50.5001"/>
</g>
</g>
</svg>
