<?xml version="1.0" encoding="UTF-8" standalone="no"?>
<!DOCTYPE svg PUBLIC "-//W3C//DTD SVG 1.1//EN"
 "http://www.w3.org/Graphics/SVG/1.1/DTD/svg11.dtd">
<!-- Generated by graphviz version 2.38.0 (20140413.2041)
 -->
<!-- Title: sqlite::statement::get Pages: 1 -->
<svg width="544pt" height="203pt"
 viewBox="0.00 0.00 544.00 203.00" xmlns="http://www.w3.org/2000/svg" xmlns:xlink="http://www.w3.org/1999/xlink">
<g id="graph0" class="graph" transform="scale(1 1) rotate(0) translate(4 199)">
<title>sqlite::statement::get</title>
<!-- Node30 -->
<g id="node1" class="node"><title>Node30</title>
<polygon fill="#bfbfbf" stroke="black" points="0,-93.5 0,-112.5 120,-112.5 120,-93.5 0,-93.5"/>
<text text-anchor="middle" x="60" y="-100.5" font-family="Helvetica,sans-Serif" font-size="10.00">sqlite::statement::get</text>
</g>
<!-- Node31 -->
<g id="node2" class="node"><title>Node31</title>
<g id="a_node2"><a xlink:href="quantum__defect__test_8cpp.html#aa6d045e9def139cd75c41b225e83676e" target="_top" xlink:title="BOOST_AUTO_TEST_CASE">
<polygon fill="none" stroke="black" points="172.5,-175.5 172.5,-194.5 315.5,-194.5 315.5,-175.5 172.5,-175.5"/>
<text text-anchor="middle" x="244" y="-182.5" font-family="Helvetica,sans-Serif" font-size="10.00">BOOST_AUTO_TEST_CASE</text>
</a>
</g>
</g>
<!-- Node30&#45;&gt;Node31 -->
<g id="edge1" class="edge"><title>Node30&#45;&gt;Node31</title>
<path fill="none" stroke="midnightblue" d="M80.6133,-119.186C98.9993,-133.556 127.807,-154.071 156,-166 165.112,-169.856 175.106,-172.971 184.971,-175.475"/>
<polygon fill="midnightblue" stroke="midnightblue" points="82.4724,-116.192 72.473,-112.69 78.1063,-121.663 82.4724,-116.192"/>
</g>
<!-- Node32 -->
<g id="node3" class="node"><title>Node32</title>
<g id="a_node3"><a xlink:href="classMatrixElements.html#a8c96cdfdf45e83734ee613bc91526efb" target="_top" xlink:title="MatrixElements::getRadial">
<polygon fill="none" stroke="black" points="173.5,-137.5 173.5,-156.5 314.5,-156.5 314.5,-137.5 173.5,-137.5"/>
<text text-anchor="middle" x="244" y="-144.5" font-family="Helvetica,sans-Serif" font-size="10.00">MatrixElements::getRadial</text>
</a>
</g>
</g>
<!-- Node30&#45;&gt;Node32 -->
<g id="edge2" class="edge"><title>Node30&#45;&gt;Node32</title>
<path fill="none" stroke="midnightblue" d="M106.114,-115.289C121.862,-119.468 139.678,-124.072 156,-128 169.378,-131.219 183.969,-134.497 197.313,-137.403"/>
<polygon fill="midnightblue" stroke="midnightblue" points="106.665,-111.814 96.1006,-112.616 104.859,-118.577 106.665,-111.814"/>
</g>
<!-- Node33 -->
<g id="node4" class="node"><title>Node33</title>
<g id="a_node4"><a xlink:href="classMatrixElements.html#adebeaf2c43204d0ed2f5d36b3ef9846b" target="_top" xlink:title="MatrixElements::precalculate\lDiamagnetism">
<polygon fill="none" stroke="black" points="166.5,-88 166.5,-118 321.5,-118 321.5,-88 166.5,-88"/>
<text text-anchor="start" x="174.5" y="-106" font-family="Helvetica,sans-Serif" font-size="10.00">MatrixElements::precalculate</text>
<text text-anchor="middle" x="244" y="-95" font-family="Helvetica,sans-Serif" font-size="10.00">Diamagnetism</text>
</a>
</g>
</g>
<!-- Node30&#45;&gt;Node33 -->
<g id="edge3" class="edge"><title>Node30&#45;&gt;Node33</title>
<path fill="none" stroke="midnightblue" d="M130.283,-103C142.058,-103 154.348,-103 166.3,-103"/>
<polygon fill="midnightblue" stroke="midnightblue" points="130.09,-99.5001 120.09,-103 130.09,-106.5 130.09,-99.5001"/>
</g>
<!-- Node34 -->
<g id="node5" class="node"><title>Node34</title>
<g id="a_node5"><a xlink:href="classMatrixElementCache.html#a41efbe3c4a7e3e5f2ed2c807a0b3178e" target="_top" xlink:title="MatrixElementCache\l::precalculateDiamagnetism">
<polygon fill="none" stroke="black" points="168,-39 168,-69 320,-69 320,-39 168,-39"/>
<text text-anchor="start" x="176" y="-57" font-family="Helvetica,sans-Serif" font-size="10.00">MatrixElementCache</text>
<text text-anchor="middle" x="244" y="-46" font-family="Helvetica,sans-Serif" font-size="10.00">::precalculateDiamagnetism</text>
</a>
</g>
</g>
<!-- Node30&#45;&gt;Node34 -->
<g id="edge4" class="edge"><title>Node30&#45;&gt;Node34</title>
<path fill="none" stroke="midnightblue" d="M106.276,-90.8104C130.757,-84.2192 161.205,-76.0218 187.148,-69.037"/>
<polygon fill="midnightblue" stroke="midnightblue" points="105.27,-87.4565 96.5235,-93.436 107.09,-94.2158 105.27,-87.4565"/>
</g>
<!-- Node36 -->
<g id="node7" class="node"><title>Node36</title>
<g id="a_node7"><a xlink:href="classQuantumDefect.html#ae35ddcbfdf6d217950469549c60743d2" target="_top" xlink:title="QuantumDefect::QuantumDefect">
<polygon fill="none" stroke="black" points="156,-0.5 156,-19.5 332,-19.5 332,-0.5 156,-0.5"/>
<text text-anchor="middle" x="244" y="-7.5" font-family="Helvetica,sans-Serif" font-size="10.00">QuantumDefect::QuantumDefect</text>
</a>
</g>
</g>
<!-- Node30&#45;&gt;Node36 -->
<g id="edge6" class="edge"><title>Node30&#45;&gt;Node36</title>
<path fill="none" stroke="midnightblue" d="M77.925,-86.295C95.8345,-69.5655 125.654,-44.3076 156,-30 165.112,-25.704 175.205,-22.3001 185.194,-19.6124"/>
<polygon fill="midnightblue" stroke="midnightblue" points="75.3916,-83.8746 70.5752,-93.3114 80.2253,-88.9379 75.3916,-83.8746"/>
</g>
<!-- Node35 -->
<g id="node6" class="node"><title>Node35</title>
<g id="a_node6"><a xlink:href="classSystemOne.html#abf6d26d44765fa787251956c128644a7" target="_top" xlink:title="Method that allows base class to calculate the interaction /////. ">
<polygon fill="none" stroke="black" points="368,-44.5 368,-63.5 536,-63.5 536,-44.5 368,-44.5"/>
<text text-anchor="middle" x="452" y="-51.5" font-family="Helvetica,sans-Serif" font-size="10.00">SystemOne::initializeInteraction</text>
</a>
</g>
</g>
<!-- Node34&#45;&gt;Node35 -->
<g id="edge5" class="edge"><title>Node34&#45;&gt;Node35</title>
<path fill="none" stroke="midnightblue" d="M330.542,-54C342.916,-54 355.636,-54 367.96,-54"/>
<polygon fill="midnightblue" stroke="midnightblue" points="330.245,-50.5001 320.245,-54 330.245,-57.5001 330.245,-50.5001"/>
</g>
</g>
</svg>
