<?xml version="1.0" encoding="UTF-8" standalone="no"?>
<!DOCTYPE svg PUBLIC "-//W3C//DTD SVG 1.1//EN"
 "http://www.w3.org/Graphics/SVG/1.1/DTD/svg11.dtd">
<!-- Generated by graphviz version 2.38.0 (20140413.2041)
 -->
<!-- Title: MatrixElementCache::precalculateDiamagnetism Pages: 1 -->
<svg width="356pt" height="393pt"
 viewBox="0.00 0.00 356.00 393.00" xmlns="http://www.w3.org/2000/svg" xmlns:xlink="http://www.w3.org/1999/xlink">
<g id="graph0" class="graph" transform="scale(1 1) rotate(0) translate(4 389)">
<title>MatrixElementCache::precalculateDiamagnetism</title>
<!-- Node33 -->
<g id="node1" class="node"><title>Node33</title>
<polygon fill="#bfbfbf" stroke="black" points="0,-177 0,-207 152,-207 152,-177 0,-177"/>
<text text-anchor="start" x="8" y="-195" font-family="Helvetica,sans-Serif" font-size="10.00">MatrixElementCache</text>
<text text-anchor="middle" x="76" y="-184" font-family="Helvetica,sans-Serif" font-size="10.00">::precalculateDiamagnetism</text>
</g>
<!-- Node34 -->
<g id="node2" class="node"><title>Node34</title>
<g id="a_node2"><a xlink:href="classsqlite_1_1statement.html#a1b5e34a58010723e10ee31c4d02f7f55" target="_top" xlink:title="Bind a value to a position in the query. ">
<polygon fill="none" stroke="black" points="205.5,-365.5 205.5,-384.5 330.5,-384.5 330.5,-365.5 205.5,-365.5"/>
<text text-anchor="middle" x="268" y="-372.5" font-family="Helvetica,sans-Serif" font-size="10.00">sqlite::statement::bind</text>
</a>
</g>
</g>
<!-- Node33&#45;&gt;Node34 -->
<g id="edge1" class="edge"><title>Node33&#45;&gt;Node34</title>
<path fill="none" stroke="midnightblue" d="M82.8946,-207.47C96.2443,-240.327 132.044,-317.231 188,-356 190.87,-357.988 193.923,-359.77 197.098,-361.366"/>
<polygon fill="midnightblue" stroke="midnightblue" points="195.748,-364.596 206.313,-365.39 198.55,-358.181 195.748,-364.596"/>
</g>
<!-- Node35 -->
<g id="node3" class="node"><title>Node35</title>
<g id="a_node3"><a xlink:href="classsqlite_1_1statement.html#add6b491603e9505c82779ad762f72888" target="_top" xlink:title="Execute SQLite statements. ">
<polygon fill="none" stroke="black" points="204.5,-327.5 204.5,-346.5 331.5,-346.5 331.5,-327.5 204.5,-327.5"/>
<text text-anchor="middle" x="268" y="-334.5" font-family="Helvetica,sans-Serif" font-size="10.00">sqlite::statement::exec</text>
</a>
</g>
</g>
<!-- Node33&#45;&gt;Node35 -->
<g id="edge2" class="edge"><title>Node33&#45;&gt;Node35</title>
<path fill="none" stroke="midnightblue" d="M85.8693,-207.106C102.394,-233.853 140.557,-289.412 188,-318 191.602,-320.171 195.437,-322.093 199.4,-323.796"/>
<polygon fill="midnightblue" stroke="midnightblue" points="198.245,-327.101 208.836,-327.385 200.733,-320.559 198.245,-327.101"/>
</g>
<!-- Node36 -->
<g id="node4" class="node"><title>Node36</title>
<g id="a_node4"><a xlink:href="classsqlite_1_1statement.html#a881b89458af4ea9bde7a80e416f53903" target="_top" xlink:title="Get value of a field. ">
<polygon fill="none" stroke="black" points="208,-289.5 208,-308.5 328,-308.5 328,-289.5 208,-289.5"/>
<text text-anchor="middle" x="268" y="-296.5" font-family="Helvetica,sans-Serif" font-size="10.00">sqlite::statement::get</text>
</a>
</g>
</g>
<!-- Node33&#45;&gt;Node36 -->
<g id="edge3" class="edge"><title>Node33&#45;&gt;Node36</title>
<path fill="none" stroke="midnightblue" d="M91.6847,-207.196C111.645,-226.954 149.308,-261.158 188,-280 192.914,-282.393 198.151,-284.497 203.5,-286.345"/>
<polygon fill="midnightblue" stroke="midnightblue" points="202.614,-289.735 213.204,-289.401 204.717,-283.058 202.614,-289.735"/>
</g>
<!-- Node37 -->
<g id="node5" class="node"><title>Node37</title>
<g id="a_node5"><a xlink:href="namespaceutils.html#a1ba9020d51335d2ddd62e877803e9e31" target="_top" xlink:title="utils::get_pid">
<polygon fill="none" stroke="black" points="229.5,-251.5 229.5,-270.5 306.5,-270.5 306.5,-251.5 229.5,-251.5"/>
<text text-anchor="middle" x="268" y="-258.5" font-family="Helvetica,sans-Serif" font-size="10.00">utils::get_pid</text>
</a>
</g>
</g>
<!-- Node33&#45;&gt;Node37 -->
<g id="edge4" class="edge"><title>Node33&#45;&gt;Node37</title>
<path fill="none" stroke="midnightblue" d="M106.537,-207.135C128.557,-217.964 159.603,-232.285 188,-242 198.013,-245.426 208.942,-248.475 219.391,-251.075"/>
<polygon fill="midnightblue" stroke="midnightblue" points="218.675,-254.502 229.215,-253.427 220.305,-247.695 218.675,-254.502"/>
</g>
<!-- Node38 -->
<g id="node6" class="node"><title>Node38</title>
<g id="a_node6"><a xlink:href="classsqlite_1_1statement.html#a1b40871fb975892f70ea097f7c6da9c1" target="_top" xlink:title="Prepare the statement. ">
<polygon fill="none" stroke="black" points="216,-202 216,-232 320,-232 320,-202 216,-202"/>
<text text-anchor="start" x="224" y="-220" font-family="Helvetica,sans-Serif" font-size="10.00">sqlite::statement::</text>
<text text-anchor="middle" x="268" y="-209" font-family="Helvetica,sans-Serif" font-size="10.00">prepare</text>
</a>
</g>
</g>
<!-- Node33&#45;&gt;Node38 -->
<g id="edge5" class="edge"><title>Node33&#45;&gt;Node38</title>
<path fill="none" stroke="midnightblue" d="M152.093,-201.881C169.788,-204.209 188.448,-206.664 205.466,-208.903"/>
<polygon fill="midnightblue" stroke="midnightblue" points="205.455,-212.432 215.826,-210.267 206.368,-205.492 205.455,-212.432"/>
</g>
<!-- Node39 -->
<g id="node7" class="node"><title>Node39</title>
<g id="a_node7"><a xlink:href="classsqlite_1_1statement.html#a4feb0002bd8daa77fffef99c0f838f1c" target="_top" xlink:title="Reset the statement. ">
<polygon fill="none" stroke="black" points="216,-153 216,-183 320,-183 320,-153 216,-153"/>
<text text-anchor="start" x="224" y="-171" font-family="Helvetica,sans-Serif" font-size="10.00">sqlite::statement::</text>
<text text-anchor="middle" x="268" y="-160" font-family="Helvetica,sans-Serif" font-size="10.00">reset</text>
</a>
</g>
</g>
<!-- Node33&#45;&gt;Node39 -->
<g id="edge6" class="edge"><title>Node33&#45;&gt;Node39</title>
<path fill="none" stroke="midnightblue" d="M152.093,-182.515C169.788,-180.279 188.448,-177.922 205.466,-175.773"/>
<polygon fill="midnightblue" stroke="midnightblue" points="206.343,-179.19 215.826,-174.464 205.466,-172.245 206.343,-179.19"/>
</g>
<!-- Node40 -->
<g id="node8" class="node"><title>Node40</title>
<g id="a_node8"><a xlink:href="MatrixElementCache_8cpp.html#a15aabd3025cfa0ca9485cd672c0a1a4a" target="_top" xlink:title="selectionRulesMomentumNew">
<polygon fill="none" stroke="black" points="188,-114.5 188,-133.5 348,-133.5 348,-114.5 188,-114.5"/>
<text text-anchor="middle" x="268" y="-121.5" font-family="Helvetica,sans-Serif" font-size="10.00">selectionRulesMomentumNew</text>
</a>
</g>
</g>
<!-- Node33&#45;&gt;Node40 -->
<g id="edge7" class="edge"><title>Node33&#45;&gt;Node40</title>
<path fill="none" stroke="midnightblue" d="M108.051,-176.978C130.022,-166.746 160.373,-153.403 188,-144 196.369,-141.152 205.359,-138.502 214.168,-136.124"/>
<polygon fill="midnightblue" stroke="midnightblue" points="215.203,-139.472 223.994,-133.559 213.435,-132.699 215.203,-139.472"/>
</g>
<!-- Node41 -->
<g id="node9" class="node"><title>Node41</title>
<g id="a_node9"><a xlink:href="MatrixElementCache_8cpp.html#a06a268e07e2a0edb3fca096b8c941c78" target="_top" xlink:title="selectionRulesMultipoleNew">
<polygon fill="none" stroke="black" points="194.5,-76.5 194.5,-95.5 341.5,-95.5 341.5,-76.5 194.5,-76.5"/>
<text text-anchor="middle" x="268" y="-83.5" font-family="Helvetica,sans-Serif" font-size="10.00">selectionRulesMultipoleNew</text>
</a>
</g>
</g>
<!-- Node33&#45;&gt;Node41 -->
<g id="edge8" class="edge"><title>Node33&#45;&gt;Node41</title>
<path fill="none" stroke="midnightblue" d="M91.7198,-176.984C111.719,-157.459 149.425,-123.653 188,-105 193,-102.582 198.332,-100.458 203.773,-98.5957"/>
<polygon fill="midnightblue" stroke="midnightblue" points="205.137,-101.837 213.641,-95.5176 203.052,-95.1545 205.137,-101.837"/>
</g>
<!-- Node42 -->
<g id="node10" class="node"><title>Node42</title>
<g id="a_node10"><a xlink:href="classsqlite_1_1statement.html#aa68ea5317f4837f045502038d0682533" target="_top" xlink:title="Set the query string. ">
<polygon fill="none" stroke="black" points="208.5,-38.5 208.5,-57.5 327.5,-57.5 327.5,-38.5 208.5,-38.5"/>
<text text-anchor="middle" x="268" y="-45.5" font-family="Helvetica,sans-Serif" font-size="10.00">sqlite::statement::set</text>
</a>
</g>
</g>
<!-- Node33&#45;&gt;Node42 -->
<g id="edge9" class="edge"><title>Node33&#45;&gt;Node42</title>
<path fill="none" stroke="midnightblue" d="M86.1637,-176.594C102.877,-149.903 140.962,-95.2177 188,-67 191.674,-64.7958 195.589,-62.8472 199.635,-61.1245"/>
<polygon fill="midnightblue" stroke="midnightblue" points="201.137,-64.2989 209.264,-57.5011 198.672,-57.7475 201.137,-64.2989"/>
</g>
<!-- Node43 -->
<g id="node11" class="node"><title>Node43</title>
<g id="a_node11"><a xlink:href="classsqlite_1_1statement.html#a0ef0c0c1fd66918b9a9c6167fd2e668f" target="_top" xlink:title="Step the statement. ">
<polygon fill="none" stroke="black" points="205.5,-0.5 205.5,-19.5 330.5,-19.5 330.5,-0.5 205.5,-0.5"/>
<text text-anchor="middle" x="268" y="-7.5" font-family="Helvetica,sans-Serif" font-size="10.00">sqlite::statement::step</text>
</a>
</g>
</g>
<!-- Node33&#45;&gt;Node43 -->
<g id="edge10" class="edge"><title>Node33&#45;&gt;Node43</title>
<path fill="none" stroke="midnightblue" d="M82.9222,-176.623C96.3254,-143.965 132.223,-67.5274 188,-29 190.873,-27.0157 193.928,-25.2376 197.105,-23.6442"/>
<polygon fill="midnightblue" stroke="midnightblue" points="198.556,-26.8297 206.324,-19.6252 195.759,-20.4129 198.556,-26.8297"/>
</g>
</g>
</svg>
