<?xml version="1.0" encoding="UTF-8" standalone="no"?>
<!DOCTYPE svg PUBLIC "-//W3C//DTD SVG 1.1//EN"
 "http://www.w3.org/Graphics/SVG/1.1/DTD/svg11.dtd">
<!-- Generated by graphviz version 2.38.0 (20140413.2041)
 -->
<!-- Title: PerturbativeInteraction::getC6 Pages: 1 -->
<svg width="552pt" height="203pt"
 viewBox="0.00 0.00 552.00 203.00" xmlns="http://www.w3.org/2000/svg" xmlns:xlink="http://www.w3.org/1999/xlink">
<g id="graph0" class="graph" transform="scale(1 1) rotate(0) translate(4 199)">
<title>PerturbativeInteraction::getC6</title>
<!-- Node20 -->
<g id="node1" class="node"><title>Node20</title>
<polygon fill="#bfbfbf" stroke="black" points="0,-82.5 0,-112.5 126,-112.5 126,-82.5 0,-82.5"/>
<text text-anchor="start" x="8" y="-100.5" font-family="Helvetica,sans-Serif" font-size="10.00">PerturbativeInteraction</text>
<text text-anchor="middle" x="63" y="-89.5" font-family="Helvetica,sans-Serif" font-size="10.00">::getC6</text>
</g>
<!-- Node21 -->
<g id="node2" class="node"><title>Node21</title>
<g id="a_node2"><a xlink:href="classStateTwo.html#a3dc818a5bdaf6f9ee8d3bac945fd6d18" target="_top" xlink:title="StateTwo::first">
<polygon fill="none" stroke="black" points="331,-126 331,-145 414,-145 414,-126 331,-126"/>
<text text-anchor="middle" x="372.5" y="-133" font-family="Helvetica,sans-Serif" font-size="10.00">StateTwo::first</text>
</a>
</g>
</g>
<!-- Node20&#45;&gt;Node21 -->
<g id="edge1" class="edge"><title>Node20&#45;&gt;Node21</title>
<path fill="none" stroke="midnightblue" d="M126.052,-110.511C137.948,-112.727 150.332,-114.844 162,-116.5 215.948,-124.156 278.173,-129.342 320.703,-132.336"/>
<polygon fill="midnightblue" stroke="midnightblue" points="320.589,-135.836 330.806,-133.032 321.07,-128.853 320.589,-135.836"/>
</g>
<!-- Node22 -->
<g id="node3" class="node"><title>Node22</title>
<g id="a_node3"><a xlink:href="classMatrixElementCache.html#ac6191cd01c85dd9cf28a373b524f0b1b" target="_top" xlink:title="Get matrix elements ////////////////////////////////////////////. ">
<polygon fill="none" stroke="black" points="162,-164.5 162,-194.5 278,-194.5 278,-164.5 162,-164.5"/>
<text text-anchor="start" x="170" y="-182.5" font-family="Helvetica,sans-Serif" font-size="10.00">MatrixElementCache</text>
<text text-anchor="middle" x="220" y="-171.5" font-family="Helvetica,sans-Serif" font-size="10.00">::getElectricDipole</text>
</a>
</g>
</g>
<!-- Node20&#45;&gt;Node22 -->
<g id="edge2" class="edge"><title>Node20&#45;&gt;Node22</title>
<path fill="none" stroke="midnightblue" d="M92.2908,-112.544C111.858,-122.941 138.5,-137.081 162,-149.5 168.178,-152.765 174.736,-156.223 181.12,-159.586"/>
<polygon fill="midnightblue" stroke="midnightblue" points="179.806,-162.849 190.285,-164.411 183.067,-156.655 179.806,-162.849"/>
</g>
<!-- Node24 -->
<g id="node5" class="node"><title>Node24</title>
<g id="a_node5"><a xlink:href="classStateTwo.html#a3f9e530a17bed5048f16653dcd9c7991" target="_top" xlink:title="StateTwo::getEnergy">
<polygon fill="none" stroke="black" points="163,-88 163,-107 277,-107 277,-88 163,-88"/>
<text text-anchor="middle" x="220" y="-95" font-family="Helvetica,sans-Serif" font-size="10.00">StateTwo::getEnergy</text>
</a>
</g>
</g>
<!-- Node20&#45;&gt;Node24 -->
<g id="edge4" class="edge"><title>Node20&#45;&gt;Node24</title>
<path fill="none" stroke="midnightblue" d="M126.151,-97.5C134.868,-97.5 143.855,-97.5 152.647,-97.5"/>
<polygon fill="midnightblue" stroke="midnightblue" points="152.85,-101 162.85,-97.5 152.85,-94.0001 152.85,-101"/>
</g>
<!-- Node27 -->
<g id="node8" class="node"><title>Node27</title>
<g id="a_node8"><a xlink:href="classStateTwo.html#a9bc7edda2944afa1f2c7ca87441e81b0" target="_top" xlink:title="StateTwo::second">
<polygon fill="none" stroke="black" points="322.5,-50 322.5,-69 422.5,-69 422.5,-50 322.5,-50"/>
<text text-anchor="middle" x="372.5" y="-57" font-family="Helvetica,sans-Serif" font-size="10.00">StateTwo::second</text>
</a>
</g>
</g>
<!-- Node20&#45;&gt;Node27 -->
<g id="edge10" class="edge"><title>Node20&#45;&gt;Node27</title>
<path fill="none" stroke="midnightblue" d="M126.052,-84.4886C137.948,-82.2726 150.332,-80.1559 162,-78.5 212.44,-71.3418 270.117,-66.3431 312.165,-63.2759"/>
<polygon fill="midnightblue" stroke="midnightblue" points="312.51,-66.7603 322.235,-62.5565 312.011,-59.7781 312.51,-66.7603"/>
</g>
<!-- Node28 -->
<g id="node9" class="node"><title>Node28</title>
<g id="a_node9"><a xlink:href="classMatrixElementCache.html#aeef0496ad6db911dac50c0625660d9c0" target="_top" xlink:title="MatrixElementCache\l::getMagneticDipole">
<polygon fill="none" stroke="black" points="162,-0.5 162,-30.5 278,-30.5 278,-0.5 162,-0.5"/>
<text text-anchor="start" x="170" y="-18.5" font-family="Helvetica,sans-Serif" font-size="10.00">MatrixElementCache</text>
<text text-anchor="middle" x="220" y="-7.5" font-family="Helvetica,sans-Serif" font-size="10.00">::getMagneticDipole</text>
</a>
</g>
</g>
<!-- Node20&#45;&gt;Node28 -->
<g id="edge9" class="edge"><title>Node20&#45;&gt;Node28</title>
<path fill="none" stroke="midnightblue" d="M92.2908,-82.4564C111.858,-72.0593 138.5,-57.9189 162,-45.5 168.178,-42.2352 174.736,-38.7769 181.12,-35.4141"/>
<polygon fill="midnightblue" stroke="midnightblue" points="183.067,-38.3446 190.285,-30.5891 179.806,-32.1505 183.067,-38.3446"/>
</g>
<!-- Node23 -->
<g id="node4" class="node"><title>Node23</title>
<g id="a_node4"><a xlink:href="classMatrixElementCache.html#a2407b99847793920a9d4ed0d8b156d8a" target="_top" xlink:title="MatrixElementCache\l::getElectricMultipole">
<polygon fill="none" stroke="black" points="314.5,-164.5 314.5,-194.5 430.5,-194.5 430.5,-164.5 314.5,-164.5"/>
<text text-anchor="start" x="322.5" y="-182.5" font-family="Helvetica,sans-Serif" font-size="10.00">MatrixElementCache</text>
<text text-anchor="middle" x="372.5" y="-171.5" font-family="Helvetica,sans-Serif" font-size="10.00">::getElectricMultipole</text>
</a>
</g>
</g>
<!-- Node22&#45;&gt;Node23 -->
<g id="edge3" class="edge"><title>Node22&#45;&gt;Node23</title>
<path fill="none" stroke="midnightblue" d="M278.327,-179.5C286.805,-179.5 295.606,-179.5 304.263,-179.5"/>
<polygon fill="midnightblue" stroke="midnightblue" points="304.332,-183 314.332,-179.5 304.332,-176 304.332,-183"/>
</g>
<!-- Node24&#45;&gt;Node21 -->
<g id="edge5" class="edge"><title>Node24&#45;&gt;Node21</title>
<path fill="none" stroke="midnightblue" d="M258.978,-107.089C278.659,-112.058 302.891,-118.177 323.821,-123.461"/>
<polygon fill="midnightblue" stroke="midnightblue" points="323.243,-126.925 333.796,-125.98 324.957,-120.138 323.243,-126.925"/>
</g>
<!-- Node25 -->
<g id="node6" class="node"><title>Node25</title>
<g id="a_node6"><a xlink:href="classStateOne.html#a6262da11406dbaa811f361cab2cf71b6" target="_top" xlink:title="StateOne::getEnergy">
<polygon fill="none" stroke="black" points="314,-88 314,-107 431,-107 431,-88 314,-88"/>
<text text-anchor="middle" x="372.5" y="-95" font-family="Helvetica,sans-Serif" font-size="10.00">StateOne::getEnergy</text>
</a>
</g>
</g>
<!-- Node24&#45;&gt;Node25 -->
<g id="edge6" class="edge"><title>Node24&#45;&gt;Node25</title>
<path fill="none" stroke="midnightblue" d="M277.041,-97.5C285.784,-97.5 294.899,-97.5 303.868,-97.5"/>
<polygon fill="midnightblue" stroke="midnightblue" points="303.904,-101 313.904,-97.5 303.904,-94.0001 303.904,-101"/>
</g>
<!-- Node24&#45;&gt;Node27 -->
<g id="edge8" class="edge"><title>Node24&#45;&gt;Node27</title>
<path fill="none" stroke="midnightblue" d="M258.978,-87.911C278.659,-82.9417 302.891,-76.8233 323.821,-71.5387"/>
<polygon fill="midnightblue" stroke="midnightblue" points="324.957,-74.8617 333.796,-69.0201 323.243,-68.0747 324.957,-74.8617"/>
</g>
<!-- Node26 -->
<g id="node7" class="node"><title>Node26</title>
<g id="a_node7"><a xlink:href="QuantumDefect_8cpp.html#a854f2230d8c234ac6c9aa6f07c3ac266" target="_top" xlink:title="Returns only the energy of a state. ">
<polygon fill="none" stroke="black" points="467,-88 467,-107 544,-107 544,-88 467,-88"/>
<text text-anchor="middle" x="505.5" y="-95" font-family="Helvetica,sans-Serif" font-size="10.00">energy_level</text>
</a>
</g>
</g>
<!-- Node25&#45;&gt;Node26 -->
<g id="edge7" class="edge"><title>Node25&#45;&gt;Node26</title>
<path fill="none" stroke="midnightblue" d="M431.34,-97.5C439.822,-97.5 448.478,-97.5 456.727,-97.5"/>
<polygon fill="midnightblue" stroke="midnightblue" points="456.917,-101 466.917,-97.5 456.917,-94.0001 456.917,-101"/>
</g>
</g>
</svg>
