<?xml version="1.0" encoding="UTF-8" standalone="no"?>
<!DOCTYPE svg PUBLIC "-//W3C//DTD SVG 1.1//EN"
 "http://www.w3.org/Graphics/SVG/1.1/DTD/svg11.dtd">
<!-- Generated by graphviz version 2.38.0 (20140413.2041)
 -->
<!-- Title: StateTwo::getNStar Pages: 1 -->
<svg width="342pt" height="104pt"
 viewBox="0.00 0.00 342.00 104.00" xmlns="http://www.w3.org/2000/svg" xmlns:xlink="http://www.w3.org/1999/xlink">
<g id="graph0" class="graph" transform="scale(1 1) rotate(0) translate(4 100)">
<title>StateTwo::getNStar</title>
<!-- Node47 -->
<g id="node1" class="node"><title>Node47</title>
<polygon fill="#bfbfbf" stroke="black" points="0,-38.5 0,-57.5 109,-57.5 109,-38.5 0,-38.5"/>
<text text-anchor="middle" x="54.5" y="-45.5" font-family="Helvetica,sans-Serif" font-size="10.00">StateTwo::getNStar</text>
</g>
<!-- Node48 -->
<g id="node2" class="node"><title>Node48</title>
<g id="a_node2"><a xlink:href="classStateTwo.html#a3dc818a5bdaf6f9ee8d3bac945fd6d18" target="_top" xlink:title="StateTwo::first">
<polygon fill="none" stroke="black" points="159.5,-76.5 159.5,-95.5 242.5,-95.5 242.5,-76.5 159.5,-76.5"/>
<text text-anchor="middle" x="201" y="-83.5" font-family="Helvetica,sans-Serif" font-size="10.00">StateTwo::first</text>
</a>
</g>
</g>
<!-- Node47&#45;&gt;Node48 -->
<g id="edge1" class="edge"><title>Node47&#45;&gt;Node48</title>
<path fill="none" stroke="midnightblue" d="M91.9635,-57.589C110.774,-62.5358 133.915,-68.6211 153.947,-73.8892"/>
<polygon fill="midnightblue" stroke="midnightblue" points="153.237,-77.3215 163.799,-76.4799 155.018,-70.5517 153.237,-77.3215"/>
</g>
<!-- Node49 -->
<g id="node3" class="node"><title>Node49</title>
<g id="a_node3"><a xlink:href="classStateOne.html#ad4e2058552ab21809e3dd455a29214ae" target="_top" xlink:title="StateOne::getNStar">
<polygon fill="none" stroke="black" points="145,-38.5 145,-57.5 257,-57.5 257,-38.5 145,-38.5"/>
<text text-anchor="middle" x="201" y="-45.5" font-family="Helvetica,sans-Serif" font-size="10.00">StateOne::getNStar</text>
</a>
</g>
</g>
<!-- Node47&#45;&gt;Node49 -->
<g id="edge2" class="edge"><title>Node47&#45;&gt;Node49</title>
<path fill="none" stroke="midnightblue" d="M109.306,-48C117.521,-48 126.077,-48 134.508,-48"/>
<polygon fill="midnightblue" stroke="midnightblue" points="134.701,-51.5001 144.701,-48 134.701,-44.5001 134.701,-51.5001"/>
</g>
<!-- Node51 -->
<g id="node5" class="node"><title>Node51</title>
<g id="a_node5"><a xlink:href="classStateTwo.html#a9bc7edda2944afa1f2c7ca87441e81b0" target="_top" xlink:title="StateTwo::second">
<polygon fill="none" stroke="black" points="151,-0.5 151,-19.5 251,-19.5 251,-0.5 151,-0.5"/>
<text text-anchor="middle" x="201" y="-7.5" font-family="Helvetica,sans-Serif" font-size="10.00">StateTwo::second</text>
</a>
</g>
</g>
<!-- Node47&#45;&gt;Node51 -->
<g id="edge4" class="edge"><title>Node47&#45;&gt;Node51</title>
<path fill="none" stroke="midnightblue" d="M91.9635,-38.411C110.774,-33.4642 133.915,-27.3789 153.947,-22.1108"/>
<polygon fill="midnightblue" stroke="midnightblue" points="155.018,-25.4483 163.799,-19.5201 153.237,-18.6785 155.018,-25.4483"/>
</g>
<!-- Node50 -->
<g id="node4" class="node"><title>Node50</title>
<g id="a_node4"><a xlink:href="QuantumDefect_8cpp.html#a6f428d5cafe7f9621da13889eb7cd091" target="_top" xlink:title="nstar">
<polygon fill="none" stroke="black" points="293,-38.5 293,-57.5 334,-57.5 334,-38.5 293,-38.5"/>
<text text-anchor="middle" x="313.5" y="-45.5" font-family="Helvetica,sans-Serif" font-size="10.00">nstar</text>
</a>
</g>
</g>
<!-- Node49&#45;&gt;Node50 -->
<g id="edge3" class="edge"><title>Node49&#45;&gt;Node50</title>
<path fill="none" stroke="midnightblue" d="M257.25,-48C266.078,-48 274.907,-48 282.834,-48"/>
<polygon fill="midnightblue" stroke="midnightblue" points="282.999,-51.5001 292.999,-48 282.999,-44.5001 282.999,-51.5001"/>
</g>
</g>
</svg>
