<?xml version="1.0" encoding="UTF-8" standalone="no"?>
<!DOCTYPE svg PUBLIC "-//W3C//DTD SVG 1.1//EN"
 "http://www.w3.org/Graphics/SVG/1.1/DTD/svg11.dtd">
<!-- Generated by graphviz version 2.38.0 (20140413.2041)
 -->
<!-- Title: SystemBase&lt; T &gt; Pages: 1 -->
<svg width="689pt" height="150pt"
 viewBox="0.00 0.00 688.50 150.00" xmlns="http://www.w3.org/2000/svg" xmlns:xlink="http://www.w3.org/1999/xlink">
<g id="graph0" class="graph" transform="scale(1 1) rotate(0) translate(4 146)">
<title>SystemBase&lt; T &gt;</title>
<!-- Node1 -->
<g id="node1" class="node"><title>Node1</title>
<polygon fill="#bfbfbf" stroke="black" points="214,-0.5 214,-19.5 319,-19.5 319,-0.5 214,-0.5"/>
<text text-anchor="middle" x="266.5" y="-7.5" font-family="Helvetica,sans-Serif" font-size="10.00">SystemBase&lt; T &gt;</text>
</g>
<!-- Node2 -->
<g id="node2" class="node"><title>Node2</title>
<polygon fill="none" stroke="#bfbfbf" points="0,-122.5 0,-141.5 75,-141.5 75,-122.5 0,-122.5"/>
<text text-anchor="middle" x="37.5" y="-129.5" font-family="Helvetica,sans-Serif" font-size="10.00">set&lt; float &gt;</text>
</g>
<!-- Node2&#45;&gt;Node1 -->
<g id="edge1" class="edge"><title>Node2&#45;&gt;Node1</title>
<path fill="none" stroke="#9a32cd" stroke-dasharray="5,2" d="M38.1462,-112.318C39.9651,-90.8787 46.4005,-56.3247 68.5,-38 89.9986,-20.1736 162.77,-14.0903 213.819,-12.0303"/>
<polygon fill="#9a32cd" stroke="#9a32cd" points="34.6443,-112.248 37.5486,-122.437 41.6322,-112.66 34.6443,-112.248"/>
<text text-anchor="middle" x="90" y="-74" font-family="Helvetica,sans-Serif" font-size="10.00"> range_j</text>
<text text-anchor="middle" x="90" y="-63" font-family="Helvetica,sans-Serif" font-size="10.00">range_m</text>
</g>
<!-- Node3 -->
<g id="node3" class="node"><title>Node3</title>
<g id="a_node3"><a xlink:href="classdouble.html" target="_top" xlink:title="double">
<polygon fill="none" stroke="black" points="93,-122.5 93,-141.5 142,-141.5 142,-122.5 93,-122.5"/>
<text text-anchor="middle" x="117.5" y="-129.5" font-family="Helvetica,sans-Serif" font-size="10.00">double</text>
</a>
</g>
</g>
<!-- Node3&#45;&gt;Node1 -->
<g id="edge2" class="edge"><title>Node3&#45;&gt;Node1</title>
<path fill="none" stroke="#9a32cd" stroke-dasharray="5,2" d="M115.516,-112.202C114.418,-91.1857 116.19,-57.5442 135.5,-38 146.516,-26.8499 182.344,-19.9512 213.751,-15.9208"/>
<polygon fill="#9a32cd" stroke="#9a32cd" points="112.046,-112.718 116.329,-122.409 119.024,-112.163 112.046,-112.718"/>
<text text-anchor="middle" x="167" y="-74" font-family="Helvetica,sans-Serif" font-size="10.00"> energy_max</text>
<text text-anchor="middle" x="167" y="-63" font-family="Helvetica,sans-Serif" font-size="10.00">energy_min</text>
</g>
<!-- Node4 -->
<g id="node4" class="node"><title>Node4</title>
<polygon fill="none" stroke="#bfbfbf" points="167.5,-122.5 167.5,-141.5 233.5,-141.5 233.5,-122.5 167.5,-122.5"/>
<text text-anchor="middle" x="200.5" y="-129.5" font-family="Helvetica,sans-Serif" font-size="10.00">set&lt; int &gt;</text>
</g>
<!-- Node4&#45;&gt;Node1 -->
<g id="edge3" class="edge"><title>Node4&#45;&gt;Node1</title>
<path fill="none" stroke="#9a32cd" stroke-dasharray="5,2" d="M200.788,-112.365C201.973,-92.2496 206.49,-60.1267 222.5,-38 228.279,-30.0128 237.216,-23.9045 245.529,-19.5352"/>
<polygon fill="#9a32cd" stroke="#9a32cd" points="197.289,-112.288 200.418,-122.41 204.284,-112.546 197.289,-112.288"/>
<text text-anchor="middle" x="242.5" y="-74" font-family="Helvetica,sans-Serif" font-size="10.00"> range_l</text>
<text text-anchor="middle" x="242.5" y="-63" font-family="Helvetica,sans-Serif" font-size="10.00">range_n</text>
</g>
<!-- Node5 -->
<g id="node5" class="node"><title>Node5</title>
<g id="a_node5"><a xlink:href="classbool.html" target="_top" xlink:title="bool">
<polygon fill="none" stroke="black" points="252,-122.5 252,-141.5 289,-141.5 289,-122.5 252,-122.5"/>
<text text-anchor="middle" x="270.5" y="-129.5" font-family="Helvetica,sans-Serif" font-size="10.00">bool</text>
</a>
</g>
</g>
<!-- Node5&#45;&gt;Node1 -->
<g id="edge4" class="edge"><title>Node5&#45;&gt;Node1</title>
<path fill="none" stroke="#9a32cd" stroke-dasharray="5,2" d="M268.133,-111.846C267.877,-109.213 267.655,-106.542 267.5,-104 265.619,-73.0553 265.997,-36.2152 266.304,-19.7291"/>
<polygon fill="#9a32cd" stroke="#9a32cd" points="264.681,-112.472 269.275,-122.019 271.637,-111.691 264.681,-112.472"/>
<text text-anchor="start" x="267.5" y="-90.5" font-family="Helvetica,sans-Serif" font-size="10.00"> is_new_hamiltonianmatrix</text>
<text text-anchor="middle" x="331" y="-79.5" font-family="Helvetica,sans-Serif" font-size="10.00">_required</text>
<text text-anchor="middle" x="331" y="-68.5" font-family="Helvetica,sans-Serif" font-size="10.00">memory_saving</text>
<text text-anchor="start" x="267.5" y="-57.5" font-family="Helvetica,sans-Serif" font-size="10.00">is_interaction_already</text>
<text text-anchor="middle" x="331" y="-46.5" font-family="Helvetica,sans-Serif" font-size="10.00">_contained</text>
</g>
<!-- Node6 -->
<g id="node6" class="node"><title>Node6</title>
<polygon fill="none" stroke="#bfbfbf" points="344.5,-122.5 344.5,-141.5 484.5,-141.5 484.5,-122.5 344.5,-122.5"/>
<text text-anchor="middle" x="414.5" y="-129.5" font-family="Helvetica,sans-Serif" font-size="10.00">SparseMatrix&lt; scalar_t &gt;</text>
</g>
<!-- Node6&#45;&gt;Node1 -->
<g id="edge5" class="edge"><title>Node6&#45;&gt;Node1</title>
<path fill="none" stroke="#9a32cd" stroke-dasharray="5,2" d="M416.013,-112.175C416.6,-91.1348 414.048,-57.4709 394.5,-38 383.8,-27.3416 349.669,-20.4703 319.341,-16.3279"/>
<polygon fill="#9a32cd" stroke="#9a32cd" points="412.506,-112.219 415.453,-122.395 419.495,-112.602 412.506,-112.219"/>
<text text-anchor="middle" x="476" y="-96" font-family="Helvetica,sans-Serif" font-size="10.00"> coefficients</text>
<text text-anchor="start" x="416.5" y="-85" font-family="Helvetica,sans-Serif" font-size="10.00">coefficients_unperturbed</text>
<text text-anchor="middle" x="476" y="-74" font-family="Helvetica,sans-Serif" font-size="10.00">_cache</text>
<text text-anchor="middle" x="476" y="-63" font-family="Helvetica,sans-Serif" font-size="10.00">hamiltonianmatrix</text>
<text text-anchor="start" x="416.5" y="-52" font-family="Helvetica,sans-Serif" font-size="10.00">hamiltonianmatrix</text>
<text text-anchor="middle" x="476" y="-41" font-family="Helvetica,sans-Serif" font-size="10.00">_unperturbed_cache</text>
</g>
<!-- Node7 -->
<g id="node7" class="node"><title>Node7</title>
<g id="a_node7"><a xlink:href="classMatrixElementCache.html" target="_top" xlink:title="MatrixElementCache">
<polygon fill="none" stroke="black" points="502.5,-122.5 502.5,-141.5 618.5,-141.5 618.5,-122.5 502.5,-122.5"/>
<text text-anchor="middle" x="560.5" y="-129.5" font-family="Helvetica,sans-Serif" font-size="10.00">MatrixElementCache</text>
</a>
</g>
</g>
<!-- Node7&#45;&gt;Node1 -->
<g id="edge6" class="edge"><title>Node7&#45;&gt;Node1</title>
<path fill="none" stroke="#9a32cd" stroke-dasharray="5,2" d="M561.919,-112.354C562.421,-90.9488 559.564,-56.4274 538.5,-38 522.361,-23.8811 393.416,-16.2398 319.006,-12.9674"/>
<polygon fill="#9a32cd" stroke="#9a32cd" points="558.418,-112.291 561.41,-122.455 565.409,-112.644 558.418,-112.291"/>
<text text-anchor="middle" x="578.5" y="-68.5" font-family="Helvetica,sans-Serif" font-size="10.00"> cache</text>
</g>
<!-- Node8 -->
<g id="node8" class="node"><title>Node8</title>
<polygon fill="none" stroke="#bfbfbf" points="636.5,-122.5 636.5,-141.5 674.5,-141.5 674.5,-122.5 636.5,-122.5"/>
<text text-anchor="middle" x="655.5" y="-129.5" font-family="Helvetica,sans-Serif" font-size="10.00">type</text>
</g>
<!-- Node8&#45;&gt;Node1 -->
<g id="edge7" class="edge"><title>Node8&#45;&gt;Node1</title>
<path fill="none" stroke="#9a32cd" stroke-dasharray="5,2" d="M649.958,-112.694C642.271,-90.7932 626.104,-54.9641 598.5,-38 575.313,-23.7504 406.701,-15.8577 319.079,-12.6781"/>
<polygon fill="#9a32cd" stroke="#9a32cd" points="646.711,-114.024 653.143,-122.443 653.365,-111.851 646.711,-114.024"/>
<text text-anchor="middle" x="663.5" y="-68.5" font-family="Helvetica,sans-Serif" font-size="10.00"> states</text>
</g>
</g>
</svg>
