<?xml version="1.0" encoding="UTF-8" standalone="no"?>
<!DOCTYPE svg PUBLIC "-//W3C//DTD SVG 1.1//EN"
 "http://www.w3.org/Graphics/SVG/1.1/DTD/svg11.dtd">
<!-- Generated by graphviz version 2.38.0 (20140413.2041)
 -->
<!-- Title: StateTwo Pages: 1 -->
<svg width="421pt" height="184pt"
 viewBox="0.00 0.00 420.50 184.00" xmlns="http://www.w3.org/2000/svg" xmlns:xlink="http://www.w3.org/1999/xlink">
<g id="graph0" class="graph" transform="scale(1 1) rotate(0) translate(4 180)">
<title>StateTwo</title>
<!-- Node2 -->
<g id="node1" class="node"><title>Node2</title>
<polygon fill="#bfbfbf" stroke="black" points="162.5,-0.5 162.5,-19.5 221.5,-19.5 221.5,-0.5 162.5,-0.5"/>
<text text-anchor="middle" x="192" y="-7.5" font-family="Helvetica,sans-Serif" font-size="10.00">StateTwo</text>
</g>
<!-- Node3 -->
<g id="node2" class="node"><title>Node3</title>
<g id="a_node2"><a xlink:href="classState.html" target="_top" xlink:title="Base class for states ">
<polygon fill="none" stroke="black" points="6.5,-89.5 6.5,-108.5 49.5,-108.5 49.5,-89.5 6.5,-89.5"/>
<text text-anchor="middle" x="28" y="-96.5" font-family="Helvetica,sans-Serif" font-size="10.00">State</text>
</a>
</g>
</g>
<!-- Node3&#45;&gt;Node2 -->
<g id="edge1" class="edge"><title>Node3&#45;&gt;Node2</title>
<path fill="none" stroke="midnightblue" d="M52.8711,-84.8062C86.8547,-66.7783 146.86,-34.9465 175.668,-19.6637"/>
<polygon fill="midnightblue" stroke="midnightblue" points="51.2173,-81.7214 44.0236,-89.4997 54.4978,-87.9052 51.2173,-81.7214"/>
</g>
<!-- Node4 -->
<g id="node3" class="node"><title>Node4</title>
<polygon fill="none" stroke="#bfbfbf" points="0,-156.5 0,-175.5 56,-175.5 56,-156.5 0,-156.5"/>
<text text-anchor="middle" x="28" y="-163.5" font-family="Helvetica,sans-Serif" font-size="10.00">uint32_t</text>
</g>
<!-- Node4&#45;&gt;Node3 -->
<g id="edge2" class="edge"><title>Node4&#45;&gt;Node3</title>
<path fill="none" stroke="#9a32cd" stroke-dasharray="5,2" d="M28,-146.037C28,-133.67 28,-118.12 28,-108.627"/>
<polygon fill="#9a32cd" stroke="#9a32cd" points="24.5001,-146.234 28,-156.234 31.5001,-146.234 24.5001,-146.234"/>
<text text-anchor="middle" x="36.5" y="-130" font-family="Helvetica,sans-Serif" font-size="10.00"> idx</text>
</g>
<!-- Node5 -->
<g id="node4" class="node"><title>Node5</title>
<polygon fill="none" stroke="#bfbfbf" points="68,-89.5 68,-108.5 192,-108.5 192,-89.5 68,-89.5"/>
<text text-anchor="middle" x="130" y="-96.5" font-family="Helvetica,sans-Serif" font-size="10.00">array&lt; std::string, 2 &gt;</text>
</g>
<!-- Node5&#45;&gt;Node2 -->
<g id="edge3" class="edge"><title>Node5&#45;&gt;Node2</title>
<path fill="none" stroke="#9a32cd" stroke-dasharray="5,2" d="M142.12,-80.993C155.258,-62.5572 175.704,-33.8672 185.853,-19.6249"/>
<polygon fill="#9a32cd" stroke="#9a32cd" points="139.125,-79.1651 136.171,-89.34 144.825,-83.2276 139.125,-79.1651"/>
<text text-anchor="middle" x="192" y="-57.5" font-family="Helvetica,sans-Serif" font-size="10.00"> species</text>
<text text-anchor="middle" x="192" y="-46.5" font-family="Helvetica,sans-Serif" font-size="10.00">element</text>
</g>
<!-- Node6 -->
<g id="node5" class="node"><title>Node6</title>
<polygon fill="none" stroke="#bfbfbf" points="210,-89.5 210,-108.5 298,-108.5 298,-89.5 210,-89.5"/>
<text text-anchor="middle" x="254" y="-96.5" font-family="Helvetica,sans-Serif" font-size="10.00">array&lt; int, 2 &gt;</text>
</g>
<!-- Node6&#45;&gt;Node2 -->
<g id="edge4" class="edge"><title>Node6&#45;&gt;Node2</title>
<path fill="none" stroke="#9a32cd" stroke-dasharray="5,2" d="M243.885,-80.4028C236.61,-68.1721 226.303,-51.677 216,-38 211.17,-31.588 205.17,-24.838 200.377,-19.691"/>
<polygon fill="#9a32cd" stroke="#9a32cd" points="240.94,-82.2994 249.012,-89.1621 246.981,-78.7636 240.94,-82.2994"/>
<text text-anchor="middle" x="241.5" y="-57.5" font-family="Helvetica,sans-Serif" font-size="10.00"> l</text>
<text text-anchor="middle" x="241.5" y="-46.5" font-family="Helvetica,sans-Serif" font-size="10.00">n</text>
</g>
<!-- Node7 -->
<g id="node6" class="node"><title>Node7</title>
<polygon fill="none" stroke="#bfbfbf" points="315.5,-89.5 315.5,-108.5 412.5,-108.5 412.5,-89.5 315.5,-89.5"/>
<text text-anchor="middle" x="364" y="-96.5" font-family="Helvetica,sans-Serif" font-size="10.00">array&lt; float, 2 &gt;</text>
</g>
<!-- Node7&#45;&gt;Node2 -->
<g id="edge5" class="edge"><title>Node7&#45;&gt;Node2</title>
<path fill="none" stroke="#9a32cd" stroke-dasharray="5,2" d="M339.271,-84.7464C316.077,-72.3999 280.366,-53.6038 249,-38 236.255,-31.6597 221.755,-24.7962 210.57,-19.5758"/>
<polygon fill="#9a32cd" stroke="#9a32cd" points="337.63,-87.8379 348.1,-89.4571 340.925,-81.6619 337.63,-87.8379"/>
<text text-anchor="middle" x="317" y="-63" font-family="Helvetica,sans-Serif" font-size="10.00"> j</text>
<text text-anchor="middle" x="317" y="-52" font-family="Helvetica,sans-Serif" font-size="10.00">m</text>
<text text-anchor="middle" x="317" y="-41" font-family="Helvetica,sans-Serif" font-size="10.00">s</text>
</g>
</g>
</svg>
