<?xml version="1.0" encoding="UTF-8" standalone="no"?>
<!DOCTYPE svg PUBLIC "-//W3C//DTD SVG 1.1//EN"
 "http://www.w3.org/Graphics/SVG/1.1/DTD/svg11.dtd">
<!-- Generated by graphviz version 2.38.0 (20140413.2041)
 -->
<!-- Title: sqlite::statement::prepare Pages: 1 -->
<svg width="537pt" height="279pt"
 viewBox="0.00 0.00 537.00 279.00" xmlns="http://www.w3.org/2000/svg" xmlns:xlink="http://www.w3.org/1999/xlink">
<g id="graph0" class="graph" transform="scale(1 1) rotate(0) translate(4 275)">
<title>sqlite::statement::prepare</title>
<!-- Node38 -->
<g id="node1" class="node"><title>Node38</title>
<polygon fill="#bfbfbf" stroke="black" points="5.68434e-14,-132 5.68434e-14,-162 104,-162 104,-132 5.68434e-14,-132"/>
<text text-anchor="start" x="8" y="-150" font-family="Helvetica,sans-Serif" font-size="10.00">sqlite::statement::</text>
<text text-anchor="middle" x="52" y="-139" font-family="Helvetica,sans-Serif" font-size="10.00">prepare</text>
</g>
<!-- Node39 -->
<g id="node2" class="node"><title>Node39</title>
<g id="a_node2"><a xlink:href="quantum__defect__test_8cpp.html#aa6d045e9def139cd75c41b225e83676e" target="_top" xlink:title="BOOST_AUTO_TEST_CASE">
<polygon fill="none" stroke="black" points="156.5,-251.5 156.5,-270.5 299.5,-270.5 299.5,-251.5 156.5,-251.5"/>
<text text-anchor="middle" x="228" y="-258.5" font-family="Helvetica,sans-Serif" font-size="10.00">BOOST_AUTO_TEST_CASE</text>
</a>
</g>
</g>
<!-- Node38&#45;&gt;Node39 -->
<g id="edge1" class="edge"><title>Node38&#45;&gt;Node39</title>
<path fill="none" stroke="midnightblue" d="M68.2205,-170.641C83.6336,-192.593 109.504,-224.451 140,-242 146.7,-245.855 154.102,-248.93 161.675,-251.381"/>
<polygon fill="midnightblue" stroke="midnightblue" points="70.9864,-168.484 62.4606,-162.195 65.2032,-172.428 70.9864,-168.484"/>
</g>
<!-- Node40 -->
<g id="node3" class="node"><title>Node40</title>
<g id="a_node3"><a xlink:href="classHamiltonianOne.html#a9cb71dcb34ab9f0779c0bd66b758185e" target="_top" xlink:title="HamiltonianOne::build">
<polygon fill="none" stroke="black" points="167,-213.5 167,-232.5 289,-232.5 289,-213.5 167,-213.5"/>
<text text-anchor="middle" x="228" y="-220.5" font-family="Helvetica,sans-Serif" font-size="10.00">HamiltonianOne::build</text>
</a>
</g>
</g>
<!-- Node38&#45;&gt;Node40 -->
<g id="edge2" class="edge"><title>Node38&#45;&gt;Node40</title>
<path fill="none" stroke="midnightblue" d="M79.6408,-168.147C96.1609,-180.291 118.308,-194.892 140,-204 149.123,-207.83 159.122,-210.933 168.989,-213.433"/>
<polygon fill="midnightblue" stroke="midnightblue" points="81.6434,-165.274 71.547,-162.063 77.4372,-170.869 81.6434,-165.274"/>
</g>
<!-- Node42 -->
<g id="node5" class="node"><title>Node42</title>
<g id="a_node5"><a xlink:href="classHamiltonianTwo.html#a6ca0a318f25170b69e571a07064a5afb" target="_top" xlink:title="HamiltonianTwo::calculate">
<polygon fill="none" stroke="black" points="158,-175.5 158,-194.5 298,-194.5 298,-175.5 158,-175.5"/>
<text text-anchor="middle" x="228" y="-182.5" font-family="Helvetica,sans-Serif" font-size="10.00">HamiltonianTwo::calculate</text>
</a>
</g>
</g>
<!-- Node38&#45;&gt;Node42 -->
<g id="edge4" class="edge"><title>Node38&#45;&gt;Node42</title>
<path fill="none" stroke="midnightblue" d="M114.213,-160.368C137.059,-165.358 162.513,-170.917 183.45,-175.489"/>
<polygon fill="midnightblue" stroke="midnightblue" points="114.781,-156.91 104.265,-158.196 113.288,-163.749 114.781,-156.91"/>
</g>
<!-- Node44 -->
<g id="node7" class="node"><title>Node44</title>
<g id="a_node7"><a xlink:href="classMatrixElements.html#a8c96cdfdf45e83734ee613bc91526efb" target="_top" xlink:title="MatrixElements::getRadial">
<polygon fill="none" stroke="black" points="157.5,-137.5 157.5,-156.5 298.5,-156.5 298.5,-137.5 157.5,-137.5"/>
<text text-anchor="middle" x="228" y="-144.5" font-family="Helvetica,sans-Serif" font-size="10.00">MatrixElements::getRadial</text>
</a>
</g>
</g>
<!-- Node38&#45;&gt;Node44 -->
<g id="edge6" class="edge"><title>Node38&#45;&gt;Node44</title>
<path fill="none" stroke="midnightblue" d="M114.64,-147C128.482,-147 143.262,-147 157.402,-147"/>
<polygon fill="midnightblue" stroke="midnightblue" points="114.265,-143.5 104.265,-147 114.265,-150.5 114.265,-143.5"/>
</g>
<!-- Node45 -->
<g id="node8" class="node"><title>Node45</title>
<g id="a_node8"><a xlink:href="classMatrixElements.html#adebeaf2c43204d0ed2f5d36b3ef9846b" target="_top" xlink:title="MatrixElements::precalculate\lDiamagnetism">
<polygon fill="none" stroke="black" points="150.5,-88 150.5,-118 305.5,-118 305.5,-88 150.5,-88"/>
<text text-anchor="start" x="158.5" y="-106" font-family="Helvetica,sans-Serif" font-size="10.00">MatrixElements::precalculate</text>
<text text-anchor="middle" x="228" y="-95" font-family="Helvetica,sans-Serif" font-size="10.00">Diamagnetism</text>
</a>
</g>
</g>
<!-- Node38&#45;&gt;Node45 -->
<g id="edge7" class="edge"><title>Node38&#45;&gt;Node45</title>
<path fill="none" stroke="midnightblue" d="M114.253,-131.511C131.55,-127.137 150.339,-122.385 167.53,-118.038"/>
<polygon fill="midnightblue" stroke="midnightblue" points="113.101,-128.192 104.265,-134.037 114.818,-134.978 113.101,-128.192"/>
</g>
<!-- Node46 -->
<g id="node9" class="node"><title>Node46</title>
<g id="a_node9"><a xlink:href="classMatrixElementCache.html#a41efbe3c4a7e3e5f2ed2c807a0b3178e" target="_top" xlink:title="MatrixElementCache\l::precalculateDiamagnetism">
<polygon fill="none" stroke="black" points="152,-39 152,-69 304,-69 304,-39 152,-39"/>
<text text-anchor="start" x="160" y="-57" font-family="Helvetica,sans-Serif" font-size="10.00">MatrixElementCache</text>
<text text-anchor="middle" x="228" y="-46" font-family="Helvetica,sans-Serif" font-size="10.00">::precalculateDiamagnetism</text>
</a>
</g>
</g>
<!-- Node38&#45;&gt;Node46 -->
<g id="edge8" class="edge"><title>Node38&#45;&gt;Node46</title>
<path fill="none" stroke="midnightblue" d="M75.953,-125.028C92.5788,-110.173 116.225,-91.1256 140,-79 147.42,-75.2158 155.496,-71.9269 163.64,-69.0905"/>
<polygon fill="midnightblue" stroke="midnightblue" points="73.412,-122.609 68.3853,-131.935 78.1309,-127.779 73.412,-122.609"/>
</g>
<!-- Node48 -->
<g id="node11" class="node"><title>Node48</title>
<g id="a_node11"><a xlink:href="classQuantumDefect.html#ae35ddcbfdf6d217950469549c60743d2" target="_top" xlink:title="QuantumDefect::QuantumDefect">
<polygon fill="none" stroke="black" points="140,-0.5 140,-19.5 316,-19.5 316,-0.5 140,-0.5"/>
<text text-anchor="middle" x="228" y="-7.5" font-family="Helvetica,sans-Serif" font-size="10.00">QuantumDefect::QuantumDefect</text>
</a>
</g>
</g>
<!-- Node38&#45;&gt;Node48 -->
<g id="edge10" class="edge"><title>Node38&#45;&gt;Node48</title>
<path fill="none" stroke="midnightblue" d="M64.5162,-122.573C78.5126,-95.6332 104.706,-53.0569 140,-30 146.617,-25.6771 154.051,-22.2828 161.713,-19.6188"/>
<polygon fill="midnightblue" stroke="midnightblue" points="61.2799,-121.218 59.9173,-131.725 67.5346,-124.361 61.2799,-121.218"/>
</g>
<!-- Node41 -->
<g id="node4" class="node"><title>Node41</title>
<g id="a_node4"><a xlink:href="classHamiltonianOne.html#ad3ba2d70879a60c9f065b5a2545dfe36" target="_top" xlink:title="HamiltonianOne::HamiltonianOne">
<polygon fill="none" stroke="black" points="352,-213.5 352,-232.5 529,-232.5 529,-213.5 352,-213.5"/>
<text text-anchor="middle" x="440.5" y="-220.5" font-family="Helvetica,sans-Serif" font-size="10.00">HamiltonianOne::HamiltonianOne</text>
</a>
</g>
</g>
<!-- Node40&#45;&gt;Node41 -->
<g id="edge3" class="edge"><title>Node40&#45;&gt;Node41</title>
<path fill="none" stroke="midnightblue" d="M299.337,-223C316.185,-223 334.378,-223 351.9,-223"/>
<polygon fill="midnightblue" stroke="midnightblue" points="299.039,-219.5 289.039,-223 299.039,-226.5 299.039,-219.5"/>
</g>
<!-- Node43 -->
<g id="node6" class="node"><title>Node43</title>
<g id="a_node6"><a xlink:href="classHamiltonianTwo.html#abd374713c9b38f72265c7fe496c42b96" target="_top" xlink:title="HamiltonianTwo::HamiltonianTwo">
<polygon fill="none" stroke="black" points="355,-175.5 355,-194.5 526,-194.5 526,-175.5 355,-175.5"/>
<text text-anchor="middle" x="440.5" y="-182.5" font-family="Helvetica,sans-Serif" font-size="10.00">HamiltonianTwo::HamiltonianTwo</text>
</a>
</g>
</g>
<!-- Node42&#45;&gt;Node43 -->
<g id="edge5" class="edge"><title>Node42&#45;&gt;Node43</title>
<path fill="none" stroke="midnightblue" d="M308.549,-185C323.671,-185 339.546,-185 354.821,-185"/>
<polygon fill="midnightblue" stroke="midnightblue" points="308.217,-181.5 298.217,-185 308.217,-188.5 308.217,-181.5"/>
</g>
<!-- Node47 -->
<g id="node10" class="node"><title>Node47</title>
<g id="a_node10"><a xlink:href="classSystemOne.html#abf6d26d44765fa787251956c128644a7" target="_top" xlink:title="Method that allows base class to calculate the interaction /////. ">
<polygon fill="none" stroke="black" points="356.5,-44.5 356.5,-63.5 524.5,-63.5 524.5,-44.5 356.5,-44.5"/>
<text text-anchor="middle" x="440.5" y="-51.5" font-family="Helvetica,sans-Serif" font-size="10.00">SystemOne::initializeInteraction</text>
</a>
</g>
</g>
<!-- Node46&#45;&gt;Node47 -->
<g id="edge9" class="edge"><title>Node46&#45;&gt;Node47</title>
<path fill="none" stroke="midnightblue" d="M314.112,-54C327.994,-54 342.361,-54 356.199,-54"/>
<polygon fill="midnightblue" stroke="midnightblue" points="314.104,-50.5001 304.104,-54 314.104,-57.5001 314.104,-50.5001"/>
</g>
</g>
</svg>
