<?xml version="1.0" encoding="UTF-8" standalone="no"?>
<!DOCTYPE svg PUBLIC "-//W3C//DTD SVG 1.1//EN"
 "http://www.w3.org/Graphics/SVG/1.1/DTD/svg11.dtd">
<!-- Generated by graphviz version 2.38.0 (20140413.2041)
 -->
<!-- Title: SystemOne::initializeInteraction Pages: 1 -->
<svg width="588pt" height="448pt"
 viewBox="0.00 0.00 588.00 448.00" xmlns="http://www.w3.org/2000/svg" xmlns:xlink="http://www.w3.org/1999/xlink">
<g id="graph0" class="graph" transform="scale(1 1) rotate(0) translate(4 444)">
<title>SystemOne::initializeInteraction</title>
<!-- Node30 -->
<g id="node1" class="node"><title>Node30</title>
<polygon fill="#bfbfbf" stroke="black" points="0,-181 0,-200 168,-200 168,-181 0,-181"/>
<text text-anchor="middle" x="84" y="-188" font-family="Helvetica,sans-Serif" font-size="10.00">SystemOne::initializeInteraction</text>
</g>
<!-- Node31 -->
<g id="node2" class="node"><title>Node31</title>
<g id="a_node2"><a xlink:href="classMatrixElementCache.html#ab1120fb945d5c0c5e30821e886c04c42" target="_top" xlink:title="MatrixElementCache\l::getDiamagnetism">
<polygon fill="none" stroke="black" points="236,-333.5 236,-363.5 352,-363.5 352,-333.5 236,-333.5"/>
<text text-anchor="start" x="244" y="-351.5" font-family="Helvetica,sans-Serif" font-size="10.00">MatrixElementCache</text>
<text text-anchor="middle" x="294" y="-340.5" font-family="Helvetica,sans-Serif" font-size="10.00">::getDiamagnetism</text>
</a>
</g>
</g>
<!-- Node30&#45;&gt;Node31 -->
<g id="edge1" class="edge"><title>Node30&#45;&gt;Node31</title>
<path fill="none" stroke="midnightblue" d="M91.9861,-200.164C108.845,-222.866 154.071,-280.192 204,-313.5 213.2,-319.637 223.638,-324.95 234.046,-329.453"/>
<polygon fill="midnightblue" stroke="midnightblue" points="232.981,-332.799 243.561,-333.36 235.64,-326.323 232.981,-332.799"/>
</g>
<!-- Node33 -->
<g id="node4" class="node"><title>Node33</title>
<g id="a_node4"><a xlink:href="classMatrixElementCache.html#ac6191cd01c85dd9cf28a373b524f0b1b" target="_top" xlink:title="Get matrix elements ////////////////////////////////////////////. ">
<polygon fill="none" stroke="black" points="236,-387.5 236,-417.5 352,-417.5 352,-387.5 236,-387.5"/>
<text text-anchor="start" x="244" y="-405.5" font-family="Helvetica,sans-Serif" font-size="10.00">MatrixElementCache</text>
<text text-anchor="middle" x="294" y="-394.5" font-family="Helvetica,sans-Serif" font-size="10.00">::getElectricDipole</text>
</a>
</g>
</g>
<!-- Node30&#45;&gt;Node33 -->
<g id="edge3" class="edge"><title>Node30&#45;&gt;Node33</title>
<path fill="none" stroke="midnightblue" d="M88.5244,-200.095C100.107,-230.303 139.965,-324.353 204,-373.5 210.671,-378.62 218.283,-382.856 226.181,-386.354"/>
<polygon fill="midnightblue" stroke="midnightblue" points="224.962,-389.637 235.545,-390.132 227.581,-383.145 224.962,-389.637"/>
</g>
<!-- Node34 -->
<g id="node5" class="node"><title>Node34</title>
<g id="a_node5"><a xlink:href="classMatrixElementCache.html#aeef0496ad6db911dac50c0625660d9c0" target="_top" xlink:title="MatrixElementCache\l::getMagneticDipole">
<polygon fill="none" stroke="black" points="236,-273.5 236,-303.5 352,-303.5 352,-273.5 236,-273.5"/>
<text text-anchor="start" x="244" y="-291.5" font-family="Helvetica,sans-Serif" font-size="10.00">MatrixElementCache</text>
<text text-anchor="middle" x="294" y="-280.5" font-family="Helvetica,sans-Serif" font-size="10.00">::getMagneticDipole</text>
</a>
</g>
</g>
<!-- Node30&#45;&gt;Node34 -->
<g id="edge5" class="edge"><title>Node30&#45;&gt;Node34</title>
<path fill="none" stroke="midnightblue" d="M97.5171,-200.028C118.484,-215.575 162.497,-246.468 204,-264.5 211.018,-267.549 218.519,-270.296 226.078,-272.748"/>
<polygon fill="midnightblue" stroke="midnightblue" points="225.064,-276.098 235.651,-275.696 227.124,-269.408 225.064,-276.098"/>
</g>
<!-- Node35 -->
<g id="node6" class="node"><title>Node35</title>
<g id="a_node6"><a xlink:href="classSystemBase.html#a47c10153452fc59ad1932e68de506234" target="_top" xlink:title="Methods to get properties of the system ////////////////////////. ">
<polygon fill="none" stroke="black" points="227,-224.5 227,-254.5 361,-254.5 361,-224.5 227,-224.5"/>
<text text-anchor="start" x="235" y="-242.5" font-family="Helvetica,sans-Serif" font-size="10.00">SystemBase&lt; StateOne</text>
<text text-anchor="middle" x="294" y="-231.5" font-family="Helvetica,sans-Serif" font-size="10.00"> &gt;::getStates</text>
</a>
</g>
</g>
<!-- Node30&#45;&gt;Node35 -->
<g id="edge6" class="edge"><title>Node30&#45;&gt;Node35</title>
<path fill="none" stroke="midnightblue" d="M125.598,-200.064C152.162,-206.322 187.649,-214.682 219.112,-222.094"/>
<polygon fill="midnightblue" stroke="midnightblue" points="218.633,-225.577 229.17,-224.463 220.239,-218.763 218.633,-225.577"/>
</g>
<!-- Node36 -->
<g id="node7" class="node"><title>Node36</title>
<g id="a_node7"><a xlink:href="classMatrixElementCache.html#a41efbe3c4a7e3e5f2ed2c807a0b3178e" target="_top" xlink:title="MatrixElementCache\l::precalculateDiamagnetism">
<polygon fill="none" stroke="black" points="218,-175.5 218,-205.5 370,-205.5 370,-175.5 218,-175.5"/>
<text text-anchor="start" x="226" y="-193.5" font-family="Helvetica,sans-Serif" font-size="10.00">MatrixElementCache</text>
<text text-anchor="middle" x="294" y="-182.5" font-family="Helvetica,sans-Serif" font-size="10.00">::precalculateDiamagnetism</text>
</a>
</g>
</g>
<!-- Node30&#45;&gt;Node36 -->
<g id="edge7" class="edge"><title>Node30&#45;&gt;Node36</title>
<path fill="none" stroke="midnightblue" d="M168.104,-190.5C181.051,-190.5 194.448,-190.5 207.448,-190.5"/>
<polygon fill="midnightblue" stroke="midnightblue" points="207.772,-194 217.772,-190.5 207.772,-187 207.772,-194"/>
</g>
<!-- Node43 -->
<g id="node14" class="node"><title>Node43</title>
<g id="a_node14"><a xlink:href="MatrixElementCache_8cpp.html#a15aabd3025cfa0ca9485cd672c0a1a4a" target="_top" xlink:title="selectionRulesMomentumNew">
<polygon fill="none" stroke="black" points="420,-44 420,-63 580,-63 580,-44 420,-44"/>
<text text-anchor="middle" x="500" y="-51" font-family="Helvetica,sans-Serif" font-size="10.00">selectionRulesMomentumNew</text>
</a>
</g>
</g>
<!-- Node30&#45;&gt;Node43 -->
<g id="edge20" class="edge"><title>Node30&#45;&gt;Node43</title>
<path fill="none" stroke="midnightblue" d="M130.672,-180.999C211.757,-164.008 373.391,-129.53 384,-122.5 406.827,-107.375 397.268,-87.7666 420,-72.5 422.959,-70.513 426.103,-68.7331 429.367,-67.1388"/>
<polygon fill="midnightblue" stroke="midnightblue" points="430.994,-70.2504 438.83,-63.1193 428.258,-63.8075 430.994,-70.2504"/>
</g>
<!-- Node44 -->
<g id="node15" class="node"><title>Node44</title>
<g id="a_node15"><a xlink:href="MatrixElementCache_8cpp.html#a06a268e07e2a0edb3fca096b8c941c78" target="_top" xlink:title="selectionRulesMultipoleNew">
<polygon fill="none" stroke="black" points="426.5,-6 426.5,-25 573.5,-25 573.5,-6 426.5,-6"/>
<text text-anchor="middle" x="500" y="-13" font-family="Helvetica,sans-Serif" font-size="10.00">selectionRulesMultipoleNew</text>
</a>
</g>
</g>
<!-- Node30&#45;&gt;Node44 -->
<g id="edge21" class="edge"><title>Node30&#45;&gt;Node44</title>
<path fill="none" stroke="midnightblue" d="M98.1949,-180.98C119.415,-166.141 162.916,-137.633 204,-122.5 280.397,-94.3601 316.112,-133.44 384,-88.5 408.052,-72.5784 396.348,-51.01 420,-34.5 422.863,-32.5016 425.911,-30.7121 429.081,-29.1096"/>
<polygon fill="midnightblue" stroke="midnightblue" points="430.535,-32.2936 438.286,-25.071 427.723,-25.8833 430.535,-32.2936"/>
</g>
<!-- Node47 -->
<g id="node18" class="node"><title>Node47</title>
<g id="a_node18"><a xlink:href="classMatrixElementCache.html#a34df68dc580d24417fe3fad8fefc44b9" target="_top" xlink:title="MatrixElementCache\l::precalculateElectricMomentum">
<polygon fill="none" stroke="black" points="208.5,-49.5 208.5,-79.5 379.5,-79.5 379.5,-49.5 208.5,-49.5"/>
<text text-anchor="start" x="216.5" y="-67.5" font-family="Helvetica,sans-Serif" font-size="10.00">MatrixElementCache</text>
<text text-anchor="middle" x="294" y="-56.5" font-family="Helvetica,sans-Serif" font-size="10.00">::precalculateElectricMomentum</text>
</a>
</g>
</g>
<!-- Node30&#45;&gt;Node47 -->
<g id="edge18" class="edge"><title>Node30&#45;&gt;Node47</title>
<path fill="none" stroke="midnightblue" d="M94.3207,-180.988C113.33,-162.07 158.624,-119.405 204,-94.5 211.685,-90.2818 220.068,-86.5122 228.517,-83.1887"/>
<polygon fill="midnightblue" stroke="midnightblue" points="229.907,-86.4054 238.049,-79.6259 227.457,-79.8484 229.907,-86.4054"/>
</g>
<!-- Node48 -->
<g id="node19" class="node"><title>Node48</title>
<g id="a_node19"><a xlink:href="classMatrixElementCache.html#ad68fd8e84f74d7b35055fec6d09273bb" target="_top" xlink:title="MatrixElementCache\l::precalculateMagneticMomentum">
<polygon fill="none" stroke="black" points="204,-0.5 204,-30.5 384,-30.5 384,-0.5 204,-0.5"/>
<text text-anchor="start" x="212" y="-18.5" font-family="Helvetica,sans-Serif" font-size="10.00">MatrixElementCache</text>
<text text-anchor="middle" x="294" y="-7.5" font-family="Helvetica,sans-Serif" font-size="10.00">::precalculateMagneticMomentum</text>
</a>
</g>
</g>
<!-- Node30&#45;&gt;Node48 -->
<g id="edge19" class="edge"><title>Node30&#45;&gt;Node48</title>
<path fill="none" stroke="midnightblue" d="M89.6731,-180.985C103.306,-154.254 145.779,-77.9268 204,-39.5 206.442,-37.8884 208.989,-36.3846 211.613,-34.9815"/>
<polygon fill="midnightblue" stroke="midnightblue" points="213.286,-38.0612 220.796,-30.5878 210.264,-31.7468 213.286,-38.0612"/>
</g>
<!-- Node32 -->
<g id="node3" class="node"><title>Node32</title>
<g id="a_node3"><a xlink:href="classMatrixElementCache.html#a2407b99847793920a9d4ed0d8b156d8a" target="_top" xlink:title="MatrixElementCache\l::getElectricMultipole">
<polygon fill="none" stroke="black" points="442,-409.5 442,-439.5 558,-439.5 558,-409.5 442,-409.5"/>
<text text-anchor="start" x="450" y="-427.5" font-family="Helvetica,sans-Serif" font-size="10.00">MatrixElementCache</text>
<text text-anchor="middle" x="500" y="-416.5" font-family="Helvetica,sans-Serif" font-size="10.00">::getElectricMultipole</text>
</a>
</g>
</g>
<!-- Node31&#45;&gt;Node32 -->
<g id="edge2" class="edge"><title>Node31&#45;&gt;Node32</title>
<path fill="none" stroke="midnightblue" d="M345.586,-363.57C358.322,-367.901 371.828,-372.968 384,-378.5 400.863,-386.164 403.066,-391.993 420,-399.5 425.096,-401.759 430.46,-403.907 435.893,-405.926"/>
<polygon fill="midnightblue" stroke="midnightblue" points="435.11,-409.362 445.704,-409.416 437.456,-402.767 435.11,-409.362"/>
</g>
<!-- Node33&#45;&gt;Node32 -->
<g id="edge4" class="edge"><title>Node33&#45;&gt;Node32</title>
<path fill="none" stroke="midnightblue" d="M352.097,-408.657C376.863,-411.328 406.041,-414.475 431.84,-417.257"/>
<polygon fill="midnightblue" stroke="midnightblue" points="431.599,-420.752 441.917,-418.344 432.35,-413.792 431.599,-420.752"/>
</g>
<!-- Node37 -->
<g id="node8" class="node"><title>Node37</title>
<g id="a_node8"><a xlink:href="classsqlite_1_1statement.html#a1b5e34a58010723e10ee31c4d02f7f55" target="_top" xlink:title="Bind a value to a position in the query. ">
<polygon fill="none" stroke="black" points="437.5,-333 437.5,-352 562.5,-352 562.5,-333 437.5,-333"/>
<text text-anchor="middle" x="500" y="-340" font-family="Helvetica,sans-Serif" font-size="10.00">sqlite::statement::bind</text>
</a>
</g>
</g>
<!-- Node36&#45;&gt;Node37 -->
<g id="edge8" class="edge"><title>Node36&#45;&gt;Node37</title>
<path fill="none" stroke="midnightblue" d="M370.373,-205.561C375.316,-208.341 379.934,-211.624 384,-215.5 420.624,-250.41 382.723,-289.289 420,-323.5 422.494,-325.789 425.215,-327.816 428.098,-329.61"/>
<polygon fill="midnightblue" stroke="midnightblue" points="426.683,-332.818 437.17,-334.321 429.908,-326.606 426.683,-332.818"/>
</g>
<!-- Node38 -->
<g id="node9" class="node"><title>Node38</title>
<g id="a_node9"><a xlink:href="classsqlite_1_1statement.html#add6b491603e9505c82779ad762f72888" target="_top" xlink:title="Execute SQLite statements. ">
<polygon fill="none" stroke="black" points="436.5,-295 436.5,-314 563.5,-314 563.5,-295 436.5,-295"/>
<text text-anchor="middle" x="500" y="-302" font-family="Helvetica,sans-Serif" font-size="10.00">sqlite::statement::exec</text>
</a>
</g>
</g>
<!-- Node36&#45;&gt;Node38 -->
<g id="edge9" class="edge"><title>Node36&#45;&gt;Node38</title>
<path fill="none" stroke="midnightblue" d="M368.423,-205.619C373.994,-208.379 379.276,-211.642 384,-215.5 411.097,-237.629 392.49,-263.888 420,-285.5 422.288,-287.297 424.72,-288.928 427.258,-290.408"/>
<polygon fill="midnightblue" stroke="midnightblue" points="425.729,-293.557 436.241,-294.88 428.848,-287.29 425.729,-293.557"/>
</g>
<!-- Node39 -->
<g id="node10" class="node"><title>Node39</title>
<g id="a_node10"><a xlink:href="classsqlite_1_1statement.html#a881b89458af4ea9bde7a80e416f53903" target="_top" xlink:title="Get value of a field. ">
<polygon fill="none" stroke="black" points="440,-257 440,-276 560,-276 560,-257 440,-257"/>
<text text-anchor="middle" x="500" y="-264" font-family="Helvetica,sans-Serif" font-size="10.00">sqlite::statement::get</text>
</a>
</g>
</g>
<!-- Node36&#45;&gt;Node39 -->
<g id="edge10" class="edge"><title>Node36&#45;&gt;Node39</title>
<path fill="none" stroke="midnightblue" d="M361.463,-205.535C369.273,-208.352 376.959,-211.651 384,-215.5 402.784,-225.768 401.025,-237.589 420,-247.5 424.495,-249.848 429.286,-251.911 434.201,-253.723"/>
<polygon fill="midnightblue" stroke="midnightblue" points="433.166,-257.068 443.76,-256.908 435.379,-250.426 433.166,-257.068"/>
</g>
<!-- Node40 -->
<g id="node11" class="node"><title>Node40</title>
<g id="a_node11"><a xlink:href="namespaceutils.html#a1ba9020d51335d2ddd62e877803e9e31" target="_top" xlink:title="utils::get_pid">
<polygon fill="none" stroke="black" points="461.5,-219 461.5,-238 538.5,-238 538.5,-219 461.5,-219"/>
<text text-anchor="middle" x="500" y="-226" font-family="Helvetica,sans-Serif" font-size="10.00">utils::get_pid</text>
</a>
</g>
</g>
<!-- Node36&#45;&gt;Node40 -->
<g id="edge11" class="edge"><title>Node36&#45;&gt;Node40</title>
<path fill="none" stroke="midnightblue" d="M370.093,-204.488C397.231,-209.543 427.106,-215.108 451.256,-219.607"/>
<polygon fill="midnightblue" stroke="midnightblue" points="450.76,-223.074 461.232,-221.465 452.042,-216.193 450.76,-223.074"/>
</g>
<!-- Node41 -->
<g id="node12" class="node"><title>Node41</title>
<g id="a_node12"><a xlink:href="classsqlite_1_1statement.html#a1b40871fb975892f70ea097f7c6da9c1" target="_top" xlink:title="Prepare the statement. ">
<polygon fill="none" stroke="black" points="448,-169.5 448,-199.5 552,-199.5 552,-169.5 448,-169.5"/>
<text text-anchor="start" x="456" y="-187.5" font-family="Helvetica,sans-Serif" font-size="10.00">sqlite::statement::</text>
<text text-anchor="middle" x="500" y="-176.5" font-family="Helvetica,sans-Serif" font-size="10.00">prepare</text>
</a>
</g>
</g>
<!-- Node36&#45;&gt;Node41 -->
<g id="edge12" class="edge"><title>Node36&#45;&gt;Node41</title>
<path fill="none" stroke="midnightblue" d="M370.093,-188.291C392.353,-187.637 416.454,-186.928 437.728,-186.302"/>
<polygon fill="midnightblue" stroke="midnightblue" points="438.03,-189.795 447.923,-186.002 437.825,-182.798 438.03,-189.795"/>
</g>
<!-- Node42 -->
<g id="node13" class="node"><title>Node42</title>
<g id="a_node13"><a xlink:href="classsqlite_1_1statement.html#a4feb0002bd8daa77fffef99c0f838f1c" target="_top" xlink:title="Reset the statement. ">
<polygon fill="none" stroke="black" points="448,-120.5 448,-150.5 552,-150.5 552,-120.5 448,-120.5"/>
<text text-anchor="start" x="456" y="-138.5" font-family="Helvetica,sans-Serif" font-size="10.00">sqlite::statement::</text>
<text text-anchor="middle" x="500" y="-127.5" font-family="Helvetica,sans-Serif" font-size="10.00">reset</text>
</a>
</g>
</g>
<!-- Node36&#45;&gt;Node42 -->
<g id="edge13" class="edge"><title>Node36&#45;&gt;Node42</title>
<path fill="none" stroke="midnightblue" d="M350.744,-175.471C377.746,-168.191 410.235,-159.432 437.909,-151.971"/>
<polygon fill="midnightblue" stroke="midnightblue" points="439.124,-155.268 447.868,-149.286 437.301,-148.51 439.124,-155.268"/>
</g>
<!-- Node36&#45;&gt;Node43 -->
<g id="edge14" class="edge"><title>Node36&#45;&gt;Node43</title>
<path fill="none" stroke="midnightblue" d="M361.349,-175.411C369.624,-171.523 377.461,-166.638 384,-160.5 414.81,-131.579 387.933,-100.021 420,-72.5 421.967,-70.8119 424.059,-69.2682 426.247,-67.857"/>
<polygon fill="midnightblue" stroke="midnightblue" points="427.99,-70.8933 435.107,-63.0446 424.649,-64.7421 427.99,-70.8933"/>
</g>
<!-- Node36&#45;&gt;Node44 -->
<g id="edge15" class="edge"><title>Node36&#45;&gt;Node44</title>
<path fill="none" stroke="midnightblue" d="M321.834,-175.355C341.308,-163.21 367.098,-144.58 384,-122.5 409.686,-88.9453 387.933,-62.0207 420,-34.5 421.967,-32.8119 424.059,-31.2682 426.247,-29.857"/>
<polygon fill="midnightblue" stroke="midnightblue" points="427.99,-32.8933 435.107,-25.0446 424.649,-26.7421 427.99,-32.8933"/>
</g>
<!-- Node45 -->
<g id="node16" class="node"><title>Node45</title>
<g id="a_node16"><a xlink:href="classsqlite_1_1statement.html#aa68ea5317f4837f045502038d0682533" target="_top" xlink:title="Set the query string. ">
<polygon fill="none" stroke="black" points="440.5,-82 440.5,-101 559.5,-101 559.5,-82 440.5,-82"/>
<text text-anchor="middle" x="500" y="-89" font-family="Helvetica,sans-Serif" font-size="10.00">sqlite::statement::set</text>
</a>
</g>
</g>
<!-- Node36&#45;&gt;Node45 -->
<g id="edge16" class="edge"><title>Node36&#45;&gt;Node45</title>
<path fill="none" stroke="midnightblue" d="M356.391,-175.46C366.149,-171.516 375.736,-166.601 384,-160.5 406.03,-144.236 397.268,-125.767 420,-110.5 423.491,-108.155 427.241,-106.099 431.141,-104.296"/>
<polygon fill="midnightblue" stroke="midnightblue" points="432.502,-107.521 440.464,-100.531 429.881,-101.03 432.502,-107.521"/>
</g>
<!-- Node46 -->
<g id="node17" class="node"><title>Node46</title>
<g id="a_node17"><a xlink:href="classsqlite_1_1statement.html#a0ef0c0c1fd66918b9a9c6167fd2e668f" target="_top" xlink:title="Step the statement. ">
<polygon fill="none" stroke="black" points="437.5,-371 437.5,-390 562.5,-390 562.5,-371 437.5,-371"/>
<text text-anchor="middle" x="500" y="-378" font-family="Helvetica,sans-Serif" font-size="10.00">sqlite::statement::step</text>
</a>
</g>
</g>
<!-- Node36&#45;&gt;Node46 -->
<g id="edge17" class="edge"><title>Node36&#45;&gt;Node46</title>
<path fill="none" stroke="midnightblue" d="M370.31,-204.96C375.332,-207.872 379.981,-211.349 384,-215.5 430.493,-263.51 372.607,-314.378 420,-361.5 422.527,-364.013 425.325,-366.215 428.316,-368.143"/>
<polygon fill="midnightblue" stroke="midnightblue" points="426.719,-371.258 437.189,-372.881 430.017,-365.083 426.719,-371.258"/>
</g>
</g>
</svg>
