<?xml version="1.0" encoding="UTF-8" standalone="no"?>
<!DOCTYPE svg PUBLIC "-//W3C//DTD SVG 1.1//EN"
 "http://www.w3.org/Graphics/SVG/1.1/DTD/svg11.dtd">
<!-- Generated by graphviz version 2.38.0 (20140413.2041)
 -->
<!-- Title: SystemTwo Pages: 1 -->
<svg width="561pt" height="380pt"
 viewBox="0.00 0.00 561.00 379.99" xmlns="http://www.w3.org/2000/svg" xmlns:xlink="http://www.w3.org/1999/xlink">
<g id="graph0" class="graph" transform="scale(1 1) rotate(0) translate(4 375.986)">
<title>SystemTwo</title>
<!-- Node2 -->
<g id="node1" class="node"><title>Node2</title>
<polygon fill="#bfbfbf" stroke="black" points="483,-212.486 483,-231.486 553,-231.486 553,-212.486 483,-212.486"/>
<text text-anchor="middle" x="518" y="-219.486" font-family="Helvetica,sans-Serif" font-size="10.00">SystemTwo</text>
</g>
<!-- Node3 -->
<g id="node2" class="node"><title>Node3</title>
<g id="a_node2"><a xlink:href="classSystemBase.html" target="_top" xlink:title="SystemBase\&lt; StateTwo \&gt;">
<polygon fill="none" stroke="black" points="303,-212.486 303,-231.486 446,-231.486 446,-212.486 303,-212.486"/>
<text text-anchor="middle" x="374.5" y="-219.486" font-family="Helvetica,sans-Serif" font-size="10.00">SystemBase&lt; StateTwo &gt;</text>
</a>
</g>
</g>
<!-- Node3&#45;&gt;Node2 -->
<g id="edge1" class="edge"><title>Node3&#45;&gt;Node2</title>
<path fill="none" stroke="midnightblue" d="M456.35,-221.986C465.601,-221.986 474.617,-221.986 482.747,-221.986"/>
<polygon fill="midnightblue" stroke="midnightblue" points="456.25,-218.486 446.25,-221.986 456.25,-225.486 456.25,-218.486"/>
</g>
<!-- Node4 -->
<g id="node3" class="node"><title>Node4</title>
<polygon fill="none" stroke="#bfbfbf" points="32.5,-336.486 32.5,-355.486 107.5,-355.486 107.5,-336.486 32.5,-336.486"/>
<text text-anchor="middle" x="70" y="-343.486" font-family="Helvetica,sans-Serif" font-size="10.00">set&lt; float &gt;</text>
</g>
<!-- Node4&#45;&gt;Node3 -->
<g id="edge2" class="edge"><title>Node4&#45;&gt;Node3</title>
<path fill="none" stroke="#9a32cd" stroke-dasharray="5,2" d="M117.885,-350.414C163.215,-352.592 232.55,-350.236 285,-322.986 326.17,-301.596 356.811,-252.43 368.414,-231.596"/>
<polygon fill="#9a32cd" stroke="#9a32cd" points="117.933,-346.911 107.749,-349.832 117.532,-353.9 117.933,-346.911"/>
<text text-anchor="middle" x="221.5" y="-363.986" font-family="Helvetica,sans-Serif" font-size="10.00"> range_j</text>
<text text-anchor="middle" x="221.5" y="-352.986" font-family="Helvetica,sans-Serif" font-size="10.00">range_m</text>
</g>
<!-- Node5 -->
<g id="node4" class="node"><title>Node5</title>
<g id="a_node4"><a xlink:href="classdouble.html" target="_top" xlink:title="double">
<polygon fill="none" stroke="black" points="45.5,-291.486 45.5,-310.486 94.5,-310.486 94.5,-291.486 45.5,-291.486"/>
<text text-anchor="middle" x="70" y="-298.486" font-family="Helvetica,sans-Serif" font-size="10.00">double</text>
</a>
</g>
</g>
<!-- Node5&#45;&gt;Node3 -->
<g id="edge3" class="edge"><title>Node5&#45;&gt;Node3</title>
<path fill="none" stroke="#9a32cd" stroke-dasharray="5,2" d="M105.016,-300.889C148.043,-299.829 223.894,-294.805 285,-273.986 314.351,-263.986 344.688,-243.557 361.111,-231.496"/>
<polygon fill="#9a32cd" stroke="#9a32cd" points="104.745,-297.394 94.8127,-301.081 104.877,-304.392 104.745,-297.394"/>
<text text-anchor="middle" x="221.5" y="-310.986" font-family="Helvetica,sans-Serif" font-size="10.00"> energy_max</text>
<text text-anchor="middle" x="221.5" y="-299.986" font-family="Helvetica,sans-Serif" font-size="10.00">energy_min</text>
</g>
<!-- Node6 -->
<g id="node5" class="node"><title>Node6</title>
<polygon fill="none" stroke="#bfbfbf" points="37,-248.486 37,-267.486 103,-267.486 103,-248.486 37,-248.486"/>
<text text-anchor="middle" x="70" y="-255.486" font-family="Helvetica,sans-Serif" font-size="10.00">set&lt; int &gt;</text>
</g>
<!-- Node6&#45;&gt;Node3 -->
<g id="edge4" class="edge"><title>Node6&#45;&gt;Node3</title>
<path fill="none" stroke="#9a32cd" stroke-dasharray="5,2" d="M113.437,-253.519C156.639,-248.902 225.531,-241.351 285,-233.986 291.309,-233.205 297.867,-232.366 304.433,-231.508"/>
<polygon fill="#9a32cd" stroke="#9a32cd" points="112.867,-250.059 103.294,-254.599 113.609,-257.02 112.867,-250.059"/>
<text text-anchor="middle" x="221.5" y="-261.986" font-family="Helvetica,sans-Serif" font-size="10.00"> range_l</text>
<text text-anchor="middle" x="221.5" y="-250.986" font-family="Helvetica,sans-Serif" font-size="10.00">range_n</text>
</g>
<!-- Node7 -->
<g id="node6" class="node"><title>Node7</title>
<g id="a_node6"><a xlink:href="structstates__set.html" target="_top" xlink:title="states_set\&lt; StateTwo \&gt;">
<polygon fill="none" stroke="black" points="4,-210.486 4,-229.486 136,-229.486 136,-210.486 4,-210.486"/>
<text text-anchor="middle" x="70" y="-217.486" font-family="Helvetica,sans-Serif" font-size="10.00">states_set&lt; StateTwo &gt;</text>
</a>
</g>
</g>
<!-- Node7&#45;&gt;Node3 -->
<g id="edge5" class="edge"><title>Node7&#45;&gt;Node3</title>
<path fill="none" stroke="#9a32cd" stroke-dasharray="5,2" d="M146.269,-220.484C194.175,-220.8 255.818,-221.208 302.81,-221.519"/>
<polygon fill="#9a32cd" stroke="#9a32cd" points="146.289,-216.984 136.266,-220.417 146.242,-223.984 146.289,-216.984"/>
<text text-anchor="middle" x="221.5" y="-223.986" font-family="Helvetica,sans-Serif" font-size="10.00"> states</text>
</g>
<!-- Node8 -->
<g id="node7" class="node"><title>Node8</title>
<g id="a_node7"><a xlink:href="classbool.html" target="_top" xlink:title="bool">
<polygon fill="none" stroke="black" points="51.5,-134.486 51.5,-153.486 88.5,-153.486 88.5,-134.486 51.5,-134.486"/>
<text text-anchor="middle" x="70" y="-141.486" font-family="Helvetica,sans-Serif" font-size="10.00">bool</text>
</a>
</g>
</g>
<!-- Node8&#45;&gt;Node3 -->
<g id="edge6" class="edge"><title>Node8&#45;&gt;Node3</title>
<path fill="none" stroke="#9a32cd" stroke-dasharray="5,2" d="M98.7666,-141.705C140.511,-139.258 221.329,-138.364 285,-160.986 316.827,-172.294 347.889,-198.105 363.358,-212.258"/>
<polygon fill="#9a32cd" stroke="#9a32cd" points="98.298,-138.229 88.5517,-142.383 98.7615,-145.213 98.298,-138.229"/>
<text text-anchor="start" x="158" y="-207.986" font-family="Helvetica,sans-Serif" font-size="10.00"> is_new_hamiltonianmatrix</text>
<text text-anchor="middle" x="221.5" y="-196.986" font-family="Helvetica,sans-Serif" font-size="10.00">_required</text>
<text text-anchor="middle" x="221.5" y="-185.986" font-family="Helvetica,sans-Serif" font-size="10.00">memory_saving</text>
<text text-anchor="start" x="158" y="-174.986" font-family="Helvetica,sans-Serif" font-size="10.00">is_interaction_already</text>
<text text-anchor="middle" x="221.5" y="-163.986" font-family="Helvetica,sans-Serif" font-size="10.00">_contained</text>
</g>
<!-- Node9 -->
<g id="node8" class="node"><title>Node9</title>
<polygon fill="none" stroke="#bfbfbf" points="0,-45.486 0,-64.486 140,-64.486 140,-45.486 0,-45.486"/>
<text text-anchor="middle" x="70" y="-52.486" font-family="Helvetica,sans-Serif" font-size="10.00">SparseMatrix&lt; scalar_t &gt;</text>
</g>
<!-- Node9&#45;&gt;Node3 -->
<g id="edge7" class="edge"><title>Node9&#45;&gt;Node3</title>
<path fill="none" stroke="#9a32cd" stroke-dasharray="5,2" d="M135.81,-44.4554C180.952,-40.5317 240.759,-42.4485 285,-69.986 339.441,-103.872 364.117,-184.447 371.228,-212.309"/>
<polygon fill="#9a32cd" stroke="#9a32cd" points="135.441,-40.9746 125.832,-45.4373 136.127,-47.941 135.441,-40.9746"/>
<text text-anchor="middle" x="221.5" y="-127.986" font-family="Helvetica,sans-Serif" font-size="10.00"> coefficients</text>
<text text-anchor="start" x="162" y="-116.986" font-family="Helvetica,sans-Serif" font-size="10.00">coefficients_unperturbed</text>
<text text-anchor="middle" x="221.5" y="-105.986" font-family="Helvetica,sans-Serif" font-size="10.00">_cache</text>
<text text-anchor="middle" x="221.5" y="-94.986" font-family="Helvetica,sans-Serif" font-size="10.00">hamiltonianmatrix</text>
<text text-anchor="start" x="162" y="-83.986" font-family="Helvetica,sans-Serif" font-size="10.00">hamiltonianmatrix</text>
<text text-anchor="middle" x="221.5" y="-72.986" font-family="Helvetica,sans-Serif" font-size="10.00">_unperturbed_cache</text>
</g>
<!-- Node10 -->
<g id="node9" class="node"><title>Node10</title>
<g id="a_node9"><a xlink:href="classMatrixElementCache.html" target="_top" xlink:title="MatrixElementCache">
<polygon fill="none" stroke="black" points="12,-7.48596 12,-26.486 128,-26.486 128,-7.48596 12,-7.48596"/>
<text text-anchor="middle" x="70" y="-14.486" font-family="Helvetica,sans-Serif" font-size="10.00">MatrixElementCache</text>
</a>
</g>
</g>
<!-- Node10&#45;&gt;Node3 -->
<g id="edge8" class="edge"><title>Node10&#45;&gt;Node3</title>
<path fill="none" stroke="#9a32cd" stroke-dasharray="5,2" d="M120.176,-5.68185C166.731,2.09568 236.527,5.87236 285,-26.986 351.163,-71.8362 368.615,-178.893 372.508,-212.034"/>
<polygon fill="#9a32cd" stroke="#9a32cd" points="119.548,-2.23856 110.321,-7.44562 120.781,-9.12908 119.548,-2.23856"/>
<text text-anchor="middle" x="221.5" y="-29.986" font-family="Helvetica,sans-Serif" font-size="10.00"> cache</text>
</g>
</g>
</svg>
