<?xml version="1.0" encoding="UTF-8" standalone="no"?>
<!DOCTYPE svg PUBLIC "-//W3C//DTD SVG 1.1//EN"
 "http://www.w3.org/Graphics/SVG/1.1/DTD/svg11.dtd">
<!-- Generated by graphviz version 2.38.0 (20140413.2041)
 -->
<!-- Title: sqlite::statement::exec Pages: 1 -->
<svg width="530pt" height="214pt"
 viewBox="0.00 0.00 530.00 213.50" xmlns="http://www.w3.org/2000/svg" xmlns:xlink="http://www.w3.org/1999/xlink">
<g id="graph0" class="graph" transform="scale(1 1) rotate(0) translate(4 209.5)">
<title>sqlite::statement::exec</title>
<!-- Node22 -->
<g id="node1" class="node"><title>Node22</title>
<polygon fill="#bfbfbf" stroke="black" points="0,-104 0,-123 127,-123 127,-104 0,-104"/>
<text text-anchor="middle" x="63.5" y="-111" font-family="Helvetica,sans-Serif" font-size="10.00">sqlite::statement::exec</text>
</g>
<!-- Node23 -->
<g id="node2" class="node"><title>Node23</title>
<g id="a_node2"><a xlink:href="sqlite__test_8cpp.html#a20fecf620cb330b84abd5166034e113a" target="_top" xlink:title="BOOST_AUTO_TEST_CASE">
<polygon fill="none" stroke="black" points="169,-186 169,-205 312,-205 312,-186 169,-186"/>
<text text-anchor="middle" x="240.5" y="-193" font-family="Helvetica,sans-Serif" font-size="10.00">BOOST_AUTO_TEST_CASE</text>
</a>
</g>
</g>
<!-- Node22&#45;&gt;Node23 -->
<g id="edge1" class="edge"><title>Node22&#45;&gt;Node23</title>
<path fill="none" stroke="midnightblue" d="M84.4968,-129.075C103.661,-143.305 133.893,-163.979 163,-176.5 171.8,-180.285 181.507,-183.421 190.967,-185.98"/>
<polygon fill="midnightblue" stroke="midnightblue" points="86.6029,-126.28 76.5146,-123.043 82.3826,-131.865 86.6029,-126.28"/>
</g>
<!-- Node24 -->
<g id="node3" class="node"><title>Node24</title>
<g id="a_node3"><a xlink:href="classMatrixElements.html#a8c96cdfdf45e83734ee613bc91526efb" target="_top" xlink:title="MatrixElements::getRadial">
<polygon fill="none" stroke="black" points="170,-148 170,-167 311,-167 311,-148 170,-148"/>
<text text-anchor="middle" x="240.5" y="-155" font-family="Helvetica,sans-Serif" font-size="10.00">MatrixElements::getRadial</text>
</a>
</g>
</g>
<!-- Node22&#45;&gt;Node24 -->
<g id="edge2" class="edge"><title>Node22&#45;&gt;Node24</title>
<path fill="none" stroke="midnightblue" d="M111.724,-125.538C127.971,-129.666 146.279,-134.302 163,-138.5 175.344,-141.599 188.815,-144.954 200.965,-147.97"/>
<polygon fill="midnightblue" stroke="midnightblue" points="112.461,-122.114 101.907,-123.042 110.736,-128.898 112.461,-122.114"/>
</g>
<!-- Node25 -->
<g id="node4" class="node"><title>Node25</title>
<g id="a_node4"><a xlink:href="classMatrixElementCache.html#ac42949eeee05d4a483c28604392b6441" target="_top" xlink:title="MatrixElementCache\l::MatrixElementCache">
<polygon fill="none" stroke="black" points="179.5,-98.5 179.5,-128.5 301.5,-128.5 301.5,-98.5 179.5,-98.5"/>
<text text-anchor="start" x="187.5" y="-116.5" font-family="Helvetica,sans-Serif" font-size="10.00">MatrixElementCache</text>
<text text-anchor="middle" x="240.5" y="-105.5" font-family="Helvetica,sans-Serif" font-size="10.00">::MatrixElementCache</text>
</a>
</g>
</g>
<!-- Node22&#45;&gt;Node25 -->
<g id="edge3" class="edge"><title>Node22&#45;&gt;Node25</title>
<path fill="none" stroke="midnightblue" d="M137.26,-113.5C151.252,-113.5 165.762,-113.5 179.303,-113.5"/>
<polygon fill="midnightblue" stroke="midnightblue" points="137.185,-110 127.185,-113.5 137.185,-117 137.185,-110"/>
</g>
<!-- Node26 -->
<g id="node5" class="node"><title>Node26</title>
<g id="a_node5"><a xlink:href="classMatrixElements.html#adebeaf2c43204d0ed2f5d36b3ef9846b" target="_top" xlink:title="MatrixElements::precalculate\lDiamagnetism">
<polygon fill="none" stroke="black" points="163,-49.5 163,-79.5 318,-79.5 318,-49.5 163,-49.5"/>
<text text-anchor="start" x="171" y="-67.5" font-family="Helvetica,sans-Serif" font-size="10.00">MatrixElements::precalculate</text>
<text text-anchor="middle" x="240.5" y="-56.5" font-family="Helvetica,sans-Serif" font-size="10.00">Diamagnetism</text>
</a>
</g>
</g>
<!-- Node22&#45;&gt;Node26 -->
<g id="edge4" class="edge"><title>Node22&#45;&gt;Node26</title>
<path fill="none" stroke="midnightblue" d="M108.348,-101.222C131.835,-94.6463 160.962,-86.4908 185.797,-79.537"/>
<polygon fill="midnightblue" stroke="midnightblue" points="107.343,-97.8692 98.6572,-103.936 109.231,-104.61 107.343,-97.8692"/>
</g>
<!-- Node27 -->
<g id="node6" class="node"><title>Node27</title>
<g id="a_node6"><a xlink:href="classMatrixElementCache.html#a41efbe3c4a7e3e5f2ed2c807a0b3178e" target="_top" xlink:title="MatrixElementCache\l::precalculateDiamagnetism">
<polygon fill="none" stroke="black" points="164.5,-0.5 164.5,-30.5 316.5,-30.5 316.5,-0.5 164.5,-0.5"/>
<text text-anchor="start" x="172.5" y="-18.5" font-family="Helvetica,sans-Serif" font-size="10.00">MatrixElementCache</text>
<text text-anchor="middle" x="240.5" y="-7.5" font-family="Helvetica,sans-Serif" font-size="10.00">::precalculateDiamagnetism</text>
</a>
</g>
</g>
<!-- Node22&#45;&gt;Node27 -->
<g id="edge5" class="edge"><title>Node22&#45;&gt;Node27</title>
<path fill="none" stroke="midnightblue" d="M82.4941,-97.3464C101.385,-81.0933 132.525,-56.243 163,-40.5 170.2,-36.7806 178.064,-33.4633 185.922,-30.5567"/>
<polygon fill="midnightblue" stroke="midnightblue" points="80.178,-94.7222 74.954,-103.94 84.7858,-99.9918 80.178,-94.7222"/>
</g>
<!-- Node28 -->
<g id="node7" class="node"><title>Node28</title>
<g id="a_node7"><a xlink:href="classSystemOne.html#abf6d26d44765fa787251956c128644a7" target="_top" xlink:title="Method that allows base class to calculate the interaction /////. ">
<polygon fill="none" stroke="black" points="354,-6 354,-25 522,-25 522,-6 354,-6"/>
<text text-anchor="middle" x="438" y="-13" font-family="Helvetica,sans-Serif" font-size="10.00">SystemOne::initializeInteraction</text>
</a>
</g>
</g>
<!-- Node27&#45;&gt;Node28 -->
<g id="edge6" class="edge"><title>Node27&#45;&gt;Node28</title>
<path fill="none" stroke="midnightblue" d="M326.603,-15.5C335.597,-15.5 344.736,-15.5 353.709,-15.5"/>
<polygon fill="midnightblue" stroke="midnightblue" points="326.526,-12.0001 316.526,-15.5 326.526,-19.0001 326.526,-12.0001"/>
</g>
</g>
</svg>
