<?xml version="1.0" encoding="UTF-8" standalone="no"?>
<!DOCTYPE svg PUBLIC "-//W3C//DTD SVG 1.1//EN"
 "http://www.w3.org/Graphics/SVG/1.1/DTD/svg11.dtd">
<!-- Generated by graphviz version 2.38.0 (20140413.2041)
 -->
<!-- Title: sqlite::statement::step Pages: 1 -->
<svg width="549pt" height="252pt"
 viewBox="0.00 0.00 549.00 252.00" xmlns="http://www.w3.org/2000/svg" xmlns:xlink="http://www.w3.org/1999/xlink">
<g id="graph0" class="graph" transform="scale(1 1) rotate(0) translate(4 248)">
<title>sqlite::statement::step</title>
<!-- Node66 -->
<g id="node1" class="node"><title>Node66</title>
<polygon fill="#bfbfbf" stroke="black" points="0,-117.5 0,-136.5 125,-136.5 125,-117.5 0,-117.5"/>
<text text-anchor="middle" x="62.5" y="-124.5" font-family="Helvetica,sans-Serif" font-size="10.00">sqlite::statement::step</text>
</g>
<!-- Node67 -->
<g id="node2" class="node"><title>Node67</title>
<g id="a_node2"><a xlink:href="quantum__defect__test_8cpp.html#aa6d045e9def139cd75c41b225e83676e" target="_top" xlink:title="BOOST_AUTO_TEST_CASE">
<polygon fill="none" stroke="black" points="177.5,-224.5 177.5,-243.5 320.5,-243.5 320.5,-224.5 177.5,-224.5"/>
<text text-anchor="middle" x="249" y="-231.5" font-family="Helvetica,sans-Serif" font-size="10.00">BOOST_AUTO_TEST_CASE</text>
</a>
</g>
</g>
<!-- Node66&#45;&gt;Node67 -->
<g id="edge1" class="edge"><title>Node66&#45;&gt;Node67</title>
<path fill="none" stroke="midnightblue" d="M77.791,-144.525C95.2585,-164.728 126.749,-197.402 161,-215 168.563,-218.886 176.892,-221.979 185.309,-224.441"/>
<polygon fill="midnightblue" stroke="midnightblue" points="80.3207,-142.096 71.1963,-136.711 74.9711,-146.611 80.3207,-142.096"/>
</g>
<!-- Node68 -->
<g id="node3" class="node"><title>Node68</title>
<g id="a_node3"><a xlink:href="classMatrixElements.html#a8c96cdfdf45e83734ee613bc91526efb" target="_top" xlink:title="MatrixElements::getRadial">
<polygon fill="none" stroke="black" points="178.5,-186.5 178.5,-205.5 319.5,-205.5 319.5,-186.5 178.5,-186.5"/>
<text text-anchor="middle" x="249" y="-193.5" font-family="Helvetica,sans-Serif" font-size="10.00">MatrixElements::getRadial</text>
</a>
</g>
</g>
<!-- Node66&#45;&gt;Node68 -->
<g id="edge2" class="edge"><title>Node66&#45;&gt;Node68</title>
<path fill="none" stroke="midnightblue" d="M87.8582,-141.742C107.115,-152.834 134.995,-167.671 161,-177 171.478,-180.759 182.943,-183.906 194.013,-186.489"/>
<polygon fill="midnightblue" stroke="midnightblue" points="89.5412,-138.672 79.1434,-136.638 86.0035,-144.712 89.5412,-138.672"/>
</g>
<!-- Node69 -->
<g id="node4" class="node"><title>Node69</title>
<g id="a_node4"><a xlink:href="classsqlite_1_1statement_1_1iterator.html#abe9e2121ba042bb0b0b22bafb7098ac5" target="_top" xlink:title="sqlite::statement::\literator::iterator">
<polygon fill="none" stroke="black" points="197,-137 197,-167 301,-167 301,-137 197,-137"/>
<text text-anchor="start" x="205" y="-155" font-family="Helvetica,sans-Serif" font-size="10.00">sqlite::statement::</text>
<text text-anchor="middle" x="249" y="-144" font-family="Helvetica,sans-Serif" font-size="10.00">iterator::iterator</text>
</a>
</g>
</g>
<!-- Node66&#45;&gt;Node69 -->
<g id="edge3" class="edge"><title>Node66&#45;&gt;Node69</title>
<path fill="none" stroke="midnightblue" d="M135.158,-136.71C155.732,-139.498 177.746,-142.481 196.818,-145.065"/>
<polygon fill="midnightblue" stroke="midnightblue" points="135.572,-133.234 125.192,-135.359 134.632,-140.171 135.572,-133.234"/>
</g>
<!-- Node70 -->
<g id="node5" class="node"><title>Node70</title>
<g id="a_node5"><a xlink:href="classMatrixElements.html#adebeaf2c43204d0ed2f5d36b3ef9846b" target="_top" xlink:title="MatrixElements::precalculate\lDiamagnetism">
<polygon fill="none" stroke="black" points="171.5,-88 171.5,-118 326.5,-118 326.5,-88 171.5,-88"/>
<text text-anchor="start" x="179.5" y="-106" font-family="Helvetica,sans-Serif" font-size="10.00">MatrixElements::precalculate</text>
<text text-anchor="middle" x="249" y="-95" font-family="Helvetica,sans-Serif" font-size="10.00">Diamagnetism</text>
</a>
</g>
</g>
<!-- Node66&#45;&gt;Node70 -->
<g id="edge4" class="edge"><title>Node66&#45;&gt;Node70</title>
<path fill="none" stroke="midnightblue" d="M135.393,-117.648C147.16,-116.117 159.392,-114.526 171.27,-112.981"/>
<polygon fill="midnightblue" stroke="midnightblue" points="134.657,-114.214 125.192,-118.975 135.56,-121.156 134.657,-114.214"/>
</g>
<!-- Node71 -->
<g id="node6" class="node"><title>Node71</title>
<g id="a_node6"><a xlink:href="classMatrixElementCache.html#a41efbe3c4a7e3e5f2ed2c807a0b3178e" target="_top" xlink:title="MatrixElementCache\l::precalculateDiamagnetism">
<polygon fill="none" stroke="black" points="173,-39 173,-69 325,-69 325,-39 173,-39"/>
<text text-anchor="start" x="181" y="-57" font-family="Helvetica,sans-Serif" font-size="10.00">MatrixElementCache</text>
<text text-anchor="middle" x="249" y="-46" font-family="Helvetica,sans-Serif" font-size="10.00">::precalculateDiamagnetism</text>
</a>
</g>
</g>
<!-- Node66&#45;&gt;Node71 -->
<g id="edge5" class="edge"><title>Node66&#45;&gt;Node71</title>
<path fill="none" stroke="midnightblue" d="M89.4992,-112.621C108.821,-102.328 136.044,-88.6405 161,-79 170.236,-75.4323 180.194,-72.1065 189.961,-69.1196"/>
<polygon fill="midnightblue" stroke="midnightblue" points="87.8342,-109.542 80.693,-117.369 91.1562,-115.704 87.8342,-109.542"/>
</g>
<!-- Node73 -->
<g id="node8" class="node"><title>Node73</title>
<g id="a_node8"><a xlink:href="classQuantumDefect.html#ae35ddcbfdf6d217950469549c60743d2" target="_top" xlink:title="QuantumDefect::QuantumDefect">
<polygon fill="none" stroke="black" points="161,-0.5 161,-19.5 337,-19.5 337,-0.5 161,-0.5"/>
<text text-anchor="middle" x="249" y="-7.5" font-family="Helvetica,sans-Serif" font-size="10.00">QuantumDefect::QuantumDefect</text>
</a>
</g>
</g>
<!-- Node66&#45;&gt;Node73 -->
<g id="edge7" class="edge"><title>Node66&#45;&gt;Node73</title>
<path fill="none" stroke="midnightblue" d="M76.412,-109.036C93.2941,-86.9265 124.99,-49.8782 161,-30 168.87,-25.6559 177.639,-22.2536 186.496,-19.5893"/>
<polygon fill="midnightblue" stroke="midnightblue" points="73.4688,-107.128 70.3051,-117.24 79.0839,-111.308 73.4688,-107.128"/>
</g>
<!-- Node72 -->
<g id="node7" class="node"><title>Node72</title>
<g id="a_node7"><a xlink:href="classSystemOne.html#abf6d26d44765fa787251956c128644a7" target="_top" xlink:title="Method that allows base class to calculate the interaction /////. ">
<polygon fill="none" stroke="black" points="373,-44.5 373,-63.5 541,-63.5 541,-44.5 373,-44.5"/>
<text text-anchor="middle" x="457" y="-51.5" font-family="Helvetica,sans-Serif" font-size="10.00">SystemOne::initializeInteraction</text>
</a>
</g>
</g>
<!-- Node71&#45;&gt;Node72 -->
<g id="edge6" class="edge"><title>Node71&#45;&gt;Node72</title>
<path fill="none" stroke="midnightblue" d="M335.542,-54C347.916,-54 360.636,-54 372.96,-54"/>
<polygon fill="midnightblue" stroke="midnightblue" points="335.245,-50.5001 325.245,-54 335.245,-57.5001 335.245,-50.5001"/>
</g>
</g>
</svg>
