<?xml version="1.0" encoding="UTF-8" standalone="no"?>
<!DOCTYPE svg PUBLIC "-//W3C//DTD SVG 1.1//EN"
 "http://www.w3.org/Graphics/SVG/1.1/DTD/svg11.dtd">
<!-- Generated by graphviz version 2.38.0 (20140413.2041)
 -->
<!-- Title: sqlite::statement::reset Pages: 1 -->
<svg width="528pt" height="165pt"
 viewBox="0.00 0.00 528.00 165.00" xmlns="http://www.w3.org/2000/svg" xmlns:xlink="http://www.w3.org/1999/xlink">
<g id="graph0" class="graph" transform="scale(1 1) rotate(0) translate(4 161)">
<title>sqlite::statement::reset</title>
<!-- Node50 -->
<g id="node1" class="node"><title>Node50</title>
<polygon fill="#bfbfbf" stroke="black" points="5.68434e-14,-63 5.68434e-14,-93 104,-93 104,-63 5.68434e-14,-63"/>
<text text-anchor="start" x="8" y="-81" font-family="Helvetica,sans-Serif" font-size="10.00">sqlite::statement::</text>
<text text-anchor="middle" x="52" y="-70" font-family="Helvetica,sans-Serif" font-size="10.00">reset</text>
</g>
<!-- Node51 -->
<g id="node2" class="node"><title>Node51</title>
<g id="a_node2"><a xlink:href="sqlite__test_8cpp.html#a20fecf620cb330b84abd5166034e113a" target="_top" xlink:title="BOOST_AUTO_TEST_CASE">
<polygon fill="none" stroke="black" points="156.5,-137.5 156.5,-156.5 299.5,-156.5 299.5,-137.5 156.5,-137.5"/>
<text text-anchor="middle" x="228" y="-144.5" font-family="Helvetica,sans-Serif" font-size="10.00">BOOST_AUTO_TEST_CASE</text>
</a>
</g>
</g>
<!-- Node50&#45;&gt;Node51 -->
<g id="edge1" class="edge"><title>Node50&#45;&gt;Node51</title>
<path fill="none" stroke="midnightblue" d="M83.4581,-98.5918C99.6533,-108.729 120.253,-120.379 140,-128 149.808,-131.785 160.544,-134.9 171.023,-137.434"/>
<polygon fill="midnightblue" stroke="midnightblue" points="85.258,-95.5883 74.9474,-93.1505 81.4873,-101.486 85.258,-95.5883"/>
</g>
<!-- Node52 -->
<g id="node3" class="node"><title>Node52</title>
<g id="a_node3"><a xlink:href="classMatrixElements.html#adebeaf2c43204d0ed2f5d36b3ef9846b" target="_top" xlink:title="MatrixElements::precalculate\lDiamagnetism">
<polygon fill="none" stroke="black" points="150.5,-88 150.5,-118 305.5,-118 305.5,-88 150.5,-88"/>
<text text-anchor="start" x="158.5" y="-106" font-family="Helvetica,sans-Serif" font-size="10.00">MatrixElements::precalculate</text>
<text text-anchor="middle" x="228" y="-95" font-family="Helvetica,sans-Serif" font-size="10.00">Diamagnetism</text>
</a>
</g>
</g>
<!-- Node50&#45;&gt;Node52 -->
<g id="edge2" class="edge"><title>Node50&#45;&gt;Node52</title>
<path fill="none" stroke="midnightblue" d="M114.297,-86.8071C125.938,-88.4796 138.253,-90.249 150.301,-91.9801"/>
<polygon fill="midnightblue" stroke="midnightblue" points="114.661,-83.3234 104.265,-85.3656 113.665,-90.2523 114.661,-83.3234"/>
</g>
<!-- Node53 -->
<g id="node4" class="node"><title>Node53</title>
<g id="a_node4"><a xlink:href="classMatrixElementCache.html#a41efbe3c4a7e3e5f2ed2c807a0b3178e" target="_top" xlink:title="MatrixElementCache\l::precalculateDiamagnetism">
<polygon fill="none" stroke="black" points="152,-39 152,-69 304,-69 304,-39 152,-39"/>
<text text-anchor="start" x="160" y="-57" font-family="Helvetica,sans-Serif" font-size="10.00">MatrixElementCache</text>
<text text-anchor="middle" x="228" y="-46" font-family="Helvetica,sans-Serif" font-size="10.00">::precalculateDiamagnetism</text>
</a>
</g>
</g>
<!-- Node50&#45;&gt;Node53 -->
<g id="edge3" class="edge"><title>Node50&#45;&gt;Node53</title>
<path fill="none" stroke="midnightblue" d="M114.287,-69.5466C126.454,-67.8685 139.357,-66.0887 151.922,-64.3556"/>
<polygon fill="midnightblue" stroke="midnightblue" points="113.693,-66.0954 104.265,-70.929 114.649,-73.0297 113.693,-66.0954"/>
</g>
<!-- Node55 -->
<g id="node6" class="node"><title>Node55</title>
<g id="a_node6"><a xlink:href="classQuantumDefect.html#ae35ddcbfdf6d217950469549c60743d2" target="_top" xlink:title="QuantumDefect::QuantumDefect">
<polygon fill="none" stroke="black" points="140,-0.5 140,-19.5 316,-19.5 316,-0.5 140,-0.5"/>
<text text-anchor="middle" x="228" y="-7.5" font-family="Helvetica,sans-Serif" font-size="10.00">QuantumDefect::QuantumDefect</text>
</a>
</g>
</g>
<!-- Node50&#45;&gt;Node55 -->
<g id="edge5" class="edge"><title>Node50&#45;&gt;Node55</title>
<path fill="none" stroke="midnightblue" d="M85.0654,-57.4964C101.061,-48.0089 121.007,-37.2589 140,-30 151.002,-25.795 163.14,-22.324 174.769,-19.5218"/>
<polygon fill="midnightblue" stroke="midnightblue" points="82.882,-54.7268 76.1411,-62.9007 86.508,-60.7145 82.882,-54.7268"/>
</g>
<!-- Node54 -->
<g id="node5" class="node"><title>Node54</title>
<g id="a_node5"><a xlink:href="classSystemOne.html#abf6d26d44765fa787251956c128644a7" target="_top" xlink:title="Method that allows base class to calculate the interaction /////. ">
<polygon fill="none" stroke="black" points="352,-44.5 352,-63.5 520,-63.5 520,-44.5 352,-44.5"/>
<text text-anchor="middle" x="436" y="-51.5" font-family="Helvetica,sans-Serif" font-size="10.00">SystemOne::initializeInteraction</text>
</a>
</g>
</g>
<!-- Node53&#45;&gt;Node54 -->
<g id="edge4" class="edge"><title>Node53&#45;&gt;Node54</title>
<path fill="none" stroke="midnightblue" d="M314.542,-54C326.916,-54 339.636,-54 351.96,-54"/>
<polygon fill="midnightblue" stroke="midnightblue" points="314.245,-50.5001 304.245,-54 314.245,-57.5001 314.245,-50.5001"/>
</g>
</g>
</svg>
