<?xml version="1.0" encoding="UTF-8" standalone="no"?>
<!DOCTYPE svg PUBLIC "-//W3C//DTD SVG 1.1//EN"
 "http://www.w3.org/Graphics/SVG/1.1/DTD/svg11.dtd">
<!-- Generated by graphviz version 2.38.0 (20140413.2041)
 -->
<!-- Title: MatrixElementCache::getMagneticDipole Pages: 1 -->
<svg width="328pt" height="127pt"
 viewBox="0.00 0.00 328.00 126.50" xmlns="http://www.w3.org/2000/svg" xmlns:xlink="http://www.w3.org/1999/xlink">
<g id="graph0" class="graph" transform="scale(1 1) rotate(0) translate(4 122.5)">
<title>MatrixElementCache::getMagneticDipole</title>
<!-- Node27 -->
<g id="node1" class="node"><title>Node27</title>
<polygon fill="#bfbfbf" stroke="black" points="0,-39 0,-69 116,-69 116,-39 0,-39"/>
<text text-anchor="start" x="8" y="-57" font-family="Helvetica,sans-Serif" font-size="10.00">MatrixElementCache</text>
<text text-anchor="middle" x="58" y="-46" font-family="Helvetica,sans-Serif" font-size="10.00">::getMagneticDipole</text>
</g>
<!-- Node28 -->
<g id="node2" class="node"><title>Node28</title>
<g id="a_node2"><a xlink:href="classPerturbativeInteraction.html#a6ed147d3eeaa7057c3c4e9b1dce6747a" target="_top" xlink:title="PerturbativeInteraction\l::getC6">
<polygon fill="none" stroke="black" points="173,-88 173,-118 299,-118 299,-88 173,-88"/>
<text text-anchor="start" x="181" y="-106" font-family="Helvetica,sans-Serif" font-size="10.00">PerturbativeInteraction</text>
<text text-anchor="middle" x="236" y="-95" font-family="Helvetica,sans-Serif" font-size="10.00">::getC6</text>
</a>
</g>
</g>
<!-- Node27&#45;&gt;Node28 -->
<g id="edge1" class="edge"><title>Node27&#45;&gt;Node28</title>
<path fill="none" stroke="midnightblue" d="M123.011,-71.8212C142.014,-77.1118 162.632,-82.8522 180.937,-87.9484"/>
<polygon fill="midnightblue" stroke="midnightblue" points="123.814,-68.4118 113.242,-69.1014 121.937,-75.1554 123.814,-68.4118"/>
</g>
<!-- Node29 -->
<g id="node3" class="node"><title>Node29</title>
<g id="a_node3"><a xlink:href="classPerturbativeInteraction.html#a48a7ab9f61bd9db04756746847a20899" target="_top" xlink:title="PerturbativeInteraction\l::getEnergies">
<polygon fill="none" stroke="black" points="173,-39 173,-69 299,-69 299,-39 173,-39"/>
<text text-anchor="start" x="181" y="-57" font-family="Helvetica,sans-Serif" font-size="10.00">PerturbativeInteraction</text>
<text text-anchor="middle" x="236" y="-46" font-family="Helvetica,sans-Serif" font-size="10.00">::getEnergies</text>
</a>
</g>
</g>
<!-- Node27&#45;&gt;Node29 -->
<g id="edge2" class="edge"><title>Node27&#45;&gt;Node29</title>
<path fill="none" stroke="midnightblue" d="M126.549,-54C141.817,-54 157.954,-54 172.981,-54"/>
<polygon fill="midnightblue" stroke="midnightblue" points="126.142,-50.5001 116.142,-54 126.142,-57.5001 126.142,-50.5001"/>
</g>
<!-- Node30 -->
<g id="node4" class="node"><title>Node30</title>
<g id="a_node4"><a xlink:href="classSystemOne.html#abf6d26d44765fa787251956c128644a7" target="_top" xlink:title="Method that allows base class to calculate the interaction /////. ">
<polygon fill="none" stroke="black" points="152,-0.5 152,-19.5 320,-19.5 320,-0.5 152,-0.5"/>
<text text-anchor="middle" x="236" y="-7.5" font-family="Helvetica,sans-Serif" font-size="10.00">SystemOne::initializeInteraction</text>
</a>
</g>
</g>
<!-- Node27&#45;&gt;Node30 -->
<g id="edge3" class="edge"><title>Node27&#45;&gt;Node30</title>
<path fill="none" stroke="midnightblue" d="M125.863,-36.6073C134.648,-34.3624 143.536,-32.1116 152,-30 165.95,-26.5195 181.245,-22.8052 194.862,-19.534"/>
<polygon fill="midnightblue" stroke="midnightblue" points="124.833,-33.2581 116.015,-39.1317 126.571,-40.0389 124.833,-33.2581"/>
</g>
</g>
</svg>
