<?xml version="1.0" encoding="UTF-8" standalone="no"?>
<!DOCTYPE svg PUBLIC "-//W3C//DTD SVG 1.1//EN"
 "http://www.w3.org/Graphics/SVG/1.1/DTD/svg11.dtd">
<!-- Generated by graphviz version 2.38.0 (20140413.2041)
 -->
<!-- Title: StateOne Pages: 1 -->
<svg width="224pt" height="184pt"
 viewBox="0.00 0.00 224.00 184.00" xmlns="http://www.w3.org/2000/svg" xmlns:xlink="http://www.w3.org/1999/xlink">
<g id="graph0" class="graph" transform="scale(1 1) rotate(0) translate(4 180)">
<title>StateOne</title>
<!-- Node2 -->
<g id="node1" class="node"><title>Node2</title>
<polygon fill="#bfbfbf" stroke="black" points="82,-0.5 82,-19.5 144,-19.5 144,-0.5 82,-0.5"/>
<text text-anchor="middle" x="113" y="-7.5" font-family="Helvetica,sans-Serif" font-size="10.00">StateOne</text>
</g>
<!-- Node3 -->
<g id="node2" class="node"><title>Node3</title>
<g id="a_node2"><a xlink:href="classState.html" target="_top" xlink:title="Base class for states ">
<polygon fill="none" stroke="black" points="6.5,-89.5 6.5,-108.5 49.5,-108.5 49.5,-89.5 6.5,-89.5"/>
<text text-anchor="middle" x="28" y="-96.5" font-family="Helvetica,sans-Serif" font-size="10.00">State</text>
</a>
</g>
</g>
<!-- Node3&#45;&gt;Node2 -->
<g id="edge1" class="edge"><title>Node3&#45;&gt;Node2</title>
<path fill="none" stroke="midnightblue" d="M43.8815,-81.7448C61.8574,-63.3459 90.4679,-34.0623 104.573,-19.6249"/>
<polygon fill="midnightblue" stroke="midnightblue" points="40.9458,-79.7413 36.4609,-89.34 45.9528,-84.6331 40.9458,-79.7413"/>
</g>
<!-- Node4 -->
<g id="node3" class="node"><title>Node4</title>
<polygon fill="none" stroke="#bfbfbf" points="0,-156.5 0,-175.5 56,-175.5 56,-156.5 0,-156.5"/>
<text text-anchor="middle" x="28" y="-163.5" font-family="Helvetica,sans-Serif" font-size="10.00">uint32_t</text>
</g>
<!-- Node4&#45;&gt;Node3 -->
<g id="edge2" class="edge"><title>Node4&#45;&gt;Node3</title>
<path fill="none" stroke="#9a32cd" stroke-dasharray="5,2" d="M28,-146.037C28,-133.67 28,-118.12 28,-108.627"/>
<polygon fill="#9a32cd" stroke="#9a32cd" points="24.5001,-146.234 28,-156.234 31.5001,-146.234 24.5001,-146.234"/>
<text text-anchor="middle" x="36.5" y="-130" font-family="Helvetica,sans-Serif" font-size="10.00"> idx</text>
</g>
<!-- Node5 -->
<g id="node4" class="node"><title>Node5</title>
<polygon fill="none" stroke="#bfbfbf" points="68,-89.5 68,-108.5 106,-108.5 106,-89.5 68,-89.5"/>
<text text-anchor="middle" x="87" y="-96.5" font-family="Helvetica,sans-Serif" font-size="10.00">float</text>
</g>
<!-- Node5&#45;&gt;Node2 -->
<g id="edge3" class="edge"><title>Node5&#45;&gt;Node2</title>
<path fill="none" stroke="#9a32cd" stroke-dasharray="5,2" d="M92.4646,-79.7146C97.9814,-61.2547 106.263,-33.542 110.422,-19.6249"/>
<polygon fill="#9a32cd" stroke="#9a32cd" points="89.098,-78.7565 89.588,-89.34 95.8049,-80.761 89.098,-78.7565"/>
<text text-anchor="middle" x="110" y="-63" font-family="Helvetica,sans-Serif" font-size="10.00"> j</text>
<text text-anchor="middle" x="110" y="-52" font-family="Helvetica,sans-Serif" font-size="10.00">m</text>
<text text-anchor="middle" x="110" y="-41" font-family="Helvetica,sans-Serif" font-size="10.00">s</text>
</g>
<!-- Node6 -->
<g id="node5" class="node"><title>Node6</title>
<g id="a_node5"><a xlink:href="classint.html" target="_top" xlink:title="int">
<polygon fill="none" stroke="black" points="124.5,-89.5 124.5,-108.5 153.5,-108.5 153.5,-89.5 124.5,-89.5"/>
<text text-anchor="middle" x="139" y="-96.5" font-family="Helvetica,sans-Serif" font-size="10.00">int</text>
</a>
</g>
</g>
<!-- Node6&#45;&gt;Node2 -->
<g id="edge4" class="edge"><title>Node6&#45;&gt;Node2</title>
<path fill="none" stroke="#9a32cd" stroke-dasharray="5,2" d="M133.535,-79.7146C128.019,-61.2547 119.737,-33.542 115.578,-19.6249"/>
<polygon fill="#9a32cd" stroke="#9a32cd" points="130.195,-80.761 136.412,-89.34 136.902,-78.7565 130.195,-80.761"/>
<text text-anchor="middle" x="134.5" y="-57.5" font-family="Helvetica,sans-Serif" font-size="10.00"> l</text>
<text text-anchor="middle" x="134.5" y="-46.5" font-family="Helvetica,sans-Serif" font-size="10.00">n</text>
</g>
<!-- Node7 -->
<g id="node6" class="node"><title>Node7</title>
<polygon fill="none" stroke="#bfbfbf" points="172,-89.5 172,-108.5 216,-108.5 216,-89.5 172,-89.5"/>
<text text-anchor="middle" x="194" y="-96.5" font-family="Helvetica,sans-Serif" font-size="10.00">string</text>
</g>
<!-- Node7&#45;&gt;Node2 -->
<g id="edge5" class="edge"><title>Node7&#45;&gt;Node2</title>
<path fill="none" stroke="#9a32cd" stroke-dasharray="5,2" d="M180.254,-81.1842C170.028,-68.9158 155.556,-52.0477 142,-38 135.79,-31.565 128.409,-24.7029 122.647,-19.507"/>
<polygon fill="#9a32cd" stroke="#9a32cd" points="177.807,-83.7185 186.875,-89.1985 183.204,-79.26 177.807,-83.7185"/>
<text text-anchor="middle" x="191" y="-57.5" font-family="Helvetica,sans-Serif" font-size="10.00"> species</text>
<text text-anchor="middle" x="191" y="-46.5" font-family="Helvetica,sans-Serif" font-size="10.00">element</text>
</g>
</g>
</svg>
