<?xml version="1.0" encoding="UTF-8" standalone="no"?>
<!DOCTYPE svg PUBLIC "-//W3C//DTD SVG 1.1//EN"
 "http://www.w3.org/Graphics/SVG/1.1/DTD/svg11.dtd">
<!-- Generated by graphviz version 2.38.0 (20140413.2041)
 -->
<!-- Title: SystemTwo::initializeInteraction Pages: 1 -->
<!--zoomable 242 -->
<svg id="main" version="1.1" xmlns="http://www.w3.org/2000/svg" xmlns:xlink="http://www.w3.org/1999/xlink" xml:space="preserve" onload="init(evt)">
<style type="text/css"><![CDATA[
.edge:hover path { stroke: red; }
.edge:hover polygon { stroke: red; fill: red; }
]]></style>
<script type="text/javascript"><![CDATA[
var edges = document.getElementsByTagName('g');
if (edges && edges.length) {
  for (var i=0;i<edges.length;i++) {
    if (edges[i].id.substr(0,4)=='edge') {
      edges[i].setAttribute('class','edge');
    }
  }
}
]]></script>
        <defs>
                <circle id="rim" cx="0" cy="0" r="7"/>
                <circle id="rim2" cx="0" cy="0" r="3.5"/>
                <g id="zoomPlus">
                        <use xlink:href="#rim" fill="#404040">
                                <set attributeName="fill" to="#808080" begin="zoomplus.mouseover" end="zoomplus.mouseout"/>
                        </use>
                        <path d="M-4,0h8M0,-4v8" fill="none" stroke="white" stroke-width="1.5" pointer-events="none"/>
                </g>
                <g id="zoomMin">
                        <use xlink:href="#rim" fill="#404040">
                                <set attributeName="fill" to="#808080" begin="zoomminus.mouseover" end="zoomminus.mouseout"/>
                        </use>
                        <path d="M-4,0h8" fill="none" stroke="white" stroke-width="1.5" pointer-events="none"/>
                </g>
                <g id="dirArrow">
                        <path fill="none" stroke="white" stroke-width="1.5" d="M0,-3.0v7 M-2.5,-0.5L0,-3.0L2.5,-0.5"/>
                </g>
               <g id="resetDef">
                       <use xlink:href="#rim2" fill="#404040">
                               <set attributeName="fill" to="#808080" begin="reset.mouseover" end="reset.mouseout"/>
                       </use>
               </g>
        </defs>

<script type="text/javascript">
var viewWidth = 535;
var viewHeight = 242;
var sectionId = 'dynsection-11';
</script>
<script xlink:href="svgpan.js"/>
<svg id="graph" class="graph">
<g id="viewport">
<title>SystemTwo::initializeInteraction</title>
<!-- Node45 -->
<g id="node1" class="node"><title>Node45</title>
<polygon fill="#bfbfbf" stroke="black" points="0,-107.5 0,-126.5 165,-126.5 165,-107.5 0,-107.5"/>
<text text-anchor="middle" x="82.5" y="-114.5" font-family="Helvetica,sans-Serif" font-size="10.00">SystemTwo::initializeInteraction</text>
</g>
<!-- Node46 -->
<g id="node2" class="node"><title>Node46</title>
<g id="a_node2"><a xlink:href="classMatrixElementCache.html#ac6191cd01c85dd9cf28a373b524f0b1b" target="_top" xlink:title="Get matrix elements ////////////////////////////////////////////. ">
<polygon fill="none" stroke="black" points="222.5,-203 222.5,-233 338.5,-233 338.5,-203 222.5,-203"/>
<text text-anchor="start" x="230.5" y="-221" font-family="Helvetica,sans-Serif" font-size="10.00">MatrixElementCache</text>
<text text-anchor="middle" x="280.5" y="-210" font-family="Helvetica,sans-Serif" font-size="10.00">::getElectricDipole</text>
</a>
</g>
</g>
<!-- Node45&#45;&gt;Node46 -->
<g id="edge1" class="edge"><title>Node45&#45;&gt;Node46</title>
<path fill="none" stroke="midnightblue" d="M97.5071,-126.596C119.077,-141.109 162.021,-168.965 201,-188 209.001,-191.907 217.649,-195.657 226.18,-199.102"/>
<polygon fill="midnightblue" stroke="midnightblue" points="225.135,-202.451 235.722,-202.853 227.697,-195.937 225.135,-202.451"/>
</g>
<!-- Node47 -->
<g id="node3" class="node"><title>Node47</title>
<g id="a_node3"><a xlink:href="classMatrixElementCache.html#a2407b99847793920a9d4ed0d8b156d8a" target="_top" xlink:title="MatrixElementCache\l::getElectricMultipole">
<polygon fill="none" stroke="black" points="403.5,-171 403.5,-201 519.5,-201 519.5,-171 403.5,-171"/>
<text text-anchor="start" x="411.5" y="-189" font-family="Helvetica,sans-Serif" font-size="10.00">MatrixElementCache</text>
<text text-anchor="middle" x="461.5" y="-178" font-family="Helvetica,sans-Serif" font-size="10.00">::getElectricMultipole</text>
</a>
</g>
</g>
<!-- Node45&#45;&gt;Node47 -->
<g id="edge3" class="edge"><title>Node45&#45;&gt;Node47</title>
<path fill="none" stroke="midnightblue" d="M108.325,-126.586C131.845,-135.293 168.33,-147.837 201,-155 265.402,-169.121 340.302,-177.199 393.032,-181.545"/>
<polygon fill="midnightblue" stroke="midnightblue" points="393.026,-185.055 403.273,-182.365 393.584,-178.078 393.026,-185.055"/>
</g>
<!-- Node48 -->
<g id="node4" class="node"><title>Node48</title>
<g id="a_node4"><a xlink:href="classSystemTwo.html#a021647b47068d8eedf99660723f6300c" target="_top" xlink:title="SystemTwo::getStatesFirst">
<polygon fill="none" stroke="black" points="209,-126.5 209,-145.5 352,-145.5 352,-126.5 209,-126.5"/>
<text text-anchor="middle" x="280.5" y="-133.5" font-family="Helvetica,sans-Serif" font-size="10.00">SystemTwo::getStatesFirst</text>
</a>
</g>
</g>
<!-- Node45&#45;&gt;Node48 -->
<g id="edge4" class="edge"><title>Node45&#45;&gt;Node48</title>
<path fill="none" stroke="midnightblue" d="M165.202,-124.92C176.3,-125.996 187.685,-127.1 198.766,-128.174"/>
<polygon fill="midnightblue" stroke="midnightblue" points="198.549,-131.669 208.84,-129.15 199.225,-124.702 198.549,-131.669"/>
</g>
<!-- Node50 -->
<g id="node6" class="node"><title>Node50</title>
<g id="a_node6"><a xlink:href="classSystemTwo.html#ad7078eefe9dfe834e703818f3ffb22ca" target="_top" xlink:title="SystemTwo::getStatesSecond">
<polygon fill="none" stroke="black" points="201,-88.5 201,-107.5 360,-107.5 360,-88.5 201,-88.5"/>
<text text-anchor="middle" x="280.5" y="-95.5" font-family="Helvetica,sans-Serif" font-size="10.00">SystemTwo::getStatesSecond</text>
</a>
</g>
</g>
<!-- Node45&#45;&gt;Node50 -->
<g id="edge6" class="edge"><title>Node45&#45;&gt;Node50</title>
<path fill="none" stroke="midnightblue" d="M165.202,-109.08C173.566,-108.269 182.093,-107.443 190.53,-106.625"/>
<polygon fill="midnightblue" stroke="midnightblue" points="191.143,-110.082 200.759,-105.633 190.468,-103.114 191.143,-110.082"/>
</g>
<!-- Node51 -->
<g id="node7" class="node"><title>Node51</title>
<g id="a_node7"><a xlink:href="classMatrixElementCache.html#afbc00d8b343bbea267e7cbbbc15cc203" target="_top" xlink:title="Precalculate matrix elements ///////////////////////////////////. ">
<polygon fill="none" stroke="black" points="218.5,-39 218.5,-69 342.5,-69 342.5,-39 218.5,-39"/>
<text text-anchor="start" x="226.5" y="-57" font-family="Helvetica,sans-Serif" font-size="10.00">MatrixElementCache</text>
<text text-anchor="middle" x="280.5" y="-46" font-family="Helvetica,sans-Serif" font-size="10.00">::precalculateMultipole</text>
</a>
</g>
</g>
<!-- Node45&#45;&gt;Node51 -->
<g id="edge8" class="edge"><title>Node45&#45;&gt;Node51</title>
<path fill="none" stroke="midnightblue" d="M112.944,-107.437C136.703,-99.7309 170.991,-88.6308 201,-79 207.929,-76.7764 215.204,-74.4492 222.414,-72.1475"/>
<polygon fill="midnightblue" stroke="midnightblue" points="223.703,-75.41 232.167,-69.0366 221.576,-68.741 223.703,-75.41"/>
</g>
<!-- Node52 -->
<g id="node8" class="node"><title>Node52</title>
<g id="a_node8"><a xlink:href="MatrixElementCache_8cpp.html#a06a268e07e2a0edb3fca096b8c941c78" target="_top" xlink:title="selectionRulesMultipoleNew">
<polygon fill="none" stroke="black" points="207,-0.5 207,-19.5 354,-19.5 354,-0.5 207,-0.5"/>
<text text-anchor="middle" x="280.5" y="-7.5" font-family="Helvetica,sans-Serif" font-size="10.00">selectionRulesMultipoleNew</text>
</a>
</g>
</g>
<!-- Node45&#45;&gt;Node52 -->
<g id="edge9" class="edge"><title>Node45&#45;&gt;Node52</title>
<path fill="none" stroke="midnightblue" d="M93.6054,-107.326C112.896,-89.3915 156.979,-50.908 201,-30 207.06,-27.1218 213.587,-24.6217 220.198,-22.4589"/>
<polygon fill="midnightblue" stroke="midnightblue" points="221.337,-25.7709 229.896,-19.5266 219.311,-19.0704 221.337,-25.7709"/>
</g>
<!-- Node46&#45;&gt;Node47 -->
<g id="edge2" class="edge"><title>Node46&#45;&gt;Node47</title>
<path fill="none" stroke="midnightblue" d="M338.629,-207.787C356.067,-204.67 375.401,-201.213 393.435,-197.989"/>
<polygon fill="midnightblue" stroke="midnightblue" points="394.072,-201.431 403.3,-196.226 392.84,-194.54 394.072,-201.431"/>
</g>
<!-- Node49 -->
<g id="node5" class="node"><title>Node49</title>
<g id="a_node5"><a xlink:href="classSystemBase.html#aae793919efd7c691ecc8f615cb039bb4" target="_top" xlink:title="SystemBase\&lt; StateTwo\l \&gt;::buildBasis">
<polygon fill="none" stroke="black" points="396,-109 396,-139 527,-139 527,-109 396,-109"/>
<text text-anchor="start" x="404" y="-127" font-family="Helvetica,sans-Serif" font-size="10.00">SystemBase&lt; StateTwo</text>
<text text-anchor="middle" x="461.5" y="-116" font-family="Helvetica,sans-Serif" font-size="10.00"> &gt;::buildBasis</text>
</a>
</g>
</g>
<!-- Node48&#45;&gt;Node49 -->
<g id="edge5" class="edge"><title>Node48&#45;&gt;Node49</title>
<path fill="none" stroke="midnightblue" d="M352.246,-131.257C363.244,-130.52 374.638,-129.756 385.722,-129.013"/>
<polygon fill="midnightblue" stroke="midnightblue" points="386.05,-132.499 395.794,-128.338 385.582,-125.515 386.05,-132.499"/>
</g>
<!-- Node50&#45;&gt;Node49 -->
<g id="edge7" class="edge"><title>Node50&#45;&gt;Node49</title>
<path fill="none" stroke="midnightblue" d="M347.137,-107.534C359.655,-109.352 372.845,-111.268 385.626,-113.124"/>
<polygon fill="midnightblue" stroke="midnightblue" points="385.369,-116.624 395.768,-114.598 386.375,-109.696 385.369,-116.624"/>
</g>
</g>
</svg>
        <g id="navigator" transform="translate(0 0)" fill="#404254">
                <rect fill="#f2f5e9" fill-opacity="0.5" stroke="#606060" stroke-width=".5" x="0" y="0" width="60" height="60"/>
                <use id="zoomplus" xlink:href="#zoomPlus" x="17" y="9" onmousedown="handleZoom(evt,'in')"/>
                <use id="zoomminus" xlink:href="#zoomMin" x="42" y="9" onmousedown="handleZoom(evt,'out')"/>
                <use id="reset" xlink:href="#resetDef" x="30" y="36" onmousedown="handleReset()"/>
                <g id="arrowUp" xlink:href="#dirArrow" transform="translate(30 24)" onmousedown="handlePan(0,-1)">
                  <use xlink:href="#rim" fill="#404040">
                        <set attributeName="fill" to="#808080" begin="arrowUp.mouseover" end="arrowUp.mouseout"/>
                  </use>
                  <path fill="none" stroke="white" stroke-width="1.5" d="M0,-3.0v7 M-2.5,-0.5L0,-3.0L2.5,-0.5"/>
                </g>
                <g id="arrowRight" xlink:href="#dirArrow" transform="rotate(90) translate(36 -43)" onmousedown="handlePan(1,0)">
                  <use xlink:href="#rim" fill="#404040">
                        <set attributeName="fill" to="#808080" begin="arrowRight.mouseover" end="arrowRight.mouseout"/>
                  </use>
                  <path fill="none" stroke="white" stroke-width="1.5" d="M0,-3.0v7 M-2.5,-0.5L0,-3.0L2.5,-0.5"/>
                </g>
                <g id="arrowDown" xlink:href="#dirArrow" transform="rotate(180) translate(-30 -48)" onmousedown="handlePan(0,1)">
                  <use xlink:href="#rim" fill="#404040">
                        <set attributeName="fill" to="#808080" begin="arrowDown.mouseover" end="arrowDown.mouseout"/>
                  </use>
                  <path fill="none" stroke="white" stroke-width="1.5" d="M0,-3.0v7 M-2.5,-0.5L0,-3.0L2.5,-0.5"/>
                </g>
                <g id="arrowLeft" xlink:href="#dirArrow" transform="rotate(270) translate(-36 17)" onmousedown="handlePan(-1,0)">
                  <use xlink:href="#rim" fill="#404040">
                        <set attributeName="fill" to="#808080" begin="arrowLeft.mouseover" end="arrowLeft.mouseout"/>
                  </use>
                  <path fill="none" stroke="white" stroke-width="1.5" d="M0,-3.0v7 M-2.5,-0.5L0,-3.0L2.5,-0.5"/>
                </g>
        </g>
        <svg viewBox="0 0 15 15" width="100%" height="30px" preserveAspectRatio="xMaxYMin meet">
         <g id="arrow_out" transform="scale(0.3 0.3)">
          <a xlink:href="classSystemTwo_a5cc89c42ab8066027b0c375b818c8333_cgraph_org.svg" target="_base">
           <rect id="button" ry="5" rx="5" y="6" x="6" height="38" width="38"
                fill="#f2f5e9" fill-opacity="0.5" stroke="#606060" stroke-width="1.0"/>
           <path id="arrow"
             d="M 11.500037,31.436501 C 11.940474,20.09759 22.043105,11.32322 32.158766,21.979434 L 37.068811,17.246167 C 37.068811,17.246167 37.088388,32 37.088388,32 L 22.160133,31.978069 C 22.160133,31.978069 26.997745,27.140456 26.997745,27.140456 C 18.528582,18.264221 13.291696,25.230495 11.500037,31.436501 z"
             style="fill:#404040;"/>
          </a>
         </g>
        </svg>
</svg>
