<?xml version="1.0" encoding="UTF-8" standalone="no"?>
<!DOCTYPE svg PUBLIC "-//W3C//DTD SVG 1.1//EN"
 "http://www.w3.org/Graphics/SVG/1.1/DTD/svg11.dtd">
<!-- Generated by graphviz version 2.38.0 (20140413.2041)
 -->
<!-- Title: PerturbativeInteraction::getC6 Pages: 1 -->
<!--zoomable 203 -->
<svg id="main" version="1.1" xmlns="http://www.w3.org/2000/svg" xmlns:xlink="http://www.w3.org/1999/xlink" xml:space="preserve" onload="init(evt)">
<style type="text/css"><![CDATA[
.edge:hover path { stroke: red; }
.edge:hover polygon { stroke: red; fill: red; }
]]></style>
<script type="text/javascript"><![CDATA[
var edges = document.getElementsByTagName('g');
if (edges && edges.length) {
  for (var i=0;i<edges.length;i++) {
    if (edges[i].id.substr(0,4)=='edge') {
      edges[i].setAttribute('class','edge');
    }
  }
}
]]></script>
        <defs>
                <circle id="rim" cx="0" cy="0" r="7"/>
                <circle id="rim2" cx="0" cy="0" r="3.5"/>
                <g id="zoomPlus">
                        <use xlink:href="#rim" fill="#404040">
                                <set attributeName="fill" to="#808080" begin="zoomplus.mouseover" end="zoomplus.mouseout"/>
                        </use>
                        <path d="M-4,0h8M0,-4v8" fill="none" stroke="white" stroke-width="1.5" pointer-events="none"/>
                </g>
                <g id="zoomMin">
                        <use xlink:href="#rim" fill="#404040">
                                <set attributeName="fill" to="#808080" begin="zoomminus.mouseover" end="zoomminus.mouseout"/>
                        </use>
                        <path d="M-4,0h8" fill="none" stroke="white" stroke-width="1.5" pointer-events="none"/>
                </g>
                <g id="dirArrow">
                        <path fill="none" stroke="white" stroke-width="1.5" d="M0,-3.0v7 M-2.5,-0.5L0,-3.0L2.5,-0.5"/>
                </g>
               <g id="resetDef">
                       <use xlink:href="#rim2" fill="#404040">
                               <set attributeName="fill" to="#808080" begin="reset.mouseover" end="reset.mouseout"/>
                       </use>
               </g>
        </defs>

<script type="text/javascript">
var viewWidth = 552;
var viewHeight = 203;
var sectionId = 'dynsection-1';
</script>
<script xlink:href="svgpan.js"/>
<svg id="graph" class="graph">
<g id="viewport">
<title>PerturbativeInteraction::getC6</title>
<!-- Node10 -->
<g id="node1" class="node"><title>Node10</title>
<polygon fill="#bfbfbf" stroke="black" points="0,-82.5 0,-112.5 126,-112.5 126,-82.5 0,-82.5"/>
<text text-anchor="start" x="8" y="-100.5" font-family="Helvetica,sans-Serif" font-size="10.00">PerturbativeInteraction</text>
<text text-anchor="middle" x="63" y="-89.5" font-family="Helvetica,sans-Serif" font-size="10.00">::getC6</text>
</g>
<!-- Node11 -->
<g id="node2" class="node"><title>Node11</title>
<g id="a_node2"><a xlink:href="classStateTwo.html#a3dc818a5bdaf6f9ee8d3bac945fd6d18" target="_top" xlink:title="StateTwo::first">
<polygon fill="none" stroke="black" points="331,-126 331,-145 414,-145 414,-126 331,-126"/>
<text text-anchor="middle" x="372.5" y="-133" font-family="Helvetica,sans-Serif" font-size="10.00">StateTwo::first</text>
</a>
</g>
</g>
<!-- Node10&#45;&gt;Node11 -->
<g id="edge1" class="edge"><title>Node10&#45;&gt;Node11</title>
<path fill="none" stroke="midnightblue" d="M126.052,-110.511C137.948,-112.727 150.332,-114.844 162,-116.5 215.948,-124.156 278.173,-129.342 320.703,-132.336"/>
<polygon fill="midnightblue" stroke="midnightblue" points="320.589,-135.836 330.806,-133.032 321.07,-128.853 320.589,-135.836"/>
</g>
<!-- Node12 -->
<g id="node3" class="node"><title>Node12</title>
<g id="a_node3"><a xlink:href="classMatrixElementCache.html#ac6191cd01c85dd9cf28a373b524f0b1b" target="_top" xlink:title="Get matrix elements ////////////////////////////////////////////. ">
<polygon fill="none" stroke="black" points="162,-164.5 162,-194.5 278,-194.5 278,-164.5 162,-164.5"/>
<text text-anchor="start" x="170" y="-182.5" font-family="Helvetica,sans-Serif" font-size="10.00">MatrixElementCache</text>
<text text-anchor="middle" x="220" y="-171.5" font-family="Helvetica,sans-Serif" font-size="10.00">::getElectricDipole</text>
</a>
</g>
</g>
<!-- Node10&#45;&gt;Node12 -->
<g id="edge2" class="edge"><title>Node10&#45;&gt;Node12</title>
<path fill="none" stroke="midnightblue" d="M92.2908,-112.544C111.858,-122.941 138.5,-137.081 162,-149.5 168.178,-152.765 174.736,-156.223 181.12,-159.586"/>
<polygon fill="midnightblue" stroke="midnightblue" points="179.806,-162.849 190.285,-164.411 183.067,-156.655 179.806,-162.849"/>
</g>
<!-- Node14 -->
<g id="node5" class="node"><title>Node14</title>
<g id="a_node5"><a xlink:href="classStateTwo.html#a3f9e530a17bed5048f16653dcd9c7991" target="_top" xlink:title="StateTwo::getEnergy">
<polygon fill="none" stroke="black" points="163,-88 163,-107 277,-107 277,-88 163,-88"/>
<text text-anchor="middle" x="220" y="-95" font-family="Helvetica,sans-Serif" font-size="10.00">StateTwo::getEnergy</text>
</a>
</g>
</g>
<!-- Node10&#45;&gt;Node14 -->
<g id="edge4" class="edge"><title>Node10&#45;&gt;Node14</title>
<path fill="none" stroke="midnightblue" d="M126.151,-97.5C134.868,-97.5 143.855,-97.5 152.647,-97.5"/>
<polygon fill="midnightblue" stroke="midnightblue" points="152.85,-101 162.85,-97.5 152.85,-94.0001 152.85,-101"/>
</g>
<!-- Node17 -->
<g id="node8" class="node"><title>Node17</title>
<g id="a_node8"><a xlink:href="classStateTwo.html#a9bc7edda2944afa1f2c7ca87441e81b0" target="_top" xlink:title="StateTwo::second">
<polygon fill="none" stroke="black" points="322.5,-50 322.5,-69 422.5,-69 422.5,-50 322.5,-50"/>
<text text-anchor="middle" x="372.5" y="-57" font-family="Helvetica,sans-Serif" font-size="10.00">StateTwo::second</text>
</a>
</g>
</g>
<!-- Node10&#45;&gt;Node17 -->
<g id="edge10" class="edge"><title>Node10&#45;&gt;Node17</title>
<path fill="none" stroke="midnightblue" d="M126.052,-84.4886C137.948,-82.2726 150.332,-80.1559 162,-78.5 212.44,-71.3418 270.117,-66.3431 312.165,-63.2759"/>
<polygon fill="midnightblue" stroke="midnightblue" points="312.51,-66.7603 322.235,-62.5565 312.011,-59.7781 312.51,-66.7603"/>
</g>
<!-- Node18 -->
<g id="node9" class="node"><title>Node18</title>
<g id="a_node9"><a xlink:href="classMatrixElementCache.html#aeef0496ad6db911dac50c0625660d9c0" target="_top" xlink:title="MatrixElementCache\l::getMagneticDipole">
<polygon fill="none" stroke="black" points="162,-0.5 162,-30.5 278,-30.5 278,-0.5 162,-0.5"/>
<text text-anchor="start" x="170" y="-18.5" font-family="Helvetica,sans-Serif" font-size="10.00">MatrixElementCache</text>
<text text-anchor="middle" x="220" y="-7.5" font-family="Helvetica,sans-Serif" font-size="10.00">::getMagneticDipole</text>
</a>
</g>
</g>
<!-- Node10&#45;&gt;Node18 -->
<g id="edge9" class="edge"><title>Node10&#45;&gt;Node18</title>
<path fill="none" stroke="midnightblue" d="M92.2908,-82.4564C111.858,-72.0593 138.5,-57.9189 162,-45.5 168.178,-42.2352 174.736,-38.7769 181.12,-35.4141"/>
<polygon fill="midnightblue" stroke="midnightblue" points="183.067,-38.3446 190.285,-30.5891 179.806,-32.1505 183.067,-38.3446"/>
</g>
<!-- Node13 -->
<g id="node4" class="node"><title>Node13</title>
<g id="a_node4"><a xlink:href="classMatrixElementCache.html#a2407b99847793920a9d4ed0d8b156d8a" target="_top" xlink:title="MatrixElementCache\l::getElectricMultipole">
<polygon fill="none" stroke="black" points="314.5,-164.5 314.5,-194.5 430.5,-194.5 430.5,-164.5 314.5,-164.5"/>
<text text-anchor="start" x="322.5" y="-182.5" font-family="Helvetica,sans-Serif" font-size="10.00">MatrixElementCache</text>
<text text-anchor="middle" x="372.5" y="-171.5" font-family="Helvetica,sans-Serif" font-size="10.00">::getElectricMultipole</text>
</a>
</g>
</g>
<!-- Node12&#45;&gt;Node13 -->
<g id="edge3" class="edge"><title>Node12&#45;&gt;Node13</title>
<path fill="none" stroke="midnightblue" d="M278.327,-179.5C286.805,-179.5 295.606,-179.5 304.263,-179.5"/>
<polygon fill="midnightblue" stroke="midnightblue" points="304.332,-183 314.332,-179.5 304.332,-176 304.332,-183"/>
</g>
<!-- Node14&#45;&gt;Node11 -->
<g id="edge5" class="edge"><title>Node14&#45;&gt;Node11</title>
<path fill="none" stroke="midnightblue" d="M258.978,-107.089C278.659,-112.058 302.891,-118.177 323.821,-123.461"/>
<polygon fill="midnightblue" stroke="midnightblue" points="323.243,-126.925 333.796,-125.98 324.957,-120.138 323.243,-126.925"/>
</g>
<!-- Node15 -->
<g id="node6" class="node"><title>Node15</title>
<g id="a_node6"><a xlink:href="classStateOne.html#a6262da11406dbaa811f361cab2cf71b6" target="_top" xlink:title="StateOne::getEnergy">
<polygon fill="none" stroke="black" points="314,-88 314,-107 431,-107 431,-88 314,-88"/>
<text text-anchor="middle" x="372.5" y="-95" font-family="Helvetica,sans-Serif" font-size="10.00">StateOne::getEnergy</text>
</a>
</g>
</g>
<!-- Node14&#45;&gt;Node15 -->
<g id="edge6" class="edge"><title>Node14&#45;&gt;Node15</title>
<path fill="none" stroke="midnightblue" d="M277.041,-97.5C285.784,-97.5 294.899,-97.5 303.868,-97.5"/>
<polygon fill="midnightblue" stroke="midnightblue" points="303.904,-101 313.904,-97.5 303.904,-94.0001 303.904,-101"/>
</g>
<!-- Node14&#45;&gt;Node17 -->
<g id="edge8" class="edge"><title>Node14&#45;&gt;Node17</title>
<path fill="none" stroke="midnightblue" d="M258.978,-87.911C278.659,-82.9417 302.891,-76.8233 323.821,-71.5387"/>
<polygon fill="midnightblue" stroke="midnightblue" points="324.957,-74.8617 333.796,-69.0201 323.243,-68.0747 324.957,-74.8617"/>
</g>
<!-- Node16 -->
<g id="node7" class="node"><title>Node16</title>
<g id="a_node7"><a xlink:href="QuantumDefect_8cpp.html#a854f2230d8c234ac6c9aa6f07c3ac266" target="_top" xlink:title="Returns only the energy of a state. ">
<polygon fill="none" stroke="black" points="467,-88 467,-107 544,-107 544,-88 467,-88"/>
<text text-anchor="middle" x="505.5" y="-95" font-family="Helvetica,sans-Serif" font-size="10.00">energy_level</text>
</a>
</g>
</g>
<!-- Node15&#45;&gt;Node16 -->
<g id="edge7" class="edge"><title>Node15&#45;&gt;Node16</title>
<path fill="none" stroke="midnightblue" d="M431.34,-97.5C439.822,-97.5 448.478,-97.5 456.727,-97.5"/>
<polygon fill="midnightblue" stroke="midnightblue" points="456.917,-101 466.917,-97.5 456.917,-94.0001 456.917,-101"/>
</g>
</g>
</svg>
        <g id="navigator" transform="translate(0 0)" fill="#404254">
                <rect fill="#f2f5e9" fill-opacity="0.5" stroke="#606060" stroke-width=".5" x="0" y="0" width="60" height="60"/>
                <use id="zoomplus" xlink:href="#zoomPlus" x="17" y="9" onmousedown="handleZoom(evt,'in')"/>
                <use id="zoomminus" xlink:href="#zoomMin" x="42" y="9" onmousedown="handleZoom(evt,'out')"/>
                <use id="reset" xlink:href="#resetDef" x="30" y="36" onmousedown="handleReset()"/>
                <g id="arrowUp" xlink:href="#dirArrow" transform="translate(30 24)" onmousedown="handlePan(0,-1)">
                  <use xlink:href="#rim" fill="#404040">
                        <set attributeName="fill" to="#808080" begin="arrowUp.mouseover" end="arrowUp.mouseout"/>
                  </use>
                  <path fill="none" stroke="white" stroke-width="1.5" d="M0,-3.0v7 M-2.5,-0.5L0,-3.0L2.5,-0.5"/>
                </g>
                <g id="arrowRight" xlink:href="#dirArrow" transform="rotate(90) translate(36 -43)" onmousedown="handlePan(1,0)">
                  <use xlink:href="#rim" fill="#404040">
                        <set attributeName="fill" to="#808080" begin="arrowRight.mouseover" end="arrowRight.mouseout"/>
                  </use>
                  <path fill="none" stroke="white" stroke-width="1.5" d="M0,-3.0v7 M-2.5,-0.5L0,-3.0L2.5,-0.5"/>
                </g>
                <g id="arrowDown" xlink:href="#dirArrow" transform="rotate(180) translate(-30 -48)" onmousedown="handlePan(0,1)">
                  <use xlink:href="#rim" fill="#404040">
                        <set attributeName="fill" to="#808080" begin="arrowDown.mouseover" end="arrowDown.mouseout"/>
                  </use>
                  <path fill="none" stroke="white" stroke-width="1.5" d="M0,-3.0v7 M-2.5,-0.5L0,-3.0L2.5,-0.5"/>
                </g>
                <g id="arrowLeft" xlink:href="#dirArrow" transform="rotate(270) translate(-36 17)" onmousedown="handlePan(-1,0)">
                  <use xlink:href="#rim" fill="#404040">
                        <set attributeName="fill" to="#808080" begin="arrowLeft.mouseover" end="arrowLeft.mouseout"/>
                  </use>
                  <path fill="none" stroke="white" stroke-width="1.5" d="M0,-3.0v7 M-2.5,-0.5L0,-3.0L2.5,-0.5"/>
                </g>
        </g>
        <svg viewBox="0 0 15 15" width="100%" height="30px" preserveAspectRatio="xMaxYMin meet">
         <g id="arrow_out" transform="scale(0.3 0.3)">
          <a xlink:href="classPerturbativeInteraction_a6ed147d3eeaa7057c3c4e9b1dce6747a_cgraph_org.svg" target="_base">
           <rect id="button" ry="5" rx="5" y="6" x="6" height="38" width="38"
                fill="#f2f5e9" fill-opacity="0.5" stroke="#606060" stroke-width="1.0"/>
           <path id="arrow"
             d="M 11.500037,31.436501 C 11.940474,20.09759 22.043105,11.32322 32.158766,21.979434 L 37.068811,17.246167 C 37.068811,17.246167 37.088388,32 37.088388,32 L 22.160133,31.978069 C 22.160133,31.978069 26.997745,27.140456 26.997745,27.140456 C 18.528582,18.264221 13.291696,25.230495 11.500037,31.436501 z"
             style="fill:#404040;"/>
          </a>
         </g>
        </svg>
</svg>
