<?xml version="1.0" encoding="UTF-8" standalone="no"?>
<!DOCTYPE svg PUBLIC "-//W3C//DTD SVG 1.1//EN"
 "http://www.w3.org/Graphics/SVG/1.1/DTD/svg11.dtd">
<!-- Generated by graphviz version 2.38.0 (20140413.2041)
 -->
<!-- Title: SystemOne Pages: 1 -->
<svg width="567pt" height="379pt"
 viewBox="0.00 0.00 567.00 379.18" xmlns="http://www.w3.org/2000/svg" xmlns:xlink="http://www.w3.org/1999/xlink">
<g id="graph0" class="graph" transform="scale(1 1) rotate(0) translate(4 375.178)">
<title>SystemOne</title>
<!-- Node2 -->
<g id="node1" class="node"><title>Node2</title>
<polygon fill="#bfbfbf" stroke="black" points="486,-211.678 486,-230.678 559,-230.678 559,-211.678 486,-211.678"/>
<text text-anchor="middle" x="522.5" y="-218.678" font-family="Helvetica,sans-Serif" font-size="10.00">SystemOne</text>
</g>
<!-- Node3 -->
<g id="node2" class="node"><title>Node3</title>
<g id="a_node2"><a xlink:href="classSystemBase.html" target="_top" xlink:title="SystemBase\&lt; StateOne \&gt;">
<polygon fill="none" stroke="black" points="303,-211.678 303,-230.678 449,-230.678 449,-211.678 303,-211.678"/>
<text text-anchor="middle" x="376" y="-218.678" font-family="Helvetica,sans-Serif" font-size="10.00">SystemBase&lt; StateOne &gt;</text>
</a>
</g>
</g>
<!-- Node3&#45;&gt;Node2 -->
<g id="edge1" class="edge"><title>Node3&#45;&gt;Node2</title>
<path fill="none" stroke="midnightblue" d="M459.341,-221.178C468.586,-221.178 477.607,-221.178 485.781,-221.178"/>
<polygon fill="midnightblue" stroke="midnightblue" points="459.25,-217.678 449.25,-221.178 459.25,-224.678 459.25,-217.678"/>
</g>
<!-- Node4 -->
<g id="node3" class="node"><title>Node4</title>
<polygon fill="none" stroke="#bfbfbf" points="32.5,-335.678 32.5,-354.678 107.5,-354.678 107.5,-335.678 32.5,-335.678"/>
<text text-anchor="middle" x="70" y="-342.678" font-family="Helvetica,sans-Serif" font-size="10.00">set&lt; float &gt;</text>
</g>
<!-- Node4&#45;&gt;Node3 -->
<g id="edge2" class="edge"><title>Node4&#45;&gt;Node3</title>
<path fill="none" stroke="#9a32cd" stroke-dasharray="5,2" d="M117.836,-349.511C163.128,-351.617 232.437,-349.21 285,-322.178 326.564,-300.804 357.893,-251.629 369.783,-230.791"/>
<polygon fill="#9a32cd" stroke="#9a32cd" points="117.887,-346.008 107.708,-348.946 117.497,-352.997 117.887,-346.008"/>
<text text-anchor="middle" x="221.5" y="-363.178" font-family="Helvetica,sans-Serif" font-size="10.00"> range_j</text>
<text text-anchor="middle" x="221.5" y="-352.178" font-family="Helvetica,sans-Serif" font-size="10.00">range_m</text>
</g>
<!-- Node5 -->
<g id="node4" class="node"><title>Node5</title>
<g id="a_node4"><a xlink:href="classdouble.html" target="_top" xlink:title="double">
<polygon fill="none" stroke="black" points="45.5,-290.678 45.5,-309.678 94.5,-309.678 94.5,-290.678 45.5,-290.678"/>
<text text-anchor="middle" x="70" y="-297.678" font-family="Helvetica,sans-Serif" font-size="10.00">double</text>
</a>
</g>
</g>
<!-- Node5&#45;&gt;Node3 -->
<g id="edge3" class="edge"><title>Node5&#45;&gt;Node3</title>
<path fill="none" stroke="#9a32cd" stroke-dasharray="5,2" d="M104.991,-300.01C147.994,-298.875 223.818,-293.774 285,-273.178 314.758,-263.161 345.642,-242.738 362.373,-230.683"/>
<polygon fill="#9a32cd" stroke="#9a32cd" points="104.721,-296.515 94.7948,-300.22 104.865,-303.513 104.721,-296.515"/>
<text text-anchor="middle" x="221.5" y="-310.178" font-family="Helvetica,sans-Serif" font-size="10.00"> energy_max</text>
<text text-anchor="middle" x="221.5" y="-299.178" font-family="Helvetica,sans-Serif" font-size="10.00">energy_min</text>
</g>
<!-- Node6 -->
<g id="node5" class="node"><title>Node6</title>
<polygon fill="none" stroke="#bfbfbf" points="37,-247.678 37,-266.678 103,-266.678 103,-247.678 37,-247.678"/>
<text text-anchor="middle" x="70" y="-254.678" font-family="Helvetica,sans-Serif" font-size="10.00">set&lt; int &gt;</text>
</g>
<!-- Node6&#45;&gt;Node3 -->
<g id="edge4" class="edge"><title>Node6&#45;&gt;Node3</title>
<path fill="none" stroke="#9a32cd" stroke-dasharray="5,2" d="M113.434,-252.683C156.633,-248.045 225.523,-240.478 285,-233.178 291.415,-232.391 298.083,-231.548 304.76,-230.688"/>
<polygon fill="#9a32cd" stroke="#9a32cd" points="112.862,-249.224 103.291,-253.769 113.607,-256.185 112.862,-249.224"/>
<text text-anchor="middle" x="221.5" y="-261.178" font-family="Helvetica,sans-Serif" font-size="10.00"> range_l</text>
<text text-anchor="middle" x="221.5" y="-250.178" font-family="Helvetica,sans-Serif" font-size="10.00">range_n</text>
</g>
<!-- Node7 -->
<g id="node6" class="node"><title>Node7</title>
<g id="a_node6"><a xlink:href="structstates__set.html" target="_top" xlink:title="states_set\&lt; StateOne \&gt;">
<polygon fill="none" stroke="black" points="2.5,-209.678 2.5,-228.678 137.5,-228.678 137.5,-209.678 2.5,-209.678"/>
<text text-anchor="middle" x="70" y="-216.678" font-family="Helvetica,sans-Serif" font-size="10.00">states_set&lt; StateOne &gt;</text>
</a>
</g>
</g>
<!-- Node7&#45;&gt;Node3 -->
<g id="edge5" class="edge"><title>Node7&#45;&gt;Node3</title>
<path fill="none" stroke="#9a32cd" stroke-dasharray="5,2" d="M147.965,-219.685C195.544,-219.998 256.216,-220.397 302.868,-220.704"/>
<polygon fill="#9a32cd" stroke="#9a32cd" points="147.737,-216.183 137.714,-219.617 147.691,-223.183 147.737,-216.183"/>
<text text-anchor="middle" x="221.5" y="-223.178" font-family="Helvetica,sans-Serif" font-size="10.00"> states</text>
</g>
<!-- Node8 -->
<g id="node7" class="node"><title>Node8</title>
<g id="a_node7"><a xlink:href="classbool.html" target="_top" xlink:title="bool">
<polygon fill="none" stroke="black" points="51.5,-133.678 51.5,-152.678 88.5,-152.678 88.5,-133.678 51.5,-133.678"/>
<text text-anchor="middle" x="70" y="-140.678" font-family="Helvetica,sans-Serif" font-size="10.00">bool</text>
</a>
</g>
</g>
<!-- Node8&#45;&gt;Node3 -->
<g id="edge6" class="edge"><title>Node8&#45;&gt;Node3</title>
<path fill="none" stroke="#9a32cd" stroke-dasharray="5,2" d="M98.7441,-140.961C140.46,-138.596 221.241,-137.806 285,-160.178 317.238,-171.49 348.88,-197.3 364.653,-211.452"/>
<polygon fill="#9a32cd" stroke="#9a32cd" points="98.2914,-137.483 88.5367,-141.618 98.7407,-144.469 98.2914,-137.483"/>
<text text-anchor="start" x="158" y="-207.178" font-family="Helvetica,sans-Serif" font-size="10.00"> is_new_hamiltonianmatrix</text>
<text text-anchor="middle" x="221.5" y="-196.178" font-family="Helvetica,sans-Serif" font-size="10.00">_required</text>
<text text-anchor="middle" x="221.5" y="-185.178" font-family="Helvetica,sans-Serif" font-size="10.00">memory_saving</text>
<text text-anchor="start" x="158" y="-174.178" font-family="Helvetica,sans-Serif" font-size="10.00">is_interaction_already</text>
<text text-anchor="middle" x="221.5" y="-163.178" font-family="Helvetica,sans-Serif" font-size="10.00">_contained</text>
</g>
<!-- Node9 -->
<g id="node8" class="node"><title>Node9</title>
<polygon fill="none" stroke="#bfbfbf" points="0,-44.6784 0,-63.6784 140,-63.6784 140,-44.6784 0,-44.6784"/>
<text text-anchor="middle" x="70" y="-51.6784" font-family="Helvetica,sans-Serif" font-size="10.00">SparseMatrix&lt; scalar_t &gt;</text>
</g>
<!-- Node9&#45;&gt;Node3 -->
<g id="edge7" class="edge"><title>Node9&#45;&gt;Node3</title>
<path fill="none" stroke="#9a32cd" stroke-dasharray="5,2" d="M136.198,-43.7096C181.258,-39.8846 240.806,-41.8944 285,-69.1784 339.8,-103.01 365.256,-183.619 372.635,-211.496"/>
<polygon fill="#9a32cd" stroke="#9a32cd" points="135.854,-40.2264 126.236,-44.6691 136.525,-47.1942 135.854,-40.2264"/>
<text text-anchor="middle" x="221.5" y="-127.178" font-family="Helvetica,sans-Serif" font-size="10.00"> coefficients</text>
<text text-anchor="start" x="162" y="-116.178" font-family="Helvetica,sans-Serif" font-size="10.00">coefficients_unperturbed</text>
<text text-anchor="middle" x="221.5" y="-105.178" font-family="Helvetica,sans-Serif" font-size="10.00">_cache</text>
<text text-anchor="middle" x="221.5" y="-94.1784" font-family="Helvetica,sans-Serif" font-size="10.00">hamiltonianmatrix</text>
<text text-anchor="start" x="162" y="-83.1784" font-family="Helvetica,sans-Serif" font-size="10.00">hamiltonianmatrix</text>
<text text-anchor="middle" x="221.5" y="-72.1784" font-family="Helvetica,sans-Serif" font-size="10.00">_unperturbed_cache</text>
</g>
<!-- Node10 -->
<g id="node9" class="node"><title>Node10</title>
<g id="a_node9"><a xlink:href="classMatrixElementCache.html" target="_top" xlink:title="MatrixElementCache">
<polygon fill="none" stroke="black" points="12,-6.67836 12,-25.6784 128,-25.6784 128,-6.67836 12,-6.67836"/>
<text text-anchor="middle" x="70" y="-13.6784" font-family="Helvetica,sans-Serif" font-size="10.00">MatrixElementCache</text>
</a>
</g>
</g>
<!-- Node10&#45;&gt;Node3 -->
<g id="edge8" class="edge"><title>Node10&#45;&gt;Node3</title>
<path fill="none" stroke="#9a32cd" stroke-dasharray="5,2" d="M121.806,-4.97779C168.325,2.29393 237.031,5.21084 285,-27.1784 351.157,-71.8484 369.671,-178.322 373.905,-211.281"/>
<polygon fill="#9a32cd" stroke="#9a32cd" points="121.222,-1.5267 111.941,-6.6366 122.383,-8.42979 121.222,-1.5267"/>
<text text-anchor="middle" x="221.5" y="-30.1784" font-family="Helvetica,sans-Serif" font-size="10.00"> cache</text>
</g>
</g>
</svg>
