<?xml version="1.0" encoding="UTF-8" standalone="no"?>
<!DOCTYPE svg PUBLIC "-//W3C//DTD SVG 1.1//EN"
 "http://www.w3.org/Graphics/SVG/1.1/DTD/svg11.dtd">
<!-- Generated by graphviz version 2.38.0 (20140413.2041)
 -->
<!-- Title: MatrixElementCache::getElectricDipole Pages: 1 -->
<svg width="328pt" height="165pt"
 viewBox="0.00 0.00 328.00 164.50" xmlns="http://www.w3.org/2000/svg" xmlns:xlink="http://www.w3.org/1999/xlink">
<g id="graph0" class="graph" transform="scale(1 1) rotate(0) translate(4 160.5)">
<title>MatrixElementCache::getElectricDipole</title>
<!-- Node11 -->
<g id="node1" class="node"><title>Node11</title>
<polygon fill="#bfbfbf" stroke="black" points="0,-55 0,-85 116,-85 116,-55 0,-55"/>
<text text-anchor="start" x="8" y="-73" font-family="Helvetica,sans-Serif" font-size="10.00">MatrixElementCache</text>
<text text-anchor="middle" x="58" y="-62" font-family="Helvetica,sans-Serif" font-size="10.00">::getElectricDipole</text>
</g>
<!-- Node12 -->
<g id="node2" class="node"><title>Node12</title>
<g id="a_node2"><a xlink:href="classPerturbativeInteraction.html#a9f28d7c9a638f60255bf6baeeda0b4c2" target="_top" xlink:title="PerturbativeInteraction\l::getC3">
<polygon fill="none" stroke="black" points="173,-126 173,-156 299,-156 299,-126 173,-126"/>
<text text-anchor="start" x="181" y="-144" font-family="Helvetica,sans-Serif" font-size="10.00">PerturbativeInteraction</text>
<text text-anchor="middle" x="236" y="-133" font-family="Helvetica,sans-Serif" font-size="10.00">::getC3</text>
</a>
</g>
</g>
<!-- Node11&#45;&gt;Node12 -->
<g id="edge1" class="edge"><title>Node11&#45;&gt;Node12</title>
<path fill="none" stroke="midnightblue" d="M94.6774,-89.9989C111.692,-99.0218 132.539,-109.346 152,-117 160.236,-120.239 169.084,-123.26 177.825,-125.991"/>
<polygon fill="midnightblue" stroke="midnightblue" points="96.1175,-86.7994 85.6525,-85.1454 92.8019,-92.9644 96.1175,-86.7994"/>
</g>
<!-- Node13 -->
<g id="node3" class="node"><title>Node13</title>
<g id="a_node3"><a xlink:href="classPerturbativeInteraction.html#a6ed147d3eeaa7057c3c4e9b1dce6747a" target="_top" xlink:title="PerturbativeInteraction\l::getC6">
<polygon fill="none" stroke="black" points="173,-77 173,-107 299,-107 299,-77 173,-77"/>
<text text-anchor="start" x="181" y="-95" font-family="Helvetica,sans-Serif" font-size="10.00">PerturbativeInteraction</text>
<text text-anchor="middle" x="236" y="-84" font-family="Helvetica,sans-Serif" font-size="10.00">::getC6</text>
</a>
</g>
</g>
<!-- Node11&#45;&gt;Node13 -->
<g id="edge2" class="edge"><title>Node11&#45;&gt;Node13</title>
<path fill="none" stroke="midnightblue" d="M126.109,-78.3886C141.506,-80.3133 157.809,-82.3512 172.981,-84.2476"/>
<polygon fill="midnightblue" stroke="midnightblue" points="126.499,-74.9102 116.142,-77.1428 125.631,-81.8562 126.499,-74.9102"/>
</g>
<!-- Node14 -->
<g id="node4" class="node"><title>Node14</title>
<g id="a_node4"><a xlink:href="classSystemTwo.html#a5cc89c42ab8066027b0c375b818c8333" target="_top" xlink:title="Method that allows base class to calculate the interaction /////. ">
<polygon fill="none" stroke="black" points="153.5,-38.5 153.5,-57.5 318.5,-57.5 318.5,-38.5 153.5,-38.5"/>
<text text-anchor="middle" x="236" y="-45.5" font-family="Helvetica,sans-Serif" font-size="10.00">SystemTwo::initializeInteraction</text>
</a>
</g>
</g>
<!-- Node11&#45;&gt;Node14 -->
<g id="edge3" class="edge"><title>Node11&#45;&gt;Node14</title>
<path fill="none" stroke="midnightblue" d="M126.238,-61.5953C136.929,-60.2589 148.054,-58.8682 158.931,-57.5086"/>
<polygon fill="midnightblue" stroke="midnightblue" points="125.631,-58.1438 116.142,-62.8572 126.499,-65.0898 125.631,-58.1438"/>
</g>
<!-- Node15 -->
<g id="node5" class="node"><title>Node15</title>
<g id="a_node5"><a xlink:href="classSystemOne.html#abf6d26d44765fa787251956c128644a7" target="_top" xlink:title="Method that allows base class to calculate the interaction /////. ">
<polygon fill="none" stroke="black" points="152,-0.5 152,-19.5 320,-19.5 320,-0.5 152,-0.5"/>
<text text-anchor="middle" x="236" y="-7.5" font-family="Helvetica,sans-Serif" font-size="10.00">SystemOne::initializeInteraction</text>
</a>
</g>
</g>
<!-- Node11&#45;&gt;Node15 -->
<g id="edge4" class="edge"><title>Node11&#45;&gt;Node15</title>
<path fill="none" stroke="midnightblue" d="M98.6277,-50.5386C114.892,-43.0789 134.079,-34.9415 152,-29 162.945,-25.3715 174.925,-22.1903 186.294,-19.5206"/>
<polygon fill="midnightblue" stroke="midnightblue" points="97.0057,-47.4331 89.4212,-54.8307 99.9636,-53.7775 97.0057,-47.4331"/>
</g>
</g>
</svg>
