<?xml version="1.0" encoding="UTF-8" standalone="no"?>
<!DOCTYPE svg PUBLIC "-//W3C//DTD SVG 1.1//EN"
 "http://www.w3.org/Graphics/SVG/1.1/DTD/svg11.dtd">
<!-- Generated by graphviz version 2.38.0 (20140413.2041)
 -->
<!-- Title: MatrixElementCache::getElectricMultipole Pages: 1 -->
<svg width="480pt" height="165pt"
 viewBox="0.00 0.00 480.00 165.00" xmlns="http://www.w3.org/2000/svg" xmlns:xlink="http://www.w3.org/1999/xlink">
<g id="graph0" class="graph" transform="scale(1 1) rotate(0) translate(4 161)">
<title>MatrixElementCache::getElectricMultipole</title>
<!-- Node17 -->
<g id="node1" class="node"><title>Node17</title>
<polygon fill="#bfbfbf" stroke="black" points="0,-72 0,-102 116,-102 116,-72 0,-72"/>
<text text-anchor="start" x="8" y="-90" font-family="Helvetica,sans-Serif" font-size="10.00">MatrixElementCache</text>
<text text-anchor="middle" x="58" y="-79" font-family="Helvetica,sans-Serif" font-size="10.00">::getElectricMultipole</text>
</g>
<!-- Node18 -->
<g id="node2" class="node"><title>Node18</title>
<g id="a_node2"><a xlink:href="classMatrixElementCache.html#ab1120fb945d5c0c5e30821e886c04c42" target="_top" xlink:title="MatrixElementCache\l::getDiamagnetism">
<polygon fill="none" stroke="black" points="152,-126 152,-156 268,-156 268,-126 152,-126"/>
<text text-anchor="start" x="160" y="-144" font-family="Helvetica,sans-Serif" font-size="10.00">MatrixElementCache</text>
<text text-anchor="middle" x="210" y="-133" font-family="Helvetica,sans-Serif" font-size="10.00">::getDiamagnetism</text>
</a>
</g>
</g>
<!-- Node17&#45;&gt;Node18 -->
<g id="edge1" class="edge"><title>Node17&#45;&gt;Node18</title>
<path fill="none" stroke="midnightblue" d="M110.262,-105.454C128.817,-112.134 149.534,-119.592 167.181,-125.945"/>
<polygon fill="midnightblue" stroke="midnightblue" points="111.378,-102.136 100.783,-102.042 109.007,-108.722 111.378,-102.136"/>
</g>
<!-- Node20 -->
<g id="node4" class="node"><title>Node20</title>
<g id="a_node4"><a xlink:href="classMatrixElementCache.html#ac6191cd01c85dd9cf28a373b524f0b1b" target="_top" xlink:title="Get matrix elements ////////////////////////////////////////////. ">
<polygon fill="none" stroke="black" points="152,-72 152,-102 268,-102 268,-72 152,-72"/>
<text text-anchor="start" x="160" y="-90" font-family="Helvetica,sans-Serif" font-size="10.00">MatrixElementCache</text>
<text text-anchor="middle" x="210" y="-79" font-family="Helvetica,sans-Serif" font-size="10.00">::getElectricDipole</text>
</a>
</g>
</g>
<!-- Node17&#45;&gt;Node20 -->
<g id="edge3" class="edge"><title>Node17&#45;&gt;Node20</title>
<path fill="none" stroke="midnightblue" d="M126.311,-87C134.728,-87 143.277,-87 151.525,-87"/>
<polygon fill="midnightblue" stroke="midnightblue" points="126.137,-83.5001 116.136,-87 126.136,-90.5001 126.137,-83.5001"/>
</g>
<!-- Node23 -->
<g id="node7" class="node"><title>Node23</title>
<g id="a_node7"><a xlink:href="classSystemTwo.html#a5cc89c42ab8066027b0c375b818c8333" target="_top" xlink:title="Method that allows base class to calculate the interaction /////. ">
<polygon fill="none" stroke="black" points="305.5,-0.5 305.5,-19.5 470.5,-19.5 470.5,-0.5 305.5,-0.5"/>
<text text-anchor="middle" x="388" y="-7.5" font-family="Helvetica,sans-Serif" font-size="10.00">SystemTwo::initializeInteraction</text>
</a>
</g>
</g>
<!-- Node17&#45;&gt;Node23 -->
<g id="edge8" class="edge"><title>Node17&#45;&gt;Node23</title>
<path fill="none" stroke="midnightblue" d="M123.367,-69.2955C132.948,-66.7769 142.72,-64.2729 152,-62 217.343,-45.9963 293.445,-29.5551 340.928,-19.5565"/>
<polygon fill="midnightblue" stroke="midnightblue" points="122.25,-65.9708 113.48,-71.9164 124.043,-72.7371 122.25,-65.9708"/>
</g>
<!-- Node19 -->
<g id="node3" class="node"><title>Node19</title>
<g id="a_node3"><a xlink:href="classSystemOne.html#abf6d26d44765fa787251956c128644a7" target="_top" xlink:title="Method that allows base class to calculate the interaction /////. ">
<polygon fill="none" stroke="black" points="304,-137.5 304,-156.5 472,-156.5 472,-137.5 304,-137.5"/>
<text text-anchor="middle" x="388" y="-144.5" font-family="Helvetica,sans-Serif" font-size="10.00">SystemOne::initializeInteraction</text>
</a>
</g>
</g>
<!-- Node18&#45;&gt;Node19 -->
<g id="edge2" class="edge"><title>Node18&#45;&gt;Node19</title>
<path fill="none" stroke="midnightblue" d="M278.242,-143.292C286.65,-143.579 295.326,-143.875 303.938,-144.168"/>
<polygon fill="midnightblue" stroke="midnightblue" points="278.256,-139.791 268.142,-142.948 278.017,-146.787 278.256,-139.791"/>
</g>
<!-- Node20&#45;&gt;Node19 -->
<g id="edge7" class="edge"><title>Node20&#45;&gt;Node19</title>
<path fill="none" stroke="midnightblue" d="M250.628,-106.461C266.892,-113.921 286.079,-122.058 304,-128 314.945,-131.629 326.925,-134.81 338.294,-137.479"/>
<polygon fill="midnightblue" stroke="midnightblue" points="251.964,-103.223 241.421,-102.169 249.006,-109.567 251.964,-103.223"/>
</g>
<!-- Node21 -->
<g id="node5" class="node"><title>Node21</title>
<g id="a_node5"><a xlink:href="classPerturbativeInteraction.html#a9f28d7c9a638f60255bf6baeeda0b4c2" target="_top" xlink:title="PerturbativeInteraction\l::getC3">
<polygon fill="none" stroke="black" points="325,-88 325,-118 451,-118 451,-88 325,-88"/>
<text text-anchor="start" x="333" y="-106" font-family="Helvetica,sans-Serif" font-size="10.00">PerturbativeInteraction</text>
<text text-anchor="middle" x="388" y="-95" font-family="Helvetica,sans-Serif" font-size="10.00">::getC3</text>
</a>
</g>
</g>
<!-- Node20&#45;&gt;Node21 -->
<g id="edge4" class="edge"><title>Node20&#45;&gt;Node21</title>
<path fill="none" stroke="midnightblue" d="M278.109,-93.1008C293.506,-94.5006 309.809,-95.9827 324.981,-97.3619"/>
<polygon fill="midnightblue" stroke="midnightblue" points="278.418,-89.6146 268.142,-92.1947 277.784,-96.5858 278.418,-89.6146"/>
</g>
<!-- Node22 -->
<g id="node6" class="node"><title>Node22</title>
<g id="a_node6"><a xlink:href="classPerturbativeInteraction.html#a6ed147d3eeaa7057c3c4e9b1dce6747a" target="_top" xlink:title="PerturbativeInteraction\l::getC6">
<polygon fill="none" stroke="black" points="325,-39 325,-69 451,-69 451,-39 325,-39"/>
<text text-anchor="start" x="333" y="-57" font-family="Helvetica,sans-Serif" font-size="10.00">PerturbativeInteraction</text>
<text text-anchor="middle" x="388" y="-46" font-family="Helvetica,sans-Serif" font-size="10.00">::getC6</text>
</a>
</g>
</g>
<!-- Node20&#45;&gt;Node22 -->
<g id="edge5" class="edge"><title>Node20&#45;&gt;Node22</title>
<path fill="none" stroke="midnightblue" d="M278.109,-74.4171C293.506,-71.5301 309.809,-68.4732 324.981,-65.6286"/>
<polygon fill="midnightblue" stroke="midnightblue" points="277.326,-71.0028 268.142,-76.2858 278.616,-77.8829 277.326,-71.0028"/>
</g>
<!-- Node20&#45;&gt;Node23 -->
<g id="edge6" class="edge"><title>Node20&#45;&gt;Node23</title>
<path fill="none" stroke="midnightblue" d="M239.187,-65.9567C256.969,-53.5834 280.872,-38.543 304,-29 313.155,-25.2223 323.204,-22.1205 333.051,-19.5997"/>
<polygon fill="midnightblue" stroke="midnightblue" points="237.11,-63.1392 230.98,-71.7809 241.161,-68.8478 237.11,-63.1392"/>
</g>
</g>
</svg>
