<?xml version="1.0" encoding="UTF-8" standalone="no"?>
<!DOCTYPE svg PUBLIC "-//W3C//DTD SVG 1.1//EN"
 "http://www.w3.org/Graphics/SVG/1.1/DTD/svg11.dtd">
<!-- Generated by graphviz version 2.38.0 (20140413.2041)
 -->
<!-- Title: StateTwo::first Pages: 1 -->
<svg width="646pt" height="260pt"
 viewBox="0.00 0.00 646.00 260.00" xmlns="http://www.w3.org/2000/svg" xmlns:xlink="http://www.w3.org/1999/xlink">
<g id="graph0" class="graph" transform="scale(1 1) rotate(0) translate(4 256)">
<title>StateTwo::first</title>
<!-- Node17 -->
<g id="node1" class="node"><title>Node17</title>
<polygon fill="#bfbfbf" stroke="black" points="0,-114.5 0,-133.5 83,-133.5 83,-114.5 0,-114.5"/>
<text text-anchor="middle" x="41.5" y="-121.5" font-family="Helvetica,sans-Serif" font-size="10.00">StateTwo::first</text>
</g>
<!-- Node18 -->
<g id="node2" class="node"><title>Node18</title>
<g id="a_node2"><a xlink:href="classHamiltonianTwo.html#a6ca0a318f25170b69e571a07064a5afb" target="_top" xlink:title="HamiltonianTwo::calculate">
<polygon fill="none" stroke="black" points="119,-229.5 119,-248.5 259,-248.5 259,-229.5 119,-229.5"/>
<text text-anchor="middle" x="189" y="-236.5" font-family="Helvetica,sans-Serif" font-size="10.00">HamiltonianTwo::calculate</text>
</a>
</g>
</g>
<!-- Node17&#45;&gt;Node18 -->
<g id="edge1" class="edge"><title>Node17&#45;&gt;Node18</title>
<path fill="none" stroke="midnightblue" d="M53.7022,-142.127C66.9974,-162.268 90.9355,-194.512 119,-214 128.524,-220.613 139.995,-225.684 150.827,-229.473"/>
<polygon fill="midnightblue" stroke="midnightblue" points="56.5571,-140.096 48.2122,-133.568 50.6649,-143.875 56.5571,-140.096"/>
</g>
<!-- Node20 -->
<g id="node4" class="node"><title>Node20</title>
<g id="a_node4"><a xlink:href="classBasisnamesOne.html#ab3030f74ccafcc178f38e7a8ada13b9b" target="_top" xlink:title="BasisnamesOne::fromBoth">
<polygon fill="none" stroke="black" points="307.5,-52.5 307.5,-71.5 453.5,-71.5 453.5,-52.5 307.5,-52.5"/>
<text text-anchor="middle" x="380.5" y="-59.5" font-family="Helvetica,sans-Serif" font-size="10.00">BasisnamesOne::fromBoth</text>
</a>
</g>
</g>
<!-- Node17&#45;&gt;Node20 -->
<g id="edge3" class="edge"><title>Node17&#45;&gt;Node20</title>
<path fill="none" stroke="midnightblue" d="M93.4757,-123.183C137.701,-121.61 203.205,-117.193 259,-105 294.588,-97.2229 334.032,-81.763 357.786,-71.6556"/>
<polygon fill="midnightblue" stroke="midnightblue" points="93.1485,-119.692 83.2654,-123.509 93.3721,-126.688 93.1485,-119.692"/>
</g>
<!-- Node23 -->
<g id="node7" class="node"><title>Node23</title>
<g id="a_node7"><a xlink:href="classPerturbativeInteraction.html#a6ed147d3eeaa7057c3c4e9b1dce6747a" target="_top" xlink:title="PerturbativeInteraction\l::getC6">
<polygon fill="none" stroke="black" points="317.5,-183 317.5,-213 443.5,-213 443.5,-183 317.5,-183"/>
<text text-anchor="start" x="325.5" y="-201" font-family="Helvetica,sans-Serif" font-size="10.00">PerturbativeInteraction</text>
<text text-anchor="middle" x="380.5" y="-190" font-family="Helvetica,sans-Serif" font-size="10.00">::getC6</text>
</a>
</g>
</g>
<!-- Node17&#45;&gt;Node23 -->
<g id="edge6" class="edge"><title>Node17&#45;&gt;Node23</title>
<path fill="none" stroke="midnightblue" d="M59.3432,-141.136C73.786,-154.612 95.873,-172.486 119,-181 183.647,-204.801 263.362,-206.331 317.461,-203.647"/>
<polygon fill="midnightblue" stroke="midnightblue" points="61.3939,-138.25 51.7728,-133.813 56.5272,-143.282 61.3939,-138.25"/>
</g>
<!-- Node24 -->
<g id="node8" class="node"><title>Node24</title>
<g id="a_node8"><a xlink:href="classStateTwo.html#a3f9e530a17bed5048f16653dcd9c7991" target="_top" xlink:title="StateTwo::getEnergy">
<polygon fill="none" stroke="black" points="132,-152.5 132,-171.5 246,-171.5 246,-152.5 132,-152.5"/>
<text text-anchor="middle" x="189" y="-159.5" font-family="Helvetica,sans-Serif" font-size="10.00">StateTwo::getEnergy</text>
</a>
</g>
</g>
<!-- Node17&#45;&gt;Node24 -->
<g id="edge7" class="edge"><title>Node17&#45;&gt;Node24</title>
<path fill="none" stroke="midnightblue" d="M89.1532,-136.184C109.353,-141.46 132.648,-147.544 151.548,-152.48"/>
<polygon fill="midnightblue" stroke="midnightblue" points="89.7757,-132.73 79.2158,-133.589 88.0068,-139.502 89.7757,-132.73"/>
</g>
<!-- Node26 -->
<g id="node10" class="node"><title>Node26</title>
<g id="a_node10"><a xlink:href="classStateTwo.html#a3fd811a11be91fc027b2cf3a45ba81b6" target="_top" xlink:title="StateTwo::getNStar">
<polygon fill="none" stroke="black" points="134.5,-76.5 134.5,-95.5 243.5,-95.5 243.5,-76.5 134.5,-76.5"/>
<text text-anchor="middle" x="189" y="-83.5" font-family="Helvetica,sans-Serif" font-size="10.00">StateTwo::getNStar</text>
</a>
</g>
</g>
<!-- Node17&#45;&gt;Node26 -->
<g id="edge10" class="edge"><title>Node17&#45;&gt;Node26</title>
<path fill="none" stroke="midnightblue" d="M89.1532,-111.816C109.353,-106.54 132.648,-100.456 151.548,-95.5201"/>
<polygon fill="midnightblue" stroke="midnightblue" points="88.0068,-108.498 79.2158,-114.411 89.7757,-115.27 88.0068,-108.498"/>
</g>
<!-- Node27 -->
<g id="node11" class="node"><title>Node27</title>
<g id="a_node11"><a xlink:href="classStateTwo.html#a486e0f13ed9b4101622742059945e835" target="_top" xlink:title="StateTwo::operator\&lt;">
<polygon fill="none" stroke="black" points="131.5,-38.5 131.5,-57.5 246.5,-57.5 246.5,-38.5 131.5,-38.5"/>
<text text-anchor="middle" x="189" y="-45.5" font-family="Helvetica,sans-Serif" font-size="10.00">StateTwo::operator&lt;</text>
</a>
</g>
</g>
<!-- Node17&#45;&gt;Node27 -->
<g id="edge11" class="edge"><title>Node17&#45;&gt;Node27</title>
<path fill="none" stroke="midnightblue" d="M60.8668,-107.21C75.6105,-94.5356 97.3552,-77.5768 119,-67 126.703,-63.236 135.266,-60.1207 143.666,-57.5779"/>
<polygon fill="midnightblue" stroke="midnightblue" points="58.2392,-104.86 53.0487,-114.096 62.8662,-110.113 58.2392,-104.86"/>
</g>
<!-- Node28 -->
<g id="node12" class="node"><title>Node28</title>
<g id="a_node12"><a xlink:href="classStateTwo.html#a7431fc271acaf34c4ddbb9b53966895d" target="_top" xlink:title="StateTwo::order">
<polygon fill="none" stroke="black" points="143.5,-0.5 143.5,-19.5 234.5,-19.5 234.5,-0.5 143.5,-0.5"/>
<text text-anchor="middle" x="189" y="-7.5" font-family="Helvetica,sans-Serif" font-size="10.00">StateTwo::order</text>
</a>
</g>
</g>
<!-- Node17&#45;&gt;Node28 -->
<g id="edge12" class="edge"><title>Node17&#45;&gt;Node28</title>
<path fill="none" stroke="midnightblue" d="M52.6113,-105.384C65.2965,-83.7898 89.0628,-48.6472 119,-29 126.271,-24.2279 134.725,-20.6449 143.171,-17.9576"/>
<polygon fill="midnightblue" stroke="midnightblue" points="49.4726,-103.823 47.5803,-114.248 55.5603,-107.279 49.4726,-103.823"/>
</g>
<!-- Node19 -->
<g id="node3" class="node"><title>Node19</title>
<g id="a_node3"><a xlink:href="classHamiltonianTwo.html#abd374713c9b38f72265c7fe496c42b96" target="_top" xlink:title="HamiltonianTwo::HamiltonianTwo">
<polygon fill="none" stroke="black" points="295,-232.5 295,-251.5 466,-251.5 466,-232.5 295,-232.5"/>
<text text-anchor="middle" x="380.5" y="-239.5" font-family="Helvetica,sans-Serif" font-size="10.00">HamiltonianTwo::HamiltonianTwo</text>
</a>
</g>
</g>
<!-- Node18&#45;&gt;Node19 -->
<g id="edge2" class="edge"><title>Node18&#45;&gt;Node19</title>
<path fill="none" stroke="midnightblue" d="M269.424,-240.257C277.874,-240.391 286.492,-240.528 294.997,-240.662"/>
<polygon fill="midnightblue" stroke="midnightblue" points="269.272,-236.755 259.218,-240.096 269.162,-243.754 269.272,-236.755"/>
</g>
<!-- Node21 -->
<g id="node5" class="node"><title>Node21</title>
<g id="a_node5"><a xlink:href="Interface_8h.html#ad478f0b9610586a2ae8066c78b6d3f96" target="_top" xlink:title="compute">
<polygon fill="none" stroke="black" points="502,-52.5 502,-71.5 561,-71.5 561,-52.5 502,-52.5"/>
<text text-anchor="middle" x="531.5" y="-59.5" font-family="Helvetica,sans-Serif" font-size="10.00">compute</text>
</a>
</g>
</g>
<!-- Node20&#45;&gt;Node21 -->
<g id="edge4" class="edge"><title>Node20&#45;&gt;Node21</title>
<path fill="none" stroke="midnightblue" d="M464.199,-62C477.72,-62 490.877,-62 501.858,-62"/>
<polygon fill="midnightblue" stroke="midnightblue" points="463.818,-58.5001 453.818,-62 463.818,-65.5001 463.818,-58.5001"/>
</g>
<!-- Node22 -->
<g id="node6" class="node"><title>Node22</title>
<g id="a_node6"><a xlink:href="main_8cpp.html#a3c04138a5bfe5d72780bb7e82a18e627" target="_top" xlink:title="main">
<polygon fill="none" stroke="black" points="597,-52.5 597,-71.5 638,-71.5 638,-52.5 597,-52.5"/>
<text text-anchor="middle" x="617.5" y="-59.5" font-family="Helvetica,sans-Serif" font-size="10.00">main</text>
</a>
</g>
</g>
<!-- Node21&#45;&gt;Node22 -->
<g id="edge5" class="edge"><title>Node21&#45;&gt;Node22</title>
<path fill="none" stroke="midnightblue" d="M571.522,-62C580.284,-62 589.22,-62 596.794,-62"/>
<polygon fill="midnightblue" stroke="midnightblue" points="571.408,-58.5001 561.408,-62 571.408,-65.5001 571.408,-58.5001"/>
</g>
<!-- Node24&#45;&gt;Node23 -->
<g id="edge8" class="edge"><title>Node24&#45;&gt;Node23</title>
<path fill="none" stroke="midnightblue" d="M250.247,-173.445C271.691,-177.519 295.867,-182.112 317.459,-186.214"/>
<polygon fill="midnightblue" stroke="midnightblue" points="250.763,-169.981 240.285,-171.553 249.456,-176.858 250.763,-169.981"/>
</g>
<!-- Node25 -->
<g id="node9" class="node"><title>Node25</title>
<g id="a_node9"><a xlink:href="integration__test_8cpp.html#a0edc7e03850724a3784df426b75fb1d2" target="_top" xlink:title="BOOST_FIXTURE_TEST_CASE">
<polygon fill="none" stroke="black" points="303.5,-144.5 303.5,-163.5 457.5,-163.5 457.5,-144.5 303.5,-144.5"/>
<text text-anchor="middle" x="380.5" y="-151.5" font-family="Helvetica,sans-Serif" font-size="10.00">BOOST_FIXTURE_TEST_CASE</text>
</a>
</g>
</g>
<!-- Node24&#45;&gt;Node25 -->
<g id="edge9" class="edge"><title>Node24&#45;&gt;Node25</title>
<path fill="none" stroke="midnightblue" d="M256.368,-159.198C271.495,-158.56 287.684,-157.876 303.189,-157.222"/>
<polygon fill="midnightblue" stroke="midnightblue" points="255.931,-155.713 246.087,-159.632 256.226,-162.707 255.931,-155.713"/>
</g>
<!-- Node28&#45;&gt;Node20 -->
<g id="edge13" class="edge"><title>Node28&#45;&gt;Node20</title>
<path fill="none" stroke="midnightblue" d="M234.779,-22.2875C268.378,-31.5075 313.722,-43.9501 344.643,-52.435"/>
<polygon fill="midnightblue" stroke="midnightblue" points="235.327,-18.8087 224.757,-19.5376 233.475,-25.5591 235.327,-18.8087"/>
</g>
</g>
</svg>
