<?xml version="1.0" encoding="UTF-8" standalone="no"?>
<!DOCTYPE svg PUBLIC "-//W3C//DTD SVG 1.1//EN"
 "http://www.w3.org/Graphics/SVG/1.1/DTD/svg11.dtd">
<!-- Generated by graphviz version 2.38.0 (20140413.2041)
 -->
<!-- Title: StateTwo::second Pages: 1 -->
<!--zoomable 298 -->
<svg id="main" version="1.1" xmlns="http://www.w3.org/2000/svg" xmlns:xlink="http://www.w3.org/1999/xlink" xml:space="preserve" onload="init(evt)">
<style type="text/css"><![CDATA[
.edge:hover path { stroke: red; }
.edge:hover polygon { stroke: red; fill: red; }
]]></style>
<script type="text/javascript"><![CDATA[
var edges = document.getElementsByTagName('g');
if (edges && edges.length) {
  for (var i=0;i<edges.length;i++) {
    if (edges[i].id.substr(0,4)=='edge') {
      edges[i].setAttribute('class','edge');
    }
  }
}
]]></script>
        <defs>
                <circle id="rim" cx="0" cy="0" r="7"/>
                <circle id="rim2" cx="0" cy="0" r="3.5"/>
                <g id="zoomPlus">
                        <use xlink:href="#rim" fill="#404040">
                                <set attributeName="fill" to="#808080" begin="zoomplus.mouseover" end="zoomplus.mouseout"/>
                        </use>
                        <path d="M-4,0h8M0,-4v8" fill="none" stroke="white" stroke-width="1.5" pointer-events="none"/>
                </g>
                <g id="zoomMin">
                        <use xlink:href="#rim" fill="#404040">
                                <set attributeName="fill" to="#808080" begin="zoomminus.mouseover" end="zoomminus.mouseout"/>
                        </use>
                        <path d="M-4,0h8" fill="none" stroke="white" stroke-width="1.5" pointer-events="none"/>
                </g>
                <g id="dirArrow">
                        <path fill="none" stroke="white" stroke-width="1.5" d="M0,-3.0v7 M-2.5,-0.5L0,-3.0L2.5,-0.5"/>
                </g>
               <g id="resetDef">
                       <use xlink:href="#rim2" fill="#404040">
                               <set attributeName="fill" to="#808080" begin="reset.mouseover" end="reset.mouseout"/>
                       </use>
               </g>
        </defs>

<script type="text/javascript">
var viewWidth = 664;
var viewHeight = 298;
var sectionId = 'dynsection-12';
</script>
<script xlink:href="svgpan.js"/>
<svg id="graph" class="graph">
<g id="viewport">
<title>StateTwo::second</title>
<!-- Node78 -->
<g id="node1" class="node"><title>Node78</title>
<polygon fill="#bfbfbf" stroke="black" points="0,-133.5 0,-152.5 100,-152.5 100,-133.5 0,-133.5"/>
<text text-anchor="middle" x="50" y="-140.5" font-family="Helvetica,sans-Serif" font-size="10.00">StateTwo::second</text>
</g>
<!-- Node79 -->
<g id="node2" class="node"><title>Node79</title>
<g id="a_node2"><a xlink:href="classHamiltonianTwo.html#a6ca0a318f25170b69e571a07064a5afb" target="_top" xlink:title="HamiltonianTwo::calculate">
<polygon fill="none" stroke="black" points="136.5,-267.5 136.5,-286.5 276.5,-286.5 276.5,-267.5 136.5,-267.5"/>
<text text-anchor="middle" x="206.5" y="-274.5" font-family="Helvetica,sans-Serif" font-size="10.00">HamiltonianTwo::calculate</text>
</a>
</g>
</g>
<!-- Node78&#45;&gt;Node79 -->
<g id="edge1" class="edge"><title>Node78&#45;&gt;Node79</title>
<path fill="none" stroke="midnightblue" d="M60.9524,-161.473C74.7879,-185.521 102.009,-227.378 136,-252 145.138,-258.62 156.207,-263.642 166.798,-267.384"/>
<polygon fill="midnightblue" stroke="midnightblue" points="63.9483,-159.659 56.0134,-152.638 57.8384,-163.075 63.9483,-159.659"/>
</g>
<!-- Node81 -->
<g id="node4" class="node"><title>Node81</title>
<g id="a_node4"><a xlink:href="classBasisnamesOne.html#ab3030f74ccafcc178f38e7a8ada13b9b" target="_top" xlink:title="BasisnamesOne::fromBoth">
<polygon fill="none" stroke="black" points="325.5,-71.5 325.5,-90.5 471.5,-90.5 471.5,-71.5 325.5,-71.5"/>
<text text-anchor="middle" x="398.5" y="-78.5" font-family="Helvetica,sans-Serif" font-size="10.00">BasisnamesOne::fromBoth</text>
</a>
</g>
</g>
<!-- Node78&#45;&gt;Node81 -->
<g id="edge3" class="edge"><title>Node78&#45;&gt;Node81</title>
<path fill="none" stroke="midnightblue" d="M110.404,-150.55C156.517,-154.612 221.694,-156.394 277,-143 319.073,-132.811 362.917,-105.239 384.251,-90.5363"/>
<polygon fill="midnightblue" stroke="midnightblue" points="110.566,-147.05 100.282,-149.595 109.909,-154.019 110.566,-147.05"/>
</g>
<!-- Node84 -->
<g id="node7" class="node"><title>Node84</title>
<g id="a_node7"><a xlink:href="classPerturbativeInteraction.html#a6ed147d3eeaa7057c3c4e9b1dce6747a" target="_top" xlink:title="PerturbativeInteraction\l::getC6">
<polygon fill="none" stroke="black" points="335.5,-221 335.5,-251 461.5,-251 461.5,-221 335.5,-221"/>
<text text-anchor="start" x="343.5" y="-239" font-family="Helvetica,sans-Serif" font-size="10.00">PerturbativeInteraction</text>
<text text-anchor="middle" x="398.5" y="-228" font-family="Helvetica,sans-Serif" font-size="10.00">::getC6</text>
</a>
</g>
</g>
<!-- Node78&#45;&gt;Node84 -->
<g id="edge6" class="edge"><title>Node78&#45;&gt;Node84</title>
<path fill="none" stroke="midnightblue" d="M64.644,-160.766C79.831,-179.024 106.195,-206.495 136,-219 200.083,-245.885 280.793,-246.739 335.472,-243.055"/>
<polygon fill="midnightblue" stroke="midnightblue" points="67.1128,-158.251 58.1202,-152.648 61.6565,-162.636 67.1128,-158.251"/>
</g>
<!-- Node85 -->
<g id="node8" class="node"><title>Node85</title>
<g id="a_node8"><a xlink:href="classStateTwo.html#a3f9e530a17bed5048f16653dcd9c7991" target="_top" xlink:title="StateTwo::getEnergy">
<polygon fill="none" stroke="black" points="149.5,-190.5 149.5,-209.5 263.5,-209.5 263.5,-190.5 149.5,-190.5"/>
<text text-anchor="middle" x="206.5" y="-197.5" font-family="Helvetica,sans-Serif" font-size="10.00">StateTwo::getEnergy</text>
</a>
</g>
</g>
<!-- Node78&#45;&gt;Node85 -->
<g id="edge7" class="edge"><title>Node78&#45;&gt;Node85</title>
<path fill="none" stroke="midnightblue" d="M84.7959,-156.459C100.34,-162.562 119.053,-169.787 136,-176 149.423,-180.921 164.404,-186.13 177.01,-190.433"/>
<polygon fill="midnightblue" stroke="midnightblue" points="85.6762,-153.044 75.0893,-152.632 83.1088,-159.556 85.6762,-153.044"/>
</g>
<!-- Node87 -->
<g id="node10" class="node"><title>Node87</title>
<g id="a_node10"><a xlink:href="classStateTwo.html#a3fd811a11be91fc027b2cf3a45ba81b6" target="_top" xlink:title="StateTwo::getNStar">
<polygon fill="none" stroke="black" points="152,-114.5 152,-133.5 261,-133.5 261,-114.5 152,-114.5"/>
<text text-anchor="middle" x="206.5" y="-121.5" font-family="Helvetica,sans-Serif" font-size="10.00">StateTwo::getNStar</text>
</a>
</g>
</g>
<!-- Node78&#45;&gt;Node87 -->
<g id="edge10" class="edge"><title>Node78&#45;&gt;Node87</title>
<path fill="none" stroke="midnightblue" d="M110.53,-135.679C124.132,-134.006 138.509,-132.238 151.848,-130.598"/>
<polygon fill="midnightblue" stroke="midnightblue" points="109.808,-132.242 100.31,-136.936 110.662,-139.189 109.808,-132.242"/>
</g>
<!-- Node88 -->
<g id="node11" class="node"><title>Node88</title>
<g id="a_node11"><a xlink:href="classMatrixElements.html#a8c96cdfdf45e83734ee613bc91526efb" target="_top" xlink:title="MatrixElements::getRadial">
<polygon fill="none" stroke="black" points="136,-76.5 136,-95.5 277,-95.5 277,-76.5 136,-76.5"/>
<text text-anchor="middle" x="206.5" y="-83.5" font-family="Helvetica,sans-Serif" font-size="10.00">MatrixElements::getRadial</text>
</a>
</g>
</g>
<!-- Node78&#45;&gt;Node88 -->
<g id="edge11" class="edge"><title>Node78&#45;&gt;Node88</title>
<path fill="none" stroke="midnightblue" d="M79.7091,-128.84C95.9742,-121.156 116.842,-111.855 136,-105 145.775,-101.502 156.518,-98.2752 166.572,-95.5111"/>
<polygon fill="midnightblue" stroke="midnightblue" points="77.7397,-125.903 70.2331,-133.38 80.7639,-132.216 77.7397,-125.903"/>
</g>
<!-- Node89 -->
<g id="node12" class="node"><title>Node89</title>
<g id="a_node12"><a xlink:href="classStateTwo.html#a486e0f13ed9b4101622742059945e835" target="_top" xlink:title="StateTwo::operator\&lt;">
<polygon fill="none" stroke="black" points="149,-38.5 149,-57.5 264,-57.5 264,-38.5 149,-38.5"/>
<text text-anchor="middle" x="206.5" y="-45.5" font-family="Helvetica,sans-Serif" font-size="10.00">StateTwo::operator&lt;</text>
</a>
</g>
</g>
<!-- Node78&#45;&gt;Node89 -->
<g id="edge12" class="edge"><title>Node78&#45;&gt;Node89</title>
<path fill="none" stroke="midnightblue" d="M65.9495,-125.566C81.6992,-108.267 108.055,-82.2014 136,-67 143.032,-63.1745 150.892,-60.0743 158.727,-57.5757"/>
<polygon fill="midnightblue" stroke="midnightblue" points="63.1327,-123.467 59.1093,-133.268 68.3667,-128.115 63.1327,-123.467"/>
</g>
<!-- Node90 -->
<g id="node13" class="node"><title>Node90</title>
<g id="a_node13"><a xlink:href="classStateTwo.html#a7431fc271acaf34c4ddbb9b53966895d" target="_top" xlink:title="StateTwo::order">
<polygon fill="none" stroke="black" points="161,-0.5 161,-19.5 252,-19.5 252,-0.5 161,-0.5"/>
<text text-anchor="middle" x="206.5" y="-7.5" font-family="Helvetica,sans-Serif" font-size="10.00">StateTwo::order</text>
</a>
</g>
</g>
<!-- Node78&#45;&gt;Node90 -->
<g id="edge13" class="edge"><title>Node78&#45;&gt;Node90</title>
<path fill="none" stroke="midnightblue" d="M59.8751,-124.357C72.9498,-98.918 99.8071,-53.6805 136,-29 143.441,-23.9259 152.194,-20.2031 160.932,-17.4728"/>
<polygon fill="midnightblue" stroke="midnightblue" points="56.7238,-122.834 55.4074,-133.346 62.9923,-125.949 56.7238,-122.834"/>
</g>
<!-- Node80 -->
<g id="node3" class="node"><title>Node80</title>
<g id="a_node3"><a xlink:href="classHamiltonianTwo.html#abd374713c9b38f72265c7fe496c42b96" target="_top" xlink:title="HamiltonianTwo::HamiltonianTwo">
<polygon fill="none" stroke="black" points="313,-270.5 313,-289.5 484,-289.5 484,-270.5 313,-270.5"/>
<text text-anchor="middle" x="398.5" y="-277.5" font-family="Helvetica,sans-Serif" font-size="10.00">HamiltonianTwo::HamiltonianTwo</text>
</a>
</g>
</g>
<!-- Node79&#45;&gt;Node80 -->
<g id="edge2" class="edge"><title>Node79&#45;&gt;Node80</title>
<path fill="none" stroke="midnightblue" d="M286.688,-278.25C295.339,-278.387 304.171,-278.526 312.885,-278.664"/>
<polygon fill="midnightblue" stroke="midnightblue" points="286.686,-274.75 276.632,-278.092 286.575,-281.749 286.686,-274.75"/>
</g>
<!-- Node82 -->
<g id="node5" class="node"><title>Node82</title>
<g id="a_node5"><a xlink:href="Interface_8h.html#ad478f0b9610586a2ae8066c78b6d3f96" target="_top" xlink:title="compute">
<polygon fill="none" stroke="black" points="520,-71.5 520,-90.5 579,-90.5 579,-71.5 520,-71.5"/>
<text text-anchor="middle" x="549.5" y="-78.5" font-family="Helvetica,sans-Serif" font-size="10.00">compute</text>
</a>
</g>
</g>
<!-- Node81&#45;&gt;Node82 -->
<g id="edge4" class="edge"><title>Node81&#45;&gt;Node82</title>
<path fill="none" stroke="midnightblue" d="M482.199,-81C495.72,-81 508.877,-81 519.858,-81"/>
<polygon fill="midnightblue" stroke="midnightblue" points="481.818,-77.5001 471.818,-81 481.818,-84.5001 481.818,-77.5001"/>
</g>
<!-- Node83 -->
<g id="node6" class="node"><title>Node83</title>
<g id="a_node6"><a xlink:href="main_8cpp.html#a3c04138a5bfe5d72780bb7e82a18e627" target="_top" xlink:title="main">
<polygon fill="none" stroke="black" points="615,-71.5 615,-90.5 656,-90.5 656,-71.5 615,-71.5"/>
<text text-anchor="middle" x="635.5" y="-78.5" font-family="Helvetica,sans-Serif" font-size="10.00">main</text>
</a>
</g>
</g>
<!-- Node82&#45;&gt;Node83 -->
<g id="edge5" class="edge"><title>Node82&#45;&gt;Node83</title>
<path fill="none" stroke="midnightblue" d="M589.522,-81C598.284,-81 607.22,-81 614.794,-81"/>
<polygon fill="midnightblue" stroke="midnightblue" points="589.408,-77.5001 579.408,-81 589.408,-84.5001 589.408,-77.5001"/>
</g>
<!-- Node85&#45;&gt;Node84 -->
<g id="edge9" class="edge"><title>Node85&#45;&gt;Node84</title>
<path fill="none" stroke="midnightblue" d="M267.906,-211.445C289.407,-215.519 313.646,-220.112 335.295,-224.214"/>
<polygon fill="midnightblue" stroke="midnightblue" points="268.394,-207.976 257.918,-209.553 267.091,-214.853 268.394,-207.976"/>
</g>
<!-- Node86 -->
<g id="node9" class="node"><title>Node86</title>
<g id="a_node9"><a xlink:href="integration__test_8cpp.html#a0edc7e03850724a3784df426b75fb1d2" target="_top" xlink:title="BOOST_FIXTURE_TEST_CASE">
<polygon fill="none" stroke="black" points="321.5,-182.5 321.5,-201.5 475.5,-201.5 475.5,-182.5 321.5,-182.5"/>
<text text-anchor="middle" x="398.5" y="-189.5" font-family="Helvetica,sans-Serif" font-size="10.00">BOOST_FIXTURE_TEST_CASE</text>
</a>
</g>
</g>
<!-- Node85&#45;&gt;Node86 -->
<g id="edge8" class="edge"><title>Node85&#45;&gt;Node86</title>
<path fill="none" stroke="midnightblue" d="M274.107,-197.195C289.369,-196.553 305.708,-195.865 321.337,-195.207"/>
<polygon fill="midnightblue" stroke="midnightblue" points="273.579,-193.715 263.735,-197.632 273.873,-200.708 273.579,-193.715"/>
</g>
<!-- Node90&#45;&gt;Node81 -->
<g id="edge14" class="edge"><title>Node90&#45;&gt;Node81</title>
<path fill="none" stroke="midnightblue" d="M256.461,-22.4532C263.404,-24.4889 270.417,-26.6926 277,-29 313.339,-41.7371 354.214,-60.3192 377.799,-71.4781"/>
<polygon fill="midnightblue" stroke="midnightblue" points="256.972,-18.9602 246.397,-19.5984 255.062,-25.6945 256.972,-18.9602"/>
</g>
</g>
</svg>
        <g id="navigator" transform="translate(0 0)" fill="#404254">
                <rect fill="#f2f5e9" fill-opacity="0.5" stroke="#606060" stroke-width=".5" x="0" y="0" width="60" height="60"/>
                <use id="zoomplus" xlink:href="#zoomPlus" x="17" y="9" onmousedown="handleZoom(evt,'in')"/>
                <use id="zoomminus" xlink:href="#zoomMin" x="42" y="9" onmousedown="handleZoom(evt,'out')"/>
                <use id="reset" xlink:href="#resetDef" x="30" y="36" onmousedown="handleReset()"/>
                <g id="arrowUp" xlink:href="#dirArrow" transform="translate(30 24)" onmousedown="handlePan(0,-1)">
                  <use xlink:href="#rim" fill="#404040">
                        <set attributeName="fill" to="#808080" begin="arrowUp.mouseover" end="arrowUp.mouseout"/>
                  </use>
                  <path fill="none" stroke="white" stroke-width="1.5" d="M0,-3.0v7 M-2.5,-0.5L0,-3.0L2.5,-0.5"/>
                </g>
                <g id="arrowRight" xlink:href="#dirArrow" transform="rotate(90) translate(36 -43)" onmousedown="handlePan(1,0)">
                  <use xlink:href="#rim" fill="#404040">
                        <set attributeName="fill" to="#808080" begin="arrowRight.mouseover" end="arrowRight.mouseout"/>
                  </use>
                  <path fill="none" stroke="white" stroke-width="1.5" d="M0,-3.0v7 M-2.5,-0.5L0,-3.0L2.5,-0.5"/>
                </g>
                <g id="arrowDown" xlink:href="#dirArrow" transform="rotate(180) translate(-30 -48)" onmousedown="handlePan(0,1)">
                  <use xlink:href="#rim" fill="#404040">
                        <set attributeName="fill" to="#808080" begin="arrowDown.mouseover" end="arrowDown.mouseout"/>
                  </use>
                  <path fill="none" stroke="white" stroke-width="1.5" d="M0,-3.0v7 M-2.5,-0.5L0,-3.0L2.5,-0.5"/>
                </g>
                <g id="arrowLeft" xlink:href="#dirArrow" transform="rotate(270) translate(-36 17)" onmousedown="handlePan(-1,0)">
                  <use xlink:href="#rim" fill="#404040">
                        <set attributeName="fill" to="#808080" begin="arrowLeft.mouseover" end="arrowLeft.mouseout"/>
                  </use>
                  <path fill="none" stroke="white" stroke-width="1.5" d="M0,-3.0v7 M-2.5,-0.5L0,-3.0L2.5,-0.5"/>
                </g>
        </g>
        <svg viewBox="0 0 15 15" width="100%" height="30px" preserveAspectRatio="xMaxYMin meet">
         <g id="arrow_out" transform="scale(0.3 0.3)">
          <a xlink:href="classStateTwo_a9bc7edda2944afa1f2c7ca87441e81b0_icgraph_org.svg" target="_base">
           <rect id="button" ry="5" rx="5" y="6" x="6" height="38" width="38"
                fill="#f2f5e9" fill-opacity="0.5" stroke="#606060" stroke-width="1.0"/>
           <path id="arrow"
             d="M 11.500037,31.436501 C 11.940474,20.09759 22.043105,11.32322 32.158766,21.979434 L 37.068811,17.246167 C 37.068811,17.246167 37.088388,32 37.088388,32 L 22.160133,31.978069 C 22.160133,31.978069 26.997745,27.140456 26.997745,27.140456 C 18.528582,18.264221 13.291696,25.230495 11.500037,31.436501 z"
             style="fill:#404040;"/>
          </a>
         </g>
        </svg>
</svg>
