<?xml version="1.0" encoding="UTF-8" standalone="no"?>
<!DOCTYPE svg PUBLIC "-//W3C//DTD SVG 1.1//EN"
 "http://www.w3.org/Graphics/SVG/1.1/DTD/svg11.dtd">
<!-- Generated by graphviz version 2.38.0 (20140413.2041)
 -->
<!-- Title: PerturbativeInteraction::getC3 Pages: 1 -->
<svg width="438pt" height="39pt"
 viewBox="0.00 0.00 438.00 39.00" xmlns="http://www.w3.org/2000/svg" xmlns:xlink="http://www.w3.org/1999/xlink">
<g id="graph0" class="graph" transform="scale(1 1) rotate(0) translate(4 35)">
<title>PerturbativeInteraction::getC3</title>
<!-- Node6 -->
<g id="node1" class="node"><title>Node6</title>
<polygon fill="#bfbfbf" stroke="black" points="0,-0.5 0,-30.5 126,-30.5 126,-0.5 0,-0.5"/>
<text text-anchor="start" x="8" y="-18.5" font-family="Helvetica,sans-Serif" font-size="10.00">PerturbativeInteraction</text>
<text text-anchor="middle" x="63" y="-7.5" font-family="Helvetica,sans-Serif" font-size="10.00">::getC3</text>
</g>
<!-- Node7 -->
<g id="node2" class="node"><title>Node7</title>
<g id="a_node2"><a xlink:href="classMatrixElementCache.html#ac6191cd01c85dd9cf28a373b524f0b1b" target="_top" xlink:title="Get matrix elements ////////////////////////////////////////////. ">
<polygon fill="none" stroke="black" points="162,-0.5 162,-30.5 278,-30.5 278,-0.5 162,-0.5"/>
<text text-anchor="start" x="170" y="-18.5" font-family="Helvetica,sans-Serif" font-size="10.00">MatrixElementCache</text>
<text text-anchor="middle" x="220" y="-7.5" font-family="Helvetica,sans-Serif" font-size="10.00">::getElectricDipole</text>
</a>
</g>
</g>
<!-- Node6&#45;&gt;Node7 -->
<g id="edge1" class="edge"><title>Node6&#45;&gt;Node7</title>
<path fill="none" stroke="midnightblue" d="M126.151,-15.5C134.534,-15.5 143.167,-15.5 151.635,-15.5"/>
<polygon fill="midnightblue" stroke="midnightblue" points="151.855,-19.0001 161.855,-15.5 151.855,-12.0001 151.855,-19.0001"/>
</g>
<!-- Node8 -->
<g id="node3" class="node"><title>Node8</title>
<g id="a_node3"><a xlink:href="classMatrixElementCache.html#a2407b99847793920a9d4ed0d8b156d8a" target="_top" xlink:title="MatrixElementCache\l::getElectricMultipole">
<polygon fill="none" stroke="black" points="314,-0.5 314,-30.5 430,-30.5 430,-0.5 314,-0.5"/>
<text text-anchor="start" x="322" y="-18.5" font-family="Helvetica,sans-Serif" font-size="10.00">MatrixElementCache</text>
<text text-anchor="middle" x="372" y="-7.5" font-family="Helvetica,sans-Serif" font-size="10.00">::getElectricMultipole</text>
</a>
</g>
</g>
<!-- Node7&#45;&gt;Node8 -->
<g id="edge2" class="edge"><title>Node7&#45;&gt;Node8</title>
<path fill="none" stroke="midnightblue" d="M278.136,-15.5C286.377,-15.5 294.923,-15.5 303.344,-15.5"/>
<polygon fill="midnightblue" stroke="midnightblue" points="303.526,-19.0001 313.525,-15.5 303.525,-12.0001 303.526,-19.0001"/>
</g>
</g>
</svg>
