<?xml version="1.0" encoding="UTF-8" standalone="no"?>
<!DOCTYPE svg PUBLIC "-//W3C//DTD SVG 1.1//EN"
 "http://www.w3.org/Graphics/SVG/1.1/DTD/svg11.dtd">
<!-- Generated by graphviz version 2.38.0 (20140413.2041)
 -->
<!-- Title: StateOne::getEnergy Pages: 1 -->
<svg width="494pt" height="104pt"
 viewBox="0.00 0.00 494.00 104.00" xmlns="http://www.w3.org/2000/svg" xmlns:xlink="http://www.w3.org/1999/xlink">
<g id="graph0" class="graph" transform="scale(1 1) rotate(0) translate(4 100)">
<title>StateOne::getEnergy</title>
<!-- Node10 -->
<g id="node1" class="node"><title>Node10</title>
<polygon fill="#bfbfbf" stroke="black" points="0,-38.5 0,-57.5 117,-57.5 117,-38.5 0,-38.5"/>
<text text-anchor="middle" x="58.5" y="-45.5" font-family="Helvetica,sans-Serif" font-size="10.00">StateOne::getEnergy</text>
</g>
<!-- Node11 -->
<g id="node2" class="node"><title>Node11</title>
<g id="a_node2"><a xlink:href="integration__test_8cpp.html#a0edc7e03850724a3784df426b75fb1d2" target="_top" xlink:title="BOOST_FIXTURE_TEST_CASE">
<polygon fill="none" stroke="black" points="332,-76.5 332,-95.5 486,-95.5 486,-76.5 332,-76.5"/>
<text text-anchor="middle" x="409" y="-83.5" font-family="Helvetica,sans-Serif" font-size="10.00">BOOST_FIXTURE_TEST_CASE</text>
</a>
</g>
</g>
<!-- Node10&#45;&gt;Node11 -->
<g id="edge1" class="edge"><title>Node10&#45;&gt;Node11</title>
<path fill="none" stroke="midnightblue" d="M110.901,-59.6566C124.528,-62.4141 139.271,-65.1013 153,-67 212.806,-75.271 281.036,-80.1164 331.86,-82.8415"/>
<polygon fill="midnightblue" stroke="midnightblue" points="111.235,-56.1515 100.733,-57.5461 109.813,-63.0054 111.235,-56.1515"/>
</g>
<!-- Node12 -->
<g id="node3" class="node"><title>Node12</title>
<g id="a_node3"><a xlink:href="classStateTwo.html#a3f9e530a17bed5048f16653dcd9c7991" target="_top" xlink:title="StateTwo::getEnergy">
<polygon fill="none" stroke="black" points="167.5,-38.5 167.5,-57.5 281.5,-57.5 281.5,-38.5 167.5,-38.5"/>
<text text-anchor="middle" x="224.5" y="-45.5" font-family="Helvetica,sans-Serif" font-size="10.00">StateTwo::getEnergy</text>
</a>
</g>
</g>
<!-- Node10&#45;&gt;Node12 -->
<g id="edge2" class="edge"><title>Node10&#45;&gt;Node12</title>
<path fill="none" stroke="midnightblue" d="M127.359,-48C140.647,-48 154.447,-48 167.304,-48"/>
<polygon fill="midnightblue" stroke="midnightblue" points="127.32,-44.5001 117.32,-48 127.32,-51.5001 127.32,-44.5001"/>
</g>
<!-- Node14 -->
<g id="node5" class="node"><title>Node14</title>
<g id="a_node5"><a xlink:href="classSystemOne.html#a1548df0406b8a36e4307f8dbf9226990" target="_top" xlink:title="Method that allows base class to initialize Basis //////////////. ">
<polygon fill="none" stroke="black" points="153,-0.5 153,-19.5 296,-19.5 296,-0.5 153,-0.5"/>
<text text-anchor="middle" x="224.5" y="-7.5" font-family="Helvetica,sans-Serif" font-size="10.00">SystemOne::initializeBasis</text>
</a>
</g>
</g>
<!-- Node10&#45;&gt;Node14 -->
<g id="edge5" class="edge"><title>Node10&#45;&gt;Node14</title>
<path fill="none" stroke="midnightblue" d="M110.841,-36.1039C133.893,-30.7626 160.721,-24.5463 182.413,-19.5201"/>
<polygon fill="midnightblue" stroke="midnightblue" points="109.836,-32.744 100.884,-38.411 111.416,-39.5633 109.836,-32.744"/>
</g>
<!-- Node12&#45;&gt;Node11 -->
<g id="edge4" class="edge"><title>Node12&#45;&gt;Node11</title>
<path fill="none" stroke="midnightblue" d="M281.599,-59.681C307.48,-65.0699 337.815,-71.3861 362.279,-76.4799"/>
<polygon fill="midnightblue" stroke="midnightblue" points="282.056,-56.201 271.552,-57.589 280.629,-63.0541 282.056,-56.201"/>
</g>
<!-- Node13 -->
<g id="node4" class="node"><title>Node13</title>
<g id="a_node4"><a xlink:href="classPerturbativeInteraction.html#a6ed147d3eeaa7057c3c4e9b1dce6747a" target="_top" xlink:title="PerturbativeInteraction\l::getC6">
<polygon fill="none" stroke="black" points="346,-27 346,-57 472,-57 472,-27 346,-27"/>
<text text-anchor="start" x="354" y="-45" font-family="Helvetica,sans-Serif" font-size="10.00">PerturbativeInteraction</text>
<text text-anchor="middle" x="409" y="-34" font-family="Helvetica,sans-Serif" font-size="10.00">::getC6</text>
</a>
</g>
</g>
<!-- Node12&#45;&gt;Node13 -->
<g id="edge3" class="edge"><title>Node12&#45;&gt;Node13</title>
<path fill="none" stroke="midnightblue" d="M291.944,-45.8155C309.565,-45.2362 328.521,-44.613 345.901,-44.0416"/>
<polygon fill="midnightblue" stroke="midnightblue" points="291.625,-42.324 281.745,-46.1508 291.855,-49.3203 291.625,-42.324"/>
</g>
</g>
</svg>
