<?xml version="1.0" encoding="UTF-8" standalone="no"?>
<!DOCTYPE svg PUBLIC "-//W3C//DTD SVG 1.1//EN"
 "http://www.w3.org/Graphics/SVG/1.1/DTD/svg11.dtd">
<!-- Generated by graphviz version 2.38.0 (20140413.2041)
 -->
<!-- Title: /travis/libpairinteraction/ConfParser.cpp Pages: 1 -->
<svg width="553pt" height="162pt"
 viewBox="0.00 0.00 553.00 162.00" xmlns="http://www.w3.org/2000/svg" xmlns:xlink="http://www.w3.org/1999/xlink">
<g id="graph0" class="graph" transform="scale(1 1) rotate(0) translate(4 158)">
<title>/travis/libpairinteraction/ConfParser.cpp</title>
<!-- Node0 -->
<g id="node1" class="node"><title>Node0</title>
<polygon fill="#bfbfbf" stroke="black" points="253,-123.5 253,-153.5 381,-153.5 381,-123.5 253,-123.5"/>
<text text-anchor="start" x="261" y="-141.5" font-family="Helvetica,sans-Serif" font-size="10.00">/travis/libpairinteraction</text>
<text text-anchor="middle" x="317" y="-130.5" font-family="Helvetica,sans-Serif" font-size="10.00">/ConfParser.cpp</text>
</g>
<!-- Node1 -->
<g id="node2" class="node"><title>Node1</title>
<g id="a_node2"><a xlink:href="ConfParser_8h.html" target="_top" xlink:title="ConfParser.h">
<polygon fill="none" stroke="black" points="152.5,-62 152.5,-81 229.5,-81 229.5,-62 152.5,-62"/>
<text text-anchor="middle" x="191" y="-69" font-family="Helvetica,sans-Serif" font-size="10.00">ConfParser.h</text>
</a>
</g>
</g>
<!-- Node0&#45;&gt;Node1 -->
<g id="edge1" class="edge"><title>Node0&#45;&gt;Node1</title>
<path fill="none" stroke="midnightblue" d="M289.66,-123.396C267.943,-112.193 237.797,-96.6412 216.559,-85.6853"/>
<polygon fill="midnightblue" stroke="midnightblue" points="217.982,-82.4812 207.49,-81.007 214.773,-88.7022 217.982,-82.4812"/>
</g>
<!-- Node4 -->
<g id="node5" class="node"><title>Node4</title>
<polygon fill="none" stroke="#bfbfbf" points="270,-0.5 270,-19.5 314,-19.5 314,-0.5 270,-0.5"/>
<text text-anchor="middle" x="292" y="-7.5" font-family="Helvetica,sans-Serif" font-size="10.00">string</text>
</g>
<!-- Node0&#45;&gt;Node4 -->
<g id="edge8" class="edge"><title>Node0&#45;&gt;Node4</title>
<path fill="none" stroke="midnightblue" d="M308.751,-123.46C303.44,-113.617 296.99,-99.9541 294,-87 289.6,-67.9378 289.625,-45.4723 290.425,-29.9344"/>
<polygon fill="midnightblue" stroke="midnightblue" points="293.943,-29.788 291.128,-19.5739 286.959,-29.314 293.943,-29.788"/>
</g>
<!-- Node6 -->
<g id="node7" class="node"><title>Node6</title>
<polygon fill="none" stroke="#bfbfbf" points="303,-56.5 303,-86.5 415,-86.5 415,-56.5 303,-56.5"/>
<text text-anchor="start" x="311" y="-74.5" font-family="Helvetica,sans-Serif" font-size="10.00">boost/property_tree</text>
<text text-anchor="middle" x="359" y="-63.5" font-family="Helvetica,sans-Serif" font-size="10.00">/json_parser.hpp</text>
</g>
<!-- Node0&#45;&gt;Node6 -->
<g id="edge6" class="edge"><title>Node0&#45;&gt;Node6</title>
<path fill="none" stroke="midnightblue" d="M326.113,-123.396C331.452,-115.134 338.319,-104.507 344.396,-95.1017"/>
<polygon fill="midnightblue" stroke="midnightblue" points="347.417,-96.8752 349.904,-86.5765 341.537,-93.0762 347.417,-96.8752"/>
</g>
<!-- Node7 -->
<g id="node8" class="node"><title>Node7</title>
<polygon fill="none" stroke="#bfbfbf" points="433,-56.5 433,-86.5 545,-86.5 545,-56.5 433,-56.5"/>
<text text-anchor="start" x="441" y="-74.5" font-family="Helvetica,sans-Serif" font-size="10.00">boost/property_tree</text>
<text text-anchor="middle" x="489" y="-63.5" font-family="Helvetica,sans-Serif" font-size="10.00">/ptree.hpp</text>
</g>
<!-- Node0&#45;&gt;Node7 -->
<g id="edge7" class="edge"><title>Node0&#45;&gt;Node7</title>
<path fill="none" stroke="midnightblue" d="M354.321,-123.396C380.129,-113.643 414.656,-100.595 442.29,-90.152"/>
<polygon fill="midnightblue" stroke="midnightblue" points="443.634,-93.3856 451.751,-86.5765 441.16,-86.8376 443.634,-93.3856"/>
</g>
<!-- Node2 -->
<g id="node3" class="node"><title>Node2</title>
<polygon fill="none" stroke="#bfbfbf" points="0,-0.5 0,-19.5 38,-19.5 38,-0.5 0,-0.5"/>
<text text-anchor="middle" x="19" y="-7.5" font-family="Helvetica,sans-Serif" font-size="10.00">map</text>
</g>
<!-- Node1&#45;&gt;Node2 -->
<g id="edge2" class="edge"><title>Node1&#45;&gt;Node2</title>
<path fill="none" stroke="midnightblue" d="M166.357,-61.9751C134.957,-51.113 80.7877,-32.3742 47.6013,-20.894"/>
<polygon fill="midnightblue" stroke="midnightblue" points="48.6189,-17.5426 38.0241,-17.581 46.3304,-24.158 48.6189,-17.5426"/>
</g>
<!-- Node3 -->
<g id="node4" class="node"><title>Node3</title>
<polygon fill="none" stroke="#bfbfbf" points="56,-0.5 56,-19.5 112,-19.5 112,-0.5 56,-0.5"/>
<text text-anchor="middle" x="84" y="-7.5" font-family="Helvetica,sans-Serif" font-size="10.00">sstream</text>
</g>
<!-- Node1&#45;&gt;Node3 -->
<g id="edge3" class="edge"><title>Node1&#45;&gt;Node3</title>
<path fill="none" stroke="midnightblue" d="M175.67,-61.9751C158.03,-52.1664 128.84,-35.9346 108.142,-24.425"/>
<polygon fill="midnightblue" stroke="midnightblue" points="109.743,-21.3102 99.3021,-19.5091 106.341,-27.4279 109.743,-21.3102"/>
</g>
<!-- Node1&#45;&gt;Node4 -->
<g id="edge4" class="edge"><title>Node1&#45;&gt;Node4</title>
<path fill="none" stroke="midnightblue" d="M205.471,-61.9751C221.971,-52.2548 249.178,-36.2266 268.681,-24.7372"/>
<polygon fill="midnightblue" stroke="midnightblue" points="270.716,-27.6005 277.556,-19.5091 267.163,-21.5693 270.716,-27.6005"/>
</g>
<!-- Node5 -->
<g id="node6" class="node"><title>Node5</title>
<polygon fill="none" stroke="#bfbfbf" points="130,-0.5 130,-19.5 252,-19.5 252,-0.5 130,-0.5"/>
<text text-anchor="middle" x="191" y="-7.5" font-family="Helvetica,sans-Serif" font-size="10.00">boost/lexical_cast.hpp</text>
</g>
<!-- Node1&#45;&gt;Node5 -->
<g id="edge5" class="edge"><title>Node1&#45;&gt;Node5</title>
<path fill="none" stroke="midnightblue" d="M191,-61.9751C191,-53.5803 191,-40.4806 191,-29.6631"/>
<polygon fill="midnightblue" stroke="midnightblue" points="194.5,-29.5091 191,-19.5091 187.5,-29.5091 194.5,-29.5091"/>
</g>
</g>
</svg>
