<?xml version="1.0" encoding="UTF-8" standalone="no"?>
<!DOCTYPE svg PUBLIC "-//W3C//DTD SVG 1.1//EN"
 "http://www.w3.org/Graphics/SVG/1.1/DTD/svg11.dtd">
<!-- Generated by graphviz version 2.38.0 (20140413.2041)
 -->
<!-- Title: /travis/libpairinteraction/ConfParser.h Pages: 1 -->
<svg width="1665pt" height="441pt"
 viewBox="0.00 0.00 1664.50 441.00" xmlns="http://www.w3.org/2000/svg" xmlns:xlink="http://www.w3.org/1999/xlink">
<g id="graph0" class="graph" transform="scale(1 1) rotate(0) translate(4 437)">
<title>/travis/libpairinteraction/ConfParser.h</title>
<!-- Node5 -->
<g id="node1" class="node"><title>Node5</title>
<polygon fill="#bfbfbf" stroke="black" points="1234,-402.5 1234,-432.5 1362,-432.5 1362,-402.5 1234,-402.5"/>
<text text-anchor="start" x="1242" y="-420.5" font-family="Helvetica,sans-Serif" font-size="10.00">/travis/libpairinteraction</text>
<text text-anchor="middle" x="1298" y="-409.5" font-family="Helvetica,sans-Serif" font-size="10.00">/ConfParser.h</text>
</g>
<!-- Node6 -->
<g id="node2" class="node"><title>Node6</title>
<g id="a_node2"><a xlink:href="Basisnames_8h.html" target="_top" xlink:title="/travis/libpairinteraction\l/Basisnames.h">
<polygon fill="none" stroke="black" points="885,-335.5 885,-365.5 1013,-365.5 1013,-335.5 885,-335.5"/>
<text text-anchor="start" x="893" y="-353.5" font-family="Helvetica,sans-Serif" font-size="10.00">/travis/libpairinteraction</text>
<text text-anchor="middle" x="949" y="-342.5" font-family="Helvetica,sans-Serif" font-size="10.00">/Basisnames.h</text>
</a>
</g>
</g>
<!-- Node5&#45;&gt;Node6 -->
<g id="edge1" class="edge"><title>Node5&#45;&gt;Node6</title>
<path fill="none" stroke="midnightblue" d="M1223.8,-402.68C1161.27,-391.034 1072.72,-374.542 1013.2,-363.456"/>
<polygon fill="midnightblue" stroke="midnightblue" points="1223.52,-406.188 1233.99,-404.578 1224.8,-399.306 1223.52,-406.188"/>
</g>
<!-- Node10 -->
<g id="node6" class="node"><title>Node10</title>
<g id="a_node6"><a xlink:href="HamiltonianOne_8h.html" target="_top" xlink:title="/travis/libpairinteraction\l/HamiltonianOne.h">
<polygon fill="none" stroke="black" points="1085,-134.5 1085,-164.5 1213,-164.5 1213,-134.5 1085,-134.5"/>
<text text-anchor="start" x="1093" y="-152.5" font-family="Helvetica,sans-Serif" font-size="10.00">/travis/libpairinteraction</text>
<text text-anchor="middle" x="1149" y="-141.5" font-family="Helvetica,sans-Serif" font-size="10.00">/HamiltonianOne.h</text>
</a>
</g>
</g>
<!-- Node5&#45;&gt;Node10 -->
<g id="edge33" class="edge"><title>Node5&#45;&gt;Node10</title>
<path fill="none" stroke="midnightblue" d="M1297.13,-392.174C1294.41,-349.218 1283.3,-259 1238,-201 1225.2,-184.619 1205.52,-172.663 1187.91,-164.509"/>
<polygon fill="midnightblue" stroke="midnightblue" points="1293.64,-392.464 1297.66,-402.265 1300.63,-392.093 1293.64,-392.464"/>
</g>
<!-- Node12 -->
<g id="node8" class="node"><title>Node12</title>
<g id="a_node8"><a xlink:href="HamiltonianTwo_8h.html" target="_top" xlink:title="/travis/libpairinteraction\l/HamiltonianTwo.h">
<polygon fill="none" stroke="black" points="899,-67.5 899,-97.5 1027,-97.5 1027,-67.5 899,-67.5"/>
<text text-anchor="start" x="907" y="-85.5" font-family="Helvetica,sans-Serif" font-size="10.00">/travis/libpairinteraction</text>
<text text-anchor="middle" x="963" y="-74.5" font-family="Helvetica,sans-Serif" font-size="10.00">/HamiltonianTwo.h</text>
</a>
</g>
</g>
<!-- Node5&#45;&gt;Node12 -->
<g id="edge34" class="edge"><title>Node5&#45;&gt;Node12</title>
<path fill="none" stroke="midnightblue" d="M1223.52,-414.761C1068.83,-409.124 727,-385.266 727,-284.5 727,-284.5 727,-284.5 727,-215.5 727,-176.252 731.243,-159.591 761,-134 799.096,-101.237 855.375,-89.1644 898.86,-84.9728"/>
<polygon fill="midnightblue" stroke="midnightblue" points="1223.77,-418.272 1233.89,-415.121 1224.01,-411.276 1223.77,-418.272"/>
</g>
<!-- Node14 -->
<g id="node10" class="node"><title>Node14</title>
<g id="a_node10"><a xlink:href="Interface_8cpp.html" target="_top" xlink:title="/travis/libpairinteraction\l/Interface.cpp">
<polygon fill="none" stroke="black" points="1150,-0.5 1150,-30.5 1278,-30.5 1278,-0.5 1150,-0.5"/>
<text text-anchor="start" x="1158" y="-18.5" font-family="Helvetica,sans-Serif" font-size="10.00">/travis/libpairinteraction</text>
<text text-anchor="middle" x="1214" y="-7.5" font-family="Helvetica,sans-Serif" font-size="10.00">/Interface.cpp</text>
</a>
</g>
</g>
<!-- Node5&#45;&gt;Node14 -->
<g id="edge35" class="edge"><title>Node5&#45;&gt;Node14</title>
<path fill="none" stroke="midnightblue" d="M1303.56,-392.493C1309.17,-366.153 1317,-322.553 1317,-284.5 1317,-284.5 1317,-284.5 1317,-148.5 1317,-96.1779 1266.08,-52.175 1235.84,-30.6596"/>
<polygon fill="midnightblue" stroke="midnightblue" points="1300.13,-391.819 1301.4,-402.337 1306.96,-393.322 1300.13,-391.819"/>
</g>
<!-- Node28 -->
<g id="node24" class="node"><title>Node28</title>
<g id="a_node24"><a xlink:href="ConfParser_8cpp.html" target="_top" xlink:title="/travis/libpairinteraction\l/ConfParser.cpp">
<polygon fill="none" stroke="black" points="1345,-335.5 1345,-365.5 1473,-365.5 1473,-335.5 1345,-335.5"/>
<text text-anchor="start" x="1353" y="-353.5" font-family="Helvetica,sans-Serif" font-size="10.00">/travis/libpairinteraction</text>
<text text-anchor="middle" x="1409" y="-342.5" font-family="Helvetica,sans-Serif" font-size="10.00">/ConfParser.cpp</text>
</a>
</g>
</g>
<!-- Node5&#45;&gt;Node28 -->
<g id="edge32" class="edge"><title>Node5&#45;&gt;Node28</title>
<path fill="none" stroke="midnightblue" d="M1330.8,-397.296C1348.16,-387.125 1369.12,-374.855 1384.96,-365.577"/>
<polygon fill="midnightblue" stroke="midnightblue" points="1328.95,-394.322 1322.09,-402.396 1332.48,-400.363 1328.95,-394.322"/>
</g>
<!-- Node29 -->
<g id="node25" class="node"><title>Node29</title>
<g id="a_node25"><a xlink:href="conf__parser__test_8cpp.html" target="_top" xlink:title="/travis/libpairinteraction\l/unit_test/conf_parser_test.cpp">
<polygon fill="none" stroke="black" points="1491.5,-335.5 1491.5,-365.5 1656.5,-365.5 1656.5,-335.5 1491.5,-335.5"/>
<text text-anchor="start" x="1499.5" y="-353.5" font-family="Helvetica,sans-Serif" font-size="10.00">/travis/libpairinteraction</text>
<text text-anchor="middle" x="1574" y="-342.5" font-family="Helvetica,sans-Serif" font-size="10.00">/unit_test/conf_parser_test.cpp</text>
</a>
</g>
</g>
<!-- Node5&#45;&gt;Node29 -->
<g id="edge36" class="edge"><title>Node5&#45;&gt;Node29</title>
<path fill="none" stroke="midnightblue" d="M1367.56,-400.119C1412.72,-389.483 1470.98,-375.763 1514.08,-365.611"/>
<polygon fill="midnightblue" stroke="midnightblue" points="1366.48,-396.777 1357.55,-402.476 1368.08,-403.59 1366.48,-396.777"/>
</g>
<!-- Node7 -->
<g id="node3" class="node"><title>Node7</title>
<g id="a_node3"><a xlink:href="Basisnames_8cpp.html" target="_top" xlink:title="/travis/libpairinteraction\l/Basisnames.cpp">
<polygon fill="none" stroke="black" points="793,-268.5 793,-298.5 921,-298.5 921,-268.5 793,-268.5"/>
<text text-anchor="start" x="801" y="-286.5" font-family="Helvetica,sans-Serif" font-size="10.00">/travis/libpairinteraction</text>
<text text-anchor="middle" x="857" y="-275.5" font-family="Helvetica,sans-Serif" font-size="10.00">/Basisnames.cpp</text>
</a>
</g>
</g>
<!-- Node6&#45;&gt;Node7 -->
<g id="edge2" class="edge"><title>Node6&#45;&gt;Node7</title>
<path fill="none" stroke="midnightblue" d="M920.623,-329.451C906.47,-319.452 889.695,-307.6 876.924,-298.577"/>
<polygon fill="midnightblue" stroke="midnightblue" points="918.851,-332.484 929.037,-335.396 922.89,-326.767 918.851,-332.484"/>
</g>
<!-- Node8 -->
<g id="node4" class="node"><title>Node8</title>
<g id="a_node4"><a xlink:href="Hamiltonianmatrix_8h.html" target="_top" xlink:title="/travis/libpairinteraction\l/Hamiltonianmatrix.h">
<polygon fill="none" stroke="black" points="977,-268.5 977,-298.5 1105,-298.5 1105,-268.5 977,-268.5"/>
<text text-anchor="start" x="985" y="-286.5" font-family="Helvetica,sans-Serif" font-size="10.00">/travis/libpairinteraction</text>
<text text-anchor="middle" x="1041" y="-275.5" font-family="Helvetica,sans-Serif" font-size="10.00">/Hamiltonianmatrix.h</text>
</a>
</g>
</g>
<!-- Node6&#45;&gt;Node8 -->
<g id="edge3" class="edge"><title>Node6&#45;&gt;Node8</title>
<path fill="none" stroke="midnightblue" d="M977.377,-329.451C991.53,-319.452 1008.31,-307.6 1021.08,-298.577"/>
<polygon fill="midnightblue" stroke="midnightblue" points="975.11,-326.767 968.963,-335.396 979.149,-332.484 975.11,-326.767"/>
</g>
<!-- Node6&#45;&gt;Node10 -->
<g id="edge13" class="edge"><title>Node6&#45;&gt;Node10</title>
<path fill="none" stroke="midnightblue" d="M1023.21,-341.969C1089.77,-330.668 1182.8,-302.443 1222,-232 1228.7,-219.961 1228.4,-213.203 1222,-201 1213.56,-184.894 1197.39,-172.906 1182.41,-164.662"/>
<polygon fill="midnightblue" stroke="midnightblue" points="1022.5,-338.538 1013.18,-343.579 1023.61,-345.449 1022.5,-338.538"/>
</g>
<!-- Node6&#45;&gt;Node12 -->
<g id="edge18" class="edge"><title>Node6&#45;&gt;Node12</title>
<path fill="none" stroke="midnightblue" d="M874.633,-345.979C841.323,-340.228 804.908,-327.265 784,-299 740.389,-240.044 739.742,-192.472 784,-134 798.08,-115.399 853.295,-101.707 898.723,-93.3086"/>
<polygon fill="midnightblue" stroke="midnightblue" points="874.436,-349.489 884.851,-347.541 875.494,-342.569 874.436,-349.489"/>
</g>
<!-- Node16 -->
<g id="node12" class="node"><title>Node16</title>
<g id="a_node12"><a xlink:href="MatrixElements_8h.html" target="_top" xlink:title="/travis/libpairinteraction\l/MatrixElements.h">
<polygon fill="none" stroke="black" points="793,-201.5 793,-231.5 921,-231.5 921,-201.5 793,-201.5"/>
<text text-anchor="start" x="801" y="-219.5" font-family="Helvetica,sans-Serif" font-size="10.00">/travis/libpairinteraction</text>
<text text-anchor="middle" x="857" y="-208.5" font-family="Helvetica,sans-Serif" font-size="10.00">/MatrixElements.h</text>
</a>
</g>
</g>
<!-- Node6&#45;&gt;Node16 -->
<g id="edge14" class="edge"><title>Node6&#45;&gt;Node16</title>
<path fill="none" stroke="midnightblue" d="M947.889,-324.924C946.068,-307.705 941.462,-284.851 930,-268 919.339,-252.327 902.071,-240.057 887.005,-231.538"/>
<polygon fill="midnightblue" stroke="midnightblue" points="944.434,-325.62 948.728,-335.306 951.411,-325.056 944.434,-325.62"/>
</g>
<!-- Node18 -->
<g id="node14" class="node"><title>Node18</title>
<g id="a_node14"><a xlink:href="MatrixElementCache_8h.html" target="_top" xlink:title="/travis/libpairinteraction\l/MatrixElementCache.h">
<polygon fill="none" stroke="black" points="408,-268.5 408,-298.5 536,-298.5 536,-268.5 408,-268.5"/>
<text text-anchor="start" x="416" y="-286.5" font-family="Helvetica,sans-Serif" font-size="10.00">/travis/libpairinteraction</text>
<text text-anchor="middle" x="472" y="-275.5" font-family="Helvetica,sans-Serif" font-size="10.00">/MatrixElementCache.h</text>
</a>
</g>
</g>
<!-- Node6&#45;&gt;Node18 -->
<g id="edge19" class="edge"><title>Node6&#45;&gt;Node18</title>
<path fill="none" stroke="midnightblue" d="M874.487,-339.346C781.467,-326.671 623.929,-305.203 536.071,-293.231"/>
<polygon fill="midnightblue" stroke="midnightblue" points="874.289,-342.851 884.67,-340.734 875.234,-335.916 874.289,-342.851"/>
</g>
<!-- Node9 -->
<g id="node5" class="node"><title>Node9</title>
<g id="a_node5"><a xlink:href="Hamiltonian_8h.html" target="_top" xlink:title="/travis/libpairinteraction\l/Hamiltonian.h">
<polygon fill="none" stroke="black" points="1085,-201.5 1085,-231.5 1213,-231.5 1213,-201.5 1085,-201.5"/>
<text text-anchor="start" x="1093" y="-219.5" font-family="Helvetica,sans-Serif" font-size="10.00">/travis/libpairinteraction</text>
<text text-anchor="middle" x="1149" y="-208.5" font-family="Helvetica,sans-Serif" font-size="10.00">/Hamiltonian.h</text>
</a>
</g>
</g>
<!-- Node8&#45;&gt;Node9 -->
<g id="edge4" class="edge"><title>Node8&#45;&gt;Node9</title>
<path fill="none" stroke="midnightblue" d="M1073.37,-263.015C1090.18,-252.9 1110.34,-240.77 1125.61,-231.577"/>
<polygon fill="midnightblue" stroke="midnightblue" points="1071.2,-260.241 1064.43,-268.396 1074.81,-266.238 1071.2,-260.241"/>
</g>
<!-- Node15 -->
<g id="node11" class="node"><title>Node15</title>
<g id="a_node11"><a xlink:href="Hamiltonianmatrix_8cpp.html" target="_top" xlink:title="/travis/libpairinteraction\l/Hamiltonianmatrix.cpp">
<polygon fill="none" stroke="black" points="939,-201.5 939,-231.5 1067,-231.5 1067,-201.5 939,-201.5"/>
<text text-anchor="start" x="947" y="-219.5" font-family="Helvetica,sans-Serif" font-size="10.00">/travis/libpairinteraction</text>
<text text-anchor="middle" x="1003" y="-208.5" font-family="Helvetica,sans-Serif" font-size="10.00">/Hamiltonianmatrix.cpp</text>
</a>
</g>
</g>
<!-- Node8&#45;&gt;Node15 -->
<g id="edge12" class="edge"><title>Node8&#45;&gt;Node15</title>
<path fill="none" stroke="midnightblue" d="M1027.6,-259.576C1022.14,-250.241 1016.01,-239.748 1011.23,-231.577"/>
<polygon fill="midnightblue" stroke="midnightblue" points="1024.69,-261.529 1032.75,-268.396 1030.73,-257.997 1024.69,-261.529"/>
</g>
<!-- Node9&#45;&gt;Node10 -->
<g id="edge5" class="edge"><title>Node9&#45;&gt;Node10</title>
<path fill="none" stroke="midnightblue" d="M1149,-191.108C1149,-182.154 1149,-172.323 1149,-164.577"/>
<polygon fill="midnightblue" stroke="midnightblue" points="1145.5,-191.396 1149,-201.396 1152.5,-191.396 1145.5,-191.396"/>
</g>
<!-- Node9&#45;&gt;Node12 -->
<g id="edge11" class="edge"><title>Node9&#45;&gt;Node12</title>
<path fill="none" stroke="midnightblue" d="M1120.08,-195.684C1106.63,-186.424 1090.46,-175.211 1076,-165 1043.01,-141.694 1004.97,-114.112 982.514,-97.7515"/>
<polygon fill="midnightblue" stroke="midnightblue" points="1118.25,-198.675 1128.47,-201.458 1122.22,-192.908 1118.25,-198.675"/>
</g>
<!-- Node11 -->
<g id="node7" class="node"><title>Node11</title>
<g id="a_node7"><a xlink:href="HamiltonianOne_8cpp.html" target="_top" xlink:title="/travis/libpairinteraction\l/HamiltonianOne.cpp">
<polygon fill="none" stroke="black" points="1058,-67.5 1058,-97.5 1186,-97.5 1186,-67.5 1058,-67.5"/>
<text text-anchor="start" x="1066" y="-85.5" font-family="Helvetica,sans-Serif" font-size="10.00">/travis/libpairinteraction</text>
<text text-anchor="middle" x="1122" y="-74.5" font-family="Helvetica,sans-Serif" font-size="10.00">/HamiltonianOne.cpp</text>
</a>
</g>
</g>
<!-- Node10&#45;&gt;Node11 -->
<g id="edge6" class="edge"><title>Node10&#45;&gt;Node11</title>
<path fill="none" stroke="midnightblue" d="M1139.23,-124.991C1135.42,-115.804 1131.17,-105.578 1127.85,-97.5765"/>
<polygon fill="midnightblue" stroke="midnightblue" points="1136.07,-126.504 1143.14,-134.396 1142.54,-123.818 1136.07,-126.504"/>
</g>
<!-- Node10&#45;&gt;Node12 -->
<g id="edge7" class="edge"><title>Node10&#45;&gt;Node12</title>
<path fill="none" stroke="midnightblue" d="M1099.19,-131.092C1069.16,-120.599 1031.41,-107.408 1003.28,-97.5765"/>
<polygon fill="midnightblue" stroke="midnightblue" points="1098.05,-134.401 1108.64,-134.396 1100.36,-127.793 1098.05,-134.401"/>
</g>
<!-- Node10&#45;&gt;Node14 -->
<g id="edge10" class="edge"><title>Node10&#45;&gt;Node14</title>
<path fill="none" stroke="midnightblue" d="M1173.03,-127.055C1181.08,-118.712 1189.42,-108.609 1195,-98 1206.49,-76.1371 1211.1,-47.3711 1212.9,-30.5112"/>
<polygon fill="midnightblue" stroke="midnightblue" points="1170.46,-124.672 1165.8,-134.186 1175.37,-129.656 1170.46,-124.672"/>
</g>
<!-- Node13 -->
<g id="node9" class="node"><title>Node13</title>
<g id="a_node9"><a xlink:href="HamiltonianTwo_8cpp.html" target="_top" xlink:title="/travis/libpairinteraction\l/HamiltonianTwo.cpp">
<polygon fill="none" stroke="black" points="899,-0.5 899,-30.5 1027,-30.5 1027,-0.5 899,-0.5"/>
<text text-anchor="start" x="907" y="-18.5" font-family="Helvetica,sans-Serif" font-size="10.00">/travis/libpairinteraction</text>
<text text-anchor="middle" x="963" y="-7.5" font-family="Helvetica,sans-Serif" font-size="10.00">/HamiltonianTwo.cpp</text>
</a>
</g>
</g>
<!-- Node12&#45;&gt;Node13 -->
<g id="edge8" class="edge"><title>Node12&#45;&gt;Node13</title>
<path fill="none" stroke="midnightblue" d="M963,-57.1081C963,-48.1539 963,-38.3227 963,-30.5765"/>
<polygon fill="midnightblue" stroke="midnightblue" points="959.5,-57.3959 963,-67.396 966.5,-57.396 959.5,-57.3959"/>
</g>
<!-- Node12&#45;&gt;Node14 -->
<g id="edge9" class="edge"><title>Node12&#45;&gt;Node14</title>
<path fill="none" stroke="midnightblue" d="M1027.04,-64.9171C1068,-54.3099 1120.56,-40.6988 1159.51,-30.6109"/>
<polygon fill="midnightblue" stroke="midnightblue" points="1025.96,-61.5807 1017.15,-67.476 1027.71,-68.3572 1025.96,-61.5807"/>
</g>
<!-- Node16&#45;&gt;Node10 -->
<g id="edge15" class="edge"><title>Node16&#45;&gt;Node10</title>
<path fill="none" stroke="midnightblue" d="M930.006,-199.249C977.955,-188.575 1040.05,-174.754 1085.86,-164.555"/>
<polygon fill="midnightblue" stroke="midnightblue" points="929.001,-195.887 920,-201.476 930.522,-202.719 929.001,-195.887"/>
</g>
<!-- Node16&#45;&gt;Node12 -->
<g id="edge16" class="edge"><title>Node16&#45;&gt;Node12</title>
<path fill="none" stroke="midnightblue" d="M893.661,-196.074C906.491,-187.857 920.139,-177.315 930,-165 946.315,-144.624 955.558,-115.105 959.898,-97.7491"/>
<polygon fill="midnightblue" stroke="midnightblue" points="891.676,-193.185 884.966,-201.384 895.325,-199.159 891.676,-193.185"/>
</g>
<!-- Node17 -->
<g id="node13" class="node"><title>Node17</title>
<g id="a_node13"><a xlink:href="MatrixElements_8cpp.html" target="_top" xlink:title="/travis/libpairinteraction\l/MatrixElements.cpp">
<polygon fill="none" stroke="black" points="793,-134.5 793,-164.5 921,-164.5 921,-134.5 793,-134.5"/>
<text text-anchor="start" x="801" y="-152.5" font-family="Helvetica,sans-Serif" font-size="10.00">/travis/libpairinteraction</text>
<text text-anchor="middle" x="857" y="-141.5" font-family="Helvetica,sans-Serif" font-size="10.00">/MatrixElements.cpp</text>
</a>
</g>
</g>
<!-- Node16&#45;&gt;Node17 -->
<g id="edge17" class="edge"><title>Node16&#45;&gt;Node17</title>
<path fill="none" stroke="midnightblue" d="M857,-191.108C857,-182.154 857,-172.323 857,-164.577"/>
<polygon fill="midnightblue" stroke="midnightblue" points="853.5,-191.396 857,-201.396 860.5,-191.396 853.5,-191.396"/>
</g>
<!-- Node19 -->
<g id="node15" class="node"><title>Node19</title>
<g id="a_node15"><a xlink:href="MatrixElementCache_8cpp.html" target="_top" xlink:title="/travis/libpairinteraction\l/MatrixElementCache.cpp">
<polygon fill="none" stroke="black" points="559.5,-201.5 559.5,-231.5 698.5,-231.5 698.5,-201.5 559.5,-201.5"/>
<text text-anchor="start" x="567.5" y="-219.5" font-family="Helvetica,sans-Serif" font-size="10.00">/travis/libpairinteraction</text>
<text text-anchor="middle" x="629" y="-208.5" font-family="Helvetica,sans-Serif" font-size="10.00">/MatrixElementCache.cpp</text>
</a>
</g>
</g>
<!-- Node18&#45;&gt;Node19 -->
<g id="edge20" class="edge"><title>Node18&#45;&gt;Node19</title>
<path fill="none" stroke="midnightblue" d="M515.37,-264.544C540.493,-254.143 571.664,-241.238 595,-231.577"/>
<polygon fill="midnightblue" stroke="midnightblue" points="513.967,-261.337 506.067,-268.396 516.645,-267.804 513.967,-261.337"/>
</g>
<!-- Node20 -->
<g id="node16" class="node"><title>Node20</title>
<g id="a_node16"><a xlink:href="PerturbativeInteraction_8h.html" target="_top" xlink:title="/travis/libpairinteraction\l/PerturbativeInteraction.h">
<polygon fill="none" stroke="black" points="403,-201.5 403,-231.5 541,-231.5 541,-201.5 403,-201.5"/>
<text text-anchor="start" x="411" y="-219.5" font-family="Helvetica,sans-Serif" font-size="10.00">/travis/libpairinteraction</text>
<text text-anchor="middle" x="472" y="-208.5" font-family="Helvetica,sans-Serif" font-size="10.00">/PerturbativeInteraction.h</text>
</a>
</g>
</g>
<!-- Node18&#45;&gt;Node20 -->
<g id="edge21" class="edge"><title>Node18&#45;&gt;Node20</title>
<path fill="none" stroke="midnightblue" d="M472,-258.108C472,-249.154 472,-239.323 472,-231.577"/>
<polygon fill="midnightblue" stroke="midnightblue" points="468.5,-258.396 472,-268.396 475.5,-258.396 468.5,-258.396"/>
</g>
<!-- Node22 -->
<g id="node18" class="node"><title>Node22</title>
<g id="a_node18"><a xlink:href="SystemBase_8h.html" target="_top" xlink:title="/travis/libpairinteraction\l/SystemBase.h">
<polygon fill="none" stroke="black" points="127,-201.5 127,-231.5 255,-231.5 255,-201.5 127,-201.5"/>
<text text-anchor="start" x="135" y="-219.5" font-family="Helvetica,sans-Serif" font-size="10.00">/travis/libpairinteraction</text>
<text text-anchor="middle" x="191" y="-208.5" font-family="Helvetica,sans-Serif" font-size="10.00">/SystemBase.h</text>
</a>
</g>
</g>
<!-- Node18&#45;&gt;Node22 -->
<g id="edge23" class="edge"><title>Node18&#45;&gt;Node22</title>
<path fill="none" stroke="midnightblue" d="M401.472,-266.186C355.451,-255.54 295.982,-241.784 252.003,-231.611"/>
<polygon fill="midnightblue" stroke="midnightblue" points="400.842,-269.632 411.373,-268.476 402.419,-262.812 400.842,-269.632"/>
</g>
<!-- Node27 -->
<g id="node23" class="node"><title>Node27</title>
<g id="a_node23"><a xlink:href="integration__test_8cpp.html" target="_top" xlink:title="/travis/libpairinteraction\l/unit_test/integration_test.cpp">
<polygon fill="none" stroke="black" points="146.5,-0.5 146.5,-30.5 307.5,-30.5 307.5,-0.5 146.5,-0.5"/>
<text text-anchor="start" x="154.5" y="-18.5" font-family="Helvetica,sans-Serif" font-size="10.00">/travis/libpairinteraction</text>
<text text-anchor="middle" x="227" y="-7.5" font-family="Helvetica,sans-Serif" font-size="10.00">/unit_test/integration_test.cpp</text>
</a>
</g>
</g>
<!-- Node18&#45;&gt;Node27 -->
<g id="edge31" class="edge"><title>Node18&#45;&gt;Node27</title>
<path fill="none" stroke="midnightblue" d="M429.706,-263.208C416.492,-255.275 403.027,-244.88 394,-232 350.81,-170.375 405.167,-123.97 356,-67 340.915,-49.5206 319.003,-38.0492 297.506,-30.5379"/>
<polygon fill="midnightblue" stroke="midnightblue" points="428.325,-266.448 438.755,-268.308 431.762,-260.35 428.325,-266.448"/>
</g>
<!-- Node21 -->
<g id="node17" class="node"><title>Node21</title>
<g id="a_node17"><a xlink:href="PerturbativeInteraction_8cpp.html" target="_top" xlink:title="/travis/libpairinteraction\l/PerturbativeInteraction.cpp">
<polygon fill="none" stroke="black" points="402.5,-134.5 402.5,-164.5 551.5,-164.5 551.5,-134.5 402.5,-134.5"/>
<text text-anchor="start" x="410.5" y="-152.5" font-family="Helvetica,sans-Serif" font-size="10.00">/travis/libpairinteraction</text>
<text text-anchor="middle" x="477" y="-141.5" font-family="Helvetica,sans-Serif" font-size="10.00">/PerturbativeInteraction.cpp</text>
</a>
</g>
</g>
<!-- Node20&#45;&gt;Node21 -->
<g id="edge22" class="edge"><title>Node20&#45;&gt;Node21</title>
<path fill="none" stroke="midnightblue" d="M473.854,-191.403C474.548,-182.37 475.315,-172.408 475.917,-164.577"/>
<polygon fill="midnightblue" stroke="midnightblue" points="470.362,-191.157 473.085,-201.396 477.342,-191.694 470.362,-191.157"/>
</g>
<!-- Node23 -->
<g id="node19" class="node"><title>Node23</title>
<g id="a_node19"><a xlink:href="SystemOne_8h.html" target="_top" xlink:title="/travis/libpairinteraction\l/SystemOne.h">
<polygon fill="none" stroke="black" points="127,-134.5 127,-164.5 255,-164.5 255,-134.5 127,-134.5"/>
<text text-anchor="start" x="135" y="-152.5" font-family="Helvetica,sans-Serif" font-size="10.00">/travis/libpairinteraction</text>
<text text-anchor="middle" x="191" y="-141.5" font-family="Helvetica,sans-Serif" font-size="10.00">/SystemOne.h</text>
</a>
</g>
</g>
<!-- Node22&#45;&gt;Node23 -->
<g id="edge24" class="edge"><title>Node22&#45;&gt;Node23</title>
<path fill="none" stroke="midnightblue" d="M191,-191.108C191,-182.154 191,-172.323 191,-164.577"/>
<polygon fill="midnightblue" stroke="midnightblue" points="187.5,-191.396 191,-201.396 194.5,-191.396 187.5,-191.396"/>
</g>
<!-- Node25 -->
<g id="node21" class="node"><title>Node25</title>
<g id="a_node21"><a xlink:href="SystemTwo_8h.html" target="_top" xlink:title="/travis/libpairinteraction\l/SystemTwo.h">
<polygon fill="none" stroke="black" points="35,-67.5 35,-97.5 163,-97.5 163,-67.5 35,-67.5"/>
<text text-anchor="start" x="43" y="-85.5" font-family="Helvetica,sans-Serif" font-size="10.00">/travis/libpairinteraction</text>
<text text-anchor="middle" x="99" y="-74.5" font-family="Helvetica,sans-Serif" font-size="10.00">/SystemTwo.h</text>
</a>
</g>
</g>
<!-- Node22&#45;&gt;Node25 -->
<g id="edge30" class="edge"><title>Node22&#45;&gt;Node25</title>
<path fill="none" stroke="midnightblue" d="M152.346,-196.277C139.686,-188.222 126.662,-177.734 118,-165 104.027,-144.458 100.244,-114.995 99.2716,-97.6943"/>
<polygon fill="midnightblue" stroke="midnightblue" points="150.619,-199.322 160.995,-201.462 154.218,-193.318 150.619,-199.322"/>
</g>
<!-- Node24 -->
<g id="node20" class="node"><title>Node24</title>
<g id="a_node20"><a xlink:href="SystemOne_8cpp.html" target="_top" xlink:title="/travis/libpairinteraction\l/SystemOne.cpp">
<polygon fill="none" stroke="black" points="219,-67.5 219,-97.5 347,-97.5 347,-67.5 219,-67.5"/>
<text text-anchor="start" x="227" y="-85.5" font-family="Helvetica,sans-Serif" font-size="10.00">/travis/libpairinteraction</text>
<text text-anchor="middle" x="283" y="-74.5" font-family="Helvetica,sans-Serif" font-size="10.00">/SystemOne.cpp</text>
</a>
</g>
</g>
<!-- Node23&#45;&gt;Node24 -->
<g id="edge25" class="edge"><title>Node23&#45;&gt;Node24</title>
<path fill="none" stroke="midnightblue" d="M219.377,-128.451C233.53,-118.452 250.305,-106.6 263.076,-97.5765"/>
<polygon fill="midnightblue" stroke="midnightblue" points="217.11,-125.767 210.963,-134.396 221.149,-131.484 217.11,-125.767"/>
</g>
<!-- Node23&#45;&gt;Node25 -->
<g id="edge26" class="edge"><title>Node23&#45;&gt;Node25</title>
<path fill="none" stroke="midnightblue" d="M162.623,-128.451C148.47,-118.452 131.695,-106.6 118.924,-97.5765"/>
<polygon fill="midnightblue" stroke="midnightblue" points="160.851,-131.484 171.037,-134.396 164.89,-125.767 160.851,-131.484"/>
</g>
<!-- Node23&#45;&gt;Node27 -->
<g id="edge29" class="edge"><title>Node23&#45;&gt;Node27</title>
<path fill="none" stroke="midnightblue" d="M195.973,-124.449C199.501,-108.138 204.559,-86.1452 210,-67 213.54,-54.5421 218.293,-40.6069 221.872,-30.536"/>
<polygon fill="midnightblue" stroke="midnightblue" points="192.544,-123.751 193.888,-134.26 199.391,-125.207 192.544,-123.751"/>
</g>
<!-- Node26 -->
<g id="node22" class="node"><title>Node26</title>
<g id="a_node22"><a xlink:href="SystemTwo_8cpp.html" target="_top" xlink:title="/travis/libpairinteraction\l/SystemTwo.cpp">
<polygon fill="none" stroke="black" points="0,-0.5 0,-30.5 128,-30.5 128,-0.5 0,-0.5"/>
<text text-anchor="start" x="8" y="-18.5" font-family="Helvetica,sans-Serif" font-size="10.00">/travis/libpairinteraction</text>
<text text-anchor="middle" x="64" y="-7.5" font-family="Helvetica,sans-Serif" font-size="10.00">/SystemTwo.cpp</text>
</a>
</g>
</g>
<!-- Node25&#45;&gt;Node26 -->
<g id="edge27" class="edge"><title>Node25&#45;&gt;Node26</title>
<path fill="none" stroke="midnightblue" d="M86.6561,-58.5756C81.6296,-49.2406 75.9799,-38.7483 71.5797,-30.5765"/>
<polygon fill="midnightblue" stroke="midnightblue" points="83.5828,-60.2506 91.4055,-67.396 89.7461,-56.9319 83.5828,-60.2506"/>
</g>
<!-- Node25&#45;&gt;Node27 -->
<g id="edge28" class="edge"><title>Node25&#45;&gt;Node27</title>
<path fill="none" stroke="midnightblue" d="M135.72,-62.8533C155.958,-52.5761 180.674,-40.0252 199.28,-30.5765"/>
<polygon fill="midnightblue" stroke="midnightblue" points="134.106,-59.7475 126.774,-67.396 137.275,-65.9888 134.106,-59.7475"/>
</g>
</g>
</svg>
