<?xml version="1.0" encoding="UTF-8" standalone="no"?>
<!DOCTYPE svg PUBLIC "-//W3C//DTD SVG 1.1//EN"
 "http://www.w3.org/Graphics/SVG/1.1/DTD/svg11.dtd">
<!-- Generated by graphviz version 2.38.0 (20140413.2041)
 -->
<!-- Title: /travis/libpairinteraction/dtypes.h Pages: 1 -->
<!--zoomable 530 -->
<svg id="main" version="1.1" xmlns="http://www.w3.org/2000/svg" xmlns:xlink="http://www.w3.org/1999/xlink" xml:space="preserve" onload="init(evt)">
<style type="text/css"><![CDATA[
.edge:hover path { stroke: red; }
.edge:hover polygon { stroke: red; fill: red; }
]]></style>
<script type="text/javascript"><![CDATA[
var edges = document.getElementsByTagName('g');
if (edges && edges.length) {
  for (var i=0;i<edges.length;i++) {
    if (edges[i].id.substr(0,4)=='edge') {
      edges[i].setAttribute('class','edge');
    }
  }
}
]]></script>
        <defs>
                <circle id="rim" cx="0" cy="0" r="7"/>
                <circle id="rim2" cx="0" cy="0" r="3.5"/>
                <g id="zoomPlus">
                        <use xlink:href="#rim" fill="#404040">
                                <set attributeName="fill" to="#808080" begin="zoomplus.mouseover" end="zoomplus.mouseout"/>
                        </use>
                        <path d="M-4,0h8M0,-4v8" fill="none" stroke="white" stroke-width="1.5" pointer-events="none"/>
                </g>
                <g id="zoomMin">
                        <use xlink:href="#rim" fill="#404040">
                                <set attributeName="fill" to="#808080" begin="zoomminus.mouseover" end="zoomminus.mouseout"/>
                        </use>
                        <path d="M-4,0h8" fill="none" stroke="white" stroke-width="1.5" pointer-events="none"/>
                </g>
                <g id="dirArrow">
                        <path fill="none" stroke="white" stroke-width="1.5" d="M0,-3.0v7 M-2.5,-0.5L0,-3.0L2.5,-0.5"/>
                </g>
               <g id="resetDef">
                       <use xlink:href="#rim2" fill="#404040">
                               <set attributeName="fill" to="#808080" begin="reset.mouseover" end="reset.mouseout"/>
                       </use>
               </g>
        </defs>

<script type="text/javascript">
var viewWidth = 1886;
var viewHeight = 530;
var sectionId = 'dynsection-1';
</script>
<script xlink:href="svgpan.js"/>
<svg id="graph" class="graph">
<g id="viewport">
<title>/travis/libpairinteraction/dtypes.h</title>
<!-- Node6 -->
<g id="node1" class="node"><title>Node6</title>
<polygon fill="#bfbfbf" stroke="black" points="701,-491.5 701,-521.5 829,-521.5 829,-491.5 701,-491.5"/>
<text text-anchor="start" x="709" y="-509.5" font-family="Helvetica,sans-Serif" font-size="10.00">/travis/libpairinteraction</text>
<text text-anchor="middle" x="765" y="-498.5" font-family="Helvetica,sans-Serif" font-size="10.00">/dtypes.h</text>
</g>
<!-- Node7 -->
<g id="node2" class="node"><title>Node7</title>
<g id="a_node2"><a xlink:href="State_8h.html" target="_top" xlink:title="/travis/libpairinteraction\l/State.h">
<polygon fill="none" stroke="black" points="834,-424.5 834,-454.5 962,-454.5 962,-424.5 834,-424.5"/>
<text text-anchor="start" x="842" y="-442.5" font-family="Helvetica,sans-Serif" font-size="10.00">/travis/libpairinteraction</text>
<text text-anchor="middle" x="898" y="-431.5" font-family="Helvetica,sans-Serif" font-size="10.00">/State.h</text>
</a>
</g>
</g>
<!-- Node6&#45;&gt;Node7 -->
<g id="edge1" class="edge"><title>Node6&#45;&gt;Node7</title>
<path fill="none" stroke="midnightblue" d="M802.87,-486.992C823.951,-476.689 849.777,-464.068 869.197,-454.577"/>
<polygon fill="midnightblue" stroke="midnightblue" points="801.307,-483.86 793.859,-491.396 804.38,-490.15 801.307,-483.86"/>
</g>
<!-- Node8 -->
<g id="node3" class="node"><title>Node8</title>
<g id="a_node3"><a xlink:href="Basisnames_8h.html" target="_top" xlink:title="/travis/libpairinteraction\l/Basisnames.h">
<polygon fill="none" stroke="black" points="511,-352 511,-382 639,-382 639,-352 511,-352"/>
<text text-anchor="start" x="519" y="-370" font-family="Helvetica,sans-Serif" font-size="10.00">/travis/libpairinteraction</text>
<text text-anchor="middle" x="575" y="-359" font-family="Helvetica,sans-Serif" font-size="10.00">/Basisnames.h</text>
</a>
</g>
</g>
<!-- Node6&#45;&gt;Node8 -->
<g id="edge40" class="edge"><title>Node6&#45;&gt;Node8</title>
<path fill="none" stroke="midnightblue" d="M722.833,-487.005C704.948,-478.353 684.286,-467.253 667,-455 635.795,-432.88 604.507,-400.637 587.666,-382.252"/>
<polygon fill="midnightblue" stroke="midnightblue" points="721.365,-490.182 731.901,-491.299 724.361,-483.855 721.365,-490.182"/>
</g>
<!-- Node10 -->
<g id="node5" class="node"><title>Node10</title>
<g id="a_node5"><a xlink:href="Hamiltonianmatrix_8h.html" target="_top" xlink:title="/travis/libpairinteraction\l/Hamiltonianmatrix.h">
<polygon fill="none" stroke="black" points="146,-274 146,-304 274,-304 274,-274 146,-274"/>
<text text-anchor="start" x="154" y="-292" font-family="Helvetica,sans-Serif" font-size="10.00">/travis/libpairinteraction</text>
<text text-anchor="middle" x="210" y="-281" font-family="Helvetica,sans-Serif" font-size="10.00">/Hamiltonianmatrix.h</text>
</a>
</g>
</g>
<!-- Node6&#45;&gt;Node10 -->
<g id="edge43" class="edge"><title>Node6&#45;&gt;Node10</title>
<path fill="none" stroke="midnightblue" d="M690.674,-505.049C532.49,-503.314 173.882,-494.967 137,-455 94.7258,-409.19 162.286,-334.897 194.467,-304.084"/>
<polygon fill="midnightblue" stroke="midnightblue" points="690.762,-508.55 700.798,-505.154 690.834,-501.55 690.762,-508.55"/>
</g>
<!-- Node12 -->
<g id="node7" class="node"><title>Node12</title>
<g id="a_node7"><a xlink:href="HamiltonianOne_8h.html" target="_top" xlink:title="/travis/libpairinteraction\l/HamiltonianOne.h">
<polygon fill="none" stroke="black" points="337,-134.5 337,-164.5 465,-164.5 465,-134.5 337,-134.5"/>
<text text-anchor="start" x="345" y="-152.5" font-family="Helvetica,sans-Serif" font-size="10.00">/travis/libpairinteraction</text>
<text text-anchor="middle" x="401" y="-141.5" font-family="Helvetica,sans-Serif" font-size="10.00">/HamiltonianOne.h</text>
</a>
</g>
</g>
<!-- Node6&#45;&gt;Node12 -->
<g id="edge59" class="edge"><title>Node6&#45;&gt;Node12</title>
<path fill="none" stroke="midnightblue" d="M690.419,-502.241C571.488,-496.271 349.781,-481.673 326,-455 270.691,-392.964 302.708,-347.781 326,-268 338.14,-226.417 369.971,-185.538 388.021,-164.71"/>
<polygon fill="midnightblue" stroke="midnightblue" points="690.388,-505.744 700.548,-502.741 690.733,-498.752 690.388,-505.744"/>
</g>
<!-- Node14 -->
<g id="node9" class="node"><title>Node14</title>
<g id="a_node9"><a xlink:href="HamiltonianTwo_8h.html" target="_top" xlink:title="/travis/libpairinteraction\l/HamiltonianTwo.h">
<polygon fill="none" stroke="black" points="191,-67.5 191,-97.5 319,-97.5 319,-67.5 191,-67.5"/>
<text text-anchor="start" x="199" y="-85.5" font-family="Helvetica,sans-Serif" font-size="10.00">/travis/libpairinteraction</text>
<text text-anchor="middle" x="255" y="-74.5" font-family="Helvetica,sans-Serif" font-size="10.00">/HamiltonianTwo.h</text>
</a>
</g>
</g>
<!-- Node6&#45;&gt;Node14 -->
<g id="edge60" class="edge"><title>Node6&#45;&gt;Node14</title>
<path fill="none" stroke="midnightblue" d="M690.523,-504.716C543.842,-502.349 222.872,-492.869 120,-455 58.1802,-432.243 0,-433.875 0,-368 0,-368 0,-368 0,-215.5 0,-129.632 115.446,-99.5568 190.982,-89.0686"/>
<polygon fill="midnightblue" stroke="midnightblue" points="690.724,-508.219 700.777,-504.874 690.832,-501.22 690.724,-508.219"/>
</g>
<!-- Node18 -->
<g id="node13" class="node"><title>Node18</title>
<g id="a_node13"><a xlink:href="MatrixElements_8h.html" target="_top" xlink:title="/travis/libpairinteraction\l/MatrixElements.h">
<polygon fill="none" stroke="black" points="590,-274 590,-304 718,-304 718,-274 590,-274"/>
<text text-anchor="start" x="598" y="-292" font-family="Helvetica,sans-Serif" font-size="10.00">/travis/libpairinteraction</text>
<text text-anchor="middle" x="654" y="-281" font-family="Helvetica,sans-Serif" font-size="10.00">/MatrixElements.h</text>
</a>
</g>
</g>
<!-- Node6&#45;&gt;Node18 -->
<g id="edge58" class="edge"><title>Node6&#45;&gt;Node18</title>
<path fill="none" stroke="midnightblue" d="M749.276,-482.889C743.568,-474.315 737.239,-464.361 732,-455 701.672,-400.806 672.061,-332.876 659.848,-304.012"/>
<polygon fill="midnightblue" stroke="midnightblue" points="746.425,-484.922 754.929,-491.242 752.223,-480.999 746.425,-484.922"/>
</g>
<!-- Node20 -->
<g id="node15" class="node"><title>Node20</title>
<g id="a_node15"><a xlink:href="MatrixElementCache_8h.html" target="_top" xlink:title="/travis/libpairinteraction\l/MatrixElementCache.h">
<polygon fill="none" stroke="black" points="1078,-274 1078,-304 1206,-304 1206,-274 1078,-274"/>
<text text-anchor="start" x="1086" y="-292" font-family="Helvetica,sans-Serif" font-size="10.00">/travis/libpairinteraction</text>
<text text-anchor="middle" x="1142" y="-281" font-family="Helvetica,sans-Serif" font-size="10.00">/MatrixElementCache.h</text>
</a>
</g>
</g>
<!-- Node6&#45;&gt;Node20 -->
<g id="edge61" class="edge"><title>Node6&#45;&gt;Node20</title>
<path fill="none" stroke="midnightblue" d="M839.242,-501.219C916.344,-495.361 1030.34,-482.285 1064,-455 1104.46,-422.206 1083.55,-392.497 1107,-346 1114.44,-331.26 1124.58,-315.383 1132.03,-304.313"/>
<polygon fill="midnightblue" stroke="midnightblue" points="838.807,-497.742 829.09,-501.965 839.32,-504.723 838.807,-497.742"/>
</g>
<!-- Node22 -->
<g id="node17" class="node"><title>Node22</title>
<g id="a_node17"><a xlink:href="PerturbativeInteraction_8h.html" target="_top" xlink:title="/travis/libpairinteraction\l/PerturbativeInteraction.h">
<polygon fill="none" stroke="black" points="732,-201.5 732,-231.5 870,-231.5 870,-201.5 732,-201.5"/>
<text text-anchor="start" x="740" y="-219.5" font-family="Helvetica,sans-Serif" font-size="10.00">/travis/libpairinteraction</text>
<text text-anchor="middle" x="801" y="-208.5" font-family="Helvetica,sans-Serif" font-size="10.00">/PerturbativeInteraction.h</text>
</a>
</g>
</g>
<!-- Node6&#45;&gt;Node22 -->
<g id="edge62" class="edge"><title>Node6&#45;&gt;Node22</title>
<path fill="none" stroke="midnightblue" d="M768.05,-481.102C775.326,-422.895 793.521,-277.333 799.246,-231.529"/>
<polygon fill="midnightblue" stroke="midnightblue" points="764.553,-480.861 766.785,-491.218 771.499,-481.729 764.553,-480.861"/>
</g>
<!-- Node24 -->
<g id="node19" class="node"><title>Node24</title>
<g id="a_node19"><a xlink:href="SystemBase_8h.html" target="_top" xlink:title="/travis/libpairinteraction\l/SystemBase.h">
<polygon fill="none" stroke="black" points="1002,-201.5 1002,-231.5 1130,-231.5 1130,-201.5 1002,-201.5"/>
<text text-anchor="start" x="1010" y="-219.5" font-family="Helvetica,sans-Serif" font-size="10.00">/travis/libpairinteraction</text>
<text text-anchor="middle" x="1066" y="-208.5" font-family="Helvetica,sans-Serif" font-size="10.00">/SystemBase.h</text>
</a>
</g>
</g>
<!-- Node6&#45;&gt;Node24 -->
<g id="edge64" class="edge"><title>Node6&#45;&gt;Node24</title>
<path fill="none" stroke="midnightblue" d="M839.177,-500.64C881.045,-494.811 932.519,-482.186 971,-455 1047.71,-400.805 1062.51,-274.051 1065.34,-231.621"/>
<polygon fill="midnightblue" stroke="midnightblue" points="838.5,-497.199 829.03,-501.948 839.395,-504.141 838.5,-497.199"/>
</g>
<!-- Node26 -->
<g id="node21" class="node"><title>Node26</title>
<g id="a_node21"><a xlink:href="SystemOne_8cpp.html" target="_top" xlink:title="/travis/libpairinteraction\l/SystemOne.cpp">
<polygon fill="none" stroke="black" points="633,-67.5 633,-97.5 761,-97.5 761,-67.5 633,-67.5"/>
<text text-anchor="start" x="641" y="-85.5" font-family="Helvetica,sans-Serif" font-size="10.00">/travis/libpairinteraction</text>
<text text-anchor="middle" x="697" y="-74.5" font-family="Helvetica,sans-Serif" font-size="10.00">/SystemOne.cpp</text>
</a>
</g>
</g>
<!-- Node6&#45;&gt;Node26 -->
<g id="edge65" class="edge"><title>Node6&#45;&gt;Node26</title>
<path fill="none" stroke="midnightblue" d="M764.431,-481.325C762.654,-427.226 755.466,-298.743 727,-268 680.42,-217.693 619.447,-285.84 577,-232 537.701,-182.153 624.346,-123.785 670.501,-97.5373"/>
<polygon fill="midnightblue" stroke="midnightblue" points="760.935,-481.497 764.727,-491.39 767.932,-481.292 760.935,-481.497"/>
</g>
<!-- Node28 -->
<g id="node23" class="node"><title>Node28</title>
<g id="a_node23"><a xlink:href="SystemTwo_8cpp.html" target="_top" xlink:title="/travis/libpairinteraction\l/SystemTwo.cpp">
<polygon fill="none" stroke="black" points="1434,-0.5 1434,-30.5 1562,-30.5 1562,-0.5 1434,-0.5"/>
<text text-anchor="start" x="1442" y="-18.5" font-family="Helvetica,sans-Serif" font-size="10.00">/travis/libpairinteraction</text>
<text text-anchor="middle" x="1498" y="-7.5" font-family="Helvetica,sans-Serif" font-size="10.00">/SystemTwo.cpp</text>
</a>
</g>
</g>
<!-- Node6&#45;&gt;Node28 -->
<g id="edge66" class="edge"><title>Node6&#45;&gt;Node28</title>
<path fill="none" stroke="midnightblue" d="M839.284,-504.151C1088.31,-498.657 1878,-472.96 1878,-368 1878,-368 1878,-368 1878,-148.5 1878,-82.4147 1670.33,-41.8993 1562.03,-25.264"/>
<polygon fill="midnightblue" stroke="midnightblue" points="839.165,-500.653 829.243,-504.368 839.317,-507.651 839.165,-500.653"/>
</g>
<!-- Node29 -->
<g id="node24" class="node"><title>Node29</title>
<g id="a_node24"><a xlink:href="integration__test_8cpp.html" target="_top" xlink:title="/travis/libpairinteraction\l/unit_test/integration_test.cpp">
<polygon fill="none" stroke="black" points="874.5,-0.5 874.5,-30.5 1035.5,-30.5 1035.5,-0.5 874.5,-0.5"/>
<text text-anchor="start" x="882.5" y="-18.5" font-family="Helvetica,sans-Serif" font-size="10.00">/travis/libpairinteraction</text>
<text text-anchor="middle" x="955" y="-7.5" font-family="Helvetica,sans-Serif" font-size="10.00">/unit_test/integration_test.cpp</text>
</a>
</g>
</g>
<!-- Node6&#45;&gt;Node29 -->
<g id="edge67" class="edge"><title>Node6&#45;&gt;Node29</title>
<path fill="none" stroke="midnightblue" d="M691.179,-492.293C567.6,-466.309 337.885,-399.302 397,-268 424.661,-206.562 562.984,-95.5807 624,-67 667.166,-46.7804 790.868,-31.742 874.204,-23.5444"/>
<polygon fill="midnightblue" stroke="midnightblue" points="690.477,-495.722 700.977,-494.315 691.891,-488.866 690.477,-495.722"/>
</g>
<!-- Node30 -->
<g id="node25" class="node"><title>Node30</title>
<g id="a_node25"><a xlink:href="State_8cpp.html" target="_top" xlink:title="/travis/libpairinteraction\l/State.cpp">
<polygon fill="none" stroke="black" points="1116,-352 1116,-382 1244,-382 1244,-352 1116,-352"/>
<text text-anchor="start" x="1124" y="-370" font-family="Helvetica,sans-Serif" font-size="10.00">/travis/libpairinteraction</text>
<text text-anchor="middle" x="1180" y="-359" font-family="Helvetica,sans-Serif" font-size="10.00">/State.cpp</text>
</a>
</g>
</g>
<!-- Node6&#45;&gt;Node30 -->
<g id="edge63" class="edge"><title>Node6&#45;&gt;Node30</title>
<path fill="none" stroke="midnightblue" d="M839.149,-500.26C924.27,-493.231 1057.84,-478.802 1102,-455 1133.96,-437.773 1159.36,-402.102 1171.75,-382.202"/>
<polygon fill="midnightblue" stroke="midnightblue" points="838.703,-496.785 829.018,-501.081 839.268,-503.762 838.703,-496.785"/>
</g>
<!-- Node31 -->
<g id="node26" class="node"><title>Node31</title>
<g id="a_node26"><a xlink:href="Serializable_8h.html" target="_top" xlink:title="/travis/libpairinteraction\l/Serializable.h">
<polygon fill="none" stroke="black" points="146,-424.5 146,-454.5 274,-454.5 274,-424.5 146,-424.5"/>
<text text-anchor="start" x="154" y="-442.5" font-family="Helvetica,sans-Serif" font-size="10.00">/travis/libpairinteraction</text>
<text text-anchor="middle" x="210" y="-431.5" font-family="Helvetica,sans-Serif" font-size="10.00">/Serializable.h</text>
</a>
</g>
</g>
<!-- Node6&#45;&gt;Node31 -->
<g id="edge41" class="edge"><title>Node6&#45;&gt;Node31</title>
<path fill="none" stroke="midnightblue" d="M690.782,-499.457C596.776,-491.386 429.923,-475.672 288,-455 283.502,-454.345 278.868,-453.618 274.207,-452.848"/>
<polygon fill="midnightblue" stroke="midnightblue" points="690.502,-502.945 700.763,-500.308 691.097,-495.971 690.502,-502.945"/>
</g>
<!-- Node32 -->
<g id="node27" class="node"><title>Node32</title>
<g id="a_node27"><a xlink:href="QuantumDefect_8h.html" target="_top" xlink:title="/travis/libpairinteraction\l/QuantumDefect.h">
<polygon fill="none" stroke="black" points="1454,-424.5 1454,-454.5 1582,-454.5 1582,-424.5 1454,-424.5"/>
<text text-anchor="start" x="1462" y="-442.5" font-family="Helvetica,sans-Serif" font-size="10.00">/travis/libpairinteraction</text>
<text text-anchor="middle" x="1518" y="-431.5" font-family="Helvetica,sans-Serif" font-size="10.00">/QuantumDefect.h</text>
</a>
</g>
</g>
<!-- Node6&#45;&gt;Node32 -->
<g id="edge44" class="edge"><title>Node6&#45;&gt;Node32</title>
<path fill="none" stroke="midnightblue" d="M839.525,-499.067C987.31,-486.31 1315.18,-458.008 1453.96,-446.028"/>
<polygon fill="midnightblue" stroke="midnightblue" points="838.862,-495.611 829.2,-499.958 839.464,-502.585 838.862,-495.611"/>
</g>
<!-- Node33 -->
<g id="node28" class="node"><title>Node33</title>
<g id="a_node28"><a xlink:href="Wavefunction_8h.html" target="_top" xlink:title="/travis/libpairinteraction\l/Wavefunction.h">
<polygon fill="none" stroke="black" points="1300,-352 1300,-382 1428,-382 1428,-352 1300,-352"/>
<text text-anchor="start" x="1308" y="-370" font-family="Helvetica,sans-Serif" font-size="10.00">/travis/libpairinteraction</text>
<text text-anchor="middle" x="1364" y="-359" font-family="Helvetica,sans-Serif" font-size="10.00">/Wavefunction.h</text>
</a>
</g>
</g>
<!-- Node6&#45;&gt;Node33 -->
<g id="edge57" class="edge"><title>Node6&#45;&gt;Node33</title>
<path fill="none" stroke="midnightblue" d="M839.36,-500.347C914.757,-493.961 1034.34,-480.633 1135,-455 1208.36,-436.318 1290.42,-401.555 1333.61,-382.105"/>
<polygon fill="midnightblue" stroke="midnightblue" points="838.698,-496.889 829.021,-501.202 839.275,-503.866 838.698,-496.889"/>
</g>
<!-- Node7&#45;&gt;Node8 -->
<g id="edge2" class="edge"><title>Node7&#45;&gt;Node8</title>
<path fill="none" stroke="midnightblue" d="M823.968,-422.341C768.134,-410.155 692.327,-393.608 639.079,-381.986"/>
<polygon fill="midnightblue" stroke="midnightblue" points="823.283,-425.774 833.799,-424.487 824.776,-418.935 823.283,-425.774"/>
</g>
<!-- Node7&#45;&gt;Node10 -->
<g id="edge33" class="edge"><title>Node7&#45;&gt;Node10</title>
<path fill="none" stroke="midnightblue" d="M823.883,-433.431C743.743,-426.936 612.619,-413.355 502,-388 406.617,-366.137 298.39,-325.453 244.422,-304.028"/>
<polygon fill="midnightblue" stroke="midnightblue" points="823.634,-436.922 833.88,-434.225 824.189,-429.944 823.634,-436.922"/>
</g>
<!-- Node7&#45;&gt;Node22 -->
<g id="edge34" class="edge"><title>Node7&#45;&gt;Node22</title>
<path fill="none" stroke="midnightblue" d="M887.762,-415.174C867.628,-369.301 823.427,-268.597 807.164,-231.543"/>
<polygon fill="midnightblue" stroke="midnightblue" points="884.561,-416.589 891.785,-424.339 890.97,-413.776 884.561,-416.589"/>
</g>
<!-- Node7&#45;&gt;Node24 -->
<g id="edge36" class="edge"><title>Node7&#45;&gt;Node24</title>
<path fill="none" stroke="midnightblue" d="M945.046,-419.753C960.342,-411.812 976.358,-401.274 988,-388 1025.88,-344.814 1010.59,-319.515 1036,-268 1042.23,-255.379 1050.46,-241.691 1056.72,-231.753"/>
<polygon fill="midnightblue" stroke="midnightblue" points="943.092,-416.813 935.66,-424.363 946.178,-423.096 943.092,-416.813"/>
</g>
<!-- Node25 -->
<g id="node20" class="node"><title>Node25</title>
<g id="a_node20"><a xlink:href="SystemOne_8h.html" target="_top" xlink:title="/travis/libpairinteraction\l/SystemOne.h">
<polygon fill="none" stroke="black" points="891,-134.5 891,-164.5 1019,-164.5 1019,-134.5 891,-134.5"/>
<text text-anchor="start" x="899" y="-152.5" font-family="Helvetica,sans-Serif" font-size="10.00">/travis/libpairinteraction</text>
<text text-anchor="middle" x="955" y="-141.5" font-family="Helvetica,sans-Serif" font-size="10.00">/SystemOne.h</text>
</a>
</g>
</g>
<!-- Node7&#45;&gt;Node25 -->
<g id="edge37" class="edge"><title>Node7&#45;&gt;Node25</title>
<path fill="none" stroke="midnightblue" d="M905.113,-414.58C907.473,-406.214 910.004,-396.731 912,-388 931.24,-303.851 947.359,-201.343 952.922,-164.511"/>
<polygon fill="midnightblue" stroke="midnightblue" points="901.678,-413.86 902.27,-424.439 908.404,-415.8 901.678,-413.86"/>
</g>
<!-- Node27 -->
<g id="node22" class="node"><title>Node27</title>
<g id="a_node22"><a xlink:href="SystemTwo_8h.html" target="_top" xlink:title="/travis/libpairinteraction\l/SystemTwo.h">
<polygon fill="none" stroke="black" points="983,-67.5 983,-97.5 1111,-97.5 1111,-67.5 983,-67.5"/>
<text text-anchor="start" x="991" y="-85.5" font-family="Helvetica,sans-Serif" font-size="10.00">/travis/libpairinteraction</text>
<text text-anchor="middle" x="1047" y="-74.5" font-family="Helvetica,sans-Serif" font-size="10.00">/SystemTwo.h</text>
</a>
</g>
</g>
<!-- Node7&#45;&gt;Node27 -->
<g id="edge38" class="edge"><title>Node7&#45;&gt;Node27</title>
<path fill="none" stroke="midnightblue" d="M914.599,-415.842C920.305,-407.385 926.407,-397.521 931,-388 969.044,-309.137 947.553,-275.842 993,-201 1004.58,-181.926 1017.3,-184.582 1028,-165 1039.85,-143.327 1044.34,-114.499 1046.02,-97.5755"/>
<polygon fill="midnightblue" stroke="midnightblue" points="911.712,-413.863 908.876,-424.071 917.459,-417.86 911.712,-413.863"/>
</g>
<!-- Node7&#45;&gt;Node29 -->
<g id="edge39" class="edge"><title>Node7&#45;&gt;Node29</title>
<path fill="none" stroke="midnightblue" d="M895.802,-414.043C889.859,-346.494 874.415,-160.582 882,-134 893.796,-92.6619 924.786,-51.686 942.362,-30.7763"/>
<polygon fill="midnightblue" stroke="midnightblue" points="892.331,-414.525 896.7,-424.176 899.303,-413.906 892.331,-414.525"/>
</g>
<!-- Node7&#45;&gt;Node30 -->
<g id="edge35" class="edge"><title>Node7&#45;&gt;Node30</title>
<path fill="none" stroke="midnightblue" d="M963.817,-422.046C1012.28,-409.931 1077.48,-393.629 1123.57,-382.107"/>
<polygon fill="midnightblue" stroke="midnightblue" points="962.904,-418.666 954.051,-424.487 964.602,-425.457 962.904,-418.666"/>
</g>
<!-- Node9 -->
<g id="node4" class="node"><title>Node9</title>
<g id="a_node4"><a xlink:href="Basisnames_8cpp.html" target="_top" xlink:title="/travis/libpairinteraction\l/Basisnames.cpp">
<polygon fill="none" stroke="black" points="406,-274 406,-304 534,-304 534,-274 406,-274"/>
<text text-anchor="start" x="414" y="-292" font-family="Helvetica,sans-Serif" font-size="10.00">/travis/libpairinteraction</text>
<text text-anchor="middle" x="470" y="-281" font-family="Helvetica,sans-Serif" font-size="10.00">/Basisnames.cpp</text>
</a>
</g>
</g>
<!-- Node8&#45;&gt;Node9 -->
<g id="edge3" class="edge"><title>Node8&#45;&gt;Node9</title>
<path fill="none" stroke="midnightblue" d="M546.831,-345.611C528.767,-332.536 505.768,-315.89 489.661,-304.231"/>
<polygon fill="midnightblue" stroke="midnightblue" points="545.097,-348.677 555.25,-351.705 549.202,-343.006 545.097,-348.677"/>
</g>
<!-- Node8&#45;&gt;Node10 -->
<g id="edge4" class="edge"><title>Node8&#45;&gt;Node10</title>
<path fill="none" stroke="midnightblue" d="M500.573,-350.503C433.96,-336.633 337.321,-316.511 274.077,-303.342"/>
<polygon fill="midnightblue" stroke="midnightblue" points="500.082,-353.976 510.586,-352.588 501.509,-347.123 500.082,-353.976"/>
</g>
<!-- Node8&#45;&gt;Node12 -->
<g id="edge14" class="edge"><title>Node8&#45;&gt;Node12</title>
<path fill="none" stroke="midnightblue" d="M572.76,-341.729C569.555,-319.952 561.788,-288.372 543,-268 514.908,-237.541 489.151,-258.138 457,-232 433.955,-213.265 416.483,-182.632 407.575,-164.738"/>
<polygon fill="midnightblue" stroke="midnightblue" points="569.309,-342.339 574.025,-351.826 576.255,-341.469 569.309,-342.339"/>
</g>
<!-- Node8&#45;&gt;Node14 -->
<g id="edge19" class="edge"><title>Node8&#45;&gt;Node14</title>
<path fill="none" stroke="midnightblue" d="M500.643,-354.792C466.412,-346.745 426.866,-333.074 397,-310 357.794,-279.709 285.217,-142.405 262.2,-97.6505"/>
<polygon fill="midnightblue" stroke="midnightblue" points="500.089,-358.254 510.611,-357.014 501.612,-351.422 500.089,-358.254"/>
</g>
<!-- Node8&#45;&gt;Node18 -->
<g id="edge15" class="edge"><title>Node8&#45;&gt;Node18</title>
<path fill="none" stroke="midnightblue" d="M597.314,-344.533C610.725,-331.632 627.419,-315.572 639.207,-304.231"/>
<polygon fill="midnightblue" stroke="midnightblue" points="594.639,-342.25 589.859,-351.705 599.492,-347.294 594.639,-342.25"/>
</g>
<!-- Node8&#45;&gt;Node20 -->
<g id="edge20" class="edge"><title>Node8&#45;&gt;Node20</title>
<path fill="none" stroke="midnightblue" d="M649.429,-356.024C761.624,-340.985 972.172,-312.764 1077.93,-298.588"/>
<polygon fill="midnightblue" stroke="midnightblue" points="648.661,-352.595 639.215,-357.393 649.591,-359.533 648.661,-352.595"/>
</g>
<!-- Node11 -->
<g id="node6" class="node"><title>Node11</title>
<g id="a_node6"><a xlink:href="Hamiltonian_8h.html" target="_top" xlink:title="/travis/libpairinteraction\l/Hamiltonian.h">
<polygon fill="none" stroke="black" points="174,-201.5 174,-231.5 302,-231.5 302,-201.5 174,-201.5"/>
<text text-anchor="start" x="182" y="-219.5" font-family="Helvetica,sans-Serif" font-size="10.00">/travis/libpairinteraction</text>
<text text-anchor="middle" x="238" y="-208.5" font-family="Helvetica,sans-Serif" font-size="10.00">/Hamiltonian.h</text>
</a>
</g>
</g>
<!-- Node10&#45;&gt;Node11 -->
<g id="edge5" class="edge"><title>Node10&#45;&gt;Node11</title>
<path fill="none" stroke="midnightblue" d="M219.375,-264.396C223.672,-253.576 228.625,-241.106 232.342,-231.746"/>
<polygon fill="midnightblue" stroke="midnightblue" points="216.105,-263.148 215.666,-273.733 222.61,-265.731 216.105,-263.148"/>
</g>
<!-- Node17 -->
<g id="node12" class="node"><title>Node17</title>
<g id="a_node12"><a xlink:href="Hamiltonianmatrix_8cpp.html" target="_top" xlink:title="/travis/libpairinteraction\l/Hamiltonianmatrix.cpp">
<polygon fill="none" stroke="black" points="28,-201.5 28,-231.5 156,-231.5 156,-201.5 28,-201.5"/>
<text text-anchor="start" x="36" y="-219.5" font-family="Helvetica,sans-Serif" font-size="10.00">/travis/libpairinteraction</text>
<text text-anchor="middle" x="92" y="-208.5" font-family="Helvetica,sans-Serif" font-size="10.00">/Hamiltonianmatrix.cpp</text>
</a>
</g>
</g>
<!-- Node10&#45;&gt;Node17 -->
<g id="edge13" class="edge"><title>Node10&#45;&gt;Node17</title>
<path fill="none" stroke="midnightblue" d="M177.765,-268.741C158.096,-256.989 133.391,-242.23 115.555,-231.573"/>
<polygon fill="midnightblue" stroke="midnightblue" points="176.025,-271.778 186.405,-273.903 179.615,-265.769 176.025,-271.778"/>
</g>
<!-- Node11&#45;&gt;Node12 -->
<g id="edge6" class="edge"><title>Node11&#45;&gt;Node12</title>
<path fill="none" stroke="midnightblue" d="M282.683,-197.682C308.825,-187.257 341.366,-174.281 365.7,-164.577"/>
<polygon fill="midnightblue" stroke="midnightblue" points="281.361,-194.441 273.369,-201.396 283.954,-200.943 281.361,-194.441"/>
</g>
<!-- Node11&#45;&gt;Node14 -->
<g id="edge12" class="edge"><title>Node11&#45;&gt;Node14</title>
<path fill="none" stroke="midnightblue" d="M241.105,-191.39C244.645,-163.901 250.314,-119.888 253.194,-97.5247"/>
<polygon fill="midnightblue" stroke="midnightblue" points="237.625,-191.009 239.819,-201.374 244.568,-191.903 237.625,-191.009"/>
</g>
<!-- Node13 -->
<g id="node8" class="node"><title>Node13</title>
<g id="a_node8"><a xlink:href="HamiltonianOne_8cpp.html" target="_top" xlink:title="/travis/libpairinteraction\l/HamiltonianOne.cpp">
<polygon fill="none" stroke="black" points="375,-67.5 375,-97.5 503,-97.5 503,-67.5 375,-67.5"/>
<text text-anchor="start" x="383" y="-85.5" font-family="Helvetica,sans-Serif" font-size="10.00">/travis/libpairinteraction</text>
<text text-anchor="middle" x="439" y="-74.5" font-family="Helvetica,sans-Serif" font-size="10.00">/HamiltonianOne.cpp</text>
</a>
</g>
</g>
<!-- Node12&#45;&gt;Node13 -->
<g id="edge7" class="edge"><title>Node12&#45;&gt;Node13</title>
<path fill="none" stroke="midnightblue" d="M414.402,-125.576C419.859,-116.241 425.993,-105.748 430.771,-97.5765"/>
<polygon fill="midnightblue" stroke="midnightblue" points="411.271,-123.997 409.245,-134.396 417.314,-127.529 411.271,-123.997"/>
</g>
<!-- Node12&#45;&gt;Node14 -->
<g id="edge8" class="edge"><title>Node12&#45;&gt;Node14</title>
<path fill="none" stroke="midnightblue" d="M360.05,-130.269C336.796,-119.916 308.128,-107.153 286.618,-97.5765"/>
<polygon fill="midnightblue" stroke="midnightblue" points="358.761,-133.526 369.32,-134.396 361.608,-127.131 358.761,-133.526"/>
</g>
<!-- Node16 -->
<g id="node11" class="node"><title>Node16</title>
<g id="a_node11"><a xlink:href="Interface_8cpp.html" target="_top" xlink:title="/travis/libpairinteraction\l/Interface.cpp">
<polygon fill="none" stroke="black" points="283,-0.5 283,-30.5 411,-30.5 411,-0.5 283,-0.5"/>
<text text-anchor="start" x="291" y="-18.5" font-family="Helvetica,sans-Serif" font-size="10.00">/travis/libpairinteraction</text>
<text text-anchor="middle" x="347" y="-7.5" font-family="Helvetica,sans-Serif" font-size="10.00">/Interface.cpp</text>
</a>
</g>
</g>
<!-- Node12&#45;&gt;Node16 -->
<g id="edge11" class="edge"><title>Node12&#45;&gt;Node16</title>
<path fill="none" stroke="midnightblue" d="M382.839,-126.194C376.731,-117.774 370.366,-107.842 366,-98 356.043,-75.556 350.952,-47.2269 348.642,-30.5641"/>
<polygon fill="midnightblue" stroke="midnightblue" points="380.19,-128.495 389.016,-134.355 385.771,-124.27 380.19,-128.495"/>
</g>
<!-- Node15 -->
<g id="node10" class="node"><title>Node15</title>
<g id="a_node10"><a xlink:href="HamiltonianTwo_8cpp.html" target="_top" xlink:title="/travis/libpairinteraction\l/HamiltonianTwo.cpp">
<polygon fill="none" stroke="black" points="137,-0.5 137,-30.5 265,-30.5 265,-0.5 137,-0.5"/>
<text text-anchor="start" x="145" y="-18.5" font-family="Helvetica,sans-Serif" font-size="10.00">/travis/libpairinteraction</text>
<text text-anchor="middle" x="201" y="-7.5" font-family="Helvetica,sans-Serif" font-size="10.00">/HamiltonianTwo.cpp</text>
</a>
</g>
</g>
<!-- Node14&#45;&gt;Node15 -->
<g id="edge9" class="edge"><title>Node14&#45;&gt;Node15</title>
<path fill="none" stroke="midnightblue" d="M236.679,-59.4472C228.747,-49.8986 219.695,-39.0037 212.694,-30.5765"/>
<polygon fill="midnightblue" stroke="midnightblue" points="234.2,-61.9406 243.283,-67.396 239.585,-57.4675 234.2,-61.9406"/>
</g>
<!-- Node14&#45;&gt;Node16 -->
<g id="edge10" class="edge"><title>Node14&#45;&gt;Node16</title>
<path fill="none" stroke="midnightblue" d="M283.377,-61.4511C297.53,-51.4517 314.305,-39.5995 327.076,-30.5765"/>
<polygon fill="midnightblue" stroke="midnightblue" points="281.11,-58.7671 274.963,-67.396 285.149,-64.4841 281.11,-58.7671"/>
</g>
<!-- Node18&#45;&gt;Node12 -->
<g id="edge16" class="edge"><title>Node18&#45;&gt;Node12</title>
<path fill="none" stroke="midnightblue" d="M596.372,-270.671C568.231,-261.104 534.404,-247.921 506,-232 471.377,-212.593 435.88,-182.474 416.313,-164.797"/>
<polygon fill="midnightblue" stroke="midnightblue" points="595.477,-274.062 606.07,-273.903 597.69,-267.421 595.477,-274.062"/>
</g>
<!-- Node18&#45;&gt;Node14 -->
<g id="edge17" class="edge"><title>Node18&#45;&gt;Node14</title>
<path fill="none" stroke="midnightblue" d="M606.648,-269.93C586.006,-260.598 562.38,-247.821 544,-232 503.433,-197.081 518.519,-163.717 474,-134 448.93,-117.266 374.354,-102.336 319.158,-93.1288"/>
<polygon fill="midnightblue" stroke="midnightblue" points="605.328,-273.173 615.892,-273.974 608.133,-266.76 605.328,-273.173"/>
</g>
<!-- Node19 -->
<g id="node14" class="node"><title>Node19</title>
<g id="a_node14"><a xlink:href="MatrixElements_8cpp.html" target="_top" xlink:title="/travis/libpairinteraction\l/MatrixElements.cpp">
<polygon fill="none" stroke="black" points="586,-201.5 586,-231.5 714,-231.5 714,-201.5 586,-201.5"/>
<text text-anchor="start" x="594" y="-219.5" font-family="Helvetica,sans-Serif" font-size="10.00">/travis/libpairinteraction</text>
<text text-anchor="middle" x="650" y="-208.5" font-family="Helvetica,sans-Serif" font-size="10.00">/MatrixElements.cpp</text>
</a>
</g>
</g>
<!-- Node18&#45;&gt;Node19 -->
<g id="edge18" class="edge"><title>Node18&#45;&gt;Node19</title>
<path fill="none" stroke="midnightblue" d="M652.623,-263.732C652.018,-253.068 651.328,-240.914 650.808,-231.746"/>
<polygon fill="midnightblue" stroke="midnightblue" points="649.13,-263.948 653.191,-273.733 656.118,-263.551 649.13,-263.948"/>
</g>
<!-- Node21 -->
<g id="node16" class="node"><title>Node21</title>
<g id="a_node16"><a xlink:href="MatrixElementCache_8cpp.html" target="_top" xlink:title="/travis/libpairinteraction\l/MatrixElementCache.cpp">
<polygon fill="none" stroke="black" points="1405.5,-201.5 1405.5,-231.5 1544.5,-231.5 1544.5,-201.5 1405.5,-201.5"/>
<text text-anchor="start" x="1413.5" y="-219.5" font-family="Helvetica,sans-Serif" font-size="10.00">/travis/libpairinteraction</text>
<text text-anchor="middle" x="1475" y="-208.5" font-family="Helvetica,sans-Serif" font-size="10.00">/MatrixElementCache.cpp</text>
</a>
</g>
</g>
<!-- Node20&#45;&gt;Node21 -->
<g id="edge21" class="edge"><title>Node20&#45;&gt;Node21</title>
<path fill="none" stroke="midnightblue" d="M1215.99,-272.335C1273.68,-260.121 1353.08,-243.312 1408.71,-231.534"/>
<polygon fill="midnightblue" stroke="midnightblue" points="1215.26,-268.911 1206.21,-274.407 1216.71,-275.76 1215.26,-268.911"/>
</g>
<!-- Node20&#45;&gt;Node22 -->
<g id="edge22" class="edge"><title>Node20&#45;&gt;Node22</title>
<path fill="none" stroke="midnightblue" d="M1067.83,-272.666C1008.65,-260.43 926.421,-243.43 868.941,-231.546"/>
<polygon fill="midnightblue" stroke="midnightblue" points="1067.36,-276.142 1077.86,-274.739 1068.78,-269.287 1067.36,-276.142"/>
</g>
<!-- Node20&#45;&gt;Node24 -->
<g id="edge24" class="edge"><title>Node20&#45;&gt;Node24</title>
<path fill="none" stroke="midnightblue" d="M1118.97,-266.639C1106.69,-255.243 1091.92,-241.541 1081.1,-231.505"/>
<polygon fill="midnightblue" stroke="midnightblue" points="1116.91,-269.498 1126.62,-273.733 1121.67,-264.366 1116.91,-269.498"/>
</g>
<!-- Node20&#45;&gt;Node29 -->
<g id="edge32" class="edge"><title>Node20&#45;&gt;Node29</title>
<path fill="none" stroke="midnightblue" d="M1147.62,-263.806C1156.46,-219.142 1168.03,-123.182 1120,-67 1098.98,-42.4075 1066.32,-29.577 1035.6,-22.9612"/>
<polygon fill="midnightblue" stroke="midnightblue" points="1144.16,-263.25 1145.53,-273.757 1151.01,-264.693 1144.16,-263.25"/>
</g>
<!-- Node23 -->
<g id="node18" class="node"><title>Node23</title>
<g id="a_node18"><a xlink:href="PerturbativeInteraction_8cpp.html" target="_top" xlink:title="/travis/libpairinteraction\l/PerturbativeInteraction.cpp">
<polygon fill="none" stroke="black" points="686.5,-134.5 686.5,-164.5 835.5,-164.5 835.5,-134.5 686.5,-134.5"/>
<text text-anchor="start" x="694.5" y="-152.5" font-family="Helvetica,sans-Serif" font-size="10.00">/travis/libpairinteraction</text>
<text text-anchor="middle" x="761" y="-141.5" font-family="Helvetica,sans-Serif" font-size="10.00">/PerturbativeInteraction.cpp</text>
</a>
</g>
</g>
<!-- Node22&#45;&gt;Node23 -->
<g id="edge23" class="edge"><title>Node22&#45;&gt;Node23</title>
<path fill="none" stroke="midnightblue" d="M787.072,-192.867C781.283,-183.459 774.744,-172.833 769.662,-164.577"/>
<polygon fill="midnightblue" stroke="midnightblue" points="784.099,-194.714 792.321,-201.396 790.06,-191.045 784.099,-194.714"/>
</g>
<!-- Node24&#45;&gt;Node25 -->
<g id="edge25" class="edge"><title>Node24&#45;&gt;Node25</title>
<path fill="none" stroke="midnightblue" d="M1033.2,-196.296C1015.84,-186.125 994.883,-173.855 979.038,-164.577"/>
<polygon fill="midnightblue" stroke="midnightblue" points="1031.52,-199.363 1041.91,-201.396 1035.05,-193.322 1031.52,-199.363"/>
</g>
<!-- Node24&#45;&gt;Node27 -->
<g id="edge31" class="edge"><title>Node24&#45;&gt;Node27</title>
<path fill="none" stroke="midnightblue" d="M1065.83,-190.987C1065.39,-174.727 1064.18,-152.971 1061,-134 1058.93,-121.617 1055.02,-107.91 1051.86,-97.9042"/>
<polygon fill="midnightblue" stroke="midnightblue" points="1062.33,-191.332 1066.02,-201.264 1069.33,-191.199 1062.33,-191.332"/>
</g>
<!-- Node25&#45;&gt;Node26 -->
<g id="edge26" class="edge"><title>Node25&#45;&gt;Node26</title>
<path fill="none" stroke="midnightblue" d="M889.446,-131.984C847.305,-121.367 793.135,-107.72 753.009,-97.6109"/>
<polygon fill="midnightblue" stroke="midnightblue" points="888.783,-135.427 899.335,-134.476 890.494,-128.639 888.783,-135.427"/>
</g>
<!-- Node25&#45;&gt;Node27 -->
<g id="edge27" class="edge"><title>Node25&#45;&gt;Node27</title>
<path fill="none" stroke="midnightblue" d="M983.377,-128.451C997.53,-118.452 1014.31,-106.6 1027.08,-97.5765"/>
<polygon fill="midnightblue" stroke="midnightblue" points="981.11,-125.767 974.963,-134.396 985.149,-131.484 981.11,-125.767"/>
</g>
<!-- Node25&#45;&gt;Node29 -->
<g id="edge30" class="edge"><title>Node25&#45;&gt;Node29</title>
<path fill="none" stroke="midnightblue" d="M955,-124.024C955,-96.5121 955,-52.7894 955,-30.5247"/>
<polygon fill="midnightblue" stroke="midnightblue" points="951.5,-124.374 955,-134.374 958.5,-124.374 951.5,-124.374"/>
</g>
<!-- Node27&#45;&gt;Node28 -->
<g id="edge28" class="edge"><title>Node27&#45;&gt;Node28</title>
<path fill="none" stroke="midnightblue" d="M1121.21,-70.8045C1208.27,-58.2565 1351.19,-37.6591 1433.72,-25.7646"/>
<polygon fill="midnightblue" stroke="midnightblue" points="1120.54,-67.3653 1111.14,-72.2561 1121.54,-74.2937 1120.54,-67.3653"/>
</g>
<!-- Node27&#45;&gt;Node29 -->
<g id="edge29" class="edge"><title>Node27&#45;&gt;Node29</title>
<path fill="none" stroke="midnightblue" d="M1018.62,-61.4511C1004.47,-51.4517 987.695,-39.5995 974.924,-30.5765"/>
<polygon fill="midnightblue" stroke="midnightblue" points="1016.85,-64.4841 1027.04,-67.396 1020.89,-58.7671 1016.85,-64.4841"/>
</g>
<!-- Node31&#45;&gt;Node10 -->
<g id="edge42" class="edge"><title>Node31&#45;&gt;Node10</title>
<path fill="none" stroke="midnightblue" d="M210,-414.224C210,-383.028 210,-329.867 210,-304.414"/>
<polygon fill="midnightblue" stroke="midnightblue" points="206.5,-414.261 210,-424.261 213.5,-414.261 206.5,-414.261"/>
</g>
<!-- Node32&#45;&gt;Node19 -->
<g id="edge51" class="edge"><title>Node32&#45;&gt;Node19</title>
<path fill="none" stroke="midnightblue" d="M1443.52,-433.466C1397.07,-427.63 1337.49,-415.058 1291,-388 1269.24,-375.337 1274.92,-358.383 1253,-346 1180.45,-305.01 1150.58,-326.983 1069,-310 941.553,-283.469 792.861,-250.057 711.315,-231.521"/>
<polygon fill="midnightblue" stroke="midnightblue" points="1443.18,-436.95 1453.53,-434.644 1444,-429.998 1443.18,-436.95"/>
</g>
<!-- Node32&#45;&gt;Node21 -->
<g id="edge50" class="edge"><title>Node32&#45;&gt;Node21</title>
<path fill="none" stroke="midnightblue" d="M1592.12,-426.575C1614.32,-419.205 1636.36,-407.283 1650,-388 1680.8,-344.449 1684.13,-310.579 1652,-268 1638.72,-250.4 1588.32,-237.1 1544.68,-228.579"/>
<polygon fill="midnightblue" stroke="midnightblue" points="1590.84,-423.307 1582.28,-429.557 1592.87,-430.006 1590.84,-423.307"/>
</g>
<!-- Node32&#45;&gt;Node30 -->
<g id="edge53" class="edge"><title>Node32&#45;&gt;Node30</title>
<path fill="none" stroke="midnightblue" d="M1444.1,-425.349C1391.93,-415.773 1320.48,-402.065 1258,-388 1249.95,-386.189 1241.47,-384.15 1233.19,-382.085"/>
<polygon fill="midnightblue" stroke="midnightblue" points="1443.47,-428.793 1453.94,-427.149 1444.73,-421.907 1443.47,-428.793"/>
</g>
<!-- Node32&#45;&gt;Node33 -->
<g id="edge45" class="edge"><title>Node32&#45;&gt;Node33</title>
<path fill="none" stroke="midnightblue" d="M1478,-420.187C1452.01,-408.29 1418.65,-393.018 1394.74,-382.073"/>
<polygon fill="midnightblue" stroke="midnightblue" points="1476.66,-423.423 1487.21,-424.403 1479.57,-417.058 1476.66,-423.423"/>
</g>
<!-- Node34 -->
<g id="node29" class="node"><title>Node34</title>
<g id="a_node29"><a xlink:href="wavefunction__test_8cpp.html" target="_top" xlink:title="/travis/libpairinteraction\l/unit_test/wavefunction\l_test.cpp">
<polygon fill="none" stroke="black" points="1323,-268.5 1323,-309.5 1451,-309.5 1451,-268.5 1323,-268.5"/>
<text text-anchor="start" x="1331" y="-297.5" font-family="Helvetica,sans-Serif" font-size="10.00">/travis/libpairinteraction</text>
<text text-anchor="start" x="1331" y="-286.5" font-family="Helvetica,sans-Serif" font-size="10.00">/unit_test/wavefunction</text>
<text text-anchor="middle" x="1387" y="-275.5" font-family="Helvetica,sans-Serif" font-size="10.00">_test.cpp</text>
</a>
</g>
</g>
<!-- Node32&#45;&gt;Node34 -->
<g id="edge55" class="edge"><title>Node32&#45;&gt;Node34</title>
<path fill="none" stroke="midnightblue" d="M1564.84,-419.53C1577.93,-411.796 1590.59,-401.44 1598,-388 1607.01,-371.653 1609.38,-360.796 1598,-346 1588.83,-334.078 1509.89,-315.407 1451.24,-302.943"/>
<polygon fill="midnightblue" stroke="midnightblue" points="1562.88,-416.613 1555.77,-424.47 1566.23,-422.76 1562.88,-416.613"/>
</g>
<!-- Node35 -->
<g id="node30" class="node"><title>Node35</title>
<g id="a_node30"><a xlink:href="Wavefunction_8cpp.html" target="_top" xlink:title="/travis/libpairinteraction\l/Wavefunction.cpp">
<polygon fill="none" stroke="black" points="1515,-274 1515,-304 1643,-304 1643,-274 1515,-274"/>
<text text-anchor="start" x="1523" y="-292" font-family="Helvetica,sans-Serif" font-size="10.00">/travis/libpairinteraction</text>
<text text-anchor="middle" x="1579" y="-281" font-family="Helvetica,sans-Serif" font-size="10.00">/Wavefunction.cpp</text>
</a>
</g>
</g>
<!-- Node32&#45;&gt;Node35 -->
<g id="edge56" class="edge"><title>Node32&#45;&gt;Node35</title>
<path fill="none" stroke="midnightblue" d="M1591.53,-420.594C1607.48,-413.17 1622.43,-402.712 1632,-388 1642.18,-372.354 1638.91,-363.342 1632,-346 1625.22,-328.962 1610.51,-314.122 1598.31,-304.007"/>
<polygon fill="midnightblue" stroke="midnightblue" points="1589.88,-417.49 1582.05,-424.623 1592.62,-423.932 1589.88,-417.49"/>
</g>
<!-- Node36 -->
<g id="node31" class="node"><title>Node36</title>
<g id="a_node31"><a xlink:href="QuantumDefect_8cpp.html" target="_top" xlink:title="/travis/libpairinteraction\l/QuantumDefect.cpp">
<polygon fill="none" stroke="black" points="1722,-352 1722,-382 1850,-382 1850,-352 1722,-352"/>
<text text-anchor="start" x="1730" y="-370" font-family="Helvetica,sans-Serif" font-size="10.00">/travis/libpairinteraction</text>
<text text-anchor="middle" x="1786" y="-359" font-family="Helvetica,sans-Serif" font-size="10.00">/QuantumDefect.cpp</text>
</a>
</g>
</g>
<!-- Node32&#45;&gt;Node36 -->
<g id="edge52" class="edge"><title>Node32&#45;&gt;Node36</title>
<path fill="none" stroke="midnightblue" d="M1581.13,-421.894C1627.12,-409.794 1688.76,-393.581 1732.37,-382.107"/>
<polygon fill="midnightblue" stroke="midnightblue" points="1580.05,-418.558 1571.27,-424.487 1581.83,-425.328 1580.05,-418.558"/>
</g>
<!-- Node37 -->
<g id="node32" class="node"><title>Node37</title>
<g id="a_node32"><a xlink:href="quantum__defect__test_8cpp.html" target="_top" xlink:title="/travis/libpairinteraction\l/unit_test/quantum_defect\l_test.cpp">
<polygon fill="none" stroke="black" points="1446.5,-346.5 1446.5,-387.5 1589.5,-387.5 1589.5,-346.5 1446.5,-346.5"/>
<text text-anchor="start" x="1454.5" y="-375.5" font-family="Helvetica,sans-Serif" font-size="10.00">/travis/libpairinteraction</text>
<text text-anchor="start" x="1454.5" y="-364.5" font-family="Helvetica,sans-Serif" font-size="10.00">/unit_test/quantum_defect</text>
<text text-anchor="middle" x="1518" y="-353.5" font-family="Helvetica,sans-Serif" font-size="10.00">_test.cpp</text>
</a>
</g>
</g>
<!-- Node32&#45;&gt;Node37 -->
<g id="edge54" class="edge"><title>Node32&#45;&gt;Node37</title>
<path fill="none" stroke="midnightblue" d="M1518,-413.982C1518,-405.347 1518,-395.762 1518,-387.588"/>
<polygon fill="midnightblue" stroke="midnightblue" points="1514.5,-414.233 1518,-424.233 1521.5,-414.233 1514.5,-414.233"/>
</g>
<!-- Node33&#45;&gt;Node18 -->
<g id="edge46" class="edge"><title>Node33&#45;&gt;Node18</title>
<path fill="none" stroke="midnightblue" d="M1289.7,-351.713C1277.47,-349.619 1264.9,-347.625 1253,-346 1058.96,-319.498 827.832,-301.777 718.033,-294.19"/>
<polygon fill="midnightblue" stroke="midnightblue" points="1289.42,-355.217 1299.88,-353.488 1290.63,-348.321 1289.42,-355.217"/>
</g>
<!-- Node33&#45;&gt;Node20 -->
<g id="edge47" class="edge"><title>Node33&#45;&gt;Node20</title>
<path fill="none" stroke="midnightblue" d="M1313.33,-348.654C1273.9,-335.156 1219.88,-316.663 1183.11,-304.075"/>
<polygon fill="midnightblue" stroke="midnightblue" points="1312.43,-352.044 1323.02,-351.972 1314.7,-345.422 1312.43,-352.044"/>
</g>
<!-- Node33&#45;&gt;Node34 -->
<g id="edge48" class="edge"><title>Node33&#45;&gt;Node34</title>
<path fill="none" stroke="midnightblue" d="M1371.27,-341.982C1374.42,-331.576 1378.06,-319.545 1381.04,-309.68"/>
<polygon fill="midnightblue" stroke="midnightblue" points="1367.87,-341.12 1368.33,-351.705 1374.57,-343.148 1367.87,-341.12"/>
</g>
<!-- Node33&#45;&gt;Node35 -->
<g id="edge49" class="edge"><title>Node33&#45;&gt;Node35</title>
<path fill="none" stroke="midnightblue" d="M1413.56,-348.482C1451.7,-334.999 1503.72,-316.61 1539.18,-304.075"/>
<polygon fill="midnightblue" stroke="midnightblue" points="1411.95,-345.339 1403.68,-351.972 1414.28,-351.939 1411.95,-345.339"/>
</g>
</g>
</svg>
        <g id="navigator" transform="translate(0 0)" fill="#404254">
                <rect fill="#f2f5e9" fill-opacity="0.5" stroke="#606060" stroke-width=".5" x="0" y="0" width="60" height="60"/>
                <use id="zoomplus" xlink:href="#zoomPlus" x="17" y="9" onmousedown="handleZoom(evt,'in')"/>
                <use id="zoomminus" xlink:href="#zoomMin" x="42" y="9" onmousedown="handleZoom(evt,'out')"/>
                <use id="reset" xlink:href="#resetDef" x="30" y="36" onmousedown="handleReset()"/>
                <g id="arrowUp" xlink:href="#dirArrow" transform="translate(30 24)" onmousedown="handlePan(0,-1)">
                  <use xlink:href="#rim" fill="#404040">
                        <set attributeName="fill" to="#808080" begin="arrowUp.mouseover" end="arrowUp.mouseout"/>
                  </use>
                  <path fill="none" stroke="white" stroke-width="1.5" d="M0,-3.0v7 M-2.5,-0.5L0,-3.0L2.5,-0.5"/>
                </g>
                <g id="arrowRight" xlink:href="#dirArrow" transform="rotate(90) translate(36 -43)" onmousedown="handlePan(1,0)">
                  <use xlink:href="#rim" fill="#404040">
                        <set attributeName="fill" to="#808080" begin="arrowRight.mouseover" end="arrowRight.mouseout"/>
                  </use>
                  <path fill="none" stroke="white" stroke-width="1.5" d="M0,-3.0v7 M-2.5,-0.5L0,-3.0L2.5,-0.5"/>
                </g>
                <g id="arrowDown" xlink:href="#dirArrow" transform="rotate(180) translate(-30 -48)" onmousedown="handlePan(0,1)">
                  <use xlink:href="#rim" fill="#404040">
                        <set attributeName="fill" to="#808080" begin="arrowDown.mouseover" end="arrowDown.mouseout"/>
                  </use>
                  <path fill="none" stroke="white" stroke-width="1.5" d="M0,-3.0v7 M-2.5,-0.5L0,-3.0L2.5,-0.5"/>
                </g>
                <g id="arrowLeft" xlink:href="#dirArrow" transform="rotate(270) translate(-36 17)" onmousedown="handlePan(-1,0)">
                  <use xlink:href="#rim" fill="#404040">
                        <set attributeName="fill" to="#808080" begin="arrowLeft.mouseover" end="arrowLeft.mouseout"/>
                  </use>
                  <path fill="none" stroke="white" stroke-width="1.5" d="M0,-3.0v7 M-2.5,-0.5L0,-3.0L2.5,-0.5"/>
                </g>
        </g>
        <svg viewBox="0 0 15 15" width="100%" height="30px" preserveAspectRatio="xMaxYMin meet">
         <g id="arrow_out" transform="scale(0.3 0.3)">
          <a xlink:href="dtypes_8h__dep__incl_org.svg" target="_base">
           <rect id="button" ry="5" rx="5" y="6" x="6" height="38" width="38"
                fill="#f2f5e9" fill-opacity="0.5" stroke="#606060" stroke-width="1.0"/>
           <path id="arrow"
             d="M 11.500037,31.436501 C 11.940474,20.09759 22.043105,11.32322 32.158766,21.979434 L 37.068811,17.246167 C 37.068811,17.246167 37.088388,32 37.088388,32 L 22.160133,31.978069 C 22.160133,31.978069 26.997745,27.140456 26.997745,27.140456 C 18.528582,18.264221 13.291696,25.230495 11.500037,31.436501 z"
             style="fill:#404040;"/>
          </a>
         </g>
        </svg>
</svg>
