<?xml version="1.0" encoding="UTF-8" standalone="no"?>
<!DOCTYPE svg PUBLIC "-//W3C//DTD SVG 1.1//EN"
 "http://www.w3.org/Graphics/SVG/1.1/DTD/svg11.dtd">
<!-- Generated by graphviz version 2.38.0 (20140413.2041)
 -->
<!-- Title: /travis/libpairinteraction/dtypes.h Pages: 1 -->
<svg width="373pt" height="95pt"
 viewBox="0.00 0.00 373.00 95.00" xmlns="http://www.w3.org/2000/svg" xmlns:xlink="http://www.w3.org/1999/xlink">
<g id="graph0" class="graph" transform="scale(1 1) rotate(0) translate(4 91)">
<title>/travis/libpairinteraction/dtypes.h</title>
<!-- Node0 -->
<g id="node1" class="node"><title>Node0</title>
<polygon fill="#bfbfbf" stroke="black" points="150.5,-56.5 150.5,-86.5 278.5,-86.5 278.5,-56.5 150.5,-56.5"/>
<text text-anchor="start" x="158.5" y="-74.5" font-family="Helvetica,sans-Serif" font-size="10.00">/travis/libpairinteraction</text>
<text text-anchor="middle" x="214.5" y="-63.5" font-family="Helvetica,sans-Serif" font-size="10.00">/dtypes.h</text>
</g>
<!-- Node1 -->
<g id="node2" class="node"><title>Node1</title>
<polygon fill="none" stroke="#bfbfbf" points="0,-0.5 0,-19.5 77,-19.5 77,-0.5 0,-0.5"/>
<text text-anchor="middle" x="38.5" y="-7.5" font-family="Helvetica,sans-Serif" font-size="10.00">Eigen/Dense</text>
</g>
<!-- Node0&#45;&gt;Node1 -->
<g id="edge1" class="edge"><title>Node0&#45;&gt;Node1</title>
<path fill="none" stroke="midnightblue" d="M172.79,-56.3993C142.511,-46.1627 102.009,-32.4703 73.4284,-22.8082"/>
<polygon fill="midnightblue" stroke="midnightblue" points="74.4469,-19.458 63.8526,-19.5709 72.205,-26.0893 74.4469,-19.458"/>
</g>
<!-- Node2 -->
<g id="node3" class="node"><title>Node2</title>
<polygon fill="none" stroke="#bfbfbf" points="95.5,-0.5 95.5,-19.5 175.5,-19.5 175.5,-0.5 95.5,-0.5"/>
<text text-anchor="middle" x="135.5" y="-7.5" font-family="Helvetica,sans-Serif" font-size="10.00">Eigen/Sparse</text>
</g>
<!-- Node0&#45;&gt;Node2 -->
<g id="edge2" class="edge"><title>Node0&#45;&gt;Node2</title>
<path fill="none" stroke="midnightblue" d="M195.778,-56.3993C183.588,-47.2185 167.708,-35.2579 155.307,-25.9182"/>
<polygon fill="midnightblue" stroke="midnightblue" points="157.089,-22.8782 146.995,-19.6578 152.877,-28.4697 157.089,-22.8782"/>
</g>
<!-- Node3 -->
<g id="node4" class="node"><title>Node3</title>
<polygon fill="none" stroke="#bfbfbf" points="194,-0.5 194,-19.5 235,-19.5 235,-0.5 194,-0.5"/>
<text text-anchor="middle" x="214.5" y="-7.5" font-family="Helvetica,sans-Serif" font-size="10.00">array</text>
</g>
<!-- Node0&#45;&gt;Node3 -->
<g id="edge3" class="edge"><title>Node0&#45;&gt;Node3</title>
<path fill="none" stroke="midnightblue" d="M214.5,-56.3993C214.5,-48.4664 214.5,-38.458 214.5,-29.8583"/>
<polygon fill="midnightblue" stroke="midnightblue" points="218,-29.6577 214.5,-19.6578 211,-29.6578 218,-29.6577"/>
</g>
<!-- Node4 -->
<g id="node5" class="node"><title>Node4</title>
<polygon fill="none" stroke="#bfbfbf" points="253,-0.5 253,-19.5 300,-19.5 300,-0.5 253,-0.5"/>
<text text-anchor="middle" x="276.5" y="-7.5" font-family="Helvetica,sans-Serif" font-size="10.00">cmath</text>
</g>
<!-- Node0&#45;&gt;Node4 -->
<g id="edge4" class="edge"><title>Node0&#45;&gt;Node4</title>
<path fill="none" stroke="midnightblue" d="M229.193,-56.3993C238.481,-47.4859 250.499,-35.9523 260.098,-26.7408"/>
<polygon fill="midnightblue" stroke="midnightblue" points="262.687,-29.1072 267.478,-19.6578 257.84,-24.0566 262.687,-29.1072"/>
</g>
<!-- Node5 -->
<g id="node6" class="node"><title>Node5</title>
<polygon fill="none" stroke="#bfbfbf" points="318,-0.5 318,-19.5 365,-19.5 365,-0.5 318,-0.5"/>
<text text-anchor="middle" x="341.5" y="-7.5" font-family="Helvetica,sans-Serif" font-size="10.00">vector</text>
</g>
<!-- Node0&#45;&gt;Node5 -->
<g id="edge5" class="edge"><title>Node0&#45;&gt;Node5</title>
<path fill="none" stroke="midnightblue" d="M244.597,-56.3993C265.62,-46.55 293.472,-33.5014 313.919,-23.9217"/>
<polygon fill="midnightblue" stroke="midnightblue" points="315.45,-27.0698 323.02,-19.6578 312.48,-20.7309 315.45,-27.0698"/>
</g>
</g>
</svg>
