<?xml version="1.0" encoding="UTF-8" standalone="no"?>
<!DOCTYPE svg PUBLIC "-//W3C//DTD SVG 1.1//EN"
 "http://www.w3.org/Graphics/SVG/1.1/DTD/svg11.dtd">
<!-- Generated by graphviz version 2.38.0 (20140413.2041)
 -->
<!-- Title: /travis/libpairinteraction/Hamiltonianmatrix.h Pages: 1 -->
<svg width="1983pt" height="274pt"
 viewBox="0.00 0.00 1982.50 274.00" xmlns="http://www.w3.org/2000/svg" xmlns:xlink="http://www.w3.org/1999/xlink">
<g id="graph0" class="graph" transform="scale(1 1) rotate(0) translate(4 270)">
<title>/travis/libpairinteraction/Hamiltonianmatrix.h</title>
<!-- Node0 -->
<g id="node1" class="node"><title>Node0</title>
<polygon fill="#bfbfbf" stroke="black" points="1139.5,-235.5 1139.5,-265.5 1267.5,-265.5 1267.5,-235.5 1139.5,-235.5"/>
<text text-anchor="start" x="1147.5" y="-253.5" font-family="Helvetica,sans-Serif" font-size="10.00">/travis/libpairinteraction</text>
<text text-anchor="middle" x="1203.5" y="-242.5" font-family="Helvetica,sans-Serif" font-size="10.00">/Hamiltonianmatrix.h</text>
</g>
<!-- Node1 -->
<g id="node2" class="node"><title>Node1</title>
<g id="a_node2"><a xlink:href="Basisnames_8h.html" target="_top" xlink:title="Basisnames.h">
<polygon fill="none" stroke="black" points="793.5,-179.5 793.5,-198.5 877.5,-198.5 877.5,-179.5 793.5,-179.5"/>
<text text-anchor="middle" x="835.5" y="-186.5" font-family="Helvetica,sans-Serif" font-size="10.00">Basisnames.h</text>
</a>
</g>
</g>
<!-- Node0&#45;&gt;Node1 -->
<g id="edge1" class="edge"><title>Node0&#45;&gt;Node1</title>
<path fill="none" stroke="midnightblue" d="M1139.4,-239.136C1068.05,-227.6 954.107,-209.177 887.885,-198.47"/>
<polygon fill="midnightblue" stroke="midnightblue" points="888.111,-194.961 877.681,-196.82 886.994,-201.871 888.111,-194.961"/>
</g>
<!-- Node8 -->
<g id="node9" class="node"><title>Node8</title>
<g id="a_node9"><a xlink:href="State_8h.html" target="_top" xlink:title="State.h">
<polygon fill="none" stroke="black" points="475.5,-123.5 475.5,-142.5 527.5,-142.5 527.5,-123.5 475.5,-123.5"/>
<text text-anchor="middle" x="501.5" y="-130.5" font-family="Helvetica,sans-Serif" font-size="10.00">State.h</text>
</a>
</g>
</g>
<!-- Node0&#45;&gt;Node8 -->
<g id="edge38" class="edge"><title>Node0&#45;&gt;Node8</title>
<path fill="none" stroke="midnightblue" d="M1139.3,-243.892C1056.82,-236.199 909.367,-220.802 784.5,-199 694.926,-183.36 591.083,-157.491 537.548,-143.571"/>
<polygon fill="midnightblue" stroke="midnightblue" points="538.401,-140.177 527.841,-141.035 536.631,-146.949 538.401,-140.177"/>
</g>
<!-- Node9 -->
<g id="node10" class="node"><title>Node9</title>
<g id="a_node10"><a xlink:href="dtypes_8h.html" target="_top" xlink:title="dtypes.h">
<polygon fill="none" stroke="black" points="1021.5,-62 1021.5,-81 1079.5,-81 1079.5,-62 1021.5,-62"/>
<text text-anchor="middle" x="1050.5" y="-69" font-family="Helvetica,sans-Serif" font-size="10.00">dtypes.h</text>
</a>
</g>
</g>
<!-- Node0&#45;&gt;Node9 -->
<g id="edge39" class="edge"><title>Node0&#45;&gt;Node9</title>
<path fill="none" stroke="midnightblue" d="M1176.79,-235.478C1146.23,-218.002 1096.99,-185.223 1070.5,-143 1060.59,-127.198 1055.47,-106.37 1052.9,-91.457"/>
<polygon fill="midnightblue" stroke="midnightblue" points="1056.34,-90.7625 1051.4,-81.3873 1049.42,-91.7939 1056.34,-90.7625"/>
</g>
<!-- Node13 -->
<g id="node14" class="node"><title>Node13</title>
<polygon fill="none" stroke="#bfbfbf" points="0,-0.5 0,-19.5 47,-19.5 47,-0.5 0,-0.5"/>
<text text-anchor="middle" x="23.5" y="-7.5" font-family="Helvetica,sans-Serif" font-size="10.00">cmath</text>
</g>
<!-- Node0&#45;&gt;Node13 -->
<g id="edge46" class="edge"><title>Node0&#45;&gt;Node13</title>
<path fill="none" stroke="midnightblue" d="M1139.38,-244.662C1041.66,-236.964 849.668,-220.565 687.5,-199 390.397,-159.491 216.035,-315.856 22.5,-87 9.21969,-71.296 12.4808,-46.5431 17.0643,-29.5808"/>
<polygon fill="midnightblue" stroke="midnightblue" points="20.4991,-30.3201 20.1067,-19.7325 13.8109,-28.2539 20.4991,-30.3201"/>
</g>
<!-- Node14 -->
<g id="node15" class="node"><title>Node14</title>
<polygon fill="none" stroke="#bfbfbf" points="1133,-0.5 1133,-19.5 1180,-19.5 1180,-0.5 1133,-0.5"/>
<text text-anchor="middle" x="1156.5" y="-7.5" font-family="Helvetica,sans-Serif" font-size="10.00">vector</text>
</g>
<!-- Node0&#45;&gt;Node14 -->
<g id="edge52" class="edge"><title>Node0&#45;&gt;Node14</title>
<path fill="none" stroke="midnightblue" d="M1200.7,-235.295C1192.63,-194.346 1169.32,-76.0513 1160.21,-29.8261"/>
<polygon fill="midnightblue" stroke="midnightblue" points="1163.63,-29.0802 1158.26,-19.9456 1156.76,-30.4337 1163.63,-29.0802"/>
</g>
<!-- Node21 -->
<g id="node22" class="node"><title>Node21</title>
<polygon fill="none" stroke="#bfbfbf" points="1080,-123.5 1080,-142.5 1137,-142.5 1137,-123.5 1080,-123.5"/>
<text text-anchor="middle" x="1108.5" y="-130.5" font-family="Helvetica,sans-Serif" font-size="10.00">memory</text>
</g>
<!-- Node0&#45;&gt;Node21 -->
<g id="edge50" class="edge"><title>Node0&#45;&gt;Node21</title>
<path fill="none" stroke="midnightblue" d="M1187.14,-235.299C1176.42,-225.604 1162.42,-212.175 1151.5,-199 1138.99,-183.913 1126.87,-165.09 1118.71,-151.589"/>
<polygon fill="midnightblue" stroke="midnightblue" points="1121.62,-149.643 1113.51,-142.828 1115.6,-153.214 1121.62,-149.643"/>
</g>
<!-- Node24 -->
<g id="node25" class="node"><title>Node24</title>
<g id="a_node25"><a xlink:href="Serializable_8h.html" target="_top" xlink:title="Serializable.h">
<polygon fill="none" stroke="black" points="1228.5,-179.5 1228.5,-198.5 1308.5,-198.5 1308.5,-179.5 1228.5,-179.5"/>
<text text-anchor="middle" x="1268.5" y="-186.5" font-family="Helvetica,sans-Serif" font-size="10.00">Serializable.h</text>
</a>
</g>
</g>
<!-- Node0&#45;&gt;Node24 -->
<g id="edge30" class="edge"><title>Node0&#45;&gt;Node24</title>
<path fill="none" stroke="midnightblue" d="M1218.9,-235.399C1228.74,-226.397 1241.49,-214.721 1251.61,-205.465"/>
<polygon fill="midnightblue" stroke="midnightblue" points="1254.03,-207.992 1259.04,-198.658 1249.3,-202.828 1254.03,-207.992"/>
</g>
<!-- Node29 -->
<g id="node30" class="node"><title>Node29</title>
<g id="a_node30"><a xlink:href="utils_8h.html" target="_top" xlink:title="utils.h">
<polygon fill="none" stroke="black" points="1482,-179.5 1482,-198.5 1527,-198.5 1527,-179.5 1482,-179.5"/>
<text text-anchor="middle" x="1504.5" y="-186.5" font-family="Helvetica,sans-Serif" font-size="10.00">utils.h</text>
</a>
</g>
</g>
<!-- Node0&#45;&gt;Node29 -->
<g id="edge40" class="edge"><title>Node0&#45;&gt;Node29</title>
<path fill="none" stroke="midnightblue" d="M1267.7,-236.809C1330.28,-224.44 1422.91,-206.129 1471.69,-196.485"/>
<polygon fill="midnightblue" stroke="midnightblue" points="1472.56,-199.881 1481.7,-194.508 1471.21,-193.013 1472.56,-199.881"/>
</g>
<!-- Node35 -->
<g id="node36" class="node"><title>Node35</title>
<polygon fill="none" stroke="#bfbfbf" points="1545,-179.5 1545,-198.5 1594,-198.5 1594,-179.5 1545,-179.5"/>
<text text-anchor="middle" x="1569.5" y="-186.5" font-family="Helvetica,sans-Serif" font-size="10.00">cstdint</text>
</g>
<!-- Node0&#45;&gt;Node35 -->
<g id="edge47" class="edge"><title>Node0&#45;&gt;Node35</title>
<path fill="none" stroke="midnightblue" d="M1267.51,-241.846C1332.48,-233.607 1436.08,-219.181 1534.84,-198.939"/>
<polygon fill="midnightblue" stroke="midnightblue" points="1535.61,-202.355 1544.69,-196.898 1534.19,-195.5 1535.61,-202.355"/>
</g>
<!-- Node36 -->
<g id="node37" class="node"><title>Node36</title>
<polygon fill="none" stroke="#bfbfbf" points="1612,-179.5 1612,-198.5 1657,-198.5 1657,-179.5 1612,-179.5"/>
<text text-anchor="middle" x="1634.5" y="-186.5" font-family="Helvetica,sans-Serif" font-size="10.00">cstdio</text>
</g>
<!-- Node0&#45;&gt;Node36 -->
<g id="edge48" class="edge"><title>Node0&#45;&gt;Node36</title>
<path fill="none" stroke="midnightblue" d="M1267.55,-244.342C1344.68,-237.473 1478.21,-223.487 1601.85,-198.837"/>
<polygon fill="midnightblue" stroke="midnightblue" points="1602.77,-202.223 1611.88,-196.811 1601.38,-195.362 1602.77,-202.223"/>
</g>
<!-- Node37 -->
<g id="node38" class="node"><title>Node37</title>
<polygon fill="none" stroke="#bfbfbf" points="1675,-179.5 1675,-198.5 1738,-198.5 1738,-179.5 1675,-179.5"/>
<text text-anchor="middle" x="1706.5" y="-186.5" font-family="Helvetica,sans-Serif" font-size="10.00">exception</text>
</g>
<!-- Node0&#45;&gt;Node37 -->
<g id="edge49" class="edge"><title>Node0&#45;&gt;Node37</title>
<path fill="none" stroke="midnightblue" d="M1267.69,-244.672C1355.18,-237.605 1516.9,-222.819 1664.62,-198.973"/>
<polygon fill="midnightblue" stroke="midnightblue" points="1665.47,-202.38 1674.78,-197.315 1664.35,-195.471 1665.47,-202.38"/>
</g>
<!-- Node38 -->
<g id="node39" class="node"><title>Node38</title>
<polygon fill="none" stroke="#bfbfbf" points="1756.5,-179.5 1756.5,-198.5 1820.5,-198.5 1820.5,-179.5 1756.5,-179.5"/>
<text text-anchor="middle" x="1788.5" y="-186.5" font-family="Helvetica,sans-Serif" font-size="10.00">stdexcept</text>
</g>
<!-- Node0&#45;&gt;Node38 -->
<g id="edge51" class="edge"><title>Node0&#45;&gt;Node38</title>
<path fill="none" stroke="midnightblue" d="M1267.75,-245.994C1369.68,-239.878 1574.53,-225.327 1746.5,-199 1746.6,-198.984 1746.7,-198.969 1746.8,-198.953"/>
<polygon fill="midnightblue" stroke="midnightblue" points="1747.22,-202.434 1756.47,-197.272 1746.02,-195.538 1747.22,-202.434"/>
</g>
<!-- Node2 -->
<g id="node3" class="node"><title>Node2</title>
<g id="a_node3"><a xlink:href="ConfParser_8h.html" target="_top" xlink:title="ConfParser.h">
<polygon fill="none" stroke="black" points="870,-123.5 870,-142.5 947,-142.5 947,-123.5 870,-123.5"/>
<text text-anchor="middle" x="908.5" y="-130.5" font-family="Helvetica,sans-Serif" font-size="10.00">ConfParser.h</text>
</a>
</g>
</g>
<!-- Node1&#45;&gt;Node2 -->
<g id="edge2" class="edge"><title>Node1&#45;&gt;Node2</title>
<path fill="none" stroke="midnightblue" d="M847.229,-179.324C858.337,-171.107 875.242,-158.602 888.483,-148.807"/>
<polygon fill="midnightblue" stroke="midnightblue" points="890.6,-151.595 896.558,-142.834 886.437,-145.967 890.6,-151.595"/>
</g>
<!-- Node5 -->
<g id="node6" class="node"><title>Node5</title>
<polygon fill="none" stroke="#bfbfbf" points="689.5,-62 689.5,-81 733.5,-81 733.5,-62 689.5,-62"/>
<text text-anchor="middle" x="711.5" y="-69" font-family="Helvetica,sans-Serif" font-size="10.00">string</text>
</g>
<!-- Node1&#45;&gt;Node5 -->
<g id="edge27" class="edge"><title>Node1&#45;&gt;Node5</title>
<path fill="none" stroke="midnightblue" d="M793.271,-187.062C726.673,-184.593 601.975,-175.618 574.5,-143 525.611,-84.9601 556.573,-135.796 679.5,-87 680.917,-86.4374 682.363,-85.8464 683.818,-85.238"/>
<polygon fill="midnightblue" stroke="midnightblue" points="685.583,-88.2869 693.353,-81.0843 682.787,-81.8694 685.583,-88.2869"/>
</g>
<!-- Node7 -->
<g id="node8" class="node"><title>Node7</title>
<g id="a_node8"><a xlink:href="Iter_8h.html" target="_top" xlink:title="Iter.h">
<polygon fill="none" stroke="black" points="688,-123.5 688,-142.5 729,-142.5 729,-123.5 688,-123.5"/>
<text text-anchor="middle" x="708.5" y="-130.5" font-family="Helvetica,sans-Serif" font-size="10.00">Iter.h</text>
</a>
</g>
</g>
<!-- Node1&#45;&gt;Node7 -->
<g id="edge7" class="edge"><title>Node1&#45;&gt;Node7</title>
<path fill="none" stroke="midnightblue" d="M815.376,-179.444C794.476,-170.557 761.565,-156.563 737.784,-146.451"/>
<polygon fill="midnightblue" stroke="midnightblue" points="739.102,-143.208 728.529,-142.516 736.362,-149.65 739.102,-143.208"/>
</g>
<!-- Node1&#45;&gt;Node8 -->
<g id="edge8" class="edge"><title>Node1&#45;&gt;Node8</title>
<path fill="none" stroke="midnightblue" d="M793.474,-182.502C736.275,-174.807 630.802,-159.86 541.5,-143 540.241,-142.762 538.961,-142.514 537.67,-142.256"/>
<polygon fill="midnightblue" stroke="midnightblue" points="538.201,-138.792 527.696,-140.168 536.766,-145.643 538.201,-138.792"/>
</g>
<!-- Node1&#45;&gt;Node9 -->
<g id="edge23" class="edge"><title>Node1&#45;&gt;Node9</title>
<path fill="none" stroke="midnightblue" d="M865.107,-179.452C890.028,-171.666 926.188,-158.96 955.5,-143 984.488,-127.217 1014.52,-103.468 1032.86,-87.9733"/>
<polygon fill="midnightblue" stroke="midnightblue" points="1035.56,-90.2694 1040.87,-81.1013 1031,-84.957 1035.56,-90.2694"/>
</g>
<!-- Node1&#45;&gt;Node14 -->
<g id="edge29" class="edge"><title>Node1&#45;&gt;Node14</title>
<path fill="none" stroke="midnightblue" d="M875.965,-179.49C929.202,-166.698 1023.6,-138.36 1088.5,-87 1110.52,-69.5723 1131.36,-44.5625 1144.03,-28.0581"/>
<polygon fill="midnightblue" stroke="midnightblue" points="1146.97,-29.9642 1150.18,-19.8661 1141.38,-25.7607 1146.97,-29.9642"/>
</g>
<!-- Node20 -->
<g id="node21" class="node"><title>Node20</title>
<polygon fill="none" stroke="#bfbfbf" points="747.5,-123.5 747.5,-142.5 801.5,-142.5 801.5,-123.5 747.5,-123.5"/>
<text text-anchor="middle" x="774.5" y="-130.5" font-family="Helvetica,sans-Serif" font-size="10.00">fstream</text>
</g>
<!-- Node1&#45;&gt;Node20 -->
<g id="edge24" class="edge"><title>Node1&#45;&gt;Node20</title>
<path fill="none" stroke="midnightblue" d="M825.699,-179.324C816.682,-171.341 803.094,-159.313 792.182,-149.653"/>
<polygon fill="midnightblue" stroke="midnightblue" points="794.287,-146.842 784.479,-142.834 789.647,-152.083 794.287,-146.842"/>
</g>
<!-- Node1&#45;&gt;Node21 -->
<g id="edge25" class="edge"><title>Node1&#45;&gt;Node21</title>
<path fill="none" stroke="midnightblue" d="M877.558,-179.681C930.031,-169.302 1019.03,-151.698 1069.85,-141.644"/>
<polygon fill="midnightblue" stroke="midnightblue" points="1070.66,-145.053 1079.79,-139.679 1069.3,-138.186 1070.66,-145.053"/>
</g>
<!-- Node22 -->
<g id="node23" class="node"><title>Node22</title>
<polygon fill="none" stroke="#bfbfbf" points="819.5,-123.5 819.5,-142.5 851.5,-142.5 851.5,-123.5 819.5,-123.5"/>
<text text-anchor="middle" x="835.5" y="-130.5" font-family="Helvetica,sans-Serif" font-size="10.00">set</text>
</g>
<!-- Node1&#45;&gt;Node22 -->
<g id="edge26" class="edge"><title>Node1&#45;&gt;Node22</title>
<path fill="none" stroke="midnightblue" d="M835.5,-179.083C835.5,-172.006 835.5,-161.861 835.5,-152.986"/>
<polygon fill="midnightblue" stroke="midnightblue" points="839,-152.751 835.5,-142.751 832,-152.751 839,-152.751"/>
</g>
<!-- Node23 -->
<g id="node24" class="node"><title>Node23</title>
<polygon fill="none" stroke="#bfbfbf" points="583.5,-123.5 583.5,-142.5 669.5,-142.5 669.5,-123.5 583.5,-123.5"/>
<text text-anchor="middle" x="626.5" y="-130.5" font-family="Helvetica,sans-Serif" font-size="10.00">unordered_set</text>
</g>
<!-- Node1&#45;&gt;Node23 -->
<g id="edge28" class="edge"><title>Node1&#45;&gt;Node23</title>
<path fill="none" stroke="midnightblue" d="M802.383,-179.444C766.382,-170.142 708.73,-155.246 669.314,-145.062"/>
<polygon fill="midnightblue" stroke="midnightblue" points="670.019,-141.629 659.462,-142.516 668.268,-148.407 670.019,-141.629"/>
</g>
<!-- Node3 -->
<g id="node4" class="node"><title>Node3</title>
<polygon fill="none" stroke="#bfbfbf" points="891.5,-62 891.5,-81 929.5,-81 929.5,-62 891.5,-62"/>
<text text-anchor="middle" x="910.5" y="-69" font-family="Helvetica,sans-Serif" font-size="10.00">map</text>
</g>
<!-- Node2&#45;&gt;Node3 -->
<g id="edge3" class="edge"><title>Node2&#45;&gt;Node3</title>
<path fill="none" stroke="midnightblue" d="M908.787,-123.475C909.069,-115.08 909.509,-101.981 909.873,-91.1631"/>
<polygon fill="midnightblue" stroke="midnightblue" points="913.376,-91.1211 910.214,-81.0091 906.38,-90.8858 913.376,-91.1211"/>
</g>
<!-- Node4 -->
<g id="node5" class="node"><title>Node4</title>
<polygon fill="none" stroke="#bfbfbf" points="947.5,-62 947.5,-81 1003.5,-81 1003.5,-62 947.5,-62"/>
<text text-anchor="middle" x="975.5" y="-69" font-family="Helvetica,sans-Serif" font-size="10.00">sstream</text>
</g>
<!-- Node2&#45;&gt;Node4 -->
<g id="edge4" class="edge"><title>Node2&#45;&gt;Node4</title>
<path fill="none" stroke="midnightblue" d="M918.099,-123.475C928.548,-114.197 945.468,-99.1706 958.236,-87.831"/>
<polygon fill="midnightblue" stroke="midnightblue" points="960.765,-90.2663 965.918,-81.0091 956.117,-85.0323 960.765,-90.2663"/>
</g>
<!-- Node2&#45;&gt;Node5 -->
<g id="edge5" class="edge"><title>Node2&#45;&gt;Node5</title>
<path fill="none" stroke="midnightblue" d="M869.671,-123.483C835.648,-115.548 785.118,-102.611 742.5,-87 740.889,-86.4099 739.247,-85.7685 737.602,-85.0948"/>
<polygon fill="midnightblue" stroke="midnightblue" points="738.894,-81.8395 728.331,-81.0163 736.075,-88.2469 738.894,-81.8395"/>
</g>
<!-- Node6 -->
<g id="node7" class="node"><title>Node6</title>
<polygon fill="none" stroke="#bfbfbf" points="751.5,-62 751.5,-81 873.5,-81 873.5,-62 751.5,-62"/>
<text text-anchor="middle" x="812.5" y="-69" font-family="Helvetica,sans-Serif" font-size="10.00">boost/lexical_cast.hpp</text>
</g>
<!-- Node2&#45;&gt;Node6 -->
<g id="edge6" class="edge"><title>Node2&#45;&gt;Node6</title>
<path fill="none" stroke="midnightblue" d="M894.746,-123.475C879.134,-113.799 853.437,-97.8721 834.917,-86.3941"/>
<polygon fill="midnightblue" stroke="midnightblue" points="836.573,-83.3023 826.229,-81.0091 832.885,-89.2522 836.573,-83.3023"/>
</g>
<!-- Node8&#45;&gt;Node5 -->
<g id="edge19" class="edge"><title>Node8&#45;&gt;Node5</title>
<path fill="none" stroke="midnightblue" d="M527.531,-126.021C569.796,-116.212 651.444,-96.8152 679.5,-87 681.162,-86.4184 682.857,-85.7836 684.555,-85.1149"/>
<polygon fill="midnightblue" stroke="midnightblue" points="686.289,-88.1812 694.124,-81.0499 683.552,-81.7384 686.289,-88.1812"/>
</g>
<!-- Node8&#45;&gt;Node9 -->
<g id="edge9" class="edge"><title>Node8&#45;&gt;Node9</title>
<path fill="none" stroke="midnightblue" d="M527.826,-128.492C541.697,-126.71 559.003,-124.592 574.5,-123 768.801,-103.046 822.025,-130.248 1012.5,-87 1015.5,-86.3184 1018.58,-85.4485 1021.63,-84.4742"/>
<polygon fill="midnightblue" stroke="midnightblue" points="1022.85,-87.754 1031.11,-81.1087 1020.51,-81.1577 1022.85,-87.754"/>
</g>
<!-- Node12 -->
<g id="node13" class="node"><title>Node12</title>
<polygon fill="none" stroke="#bfbfbf" points="713,-0.5 713,-19.5 754,-19.5 754,-0.5 713,-0.5"/>
<text text-anchor="middle" x="733.5" y="-7.5" font-family="Helvetica,sans-Serif" font-size="10.00">array</text>
</g>
<!-- Node8&#45;&gt;Node12 -->
<g id="edge15" class="edge"><title>Node8&#45;&gt;Node12</title>
<path fill="none" stroke="midnightblue" d="M514.223,-123.269C527.073,-114.369 547.409,-100.054 564.5,-87 581.821,-73.77 583.452,-66.5944 602.5,-56 634.738,-38.0691 675.379,-25.4693 702.777,-18.25"/>
<polygon fill="midnightblue" stroke="midnightblue" points="703.76,-21.6113 712.583,-15.7466 702.028,-14.8288 703.76,-21.6113"/>
</g>
<!-- Node8&#45;&gt;Node13 -->
<g id="edge17" class="edge"><title>Node8&#45;&gt;Node13</title>
<path fill="none" stroke="midnightblue" d="M475.397,-131.171C383.03,-128.007 75.4292,-115.405 42.5,-87 26.28,-73.0084 22.8265,-47.466 22.5701,-29.8817"/>
<polygon fill="midnightblue" stroke="midnightblue" points="26.0733,-29.7408 22.7613,-19.6769 19.0745,-29.6096 26.0733,-29.7408"/>
</g>
<!-- Node15 -->
<g id="node16" class="node"><title>Node15</title>
<polygon fill="none" stroke="#bfbfbf" points="415.5,-62 415.5,-81 555.5,-81 555.5,-62 415.5,-62"/>
<text text-anchor="middle" x="485.5" y="-69" font-family="Helvetica,sans-Serif" font-size="10.00">boost/functional/hash.hpp</text>
</g>
<!-- Node8&#45;&gt;Node15 -->
<g id="edge16" class="edge"><title>Node8&#45;&gt;Node15</title>
<path fill="none" stroke="midnightblue" d="M499.208,-123.475C496.926,-114.992 493.353,-101.704 490.427,-90.8222"/>
<polygon fill="midnightblue" stroke="midnightblue" points="493.765,-89.7571 487.788,-81.0091 487.005,-91.5749 493.765,-89.7571"/>
</g>
<!-- Node16 -->
<g id="node17" class="node"><title>Node16</title>
<polygon fill="none" stroke="#bfbfbf" points="612,-62 612,-81 671,-81 671,-62 612,-62"/>
<text text-anchor="middle" x="641.5" y="-69" font-family="Helvetica,sans-Serif" font-size="10.00">iostream</text>
</g>
<!-- Node8&#45;&gt;Node16 -->
<g id="edge18" class="edge"><title>Node8&#45;&gt;Node16</title>
<path fill="none" stroke="midnightblue" d="M521.559,-123.475C545.262,-113.401 584.906,-96.5525 612.083,-85.0023"/>
<polygon fill="midnightblue" stroke="midnightblue" points="613.644,-88.1417 621.479,-81.0091 610.906,-81.6994 613.644,-88.1417"/>
</g>
<!-- Node17 -->
<g id="node18" class="node"><title>Node17</title>
<polygon fill="none" stroke="#bfbfbf" points="51.5,-56.5 51.5,-86.5 155.5,-86.5 155.5,-56.5 51.5,-56.5"/>
<text text-anchor="start" x="59.5" y="-74.5" font-family="Helvetica,sans-Serif" font-size="10.00">boost/serialization</text>
<text text-anchor="middle" x="103.5" y="-63.5" font-family="Helvetica,sans-Serif" font-size="10.00">/array.hpp</text>
</g>
<!-- Node8&#45;&gt;Node17 -->
<g id="edge20" class="edge"><title>Node8&#45;&gt;Node17</title>
<path fill="none" stroke="midnightblue" d="M475.14,-129.393C419.726,-123.719 286.946,-109.104 165.853,-87.1359"/>
<polygon fill="midnightblue" stroke="midnightblue" points="166.138,-83.6298 155.67,-85.2658 164.873,-90.5146 166.138,-83.6298"/>
</g>
<!-- Node18 -->
<g id="node19" class="node"><title>Node18</title>
<polygon fill="none" stroke="#bfbfbf" points="173.5,-56.5 173.5,-86.5 277.5,-86.5 277.5,-56.5 173.5,-56.5"/>
<text text-anchor="start" x="181.5" y="-74.5" font-family="Helvetica,sans-Serif" font-size="10.00">boost/serialization</text>
<text text-anchor="middle" x="225.5" y="-63.5" font-family="Helvetica,sans-Serif" font-size="10.00">/string.hpp</text>
</g>
<!-- Node8&#45;&gt;Node18 -->
<g id="edge21" class="edge"><title>Node8&#45;&gt;Node18</title>
<path fill="none" stroke="midnightblue" d="M475.305,-126.755C436.509,-118.936 361.253,-103.573 287.626,-87.2195"/>
<polygon fill="midnightblue" stroke="midnightblue" points="288.244,-83.7715 277.722,-85.0115 286.721,-90.6038 288.244,-83.7715"/>
</g>
<!-- Node19 -->
<g id="node20" class="node"><title>Node19</title>
<polygon fill="none" stroke="#bfbfbf" points="296,-62 296,-81 397,-81 397,-62 296,-62"/>
<text text-anchor="middle" x="346.5" y="-69" font-family="Helvetica,sans-Serif" font-size="10.00">boost/variant.hpp</text>
</g>
<!-- Node8&#45;&gt;Node19 -->
<g id="edge22" class="edge"><title>Node8&#45;&gt;Node19</title>
<path fill="none" stroke="midnightblue" d="M479.292,-123.475C452.819,-113.313 408.386,-96.2564 378.28,-84.6996"/>
<polygon fill="midnightblue" stroke="midnightblue" points="379.257,-81.3254 368.667,-81.0091 376.748,-87.8604 379.257,-81.3254"/>
</g>
<!-- Node10 -->
<g id="node11" class="node"><title>Node10</title>
<polygon fill="none" stroke="#bfbfbf" points="923,-0.5 923,-19.5 1000,-19.5 1000,-0.5 923,-0.5"/>
<text text-anchor="middle" x="961.5" y="-7.5" font-family="Helvetica,sans-Serif" font-size="10.00">Eigen/Dense</text>
</g>
<!-- Node9&#45;&gt;Node10 -->
<g id="edge10" class="edge"><title>Node9&#45;&gt;Node10</title>
<path fill="none" stroke="midnightblue" d="M1037.75,-61.9751C1023.47,-52.4315 1000.1,-36.8073 982.992,-25.3683"/>
<polygon fill="midnightblue" stroke="midnightblue" points="984.486,-22.1572 974.228,-19.5091 980.596,-27.9766 984.486,-22.1572"/>
</g>
<!-- Node11 -->
<g id="node12" class="node"><title>Node11</title>
<polygon fill="none" stroke="#bfbfbf" points="1018.5,-0.5 1018.5,-19.5 1098.5,-19.5 1098.5,-0.5 1018.5,-0.5"/>
<text text-anchor="middle" x="1058.5" y="-7.5" font-family="Helvetica,sans-Serif" font-size="10.00">Eigen/Sparse</text>
</g>
<!-- Node9&#45;&gt;Node11 -->
<g id="edge11" class="edge"><title>Node9&#45;&gt;Node11</title>
<path fill="none" stroke="midnightblue" d="M1051.65,-61.9751C1052.77,-53.5803 1054.54,-40.4806 1055.99,-29.6631"/>
<polygon fill="midnightblue" stroke="midnightblue" points="1059.49,-29.8863 1057.36,-19.5091 1052.55,-28.9535 1059.49,-29.8863"/>
</g>
<!-- Node9&#45;&gt;Node12 -->
<g id="edge12" class="edge"><title>Node9&#45;&gt;Node12</title>
<path fill="none" stroke="midnightblue" d="M1030.24,-61.8922C1024.58,-59.7271 1018.37,-57.5742 1012.5,-56 924.021,-32.2522 816.187,-19.2071 764.301,-13.8857"/>
<polygon fill="midnightblue" stroke="midnightblue" points="764.404,-10.3786 754.106,-12.8663 763.708,-17.3439 764.404,-10.3786"/>
</g>
<!-- Node9&#45;&gt;Node13 -->
<g id="edge13" class="edge"><title>Node9&#45;&gt;Node13</title>
<path fill="none" stroke="midnightblue" d="M1031.53,-61.9002C1025.56,-59.567 1018.86,-57.3224 1012.5,-56 824.13,-16.8344 208.855,-11.7557 57.4107,-11.0978"/>
<polygon fill="midnightblue" stroke="midnightblue" points="57.3344,-7.59754 47.3205,-11.0576 57.3065,-14.5975 57.3344,-7.59754"/>
</g>
<!-- Node9&#45;&gt;Node14 -->
<g id="edge14" class="edge"><title>Node9&#45;&gt;Node14</title>
<path fill="none" stroke="midnightblue" d="M1065.69,-61.9751C1083.16,-52.1664 1112.08,-35.9346 1132.58,-24.425"/>
<polygon fill="midnightblue" stroke="midnightblue" points="1134.33,-27.456 1141.34,-19.5091 1130.91,-21.3519 1134.33,-27.456"/>
</g>
<!-- Node24&#45;&gt;Node9 -->
<g id="edge31" class="edge"><title>Node24&#45;&gt;Node9</title>
<path fill="none" stroke="midnightblue" d="M1252.11,-179.319C1214.3,-159.286 1120.75,-109.722 1075.63,-85.8164"/>
<polygon fill="midnightblue" stroke="midnightblue" points="1077.25,-82.7134 1066.78,-81.1245 1073.98,-88.8989 1077.25,-82.7134"/>
</g>
<!-- Node24&#45;&gt;Node14 -->
<g id="edge37" class="edge"><title>Node24&#45;&gt;Node14</title>
<path fill="none" stroke="midnightblue" d="M1263.1,-179.463C1245.77,-152.078 1191.34,-66.0524 1167.67,-28.6531"/>
<polygon fill="midnightblue" stroke="midnightblue" points="1170.42,-26.4472 1162.11,-19.8684 1164.5,-30.1902 1170.42,-26.4472"/>
</g>
<!-- Node24&#45;&gt;Node21 -->
<g id="edge33" class="edge"><title>Node24&#45;&gt;Node21</title>
<path fill="none" stroke="midnightblue" d="M1243.15,-179.444C1216.23,-170.359 1173.5,-155.939 1143.41,-145.783"/>
<polygon fill="midnightblue" stroke="midnightblue" points="1144.33,-142.398 1133.73,-142.516 1142.09,-149.031 1144.33,-142.398"/>
</g>
<!-- Node25 -->
<g id="node26" class="node"><title>Node25</title>
<polygon fill="none" stroke="#bfbfbf" points="1269.5,-123.5 1269.5,-142.5 1321.5,-142.5 1321.5,-123.5 1269.5,-123.5"/>
<text text-anchor="middle" x="1295.5" y="-130.5" font-family="Helvetica,sans-Serif" font-size="10.00">iterator</text>
</g>
<!-- Node24&#45;&gt;Node25 -->
<g id="edge32" class="edge"><title>Node24&#45;&gt;Node25</title>
<path fill="none" stroke="midnightblue" d="M1272.96,-179.083C1276.65,-171.691 1282.02,-160.953 1286.59,-151.811"/>
<polygon fill="midnightblue" stroke="midnightblue" points="1289.78,-153.261 1291.12,-142.751 1283.52,-150.13 1289.78,-153.261"/>
</g>
<!-- Node26 -->
<g id="node27" class="node"><title>Node26</title>
<polygon fill="none" stroke="#bfbfbf" points="1340,-123.5 1340,-142.5 1403,-142.5 1403,-123.5 1340,-123.5"/>
<text text-anchor="middle" x="1371.5" y="-130.5" font-family="Helvetica,sans-Serif" font-size="10.00">typeindex</text>
</g>
<!-- Node24&#45;&gt;Node26 -->
<g id="edge34" class="edge"><title>Node24&#45;&gt;Node26</title>
<path fill="none" stroke="midnightblue" d="M1285.05,-179.324C1301.49,-170.703 1326.93,-157.364 1345.97,-147.386"/>
<polygon fill="midnightblue" stroke="midnightblue" points="1347.76,-150.398 1354.99,-142.655 1344.51,-144.198 1347.76,-150.398"/>
</g>
<!-- Node27 -->
<g id="node28" class="node"><title>Node27</title>
<polygon fill="none" stroke="#bfbfbf" points="1421,-123.5 1421,-142.5 1476,-142.5 1476,-123.5 1421,-123.5"/>
<text text-anchor="middle" x="1448.5" y="-130.5" font-family="Helvetica,sans-Serif" font-size="10.00">typeinfo</text>
</g>
<!-- Node24&#45;&gt;Node27 -->
<g id="edge35" class="edge"><title>Node24&#45;&gt;Node27</title>
<path fill="none" stroke="midnightblue" d="M1297.02,-179.444C1327.84,-170.199 1377.07,-155.43 1411,-145.251"/>
<polygon fill="midnightblue" stroke="midnightblue" points="1412.42,-148.477 1421,-142.251 1410.41,-141.772 1412.42,-148.477"/>
</g>
<!-- Node28 -->
<g id="node29" class="node"><title>Node28</title>
<polygon fill="none" stroke="#bfbfbf" points="1494,-123.5 1494,-142.5 1587,-142.5 1587,-123.5 1494,-123.5"/>
<text text-anchor="middle" x="1540.5" y="-130.5" font-family="Helvetica,sans-Serif" font-size="10.00">unordered_map</text>
</g>
<!-- Node24&#45;&gt;Node28 -->
<g id="edge36" class="edge"><title>Node24&#45;&gt;Node28</title>
<path fill="none" stroke="midnightblue" d="M1308.63,-180.032C1356.02,-170.626 1434.98,-154.949 1487.39,-144.543"/>
<polygon fill="midnightblue" stroke="midnightblue" points="1488.38,-147.916 1497.5,-142.536 1487.01,-141.05 1488.38,-147.916"/>
</g>
<!-- Node30 -->
<g id="node31" class="node"><title>Node30</title>
<polygon fill="none" stroke="#bfbfbf" points="1678,-123.5 1678,-142.5 1735,-142.5 1735,-123.5 1678,-123.5"/>
<text text-anchor="middle" x="1706.5" y="-130.5" font-family="Helvetica,sans-Serif" font-size="10.00">complex</text>
</g>
<!-- Node29&#45;&gt;Node30 -->
<g id="edge41" class="edge"><title>Node29&#45;&gt;Node30</title>
<path fill="none" stroke="midnightblue" d="M1527.17,-181.347C1529.97,-180.546 1532.8,-179.747 1535.5,-179 1581.01,-166.408 1633.56,-152.702 1668.27,-143.767"/>
<polygon fill="midnightblue" stroke="midnightblue" points="1669.19,-147.145 1678,-141.266 1667.44,-140.365 1669.19,-147.145"/>
</g>
<!-- Node31 -->
<g id="node32" class="node"><title>Node31</title>
<polygon fill="none" stroke="#bfbfbf" points="1753,-123.5 1753,-142.5 1816,-142.5 1816,-123.5 1753,-123.5"/>
<text text-anchor="middle" x="1784.5" y="-130.5" font-family="Helvetica,sans-Serif" font-size="10.00">functional</text>
</g>
<!-- Node29&#45;&gt;Node31 -->
<g id="edge42" class="edge"><title>Node29&#45;&gt;Node31</title>
<path fill="none" stroke="midnightblue" d="M1527.11,-181.121C1529.92,-180.358 1532.77,-179.631 1535.5,-179 1623.88,-158.59 1649.73,-160.878 1742.9,-143.029"/>
<polygon fill="midnightblue" stroke="midnightblue" points="1743.6,-146.46 1752.75,-141.117 1742.26,-139.589 1743.6,-146.46"/>
</g>
<!-- Node32 -->
<g id="node33" class="node"><title>Node32</title>
<polygon fill="none" stroke="#bfbfbf" points="1834.5,-123.5 1834.5,-142.5 1888.5,-142.5 1888.5,-123.5 1834.5,-123.5"/>
<text text-anchor="middle" x="1861.5" y="-130.5" font-family="Helvetica,sans-Serif" font-size="10.00">random</text>
</g>
<!-- Node29&#45;&gt;Node32 -->
<g id="edge43" class="edge"><title>Node29&#45;&gt;Node32</title>
<path fill="none" stroke="midnightblue" d="M1527.08,-180.995C1529.9,-180.254 1532.76,-179.566 1535.5,-179 1662.27,-152.874 1697.18,-166.335 1824.5,-143 1824.6,-142.981 1824.7,-142.963 1824.81,-142.944"/>
<polygon fill="midnightblue" stroke="midnightblue" points="1825.41,-146.393 1834.5,-140.947 1824,-139.537 1825.41,-146.393"/>
</g>
<!-- Node33 -->
<g id="node34" class="node"><title>Node33</title>
<polygon fill="none" stroke="#bfbfbf" points="1906.5,-123.5 1906.5,-142.5 1974.5,-142.5 1974.5,-123.5 1906.5,-123.5"/>
<text text-anchor="middle" x="1940.5" y="-130.5" font-family="Helvetica,sans-Serif" font-size="10.00">type_traits</text>
</g>
<!-- Node29&#45;&gt;Node33 -->
<g id="edge44" class="edge"><title>Node29&#45;&gt;Node33</title>
<path fill="none" stroke="midnightblue" d="M1527.07,-180.928C1529.89,-180.199 1532.75,-179.532 1535.5,-179 1690.99,-148.961 1735.87,-166.828 1896.08,-143.054"/>
<polygon fill="midnightblue" stroke="midnightblue" points="1896.93,-146.464 1906.29,-141.505 1895.88,-139.543 1896.93,-146.464"/>
</g>
<!-- Node34 -->
<g id="node35" class="node"><title>Node34</title>
<polygon fill="none" stroke="#bfbfbf" points="1605,-123.5 1605,-142.5 1660,-142.5 1660,-123.5 1605,-123.5"/>
<text text-anchor="middle" x="1632.5" y="-130.5" font-family="Helvetica,sans-Serif" font-size="10.00">unistd.h</text>
</g>
<!-- Node29&#45;&gt;Node34 -->
<g id="edge45" class="edge"><title>Node29&#45;&gt;Node34</title>
<path fill="none" stroke="midnightblue" d="M1524.78,-179.444C1545.85,-170.557 1579.02,-156.563 1602.99,-146.451"/>
<polygon fill="midnightblue" stroke="midnightblue" points="1604.46,-149.628 1612.31,-142.516 1601.74,-143.179 1604.46,-149.628"/>
</g>
</g>
</svg>
