<?xml version="1.0" encoding="UTF-8" standalone="no"?>
<!DOCTYPE svg PUBLIC "-//W3C//DTD SVG 1.1//EN"
 "http://www.w3.org/Graphics/SVG/1.1/DTD/svg11.dtd">
<!-- Generated by graphviz version 2.38.0 (20140413.2041)
 -->
<!-- Title: /travis/libpairinteraction/Hamiltonianmatrix.cpp Pages: 1 -->
<svg width="2042pt" height="330pt"
 viewBox="0.00 0.00 2041.69 330.00" xmlns="http://www.w3.org/2000/svg" xmlns:xlink="http://www.w3.org/1999/xlink">
<g id="graph0" class="graph" transform="scale(1 1) rotate(0) translate(4 326)">
<title>/travis/libpairinteraction/Hamiltonianmatrix.cpp</title>
<!-- Node0 -->
<g id="node1" class="node"><title>Node0</title>
<polygon fill="#bfbfbf" stroke="black" points="1664.69,-291.5 1664.69,-321.5 1792.69,-321.5 1792.69,-291.5 1664.69,-291.5"/>
<text text-anchor="start" x="1672.69" y="-309.5" font-family="Helvetica,sans-Serif" font-size="10.00">/travis/libpairinteraction</text>
<text text-anchor="middle" x="1728.69" y="-298.5" font-family="Helvetica,sans-Serif" font-size="10.00">/Hamiltonianmatrix.cpp</text>
</g>
<!-- Node1 -->
<g id="node2" class="node"><title>Node1</title>
<g id="a_node2"><a xlink:href="Hamiltonianmatrix_8h.html" target="_top" xlink:title="Hamiltonianmatrix.h">
<polygon fill="none" stroke="black" points="1268.69,-235.5 1268.69,-254.5 1382.69,-254.5 1382.69,-235.5 1268.69,-235.5"/>
<text text-anchor="middle" x="1325.69" y="-242.5" font-family="Helvetica,sans-Serif" font-size="10.00">Hamiltonianmatrix.h</text>
</a>
</g>
</g>
<!-- Node0&#45;&gt;Node1 -->
<g id="edge1" class="edge"><title>Node0&#45;&gt;Node1</title>
<path fill="none" stroke="midnightblue" d="M1664.39,-296.006C1590.21,-285.054 1468.79,-267.128 1393.26,-255.976"/>
<polygon fill="midnightblue" stroke="midnightblue" points="1393.32,-252.447 1382.91,-254.449 1392.29,-259.372 1393.32,-252.447"/>
</g>
<!-- Node39 -->
<g id="node40" class="node"><title>Node39</title>
<polygon fill="none" stroke="#bfbfbf" points="1969.69,-179.5 1969.69,-198.5 2033.69,-198.5 2033.69,-179.5 1969.69,-179.5"/>
<text text-anchor="middle" x="2001.69" y="-186.5" font-family="Helvetica,sans-Serif" font-size="10.00">stdexcept</text>
</g>
<!-- Node0&#45;&gt;Node39 -->
<g id="edge54" class="edge"><title>Node0&#45;&gt;Node39</title>
<path fill="none" stroke="midnightblue" d="M1728.3,-291.323C1728.69,-275.228 1731.95,-249.351 1747.69,-235 1817,-171.776 1863.42,-216.008 1955.69,-199 1956.95,-198.768 1958.23,-198.53 1959.52,-198.288"/>
<polygon fill="midnightblue" stroke="midnightblue" points="1960.36,-201.69 1969.53,-196.384 1959.06,-194.813 1960.36,-201.69"/>
</g>
<!-- Node40 -->
<g id="node41" class="node"><title>Node40</title>
<polygon fill="none" stroke="#bfbfbf" points="1756.69,-235.5 1756.69,-254.5 1856.69,-254.5 1856.69,-235.5 1756.69,-235.5"/>
<text text-anchor="middle" x="1806.69" y="-242.5" font-family="Helvetica,sans-Serif" font-size="10.00">boost/format.hpp</text>
</g>
<!-- Node0&#45;&gt;Node40 -->
<g id="edge55" class="edge"><title>Node0&#45;&gt;Node40</title>
<path fill="none" stroke="midnightblue" d="M1747.17,-291.399C1759.21,-282.218 1774.89,-270.258 1787.13,-260.918"/>
<polygon fill="midnightblue" stroke="midnightblue" points="1789.51,-263.506 1795.34,-254.658 1785.26,-257.94 1789.51,-263.506"/>
</g>
<!-- Node2 -->
<g id="node3" class="node"><title>Node2</title>
<g id="a_node3"><a xlink:href="Basisnames_8h.html" target="_top" xlink:title="Basisnames.h">
<polygon fill="none" stroke="black" points="796.688,-179.5 796.688,-198.5 880.688,-198.5 880.688,-179.5 796.688,-179.5"/>
<text text-anchor="middle" x="838.688" y="-186.5" font-family="Helvetica,sans-Serif" font-size="10.00">Basisnames.h</text>
</a>
</g>
</g>
<!-- Node1&#45;&gt;Node2 -->
<g id="edge2" class="edge"><title>Node1&#45;&gt;Node2</title>
<path fill="none" stroke="midnightblue" d="M1268.39,-237.647C1173,-227.07 983.049,-206.007 891.043,-195.805"/>
<polygon fill="midnightblue" stroke="midnightblue" points="891.178,-192.299 880.853,-194.675 890.407,-199.256 891.178,-192.299"/>
</g>
<!-- Node9 -->
<g id="node10" class="node"><title>Node9</title>
<g id="a_node10"><a xlink:href="State_8h.html" target="_top" xlink:title="State.h">
<polygon fill="none" stroke="black" points="451.688,-123.5 451.688,-142.5 503.688,-142.5 503.688,-123.5 451.688,-123.5"/>
<text text-anchor="middle" x="477.688" y="-130.5" font-family="Helvetica,sans-Serif" font-size="10.00">State.h</text>
</a>
</g>
</g>
<!-- Node1&#45;&gt;Node9 -->
<g id="edge39" class="edge"><title>Node1&#45;&gt;Node9</title>
<path fill="none" stroke="midnightblue" d="M1268.57,-243.85C1095,-242.977 581.73,-237.162 517.688,-199 500.301,-188.639 489.421,-167.501 483.474,-152.135"/>
<polygon fill="midnightblue" stroke="midnightblue" points="486.748,-150.893 480.125,-142.623 480.145,-153.218 486.748,-150.893"/>
</g>
<!-- Node10 -->
<g id="node11" class="node"><title>Node10</title>
<g id="a_node11"><a xlink:href="dtypes_8h.html" target="_top" xlink:title="dtypes.h">
<polygon fill="none" stroke="black" points="691.688,-62 691.688,-81 749.688,-81 749.688,-62 691.688,-62"/>
<text text-anchor="middle" x="720.688" y="-69" font-family="Helvetica,sans-Serif" font-size="10.00">dtypes.h</text>
</a>
</g>
</g>
<!-- Node1&#45;&gt;Node10 -->
<g id="edge40" class="edge"><title>Node1&#45;&gt;Node10</title>
<path fill="none" stroke="midnightblue" d="M1268.32,-242.6C1169.48,-239.433 961.012,-229.436 787.688,-199 693.817,-182.516 638.616,-218.682 580.688,-143 575.285,-135.941 575.579,-130.274 580.688,-123 586.78,-114.326 642.584,-96.0229 681.867,-83.999"/>
<polygon fill="midnightblue" stroke="midnightblue" points="682.906,-87.3414 691.458,-81.0871 680.872,-80.6433 682.906,-87.3414"/>
</g>
<!-- Node14 -->
<g id="node15" class="node"><title>Node14</title>
<polygon fill="none" stroke="#bfbfbf" points="366.188,-0.5 366.188,-19.5 413.188,-19.5 413.188,-0.5 366.188,-0.5"/>
<text text-anchor="middle" x="389.688" y="-7.5" font-family="Helvetica,sans-Serif" font-size="10.00">cmath</text>
</g>
<!-- Node1&#45;&gt;Node14 -->
<g id="edge47" class="edge"><title>Node1&#45;&gt;Node14</title>
<path fill="none" stroke="midnightblue" d="M1268.62,-244.282C1133.34,-244.219 782.852,-239.762 493.688,-199 273.767,-167.999 145.018,-260.755 6.68758,-87 -1.89384,-76.221 -2.46873,-66.2951 6.68758,-56 29.7487,-30.0707 266.652,-16.6255 355.912,-12.4498"/>
<polygon fill="midnightblue" stroke="midnightblue" points="356.211,-15.9399 366.041,-11.9863 355.891,-8.94718 356.211,-15.9399"/>
</g>
<!-- Node15 -->
<g id="node16" class="node"><title>Node15</title>
<polygon fill="none" stroke="#bfbfbf" points="1213.19,-0.5 1213.19,-19.5 1260.19,-19.5 1260.19,-0.5 1213.19,-0.5"/>
<text text-anchor="middle" x="1236.69" y="-7.5" font-family="Helvetica,sans-Serif" font-size="10.00">vector</text>
</g>
<!-- Node1&#45;&gt;Node15 -->
<g id="edge53" class="edge"><title>Node1&#45;&gt;Node15</title>
<path fill="none" stroke="midnightblue" d="M1382.88,-241.892C1545.37,-234.847 1993.56,-207.58 1921.69,-123 1836.39,-22.6214 1397.18,-12.0062 1270.77,-11.0461"/>
<polygon fill="midnightblue" stroke="midnightblue" points="1270.55,-7.54483 1260.53,-10.9848 1270.51,-14.5447 1270.55,-7.54483"/>
</g>
<!-- Node22 -->
<g id="node23" class="node"><title>Node22</title>
<polygon fill="none" stroke="#bfbfbf" points="1094.19,-123.5 1094.19,-142.5 1151.19,-142.5 1151.19,-123.5 1094.19,-123.5"/>
<text text-anchor="middle" x="1122.69" y="-130.5" font-family="Helvetica,sans-Serif" font-size="10.00">memory</text>
</g>
<!-- Node1&#45;&gt;Node22 -->
<g id="edge51" class="edge"><title>Node1&#45;&gt;Node22</title>
<path fill="none" stroke="midnightblue" d="M1287.49,-235.452C1260.12,-228.287 1223.06,-216.403 1193.69,-199 1171.57,-185.896 1150.4,-165.074 1137.02,-150.539"/>
<polygon fill="midnightblue" stroke="midnightblue" points="1139.38,-147.923 1130.1,-142.813 1134.17,-152.595 1139.38,-147.923"/>
</g>
<!-- Node25 -->
<g id="node26" class="node"><title>Node25</title>
<g id="a_node26"><a xlink:href="Serializable_8h.html" target="_top" xlink:title="Serializable.h">
<polygon fill="none" stroke="black" points="1202.69,-179.5 1202.69,-198.5 1282.69,-198.5 1282.69,-179.5 1202.69,-179.5"/>
<text text-anchor="middle" x="1242.69" y="-186.5" font-family="Helvetica,sans-Serif" font-size="10.00">Serializable.h</text>
</a>
</g>
</g>
<!-- Node1&#45;&gt;Node25 -->
<g id="edge31" class="edge"><title>Node1&#45;&gt;Node25</title>
<path fill="none" stroke="midnightblue" d="M1312.35,-235.324C1299.53,-226.979 1279.9,-214.212 1264.75,-204.352"/>
<polygon fill="midnightblue" stroke="midnightblue" points="1266.28,-201.174 1255.99,-198.655 1262.46,-207.042 1266.28,-201.174"/>
</g>
<!-- Node30 -->
<g id="node31" class="node"><title>Node30</title>
<g id="a_node31"><a xlink:href="utils_8h.html" target="_top" xlink:title="utils.h">
<polygon fill="none" stroke="black" points="1668.19,-179.5 1668.19,-198.5 1713.19,-198.5 1713.19,-179.5 1668.19,-179.5"/>
<text text-anchor="middle" x="1690.69" y="-186.5" font-family="Helvetica,sans-Serif" font-size="10.00">utils.h</text>
</a>
</g>
</g>
<!-- Node1&#45;&gt;Node30 -->
<g id="edge41" class="edge"><title>Node1&#45;&gt;Node30</title>
<path fill="none" stroke="midnightblue" d="M1382.72,-235.562C1460.05,-224.122 1595.63,-204.063 1657.82,-194.862"/>
<polygon fill="midnightblue" stroke="midnightblue" points="1658.48,-198.304 1667.86,-193.378 1657.45,-191.379 1658.48,-198.304"/>
</g>
<!-- Node36 -->
<g id="node37" class="node"><title>Node36</title>
<polygon fill="none" stroke="#bfbfbf" points="1301.19,-179.5 1301.19,-198.5 1350.19,-198.5 1350.19,-179.5 1301.19,-179.5"/>
<text text-anchor="middle" x="1325.69" y="-186.5" font-family="Helvetica,sans-Serif" font-size="10.00">cstdint</text>
</g>
<!-- Node1&#45;&gt;Node36 -->
<g id="edge48" class="edge"><title>Node1&#45;&gt;Node36</title>
<path fill="none" stroke="midnightblue" d="M1325.69,-235.083C1325.69,-228.006 1325.69,-217.861 1325.69,-208.986"/>
<polygon fill="midnightblue" stroke="midnightblue" points="1329.19,-208.751 1325.69,-198.751 1322.19,-208.751 1329.19,-208.751"/>
</g>
<!-- Node37 -->
<g id="node38" class="node"><title>Node37</title>
<polygon fill="none" stroke="#bfbfbf" points="1368.19,-179.5 1368.19,-198.5 1413.19,-198.5 1413.19,-179.5 1368.19,-179.5"/>
<text text-anchor="middle" x="1390.69" y="-186.5" font-family="Helvetica,sans-Serif" font-size="10.00">cstdio</text>
</g>
<!-- Node1&#45;&gt;Node37 -->
<g id="edge49" class="edge"><title>Node1&#45;&gt;Node37</title>
<path fill="none" stroke="midnightblue" d="M1336.13,-235.324C1345.83,-227.263 1360.5,-215.077 1372.19,-205.369"/>
<polygon fill="midnightblue" stroke="midnightblue" points="1374.6,-207.916 1380.05,-198.834 1370.13,-202.532 1374.6,-207.916"/>
</g>
<!-- Node38 -->
<g id="node39" class="node"><title>Node38</title>
<polygon fill="none" stroke="#bfbfbf" points="1431.19,-179.5 1431.19,-198.5 1494.19,-198.5 1494.19,-179.5 1431.19,-179.5"/>
<text text-anchor="middle" x="1462.69" y="-186.5" font-family="Helvetica,sans-Serif" font-size="10.00">exception</text>
</g>
<!-- Node1&#45;&gt;Node38 -->
<g id="edge50" class="edge"><title>Node1&#45;&gt;Node38</title>
<path fill="none" stroke="midnightblue" d="M1347.4,-235.444C1370.04,-226.517 1405.76,-212.439 1431.44,-202.317"/>
<polygon fill="midnightblue" stroke="midnightblue" points="1433.06,-205.44 1441.08,-198.516 1430.49,-198.927 1433.06,-205.44"/>
</g>
<!-- Node1&#45;&gt;Node39 -->
<g id="edge52" class="edge"><title>Node1&#45;&gt;Node39</title>
<path fill="none" stroke="midnightblue" d="M1382.83,-242.251C1493.71,-238.343 1745.63,-226.945 1955.69,-199 1956.96,-198.831 1958.25,-198.649 1959.55,-198.455"/>
<polygon fill="midnightblue" stroke="midnightblue" points="1960.3,-201.878 1969.6,-196.796 1959.16,-194.971 1960.3,-201.878"/>
</g>
<!-- Node3 -->
<g id="node4" class="node"><title>Node3</title>
<g id="a_node4"><a xlink:href="ConfParser_8h.html" target="_top" xlink:title="ConfParser.h">
<polygon fill="none" stroke="black" points="960.188,-123.5 960.188,-142.5 1037.19,-142.5 1037.19,-123.5 960.188,-123.5"/>
<text text-anchor="middle" x="998.688" y="-130.5" font-family="Helvetica,sans-Serif" font-size="10.00">ConfParser.h</text>
</a>
</g>
</g>
<!-- Node2&#45;&gt;Node3 -->
<g id="edge3" class="edge"><title>Node2&#45;&gt;Node3</title>
<path fill="none" stroke="midnightblue" d="M864.04,-179.444C890.957,-170.359 933.684,-155.939 963.775,-145.783"/>
<polygon fill="midnightblue" stroke="midnightblue" points="965.098,-149.031 973.454,-142.516 962.86,-142.398 965.098,-149.031"/>
</g>
<!-- Node6 -->
<g id="node7" class="node"><title>Node6</title>
<polygon fill="none" stroke="#bfbfbf" points="767.688,-62 767.688,-81 811.688,-81 811.688,-62 767.688,-62"/>
<text text-anchor="middle" x="789.688" y="-69" font-family="Helvetica,sans-Serif" font-size="10.00">string</text>
</g>
<!-- Node2&#45;&gt;Node6 -->
<g id="edge28" class="edge"><title>Node2&#45;&gt;Node6</title>
<path fill="none" stroke="midnightblue" d="M849.84,-179.132C864.203,-166.586 886.044,-142.957 874.688,-123 871.278,-117.008 838.665,-98.6445 814.85,-85.7996"/>
<polygon fill="midnightblue" stroke="midnightblue" points="816.388,-82.653 805.92,-81.0179 813.084,-88.824 816.388,-82.653"/>
</g>
<!-- Node8 -->
<g id="node9" class="node"><title>Node8</title>
<g id="a_node9"><a xlink:href="Iter_8h.html" target="_top" xlink:title="Iter.h">
<polygon fill="none" stroke="black" points="752.188,-123.5 752.188,-142.5 793.188,-142.5 793.188,-123.5 752.188,-123.5"/>
<text text-anchor="middle" x="772.688" y="-130.5" font-family="Helvetica,sans-Serif" font-size="10.00">Iter.h</text>
</a>
</g>
</g>
<!-- Node2&#45;&gt;Node8 -->
<g id="edge8" class="edge"><title>Node2&#45;&gt;Node8</title>
<path fill="none" stroke="midnightblue" d="M828.084,-179.324C818.231,-171.263 803.337,-159.077 791.472,-149.369"/>
<polygon fill="midnightblue" stroke="midnightblue" points="793.441,-146.457 783.485,-142.834 789.008,-151.875 793.441,-146.457"/>
</g>
<!-- Node2&#45;&gt;Node9 -->
<g id="edge9" class="edge"><title>Node2&#45;&gt;Node9</title>
<path fill="none" stroke="midnightblue" d="M796.57,-181.7C725.068,-171.004 581.164,-149.478 513.894,-139.416"/>
<polygon fill="midnightblue" stroke="midnightblue" points="514.186,-135.921 503.778,-137.903 513.15,-142.844 514.186,-135.921"/>
</g>
<!-- Node2&#45;&gt;Node10 -->
<g id="edge24" class="edge"><title>Node2&#45;&gt;Node10</title>
<path fill="none" stroke="midnightblue" d="M796.661,-186.71C732.476,-183.756 614.712,-174.127 588.688,-143 582.986,-136.181 583.649,-130.323 588.688,-123 591.632,-118.721 648.456,-98.0002 686.579,-84.4659"/>
<polygon fill="midnightblue" stroke="midnightblue" points="688.04,-87.6618 696.299,-81.0266 685.705,-81.0627 688.04,-87.6618"/>
</g>
<!-- Node2&#45;&gt;Node15 -->
<g id="edge30" class="edge"><title>Node2&#45;&gt;Node15</title>
<path fill="none" stroke="midnightblue" d="M881.009,-183.695C923.922,-178.218 991.539,-166.496 1045.69,-143 1082.2,-127.155 1176.06,-57.1883 1217.05,-26.0428"/>
<polygon fill="midnightblue" stroke="midnightblue" points="1219.34,-28.6961 1225.17,-19.8506 1215.1,-23.1288 1219.34,-28.6961"/>
</g>
<!-- Node21 -->
<g id="node22" class="node"><title>Node21</title>
<polygon fill="none" stroke="#bfbfbf" points="811.688,-123.5 811.688,-142.5 865.688,-142.5 865.688,-123.5 811.688,-123.5"/>
<text text-anchor="middle" x="838.688" y="-130.5" font-family="Helvetica,sans-Serif" font-size="10.00">fstream</text>
</g>
<!-- Node2&#45;&gt;Node21 -->
<g id="edge25" class="edge"><title>Node2&#45;&gt;Node21</title>
<path fill="none" stroke="midnightblue" d="M838.688,-179.083C838.688,-172.006 838.688,-161.861 838.688,-152.986"/>
<polygon fill="midnightblue" stroke="midnightblue" points="842.188,-152.751 838.688,-142.751 835.188,-152.751 842.188,-152.751"/>
</g>
<!-- Node2&#45;&gt;Node22 -->
<g id="edge26" class="edge"><title>Node2&#45;&gt;Node22</title>
<path fill="none" stroke="midnightblue" d="M880.97,-180.392C929.134,-171.659 1010.17,-156.764 1079.69,-143 1081.14,-142.713 1082.61,-142.418 1084.1,-142.118"/>
<polygon fill="midnightblue" stroke="midnightblue" points="1084.93,-145.522 1094.02,-140.09 1083.53,-138.664 1084.93,-145.522"/>
</g>
<!-- Node23 -->
<g id="node24" class="node"><title>Node23</title>
<polygon fill="none" stroke="#bfbfbf" points="597.688,-123.5 597.688,-142.5 629.688,-142.5 629.688,-123.5 597.688,-123.5"/>
<text text-anchor="middle" x="613.688" y="-130.5" font-family="Helvetica,sans-Serif" font-size="10.00">set</text>
</g>
<!-- Node2&#45;&gt;Node23 -->
<g id="edge27" class="edge"><title>Node2&#45;&gt;Node23</title>
<path fill="none" stroke="midnightblue" d="M796.548,-180.103C757.954,-172.518 699.119,-160.076 639.661,-143.002"/>
<polygon fill="midnightblue" stroke="midnightblue" points="640.309,-139.545 629.729,-140.107 638.35,-146.265 640.309,-139.545"/>
</g>
<!-- Node24 -->
<g id="node25" class="node"><title>Node24</title>
<polygon fill="none" stroke="#bfbfbf" points="647.688,-123.5 647.688,-142.5 733.688,-142.5 733.688,-123.5 647.688,-123.5"/>
<text text-anchor="middle" x="690.688" y="-130.5" font-family="Helvetica,sans-Serif" font-size="10.00">unordered_set</text>
</g>
<!-- Node2&#45;&gt;Node24 -->
<g id="edge29" class="edge"><title>Node2&#45;&gt;Node24</title>
<path fill="none" stroke="midnightblue" d="M815.237,-179.444C790.555,-170.438 751.502,-156.189 723.711,-146.049"/>
<polygon fill="midnightblue" stroke="midnightblue" points="724.623,-142.656 714.029,-142.516 722.223,-149.232 724.623,-142.656"/>
</g>
<!-- Node4 -->
<g id="node5" class="node"><title>Node4</title>
<polygon fill="none" stroke="#bfbfbf" points="969.688,-62 969.688,-81 1007.69,-81 1007.69,-62 969.688,-62"/>
<text text-anchor="middle" x="988.688" y="-69" font-family="Helvetica,sans-Serif" font-size="10.00">map</text>
</g>
<!-- Node3&#45;&gt;Node4 -->
<g id="edge4" class="edge"><title>Node3&#45;&gt;Node4</title>
<path fill="none" stroke="midnightblue" d="M997.255,-123.475C995.844,-115.08 993.642,-101.981 991.824,-91.1631"/>
<polygon fill="midnightblue" stroke="midnightblue" points="995.227,-90.2906 990.118,-81.0091 988.324,-91.4509 995.227,-90.2906"/>
</g>
<!-- Node5 -->
<g id="node6" class="node"><title>Node5</title>
<polygon fill="none" stroke="#bfbfbf" points="1025.69,-62 1025.69,-81 1081.69,-81 1081.69,-62 1025.69,-62"/>
<text text-anchor="middle" x="1053.69" y="-69" font-family="Helvetica,sans-Serif" font-size="10.00">sstream</text>
</g>
<!-- Node3&#45;&gt;Node5 -->
<g id="edge5" class="edge"><title>Node3&#45;&gt;Node5</title>
<path fill="none" stroke="midnightblue" d="M1006.57,-123.475C1014.98,-114.373 1028.51,-99.741 1038.91,-88.483"/>
<polygon fill="midnightblue" stroke="midnightblue" points="1041.6,-90.7282 1045.82,-81.0091 1036.46,-85.9766 1041.6,-90.7282"/>
</g>
<!-- Node3&#45;&gt;Node6 -->
<g id="edge6" class="edge"><title>Node3&#45;&gt;Node6</title>
<path fill="none" stroke="midnightblue" d="M959.865,-124.411C923.376,-116.759 867.523,-103.703 820.688,-87 819.072,-86.4237 817.426,-85.793 815.777,-85.1273"/>
<polygon fill="midnightblue" stroke="midnightblue" points="817.063,-81.8697 806.499,-81.0707 814.259,-88.2835 817.063,-81.8697"/>
</g>
<!-- Node7 -->
<g id="node8" class="node"><title>Node7</title>
<polygon fill="none" stroke="#bfbfbf" points="829.688,-62 829.688,-81 951.688,-81 951.688,-62 829.688,-62"/>
<text text-anchor="middle" x="890.688" y="-69" font-family="Helvetica,sans-Serif" font-size="10.00">boost/lexical_cast.hpp</text>
</g>
<!-- Node3&#45;&gt;Node7 -->
<g id="edge7" class="edge"><title>Node3&#45;&gt;Node7</title>
<path fill="none" stroke="midnightblue" d="M983.214,-123.475C965.41,-113.666 935.947,-97.4346 915.056,-85.925"/>
<polygon fill="midnightblue" stroke="midnightblue" points="916.58,-82.769 906.133,-81.0091 913.202,-88.9001 916.58,-82.769"/>
</g>
<!-- Node9&#45;&gt;Node6 -->
<g id="edge20" class="edge"><title>Node9&#45;&gt;Node6</title>
<path fill="none" stroke="midnightblue" d="M503.805,-130.255C554.113,-126.363 667.54,-115.011 758.688,-87 760.562,-86.424 762.468,-85.7556 764.367,-85.0281"/>
<polygon fill="midnightblue" stroke="midnightblue" points="765.81,-88.2174 773.616,-81.0534 763.046,-81.7861 765.81,-88.2174"/>
</g>
<!-- Node9&#45;&gt;Node10 -->
<g id="edge10" class="edge"><title>Node9&#45;&gt;Node10</title>
<path fill="none" stroke="midnightblue" d="M503.752,-126.14C557.806,-113.987 677.157,-87.1486 677.688,-87 680.701,-86.1555 683.814,-85.224 686.924,-84.2528"/>
<polygon fill="midnightblue" stroke="midnightblue" points="688.287,-87.4901 696.718,-81.0736 686.126,-80.8321 688.287,-87.4901"/>
</g>
<!-- Node13 -->
<g id="node14" class="node"><title>Node13</title>
<polygon fill="none" stroke="#bfbfbf" points="633.188,-0.5 633.188,-19.5 674.188,-19.5 674.188,-0.5 633.188,-0.5"/>
<text text-anchor="middle" x="653.688" y="-7.5" font-family="Helvetica,sans-Serif" font-size="10.00">array</text>
</g>
<!-- Node9&#45;&gt;Node13 -->
<g id="edge16" class="edge"><title>Node9&#45;&gt;Node13</title>
<path fill="none" stroke="midnightblue" d="M503.809,-125.721C549.371,-114.658 639.007,-92.3528 643.688,-87 657.21,-71.5336 658.06,-47.0837 656.604,-30.1092"/>
<polygon fill="midnightblue" stroke="midnightblue" points="660.028,-29.2629 655.355,-19.7541 653.078,-30.1013 660.028,-29.2629"/>
</g>
<!-- Node9&#45;&gt;Node14 -->
<g id="edge18" class="edge"><title>Node9&#45;&gt;Node14</title>
<path fill="none" stroke="midnightblue" d="M456.806,-123.482C441.257,-116.084 420.719,-103.89 408.688,-87 396.635,-70.079 392.201,-46.2928 390.585,-29.8584"/>
<polygon fill="midnightblue" stroke="midnightblue" points="394.072,-29.5505 389.857,-19.83 387.09,-30.0571 394.072,-29.5505"/>
</g>
<!-- Node16 -->
<g id="node17" class="node"><title>Node16</title>
<polygon fill="none" stroke="#bfbfbf" points="417.688,-62 417.688,-81 557.688,-81 557.688,-62 417.688,-62"/>
<text text-anchor="middle" x="487.688" y="-69" font-family="Helvetica,sans-Serif" font-size="10.00">boost/functional/hash.hpp</text>
</g>
<!-- Node9&#45;&gt;Node16 -->
<g id="edge17" class="edge"><title>Node9&#45;&gt;Node16</title>
<path fill="none" stroke="midnightblue" d="M479.12,-123.475C480.531,-115.08 482.733,-101.981 484.551,-91.1631"/>
<polygon fill="midnightblue" stroke="midnightblue" points="488.052,-91.4509 486.257,-81.0091 481.148,-90.2906 488.052,-91.4509"/>
</g>
<!-- Node17 -->
<g id="node18" class="node"><title>Node17</title>
<polygon fill="none" stroke="#bfbfbf" points="576.188,-62 576.188,-81 635.188,-81 635.188,-62 576.188,-62"/>
<text text-anchor="middle" x="605.688" y="-69" font-family="Helvetica,sans-Serif" font-size="10.00">iostream</text>
</g>
<!-- Node9&#45;&gt;Node17 -->
<g id="edge19" class="edge"><title>Node9&#45;&gt;Node17</title>
<path fill="none" stroke="midnightblue" d="M496.027,-123.475C517.508,-113.49 553.31,-96.8476 578.135,-85.3075"/>
<polygon fill="midnightblue" stroke="midnightblue" points="579.79,-88.3983 587.382,-81.0091 576.839,-82.0506 579.79,-88.3983"/>
</g>
<!-- Node18 -->
<g id="node19" class="node"><title>Node18</title>
<polygon fill="none" stroke="#bfbfbf" points="15.6876,-56.5 15.6876,-86.5 119.688,-86.5 119.688,-56.5 15.6876,-56.5"/>
<text text-anchor="start" x="23.6876" y="-74.5" font-family="Helvetica,sans-Serif" font-size="10.00">boost/serialization</text>
<text text-anchor="middle" x="67.6876" y="-63.5" font-family="Helvetica,sans-Serif" font-size="10.00">/array.hpp</text>
</g>
<!-- Node9&#45;&gt;Node18 -->
<g id="edge21" class="edge"><title>Node9&#45;&gt;Node18</title>
<path fill="none" stroke="midnightblue" d="M451.273,-129.552C394.372,-124.075 255.842,-109.649 130.045,-87.1289"/>
<polygon fill="midnightblue" stroke="midnightblue" points="130.319,-83.6215 119.855,-85.2815 129.07,-90.5092 130.319,-83.6215"/>
</g>
<!-- Node19 -->
<g id="node20" class="node"><title>Node19</title>
<polygon fill="none" stroke="#bfbfbf" points="137.688,-56.5 137.688,-86.5 241.688,-86.5 241.688,-56.5 137.688,-56.5"/>
<text text-anchor="start" x="145.688" y="-74.5" font-family="Helvetica,sans-Serif" font-size="10.00">boost/serialization</text>
<text text-anchor="middle" x="189.688" y="-63.5" font-family="Helvetica,sans-Serif" font-size="10.00">/string.hpp</text>
</g>
<!-- Node9&#45;&gt;Node19 -->
<g id="edge22" class="edge"><title>Node9&#45;&gt;Node19</title>
<path fill="none" stroke="midnightblue" d="M451.406,-127.123C410.789,-119.514 330.09,-104.113 251.915,-87.2229"/>
<polygon fill="midnightblue" stroke="midnightblue" points="252.417,-83.7503 241.901,-85.0481 250.931,-90.5908 252.417,-83.7503"/>
</g>
<!-- Node20 -->
<g id="node21" class="node"><title>Node20</title>
<polygon fill="none" stroke="#bfbfbf" points="260.188,-62 260.188,-81 361.188,-81 361.188,-62 260.188,-62"/>
<text text-anchor="middle" x="310.688" y="-69" font-family="Helvetica,sans-Serif" font-size="10.00">boost/variant.hpp</text>
</g>
<!-- Node9&#45;&gt;Node20 -->
<g id="edge23" class="edge"><title>Node9&#45;&gt;Node20</title>
<path fill="none" stroke="midnightblue" d="M453.761,-123.475C424.99,-113.225 376.531,-95.9593 344.086,-84.3994"/>
<polygon fill="midnightblue" stroke="midnightblue" points="345.165,-81.0684 334.57,-81.0091 342.815,-87.6624 345.165,-81.0684"/>
</g>
<!-- Node11 -->
<g id="node12" class="node"><title>Node11</title>
<polygon fill="none" stroke="#bfbfbf" points="692.188,-0.5 692.188,-19.5 769.188,-19.5 769.188,-0.5 692.188,-0.5"/>
<text text-anchor="middle" x="730.688" y="-7.5" font-family="Helvetica,sans-Serif" font-size="10.00">Eigen/Dense</text>
</g>
<!-- Node10&#45;&gt;Node11 -->
<g id="edge11" class="edge"><title>Node10&#45;&gt;Node11</title>
<path fill="none" stroke="midnightblue" d="M722.12,-61.9751C723.531,-53.5803 725.733,-40.4806 727.551,-29.6631"/>
<polygon fill="midnightblue" stroke="midnightblue" points="731.052,-29.9509 729.257,-19.5091 724.148,-28.7906 731.052,-29.9509"/>
</g>
<!-- Node12 -->
<g id="node13" class="node"><title>Node12</title>
<polygon fill="none" stroke="#bfbfbf" points="787.688,-0.5 787.688,-19.5 867.688,-19.5 867.688,-0.5 787.688,-0.5"/>
<text text-anchor="middle" x="827.688" y="-7.5" font-family="Helvetica,sans-Serif" font-size="10.00">Eigen/Sparse</text>
</g>
<!-- Node10&#45;&gt;Node12 -->
<g id="edge12" class="edge"><title>Node10&#45;&gt;Node12</title>
<path fill="none" stroke="midnightblue" d="M736.018,-61.9751C753.657,-52.1664 782.847,-35.9346 803.545,-24.425"/>
<polygon fill="midnightblue" stroke="midnightblue" points="805.347,-27.4279 812.386,-19.5091 801.945,-21.3102 805.347,-27.4279"/>
</g>
<!-- Node10&#45;&gt;Node13 -->
<g id="edge13" class="edge"><title>Node10&#45;&gt;Node13</title>
<path fill="none" stroke="midnightblue" d="M711.088,-61.9751C700.64,-52.6966 683.72,-37.6706 670.951,-26.331"/>
<polygon fill="midnightblue" stroke="midnightblue" points="673.071,-23.5323 663.269,-19.5091 668.422,-28.7663 673.071,-23.5323"/>
</g>
<!-- Node10&#45;&gt;Node14 -->
<g id="edge14" class="edge"><title>Node10&#45;&gt;Node14</title>
<path fill="none" stroke="midnightblue" d="M691.45,-64.9175C677.071,-62.1915 659.478,-58.8854 643.688,-56 564.885,-41.6002 472.197,-25.3535 423.501,-16.8711"/>
<polygon fill="midnightblue" stroke="midnightblue" points="423.968,-13.3998 413.515,-15.1332 422.767,-20.2961 423.968,-13.3998"/>
</g>
<!-- Node10&#45;&gt;Node15 -->
<g id="edge15" class="edge"><title>Node10&#45;&gt;Node15</title>
<path fill="none" stroke="midnightblue" d="M740.093,-61.9376C745.965,-59.6646 752.499,-57.4438 758.688,-56 921.882,-17.9276 1123.56,-11.9005 1202.62,-11.0674"/>
<polygon fill="midnightblue" stroke="midnightblue" points="1202.98,-14.5646 1212.95,-10.9815 1202.92,-7.56489 1202.98,-14.5646"/>
</g>
<!-- Node25&#45;&gt;Node10 -->
<g id="edge32" class="edge"><title>Node25&#45;&gt;Node10</title>
<path fill="none" stroke="midnightblue" d="M1202.23,-183.464C1145.58,-176.729 1039.57,-162.722 950.688,-143 907.298,-133.372 800.817,-101.156 758.688,-87 756.429,-86.2409 754.105,-85.43 751.772,-84.594"/>
<polygon fill="midnightblue" stroke="midnightblue" points="752.874,-81.27 742.281,-81.0857 750.447,-87.8358 752.874,-81.27"/>
</g>
<!-- Node25&#45;&gt;Node15 -->
<g id="edge38" class="edge"><title>Node25&#45;&gt;Node15</title>
<path fill="none" stroke="midnightblue" d="M1282.74,-179.728C1315.9,-170.613 1355.75,-153.097 1343.69,-123 1326.5,-80.1301 1284.21,-44.3712 1258.24,-25.4777"/>
<polygon fill="midnightblue" stroke="midnightblue" points="1259.99,-22.4274 1249.8,-19.5142 1255.95,-28.1439 1259.99,-22.4274"/>
</g>
<!-- Node25&#45;&gt;Node22 -->
<g id="edge34" class="edge"><title>Node25&#45;&gt;Node22</title>
<path fill="none" stroke="midnightblue" d="M1223.67,-179.444C1204.1,-170.636 1173.38,-156.812 1150.96,-146.722"/>
<polygon fill="midnightblue" stroke="midnightblue" points="1152.17,-143.428 1141.61,-142.516 1149.3,-149.812 1152.17,-143.428"/>
</g>
<!-- Node26 -->
<g id="node27" class="node"><title>Node26</title>
<polygon fill="none" stroke="#bfbfbf" points="1391.69,-123.5 1391.69,-142.5 1443.69,-142.5 1443.69,-123.5 1391.69,-123.5"/>
<text text-anchor="middle" x="1417.69" y="-130.5" font-family="Helvetica,sans-Serif" font-size="10.00">iterator</text>
</g>
<!-- Node25&#45;&gt;Node26 -->
<g id="edge33" class="edge"><title>Node25&#45;&gt;Node26</title>
<path fill="none" stroke="midnightblue" d="M1270.42,-179.444C1300.55,-170.145 1348.8,-155.257 1381.8,-145.073"/>
<polygon fill="midnightblue" stroke="midnightblue" points="1382.99,-148.368 1391.52,-142.075 1380.93,-141.68 1382.99,-148.368"/>
</g>
<!-- Node27 -->
<g id="node28" class="node"><title>Node27</title>
<polygon fill="none" stroke="#bfbfbf" points="1462.19,-123.5 1462.19,-142.5 1525.19,-142.5 1525.19,-123.5 1462.19,-123.5"/>
<text text-anchor="middle" x="1493.69" y="-130.5" font-family="Helvetica,sans-Serif" font-size="10.00">typeindex</text>
</g>
<!-- Node25&#45;&gt;Node27 -->
<g id="edge35" class="edge"><title>Node25&#45;&gt;Node27</title>
<path fill="none" stroke="midnightblue" d="M1282.96,-179.433C1323.18,-170.863 1387.04,-157.218 1451.91,-143.16"/>
<polygon fill="midnightblue" stroke="midnightblue" points="1452.88,-146.532 1461.91,-140.993 1451.39,-139.691 1452.88,-146.532"/>
</g>
<!-- Node28 -->
<g id="node29" class="node"><title>Node28</title>
<polygon fill="none" stroke="#bfbfbf" points="1169.19,-123.5 1169.19,-142.5 1224.19,-142.5 1224.19,-123.5 1169.19,-123.5"/>
<text text-anchor="middle" x="1196.69" y="-130.5" font-family="Helvetica,sans-Serif" font-size="10.00">typeinfo</text>
</g>
<!-- Node25&#45;&gt;Node28 -->
<g id="edge36" class="edge"><title>Node25&#45;&gt;Node28</title>
<path fill="none" stroke="midnightblue" d="M1235.09,-179.083C1228.46,-171.298 1218.67,-159.801 1210.63,-150.367"/>
<polygon fill="midnightblue" stroke="midnightblue" points="1213.29,-148.094 1204.14,-142.751 1207.96,-152.633 1213.29,-148.094"/>
</g>
<!-- Node29 -->
<g id="node30" class="node"><title>Node29</title>
<polygon fill="none" stroke="#bfbfbf" points="1242.19,-123.5 1242.19,-142.5 1335.19,-142.5 1335.19,-123.5 1242.19,-123.5"/>
<text text-anchor="middle" x="1288.69" y="-130.5" font-family="Helvetica,sans-Serif" font-size="10.00">unordered_map</text>
</g>
<!-- Node25&#45;&gt;Node29 -->
<g id="edge37" class="edge"><title>Node25&#45;&gt;Node29</title>
<path fill="none" stroke="midnightblue" d="M1250.28,-179.083C1256.92,-171.298 1266.71,-159.801 1274.75,-150.367"/>
<polygon fill="midnightblue" stroke="midnightblue" points="1277.41,-152.633 1281.23,-142.751 1272.08,-148.094 1277.41,-152.633"/>
</g>
<!-- Node31 -->
<g id="node32" class="node"><title>Node31</title>
<polygon fill="none" stroke="#bfbfbf" points="1856.19,-123.5 1856.19,-142.5 1913.19,-142.5 1913.19,-123.5 1856.19,-123.5"/>
<text text-anchor="middle" x="1884.69" y="-130.5" font-family="Helvetica,sans-Serif" font-size="10.00">complex</text>
</g>
<!-- Node30&#45;&gt;Node31 -->
<g id="edge42" class="edge"><title>Node30&#45;&gt;Node31</title>
<path fill="none" stroke="midnightblue" d="M1713.32,-181.7C1745.87,-172.64 1806.34,-155.808 1846.05,-144.756"/>
<polygon fill="midnightblue" stroke="midnightblue" points="1847.22,-148.064 1855.91,-142.01 1845.34,-141.32 1847.22,-148.064"/>
</g>
<!-- Node32 -->
<g id="node33" class="node"><title>Node32</title>
<polygon fill="none" stroke="#bfbfbf" points="1543.19,-123.5 1543.19,-142.5 1606.19,-142.5 1606.19,-123.5 1543.19,-123.5"/>
<text text-anchor="middle" x="1574.69" y="-130.5" font-family="Helvetica,sans-Serif" font-size="10.00">functional</text>
</g>
<!-- Node30&#45;&gt;Node32 -->
<g id="edge43" class="edge"><title>Node30&#45;&gt;Node32</title>
<path fill="none" stroke="midnightblue" d="M1672.31,-179.444C1653.47,-170.675 1623.96,-156.935 1602.31,-146.858"/>
<polygon fill="midnightblue" stroke="midnightblue" points="1603.53,-143.564 1592.98,-142.516 1600.57,-149.91 1603.53,-143.564"/>
</g>
<!-- Node33 -->
<g id="node34" class="node"><title>Node33</title>
<polygon fill="none" stroke="#bfbfbf" points="1624.69,-123.5 1624.69,-142.5 1678.69,-142.5 1678.69,-123.5 1624.69,-123.5"/>
<text text-anchor="middle" x="1651.69" y="-130.5" font-family="Helvetica,sans-Serif" font-size="10.00">random</text>
</g>
<!-- Node30&#45;&gt;Node33 -->
<g id="edge44" class="edge"><title>Node30&#45;&gt;Node33</title>
<path fill="none" stroke="midnightblue" d="M1684.25,-179.083C1678.74,-171.455 1670.66,-160.264 1663.92,-150.941"/>
<polygon fill="midnightblue" stroke="midnightblue" points="1666.7,-148.809 1658.01,-142.751 1661.03,-152.907 1666.7,-148.809"/>
</g>
<!-- Node34 -->
<g id="node35" class="node"><title>Node34</title>
<polygon fill="none" stroke="#bfbfbf" points="1696.69,-123.5 1696.69,-142.5 1764.69,-142.5 1764.69,-123.5 1696.69,-123.5"/>
<text text-anchor="middle" x="1730.69" y="-130.5" font-family="Helvetica,sans-Serif" font-size="10.00">type_traits</text>
</g>
<!-- Node30&#45;&gt;Node34 -->
<g id="edge45" class="edge"><title>Node30&#45;&gt;Node34</title>
<path fill="none" stroke="midnightblue" d="M1697.29,-179.083C1702.94,-171.455 1711.23,-160.264 1718.14,-150.941"/>
<polygon fill="midnightblue" stroke="midnightblue" points="1721.07,-152.87 1724.21,-142.751 1715.44,-148.703 1721.07,-152.87"/>
</g>
<!-- Node35 -->
<g id="node36" class="node"><title>Node35</title>
<polygon fill="none" stroke="#bfbfbf" points="1783.19,-123.5 1783.19,-142.5 1838.19,-142.5 1838.19,-123.5 1783.19,-123.5"/>
<text text-anchor="middle" x="1810.69" y="-130.5" font-family="Helvetica,sans-Serif" font-size="10.00">unistd.h</text>
</g>
<!-- Node30&#45;&gt;Node35 -->
<g id="edge46" class="edge"><title>Node30&#45;&gt;Node35</title>
<path fill="none" stroke="midnightblue" d="M1709.7,-179.444C1729.28,-170.636 1760,-156.812 1782.42,-146.722"/>
<polygon fill="midnightblue" stroke="midnightblue" points="1784.08,-149.812 1791.76,-142.516 1781.21,-143.428 1784.08,-149.812"/>
</g>
</g>
</svg>
