<?xml version="1.0" encoding="UTF-8" standalone="no"?>
<!DOCTYPE svg PUBLIC "-//W3C//DTD SVG 1.1//EN"
 "http://www.w3.org/Graphics/SVG/1.1/DTD/svg11.dtd">
<!-- Generated by graphviz version 2.38.0 (20140413.2041)
 -->
<!-- Title: /travis/libpairinteraction/Hamiltonian.h Pages: 1 -->
<!--zoomable 330 -->
<svg id="main" version="1.1" xmlns="http://www.w3.org/2000/svg" xmlns:xlink="http://www.w3.org/1999/xlink" xml:space="preserve" onload="init(evt)">
<style type="text/css"><![CDATA[
.edge:hover path { stroke: red; }
.edge:hover polygon { stroke: red; fill: red; }
]]></style>
<script type="text/javascript"><![CDATA[
var edges = document.getElementsByTagName('g');
if (edges && edges.length) {
  for (var i=0;i<edges.length;i++) {
    if (edges[i].id.substr(0,4)=='edge') {
      edges[i].setAttribute('class','edge');
    }
  }
}
]]></script>
        <defs>
                <circle id="rim" cx="0" cy="0" r="7"/>
                <circle id="rim2" cx="0" cy="0" r="3.5"/>
                <g id="zoomPlus">
                        <use xlink:href="#rim" fill="#404040">
                                <set attributeName="fill" to="#808080" begin="zoomplus.mouseover" end="zoomplus.mouseout"/>
                        </use>
                        <path d="M-4,0h8M0,-4v8" fill="none" stroke="white" stroke-width="1.5" pointer-events="none"/>
                </g>
                <g id="zoomMin">
                        <use xlink:href="#rim" fill="#404040">
                                <set attributeName="fill" to="#808080" begin="zoomminus.mouseover" end="zoomminus.mouseout"/>
                        </use>
                        <path d="M-4,0h8" fill="none" stroke="white" stroke-width="1.5" pointer-events="none"/>
                </g>
                <g id="dirArrow">
                        <path fill="none" stroke="white" stroke-width="1.5" d="M0,-3.0v7 M-2.5,-0.5L0,-3.0L2.5,-0.5"/>
                </g>
               <g id="resetDef">
                       <use xlink:href="#rim2" fill="#404040">
                               <set attributeName="fill" to="#808080" begin="reset.mouseover" end="reset.mouseout"/>
                       </use>
               </g>
        </defs>

<script type="text/javascript">
var viewWidth = 2015;
var viewHeight = 330;
var sectionId = 'dynsection-0';
</script>
<script xlink:href="svgpan.js"/>
<svg id="graph" class="graph">
<g id="viewport">
<title>/travis/libpairinteraction/Hamiltonian.h</title>
<!-- Node0 -->
<g id="node1" class="node"><title>Node0</title>
<polygon fill="#bfbfbf" stroke="black" points="1532,-291.5 1532,-321.5 1660,-321.5 1660,-291.5 1532,-291.5"/>
<text text-anchor="start" x="1540" y="-309.5" font-family="Helvetica,sans-Serif" font-size="10.00">/travis/libpairinteraction</text>
<text text-anchor="middle" x="1596" y="-298.5" font-family="Helvetica,sans-Serif" font-size="10.00">/Hamiltonian.h</text>
</g>
<!-- Node1 -->
<g id="node2" class="node"><title>Node1</title>
<g id="a_node2"><a xlink:href="Hamiltonianmatrix_8h.html" target="_top" xlink:title="Hamiltonianmatrix.h">
<polygon fill="none" stroke="black" points="1128,-235.5 1128,-254.5 1242,-254.5 1242,-235.5 1128,-235.5"/>
<text text-anchor="middle" x="1185" y="-242.5" font-family="Helvetica,sans-Serif" font-size="10.00">Hamiltonianmatrix.h</text>
</a>
</g>
</g>
<!-- Node0&#45;&gt;Node1 -->
<g id="edge1" class="edge"><title>Node0&#45;&gt;Node1</title>
<path fill="none" stroke="midnightblue" d="M1531.78,-296.203C1455.73,-285.193 1329.63,-266.938 1252.26,-255.738"/>
<polygon fill="midnightblue" stroke="midnightblue" points="1252.55,-252.242 1242.15,-254.273 1251.54,-259.17 1252.55,-252.242"/>
</g>
<!-- Node15 -->
<g id="node16" class="node"><title>Node15</title>
<polygon fill="none" stroke="#bfbfbf" points="1146.5,-0.5 1146.5,-19.5 1193.5,-19.5 1193.5,-0.5 1146.5,-0.5"/>
<text text-anchor="middle" x="1170" y="-7.5" font-family="Helvetica,sans-Serif" font-size="10.00">vector</text>
</g>
<!-- Node0&#45;&gt;Node15 -->
<g id="edge54" class="edge"><title>Node0&#45;&gt;Node15</title>
<path fill="none" stroke="midnightblue" d="M1660.22,-300.794C1775.81,-290.545 2007,-261.153 2007,-190 2007,-190 2007,-190 2007,-132 2007,-49.4658 1361.28,-18.5688 1204.15,-12.2723"/>
<polygon fill="midnightblue" stroke="midnightblue" points="1203.83,-8.75702 1193.7,-11.8611 1203.56,-15.7516 1203.83,-8.75702"/>
</g>
<!-- Node2 -->
<g id="node3" class="node"><title>Node2</title>
<g id="a_node3"><a xlink:href="Basisnames_8h.html" target="_top" xlink:title="Basisnames.h">
<polygon fill="none" stroke="black" points="476,-179.5 476,-198.5 560,-198.5 560,-179.5 476,-179.5"/>
<text text-anchor="middle" x="518" y="-186.5" font-family="Helvetica,sans-Serif" font-size="10.00">Basisnames.h</text>
</a>
</g>
</g>
<!-- Node1&#45;&gt;Node2 -->
<g id="edge2" class="edge"><title>Node1&#45;&gt;Node2</title>
<path fill="none" stroke="midnightblue" d="M1127.66,-241.36C1019.39,-236.022 777.536,-222.419 575,-199 573.507,-198.827 571.994,-198.644 570.467,-198.452"/>
<polygon fill="midnightblue" stroke="midnightblue" points="570.658,-194.946 560.279,-197.075 569.72,-201.883 570.658,-194.946"/>
</g>
<!-- Node9 -->
<g id="node10" class="node"><title>Node9</title>
<g id="a_node10"><a xlink:href="State_8h.html" target="_top" xlink:title="State.h">
<polygon fill="none" stroke="black" points="617,-123.5 617,-142.5 669,-142.5 669,-123.5 617,-123.5"/>
<text text-anchor="middle" x="643" y="-130.5" font-family="Helvetica,sans-Serif" font-size="10.00">State.h</text>
</a>
</g>
</g>
<!-- Node1&#45;&gt;Node9 -->
<g id="edge39" class="edge"><title>Node1&#45;&gt;Node9</title>
<path fill="none" stroke="midnightblue" d="M1142.92,-235.46C1039.73,-214.517 775.519,-160.895 678.999,-141.306"/>
<polygon fill="midnightblue" stroke="midnightblue" points="679.628,-137.862 669.132,-139.303 678.236,-144.723 679.628,-137.862"/>
</g>
<!-- Node10 -->
<g id="node11" class="node"><title>Node10</title>
<g id="a_node11"><a xlink:href="dtypes_8h.html" target="_top" xlink:title="dtypes.h">
<polygon fill="none" stroke="black" points="1046,-62 1046,-81 1104,-81 1104,-62 1046,-62"/>
<text text-anchor="middle" x="1075" y="-69" font-family="Helvetica,sans-Serif" font-size="10.00">dtypes.h</text>
</a>
</g>
</g>
<!-- Node1&#45;&gt;Node10 -->
<g id="edge40" class="edge"><title>Node1&#45;&gt;Node10</title>
<path fill="none" stroke="midnightblue" d="M1164.12,-235.367C1147.43,-227.687 1124.23,-215.174 1108,-199 1087.54,-178.61 1082.6,-170.871 1075,-143 1070.38,-126.042 1070.94,-105.924 1072.33,-91.5284"/>
<polygon fill="midnightblue" stroke="midnightblue" points="1075.83,-91.7225 1073.53,-81.3795 1068.88,-90.8971 1075.83,-91.7225"/>
</g>
<!-- Node14 -->
<g id="node15" class="node"><title>Node14</title>
<polygon fill="none" stroke="#bfbfbf" points="356.5,-0.5 356.5,-19.5 403.5,-19.5 403.5,-0.5 356.5,-0.5"/>
<text text-anchor="middle" x="380" y="-7.5" font-family="Helvetica,sans-Serif" font-size="10.00">cmath</text>
</g>
<!-- Node1&#45;&gt;Node14 -->
<g id="edge47" class="edge"><title>Node1&#45;&gt;Node14</title>
<path fill="none" stroke="midnightblue" d="M1127.9,-237.421C1063.18,-229.646 954.645,-215.64 862,-199 748.221,-178.564 716.562,-182.719 608,-143 590.077,-136.442 587.973,-129.421 570,-123 494.812,-96.1391 449.901,-144.007 394,-87 379.282,-71.9911 377.336,-46.8859 378.041,-29.6649"/>
<polygon fill="midnightblue" stroke="midnightblue" points="381.533,-29.9029 378.779,-19.6721 374.552,-29.3869 381.533,-29.9029"/>
</g>
<!-- Node1&#45;&gt;Node15 -->
<g id="edge53" class="edge"><title>Node1&#45;&gt;Node15</title>
<path fill="none" stroke="midnightblue" d="M1175.71,-235.395C1167.42,-227.025 1155.86,-213.483 1151,-199 1145.7,-183.192 1160.8,-73.9246 1167.24,-29.6095"/>
<polygon fill="midnightblue" stroke="midnightblue" points="1170.72,-30.02 1168.71,-19.6178 1163.79,-29.0036 1170.72,-30.02"/>
</g>
<!-- Node22 -->
<g id="node23" class="node"><title>Node22</title>
<polygon fill="none" stroke="#bfbfbf" points="1084.5,-123.5 1084.5,-142.5 1141.5,-142.5 1141.5,-123.5 1084.5,-123.5"/>
<text text-anchor="middle" x="1113" y="-130.5" font-family="Helvetica,sans-Serif" font-size="10.00">memory</text>
</g>
<!-- Node1&#45;&gt;Node22 -->
<g id="edge51" class="edge"><title>Node1&#45;&gt;Node22</title>
<path fill="none" stroke="midnightblue" d="M1162.94,-235.401C1147.54,-228.153 1128.03,-216.187 1118,-199 1109.89,-185.099 1109.25,-166.588 1110.28,-152.876"/>
<polygon fill="midnightblue" stroke="midnightblue" points="1113.78,-153.019 1111.41,-142.694 1106.83,-152.246 1113.78,-153.019"/>
</g>
<!-- Node25 -->
<g id="node26" class="node"><title>Node25</title>
<g id="a_node26"><a xlink:href="Serializable_8h.html" target="_top" xlink:title="Serializable.h">
<polygon fill="none" stroke="black" points="1454,-179.5 1454,-198.5 1534,-198.5 1534,-179.5 1454,-179.5"/>
<text text-anchor="middle" x="1494" y="-186.5" font-family="Helvetica,sans-Serif" font-size="10.00">Serializable.h</text>
</a>
</g>
</g>
<!-- Node1&#45;&gt;Node25 -->
<g id="edge31" class="edge"><title>Node1&#45;&gt;Node25</title>
<path fill="none" stroke="midnightblue" d="M1235.36,-235.442C1285.6,-226.867 1365.3,-213.172 1443.83,-199.195"/>
<polygon fill="midnightblue" stroke="midnightblue" points="1444.66,-202.601 1453.89,-197.401 1443.44,-195.71 1444.66,-202.601"/>
</g>
<!-- Node30 -->
<g id="node31" class="node"><title>Node30</title>
<g id="a_node31"><a xlink:href="utils_8h.html" target="_top" xlink:title="utils.h">
<polygon fill="none" stroke="black" points="1727.5,-179.5 1727.5,-198.5 1772.5,-198.5 1772.5,-179.5 1727.5,-179.5"/>
<text text-anchor="middle" x="1750" y="-186.5" font-family="Helvetica,sans-Serif" font-size="10.00">utils.h</text>
</a>
</g>
</g>
<!-- Node1&#45;&gt;Node30 -->
<g id="edge41" class="edge"><title>Node1&#45;&gt;Node30</title>
<path fill="none" stroke="midnightblue" d="M1242.02,-238.55C1359.26,-227.345 1624.15,-202.028 1717.05,-193.149"/>
<polygon fill="midnightblue" stroke="midnightblue" points="1717.64,-196.609 1727.26,-192.174 1716.97,-189.641 1717.64,-196.609"/>
</g>
<!-- Node36 -->
<g id="node37" class="node"><title>Node36</title>
<polygon fill="none" stroke="#bfbfbf" points="1160.5,-179.5 1160.5,-198.5 1209.5,-198.5 1209.5,-179.5 1160.5,-179.5"/>
<text text-anchor="middle" x="1185" y="-186.5" font-family="Helvetica,sans-Serif" font-size="10.00">cstdint</text>
</g>
<!-- Node1&#45;&gt;Node36 -->
<g id="edge48" class="edge"><title>Node1&#45;&gt;Node36</title>
<path fill="none" stroke="midnightblue" d="M1185,-235.083C1185,-228.006 1185,-217.861 1185,-208.986"/>
<polygon fill="midnightblue" stroke="midnightblue" points="1188.5,-208.751 1185,-198.751 1181.5,-208.751 1188.5,-208.751"/>
</g>
<!-- Node37 -->
<g id="node38" class="node"><title>Node37</title>
<polygon fill="none" stroke="#bfbfbf" points="1227.5,-179.5 1227.5,-198.5 1272.5,-198.5 1272.5,-179.5 1227.5,-179.5"/>
<text text-anchor="middle" x="1250" y="-186.5" font-family="Helvetica,sans-Serif" font-size="10.00">cstdio</text>
</g>
<!-- Node1&#45;&gt;Node37 -->
<g id="edge49" class="edge"><title>Node1&#45;&gt;Node37</title>
<path fill="none" stroke="midnightblue" d="M1195.44,-235.324C1205.15,-227.263 1219.82,-215.077 1231.5,-205.369"/>
<polygon fill="midnightblue" stroke="midnightblue" points="1233.91,-207.916 1239.37,-198.834 1229.44,-202.532 1233.91,-207.916"/>
</g>
<!-- Node38 -->
<g id="node39" class="node"><title>Node38</title>
<polygon fill="none" stroke="#bfbfbf" points="1290.5,-179.5 1290.5,-198.5 1353.5,-198.5 1353.5,-179.5 1290.5,-179.5"/>
<text text-anchor="middle" x="1322" y="-186.5" font-family="Helvetica,sans-Serif" font-size="10.00">exception</text>
</g>
<!-- Node1&#45;&gt;Node38 -->
<g id="edge50" class="edge"><title>Node1&#45;&gt;Node38</title>
<path fill="none" stroke="midnightblue" d="M1206.71,-235.444C1229.35,-226.517 1265.07,-212.439 1290.75,-202.317"/>
<polygon fill="midnightblue" stroke="midnightblue" points="1292.37,-205.44 1300.39,-198.516 1289.81,-198.927 1292.37,-205.44"/>
</g>
<!-- Node39 -->
<g id="node40" class="node"><title>Node39</title>
<polygon fill="none" stroke="#bfbfbf" points="1372,-179.5 1372,-198.5 1436,-198.5 1436,-179.5 1372,-179.5"/>
<text text-anchor="middle" x="1404" y="-186.5" font-family="Helvetica,sans-Serif" font-size="10.00">stdexcept</text>
</g>
<!-- Node1&#45;&gt;Node39 -->
<g id="edge52" class="edge"><title>Node1&#45;&gt;Node39</title>
<path fill="none" stroke="midnightblue" d="M1219.7,-235.444C1258.36,-225.91 1320.86,-210.5 1362.19,-200.31"/>
<polygon fill="midnightblue" stroke="midnightblue" points="1363.08,-203.694 1371.95,-197.902 1361.41,-196.897 1363.08,-203.694"/>
</g>
<!-- Node3 -->
<g id="node4" class="node"><title>Node3</title>
<g id="a_node4"><a xlink:href="ConfParser_8h.html" target="_top" xlink:title="ConfParser.h">
<polygon fill="none" stroke="black" points="160.5,-123.5 160.5,-142.5 237.5,-142.5 237.5,-123.5 160.5,-123.5"/>
<text text-anchor="middle" x="199" y="-130.5" font-family="Helvetica,sans-Serif" font-size="10.00">ConfParser.h</text>
</a>
</g>
</g>
<!-- Node2&#45;&gt;Node3 -->
<g id="edge3" class="edge"><title>Node2&#45;&gt;Node3</title>
<path fill="none" stroke="midnightblue" d="M475.541,-181.316C423.96,-173.12 334.034,-158.591 247.68,-143.268"/>
<polygon fill="midnightblue" stroke="midnightblue" points="248.173,-139.801 237.714,-141.494 246.946,-146.693 248.173,-139.801"/>
</g>
<!-- Node6 -->
<g id="node7" class="node"><title>Node6</title>
<polygon fill="none" stroke="#bfbfbf" points="270,-62 270,-81 314,-81 314,-62 270,-62"/>
<text text-anchor="middle" x="292" y="-69" font-family="Helvetica,sans-Serif" font-size="10.00">string</text>
</g>
<!-- Node2&#45;&gt;Node6 -->
<g id="edge28" class="edge"><title>Node2&#45;&gt;Node6</title>
<path fill="none" stroke="midnightblue" d="M475.741,-185.03C438.339,-180.65 383.686,-169.813 344,-143 324.38,-129.744 309.392,-106.537 300.658,-90.3851"/>
<polygon fill="midnightblue" stroke="midnightblue" points="303.723,-88.6908 296.043,-81.392 297.495,-91.8869 303.723,-88.6908"/>
</g>
<!-- Node8 -->
<g id="node9" class="node"><title>Node8</title>
<g id="a_node9"><a xlink:href="Iter_8h.html" target="_top" xlink:title="Iter.h">
<polygon fill="none" stroke="black" points="255.5,-123.5 255.5,-142.5 296.5,-142.5 296.5,-123.5 255.5,-123.5"/>
<text text-anchor="middle" x="276" y="-130.5" font-family="Helvetica,sans-Serif" font-size="10.00">Iter.h</text>
</a>
</g>
</g>
<!-- Node2&#45;&gt;Node8 -->
<g id="edge8" class="edge"><title>Node2&#45;&gt;Node8</title>
<path fill="none" stroke="midnightblue" d="M476.658,-179.491C434.8,-170.763 368.255,-156.58 311,-143 309.55,-142.656 308.068,-142.299 306.572,-141.933"/>
<polygon fill="midnightblue" stroke="midnightblue" points="307.247,-138.494 296.696,-139.459 305.546,-145.284 307.247,-138.494"/>
</g>
<!-- Node2&#45;&gt;Node9 -->
<g id="edge9" class="edge"><title>Node2&#45;&gt;Node9</title>
<path fill="none" stroke="midnightblue" d="M537.807,-179.444C558.287,-170.596 590.483,-156.687 613.865,-146.586"/>
<polygon fill="midnightblue" stroke="midnightblue" points="615.494,-149.695 623.286,-142.516 612.718,-143.269 615.494,-149.695"/>
</g>
<!-- Node2&#45;&gt;Node10 -->
<g id="edge24" class="edge"><title>Node2&#45;&gt;Node10</title>
<path fill="none" stroke="midnightblue" d="M560.288,-182.297C649.514,-169.714 863.126,-136.69 1037,-87 1039.58,-86.2615 1042.24,-85.422 1044.89,-84.528"/>
<polygon fill="midnightblue" stroke="midnightblue" points="1046.09,-87.8155 1054.31,-81.1338 1043.72,-81.2297 1046.09,-87.8155"/>
</g>
<!-- Node2&#45;&gt;Node15 -->
<g id="edge30" class="edge"><title>Node2&#45;&gt;Node15</title>
<path fill="none" stroke="midnightblue" d="M560.186,-185.109C680.145,-176.232 1020.5,-146.308 1113,-87 1135.28,-72.7126 1152.03,-46.4669 1161.42,-28.8735"/>
<polygon fill="midnightblue" stroke="midnightblue" points="1164.69,-30.1721 1166.09,-19.6704 1158.45,-27.0059 1164.69,-30.1721"/>
</g>
<!-- Node21 -->
<g id="node22" class="node"><title>Node21</title>
<polygon fill="none" stroke="#bfbfbf" points="353,-123.5 353,-142.5 407,-142.5 407,-123.5 353,-123.5"/>
<text text-anchor="middle" x="380" y="-130.5" font-family="Helvetica,sans-Serif" font-size="10.00">fstream</text>
</g>
<!-- Node2&#45;&gt;Node21 -->
<g id="edge25" class="edge"><title>Node2&#45;&gt;Node21</title>
<path fill="none" stroke="midnightblue" d="M496.133,-179.444C473.221,-170.478 437.025,-156.314 411.134,-146.183"/>
<polygon fill="midnightblue" stroke="midnightblue" points="412.352,-142.901 401.764,-142.516 409.801,-149.42 412.352,-142.901"/>
</g>
<!-- Node2&#45;&gt;Node22 -->
<g id="edge26" class="edge"><title>Node2&#45;&gt;Node22</title>
<path fill="none" stroke="midnightblue" d="M560.006,-184.656C647.742,-177.599 856.842,-160.396 1032,-143 1045.67,-141.643 1060.61,-140.021 1073.9,-138.531"/>
<polygon fill="midnightblue" stroke="midnightblue" points="1074.61,-141.973 1084.15,-137.371 1073.82,-135.018 1074.61,-141.973"/>
</g>
<!-- Node23 -->
<g id="node24" class="node"><title>Node23</title>
<polygon fill="none" stroke="#bfbfbf" points="425,-123.5 425,-142.5 457,-142.5 457,-123.5 425,-123.5"/>
<text text-anchor="middle" x="441" y="-130.5" font-family="Helvetica,sans-Serif" font-size="10.00">set</text>
</g>
<!-- Node2&#45;&gt;Node23 -->
<g id="edge27" class="edge"><title>Node2&#45;&gt;Node23</title>
<path fill="none" stroke="midnightblue" d="M505.629,-179.324C493.842,-171.058 475.868,-158.453 461.864,-148.632"/>
<polygon fill="midnightblue" stroke="midnightblue" points="463.538,-145.531 453.341,-142.655 459.518,-151.262 463.538,-145.531"/>
</g>
<!-- Node24 -->
<g id="node25" class="node"><title>Node24</title>
<polygon fill="none" stroke="#bfbfbf" points="475,-123.5 475,-142.5 561,-142.5 561,-123.5 475,-123.5"/>
<text text-anchor="middle" x="518" y="-130.5" font-family="Helvetica,sans-Serif" font-size="10.00">unordered_set</text>
</g>
<!-- Node2&#45;&gt;Node24 -->
<g id="edge29" class="edge"><title>Node2&#45;&gt;Node24</title>
<path fill="none" stroke="midnightblue" d="M518,-179.083C518,-172.006 518,-161.861 518,-152.986"/>
<polygon fill="midnightblue" stroke="midnightblue" points="521.5,-152.751 518,-142.751 514.5,-152.751 521.5,-152.751"/>
</g>
<!-- Node4 -->
<g id="node5" class="node"><title>Node4</title>
<polygon fill="none" stroke="#bfbfbf" points="214,-62 214,-81 252,-81 252,-62 214,-62"/>
<text text-anchor="middle" x="233" y="-69" font-family="Helvetica,sans-Serif" font-size="10.00">map</text>
</g>
<!-- Node3&#45;&gt;Node4 -->
<g id="edge4" class="edge"><title>Node3&#45;&gt;Node4</title>
<path fill="none" stroke="midnightblue" d="M203.871,-123.475C208.87,-114.727 216.789,-100.869 223.109,-89.8093"/>
<polygon fill="midnightblue" stroke="midnightblue" points="226.215,-91.428 228.138,-81.0091 220.137,-87.955 226.215,-91.428"/>
</g>
<!-- Node5 -->
<g id="node6" class="node"><title>Node5</title>
<polygon fill="none" stroke="#bfbfbf" points="0,-62 0,-81 56,-81 56,-62 0,-62"/>
<text text-anchor="middle" x="28" y="-69" font-family="Helvetica,sans-Serif" font-size="10.00">sstream</text>
</g>
<!-- Node3&#45;&gt;Node5 -->
<g id="edge5" class="edge"><title>Node3&#45;&gt;Node5</title>
<path fill="none" stroke="midnightblue" d="M172.169,-123.422C145.02,-114.641 101.901,-100.418 65,-87 63.1034,-86.3104 61.1573,-85.5891 59.1975,-84.8523"/>
<polygon fill="midnightblue" stroke="midnightblue" points="60.0434,-81.4282 49.4532,-81.1148 57.5366,-87.964 60.0434,-81.4282"/>
</g>
<!-- Node3&#45;&gt;Node6 -->
<g id="edge6" class="edge"><title>Node3&#45;&gt;Node6</title>
<path fill="none" stroke="midnightblue" d="M212.325,-123.475C227.38,-113.843 252.116,-98.0175 270.037,-86.5517"/>
<polygon fill="midnightblue" stroke="midnightblue" points="272.163,-89.3466 278.7,-81.0091 268.39,-83.4501 272.163,-89.3466"/>
</g>
<!-- Node7 -->
<g id="node8" class="node"><title>Node7</title>
<polygon fill="none" stroke="#bfbfbf" points="74,-62 74,-81 196,-81 196,-62 74,-62"/>
<text text-anchor="middle" x="135" y="-69" font-family="Helvetica,sans-Serif" font-size="10.00">boost/lexical_cast.hpp</text>
</g>
<!-- Node3&#45;&gt;Node7 -->
<g id="edge7" class="edge"><title>Node3&#45;&gt;Node7</title>
<path fill="none" stroke="midnightblue" d="M189.83,-123.475C179.85,-114.197 163.688,-99.1706 151.491,-87.831"/>
<polygon fill="midnightblue" stroke="midnightblue" points="153.86,-85.2547 144.153,-81.0091 149.093,-90.3814 153.86,-85.2547"/>
</g>
<!-- Node9&#45;&gt;Node6 -->
<g id="edge20" class="edge"><title>Node9&#45;&gt;Node6</title>
<path fill="none" stroke="midnightblue" d="M616.983,-128.062C567.851,-120.56 458.078,-103.496 366,-87 352.273,-84.5408 337.157,-81.6176 324.185,-79.0423"/>
<polygon fill="midnightblue" stroke="midnightblue" points="324.801,-75.5962 314.308,-77.0671 323.428,-82.4603 324.801,-75.5962"/>
</g>
<!-- Node9&#45;&gt;Node10 -->
<g id="edge10" class="edge"><title>Node9&#45;&gt;Node10</title>
<path fill="none" stroke="midnightblue" d="M669.21,-131.269C733.03,-129.002 901.216,-120.102 1037,-87 1039.83,-86.3101 1042.73,-85.4661 1045.62,-84.5355"/>
<polygon fill="midnightblue" stroke="midnightblue" points="1046.93,-87.7822 1055.18,-81.1363 1044.59,-81.1862 1046.93,-87.7822"/>
</g>
<!-- Node13 -->
<g id="node14" class="node"><title>Node13</title>
<polygon fill="none" stroke="#bfbfbf" points="657.5,-0.5 657.5,-19.5 698.5,-19.5 698.5,-0.5 657.5,-0.5"/>
<text text-anchor="middle" x="678" y="-7.5" font-family="Helvetica,sans-Serif" font-size="10.00">array</text>
</g>
<!-- Node9&#45;&gt;Node13 -->
<g id="edge16" class="edge"><title>Node9&#45;&gt;Node13</title>
<path fill="none" stroke="midnightblue" d="M616.756,-126.065C612.172,-125.037 607.448,-123.983 603,-123 525.313,-105.837 386.167,-117.203 437,-56 463.369,-24.2511 588.088,-14.7803 647.017,-12.0542"/>
<polygon fill="midnightblue" stroke="midnightblue" points="647.375,-15.5422 657.216,-11.6198 647.077,-8.54856 647.375,-15.5422"/>
</g>
<!-- Node9&#45;&gt;Node14 -->
<g id="edge18" class="edge"><title>Node9&#45;&gt;Node14</title>
<path fill="none" stroke="midnightblue" d="M616.77,-126.004C612.184,-124.983 607.456,-123.947 603,-123 523.197,-106.044 489.083,-134.844 423,-87 403.476,-72.8643 391.617,-46.9703 385.433,-29.3768"/>
<polygon fill="midnightblue" stroke="midnightblue" points="388.703,-28.1141 382.298,-19.6745 382.042,-30.2662 388.703,-28.1141"/>
</g>
<!-- Node16 -->
<g id="node17" class="node"><title>Node16</title>
<polygon fill="none" stroke="#bfbfbf" points="888,-62 888,-81 1028,-81 1028,-62 888,-62"/>
<text text-anchor="middle" x="958" y="-69" font-family="Helvetica,sans-Serif" font-size="10.00">boost/functional/hash.hpp</text>
</g>
<!-- Node9&#45;&gt;Node16 -->
<g id="edge17" class="edge"><title>Node9&#45;&gt;Node16</title>
<path fill="none" stroke="midnightblue" d="M669.046,-127.08C720.08,-117.44 834.226,-95.8795 902.791,-82.9283"/>
<polygon fill="midnightblue" stroke="midnightblue" points="903.799,-86.3 912.975,-81.0046 902.5,-79.4216 903.799,-86.3"/>
</g>
<!-- Node17 -->
<g id="node18" class="node"><title>Node17</title>
<polygon fill="none" stroke="#bfbfbf" points="446.5,-62 446.5,-81 505.5,-81 505.5,-62 446.5,-62"/>
<text text-anchor="middle" x="476" y="-69" font-family="Helvetica,sans-Serif" font-size="10.00">iostream</text>
</g>
<!-- Node9&#45;&gt;Node17 -->
<g id="edge19" class="edge"><title>Node9&#45;&gt;Node17</title>
<path fill="none" stroke="midnightblue" d="M617.936,-123.337C592.096,-114.371 550.664,-99.8977 515,-87 512.765,-86.1916 510.46,-85.3514 508.14,-84.501"/>
<polygon fill="midnightblue" stroke="midnightblue" points="509.253,-81.1812 498.66,-81.0027 506.83,-87.7484 509.253,-81.1812"/>
</g>
<!-- Node18 -->
<g id="node19" class="node"><title>Node18</title>
<polygon fill="none" stroke="#bfbfbf" points="524,-56.5 524,-86.5 628,-86.5 628,-56.5 524,-56.5"/>
<text text-anchor="start" x="532" y="-74.5" font-family="Helvetica,sans-Serif" font-size="10.00">boost/serialization</text>
<text text-anchor="middle" x="576" y="-63.5" font-family="Helvetica,sans-Serif" font-size="10.00">/array.hpp</text>
</g>
<!-- Node9&#45;&gt;Node18 -->
<g id="edge21" class="edge"><title>Node9&#45;&gt;Node18</title>
<path fill="none" stroke="midnightblue" d="M633.401,-123.475C624.581,-115.643 611.149,-103.714 599.496,-93.3656"/>
<polygon fill="midnightblue" stroke="midnightblue" points="601.592,-90.5462 591.791,-86.523 596.944,-95.7802 601.592,-90.5462"/>
</g>
<!-- Node19 -->
<g id="node20" class="node"><title>Node19</title>
<polygon fill="none" stroke="#bfbfbf" points="646,-56.5 646,-86.5 750,-86.5 750,-56.5 646,-56.5"/>
<text text-anchor="start" x="654" y="-74.5" font-family="Helvetica,sans-Serif" font-size="10.00">boost/serialization</text>
<text text-anchor="middle" x="698" y="-63.5" font-family="Helvetica,sans-Serif" font-size="10.00">/string.hpp</text>
</g>
<!-- Node9&#45;&gt;Node19 -->
<g id="edge22" class="edge"><title>Node9&#45;&gt;Node19</title>
<path fill="none" stroke="midnightblue" d="M650.88,-123.475C657.981,-115.793 668.724,-104.172 678.159,-93.9643"/>
<polygon fill="midnightblue" stroke="midnightblue" points="680.82,-96.2421 685.038,-86.523 675.679,-91.4905 680.82,-96.2421"/>
</g>
<!-- Node20 -->
<g id="node21" class="node"><title>Node20</title>
<polygon fill="none" stroke="#bfbfbf" points="768.5,-62 768.5,-81 869.5,-81 869.5,-62 768.5,-62"/>
<text text-anchor="middle" x="819" y="-69" font-family="Helvetica,sans-Serif" font-size="10.00">boost/variant.hpp</text>
</g>
<!-- Node9&#45;&gt;Node20 -->
<g id="edge23" class="edge"><title>Node9&#45;&gt;Node20</title>
<path fill="none" stroke="midnightblue" d="M668.217,-123.475C698.668,-113.18 750.049,-95.8103 784.243,-84.2502"/>
<polygon fill="midnightblue" stroke="midnightblue" points="785.478,-87.5274 793.83,-81.0091 783.236,-80.8961 785.478,-87.5274"/>
</g>
<!-- Node11 -->
<g id="node12" class="node"><title>Node11</title>
<polygon fill="none" stroke="#bfbfbf" points="945.5,-0.5 945.5,-19.5 1022.5,-19.5 1022.5,-0.5 945.5,-0.5"/>
<text text-anchor="middle" x="984" y="-7.5" font-family="Helvetica,sans-Serif" font-size="10.00">Eigen/Dense</text>
</g>
<!-- Node10&#45;&gt;Node11 -->
<g id="edge11" class="edge"><title>Node10&#45;&gt;Node11</title>
<path fill="none" stroke="midnightblue" d="M1061.96,-61.9751C1047.23,-52.3431 1023.03,-36.5175 1005.49,-25.0517"/>
<polygon fill="midnightblue" stroke="midnightblue" points="1007.3,-22.0522 997.014,-19.5091 1003.47,-27.911 1007.3,-22.0522"/>
</g>
<!-- Node12 -->
<g id="node13" class="node"><title>Node12</title>
<polygon fill="none" stroke="#bfbfbf" points="1041,-0.5 1041,-19.5 1121,-19.5 1121,-0.5 1041,-0.5"/>
<text text-anchor="middle" x="1081" y="-7.5" font-family="Helvetica,sans-Serif" font-size="10.00">Eigen/Sparse</text>
</g>
<!-- Node10&#45;&gt;Node12 -->
<g id="edge12" class="edge"><title>Node10&#45;&gt;Node12</title>
<path fill="none" stroke="midnightblue" d="M1075.86,-61.9751C1076.71,-53.5803 1078.03,-40.4806 1079.12,-29.6631"/>
<polygon fill="midnightblue" stroke="midnightblue" points="1082.62,-29.8098 1080.14,-19.5091 1075.66,-29.1074 1082.62,-29.8098"/>
</g>
<!-- Node10&#45;&gt;Node13 -->
<g id="edge13" class="edge"><title>Node10&#45;&gt;Node13</title>
<path fill="none" stroke="midnightblue" d="M1055.17,-61.9065C1049.4,-59.6885 1043.03,-57.5049 1037,-56 917.991,-26.2941 771.655,-15.7237 708.927,-12.3804"/>
<polygon fill="midnightblue" stroke="midnightblue" points="708.722,-8.86556 698.557,-11.8538 708.366,-15.8566 708.722,-8.86556"/>
</g>
<!-- Node10&#45;&gt;Node14 -->
<g id="edge14" class="edge"><title>Node10&#45;&gt;Node14</title>
<path fill="none" stroke="midnightblue" d="M1056.01,-61.9898C1050.04,-59.6603 1043.34,-57.3952 1037,-56 916.266,-29.4505 530.699,-15.6449 413.87,-11.9976"/>
<polygon fill="midnightblue" stroke="midnightblue" points="413.834,-8.49494 403.731,-11.6857 413.618,-15.4916 413.834,-8.49494"/>
</g>
<!-- Node10&#45;&gt;Node15 -->
<g id="edge15" class="edge"><title>Node10&#45;&gt;Node15</title>
<path fill="none" stroke="midnightblue" d="M1088.61,-61.9751C1104.06,-52.2989 1129.49,-36.3721 1147.82,-24.8941"/>
<polygon fill="midnightblue" stroke="midnightblue" points="1149.8,-27.7834 1156.41,-19.5091 1146.08,-21.8509 1149.8,-27.7834"/>
</g>
<!-- Node25&#45;&gt;Node10 -->
<g id="edge32" class="edge"><title>Node25&#45;&gt;Node10</title>
<path fill="none" stroke="midnightblue" d="M1453.9,-180.586C1450.89,-180.044 1447.9,-179.511 1445,-179 1350.45,-162.327 1323.87,-170.89 1232,-143 1183.24,-128.197 1129.77,-101.829 1099.5,-85.8747"/>
<polygon fill="midnightblue" stroke="midnightblue" points="1101,-82.7054 1090.53,-81.0884 1097.71,-88.8821 1101,-82.7054"/>
</g>
<!-- Node25&#45;&gt;Node15 -->
<g id="edge38" class="edge"><title>Node25&#45;&gt;Node15</title>
<path fill="none" stroke="midnightblue" d="M1453.93,-180.512C1389.34,-168.39 1268.99,-145.557 1265,-143 1220.98,-114.753 1190.92,-58.2656 1177.67,-29.2008"/>
<polygon fill="midnightblue" stroke="midnightblue" points="1180.78,-27.5826 1173.55,-19.8365 1174.37,-30.3996 1180.78,-27.5826"/>
</g>
<!-- Node25&#45;&gt;Node22 -->
<g id="edge34" class="edge"><title>Node25&#45;&gt;Node22</title>
<path fill="none" stroke="midnightblue" d="M1453.91,-180.479C1450.9,-179.962 1447.9,-179.463 1445,-179 1339.39,-162.153 1214.22,-146.293 1152.07,-138.693"/>
<polygon fill="midnightblue" stroke="midnightblue" points="1152.28,-135.193 1141.93,-137.458 1151.44,-142.141 1152.28,-135.193"/>
</g>
<!-- Node26 -->
<g id="node27" class="node"><title>Node26</title>
<polygon fill="none" stroke="#bfbfbf" points="1274,-123.5 1274,-142.5 1326,-142.5 1326,-123.5 1274,-123.5"/>
<text text-anchor="middle" x="1300" y="-130.5" font-family="Helvetica,sans-Serif" font-size="10.00">iterator</text>
</g>
<!-- Node25&#45;&gt;Node26 -->
<g id="edge33" class="edge"><title>Node25&#45;&gt;Node26</title>
<path fill="none" stroke="midnightblue" d="M1463.26,-179.444C1428.69,-169.821 1372.61,-154.21 1336.01,-144.024"/>
<polygon fill="midnightblue" stroke="midnightblue" points="1336.81,-140.614 1326.24,-141.304 1334.94,-147.358 1336.81,-140.614"/>
</g>
<!-- Node27 -->
<g id="node28" class="node"><title>Node27</title>
<polygon fill="none" stroke="#bfbfbf" points="1344.5,-123.5 1344.5,-142.5 1407.5,-142.5 1407.5,-123.5 1344.5,-123.5"/>
<text text-anchor="middle" x="1376" y="-130.5" font-family="Helvetica,sans-Serif" font-size="10.00">typeindex</text>
</g>
<!-- Node25&#45;&gt;Node27 -->
<g id="edge35" class="edge"><title>Node25&#45;&gt;Node27</title>
<path fill="none" stroke="midnightblue" d="M1475.3,-179.444C1456.06,-170.636 1425.85,-156.812 1403.8,-146.722"/>
<polygon fill="midnightblue" stroke="midnightblue" points="1405.16,-143.495 1394.61,-142.516 1402.25,-149.86 1405.16,-143.495"/>
</g>
<!-- Node28 -->
<g id="node29" class="node"><title>Node28</title>
<polygon fill="none" stroke="#bfbfbf" points="1425.5,-123.5 1425.5,-142.5 1480.5,-142.5 1480.5,-123.5 1425.5,-123.5"/>
<text text-anchor="middle" x="1453" y="-130.5" font-family="Helvetica,sans-Serif" font-size="10.00">typeinfo</text>
</g>
<!-- Node25&#45;&gt;Node28 -->
<g id="edge36" class="edge"><title>Node25&#45;&gt;Node28</title>
<path fill="none" stroke="midnightblue" d="M1487.23,-179.083C1481.44,-171.455 1472.94,-160.264 1465.86,-150.941"/>
<polygon fill="midnightblue" stroke="midnightblue" points="1468.48,-148.599 1459.64,-142.751 1462.9,-152.832 1468.48,-148.599"/>
</g>
<!-- Node29 -->
<g id="node30" class="node"><title>Node29</title>
<polygon fill="none" stroke="#bfbfbf" points="1498.5,-123.5 1498.5,-142.5 1591.5,-142.5 1591.5,-123.5 1498.5,-123.5"/>
<text text-anchor="middle" x="1545" y="-130.5" font-family="Helvetica,sans-Serif" font-size="10.00">unordered_map</text>
</g>
<!-- Node25&#45;&gt;Node29 -->
<g id="edge37" class="edge"><title>Node25&#45;&gt;Node29</title>
<path fill="none" stroke="midnightblue" d="M1502.42,-179.083C1509.85,-171.22 1520.85,-159.569 1529.81,-150.081"/>
<polygon fill="midnightblue" stroke="midnightblue" points="1532.41,-152.424 1536.74,-142.751 1527.32,-147.618 1532.41,-152.424"/>
</g>
<!-- Node31 -->
<g id="node32" class="node"><title>Node31</title>
<polygon fill="none" stroke="#bfbfbf" points="1682.5,-123.5 1682.5,-142.5 1739.5,-142.5 1739.5,-123.5 1682.5,-123.5"/>
<text text-anchor="middle" x="1711" y="-130.5" font-family="Helvetica,sans-Serif" font-size="10.00">complex</text>
</g>
<!-- Node30&#45;&gt;Node31 -->
<g id="edge42" class="edge"><title>Node30&#45;&gt;Node31</title>
<path fill="none" stroke="midnightblue" d="M1743.56,-179.083C1738.05,-171.455 1729.97,-160.264 1723.24,-150.941"/>
<polygon fill="midnightblue" stroke="midnightblue" points="1726.01,-148.809 1717.32,-142.751 1720.34,-152.907 1726.01,-148.809"/>
</g>
<!-- Node32 -->
<g id="node33" class="node"><title>Node32</title>
<polygon fill="none" stroke="#bfbfbf" points="1757.5,-123.5 1757.5,-142.5 1820.5,-142.5 1820.5,-123.5 1757.5,-123.5"/>
<text text-anchor="middle" x="1789" y="-130.5" font-family="Helvetica,sans-Serif" font-size="10.00">functional</text>
</g>
<!-- Node30&#45;&gt;Node32 -->
<g id="edge43" class="edge"><title>Node30&#45;&gt;Node32</title>
<path fill="none" stroke="midnightblue" d="M1756.44,-179.083C1761.95,-171.455 1770.03,-160.264 1776.76,-150.941"/>
<polygon fill="midnightblue" stroke="midnightblue" points="1779.66,-152.907 1782.68,-142.751 1773.99,-148.809 1779.66,-152.907"/>
</g>
<!-- Node33 -->
<g id="node34" class="node"><title>Node33</title>
<polygon fill="none" stroke="#bfbfbf" points="1839,-123.5 1839,-142.5 1893,-142.5 1893,-123.5 1839,-123.5"/>
<text text-anchor="middle" x="1866" y="-130.5" font-family="Helvetica,sans-Serif" font-size="10.00">random</text>
</g>
<!-- Node30&#45;&gt;Node33 -->
<g id="edge44" class="edge"><title>Node30&#45;&gt;Node33</title>
<path fill="none" stroke="midnightblue" d="M1768.38,-179.444C1787.22,-170.675 1816.73,-156.935 1838.38,-146.858"/>
<polygon fill="midnightblue" stroke="midnightblue" points="1840.12,-149.91 1847.71,-142.516 1837.16,-143.564 1840.12,-149.91"/>
</g>
<!-- Node34 -->
<g id="node35" class="node"><title>Node34</title>
<polygon fill="none" stroke="#bfbfbf" points="1911,-123.5 1911,-142.5 1979,-142.5 1979,-123.5 1911,-123.5"/>
<text text-anchor="middle" x="1945" y="-130.5" font-family="Helvetica,sans-Serif" font-size="10.00">type_traits</text>
</g>
<!-- Node30&#45;&gt;Node34 -->
<g id="edge45" class="edge"><title>Node30&#45;&gt;Node34</title>
<path fill="none" stroke="midnightblue" d="M1772.75,-181.7C1804.98,-172.774 1864.45,-156.307 1904.37,-145.253"/>
<polygon fill="midnightblue" stroke="midnightblue" points="1905.36,-148.609 1914.06,-142.567 1903.49,-141.863 1905.36,-148.609"/>
</g>
<!-- Node35 -->
<g id="node36" class="node"><title>Node35</title>
<polygon fill="none" stroke="#bfbfbf" points="1609.5,-123.5 1609.5,-142.5 1664.5,-142.5 1664.5,-123.5 1609.5,-123.5"/>
<text text-anchor="middle" x="1637" y="-130.5" font-family="Helvetica,sans-Serif" font-size="10.00">unistd.h</text>
</g>
<!-- Node30&#45;&gt;Node35 -->
<g id="edge46" class="edge"><title>Node30&#45;&gt;Node35</title>
<path fill="none" stroke="midnightblue" d="M1732.09,-179.444C1713.75,-170.675 1684.99,-156.935 1663.91,-146.858"/>
<polygon fill="midnightblue" stroke="midnightblue" points="1665.35,-143.67 1654.82,-142.516 1662.33,-149.986 1665.35,-143.67"/>
</g>
</g>
</svg>
        <g id="navigator" transform="translate(0 0)" fill="#404254">
                <rect fill="#f2f5e9" fill-opacity="0.5" stroke="#606060" stroke-width=".5" x="0" y="0" width="60" height="60"/>
                <use id="zoomplus" xlink:href="#zoomPlus" x="17" y="9" onmousedown="handleZoom(evt,'in')"/>
                <use id="zoomminus" xlink:href="#zoomMin" x="42" y="9" onmousedown="handleZoom(evt,'out')"/>
                <use id="reset" xlink:href="#resetDef" x="30" y="36" onmousedown="handleReset()"/>
                <g id="arrowUp" xlink:href="#dirArrow" transform="translate(30 24)" onmousedown="handlePan(0,-1)">
                  <use xlink:href="#rim" fill="#404040">
                        <set attributeName="fill" to="#808080" begin="arrowUp.mouseover" end="arrowUp.mouseout"/>
                  </use>
                  <path fill="none" stroke="white" stroke-width="1.5" d="M0,-3.0v7 M-2.5,-0.5L0,-3.0L2.5,-0.5"/>
                </g>
                <g id="arrowRight" xlink:href="#dirArrow" transform="rotate(90) translate(36 -43)" onmousedown="handlePan(1,0)">
                  <use xlink:href="#rim" fill="#404040">
                        <set attributeName="fill" to="#808080" begin="arrowRight.mouseover" end="arrowRight.mouseout"/>
                  </use>
                  <path fill="none" stroke="white" stroke-width="1.5" d="M0,-3.0v7 M-2.5,-0.5L0,-3.0L2.5,-0.5"/>
                </g>
                <g id="arrowDown" xlink:href="#dirArrow" transform="rotate(180) translate(-30 -48)" onmousedown="handlePan(0,1)">
                  <use xlink:href="#rim" fill="#404040">
                        <set attributeName="fill" to="#808080" begin="arrowDown.mouseover" end="arrowDown.mouseout"/>
                  </use>
                  <path fill="none" stroke="white" stroke-width="1.5" d="M0,-3.0v7 M-2.5,-0.5L0,-3.0L2.5,-0.5"/>
                </g>
                <g id="arrowLeft" xlink:href="#dirArrow" transform="rotate(270) translate(-36 17)" onmousedown="handlePan(-1,0)">
                  <use xlink:href="#rim" fill="#404040">
                        <set attributeName="fill" to="#808080" begin="arrowLeft.mouseover" end="arrowLeft.mouseout"/>
                  </use>
                  <path fill="none" stroke="white" stroke-width="1.5" d="M0,-3.0v7 M-2.5,-0.5L0,-3.0L2.5,-0.5"/>
                </g>
        </g>
        <svg viewBox="0 0 15 15" width="100%" height="30px" preserveAspectRatio="xMaxYMin meet">
         <g id="arrow_out" transform="scale(0.3 0.3)">
          <a xlink:href="Hamiltonian_8h__incl_org.svg" target="_base">
           <rect id="button" ry="5" rx="5" y="6" x="6" height="38" width="38"
                fill="#f2f5e9" fill-opacity="0.5" stroke="#606060" stroke-width="1.0"/>
           <path id="arrow"
             d="M 11.500037,31.436501 C 11.940474,20.09759 22.043105,11.32322 32.158766,21.979434 L 37.068811,17.246167 C 37.068811,17.246167 37.088388,32 37.088388,32 L 22.160133,31.978069 C 22.160133,31.978069 26.997745,27.140456 26.997745,27.140456 C 18.528582,18.264221 13.291696,25.230495 11.500037,31.436501 z"
             style="fill:#404040;"/>
          </a>
         </g>
        </svg>
</svg>
