<?xml version="1.0" encoding="UTF-8" standalone="no"?>
<!DOCTYPE svg PUBLIC "-//W3C//DTD SVG 1.1//EN"
 "http://www.w3.org/Graphics/SVG/1.1/DTD/svg11.dtd">
<!-- Generated by graphviz version 2.38.0 (20140413.2041)
 -->
<!-- Title: Graphical Class Hierarchy Pages: 1 -->
<svg width="183pt" height="104pt"
 viewBox="0.00 0.00 183.00 104.00" xmlns="http://www.w3.org/2000/svg" xmlns:xlink="http://www.w3.org/1999/xlink">
<g id="graph0" class="graph" transform="scale(1 1) rotate(0) translate(4 100)">
<title>Graphical Class Hierarchy</title>
<!-- Node56 -->
<g id="node1" class="node"><title>Node56</title>
<polygon fill="none" stroke="#bfbfbf" points="0,-38.5 0,-57.5 63,-57.5 63,-38.5 0,-38.5"/>
<text text-anchor="middle" x="31.5" y="-45.5" font-family="Helvetica,sans-Serif" font-size="10.00">exception</text>
</g>
<!-- Node0 -->
<g id="node2" class="node"><title>Node0</title>
<g id="a_node2"><a xlink:href="structno__defect.html" target="_top" xlink:title="no_defect">
<polygon fill="none" stroke="black" points="105,-76.5 105,-95.5 169,-95.5 169,-76.5 105,-76.5"/>
<text text-anchor="middle" x="137" y="-83.5" font-family="Helvetica,sans-Serif" font-size="10.00">no_defect</text>
</a>
</g>
</g>
<!-- Node56&#45;&gt;Node0 -->
<g id="edge1" class="edge"><title>Node56&#45;&gt;Node0</title>
<path fill="none" stroke="midnightblue" d="M68.2293,-61.118C81.9184,-66.1439 97.2667,-71.7791 109.891,-76.4141"/>
<polygon fill="midnightblue" stroke="midnightblue" points="69.211,-57.7501 58.6174,-57.589 66.7984,-64.3212 69.211,-57.7501"/>
</g>
<!-- Node58 -->
<g id="node3" class="node"><title>Node58</title>
<g id="a_node3"><a xlink:href="structno__potential.html" target="_top" xlink:title="no_potential">
<polygon fill="none" stroke="black" points="99,-38.5 99,-57.5 175,-57.5 175,-38.5 99,-38.5"/>
<text text-anchor="middle" x="137" y="-45.5" font-family="Helvetica,sans-Serif" font-size="10.00">no_potential</text>
</a>
</g>
</g>
<!-- Node56&#45;&gt;Node58 -->
<g id="edge2" class="edge"><title>Node56&#45;&gt;Node58</title>
<path fill="none" stroke="midnightblue" d="M73.3191,-48C81.7737,-48 90.6361,-48 98.947,-48"/>
<polygon fill="midnightblue" stroke="midnightblue" points="73.2732,-44.5001 63.2732,-48 73.2732,-51.5001 73.2732,-44.5001"/>
</g>
<!-- Node59 -->
<g id="node4" class="node"><title>Node59</title>
<g id="a_node4"><a xlink:href="structsqlite_1_1error.html" target="_top" xlink:title="SQLite error. ">
<polygon fill="none" stroke="black" points="101.5,-0.5 101.5,-19.5 172.5,-19.5 172.5,-0.5 101.5,-0.5"/>
<text text-anchor="middle" x="137" y="-7.5" font-family="Helvetica,sans-Serif" font-size="10.00">sqlite::error</text>
</a>
</g>
</g>
<!-- Node56&#45;&gt;Node59 -->
<g id="edge3" class="edge"><title>Node56&#45;&gt;Node59</title>
<path fill="none" stroke="midnightblue" d="M68.2293,-34.882C81.9184,-29.8561 97.2667,-24.2209 109.891,-19.5859"/>
<polygon fill="midnightblue" stroke="midnightblue" points="66.7984,-31.6788 58.6174,-38.411 69.211,-38.2499 66.7984,-31.6788"/>
</g>
</g>
</svg>
