<?xml version="1.0" encoding="UTF-8" standalone="no"?>
<!DOCTYPE svg PUBLIC "-//W3C//DTD SVG 1.1//EN"
 "http://www.w3.org/Graphics/SVG/1.1/DTD/svg11.dtd">
<!-- Generated by graphviz version 2.38.0 (20140413.2041)
 -->
<!-- Title: /travis/libpairinteraction/MatrixElements.h Pages: 1 -->
<svg width="2017pt" height="352pt"
 viewBox="0.00 0.00 2016.50 352.00" xmlns="http://www.w3.org/2000/svg" xmlns:xlink="http://www.w3.org/1999/xlink">
<g id="graph0" class="graph" transform="scale(1 1) rotate(0) translate(4 348)">
<title>/travis/libpairinteraction/MatrixElements.h</title>
<!-- Node0 -->
<g id="node1" class="node"><title>Node0</title>
<polygon fill="#bfbfbf" stroke="black" points="905,-313.5 905,-343.5 1033,-343.5 1033,-313.5 905,-313.5"/>
<text text-anchor="start" x="913" y="-331.5" font-family="Helvetica,sans-Serif" font-size="10.00">/travis/libpairinteraction</text>
<text text-anchor="middle" x="969" y="-320.5" font-family="Helvetica,sans-Serif" font-size="10.00">/MatrixElements.h</text>
</g>
<!-- Node1 -->
<g id="node2" class="node"><title>Node1</title>
<g id="a_node2"><a xlink:href="Basisnames_8h.html" target="_top" xlink:title="Basisnames.h">
<polygon fill="none" stroke="black" points="550,-252 550,-271 634,-271 634,-252 550,-252"/>
<text text-anchor="middle" x="592" y="-259" font-family="Helvetica,sans-Serif" font-size="10.00">Basisnames.h</text>
</a>
</g>
</g>
<!-- Node0&#45;&gt;Node1 -->
<g id="edge1" class="edge"><title>Node0&#45;&gt;Node1</title>
<path fill="none" stroke="midnightblue" d="M904.62,-316.4C831.107,-303.725 712.256,-283.234 644.239,-271.507"/>
<polygon fill="midnightblue" stroke="midnightblue" points="644.628,-268.022 634.179,-269.772 643.439,-274.92 644.628,-268.022"/>
</g>
<!-- Node4 -->
<g id="node5" class="node"><title>Node4</title>
<polygon fill="none" stroke="#bfbfbf" points="197,-62 197,-81 253,-81 253,-62 197,-62"/>
<text text-anchor="middle" x="225" y="-69" font-family="Helvetica,sans-Serif" font-size="10.00">sstream</text>
</g>
<!-- Node0&#45;&gt;Node4 -->
<g id="edge65" class="edge"><title>Node0&#45;&gt;Node4</title>
<path fill="none" stroke="midnightblue" d="M904.974,-328.015C769.955,-328.159 460.845,-323.248 368,-277 289.877,-238.085 246.152,-133.77 231.068,-91.0904"/>
<polygon fill="midnightblue" stroke="midnightblue" points="234.314,-89.7664 227.776,-81.4297 227.689,-92.0242 234.314,-89.7664"/>
</g>
<!-- Node5 -->
<g id="node6" class="node"><title>Node5</title>
<polygon fill="none" stroke="#bfbfbf" points="355,-62 355,-81 399,-81 399,-62 355,-62"/>
<text text-anchor="middle" x="377" y="-69" font-family="Helvetica,sans-Serif" font-size="10.00">string</text>
</g>
<!-- Node0&#45;&gt;Node5 -->
<g id="edge66" class="edge"><title>Node0&#45;&gt;Node5</title>
<path fill="none" stroke="midnightblue" d="M904.863,-326.45C754.953,-322.44 389.071,-303.116 320,-210 291.259,-171.254 334.749,-115.896 360.406,-88.7597"/>
<polygon fill="midnightblue" stroke="midnightblue" points="363.214,-90.8938 367.697,-81.2938 358.206,-86.0032 363.214,-90.8938"/>
</g>
<!-- Node9 -->
<g id="node10" class="node"><title>Node9</title>
<g id="a_node10"><a xlink:href="dtypes_8h.html" target="_top" xlink:title="dtypes.h">
<polygon fill="none" stroke="black" points="921,-129 921,-148 979,-148 979,-129 921,-129"/>
<text text-anchor="middle" x="950" y="-136" font-family="Helvetica,sans-Serif" font-size="10.00">dtypes.h</text>
</a>
</g>
</g>
<!-- Node0&#45;&gt;Node9 -->
<g id="edge62" class="edge"><title>Node0&#45;&gt;Node9</title>
<path fill="none" stroke="midnightblue" d="M963.259,-313.184C959.563,-303.217 955.076,-289.521 953,-277 946.059,-235.141 947.309,-185.141 948.722,-158.472"/>
<polygon fill="midnightblue" stroke="midnightblue" points="952.229,-158.459 949.335,-148.267 945.242,-158.039 952.229,-158.459"/>
</g>
<!-- Node21 -->
<g id="node22" class="node"><title>Node21</title>
<polygon fill="none" stroke="#bfbfbf" points="1590.5,-62 1590.5,-81 1647.5,-81 1647.5,-62 1590.5,-62"/>
<text text-anchor="middle" x="1619" y="-69" font-family="Helvetica,sans-Serif" font-size="10.00">memory</text>
</g>
<!-- Node0&#45;&gt;Node21 -->
<g id="edge64" class="edge"><title>Node0&#45;&gt;Node21</title>
<path fill="none" stroke="midnightblue" d="M1033.39,-319.417C1143.36,-303.176 1371.06,-258.754 1532,-154 1560.62,-135.371 1588.49,-106.899 1604.69,-89.0115"/>
<polygon fill="midnightblue" stroke="midnightblue" points="1607.63,-90.9707 1611.65,-81.1699 1602.39,-86.322 1607.63,-90.9707"/>
</g>
<!-- Node24 -->
<g id="node25" class="node"><title>Node24</title>
<g id="a_node25"><a xlink:href="Wavefunction_8h.html" target="_top" xlink:title="Wavefunction.h">
<polygon fill="none" stroke="black" points="962.5,-252 962.5,-271 1051.5,-271 1051.5,-252 962.5,-252"/>
<text text-anchor="middle" x="1007" y="-259" font-family="Helvetica,sans-Serif" font-size="10.00">Wavefunction.h</text>
</a>
</g>
</g>
<!-- Node0&#45;&gt;Node24 -->
<g id="edge30" class="edge"><title>Node0&#45;&gt;Node24</title>
<path fill="none" stroke="midnightblue" d="M977.245,-313.396C982.994,-303.562 990.702,-290.378 996.832,-279.892"/>
<polygon fill="midnightblue" stroke="midnightblue" points="999.892,-281.594 1001.92,-271.195 993.848,-278.061 999.892,-281.594"/>
</g>
<!-- Node28 -->
<g id="node29" class="node"><title>Node28</title>
<polygon fill="none" stroke="#bfbfbf" points="1855.5,-62 1855.5,-81 1948.5,-81 1948.5,-62 1855.5,-62"/>
<text text-anchor="middle" x="1902" y="-69" font-family="Helvetica,sans-Serif" font-size="10.00">unordered_map</text>
</g>
<!-- Node0&#45;&gt;Node28 -->
<g id="edge67" class="edge"><title>Node0&#45;&gt;Node28</title>
<path fill="none" stroke="midnightblue" d="M1033.24,-321.262C1171.26,-306.203 1504.44,-260.904 1762,-154 1806.85,-135.386 1854.88,-104.812 1881.4,-86.8748"/>
<polygon fill="midnightblue" stroke="midnightblue" points="1883.57,-89.6327 1889.85,-81.0975 1879.62,-83.8553 1883.57,-89.6327"/>
</g>
<!-- Node42 -->
<g id="node43" class="node"><title>Node42</title>
<polygon fill="none" stroke="#bfbfbf" points="1811.5,-246.5 1811.5,-276.5 2008.5,-276.5 2008.5,-246.5 1811.5,-246.5"/>
<text text-anchor="start" x="1819.5" y="-264.5" font-family="Helvetica,sans-Serif" font-size="10.00">wignerSymbols/include</text>
<text text-anchor="middle" x="1910" y="-253.5" font-family="Helvetica,sans-Serif" font-size="10.00">/wignerSymbols/wignerSymbols&#45;cpp.h</text>
</g>
<!-- Node0&#45;&gt;Node42 -->
<g id="edge63" class="edge"><title>Node0&#45;&gt;Node42</title>
<path fill="none" stroke="midnightblue" d="M1033,-325.053C1172.19,-319.411 1512.75,-303.875 1797,-277 1798.48,-276.86 1799.96,-276.716 1801.46,-276.569"/>
<polygon fill="midnightblue" stroke="midnightblue" points="1801.85,-280.047 1811.44,-275.541 1801.13,-273.084 1801.85,-280.047"/>
</g>
<!-- Node2 -->
<g id="node3" class="node"><title>Node2</title>
<g id="a_node3"><a xlink:href="ConfParser_8h.html" target="_top" xlink:title="ConfParser.h">
<polygon fill="none" stroke="black" points="119.5,-129 119.5,-148 196.5,-148 196.5,-129 119.5,-129"/>
<text text-anchor="middle" x="158" y="-136" font-family="Helvetica,sans-Serif" font-size="10.00">ConfParser.h</text>
</a>
</g>
</g>
<!-- Node1&#45;&gt;Node2 -->
<g id="edge2" class="edge"><title>Node1&#45;&gt;Node2</title>
<path fill="none" stroke="midnightblue" d="M549.82,-255.686C495.737,-248.831 399.452,-234.318 320,-210 270.029,-194.705 214.818,-168.542 183.475,-152.752"/>
<polygon fill="midnightblue" stroke="midnightblue" points="185.047,-149.624 174.547,-148.208 181.872,-155.863 185.047,-149.624"/>
</g>
<!-- Node1&#45;&gt;Node5 -->
<g id="edge27" class="edge"><title>Node1&#45;&gt;Node5</title>
<path fill="none" stroke="midnightblue" d="M549.868,-254.473C513.045,-247.81 459.182,-234.598 418,-210 388.051,-192.111 376.205,-186.29 363,-154 354.54,-133.312 361.548,-107.644 368.339,-90.7047"/>
<polygon fill="midnightblue" stroke="midnightblue" points="371.604,-91.9732 372.399,-81.4083 365.189,-89.1715 371.604,-91.9732"/>
</g>
<!-- Node7 -->
<g id="node8" class="node"><title>Node7</title>
<g id="a_node8"><a xlink:href="Iter_8h.html" target="_top" xlink:title="Iter.h">
<polygon fill="none" stroke="black" points="329.5,-190.5 329.5,-209.5 370.5,-209.5 370.5,-190.5 329.5,-190.5"/>
<text text-anchor="middle" x="350" y="-197.5" font-family="Helvetica,sans-Serif" font-size="10.00">Iter.h</text>
</a>
</g>
</g>
<!-- Node1&#45;&gt;Node7 -->
<g id="edge7" class="edge"><title>Node1&#45;&gt;Node7</title>
<path fill="none" stroke="midnightblue" d="M556.437,-251.966C515.173,-242.031 445.103,-225.058 385,-210 383.555,-209.638 382.076,-209.265 380.583,-208.888"/>
<polygon fill="midnightblue" stroke="midnightblue" points="381.272,-205.452 370.717,-206.373 379.543,-212.235 381.272,-205.452"/>
</g>
<!-- Node8 -->
<g id="node9" class="node"><title>Node8</title>
<g id="a_node9"><a xlink:href="State_8h.html" target="_top" xlink:title="State.h">
<polygon fill="none" stroke="black" points="751,-190.5 751,-209.5 803,-209.5 803,-190.5 751,-190.5"/>
<text text-anchor="middle" x="777" y="-197.5" font-family="Helvetica,sans-Serif" font-size="10.00">State.h</text>
</a>
</g>
</g>
<!-- Node1&#45;&gt;Node8 -->
<g id="edge8" class="edge"><title>Node1&#45;&gt;Node8</title>
<path fill="none" stroke="midnightblue" d="M618.506,-251.975C650.744,-241.607 705.296,-224.062 741.233,-212.503"/>
<polygon fill="midnightblue" stroke="midnightblue" points="742.394,-215.807 750.842,-209.413 740.251,-209.143 742.394,-215.807"/>
</g>
<!-- Node1&#45;&gt;Node9 -->
<g id="edge23" class="edge"><title>Node1&#45;&gt;Node9</title>
<path fill="none" stroke="midnightblue" d="M634.242,-253.996C679.197,-246.342 751.974,-231.841 812,-210 854.517,-194.53 900.727,-168.961 927.429,-153.238"/>
<polygon fill="midnightblue" stroke="midnightblue" points="929.222,-156.244 936.023,-148.119 925.64,-150.229 929.222,-156.244"/>
</g>
<!-- Node14 -->
<g id="node15" class="node"><title>Node14</title>
<polygon fill="none" stroke="#bfbfbf" points="968.5,-62 968.5,-81 1015.5,-81 1015.5,-62 968.5,-62"/>
<text text-anchor="middle" x="992" y="-69" font-family="Helvetica,sans-Serif" font-size="10.00">vector</text>
</g>
<!-- Node1&#45;&gt;Node14 -->
<g id="edge29" class="edge"><title>Node1&#45;&gt;Node14</title>
<path fill="none" stroke="midnightblue" d="M634.272,-255.804C727.665,-244.439 946.602,-212.029 988,-154 1001.02,-135.75 999.471,-108.92 996.391,-91.0909"/>
<polygon fill="midnightblue" stroke="midnightblue" points="999.776,-90.175 994.337,-81.0827 992.918,-91.5822 999.776,-90.175"/>
</g>
<!-- Node20 -->
<g id="node21" class="node"><title>Node20</title>
<polygon fill="none" stroke="#bfbfbf" points="427,-190.5 427,-209.5 481,-209.5 481,-190.5 427,-190.5"/>
<text text-anchor="middle" x="454" y="-197.5" font-family="Helvetica,sans-Serif" font-size="10.00">fstream</text>
</g>
<!-- Node1&#45;&gt;Node20 -->
<g id="edge24" class="edge"><title>Node1&#45;&gt;Node20</title>
<path fill="none" stroke="midnightblue" d="M572.228,-251.975C548.864,-241.901 509.786,-225.053 482.997,-213.502"/>
<polygon fill="midnightblue" stroke="midnightblue" points="484.304,-210.254 473.735,-209.509 481.532,-216.682 484.304,-210.254"/>
</g>
<!-- Node1&#45;&gt;Node21 -->
<g id="edge25" class="edge"><title>Node1&#45;&gt;Node21</title>
<path fill="none" stroke="midnightblue" d="M634.032,-258.754C784.098,-252.379 1288.26,-229.703 1358,-210 1454.89,-182.627 1556.87,-116.218 1599,-86.862"/>
<polygon fill="midnightblue" stroke="midnightblue" points="1601.12,-89.649 1607.28,-81.0286 1597.09,-83.9263 1601.12,-89.649"/>
</g>
<!-- Node22 -->
<g id="node23" class="node"><title>Node22</title>
<polygon fill="none" stroke="#bfbfbf" points="499,-190.5 499,-209.5 531,-209.5 531,-190.5 499,-190.5"/>
<text text-anchor="middle" x="515" y="-197.5" font-family="Helvetica,sans-Serif" font-size="10.00">set</text>
</g>
<!-- Node1&#45;&gt;Node22 -->
<g id="edge26" class="edge"><title>Node1&#45;&gt;Node22</title>
<path fill="none" stroke="midnightblue" d="M580.968,-251.975C568.732,-242.52 548.771,-227.096 534.007,-215.687"/>
<polygon fill="midnightblue" stroke="midnightblue" points="536.065,-212.854 526.012,-209.509 531.785,-218.393 536.065,-212.854"/>
</g>
<!-- Node23 -->
<g id="node24" class="node"><title>Node23</title>
<polygon fill="none" stroke="#bfbfbf" points="549,-190.5 549,-209.5 635,-209.5 635,-190.5 549,-190.5"/>
<text text-anchor="middle" x="592" y="-197.5" font-family="Helvetica,sans-Serif" font-size="10.00">unordered_set</text>
</g>
<!-- Node1&#45;&gt;Node23 -->
<g id="edge28" class="edge"><title>Node1&#45;&gt;Node23</title>
<path fill="none" stroke="midnightblue" d="M592,-251.975C592,-243.58 592,-230.481 592,-219.663"/>
<polygon fill="midnightblue" stroke="midnightblue" points="595.5,-219.509 592,-209.509 588.5,-219.509 595.5,-219.509"/>
</g>
<!-- Node3 -->
<g id="node4" class="node"><title>Node3</title>
<polygon fill="none" stroke="#bfbfbf" points="140,-62 140,-81 178,-81 178,-62 140,-62"/>
<text text-anchor="middle" x="159" y="-69" font-family="Helvetica,sans-Serif" font-size="10.00">map</text>
</g>
<!-- Node2&#45;&gt;Node3 -->
<g id="edge3" class="edge"><title>Node2&#45;&gt;Node3</title>
<path fill="none" stroke="midnightblue" d="M158.135,-128.734C158.282,-119.183 158.521,-103.618 158.711,-91.2829"/>
<polygon fill="midnightblue" stroke="midnightblue" points="162.213,-91.18 158.867,-81.1273 155.214,-91.0722 162.213,-91.18"/>
</g>
<!-- Node2&#45;&gt;Node4 -->
<g id="edge4" class="edge"><title>Node2&#45;&gt;Node4</title>
<path fill="none" stroke="midnightblue" d="M167.036,-128.734C177.685,-118.403 195.585,-101.037 208.681,-88.3315"/>
<polygon fill="midnightblue" stroke="midnightblue" points="211.367,-90.6026 216.107,-81.1273 206.493,-85.5784 211.367,-90.6026"/>
</g>
<!-- Node2&#45;&gt;Node5 -->
<g id="edge5" class="edge"><title>Node2&#45;&gt;Node5</title>
<path fill="none" stroke="midnightblue" d="M187.082,-128.869C228.035,-116.713 302.436,-94.6309 344.943,-82.0148"/>
<polygon fill="midnightblue" stroke="midnightblue" points="346.179,-85.2988 354.77,-79.098 344.187,-78.5881 346.179,-85.2988"/>
</g>
<!-- Node6 -->
<g id="node7" class="node"><title>Node6</title>
<polygon fill="none" stroke="#bfbfbf" points="0,-62 0,-81 122,-81 122,-62 0,-62"/>
<text text-anchor="middle" x="61" y="-69" font-family="Helvetica,sans-Serif" font-size="10.00">boost/lexical_cast.hpp</text>
</g>
<!-- Node2&#45;&gt;Node6 -->
<g id="edge6" class="edge"><title>Node2&#45;&gt;Node6</title>
<path fill="none" stroke="midnightblue" d="M144.918,-128.734C128.847,-117.964 101.367,-99.55 82.2497,-86.7395"/>
<polygon fill="midnightblue" stroke="midnightblue" points="84.1303,-83.7865 73.8746,-81.1273 80.2335,-89.6017 84.1303,-83.7865"/>
</g>
<!-- Node8&#45;&gt;Node5 -->
<g id="edge19" class="edge"><title>Node8&#45;&gt;Node5</title>
<path fill="none" stroke="midnightblue" d="M750.741,-196.14C672.837,-187.579 447.574,-162.238 434,-154 409.714,-139.261 393.1,-109.803 384.329,-90.6337"/>
<polygon fill="midnightblue" stroke="midnightblue" points="387.436,-88.9996 380.264,-81.2015 381.008,-91.7702 387.436,-88.9996"/>
</g>
<!-- Node8&#45;&gt;Node9 -->
<g id="edge9" class="edge"><title>Node8&#45;&gt;Node9</title>
<path fill="none" stroke="midnightblue" d="M801.787,-190.475C831.591,-180.225 881.791,-162.959 915.402,-151.399"/>
<polygon fill="midnightblue" stroke="midnightblue" points="916.941,-154.571 925.259,-148.009 914.665,-147.952 916.941,-154.571"/>
</g>
<!-- Node12 -->
<g id="node13" class="node"><title>Node12</title>
<polygon fill="none" stroke="#bfbfbf" points="715.5,-62 715.5,-81 756.5,-81 756.5,-62 715.5,-62"/>
<text text-anchor="middle" x="736" y="-69" font-family="Helvetica,sans-Serif" font-size="10.00">array</text>
</g>
<!-- Node8&#45;&gt;Node12 -->
<g id="edge15" class="edge"><title>Node8&#45;&gt;Node12</title>
<path fill="none" stroke="midnightblue" d="M793.633,-190.464C806.488,-182.841 823.339,-170.356 831,-154 836.844,-141.523 838.097,-134.809 831,-123 829.01,-119.688 789.894,-99.555 762.483,-85.7324"/>
<polygon fill="midnightblue" stroke="midnightblue" points="763.862,-82.5085 753.355,-81.1443 760.718,-88.7628 763.862,-82.5085"/>
</g>
<!-- Node13 -->
<g id="node14" class="node"><title>Node13</title>
<polygon fill="none" stroke="#bfbfbf" points="650.5,-62 650.5,-81 697.5,-81 697.5,-62 650.5,-62"/>
<text text-anchor="middle" x="674" y="-69" font-family="Helvetica,sans-Serif" font-size="10.00">cmath</text>
</g>
<!-- Node8&#45;&gt;Node13 -->
<g id="edge17" class="edge"><title>Node8&#45;&gt;Node13</title>
<path fill="none" stroke="midnightblue" d="M783.729,-190.261C794.382,-175.28 812.508,-144.256 798,-123 773.247,-86.7341 746.455,-104.067 706,-87 704.63,-86.4221 703.231,-85.8228 701.821,-85.2115"/>
<polygon fill="midnightblue" stroke="midnightblue" points="703.101,-81.9507 692.541,-81.0999 700.266,-88.3507 703.101,-81.9507"/>
</g>
<!-- Node15 -->
<g id="node16" class="node"><title>Node15</title>
<polygon fill="none" stroke="#bfbfbf" points="1111,-129 1111,-148 1251,-148 1251,-129 1111,-129"/>
<text text-anchor="middle" x="1181" y="-136" font-family="Helvetica,sans-Serif" font-size="10.00">boost/functional/hash.hpp</text>
</g>
<!-- Node8&#45;&gt;Node15 -->
<g id="edge16" class="edge"><title>Node8&#45;&gt;Node15</title>
<path fill="none" stroke="midnightblue" d="M803.173,-195.601C857.836,-188.44 988.086,-171.054 1097,-154 1105.41,-152.684 1114.28,-151.227 1122.97,-149.76"/>
<polygon fill="midnightblue" stroke="midnightblue" points="1123.8,-153.17 1133.07,-148.04 1122.62,-146.269 1123.8,-153.17"/>
</g>
<!-- Node16 -->
<g id="node17" class="node"><title>Node16</title>
<polygon fill="none" stroke="#bfbfbf" points="1033.5,-62 1033.5,-81 1092.5,-81 1092.5,-62 1033.5,-62"/>
<text text-anchor="middle" x="1063" y="-69" font-family="Helvetica,sans-Serif" font-size="10.00">iostream</text>
</g>
<!-- Node8&#45;&gt;Node16 -->
<g id="edge18" class="edge"><title>Node8&#45;&gt;Node16</title>
<path fill="none" stroke="midnightblue" d="M803.138,-198.445C844.876,-196.504 927.978,-188.248 988,-154 1015.86,-138.103 1039.26,-108.318 1052.18,-89.4939"/>
<polygon fill="midnightblue" stroke="midnightblue" points="1055.19,-91.2805 1057.8,-81.0117 1049.36,-87.4129 1055.19,-91.2805"/>
</g>
<!-- Node17 -->
<g id="node18" class="node"><title>Node17</title>
<polygon fill="none" stroke="#bfbfbf" points="563,-123.5 563,-153.5 667,-153.5 667,-123.5 563,-123.5"/>
<text text-anchor="start" x="571" y="-141.5" font-family="Helvetica,sans-Serif" font-size="10.00">boost/serialization</text>
<text text-anchor="middle" x="615" y="-130.5" font-family="Helvetica,sans-Serif" font-size="10.00">/array.hpp</text>
</g>
<!-- Node8&#45;&gt;Node17 -->
<g id="edge20" class="edge"><title>Node8&#45;&gt;Node17</title>
<path fill="none" stroke="midnightblue" d="M753.789,-190.475C730.106,-181.776 692.669,-168.026 662.642,-156.998"/>
<polygon fill="midnightblue" stroke="midnightblue" points="663.774,-153.685 653.18,-153.523 661.36,-160.256 663.774,-153.685"/>
</g>
<!-- Node18 -->
<g id="node19" class="node"><title>Node18</title>
<polygon fill="none" stroke="#bfbfbf" points="685,-123.5 685,-153.5 789,-153.5 789,-123.5 685,-123.5"/>
<text text-anchor="start" x="693" y="-141.5" font-family="Helvetica,sans-Serif" font-size="10.00">boost/serialization</text>
<text text-anchor="middle" x="737" y="-130.5" font-family="Helvetica,sans-Serif" font-size="10.00">/string.hpp</text>
</g>
<!-- Node8&#45;&gt;Node18 -->
<g id="edge21" class="edge"><title>Node8&#45;&gt;Node18</title>
<path fill="none" stroke="midnightblue" d="M771.269,-190.475C766.257,-183.019 758.749,-171.852 752.038,-161.869"/>
<polygon fill="midnightblue" stroke="midnightblue" points="754.911,-159.869 746.427,-153.523 749.102,-163.775 754.911,-159.869"/>
</g>
<!-- Node19 -->
<g id="node20" class="node"><title>Node19</title>
<polygon fill="none" stroke="#bfbfbf" points="443.5,-129 443.5,-148 544.5,-148 544.5,-129 443.5,-129"/>
<text text-anchor="middle" x="494" y="-136" font-family="Helvetica,sans-Serif" font-size="10.00">boost/variant.hpp</text>
</g>
<!-- Node8&#45;&gt;Node19 -->
<g id="edge22" class="edge"><title>Node8&#45;&gt;Node19</title>
<path fill="none" stroke="midnightblue" d="M750.84,-194.055C709.112,-186.093 624.95,-169.726 554,-154 548.899,-152.869 543.566,-151.644 538.273,-150.4"/>
<polygon fill="midnightblue" stroke="midnightblue" points="538.754,-146.917 528.215,-148.006 537.133,-153.727 538.754,-146.917"/>
</g>
<!-- Node10 -->
<g id="node11" class="node"><title>Node10</title>
<polygon fill="none" stroke="#bfbfbf" points="774.5,-62 774.5,-81 851.5,-81 851.5,-62 774.5,-62"/>
<text text-anchor="middle" x="813" y="-69" font-family="Helvetica,sans-Serif" font-size="10.00">Eigen/Dense</text>
</g>
<!-- Node9&#45;&gt;Node10 -->
<g id="edge10" class="edge"><title>Node9&#45;&gt;Node10</title>
<path fill="none" stroke="midnightblue" d="M931.807,-128.869C908.47,-117.796 867.771,-98.4862 840.606,-85.5978"/>
<polygon fill="midnightblue" stroke="midnightblue" points="841.803,-82.2916 831.268,-81.1672 838.802,-88.6159 841.803,-82.2916"/>
</g>
<!-- Node11 -->
<g id="node12" class="node"><title>Node11</title>
<polygon fill="none" stroke="#bfbfbf" points="870,-62 870,-81 950,-81 950,-62 870,-62"/>
<text text-anchor="middle" x="910" y="-69" font-family="Helvetica,sans-Serif" font-size="10.00">Eigen/Sparse</text>
</g>
<!-- Node9&#45;&gt;Node11 -->
<g id="edge11" class="edge"><title>Node9&#45;&gt;Node11</title>
<path fill="none" stroke="midnightblue" d="M944.605,-128.734C938.488,-118.793 928.362,-102.338 920.64,-89.7892"/>
<polygon fill="midnightblue" stroke="midnightblue" points="923.531,-87.8095 915.309,-81.1273 917.569,-91.4783 923.531,-87.8095"/>
</g>
<!-- Node9&#45;&gt;Node12 -->
<g id="edge12" class="edge"><title>Node9&#45;&gt;Node12</title>
<path fill="none" stroke="midnightblue" d="M925.545,-128.891C919.511,-126.867 913.045,-124.783 907,-123 844.551,-104.584 826.026,-109.69 765,-87 763.615,-86.4851 762.209,-85.9233 760.801,-85.3296"/>
<polygon fill="midnightblue" stroke="midnightblue" points="762.226,-82.1322 751.68,-81.1095 759.286,-88.4851 762.226,-82.1322"/>
</g>
<!-- Node9&#45;&gt;Node13 -->
<g id="edge13" class="edge"><title>Node9&#45;&gt;Node13</title>
<path fill="none" stroke="midnightblue" d="M926.531,-128.887C920.243,-126.772 913.41,-124.645 907,-123 819.094,-100.439 792.665,-113.936 706,-87 704.122,-86.4162 702.209,-85.7494 700.3,-85.0297"/>
<polygon fill="midnightblue" stroke="midnightblue" points="701.542,-81.7557 690.966,-81.1307 698.844,-88.2148 701.542,-81.7557"/>
</g>
<!-- Node9&#45;&gt;Node14 -->
<g id="edge14" class="edge"><title>Node9&#45;&gt;Node14</title>
<path fill="none" stroke="midnightblue" d="M955.664,-128.734C962.088,-118.793 972.72,-102.338 980.829,-89.7892"/>
<polygon fill="midnightblue" stroke="midnightblue" points="983.938,-91.426 986.425,-81.1273 978.059,-87.627 983.938,-91.426"/>
</g>
<!-- Node24&#45;&gt;Node5 -->
<g id="edge60" class="edge"><title>Node24&#45;&gt;Node5</title>
<path fill="none" stroke="midnightblue" d="M962.422,-252.188C909.733,-242.321 819.424,-225.277 742,-210 698.388,-201.395 687.783,-197.692 644,-190 590.017,-180.517 441.166,-190.186 400,-154 382.176,-138.332 377.685,-110.021 376.8,-91.2394"/>
<polygon fill="midnightblue" stroke="midnightblue" points="380.299,-91.1493 376.624,-81.2121 373.3,-91.2718 380.299,-91.1493"/>
</g>
<!-- Node24&#45;&gt;Node9 -->
<g id="edge59" class="edge"><title>Node24&#45;&gt;Node9</title>
<path fill="none" stroke="midnightblue" d="M1002.9,-251.798C993.616,-232.089 970.827,-183.711 958.405,-157.342"/>
<polygon fill="midnightblue" stroke="midnightblue" points="961.49,-155.678 954.062,-148.123 955.158,-158.661 961.49,-155.678"/>
</g>
<!-- Node24&#45;&gt;Node14 -->
<g id="edge61" class="edge"><title>Node24&#45;&gt;Node14</title>
<path fill="none" stroke="midnightblue" d="M1009.95,-251.962C1017.07,-230.109 1033.68,-170.528 1021,-123 1017.8,-110.985 1010.98,-98.8572 1004.75,-89.4993"/>
<polygon fill="midnightblue" stroke="midnightblue" points="1007.51,-87.3315 998.889,-81.1713 1001.79,-91.3624 1007.51,-87.3315"/>
</g>
<!-- Node25 -->
<g id="node26" class="node"><title>Node25</title>
<g id="a_node26"><a xlink:href="QuantumDefect_8h.html" target="_top" xlink:title="QuantumDefect.h">
<polygon fill="none" stroke="black" points="1247,-190.5 1247,-209.5 1349,-209.5 1349,-190.5 1247,-190.5"/>
<text text-anchor="middle" x="1298" y="-197.5" font-family="Helvetica,sans-Serif" font-size="10.00">QuantumDefect.h</text>
</a>
</g>
</g>
<!-- Node24&#45;&gt;Node25 -->
<g id="edge31" class="edge"><title>Node24&#45;&gt;Node25</title>
<path fill="none" stroke="midnightblue" d="M1048.69,-251.975C1100.77,-241.327 1189.87,-223.109 1246.25,-211.581"/>
<polygon fill="midnightblue" stroke="midnightblue" points="1247.29,-214.941 1256.38,-209.509 1245.89,-208.083 1247.29,-214.941"/>
</g>
<!-- Node25&#45;&gt;Node5 -->
<g id="edge55" class="edge"><title>Node25&#45;&gt;Node5</title>
<path fill="none" stroke="midnightblue" d="M1246.74,-195.475C1172.44,-189.813 1030.74,-176.933 912,-154 860.446,-144.043 849.537,-133.042 798,-123 654.36,-95.0107 479.934,-80.0387 409.153,-74.7451"/>
<polygon fill="midnightblue" stroke="midnightblue" points="409.32,-71.248 399.09,-74.006 408.807,-78.2292 409.32,-71.248"/>
</g>
<!-- Node25&#45;&gt;Node9 -->
<g id="edge53" class="edge"><title>Node25&#45;&gt;Node9</title>
<path fill="none" stroke="midnightblue" d="M1248.14,-190.475C1178.35,-178.543 1052.97,-157.106 989.346,-146.227"/>
<polygon fill="midnightblue" stroke="midnightblue" points="989.761,-142.748 979.314,-144.512 988.581,-149.647 989.761,-142.748"/>
</g>
<!-- Node25&#45;&gt;Node15 -->
<g id="edge58" class="edge"><title>Node25&#45;&gt;Node15</title>
<path fill="none" stroke="midnightblue" d="M1281.24,-190.475C1261.78,-180.578 1229.45,-164.142 1206.79,-152.615"/>
<polygon fill="midnightblue" stroke="midnightblue" points="1208.23,-149.422 1197.73,-148.009 1205.06,-155.662 1208.23,-149.422"/>
</g>
<!-- Node26 -->
<g id="node27" class="node"><title>Node26</title>
<g id="a_node27"><a xlink:href="Cache_8h.html" target="_top" xlink:title="Cache.h">
<polygon fill="none" stroke="black" points="1661,-129 1661,-148 1717,-148 1717,-129 1661,-129"/>
<text text-anchor="middle" x="1689" y="-136" font-family="Helvetica,sans-Serif" font-size="10.00">Cache.h</text>
</a>
</g>
</g>
<!-- Node25&#45;&gt;Node26 -->
<g id="edge32" class="edge"><title>Node25&#45;&gt;Node26</title>
<path fill="none" stroke="midnightblue" d="M1349.12,-191.221C1428.47,-179.147 1579.51,-156.161 1650.42,-145.371"/>
<polygon fill="midnightblue" stroke="midnightblue" points="1651.33,-148.773 1660.69,-143.808 1650.28,-141.853 1651.33,-148.773"/>
</g>
<!-- Node27 -->
<g id="node28" class="node"><title>Node27</title>
<polygon fill="none" stroke="#bfbfbf" points="1665.5,-62 1665.5,-81 1712.5,-81 1712.5,-62 1665.5,-62"/>
<text text-anchor="middle" x="1689" y="-69" font-family="Helvetica,sans-Serif" font-size="10.00">mutex</text>
</g>
<!-- Node25&#45;&gt;Node27 -->
<g id="edge54" class="edge"><title>Node25&#45;&gt;Node27</title>
<path fill="none" stroke="midnightblue" d="M1329.52,-190.411C1392.36,-173.011 1537.39,-131.455 1656,-87 1657.61,-86.396 1659.26,-85.7545 1660.91,-85.0904"/>
<polygon fill="midnightblue" stroke="midnightblue" points="1662.44,-88.246 1670.3,-81.1456 1659.73,-81.7925 1662.44,-88.246"/>
</g>
<!-- Node25&#45;&gt;Node28 -->
<g id="edge57" class="edge"><title>Node25&#45;&gt;Node28</title>
<path fill="none" stroke="midnightblue" d="M1349.24,-196.909C1447.41,-192.363 1658.29,-179.849 1726,-154 1748.01,-145.597 1748.25,-134.166 1769,-123 1799.41,-106.632 1836.28,-93.0785 1863.48,-84.1481"/>
<polygon fill="midnightblue" stroke="midnightblue" points="1864.59,-87.4682 1873.03,-81.0704 1862.44,-80.8054 1864.59,-87.4682"/>
</g>
<!-- Node30 -->
<g id="node31" class="node"><title>Node30</title>
<g id="a_node31"><a xlink:href="SQLite_8h.html" target="_top" xlink:title="SQLite.h">
<polygon fill="none" stroke="black" points="1269.5,-129 1269.5,-148 1326.5,-148 1326.5,-129 1269.5,-129"/>
<text text-anchor="middle" x="1298" y="-136" font-family="Helvetica,sans-Serif" font-size="10.00">SQLite.h</text>
</a>
</g>
</g>
<!-- Node25&#45;&gt;Node30 -->
<g id="edge36" class="edge"><title>Node25&#45;&gt;Node30</title>
<path fill="none" stroke="midnightblue" d="M1298,-190.475C1298,-182.08 1298,-168.981 1298,-158.163"/>
<polygon fill="midnightblue" stroke="midnightblue" points="1301.5,-158.009 1298,-148.009 1294.5,-158.009 1301.5,-158.009"/>
</g>
<!-- Node41 -->
<g id="node42" class="node"><title>Node41</title>
<polygon fill="none" stroke="#bfbfbf" points="1344.5,-129 1344.5,-148 1385.5,-148 1385.5,-129 1344.5,-129"/>
<text text-anchor="middle" x="1365" y="-136" font-family="Helvetica,sans-Serif" font-size="10.00">tuple</text>
</g>
<!-- Node25&#45;&gt;Node41 -->
<g id="edge56" class="edge"><title>Node25&#45;&gt;Node41</title>
<path fill="none" stroke="midnightblue" d="M1307.6,-190.475C1318.05,-181.197 1334.97,-166.171 1347.74,-154.831"/>
<polygon fill="midnightblue" stroke="midnightblue" points="1350.27,-157.266 1355.42,-148.009 1345.62,-152.032 1350.27,-157.266"/>
</g>
<!-- Node26&#45;&gt;Node27 -->
<g id="edge33" class="edge"><title>Node26&#45;&gt;Node27</title>
<path fill="none" stroke="midnightblue" d="M1689,-128.734C1689,-119.183 1689,-103.618 1689,-91.2829"/>
<polygon fill="midnightblue" stroke="midnightblue" points="1692.5,-91.1273 1689,-81.1273 1685.5,-91.1273 1692.5,-91.1273"/>
</g>
<!-- Node26&#45;&gt;Node28 -->
<g id="edge34" class="edge"><title>Node26&#45;&gt;Node28</title>
<path fill="none" stroke="midnightblue" d="M1713.37,-128.878C1719.13,-126.897 1725.27,-124.834 1731,-123 1775.54,-108.742 1827.07,-93.7238 1861.82,-83.809"/>
<polygon fill="midnightblue" stroke="midnightblue" points="1862.94,-87.13 1871.6,-81.0276 1861.03,-80.3971 1862.94,-87.13"/>
</g>
<!-- Node29 -->
<g id="node30" class="node"><title>Node29</title>
<polygon fill="none" stroke="#bfbfbf" points="1731,-62 1731,-81 1837,-81 1837,-62 1731,-62"/>
<text text-anchor="middle" x="1784" y="-69" font-family="Helvetica,sans-Serif" font-size="10.00">boost/optional.hpp</text>
</g>
<!-- Node26&#45;&gt;Node29 -->
<g id="edge35" class="edge"><title>Node26&#45;&gt;Node29</title>
<path fill="none" stroke="midnightblue" d="M1701.81,-128.734C1717.48,-118.013 1744.22,-99.7165 1762.93,-86.9137"/>
<polygon fill="midnightblue" stroke="midnightblue" points="1765.11,-89.6628 1771.39,-81.1273 1761.16,-83.8856 1765.11,-89.6628"/>
</g>
<!-- Node30&#45;&gt;Node4 -->
<g id="edge40" class="edge"><title>Node30&#45;&gt;Node4</title>
<path fill="none" stroke="midnightblue" d="M1279.03,-128.876C1273.06,-126.542 1266.36,-124.303 1260,-123 1060.86,-82.2291 548.63,-103.106 346,-87 318.258,-84.795 287.08,-81.0279 263.321,-77.8861"/>
<polygon fill="midnightblue" stroke="midnightblue" points="263.673,-74.402 253.296,-76.5394 262.741,-81.3397 263.673,-74.402"/>
</g>
<!-- Node30&#45;&gt;Node5 -->
<g id="edge41" class="edge"><title>Node30&#45;&gt;Node5</title>
<path fill="none" stroke="midnightblue" d="M1279.02,-128.946C1273.05,-126.615 1266.35,-124.359 1260,-123 1249.38,-120.728 567.533,-83.0105 409.468,-74.2896"/>
<polygon fill="midnightblue" stroke="midnightblue" points="409.594,-70.7914 399.416,-73.7352 409.208,-77.7807 409.594,-70.7914"/>
</g>
<!-- Node30&#45;&gt;Node16 -->
<g id="edge37" class="edge"><title>Node30&#45;&gt;Node16</title>
<path fill="none" stroke="midnightblue" d="M1276.87,-128.865C1271.42,-126.797 1265.54,-124.699 1260,-123 1193.22,-102.502 1174.24,-105.95 1107,-87 1103.83,-86.1054 1100.54,-85.1255 1097.26,-84.1105"/>
<polygon fill="midnightblue" stroke="midnightblue" points="1098.14,-80.7182 1087.55,-81.0104 1096.01,-87.3865 1098.14,-80.7182"/>
</g>
<!-- Node30&#45;&gt;Node21 -->
<g id="edge38" class="edge"><title>Node30&#45;&gt;Node21</title>
<path fill="none" stroke="midnightblue" d="M1317.31,-128.974C1322.93,-126.757 1329.13,-124.557 1335,-123 1441.8,-94.6568 1474.07,-114.864 1581,-87 1583.82,-86.2655 1586.72,-85.3912 1589.59,-84.4413"/>
<polygon fill="midnightblue" stroke="midnightblue" points="1590.92,-87.6833 1599.15,-81.0134 1588.56,-81.094 1590.92,-87.6833"/>
</g>
<!-- Node31 -->
<g id="node32" class="node"><title>Node31</title>
<polygon fill="none" stroke="#bfbfbf" points="1147,-0.5 1147,-19.5 1201,-19.5 1201,-0.5 1147,-0.5"/>
<text text-anchor="middle" x="1174" y="-7.5" font-family="Helvetica,sans-Serif" font-size="10.00">random</text>
</g>
<!-- Node30&#45;&gt;Node31 -->
<g id="edge39" class="edge"><title>Node30&#45;&gt;Node31</title>
<path fill="none" stroke="midnightblue" d="M1276.4,-128.943C1271.06,-126.918 1265.35,-124.82 1260,-123 1207.29,-105.063 1173.24,-131.673 1140,-87 1126.19,-68.4342 1142.95,-43.3669 1157.44,-27.1906"/>
<polygon fill="midnightblue" stroke="midnightblue" points="1160.29,-29.2805 1164.64,-19.6233 1155.22,-24.4551 1160.29,-29.2805"/>
</g>
<!-- Node32 -->
<g id="node33" class="node"><title>Node32</title>
<polygon fill="none" stroke="#bfbfbf" points="1149,-62 1149,-81 1197,-81 1197,-62 1149,-62"/>
<text text-anchor="middle" x="1173" y="-69" font-family="Helvetica,sans-Serif" font-size="10.00">thread</text>
</g>
<!-- Node30&#45;&gt;Node32 -->
<g id="edge42" class="edge"><title>Node30&#45;&gt;Node32</title>
<path fill="none" stroke="midnightblue" d="M1281.4,-128.869C1260.29,-117.893 1223.62,-98.8243 1198.84,-85.9385"/>
<polygon fill="midnightblue" stroke="midnightblue" points="1200.15,-82.6755 1189.67,-81.1672 1196.93,-88.886 1200.15,-82.6755"/>
</g>
<!-- Node33 -->
<g id="node34" class="node"><title>Node33</title>
<polygon fill="none" stroke="#bfbfbf" points="1273,-0.5 1273,-19.5 1341,-19.5 1341,-0.5 1273,-0.5"/>
<text text-anchor="middle" x="1307" y="-7.5" font-family="Helvetica,sans-Serif" font-size="10.00">type_traits</text>
</g>
<!-- Node30&#45;&gt;Node33 -->
<g id="edge43" class="edge"><title>Node30&#45;&gt;Node33</title>
<path fill="none" stroke="midnightblue" d="M1283.62,-128.978C1270.52,-120.292 1252.02,-105.486 1244,-87 1238.52,-74.361 1237.7,-68.2508 1244,-56 1251.08,-42.2475 1264.52,-31.7663 1277.18,-24.3942"/>
<polygon fill="midnightblue" stroke="midnightblue" points="1279,-27.3888 1286.15,-19.5733 1275.69,-21.2221 1279,-27.3888"/>
</g>
<!-- Node34 -->
<g id="node35" class="node"><title>Node34</title>
<polygon fill="none" stroke="#bfbfbf" points="1253,-56.5 1253,-86.5 1373,-86.5 1373,-56.5 1253,-56.5"/>
<text text-anchor="start" x="1261" y="-74.5" font-family="Helvetica,sans-Serif" font-size="10.00">boost/iterator/iterator</text>
<text text-anchor="middle" x="1313" y="-63.5" font-family="Helvetica,sans-Serif" font-size="10.00">_facade.hpp</text>
</g>
<!-- Node30&#45;&gt;Node34 -->
<g id="edge44" class="edge"><title>Node30&#45;&gt;Node34</title>
<path fill="none" stroke="midnightblue" d="M1300.02,-128.734C1301.93,-120.456 1304.89,-107.662 1307.49,-96.3674"/>
<polygon fill="midnightblue" stroke="midnightblue" points="1310.91,-97.12 1309.75,-86.589 1304.09,-95.5459 1310.91,-97.12"/>
</g>
<!-- Node35 -->
<g id="node36" class="node"><title>Node35</title>
<polygon fill="none" stroke="#bfbfbf" points="1391.5,-62 1391.5,-81 1448.5,-81 1448.5,-62 1391.5,-62"/>
<text text-anchor="middle" x="1420" y="-69" font-family="Helvetica,sans-Serif" font-size="10.00">sqlite3.h</text>
</g>
<!-- Node30&#45;&gt;Node35 -->
<g id="edge45" class="edge"><title>Node30&#45;&gt;Node35</title>
<path fill="none" stroke="midnightblue" d="M1314.2,-128.869C1334.8,-117.893 1370.59,-98.8243 1394.78,-85.9385"/>
<polygon fill="midnightblue" stroke="midnightblue" points="1396.55,-88.9583 1403.73,-81.1672 1393.26,-82.7804 1396.55,-88.9583"/>
</g>
<!-- Node36 -->
<g id="node37" class="node"><title>Node36</title>
<polygon fill="none" stroke="#bfbfbf" points="1467,-62 1467,-81 1509,-81 1509,-62 1467,-62"/>
<text text-anchor="middle" x="1488" y="-69" font-family="Helvetica,sans-Serif" font-size="10.00">utility</text>
</g>
<!-- Node30&#45;&gt;Node36 -->
<g id="edge46" class="edge"><title>Node30&#45;&gt;Node36</title>
<path fill="none" stroke="midnightblue" d="M1319.01,-128.901C1324.21,-126.877 1329.78,-124.79 1335,-123 1388.48,-104.669 1404.13,-107.033 1457,-87 1458.42,-86.4605 1459.87,-85.8837 1461.33,-85.2825"/>
<polygon fill="midnightblue" stroke="midnightblue" points="1463.08,-88.3349 1470.82,-81.0972 1460.26,-81.9301 1463.08,-88.3349"/>
</g>
<!-- Node37 -->
<g id="node38" class="node"><title>Node37</title>
<g id="a_node38"><a xlink:href="utils_8h.html" target="_top" xlink:title="utils.h">
<polygon fill="none" stroke="black" points="1527.5,-62 1527.5,-81 1572.5,-81 1572.5,-62 1527.5,-62"/>
<text text-anchor="middle" x="1550" y="-69" font-family="Helvetica,sans-Serif" font-size="10.00">utils.h</text>
</a>
</g>
</g>
<!-- Node30&#45;&gt;Node37 -->
<g id="edge47" class="edge"><title>Node30&#45;&gt;Node37</title>
<path fill="none" stroke="midnightblue" d="M1318.13,-128.857C1323.54,-126.742 1329.44,-124.623 1335,-123 1414.57,-99.7842 1439.06,-112.275 1518,-87 1519.87,-86.4002 1521.78,-85.7215 1523.69,-84.9931"/>
<polygon fill="midnightblue" stroke="midnightblue" points="1525.15,-88.1745 1533.02,-81.0744 1522.44,-81.7209 1525.15,-88.1745"/>
</g>
<!-- Node37&#45;&gt;Node31 -->
<g id="edge50" class="edge"><title>Node37&#45;&gt;Node31</title>
<path fill="none" stroke="midnightblue" d="M1533.41,-61.8637C1528.56,-59.6451 1523.16,-57.4718 1518,-56 1488.94,-47.7146 1294.07,-24.7689 1211.19,-15.2369"/>
<polygon fill="midnightblue" stroke="midnightblue" points="1211.53,-11.7525 1201.19,-14.0896 1210.73,-18.7069 1211.53,-11.7525"/>
</g>
<!-- Node37&#45;&gt;Node33 -->
<g id="edge51" class="edge"><title>Node37&#45;&gt;Node33</title>
<path fill="none" stroke="midnightblue" d="M1533,-61.978C1528.23,-59.8132 1522.98,-57.639 1518,-56 1461.67,-37.4722 1394.32,-24.6509 1351.12,-17.5636"/>
<polygon fill="midnightblue" stroke="midnightblue" points="1351.64,-14.1027 1341.22,-15.9696 1350.53,-21.0138 1351.64,-14.1027"/>
</g>
<!-- Node38 -->
<g id="node39" class="node"><title>Node38</title>
<polygon fill="none" stroke="#bfbfbf" points="1595.5,-0.5 1595.5,-19.5 1652.5,-19.5 1652.5,-0.5 1595.5,-0.5"/>
<text text-anchor="middle" x="1624" y="-7.5" font-family="Helvetica,sans-Serif" font-size="10.00">complex</text>
</g>
<!-- Node37&#45;&gt;Node38 -->
<g id="edge48" class="edge"><title>Node37&#45;&gt;Node38</title>
<path fill="none" stroke="midnightblue" d="M1560.6,-61.9751C1572.25,-52.6082 1591.19,-37.3839 1605.33,-26.0081"/>
<polygon fill="midnightblue" stroke="midnightblue" points="1607.82,-28.503 1613.42,-19.5091 1603.43,-23.0477 1607.82,-28.503"/>
</g>
<!-- Node39 -->
<g id="node40" class="node"><title>Node39</title>
<polygon fill="none" stroke="#bfbfbf" points="1441.5,-0.5 1441.5,-19.5 1504.5,-19.5 1504.5,-0.5 1441.5,-0.5"/>
<text text-anchor="middle" x="1473" y="-7.5" font-family="Helvetica,sans-Serif" font-size="10.00">functional</text>
</g>
<!-- Node37&#45;&gt;Node39 -->
<g id="edge49" class="edge"><title>Node37&#45;&gt;Node39</title>
<path fill="none" stroke="midnightblue" d="M1538.97,-61.9751C1526.73,-52.5199 1506.77,-37.0961 1492.01,-25.6871"/>
<polygon fill="midnightblue" stroke="midnightblue" points="1494.06,-22.8541 1484.01,-19.5091 1489.78,-28.3931 1494.06,-22.8541"/>
</g>
<!-- Node40 -->
<g id="node41" class="node"><title>Node40</title>
<polygon fill="none" stroke="#bfbfbf" points="1522.5,-0.5 1522.5,-19.5 1577.5,-19.5 1577.5,-0.5 1522.5,-0.5"/>
<text text-anchor="middle" x="1550" y="-7.5" font-family="Helvetica,sans-Serif" font-size="10.00">unistd.h</text>
</g>
<!-- Node37&#45;&gt;Node40 -->
<g id="edge52" class="edge"><title>Node37&#45;&gt;Node40</title>
<path fill="none" stroke="midnightblue" d="M1550,-61.9751C1550,-53.5803 1550,-40.4806 1550,-29.6631"/>
<polygon fill="midnightblue" stroke="midnightblue" points="1553.5,-29.5091 1550,-19.5091 1546.5,-29.5091 1553.5,-29.5091"/>
</g>
</g>
</svg>
