<?xml version="1.0" encoding="UTF-8" standalone="no"?>
<!DOCTYPE svg PUBLIC "-//W3C//DTD SVG 1.1//EN"
 "http://www.w3.org/Graphics/SVG/1.1/DTD/svg11.dtd">
<!-- Generated by graphviz version 2.38.0 (20140413.2041)
 -->
<!-- Title: selectionRulesMomentumNew Pages: 1 -->
<svg width="560pt" height="56pt"
 viewBox="0.00 0.00 560.00 55.50" xmlns="http://www.w3.org/2000/svg" xmlns:xlink="http://www.w3.org/1999/xlink">
<g id="graph0" class="graph" transform="scale(1 1) rotate(0) translate(4 51.5)">
<title>selectionRulesMomentumNew</title>
<!-- Node1 -->
<g id="node1" class="node"><title>Node1</title>
<polygon fill="#bfbfbf" stroke="black" points="0,-28 0,-47 160,-47 160,-28 0,-28"/>
<text text-anchor="middle" x="80" y="-35" font-family="Helvetica,sans-Serif" font-size="10.00">selectionRulesMomentumNew</text>
</g>
<!-- Node2 -->
<g id="node2" class="node"><title>Node2</title>
<g id="a_node2"><a xlink:href="classSystemOne.html#abf6d26d44765fa787251956c128644a7" target="_top" xlink:title="Method that allows base class to calculate the interaction /////. ">
<polygon fill="none" stroke="black" points="384,-28 384,-47 552,-47 552,-28 384,-28"/>
<text text-anchor="middle" x="468" y="-35" font-family="Helvetica,sans-Serif" font-size="10.00">SystemOne::initializeInteraction</text>
</a>
</g>
</g>
<!-- Node1&#45;&gt;Node2 -->
<g id="edge1" class="edge"><title>Node1&#45;&gt;Node2</title>
<path fill="none" stroke="midnightblue" d="M170.341,-40.059C179.012,-40.2387 187.675,-40.3914 196,-40.5 263.55,-41.3809 280.45,-41.3513 348,-40.5 359.572,-40.3542 371.776,-40.1286 383.781,-39.8651"/>
<polygon fill="midnightblue" stroke="midnightblue" points="170.253,-36.5563 160.179,-39.8367 170.1,-43.5546 170.253,-36.5563"/>
</g>
<!-- Node3 -->
<g id="node3" class="node"><title>Node3</title>
<g id="a_node3"><a xlink:href="classMatrixElementCache.html#a41efbe3c4a7e3e5f2ed2c807a0b3178e" target="_top" xlink:title="MatrixElementCache\l::precalculateDiamagnetism">
<polygon fill="none" stroke="black" points="196,-0.5 196,-30.5 348,-30.5 348,-0.5 196,-0.5"/>
<text text-anchor="start" x="204" y="-18.5" font-family="Helvetica,sans-Serif" font-size="10.00">MatrixElementCache</text>
<text text-anchor="middle" x="272" y="-7.5" font-family="Helvetica,sans-Serif" font-size="10.00">::precalculateDiamagnetism</text>
</a>
</g>
</g>
<!-- Node1&#45;&gt;Node3 -->
<g id="edge2" class="edge"><title>Node1&#45;&gt;Node3</title>
<path fill="none" stroke="midnightblue" d="M170.23,-27.1681C178.812,-26.1744 187.457,-25.1734 195.884,-24.1977"/>
<polygon fill="midnightblue" stroke="midnightblue" points="169.732,-23.7023 160.201,-28.3293 170.538,-30.6558 169.732,-23.7023"/>
</g>
<!-- Node3&#45;&gt;Node2 -->
<g id="edge3" class="edge"><title>Node3&#45;&gt;Node2</title>
<path fill="none" stroke="midnightblue" d="M357.993,-25.1383C366.564,-26.1103 375.262,-27.0967 383.814,-28.0665"/>
<polygon fill="midnightblue" stroke="midnightblue" points="358.336,-21.655 348.005,-24.0058 357.547,-28.6104 358.336,-21.655"/>
</g>
</g>
</svg>
