<?xml version="1.0" encoding="UTF-8" standalone="no"?>
<!DOCTYPE svg PUBLIC "-//W3C//DTD SVG 1.1//EN"
 "http://www.w3.org/Graphics/SVG/1.1/DTD/svg11.dtd">
<!-- Generated by graphviz version 2.38.0 (20140413.2041)
 -->
<!-- Title: selectionRulesMultipoleNew Pages: 1 -->
<!--zoomable 116 -->
<svg id="main" version="1.1" xmlns="http://www.w3.org/2000/svg" xmlns:xlink="http://www.w3.org/1999/xlink" xml:space="preserve" onload="init(evt)">
<style type="text/css"><![CDATA[
.edge:hover path { stroke: red; }
.edge:hover polygon { stroke: red; fill: red; }
]]></style>
<script type="text/javascript"><![CDATA[
var edges = document.getElementsByTagName('g');
if (edges && edges.length) {
  for (var i=0;i<edges.length;i++) {
    if (edges[i].id.substr(0,4)=='edge') {
      edges[i].setAttribute('class','edge');
    }
  }
}
]]></script>
        <defs>
                <circle id="rim" cx="0" cy="0" r="7"/>
                <circle id="rim2" cx="0" cy="0" r="3.5"/>
                <g id="zoomPlus">
                        <use xlink:href="#rim" fill="#404040">
                                <set attributeName="fill" to="#808080" begin="zoomplus.mouseover" end="zoomplus.mouseout"/>
                        </use>
                        <path d="M-4,0h8M0,-4v8" fill="none" stroke="white" stroke-width="1.5" pointer-events="none"/>
                </g>
                <g id="zoomMin">
                        <use xlink:href="#rim" fill="#404040">
                                <set attributeName="fill" to="#808080" begin="zoomminus.mouseover" end="zoomminus.mouseout"/>
                        </use>
                        <path d="M-4,0h8" fill="none" stroke="white" stroke-width="1.5" pointer-events="none"/>
                </g>
                <g id="dirArrow">
                        <path fill="none" stroke="white" stroke-width="1.5" d="M0,-3.0v7 M-2.5,-0.5L0,-3.0L2.5,-0.5"/>
                </g>
               <g id="resetDef">
                       <use xlink:href="#rim2" fill="#404040">
                               <set attributeName="fill" to="#808080" begin="reset.mouseover" end="reset.mouseout"/>
                       </use>
               </g>
        </defs>

<script type="text/javascript">
var viewWidth = 560;
var viewHeight = 116;
var sectionId = 'dynsection-2';
</script>
<script xlink:href="svgpan.js"/>
<svg id="graph" class="graph">
<g id="viewport">
<title>selectionRulesMultipoleNew</title>
<!-- Node7 -->
<g id="node1" class="node"><title>Node7</title>
<polygon fill="#bfbfbf" stroke="black" points="0,-50 0,-69 147,-69 147,-50 0,-50"/>
<text text-anchor="middle" x="73.5" y="-57" font-family="Helvetica,sans-Serif" font-size="10.00">selectionRulesMultipoleNew</text>
</g>
<!-- Node8 -->
<g id="node2" class="node"><title>Node8</title>
<g id="a_node2"><a xlink:href="classSystemTwo.html#a5cc89c42ab8066027b0c375b818c8333" target="_top" xlink:title="Method that allows base class to calculate the interaction /////. ">
<polygon fill="none" stroke="black" points="183,-88 183,-107 348,-107 348,-88 183,-88"/>
<text text-anchor="middle" x="265.5" y="-95" font-family="Helvetica,sans-Serif" font-size="10.00">SystemTwo::initializeInteraction</text>
</a>
</g>
</g>
<!-- Node7&#45;&gt;Node8 -->
<g id="edge1" class="edge"><title>Node7&#45;&gt;Node8</title>
<path fill="none" stroke="midnightblue" d="M132.548,-71.1095C159.57,-76.514 191.318,-82.8635 216.9,-87.9799"/>
<polygon fill="midnightblue" stroke="midnightblue" points="132.937,-67.6182 122.445,-69.089 131.564,-74.4823 132.937,-67.6182"/>
</g>
<!-- Node9 -->
<g id="node3" class="node"><title>Node9</title>
<g id="a_node3"><a xlink:href="classSystemOne.html#abf6d26d44765fa787251956c128644a7" target="_top" xlink:title="Method that allows base class to calculate the interaction /////. ">
<polygon fill="none" stroke="black" points="384,-28 384,-47 552,-47 552,-28 384,-28"/>
<text text-anchor="middle" x="468" y="-35" font-family="Helvetica,sans-Serif" font-size="10.00">SystemOne::initializeInteraction</text>
</a>
</g>
</g>
<!-- Node7&#45;&gt;Node9 -->
<g id="edge2" class="edge"><title>Node7&#45;&gt;Node9</title>
<path fill="none" stroke="midnightblue" d="M157.454,-54.8503C224.104,-51.1145 317.271,-45.8925 383.947,-42.1552"/>
<polygon fill="midnightblue" stroke="midnightblue" points="157.195,-51.3593 147.406,-55.4135 157.587,-58.3483 157.195,-51.3593"/>
</g>
<!-- Node10 -->
<g id="node4" class="node"><title>Node10</title>
<g id="a_node4"><a xlink:href="classMatrixElementCache.html#a41efbe3c4a7e3e5f2ed2c807a0b3178e" target="_top" xlink:title="MatrixElementCache\l::precalculateDiamagnetism">
<polygon fill="none" stroke="black" points="189.5,-0.5 189.5,-30.5 341.5,-30.5 341.5,-0.5 189.5,-0.5"/>
<text text-anchor="start" x="197.5" y="-18.5" font-family="Helvetica,sans-Serif" font-size="10.00">MatrixElementCache</text>
<text text-anchor="middle" x="265.5" y="-7.5" font-family="Helvetica,sans-Serif" font-size="10.00">::precalculateDiamagnetism</text>
</a>
</g>
</g>
<!-- Node7&#45;&gt;Node10 -->
<g id="edge3" class="edge"><title>Node7&#45;&gt;Node10</title>
<path fill="none" stroke="midnightblue" d="M125.511,-47.6868C148.241,-42.4231 175.283,-36.1609 199.445,-30.5654"/>
<polygon fill="midnightblue" stroke="midnightblue" points="124.68,-44.2867 115.727,-49.9527 126.259,-51.1063 124.68,-44.2867"/>
</g>
<!-- Node10&#45;&gt;Node9 -->
<g id="edge4" class="edge"><title>Node10&#45;&gt;Node9</title>
<path fill="none" stroke="midnightblue" d="M351.843,-24.8643C362.481,-26.0316 373.349,-27.2241 383.952,-28.3875"/>
<polygon fill="midnightblue" stroke="midnightblue" points="352.051,-21.3663 341.729,-23.7546 351.288,-28.3245 352.051,-21.3663"/>
</g>
</g>
</svg>
        <g id="navigator" transform="translate(0 0)" fill="#404254">
                <rect fill="#f2f5e9" fill-opacity="0.5" stroke="#606060" stroke-width=".5" x="0" y="0" width="60" height="60"/>
                <use id="zoomplus" xlink:href="#zoomPlus" x="17" y="9" onmousedown="handleZoom(evt,'in')"/>
                <use id="zoomminus" xlink:href="#zoomMin" x="42" y="9" onmousedown="handleZoom(evt,'out')"/>
                <use id="reset" xlink:href="#resetDef" x="30" y="36" onmousedown="handleReset()"/>
                <g id="arrowUp" xlink:href="#dirArrow" transform="translate(30 24)" onmousedown="handlePan(0,-1)">
                  <use xlink:href="#rim" fill="#404040">
                        <set attributeName="fill" to="#808080" begin="arrowUp.mouseover" end="arrowUp.mouseout"/>
                  </use>
                  <path fill="none" stroke="white" stroke-width="1.5" d="M0,-3.0v7 M-2.5,-0.5L0,-3.0L2.5,-0.5"/>
                </g>
                <g id="arrowRight" xlink:href="#dirArrow" transform="rotate(90) translate(36 -43)" onmousedown="handlePan(1,0)">
                  <use xlink:href="#rim" fill="#404040">
                        <set attributeName="fill" to="#808080" begin="arrowRight.mouseover" end="arrowRight.mouseout"/>
                  </use>
                  <path fill="none" stroke="white" stroke-width="1.5" d="M0,-3.0v7 M-2.5,-0.5L0,-3.0L2.5,-0.5"/>
                </g>
                <g id="arrowDown" xlink:href="#dirArrow" transform="rotate(180) translate(-30 -48)" onmousedown="handlePan(0,1)">
                  <use xlink:href="#rim" fill="#404040">
                        <set attributeName="fill" to="#808080" begin="arrowDown.mouseover" end="arrowDown.mouseout"/>
                  </use>
                  <path fill="none" stroke="white" stroke-width="1.5" d="M0,-3.0v7 M-2.5,-0.5L0,-3.0L2.5,-0.5"/>
                </g>
                <g id="arrowLeft" xlink:href="#dirArrow" transform="rotate(270) translate(-36 17)" onmousedown="handlePan(-1,0)">
                  <use xlink:href="#rim" fill="#404040">
                        <set attributeName="fill" to="#808080" begin="arrowLeft.mouseover" end="arrowLeft.mouseout"/>
                  </use>
                  <path fill="none" stroke="white" stroke-width="1.5" d="M0,-3.0v7 M-2.5,-0.5L0,-3.0L2.5,-0.5"/>
                </g>
        </g>
        <svg viewBox="0 0 15 15" width="100%" height="30px" preserveAspectRatio="xMaxYMin meet">
         <g id="arrow_out" transform="scale(0.3 0.3)">
          <a xlink:href="MatrixElementCache_8cpp_a06a268e07e2a0edb3fca096b8c941c78_icgraph_org.svg" target="_base">
           <rect id="button" ry="5" rx="5" y="6" x="6" height="38" width="38"
                fill="#f2f5e9" fill-opacity="0.5" stroke="#606060" stroke-width="1.0"/>
           <path id="arrow"
             d="M 11.500037,31.436501 C 11.940474,20.09759 22.043105,11.32322 32.158766,21.979434 L 37.068811,17.246167 C 37.068811,17.246167 37.088388,32 37.088388,32 L 22.160133,31.978069 C 22.160133,31.978069 26.997745,27.140456 26.997745,27.140456 C 18.528582,18.264221 13.291696,25.230495 11.500037,31.436501 z"
             style="fill:#404040;"/>
          </a>
         </g>
        </svg>
</svg>
