<?xml version="1.0" encoding="UTF-8" standalone="no"?>
<!DOCTYPE svg PUBLIC "-//W3C//DTD SVG 1.1//EN"
 "http://www.w3.org/Graphics/SVG/1.1/DTD/svg11.dtd">
<!-- Generated by graphviz version 2.38.0 (20140413.2041)
 -->
<!-- Title: /travis/libpairinteraction/MatrixElementCache.h Pages: 1 -->
<!--zoomable 352 -->
<svg id="main" version="1.1" xmlns="http://www.w3.org/2000/svg" xmlns:xlink="http://www.w3.org/1999/xlink" xml:space="preserve" onload="init(evt)">
<style type="text/css"><![CDATA[
.edge:hover path { stroke: red; }
.edge:hover polygon { stroke: red; fill: red; }
]]></style>
<script type="text/javascript"><![CDATA[
var edges = document.getElementsByTagName('g');
if (edges && edges.length) {
  for (var i=0;i<edges.length;i++) {
    if (edges[i].id.substr(0,4)=='edge') {
      edges[i].setAttribute('class','edge');
    }
  }
}
]]></script>
        <defs>
                <circle id="rim" cx="0" cy="0" r="7"/>
                <circle id="rim2" cx="0" cy="0" r="3.5"/>
                <g id="zoomPlus">
                        <use xlink:href="#rim" fill="#404040">
                                <set attributeName="fill" to="#808080" begin="zoomplus.mouseover" end="zoomplus.mouseout"/>
                        </use>
                        <path d="M-4,0h8M0,-4v8" fill="none" stroke="white" stroke-width="1.5" pointer-events="none"/>
                </g>
                <g id="zoomMin">
                        <use xlink:href="#rim" fill="#404040">
                                <set attributeName="fill" to="#808080" begin="zoomminus.mouseover" end="zoomminus.mouseout"/>
                        </use>
                        <path d="M-4,0h8" fill="none" stroke="white" stroke-width="1.5" pointer-events="none"/>
                </g>
                <g id="dirArrow">
                        <path fill="none" stroke="white" stroke-width="1.5" d="M0,-3.0v7 M-2.5,-0.5L0,-3.0L2.5,-0.5"/>
                </g>
               <g id="resetDef">
                       <use xlink:href="#rim2" fill="#404040">
                               <set attributeName="fill" to="#808080" begin="reset.mouseover" end="reset.mouseout"/>
                       </use>
               </g>
        </defs>

<script type="text/javascript">
var viewWidth = 2207;
var viewHeight = 352;
var sectionId = 'dynsection-0';
</script>
<script xlink:href="svgpan.js"/>
<svg id="graph" class="graph">
<g id="viewport">
<title>/travis/libpairinteraction/MatrixElementCache.h</title>
<!-- Node0 -->
<g id="node1" class="node"><title>Node0</title>
<polygon fill="#bfbfbf" stroke="black" points="1324,-313.5 1324,-343.5 1452,-343.5 1452,-313.5 1324,-313.5"/>
<text text-anchor="start" x="1332" y="-331.5" font-family="Helvetica,sans-Serif" font-size="10.00">/travis/libpairinteraction</text>
<text text-anchor="middle" x="1388" y="-320.5" font-family="Helvetica,sans-Serif" font-size="10.00">/MatrixElementCache.h</text>
</g>
<!-- Node1 -->
<g id="node2" class="node"><title>Node1</title>
<g id="a_node2"><a xlink:href="Basisnames_8h.html" target="_top" xlink:title="Basisnames.h">
<polygon fill="none" stroke="black" points="527,-252 527,-271 611,-271 611,-252 527,-252"/>
<text text-anchor="middle" x="569" y="-259" font-family="Helvetica,sans-Serif" font-size="10.00">Basisnames.h</text>
</a>
</g>
</g>
<!-- Node0&#45;&gt;Node1 -->
<g id="edge1" class="edge"><title>Node0&#45;&gt;Node1</title>
<path fill="none" stroke="midnightblue" d="M1323.73,-322.4C1166.65,-309.932 765.558,-278.1 621.508,-266.667"/>
<polygon fill="midnightblue" stroke="midnightblue" points="621.429,-263.15 611.184,-265.848 620.876,-270.128 621.429,-263.15"/>
</g>
<!-- Node4 -->
<g id="node5" class="node"><title>Node4</title>
<polygon fill="none" stroke="#bfbfbf" points="56,-62 56,-81 112,-81 112,-62 56,-62"/>
<text text-anchor="middle" x="84" y="-69" font-family="Helvetica,sans-Serif" font-size="10.00">sstream</text>
</g>
<!-- Node0&#45;&gt;Node4 -->
<g id="edge70" class="edge"><title>Node0&#45;&gt;Node4</title>
<path fill="none" stroke="midnightblue" d="M1323.98,-327.922C1124.61,-328.691 516.864,-326.781 327,-277 209.143,-246.099 145.971,-257.696 82,-154 70.3569,-135.127 73.7148,-108.827 78.0729,-91.261"/>
<polygon fill="midnightblue" stroke="midnightblue" points="81.5804,-91.7197 80.9336,-81.1446 74.8445,-89.8149 81.5804,-91.7197"/>
</g>
<!-- Node5 -->
<g id="node6" class="node"><title>Node5</title>
<polygon fill="none" stroke="#bfbfbf" points="270,-62 270,-81 314,-81 314,-62 270,-62"/>
<text text-anchor="middle" x="292" y="-69" font-family="Helvetica,sans-Serif" font-size="10.00">string</text>
</g>
<!-- Node0&#45;&gt;Node5 -->
<g id="edge71" class="edge"><title>Node0&#45;&gt;Node5</title>
<path fill="none" stroke="midnightblue" d="M1323.77,-325.54C1149.98,-319.953 673.142,-302.68 518,-277 407.897,-258.775 360.05,-283.42 276,-210 245.791,-183.612 238.815,-160.882 252,-123 256.607,-109.765 266.286,-97.3881 274.969,-88.1998"/>
<polygon fill="midnightblue" stroke="midnightblue" points="277.577,-90.5422 282.19,-81.0046 272.636,-85.5834 277.577,-90.5422"/>
</g>
<!-- Node9 -->
<g id="node10" class="node"><title>Node9</title>
<g id="a_node10"><a xlink:href="dtypes_8h.html" target="_top" xlink:title="dtypes.h">
<polygon fill="none" stroke="black" points="817,-129 817,-148 875,-148 875,-129 817,-129"/>
<text text-anchor="middle" x="846" y="-136" font-family="Helvetica,sans-Serif" font-size="10.00">dtypes.h</text>
</a>
</g>
</g>
<!-- Node0&#45;&gt;Node9 -->
<g id="edge62" class="edge"><title>Node0&#45;&gt;Node9</title>
<path fill="none" stroke="midnightblue" d="M1323.93,-327.538C1212.6,-326.47 989.212,-318.976 925,-277 881.9,-248.826 859.61,-188.427 850.728,-157.928"/>
<polygon fill="midnightblue" stroke="midnightblue" points="854.069,-156.877 848.048,-148.159 847.318,-158.729 854.069,-156.877"/>
</g>
<!-- Node15 -->
<g id="node16" class="node"><title>Node15</title>
<polygon fill="none" stroke="#bfbfbf" points="1007,-129 1007,-148 1147,-148 1147,-129 1007,-129"/>
<text text-anchor="middle" x="1077" y="-136" font-family="Helvetica,sans-Serif" font-size="10.00">boost/functional/hash.hpp</text>
</g>
<!-- Node0&#45;&gt;Node15 -->
<g id="edge66" class="edge"><title>Node0&#45;&gt;Node15</title>
<path fill="none" stroke="midnightblue" d="M1349.91,-313.432C1300.96,-294.33 1214.6,-257.102 1150,-210 1127.66,-193.71 1105.27,-170.898 1091.3,-155.682"/>
<polygon fill="midnightblue" stroke="midnightblue" points="1093.75,-153.176 1084.45,-148.1 1088.55,-157.868 1093.75,-153.176"/>
</g>
<!-- Node21 -->
<g id="node22" class="node"><title>Node21</title>
<polygon fill="none" stroke="#bfbfbf" points="1406.5,-62 1406.5,-81 1463.5,-81 1463.5,-62 1406.5,-62"/>
<text text-anchor="middle" x="1435" y="-69" font-family="Helvetica,sans-Serif" font-size="10.00">memory</text>
</g>
<!-- Node0&#45;&gt;Node21 -->
<g id="edge69" class="edge"><title>Node0&#45;&gt;Node21</title>
<path fill="none" stroke="midnightblue" d="M1378.74,-313.267C1357.32,-278.366 1308.88,-186.738 1346,-123 1352.72,-111.464 1382.22,-96.0672 1405.44,-85.3193"/>
<polygon fill="midnightblue" stroke="midnightblue" points="1406.95,-88.4812 1414.61,-81.1638 1404.06,-82.106 1406.95,-88.4812"/>
</g>
<!-- Node24 -->
<g id="node25" class="node"><title>Node24</title>
<g id="a_node25"><a xlink:href="Wavefunction_8h.html" target="_top" xlink:title="Wavefunction.h">
<polygon fill="none" stroke="black" points="934.5,-252 934.5,-271 1023.5,-271 1023.5,-252 934.5,-252"/>
<text text-anchor="middle" x="979" y="-259" font-family="Helvetica,sans-Serif" font-size="10.00">Wavefunction.h</text>
</a>
</g>
</g>
<!-- Node0&#45;&gt;Node24 -->
<g id="edge30" class="edge"><title>Node0&#45;&gt;Node24</title>
<path fill="none" stroke="midnightblue" d="M1323.64,-317.272C1243.83,-304.587 1109.12,-283.18 1033.94,-271.231"/>
<polygon fill="midnightblue" stroke="midnightblue" points="1034.16,-267.722 1023.73,-269.609 1033.06,-274.636 1034.16,-267.722"/>
</g>
<!-- Node28 -->
<g id="node29" class="node"><title>Node28</title>
<polygon fill="none" stroke="#bfbfbf" points="1734.5,-62 1734.5,-81 1827.5,-81 1827.5,-62 1734.5,-62"/>
<text text-anchor="middle" x="1781" y="-69" font-family="Helvetica,sans-Serif" font-size="10.00">unordered_map</text>
</g>
<!-- Node0&#45;&gt;Node28 -->
<g id="edge73" class="edge"><title>Node0&#45;&gt;Node28</title>
<path fill="none" stroke="midnightblue" d="M1410.47,-313.444C1426.54,-303.364 1448.65,-289.426 1468,-277 1578.03,-206.333 1708.72,-120.243 1759.42,-86.7682"/>
<polygon fill="midnightblue" stroke="midnightblue" points="1761.51,-89.5779 1767.93,-81.1457 1757.65,-83.7372 1761.51,-89.5779"/>
</g>
<!-- Node37 -->
<g id="node38" class="node"><title>Node37</title>
<g id="a_node38"><a xlink:href="utils_8h.html" target="_top" xlink:title="utils.h">
<polygon fill="none" stroke="black" points="1481.5,-62 1481.5,-81 1526.5,-81 1526.5,-62 1481.5,-62"/>
<text text-anchor="middle" x="1504" y="-69" font-family="Helvetica,sans-Serif" font-size="10.00">utils.h</text>
</a>
</g>
</g>
<!-- Node0&#45;&gt;Node37 -->
<g id="edge63" class="edge"><title>Node0&#45;&gt;Node37</title>
<path fill="none" stroke="midnightblue" d="M1404.31,-313.345C1434.19,-286.14 1496.51,-223.092 1517,-154 1523.28,-132.815 1517.28,-107.578 1511.51,-90.8585"/>
<polygon fill="midnightblue" stroke="midnightblue" points="1514.68,-89.3556 1507.89,-81.2298 1508.13,-91.8218 1514.68,-89.3556"/>
</g>
<!-- Node41 -->
<g id="node42" class="node"><title>Node41</title>
<polygon fill="none" stroke="#bfbfbf" points="1467.5,-129 1467.5,-148 1508.5,-148 1508.5,-129 1467.5,-129"/>
<text text-anchor="middle" x="1488" y="-136" font-family="Helvetica,sans-Serif" font-size="10.00">tuple</text>
</g>
<!-- Node0&#45;&gt;Node41 -->
<g id="edge72" class="edge"><title>Node0&#45;&gt;Node41</title>
<path fill="none" stroke="midnightblue" d="M1395.52,-313.369C1413.45,-279.65 1458.73,-194.522 1478.51,-157.34"/>
<polygon fill="midnightblue" stroke="midnightblue" points="1481.76,-158.679 1483.37,-148.206 1475.58,-155.391 1481.76,-158.679"/>
</g>
<!-- Node42 -->
<g id="node43" class="node"><title>Node42</title>
<polygon fill="none" stroke="#bfbfbf" points="1603.5,-246.5 1603.5,-276.5 1800.5,-276.5 1800.5,-246.5 1603.5,-246.5"/>
<text text-anchor="start" x="1611.5" y="-264.5" font-family="Helvetica,sans-Serif" font-size="10.00">wignerSymbols/include</text>
<text text-anchor="middle" x="1702" y="-253.5" font-family="Helvetica,sans-Serif" font-size="10.00">/wignerSymbols/wignerSymbols&#45;cpp.h</text>
</g>
<!-- Node0&#45;&gt;Node42 -->
<g id="edge64" class="edge"><title>Node0&#45;&gt;Node42</title>
<path fill="none" stroke="midnightblue" d="M1452.3,-314.189C1502.11,-303.879 1571.31,-289.553 1624.24,-278.597"/>
<polygon fill="midnightblue" stroke="midnightblue" points="1625.17,-281.978 1634.26,-276.523 1623.76,-275.123 1625.17,-281.978"/>
</g>
<!-- Node43 -->
<g id="node44" class="node"><title>Node43</title>
<polygon fill="none" stroke="#bfbfbf" points="1819,-252 1819,-271 1935,-271 1935,-252 1819,-252"/>
<text text-anchor="middle" x="1877" y="-259" font-family="Helvetica,sans-Serif" font-size="10.00">boost/filesystem.hpp</text>
</g>
<!-- Node0&#45;&gt;Node43 -->
<g id="edge65" class="edge"><title>Node0&#45;&gt;Node43</title>
<path fill="none" stroke="midnightblue" d="M1452.09,-321.638C1534.85,-313.65 1683.19,-297.915 1809,-277 1815.8,-275.87 1822.95,-274.522 1829.96,-273.11"/>
<polygon fill="midnightblue" stroke="midnightblue" points="1830.98,-276.472 1840.06,-271.014 1829.56,-269.618 1830.98,-276.472"/>
</g>
<!-- Node44 -->
<g id="node45" class="node"><title>Node44</title>
<polygon fill="none" stroke="#bfbfbf" points="1953.5,-246.5 1953.5,-276.5 2070.5,-276.5 2070.5,-246.5 1953.5,-246.5"/>
<text text-anchor="start" x="1961.5" y="-264.5" font-family="Helvetica,sans-Serif" font-size="10.00">boost/serialization</text>
<text text-anchor="middle" x="2012" y="-253.5" font-family="Helvetica,sans-Serif" font-size="10.00">/unordered_map.hpp</text>
</g>
<!-- Node0&#45;&gt;Node44 -->
<g id="edge67" class="edge"><title>Node0&#45;&gt;Node44</title>
<path fill="none" stroke="midnightblue" d="M1452.09,-324.174C1554,-318.337 1759.36,-304.337 1943.34,-276.968"/>
<polygon fill="midnightblue" stroke="midnightblue" points="1944.11,-280.392 1953.48,-275.443 1943.07,-273.47 1944.11,-280.392"/>
</g>
<!-- Node45 -->
<g id="node46" class="node"><title>Node45</title>
<polygon fill="none" stroke="#bfbfbf" points="2089,-246.5 2089,-276.5 2199,-276.5 2199,-246.5 2089,-246.5"/>
<text text-anchor="start" x="2097" y="-264.5" font-family="Helvetica,sans-Serif" font-size="10.00">boost/serialization</text>
<text text-anchor="middle" x="2144" y="-253.5" font-family="Helvetica,sans-Serif" font-size="10.00">/unordered_set.hpp</text>
</g>
<!-- Node0&#45;&gt;Node45 -->
<g id="edge68" class="edge"><title>Node0&#45;&gt;Node45</title>
<path fill="none" stroke="midnightblue" d="M1452.17,-325.947C1572.91,-322.342 1842.16,-311.062 2078.62,-276.882"/>
<polygon fill="midnightblue" stroke="midnightblue" points="2079.4,-280.305 2088.78,-275.395 2078.38,-273.379 2079.4,-280.305"/>
</g>
<!-- Node2 -->
<g id="node3" class="node"><title>Node2</title>
<g id="a_node3"><a xlink:href="ConfParser_8h.html" target="_top" xlink:title="ConfParser.h">
<polygon fill="none" stroke="black" points="91.5,-129 91.5,-148 168.5,-148 168.5,-129 91.5,-129"/>
<text text-anchor="middle" x="130" y="-136" font-family="Helvetica,sans-Serif" font-size="10.00">ConfParser.h</text>
</a>
</g>
</g>
<!-- Node1&#45;&gt;Node2 -->
<g id="edge2" class="edge"><title>Node1&#45;&gt;Node2</title>
<path fill="none" stroke="midnightblue" d="M526.789,-258.147C466.094,-253.762 351.314,-241.705 259,-210 218.333,-196.033 175.321,-169.915 150.665,-153.689"/>
<polygon fill="midnightblue" stroke="midnightblue" points="152.415,-150.649 142.157,-148.001 148.524,-156.469 152.415,-150.649"/>
</g>
<!-- Node1&#45;&gt;Node5 -->
<g id="edge27" class="edge"><title>Node1&#45;&gt;Node5</title>
<path fill="none" stroke="midnightblue" d="M526.784,-260.576C472.633,-258.91 377.429,-249.895 308,-210 279.325,-193.523 270.632,-184.958 259,-154 254.154,-141.103 255.068,-136.205 259,-123 262.715,-110.525 270.6,-98.2604 277.731,-88.9422"/>
<polygon fill="midnightblue" stroke="midnightblue" points="280.593,-90.9706 284.177,-81.0003 275.157,-86.5596 280.593,-90.9706"/>
</g>
<!-- Node7 -->
<g id="node8" class="node"><title>Node7</title>
<g id="a_node8"><a xlink:href="Iter_8h.html" target="_top" xlink:title="Iter.h">
<polygon fill="none" stroke="black" points="421.5,-190.5 421.5,-209.5 462.5,-209.5 462.5,-190.5 421.5,-190.5"/>
<text text-anchor="middle" x="442" y="-197.5" font-family="Helvetica,sans-Serif" font-size="10.00">Iter.h</text>
</a>
</g>
</g>
<!-- Node1&#45;&gt;Node7 -->
<g id="edge7" class="edge"><title>Node1&#45;&gt;Node7</title>
<path fill="none" stroke="midnightblue" d="M550.804,-251.975C529.491,-241.99 493.969,-225.348 469.337,-213.807"/>
<polygon fill="midnightblue" stroke="midnightblue" points="470.703,-210.582 460.162,-209.509 467.733,-216.921 470.703,-210.582"/>
</g>
<!-- Node8 -->
<g id="node9" class="node"><title>Node8</title>
<g id="a_node9"><a xlink:href="State_8h.html" target="_top" xlink:title="State.h">
<polygon fill="none" stroke="black" points="672,-190.5 672,-209.5 724,-209.5 724,-190.5 672,-190.5"/>
<text text-anchor="middle" x="698" y="-197.5" font-family="Helvetica,sans-Serif" font-size="10.00">State.h</text>
</a>
</g>
</g>
<!-- Node1&#45;&gt;Node8 -->
<g id="edge8" class="edge"><title>Node1&#45;&gt;Node8</title>
<path fill="none" stroke="midnightblue" d="M587.483,-251.975C609.132,-241.99 645.213,-225.348 670.232,-213.807"/>
<polygon fill="midnightblue" stroke="midnightblue" points="671.937,-216.876 679.552,-209.509 669.005,-210.519 671.937,-216.876"/>
</g>
<!-- Node1&#45;&gt;Node9 -->
<g id="edge23" class="edge"><title>Node1&#45;&gt;Node9</title>
<path fill="none" stroke="midnightblue" d="M606.153,-251.994C640.064,-243.551 691.129,-229.115 733,-210 767.572,-194.217 804.329,-169.641 826.216,-154.068"/>
<polygon fill="midnightblue" stroke="midnightblue" points="828.305,-156.877 834.371,-148.19 824.212,-151.198 828.305,-156.877"/>
</g>
<!-- Node14 -->
<g id="node15" class="node"><title>Node14</title>
<polygon fill="none" stroke="#bfbfbf" points="847.5,-62 847.5,-81 894.5,-81 894.5,-62 847.5,-62"/>
<text text-anchor="middle" x="871" y="-69" font-family="Helvetica,sans-Serif" font-size="10.00">vector</text>
</g>
<!-- Node1&#45;&gt;Node14 -->
<g id="edge29" class="edge"><title>Node1&#45;&gt;Node14</title>
<path fill="none" stroke="midnightblue" d="M611.274,-261.35C682.846,-260.156 825.77,-245.757 884,-154 896.258,-134.684 888.169,-107.76 880.345,-90.2316"/>
<polygon fill="midnightblue" stroke="midnightblue" points="883.44,-88.5933 875.925,-81.1254 877.143,-91.65 883.44,-88.5933"/>
</g>
<!-- Node20 -->
<g id="node21" class="node"><title>Node20</title>
<polygon fill="none" stroke="#bfbfbf" points="481,-190.5 481,-209.5 535,-209.5 535,-190.5 481,-190.5"/>
<text text-anchor="middle" x="508" y="-197.5" font-family="Helvetica,sans-Serif" font-size="10.00">fstream</text>
</g>
<!-- Node1&#45;&gt;Node20 -->
<g id="edge24" class="edge"><title>Node1&#45;&gt;Node20</title>
<path fill="none" stroke="midnightblue" d="M560.26,-251.975C550.838,-242.785 535.636,-227.956 524.051,-216.656"/>
<polygon fill="midnightblue" stroke="midnightblue" points="526.326,-213.986 516.724,-209.509 521.438,-218.997 526.326,-213.986"/>
</g>
<!-- Node1&#45;&gt;Node21 -->
<g id="edge25" class="edge"><title>Node1&#45;&gt;Node21</title>
<path fill="none" stroke="midnightblue" d="M611.036,-260.218C718.429,-258.147 1009.98,-243.985 1231,-154 1253.16,-144.98 1253.46,-133.413 1275,-123 1325.9,-98.3918 1343.44,-105.091 1397,-87 1399.26,-86.2374 1401.58,-85.4238 1403.91,-84.586"/>
<polygon fill="midnightblue" stroke="midnightblue" points="1405.24,-87.8272 1413.4,-81.0737 1402.81,-81.2624 1405.24,-87.8272"/>
</g>
<!-- Node22 -->
<g id="node23" class="node"><title>Node22</title>
<polygon fill="none" stroke="#bfbfbf" points="553,-190.5 553,-209.5 585,-209.5 585,-190.5 553,-190.5"/>
<text text-anchor="middle" x="569" y="-197.5" font-family="Helvetica,sans-Serif" font-size="10.00">set</text>
</g>
<!-- Node1&#45;&gt;Node22 -->
<g id="edge26" class="edge"><title>Node1&#45;&gt;Node22</title>
<path fill="none" stroke="midnightblue" d="M569,-251.975C569,-243.58 569,-230.481 569,-219.663"/>
<polygon fill="midnightblue" stroke="midnightblue" points="572.5,-219.509 569,-209.509 565.5,-219.509 572.5,-219.509"/>
</g>
<!-- Node23 -->
<g id="node24" class="node"><title>Node23</title>
<polygon fill="none" stroke="#bfbfbf" points="317,-190.5 317,-209.5 403,-209.5 403,-190.5 317,-190.5"/>
<text text-anchor="middle" x="360" y="-197.5" font-family="Helvetica,sans-Serif" font-size="10.00">unordered_set</text>
</g>
<!-- Node1&#45;&gt;Node23 -->
<g id="edge28" class="edge"><title>Node1&#45;&gt;Node23</title>
<path fill="none" stroke="midnightblue" d="M539.055,-251.975C502.428,-241.548 440.305,-223.862 399.716,-212.307"/>
<polygon fill="midnightblue" stroke="midnightblue" points="400.465,-208.881 389.889,-209.509 398.549,-215.613 400.465,-208.881"/>
</g>
<!-- Node3 -->
<g id="node4" class="node"><title>Node3</title>
<polygon fill="none" stroke="#bfbfbf" points="0,-62 0,-81 38,-81 38,-62 0,-62"/>
<text text-anchor="middle" x="19" y="-69" font-family="Helvetica,sans-Serif" font-size="10.00">map</text>
</g>
<!-- Node2&#45;&gt;Node3 -->
<g id="edge3" class="edge"><title>Node2&#45;&gt;Node3</title>
<path fill="none" stroke="midnightblue" d="M115.03,-128.734C96.3895,-117.818 64.3369,-99.0487 42.4311,-86.2209"/>
<polygon fill="midnightblue" stroke="midnightblue" points="44.1307,-83.1603 33.7328,-81.1273 40.5935,-89.2008 44.1307,-83.1603"/>
</g>
<!-- Node2&#45;&gt;Node4 -->
<g id="edge4" class="edge"><title>Node2&#45;&gt;Node4</title>
<path fill="none" stroke="midnightblue" d="M123.796,-128.734C116.692,-118.695 104.887,-102.014 95.975,-89.4213"/>
<polygon fill="midnightblue" stroke="midnightblue" points="98.7392,-87.2682 90.1055,-81.1273 93.0252,-91.3119 98.7392,-87.2682"/>
</g>
<!-- Node2&#45;&gt;Node5 -->
<g id="edge5" class="edge"><title>Node2&#45;&gt;Node5</title>
<path fill="none" stroke="midnightblue" d="M153.865,-128.868C180.275,-119.185 224,-102.762 261,-87 262.199,-86.4891 263.42,-85.9594 264.651,-85.4177"/>
<polygon fill="midnightblue" stroke="midnightblue" points="266.403,-88.4663 274.064,-81.1476 263.511,-82.0916 266.403,-88.4663"/>
</g>
<!-- Node6 -->
<g id="node7" class="node"><title>Node6</title>
<polygon fill="none" stroke="#bfbfbf" points="130,-62 130,-81 252,-81 252,-62 130,-62"/>
<text text-anchor="middle" x="191" y="-69" font-family="Helvetica,sans-Serif" font-size="10.00">boost/lexical_cast.hpp</text>
</g>
<!-- Node2&#45;&gt;Node6 -->
<g id="edge6" class="edge"><title>Node2&#45;&gt;Node6</title>
<path fill="none" stroke="midnightblue" d="M138.227,-128.734C147.83,-118.5 163.912,-101.364 175.804,-88.6924"/>
<polygon fill="midnightblue" stroke="midnightblue" points="178.613,-90.8143 182.904,-81.1273 173.508,-86.0241 178.613,-90.8143"/>
</g>
<!-- Node8&#45;&gt;Node5 -->
<g id="edge19" class="edge"><title>Node8&#45;&gt;Node5</title>
<path fill="none" stroke="midnightblue" d="M671.704,-195.632C658.322,-193.927 641.797,-191.835 627,-190 561.022,-181.82 383.815,-193.037 330,-154 309.401,-139.057 299.627,-110.1 295.245,-91.0341"/>
<polygon fill="midnightblue" stroke="midnightblue" points="298.656,-90.2422 293.247,-81.1322 291.794,-91.627 298.656,-90.2422"/>
</g>
<!-- Node8&#45;&gt;Node9 -->
<g id="edge9" class="edge"><title>Node8&#45;&gt;Node9</title>
<path fill="none" stroke="midnightblue" d="M719.205,-190.475C744.372,-180.357 786.54,-163.405 815.279,-151.851"/>
<polygon fill="midnightblue" stroke="midnightblue" points="816.862,-154.987 824.835,-148.009 814.251,-148.492 816.862,-154.987"/>
</g>
<!-- Node12 -->
<g id="node13" class="node"><title>Node12</title>
<polygon fill="none" stroke="#bfbfbf" points="529.5,-62 529.5,-81 570.5,-81 570.5,-62 529.5,-62"/>
<text text-anchor="middle" x="550" y="-69" font-family="Helvetica,sans-Serif" font-size="10.00">array</text>
</g>
<!-- Node8&#45;&gt;Node12 -->
<g id="edge15" class="edge"><title>Node8&#45;&gt;Node12</title>
<path fill="none" stroke="midnightblue" d="M700.409,-190.405C704.14,-175.09 709.392,-142.832 694,-123 661.163,-80.6904 628.666,-107.04 579,-87 577.796,-86.5142 576.574,-85.9983 575.346,-85.4616"/>
<polygon fill="midnightblue" stroke="midnightblue" points="576.587,-82.1777 566.048,-81.0963 573.612,-88.5142 576.587,-82.1777"/>
</g>
<!-- Node13 -->
<g id="node14" class="node"><title>Node13</title>
<polygon fill="none" stroke="#bfbfbf" points="588.5,-62 588.5,-81 635.5,-81 635.5,-62 588.5,-62"/>
<text text-anchor="middle" x="612" y="-69" font-family="Helvetica,sans-Serif" font-size="10.00">cmath</text>
</g>
<!-- Node8&#45;&gt;Node13 -->
<g id="edge17" class="edge"><title>Node8&#45;&gt;Node13</title>
<path fill="none" stroke="midnightblue" d="M706.124,-190.467C719.073,-175.797 741.518,-145.229 727,-123 727,-123 675.075,-100.198 641.008,-85.2382"/>
<polygon fill="midnightblue" stroke="midnightblue" points="642.072,-81.8828 631.508,-81.0666 639.257,-88.292 642.072,-81.8828"/>
</g>
<!-- Node8&#45;&gt;Node15 -->
<g id="edge16" class="edge"><title>Node8&#45;&gt;Node15</title>
<path fill="none" stroke="midnightblue" d="M724.05,-194.91C782.949,-185.664 927.818,-162.92 1012.52,-149.623"/>
<polygon fill="midnightblue" stroke="midnightblue" points="1013.2,-153.059 1022.54,-148.05 1012.12,-146.143 1013.2,-153.059"/>
</g>
<!-- Node16 -->
<g id="node17" class="node"><title>Node16</title>
<polygon fill="none" stroke="#bfbfbf" points="912.5,-62 912.5,-81 971.5,-81 971.5,-62 912.5,-62"/>
<text text-anchor="middle" x="942" y="-69" font-family="Helvetica,sans-Serif" font-size="10.00">iostream</text>
</g>
<!-- Node8&#45;&gt;Node16 -->
<g id="edge18" class="edge"><title>Node8&#45;&gt;Node16</title>
<path fill="none" stroke="midnightblue" d="M724.031,-198.335C762.236,-196.192 834.332,-187.604 884,-154 907.544,-138.07 924.693,-109.191 933.998,-90.4355"/>
<polygon fill="midnightblue" stroke="midnightblue" points="937.252,-91.7411 938.352,-81.2035 930.921,-88.7552 937.252,-91.7411"/>
</g>
<!-- Node17 -->
<g id="node18" class="node"><title>Node17</title>
<polygon fill="none" stroke="#bfbfbf" points="459,-123.5 459,-153.5 563,-153.5 563,-123.5 459,-123.5"/>
<text text-anchor="start" x="467" y="-141.5" font-family="Helvetica,sans-Serif" font-size="10.00">boost/serialization</text>
<text text-anchor="middle" x="511" y="-130.5" font-family="Helvetica,sans-Serif" font-size="10.00">/array.hpp</text>
</g>
<!-- Node8&#45;&gt;Node17 -->
<g id="edge20" class="edge"><title>Node8&#45;&gt;Node17</title>
<path fill="none" stroke="midnightblue" d="M671.998,-190.727C644.387,-181.941 599.96,-167.805 564.763,-156.606"/>
<polygon fill="midnightblue" stroke="midnightblue" points="565.692,-153.229 555.102,-153.532 563.57,-159.9 565.692,-153.229"/>
</g>
<!-- Node18 -->
<g id="node19" class="node"><title>Node18</title>
<polygon fill="none" stroke="#bfbfbf" points="581,-123.5 581,-153.5 685,-153.5 685,-123.5 581,-123.5"/>
<text text-anchor="start" x="589" y="-141.5" font-family="Helvetica,sans-Serif" font-size="10.00">boost/serialization</text>
<text text-anchor="middle" x="633" y="-130.5" font-family="Helvetica,sans-Serif" font-size="10.00">/string.hpp</text>
</g>
<!-- Node8&#45;&gt;Node18 -->
<g id="edge21" class="edge"><title>Node8&#45;&gt;Node18</title>
<path fill="none" stroke="midnightblue" d="M688.687,-190.475C680.131,-182.643 667.1,-170.714 655.794,-160.366"/>
<polygon fill="midnightblue" stroke="midnightblue" points="658.059,-157.693 648.319,-153.523 653.332,-162.857 658.059,-157.693"/>
</g>
<!-- Node19 -->
<g id="node20" class="node"><title>Node19</title>
<polygon fill="none" stroke="#bfbfbf" points="339.5,-129 339.5,-148 440.5,-148 440.5,-129 339.5,-129"/>
<text text-anchor="middle" x="390" y="-136" font-family="Helvetica,sans-Serif" font-size="10.00">boost/variant.hpp</text>
</g>
<!-- Node8&#45;&gt;Node19 -->
<g id="edge22" class="edge"><title>Node8&#45;&gt;Node19</title>
<path fill="none" stroke="midnightblue" d="M671.839,-194.763C626.507,-187.307 530.488,-171.013 450,-154 444.692,-152.878 439.137,-151.633 433.64,-150.357"/>
<polygon fill="midnightblue" stroke="midnightblue" points="434.412,-146.943 423.875,-148.047 432.801,-153.755 434.412,-146.943"/>
</g>
<!-- Node10 -->
<g id="node11" class="node"><title>Node10</title>
<polygon fill="none" stroke="#bfbfbf" points="752.5,-62 752.5,-81 829.5,-81 829.5,-62 752.5,-62"/>
<text text-anchor="middle" x="791" y="-69" font-family="Helvetica,sans-Serif" font-size="10.00">Eigen/Dense</text>
</g>
<!-- Node9&#45;&gt;Node10 -->
<g id="edge10" class="edge"><title>Node9&#45;&gt;Node10</title>
<path fill="none" stroke="midnightblue" d="M838.582,-128.734C830.006,-118.598 815.699,-101.69 805.009,-89.0556"/>
<polygon fill="midnightblue" stroke="midnightblue" points="807.431,-86.5004 798.3,-81.1273 802.088,-91.022 807.431,-86.5004"/>
</g>
<!-- Node11 -->
<g id="node12" class="node"><title>Node11</title>
<polygon fill="none" stroke="#bfbfbf" points="654,-62 654,-81 734,-81 734,-62 654,-62"/>
<text text-anchor="middle" x="694" y="-69" font-family="Helvetica,sans-Serif" font-size="10.00">Eigen/Sparse</text>
</g>
<!-- Node9&#45;&gt;Node11 -->
<g id="edge11" class="edge"><title>Node9&#45;&gt;Node11</title>
<path fill="none" stroke="midnightblue" d="M825.816,-128.869C799.696,-117.699 753.974,-98.1468 723.839,-85.2602"/>
<polygon fill="midnightblue" stroke="midnightblue" points="724.839,-81.881 714.268,-81.1672 722.086,-88.3173 724.839,-81.881"/>
</g>
<!-- Node9&#45;&gt;Node12 -->
<g id="edge12" class="edge"><title>Node9&#45;&gt;Node12</title>
<path fill="none" stroke="midnightblue" d="M822.999,-128.96C816.588,-126.795 809.577,-124.626 803,-123 705.112,-98.8072 674.98,-117.904 579,-87 577.379,-86.4781 575.736,-85.8771 574.1,-85.223"/>
<polygon fill="midnightblue" stroke="midnightblue" points="575.535,-82.031 564.984,-81.0763 572.637,-88.4028 575.535,-82.031"/>
</g>
<!-- Node9&#45;&gt;Node13 -->
<g id="edge13" class="edge"><title>Node9&#45;&gt;Node13</title>
<path fill="none" stroke="midnightblue" d="M822.027,-128.938C815.865,-126.869 809.218,-124.752 803,-123 733.677,-103.468 713.388,-109.588 645,-87 643.128,-86.3818 641.217,-85.6961 639.306,-84.9691"/>
<polygon fill="midnightblue" stroke="midnightblue" points="640.493,-81.673 629.913,-81.1084 637.832,-88.1474 640.493,-81.673"/>
</g>
<!-- Node9&#45;&gt;Node14 -->
<g id="edge14" class="edge"><title>Node9&#45;&gt;Node14</title>
<path fill="none" stroke="midnightblue" d="M849.372,-128.734C853.12,-118.988 859.277,-102.981 864.065,-90.5318"/>
<polygon fill="midnightblue" stroke="midnightblue" points="867.359,-91.7172 867.682,-81.1273 860.825,-89.2043 867.359,-91.7172"/>
</g>
<!-- Node24&#45;&gt;Node5 -->
<g id="edge60" class="edge"><title>Node24&#45;&gt;Node5</title>
<path fill="none" stroke="midnightblue" d="M934.449,-255.147C872.964,-247.359 758.824,-231.458 663,-210 631.843,-203.023 625.276,-196.425 594,-190 530.173,-176.888 349.329,-199.819 303,-154 286.614,-137.794 286.518,-109.624 288.685,-91.0191"/>
<polygon fill="midnightblue" stroke="midnightblue" points="292.151,-91.504 290.158,-81.0983 285.227,-90.4758 292.151,-91.504"/>
</g>
<!-- Node24&#45;&gt;Node9 -->
<g id="edge59" class="edge"><title>Node24&#45;&gt;Node9</title>
<path fill="none" stroke="midnightblue" d="M969.435,-251.798C947.1,-231.478 891.271,-180.686 862.99,-154.957"/>
<polygon fill="midnightblue" stroke="midnightblue" points="865.231,-152.264 855.478,-148.123 860.52,-157.442 865.231,-152.264"/>
</g>
<!-- Node24&#45;&gt;Node14 -->
<g id="edge61" class="edge"><title>Node24&#45;&gt;Node14</title>
<path fill="none" stroke="midnightblue" d="M976.218,-251.973C968.715,-229.646 946.617,-168.086 917,-123 908.658,-110.3 897.143,-97.6629 887.722,-88.2067"/>
<polygon fill="midnightblue" stroke="midnightblue" points="890.018,-85.5572 880.415,-81.0802 885.13,-90.5682 890.018,-85.5572"/>
</g>
<!-- Node25 -->
<g id="node26" class="node"><title>Node25</title>
<g id="a_node26"><a xlink:href="QuantumDefect_8h.html" target="_top" xlink:title="QuantumDefect.h">
<polygon fill="none" stroke="black" points="1159,-190.5 1159,-209.5 1261,-209.5 1261,-190.5 1159,-190.5"/>
<text text-anchor="middle" x="1210" y="-197.5" font-family="Helvetica,sans-Serif" font-size="10.00">QuantumDefect.h</text>
</a>
</g>
</g>
<!-- Node24&#45;&gt;Node25 -->
<g id="edge31" class="edge"><title>Node24&#45;&gt;Node25</title>
<path fill="none" stroke="midnightblue" d="M1012.1,-251.975C1052.92,-241.459 1122.41,-223.562 1167.24,-212.014"/>
<polygon fill="midnightblue" stroke="midnightblue" points="1168.15,-215.393 1176.96,-209.509 1166.41,-208.614 1168.15,-215.393"/>
</g>
<!-- Node25&#45;&gt;Node5 -->
<g id="edge55" class="edge"><title>Node25&#45;&gt;Node5</title>
<path fill="none" stroke="midnightblue" d="M1158.86,-195.809C1082.12,-190.451 932.86,-177.818 808,-154 756.423,-144.161 745.509,-133.186 694,-123 558.088,-96.1224 393.348,-80.7096 324.593,-75.0302"/>
<polygon fill="midnightblue" stroke="midnightblue" points="324.652,-71.5235 314.402,-74.202 324.085,-78.5005 324.652,-71.5235"/>
</g>
<!-- Node25&#45;&gt;Node9 -->
<g id="edge53" class="edge"><title>Node25&#45;&gt;Node9</title>
<path fill="none" stroke="midnightblue" d="M1158.62,-190.601C1085.14,-178.591 951.631,-156.767 885.417,-145.943"/>
<polygon fill="midnightblue" stroke="midnightblue" points="885.821,-142.463 875.387,-144.304 884.691,-149.371 885.821,-142.463"/>
</g>
<!-- Node25&#45;&gt;Node15 -->
<g id="edge58" class="edge"><title>Node25&#45;&gt;Node15</title>
<path fill="none" stroke="midnightblue" d="M1190.94,-190.475C1168.53,-180.445 1131.09,-163.7 1105.29,-152.155"/>
<polygon fill="midnightblue" stroke="midnightblue" points="1106.58,-148.898 1096.02,-148.009 1103.72,-155.288 1106.58,-148.898"/>
</g>
<!-- Node26 -->
<g id="node27" class="node"><title>Node26</title>
<g id="a_node27"><a xlink:href="Cache_8h.html" target="_top" xlink:title="Cache.h">
<polygon fill="none" stroke="black" points="1355,-129 1355,-148 1411,-148 1411,-129 1355,-129"/>
<text text-anchor="middle" x="1383" y="-136" font-family="Helvetica,sans-Serif" font-size="10.00">Cache.h</text>
</a>
</g>
</g>
<!-- Node25&#45;&gt;Node26 -->
<g id="edge32" class="edge"><title>Node25&#45;&gt;Node26</title>
<path fill="none" stroke="midnightblue" d="M1235.12,-190.385C1261.49,-181.336 1304.17,-166.685 1341,-154 1343.43,-153.165 1345.93,-152.302 1348.45,-151.433"/>
<polygon fill="midnightblue" stroke="midnightblue" points="1349.82,-154.664 1358.13,-148.094 1347.53,-148.046 1349.82,-154.664"/>
</g>
<!-- Node27 -->
<g id="node28" class="node"><title>Node27</title>
<polygon fill="none" stroke="#bfbfbf" points="1544.5,-62 1544.5,-81 1591.5,-81 1591.5,-62 1544.5,-62"/>
<text text-anchor="middle" x="1568" y="-69" font-family="Helvetica,sans-Serif" font-size="10.00">mutex</text>
</g>
<!-- Node25&#45;&gt;Node27 -->
<g id="edge54" class="edge"><title>Node25&#45;&gt;Node27</title>
<path fill="none" stroke="midnightblue" d="M1222.1,-190.454C1245.1,-174.627 1297.2,-140.754 1346,-123 1426.36,-93.7666 1453.34,-112.361 1535,-87 1536.93,-86.4015 1538.89,-85.7236 1540.86,-84.9959"/>
<polygon fill="midnightblue" stroke="midnightblue" points="1542.53,-88.0935 1550.47,-81.0787 1539.89,-81.611 1542.53,-88.0935"/>
</g>
<!-- Node25&#45;&gt;Node28 -->
<g id="edge57" class="edge"><title>Node25&#45;&gt;Node28</title>
<path fill="none" stroke="midnightblue" d="M1261.39,-194.8C1305.3,-189.649 1369.25,-178.372 1420,-154 1439.65,-144.565 1438,-131.671 1458,-123 1567.86,-75.3627 1607.5,-110.048 1725,-87 1730.1,-85.9987 1735.44,-84.809 1740.69,-83.5481"/>
<polygon fill="midnightblue" stroke="midnightblue" points="1741.78,-86.8845 1750.63,-81.0665 1740.08,-80.093 1741.78,-86.8845"/>
</g>
<!-- Node30 -->
<g id="node31" class="node"><title>Node30</title>
<g id="a_node31"><a xlink:href="SQLite_8h.html" target="_top" xlink:title="SQLite.h">
<polygon fill="none" stroke="black" points="1165.5,-129 1165.5,-148 1222.5,-148 1222.5,-129 1165.5,-129"/>
<text text-anchor="middle" x="1194" y="-136" font-family="Helvetica,sans-Serif" font-size="10.00">SQLite.h</text>
</a>
</g>
</g>
<!-- Node25&#45;&gt;Node30 -->
<g id="edge36" class="edge"><title>Node25&#45;&gt;Node30</title>
<path fill="none" stroke="midnightblue" d="M1207.71,-190.475C1205.43,-181.992 1201.85,-168.704 1198.93,-157.822"/>
<polygon fill="midnightblue" stroke="midnightblue" points="1202.26,-156.757 1196.29,-148.009 1195.51,-158.575 1202.26,-156.757"/>
</g>
<!-- Node25&#45;&gt;Node41 -->
<g id="edge56" class="edge"><title>Node25&#45;&gt;Node41</title>
<path fill="none" stroke="midnightblue" d="M1261.46,-192.663C1311.16,-185.8 1388.21,-173.19 1453,-154 1455.29,-153.322 1457.63,-152.546 1459.97,-151.711"/>
<polygon fill="midnightblue" stroke="midnightblue" points="1461.31,-154.943 1469.37,-148.065 1458.78,-148.417 1461.31,-154.943"/>
</g>
<!-- Node26&#45;&gt;Node27 -->
<g id="edge33" class="edge"><title>Node26&#45;&gt;Node27</title>
<path fill="none" stroke="midnightblue" d="M1407.41,-128.999C1413.17,-127.013 1419.3,-124.918 1425,-123 1473.76,-106.606 1486.95,-105.368 1535,-87 1536.61,-86.3855 1538.25,-85.7357 1539.9,-85.0653"/>
<polygon fill="midnightblue" stroke="midnightblue" points="1541.43,-88.2176 1549.28,-81.1021 1538.71,-81.7693 1541.43,-88.2176"/>
</g>
<!-- Node26&#45;&gt;Node28 -->
<g id="edge34" class="edge"><title>Node26&#45;&gt;Node28</title>
<path fill="none" stroke="midnightblue" d="M1404.98,-128.927C1411.35,-126.709 1418.38,-124.521 1425,-123 1555.88,-92.9177 1593.04,-111.886 1725,-87 1730.17,-86.0247 1735.57,-84.841 1740.89,-83.5752"/>
<polygon fill="midnightblue" stroke="midnightblue" points="1742.08,-86.8856 1750.94,-81.0728 1740.39,-80.0931 1742.08,-86.8856"/>
</g>
<!-- Node29 -->
<g id="node30" class="node"><title>Node29</title>
<polygon fill="none" stroke="#bfbfbf" points="1610,-62 1610,-81 1716,-81 1716,-62 1610,-62"/>
<text text-anchor="middle" x="1663" y="-69" font-family="Helvetica,sans-Serif" font-size="10.00">boost/optional.hpp</text>
</g>
<!-- Node26&#45;&gt;Node29 -->
<g id="edge35" class="edge"><title>Node26&#45;&gt;Node29</title>
<path fill="none" stroke="midnightblue" d="M1405.94,-128.98C1412.08,-126.864 1418.75,-124.714 1425,-123 1501.58,-101.999 1522.41,-103.906 1600,-87 1605.41,-85.8201 1611.08,-84.556 1616.71,-83.284"/>
<polygon fill="midnightblue" stroke="midnightblue" points="1617.75,-86.6371 1626.72,-81.0024 1616.19,-79.8121 1617.75,-86.6371"/>
</g>
<!-- Node30&#45;&gt;Node4 -->
<g id="edge40" class="edge"><title>Node30&#45;&gt;Node4</title>
<path fill="none" stroke="midnightblue" d="M1175.04,-128.858C1169.07,-126.523 1162.37,-124.288 1156,-123 704.865,-31.716 571.721,-180.307 121,-87 117.989,-86.3767 114.906,-85.5311 111.866,-84.5594"/>
<polygon fill="midnightblue" stroke="midnightblue" points="113.04,-81.2624 102.446,-81.1437 110.654,-87.8432 113.04,-81.2624"/>
</g>
<!-- Node30&#45;&gt;Node5 -->
<g id="edge41" class="edge"><title>Node30&#45;&gt;Node5</title>
<path fill="none" stroke="midnightblue" d="M1175.02,-128.944C1169.05,-126.612 1162.35,-124.358 1156,-123 879.132,-63.833 802.609,-103.985 520,-87 450.14,-82.8014 368.265,-77.502 324.127,-74.6139"/>
<polygon fill="midnightblue" stroke="midnightblue" points="324.214,-71.1122 314.007,-73.9507 323.756,-78.0973 324.214,-71.1122"/>
</g>
<!-- Node30&#45;&gt;Node16 -->
<g id="edge37" class="edge"><title>Node30&#45;&gt;Node16</title>
<path fill="none" stroke="midnightblue" d="M1173.29,-128.93C1167.74,-126.814 1161.69,-124.677 1156,-123 1081.92,-101.167 1060.57,-107.116 986,-87 982.816,-86.1411 979.524,-85.1853 976.239,-84.1858"/>
<polygon fill="midnightblue" stroke="midnightblue" points="977.114,-80.7917 966.524,-81.1091 975,-87.4651 977.114,-80.7917"/>
</g>
<!-- Node30&#45;&gt;Node21 -->
<g id="edge38" class="edge"><title>Node30&#45;&gt;Node21</title>
<path fill="none" stroke="midnightblue" d="M1217.97,-128.926C1224.13,-126.858 1230.78,-124.744 1237,-123 1307.18,-103.328 1327.22,-108.047 1397,-87 1399.57,-86.2239 1402.22,-85.3581 1404.87,-84.4464"/>
<polygon fill="midnightblue" stroke="midnightblue" points="1406.08,-87.7294 1414.28,-81.0216 1403.69,-81.1511 1406.08,-87.7294"/>
</g>
<!-- Node31 -->
<g id="node32" class="node"><title>Node31</title>
<polygon fill="none" stroke="#bfbfbf" points="1105,-0.5 1105,-19.5 1159,-19.5 1159,-0.5 1105,-0.5"/>
<text text-anchor="middle" x="1132" y="-7.5" font-family="Helvetica,sans-Serif" font-size="10.00">random</text>
</g>
<!-- Node30&#45;&gt;Node31 -->
<g id="edge39" class="edge"><title>Node30&#45;&gt;Node31</title>
<path fill="none" stroke="midnightblue" d="M1172.84,-128.964C1167.39,-126.894 1161.51,-124.77 1156,-123 1096.06,-103.75 1057.45,-136.854 1019,-87 1010.59,-76.0897 1011.27,-67.403 1019,-56 1035.85,-31.1598 1068.82,-20.031 1094.82,-15.0454"/>
<polygon fill="midnightblue" stroke="midnightblue" points="1095.47,-18.4846 1104.75,-13.3671 1094.31,-11.5825 1095.47,-18.4846"/>
</g>
<!-- Node32 -->
<g id="node33" class="node"><title>Node32</title>
<polygon fill="none" stroke="#bfbfbf" points="1028,-62 1028,-81 1076,-81 1076,-62 1028,-62"/>
<text text-anchor="middle" x="1052" y="-69" font-family="Helvetica,sans-Serif" font-size="10.00">thread</text>
</g>
<!-- Node30&#45;&gt;Node32 -->
<g id="edge42" class="edge"><title>Node30&#45;&gt;Node32</title>
<path fill="none" stroke="midnightblue" d="M1175.14,-128.869C1150.85,-117.748 1108.4,-98.3167 1080.24,-85.4286"/>
<polygon fill="midnightblue" stroke="midnightblue" points="1081.48,-82.147 1070.93,-81.1672 1078.57,-88.5118 1081.48,-82.147"/>
</g>
<!-- Node33 -->
<g id="node34" class="node"><title>Node33</title>
<polygon fill="none" stroke="#bfbfbf" points="1189,-0.5 1189,-19.5 1257,-19.5 1257,-0.5 1189,-0.5"/>
<text text-anchor="middle" x="1223" y="-7.5" font-family="Helvetica,sans-Serif" font-size="10.00">type_traits</text>
</g>
<!-- Node30&#45;&gt;Node33 -->
<g id="edge43" class="edge"><title>Node30&#45;&gt;Node33</title>
<path fill="none" stroke="midnightblue" d="M1172.57,-128.906C1155.69,-120.851 1133.33,-107.03 1123,-87 1116.68,-74.7556 1115.52,-67.5699 1123,-56 1135.49,-36.678 1158.48,-25.5703 1179.26,-19.2274"/>
<polygon fill="midnightblue" stroke="midnightblue" points="1180.22,-22.5953 1188.92,-16.5586 1178.35,-15.8481 1180.22,-22.5953"/>
</g>
<!-- Node34 -->
<g id="node35" class="node"><title>Node34</title>
<polygon fill="none" stroke="#bfbfbf" points="1132,-56.5 1132,-86.5 1252,-86.5 1252,-56.5 1132,-56.5"/>
<text text-anchor="start" x="1140" y="-74.5" font-family="Helvetica,sans-Serif" font-size="10.00">boost/iterator/iterator</text>
<text text-anchor="middle" x="1192" y="-63.5" font-family="Helvetica,sans-Serif" font-size="10.00">_facade.hpp</text>
</g>
<!-- Node30&#45;&gt;Node34 -->
<g id="edge44" class="edge"><title>Node30&#45;&gt;Node34</title>
<path fill="none" stroke="midnightblue" d="M1193.73,-128.734C1193.48,-120.541 1193.09,-107.923 1192.75,-96.7136"/>
<polygon fill="midnightblue" stroke="midnightblue" points="1196.24,-96.4766 1192.43,-86.589 1189.24,-96.692 1196.24,-96.4766"/>
</g>
<!-- Node35 -->
<g id="node36" class="node"><title>Node35</title>
<polygon fill="none" stroke="#bfbfbf" points="1270.5,-62 1270.5,-81 1327.5,-81 1327.5,-62 1270.5,-62"/>
<text text-anchor="middle" x="1299" y="-69" font-family="Helvetica,sans-Serif" font-size="10.00">sqlite3.h</text>
</g>
<!-- Node30&#45;&gt;Node35 -->
<g id="edge45" class="edge"><title>Node30&#45;&gt;Node35</title>
<path fill="none" stroke="midnightblue" d="M1208.16,-128.734C1225.71,-117.867 1255.84,-99.2161 1276.56,-86.3931"/>
<polygon fill="midnightblue" stroke="midnightblue" points="1278.4,-89.3668 1285.06,-81.1273 1274.72,-83.415 1278.4,-89.3668"/>
</g>
<!-- Node36 -->
<g id="node37" class="node"><title>Node36</title>
<polygon fill="none" stroke="#bfbfbf" points="1346,-62 1346,-81 1388,-81 1388,-62 1346,-62"/>
<text text-anchor="middle" x="1367" y="-69" font-family="Helvetica,sans-Serif" font-size="10.00">utility</text>
</g>
<!-- Node30&#45;&gt;Node36 -->
<g id="edge46" class="edge"><title>Node30&#45;&gt;Node36</title>
<path fill="none" stroke="midnightblue" d="M1218.93,-128.956C1253.54,-117.04 1314.34,-95.8945 1336,-87 1337.37,-86.4358 1338.78,-85.8436 1340.19,-85.2341"/>
<polygon fill="midnightblue" stroke="midnightblue" points="1341.74,-88.372 1349.42,-81.077 1338.87,-81.9884 1341.74,-88.372"/>
</g>
<!-- Node30&#45;&gt;Node37 -->
<g id="edge47" class="edge"><title>Node30&#45;&gt;Node37</title>
<path fill="none" stroke="midnightblue" d="M1222.57,-134.655C1273.57,-129.062 1383.27,-114.699 1472,-87 1473.88,-86.4139 1475.79,-85.7453 1477.7,-85.0244"/>
<polygon fill="midnightblue" stroke="midnightblue" points="1479.16,-88.2089 1487.03,-81.1225 1476.46,-81.7506 1479.16,-88.2089"/>
</g>
<!-- Node37&#45;&gt;Node31 -->
<g id="edge50" class="edge"><title>Node37&#45;&gt;Node31</title>
<path fill="none" stroke="midnightblue" d="M1487.75,-61.9903C1482.81,-59.7188 1477.28,-57.4856 1472,-56 1346.12,-20.6108 1309.21,-40.0587 1180,-20 1176.5,-19.4568 1172.87,-18.8513 1169.23,-18.2182"/>
<polygon fill="midnightblue" stroke="midnightblue" points="1169.57,-14.7234 1159.11,-16.3902 1168.33,-21.6119 1169.57,-14.7234"/>
</g>
<!-- Node37&#45;&gt;Node33 -->
<g id="edge51" class="edge"><title>Node37&#45;&gt;Node33</title>
<path fill="none" stroke="midnightblue" d="M1487.03,-61.8745C1482.26,-59.7092 1477.01,-57.5607 1472,-56 1402.11,-34.2176 1317.7,-21.7254 1267.28,-15.6586"/>
<polygon fill="midnightblue" stroke="midnightblue" points="1267.4,-12.1483 1257.06,-14.4605 1266.59,-19.1007 1267.4,-12.1483"/>
</g>
<!-- Node38 -->
<g id="node39" class="node"><title>Node38</title>
<polygon fill="none" stroke="#bfbfbf" points="1549.5,-0.5 1549.5,-19.5 1606.5,-19.5 1606.5,-0.5 1549.5,-0.5"/>
<text text-anchor="middle" x="1578" y="-7.5" font-family="Helvetica,sans-Serif" font-size="10.00">complex</text>
</g>
<!-- Node37&#45;&gt;Node38 -->
<g id="edge48" class="edge"><title>Node37&#45;&gt;Node38</title>
<path fill="none" stroke="midnightblue" d="M1514.6,-61.9751C1526.25,-52.6082 1545.19,-37.3839 1559.33,-26.0081"/>
<polygon fill="midnightblue" stroke="midnightblue" points="1561.82,-28.503 1567.42,-19.5091 1557.43,-23.0477 1561.82,-28.503"/>
</g>
<!-- Node39 -->
<g id="node40" class="node"><title>Node39</title>
<polygon fill="none" stroke="#bfbfbf" points="1395.5,-0.5 1395.5,-19.5 1458.5,-19.5 1458.5,-0.5 1395.5,-0.5"/>
<text text-anchor="middle" x="1427" y="-7.5" font-family="Helvetica,sans-Serif" font-size="10.00">functional</text>
</g>
<!-- Node37&#45;&gt;Node39 -->
<g id="edge49" class="edge"><title>Node37&#45;&gt;Node39</title>
<path fill="none" stroke="midnightblue" d="M1492.97,-61.9751C1480.73,-52.5199 1460.77,-37.0961 1446.01,-25.6871"/>
<polygon fill="midnightblue" stroke="midnightblue" points="1448.06,-22.8541 1438.01,-19.5091 1443.78,-28.3931 1448.06,-22.8541"/>
</g>
<!-- Node40 -->
<g id="node41" class="node"><title>Node40</title>
<polygon fill="none" stroke="#bfbfbf" points="1476.5,-0.5 1476.5,-19.5 1531.5,-19.5 1531.5,-0.5 1476.5,-0.5"/>
<text text-anchor="middle" x="1504" y="-7.5" font-family="Helvetica,sans-Serif" font-size="10.00">unistd.h</text>
</g>
<!-- Node37&#45;&gt;Node40 -->
<g id="edge52" class="edge"><title>Node37&#45;&gt;Node40</title>
<path fill="none" stroke="midnightblue" d="M1504,-61.9751C1504,-53.5803 1504,-40.4806 1504,-29.6631"/>
<polygon fill="midnightblue" stroke="midnightblue" points="1507.5,-29.5091 1504,-19.5091 1500.5,-29.5091 1507.5,-29.5091"/>
</g>
</g>
</svg>
        <g id="navigator" transform="translate(0 0)" fill="#404254">
                <rect fill="#f2f5e9" fill-opacity="0.5" stroke="#606060" stroke-width=".5" x="0" y="0" width="60" height="60"/>
                <use id="zoomplus" xlink:href="#zoomPlus" x="17" y="9" onmousedown="handleZoom(evt,'in')"/>
                <use id="zoomminus" xlink:href="#zoomMin" x="42" y="9" onmousedown="handleZoom(evt,'out')"/>
                <use id="reset" xlink:href="#resetDef" x="30" y="36" onmousedown="handleReset()"/>
                <g id="arrowUp" xlink:href="#dirArrow" transform="translate(30 24)" onmousedown="handlePan(0,-1)">
                  <use xlink:href="#rim" fill="#404040">
                        <set attributeName="fill" to="#808080" begin="arrowUp.mouseover" end="arrowUp.mouseout"/>
                  </use>
                  <path fill="none" stroke="white" stroke-width="1.5" d="M0,-3.0v7 M-2.5,-0.5L0,-3.0L2.5,-0.5"/>
                </g>
                <g id="arrowRight" xlink:href="#dirArrow" transform="rotate(90) translate(36 -43)" onmousedown="handlePan(1,0)">
                  <use xlink:href="#rim" fill="#404040">
                        <set attributeName="fill" to="#808080" begin="arrowRight.mouseover" end="arrowRight.mouseout"/>
                  </use>
                  <path fill="none" stroke="white" stroke-width="1.5" d="M0,-3.0v7 M-2.5,-0.5L0,-3.0L2.5,-0.5"/>
                </g>
                <g id="arrowDown" xlink:href="#dirArrow" transform="rotate(180) translate(-30 -48)" onmousedown="handlePan(0,1)">
                  <use xlink:href="#rim" fill="#404040">
                        <set attributeName="fill" to="#808080" begin="arrowDown.mouseover" end="arrowDown.mouseout"/>
                  </use>
                  <path fill="none" stroke="white" stroke-width="1.5" d="M0,-3.0v7 M-2.5,-0.5L0,-3.0L2.5,-0.5"/>
                </g>
                <g id="arrowLeft" xlink:href="#dirArrow" transform="rotate(270) translate(-36 17)" onmousedown="handlePan(-1,0)">
                  <use xlink:href="#rim" fill="#404040">
                        <set attributeName="fill" to="#808080" begin="arrowLeft.mouseover" end="arrowLeft.mouseout"/>
                  </use>
                  <path fill="none" stroke="white" stroke-width="1.5" d="M0,-3.0v7 M-2.5,-0.5L0,-3.0L2.5,-0.5"/>
                </g>
        </g>
        <svg viewBox="0 0 15 15" width="100%" height="30px" preserveAspectRatio="xMaxYMin meet">
         <g id="arrow_out" transform="scale(0.3 0.3)">
          <a xlink:href="MatrixElementCache_8h__incl_org.svg" target="_base">
           <rect id="button" ry="5" rx="5" y="6" x="6" height="38" width="38"
                fill="#f2f5e9" fill-opacity="0.5" stroke="#606060" stroke-width="1.0"/>
           <path id="arrow"
             d="M 11.500037,31.436501 C 11.940474,20.09759 22.043105,11.32322 32.158766,21.979434 L 37.068811,17.246167 C 37.068811,17.246167 37.088388,32 37.088388,32 L 22.160133,31.978069 C 22.160133,31.978069 26.997745,27.140456 26.997745,27.140456 C 18.528582,18.264221 13.291696,25.230495 11.500037,31.436501 z"
             style="fill:#404040;"/>
          </a>
         </g>
        </svg>
</svg>
