<?xml version="1.0" encoding="UTF-8" standalone="no"?>
<!DOCTYPE svg PUBLIC "-//W3C//DTD SVG 1.1//EN"
 "http://www.w3.org/Graphics/SVG/1.1/DTD/svg11.dtd">
<!-- Generated by graphviz version 2.38.0 (20140413.2041)
 -->
<!-- Title: /travis/libpairinteraction/MatrixElementCache.h Pages: 1 -->
<svg width="579pt" height="307pt"
 viewBox="0.00 0.00 579.00 307.00" xmlns="http://www.w3.org/2000/svg" xmlns:xlink="http://www.w3.org/1999/xlink">
<g id="graph0" class="graph" transform="scale(1 1) rotate(0) translate(4 303)">
<title>/travis/libpairinteraction/MatrixElementCache.h</title>
<!-- Node46 -->
<g id="node1" class="node"><title>Node46</title>
<polygon fill="#bfbfbf" stroke="black" points="237.5,-268.5 237.5,-298.5 365.5,-298.5 365.5,-268.5 237.5,-268.5"/>
<text text-anchor="start" x="245.5" y="-286.5" font-family="Helvetica,sans-Serif" font-size="10.00">/travis/libpairinteraction</text>
<text text-anchor="middle" x="301.5" y="-275.5" font-family="Helvetica,sans-Serif" font-size="10.00">/MatrixElementCache.h</text>
</g>
<!-- Node47 -->
<g id="node2" class="node"><title>Node47</title>
<g id="a_node2"><a xlink:href="MatrixElementCache_8cpp.html" target="_top" xlink:title="/travis/libpairinteraction\l/MatrixElementCache.cpp">
<polygon fill="none" stroke="black" points="0,-201.5 0,-231.5 139,-231.5 139,-201.5 0,-201.5"/>
<text text-anchor="start" x="8" y="-219.5" font-family="Helvetica,sans-Serif" font-size="10.00">/travis/libpairinteraction</text>
<text text-anchor="middle" x="69.5" y="-208.5" font-family="Helvetica,sans-Serif" font-size="10.00">/MatrixElementCache.cpp</text>
</a>
</g>
</g>
<!-- Node46&#45;&gt;Node47 -->
<g id="edge1" class="edge"><title>Node46&#45;&gt;Node47</title>
<path fill="none" stroke="midnightblue" d="M241.59,-265.715C203.836,-255.137 155.643,-241.635 119.865,-231.611"/>
<polygon fill="midnightblue" stroke="midnightblue" points="240.872,-269.148 251.445,-268.476 242.76,-262.408 240.872,-269.148"/>
</g>
<!-- Node48 -->
<g id="node3" class="node"><title>Node48</title>
<g id="a_node3"><a xlink:href="PerturbativeInteraction_8h.html" target="_top" xlink:title="/travis/libpairinteraction\l/PerturbativeInteraction.h">
<polygon fill="none" stroke="black" points="157.5,-201.5 157.5,-231.5 295.5,-231.5 295.5,-201.5 157.5,-201.5"/>
<text text-anchor="start" x="165.5" y="-219.5" font-family="Helvetica,sans-Serif" font-size="10.00">/travis/libpairinteraction</text>
<text text-anchor="middle" x="226.5" y="-208.5" font-family="Helvetica,sans-Serif" font-size="10.00">/PerturbativeInteraction.h</text>
</a>
</g>
</g>
<!-- Node46&#45;&gt;Node48 -->
<g id="edge2" class="edge"><title>Node46&#45;&gt;Node48</title>
<path fill="none" stroke="midnightblue" d="M277.382,-261.598C266.057,-251.783 252.859,-240.344 242.742,-231.577"/>
<polygon fill="midnightblue" stroke="midnightblue" points="275.377,-264.492 285.226,-268.396 279.961,-259.202 275.377,-264.492"/>
</g>
<!-- Node50 -->
<g id="node5" class="node"><title>Node50</title>
<g id="a_node5"><a xlink:href="SystemBase_8h.html" target="_top" xlink:title="/travis/libpairinteraction\l/SystemBase.h">
<polygon fill="none" stroke="black" points="313.5,-201.5 313.5,-231.5 441.5,-231.5 441.5,-201.5 313.5,-201.5"/>
<text text-anchor="start" x="321.5" y="-219.5" font-family="Helvetica,sans-Serif" font-size="10.00">/travis/libpairinteraction</text>
<text text-anchor="middle" x="377.5" y="-208.5" font-family="Helvetica,sans-Serif" font-size="10.00">/SystemBase.h</text>
</a>
</g>
</g>
<!-- Node46&#45;&gt;Node50 -->
<g id="edge4" class="edge"><title>Node46&#45;&gt;Node50</title>
<path fill="none" stroke="midnightblue" d="M325.606,-261.883C337.155,-252.005 350.69,-240.429 361.041,-231.577"/>
<polygon fill="midnightblue" stroke="midnightblue" points="323.316,-259.236 317.991,-268.396 327.865,-264.556 323.316,-259.236"/>
</g>
<!-- Node55 -->
<g id="node10" class="node"><title>Node55</title>
<g id="a_node10"><a xlink:href="integration__test_8cpp.html" target="_top" xlink:title="/travis/libpairinteraction\l/unit_test/integration_test.cpp">
<polygon fill="none" stroke="black" points="410,-0.5 410,-30.5 571,-30.5 571,-0.5 410,-0.5"/>
<text text-anchor="start" x="418" y="-18.5" font-family="Helvetica,sans-Serif" font-size="10.00">/travis/libpairinteraction</text>
<text text-anchor="middle" x="490.5" y="-7.5" font-family="Helvetica,sans-Serif" font-size="10.00">/unit_test/integration_test.cpp</text>
</a>
</g>
</g>
<!-- Node46&#45;&gt;Node55 -->
<g id="edge12" class="edge"><title>Node46&#45;&gt;Node55</title>
<path fill="none" stroke="midnightblue" d="M375.554,-271.761C402.223,-264.507 430.608,-252.356 450.5,-232 505.685,-175.528 497.689,-69.0221 492.679,-30.693"/>
<polygon fill="midnightblue" stroke="midnightblue" points="374.664,-268.376 365.826,-274.218 376.378,-275.163 374.664,-268.376"/>
</g>
<!-- Node49 -->
<g id="node4" class="node"><title>Node49</title>
<g id="a_node4"><a xlink:href="PerturbativeInteraction_8cpp.html" target="_top" xlink:title="/travis/libpairinteraction\l/PerturbativeInteraction.cpp">
<polygon fill="none" stroke="black" points="130,-134.5 130,-164.5 279,-164.5 279,-134.5 130,-134.5"/>
<text text-anchor="start" x="138" y="-152.5" font-family="Helvetica,sans-Serif" font-size="10.00">/travis/libpairinteraction</text>
<text text-anchor="middle" x="204.5" y="-141.5" font-family="Helvetica,sans-Serif" font-size="10.00">/PerturbativeInteraction.cpp</text>
</a>
</g>
</g>
<!-- Node48&#45;&gt;Node49 -->
<g id="edge3" class="edge"><title>Node48&#45;&gt;Node49</title>
<path fill="none" stroke="midnightblue" d="M218.444,-191.697C215.36,-182.587 211.944,-172.493 209.264,-164.577"/>
<polygon fill="midnightblue" stroke="midnightblue" points="215.205,-193.046 221.726,-201.396 221.836,-190.802 215.205,-193.046"/>
</g>
<!-- Node51 -->
<g id="node6" class="node"><title>Node51</title>
<g id="a_node6"><a xlink:href="SystemOne_8h.html" target="_top" xlink:title="/travis/libpairinteraction\l/SystemOne.h">
<polygon fill="none" stroke="black" points="334.5,-134.5 334.5,-164.5 462.5,-164.5 462.5,-134.5 334.5,-134.5"/>
<text text-anchor="start" x="342.5" y="-152.5" font-family="Helvetica,sans-Serif" font-size="10.00">/travis/libpairinteraction</text>
<text text-anchor="middle" x="398.5" y="-141.5" font-family="Helvetica,sans-Serif" font-size="10.00">/SystemOne.h</text>
</a>
</g>
</g>
<!-- Node50&#45;&gt;Node51 -->
<g id="edge5" class="edge"><title>Node50&#45;&gt;Node51</title>
<path fill="none" stroke="midnightblue" d="M385.19,-191.697C388.133,-182.587 391.395,-172.493 393.952,-164.577"/>
<polygon fill="midnightblue" stroke="midnightblue" points="381.801,-190.804 382.057,-201.396 388.462,-192.956 381.801,-190.804"/>
</g>
<!-- Node53 -->
<g id="node8" class="node"><title>Node53</title>
<g id="a_node8"><a xlink:href="SystemTwo_8h.html" target="_top" xlink:title="/travis/libpairinteraction\l/SystemTwo.h">
<polygon fill="none" stroke="black" points="188.5,-67.5 188.5,-97.5 316.5,-97.5 316.5,-67.5 188.5,-67.5"/>
<text text-anchor="start" x="196.5" y="-85.5" font-family="Helvetica,sans-Serif" font-size="10.00">/travis/libpairinteraction</text>
<text text-anchor="middle" x="252.5" y="-74.5" font-family="Helvetica,sans-Serif" font-size="10.00">/SystemTwo.h</text>
</a>
</g>
</g>
<!-- Node50&#45;&gt;Node53 -->
<g id="edge11" class="edge"><title>Node50&#45;&gt;Node53</title>
<path fill="none" stroke="midnightblue" d="M354.848,-194.162C345.603,-185.285 334.898,-174.785 325.5,-165 303.394,-141.984 278.864,-114.078 264.611,-97.6113"/>
<polygon fill="midnightblue" stroke="midnightblue" points="352.557,-196.815 362.208,-201.186 357.39,-191.751 352.557,-196.815"/>
</g>
<!-- Node52 -->
<g id="node7" class="node"><title>Node52</title>
<g id="a_node7"><a xlink:href="SystemOne_8cpp.html" target="_top" xlink:title="/travis/libpairinteraction\l/SystemOne.cpp">
<polygon fill="none" stroke="black" points="334.5,-67.5 334.5,-97.5 462.5,-97.5 462.5,-67.5 334.5,-67.5"/>
<text text-anchor="start" x="342.5" y="-85.5" font-family="Helvetica,sans-Serif" font-size="10.00">/travis/libpairinteraction</text>
<text text-anchor="middle" x="398.5" y="-74.5" font-family="Helvetica,sans-Serif" font-size="10.00">/SystemOne.cpp</text>
</a>
</g>
</g>
<!-- Node51&#45;&gt;Node52 -->
<g id="edge6" class="edge"><title>Node51&#45;&gt;Node52</title>
<path fill="none" stroke="midnightblue" d="M398.5,-124.108C398.5,-115.154 398.5,-105.323 398.5,-97.5765"/>
<polygon fill="midnightblue" stroke="midnightblue" points="395,-124.396 398.5,-134.396 402,-124.396 395,-124.396"/>
</g>
<!-- Node51&#45;&gt;Node53 -->
<g id="edge7" class="edge"><title>Node51&#45;&gt;Node53</title>
<path fill="none" stroke="midnightblue" d="M357.55,-130.269C334.296,-119.916 305.628,-107.153 284.118,-97.5765"/>
<polygon fill="midnightblue" stroke="midnightblue" points="356.261,-133.526 366.82,-134.396 359.108,-127.131 356.261,-133.526"/>
</g>
<!-- Node51&#45;&gt;Node55 -->
<g id="edge10" class="edge"><title>Node51&#45;&gt;Node55</title>
<path fill="none" stroke="midnightblue" d="M437.154,-129.277C449.814,-121.222 462.838,-110.734 471.5,-98 485.473,-77.4578 489.256,-47.9948 490.228,-30.6943"/>
<polygon fill="midnightblue" stroke="midnightblue" points="435.282,-126.318 428.505,-134.462 438.881,-132.322 435.282,-126.318"/>
</g>
<!-- Node54 -->
<g id="node9" class="node"><title>Node54</title>
<g id="a_node9"><a xlink:href="SystemTwo_8cpp.html" target="_top" xlink:title="/travis/libpairinteraction\l/SystemTwo.cpp">
<polygon fill="none" stroke="black" points="188.5,-0.5 188.5,-30.5 316.5,-30.5 316.5,-0.5 188.5,-0.5"/>
<text text-anchor="start" x="196.5" y="-18.5" font-family="Helvetica,sans-Serif" font-size="10.00">/travis/libpairinteraction</text>
<text text-anchor="middle" x="252.5" y="-7.5" font-family="Helvetica,sans-Serif" font-size="10.00">/SystemTwo.cpp</text>
</a>
</g>
</g>
<!-- Node53&#45;&gt;Node54 -->
<g id="edge8" class="edge"><title>Node53&#45;&gt;Node54</title>
<path fill="none" stroke="midnightblue" d="M252.5,-57.1081C252.5,-48.1539 252.5,-38.3227 252.5,-30.5765"/>
<polygon fill="midnightblue" stroke="midnightblue" points="249,-57.3959 252.5,-67.396 256,-57.396 249,-57.3959"/>
</g>
<!-- Node53&#45;&gt;Node55 -->
<g id="edge9" class="edge"><title>Node53&#45;&gt;Node55</title>
<path fill="none" stroke="midnightblue" d="M313.959,-64.7149C352.689,-54.1373 402.129,-40.6348 438.832,-30.6109"/>
<polygon fill="midnightblue" stroke="midnightblue" points="312.574,-61.465 303.849,-67.476 314.418,-68.2177 312.574,-61.465"/>
</g>
</g>
</svg>
