<?xml version="1.0" encoding="UTF-8" standalone="no"?>
<!DOCTYPE svg PUBLIC "-//W3C//DTD SVG 1.1//EN"
 "http://www.w3.org/Graphics/SVG/1.1/DTD/svg11.dtd">
<!-- Generated by graphviz version 2.38.0 (20140413.2041)
 -->
<!-- Title: /travis/libpairinteraction/MatrixElements.cpp Pages: 1 -->
<svg width="2038pt" height="408pt"
 viewBox="0.00 0.00 2037.50 408.00" xmlns="http://www.w3.org/2000/svg" xmlns:xlink="http://www.w3.org/1999/xlink">
<g id="graph0" class="graph" transform="scale(1 1) rotate(0) translate(4 404)">
<title>/travis/libpairinteraction/MatrixElements.cpp</title>
<!-- Node0 -->
<g id="node1" class="node"><title>Node0</title>
<polygon fill="#bfbfbf" stroke="black" points="1504,-369.5 1504,-399.5 1632,-399.5 1632,-369.5 1504,-369.5"/>
<text text-anchor="start" x="1512" y="-387.5" font-family="Helvetica,sans-Serif" font-size="10.00">/travis/libpairinteraction</text>
<text text-anchor="middle" x="1568" y="-376.5" font-family="Helvetica,sans-Serif" font-size="10.00">/MatrixElements.cpp</text>
</g>
<!-- Node1 -->
<g id="node2" class="node"><title>Node1</title>
<g id="a_node2"><a xlink:href="MatrixElements_8h.html" target="_top" xlink:title="MatrixElements.h">
<polygon fill="none" stroke="black" points="938,-313.5 938,-332.5 1038,-332.5 1038,-313.5 938,-313.5"/>
<text text-anchor="middle" x="988" y="-320.5" font-family="Helvetica,sans-Serif" font-size="10.00">MatrixElements.h</text>
</a>
</g>
</g>
<!-- Node0&#45;&gt;Node1 -->
<g id="edge1" class="edge"><title>Node0&#45;&gt;Node1</title>
<path fill="none" stroke="midnightblue" d="M1503.99,-376.934C1391.26,-365.369 1158.82,-341.523 1048.57,-330.214"/>
<polygon fill="midnightblue" stroke="midnightblue" points="1048.59,-326.698 1038.29,-329.159 1047.88,-333.661 1048.59,-326.698"/>
</g>
<!-- Node5 -->
<g id="node6" class="node"><title>Node5</title>
<polygon fill="none" stroke="#bfbfbf" points="0,-62 0,-81 56,-81 56,-62 0,-62"/>
<text text-anchor="middle" x="28" y="-69" font-family="Helvetica,sans-Serif" font-size="10.00">sstream</text>
</g>
<!-- Node0&#45;&gt;Node5 -->
<g id="edge74" class="edge"><title>Node0&#45;&gt;Node5</title>
<path fill="none" stroke="midnightblue" d="M1503.98,-381.94C1210.62,-374.382 9,-338.767 9,-262.5 9,-262.5 9,-262.5 9,-199 9,-160.273 17.8162,-115.609 23.4377,-91.0661"/>
<polygon fill="midnightblue" stroke="midnightblue" points="26.9174,-91.5609 25.8205,-81.023 20.1065,-89.9449 26.9174,-91.5609"/>
</g>
<!-- Node6 -->
<g id="node7" class="node"><title>Node6</title>
<polygon fill="none" stroke="#bfbfbf" points="1004,-62 1004,-81 1048,-81 1048,-62 1004,-62"/>
<text text-anchor="middle" x="1026" y="-69" font-family="Helvetica,sans-Serif" font-size="10.00">string</text>
</g>
<!-- Node0&#45;&gt;Node6 -->
<g id="edge76" class="edge"><title>Node0&#45;&gt;Node6</title>
<path fill="none" stroke="midnightblue" d="M1535.94,-369.459C1462.25,-336.563 1276.27,-249.994 1135,-154 1102.54,-131.94 1066.31,-104.193 1044.87,-87.4283"/>
<polygon fill="midnightblue" stroke="midnightblue" points="1046.93,-84.5925 1036.9,-81.1677 1042.6,-90.0973 1046.93,-84.5925"/>
</g>
<!-- Node17 -->
<g id="node18" class="node"><title>Node17</title>
<polygon fill="none" stroke="#bfbfbf" points="1464.5,-62 1464.5,-81 1523.5,-81 1523.5,-62 1464.5,-62"/>
<text text-anchor="middle" x="1494" y="-69" font-family="Helvetica,sans-Serif" font-size="10.00">iostream</text>
</g>
<!-- Node0&#45;&gt;Node17 -->
<g id="edge72" class="edge"><title>Node0&#45;&gt;Node17</title>
<path fill="none" stroke="midnightblue" d="M1558.49,-369.295C1544.76,-347.369 1521,-303.516 1521,-262.5 1521,-262.5 1521,-262.5 1521,-199 1521,-159.857 1508.48,-115.373 1500.49,-90.9669"/>
<polygon fill="midnightblue" stroke="midnightblue" points="1503.73,-89.6049 1497.2,-81.2576 1497.1,-91.8519 1503.73,-89.6049"/>
</g>
<!-- Node26 -->
<g id="node27" class="node"><title>Node26</title>
<g id="a_node27"><a xlink:href="QuantumDefect_8h.html" target="_top" xlink:title="QuantumDefect.h">
<polygon fill="none" stroke="black" points="1235,-190.5 1235,-209.5 1337,-209.5 1337,-190.5 1235,-190.5"/>
<text text-anchor="middle" x="1286" y="-197.5" font-family="Helvetica,sans-Serif" font-size="10.00">QuantumDefect.h</text>
</a>
</g>
</g>
<!-- Node0&#45;&gt;Node26 -->
<g id="edge69" class="edge"><title>Node0&#45;&gt;Node26</title>
<path fill="none" stroke="midnightblue" d="M1546.34,-369.483C1493.9,-335.546 1360.57,-249.26 1307.89,-215.169"/>
<polygon fill="midnightblue" stroke="midnightblue" points="1309.61,-212.11 1299.31,-209.615 1305.81,-217.987 1309.61,-212.11"/>
</g>
<!-- Node31 -->
<g id="node32" class="node"><title>Node31</title>
<g id="a_node32"><a xlink:href="SQLite_8h.html" target="_top" xlink:title="SQLite.h">
<polygon fill="none" stroke="black" points="1549.5,-129 1549.5,-148 1606.5,-148 1606.5,-129 1549.5,-129"/>
<text text-anchor="middle" x="1578" y="-136" font-family="Helvetica,sans-Serif" font-size="10.00">SQLite.h</text>
</a>
</g>
</g>
<!-- Node0&#45;&gt;Node31 -->
<g id="edge70" class="edge"><title>Node0&#45;&gt;Node31</title>
<path fill="none" stroke="midnightblue" d="M1568.58,-369.327C1570.29,-327.607 1575.31,-205.228 1577.23,-158.203"/>
<polygon fill="midnightblue" stroke="midnightblue" points="1580.73,-158.33 1577.64,-148.195 1573.74,-158.044 1580.73,-158.33"/>
</g>
<!-- Node37 -->
<g id="node38" class="node"><title>Node37</title>
<polygon fill="none" stroke="#bfbfbf" points="1961,-62 1961,-81 2003,-81 2003,-62 1961,-62"/>
<text text-anchor="middle" x="1982" y="-69" font-family="Helvetica,sans-Serif" font-size="10.00">utility</text>
</g>
<!-- Node0&#45;&gt;Node37 -->
<g id="edge77" class="edge"><title>Node0&#45;&gt;Node37</title>
<path fill="none" stroke="midnightblue" d="M1577.42,-369.486C1587.93,-354.469 1605.97,-330.441 1625,-313 1736.91,-210.432 1896,-119.213 1956.93,-85.9111"/>
<polygon fill="midnightblue" stroke="midnightblue" points="1958.73,-88.9183 1965.85,-81.0708 1955.39,-82.7666 1958.73,-88.9183"/>
</g>
<!-- Node44 -->
<g id="node45" class="node"><title>Node44</title>
<polygon fill="none" stroke="#bfbfbf" points="1634,-313.5 1634,-332.5 1682,-332.5 1682,-313.5 1634,-313.5"/>
<text text-anchor="middle" x="1658" y="-320.5" font-family="Helvetica,sans-Serif" font-size="10.00">cctype</text>
</g>
<!-- Node0&#45;&gt;Node44 -->
<g id="edge71" class="edge"><title>Node0&#45;&gt;Node44</title>
<path fill="none" stroke="midnightblue" d="M1589.33,-369.399C1603.49,-360.04 1622.01,-347.792 1636.25,-338.377"/>
<polygon fill="midnightblue" stroke="midnightblue" points="1638.49,-341.092 1644.9,-332.658 1634.63,-335.253 1638.49,-341.092"/>
</g>
<!-- Node45 -->
<g id="node46" class="node"><title>Node45</title>
<polygon fill="none" stroke="#bfbfbf" points="1700,-313.5 1700,-332.5 1742,-332.5 1742,-313.5 1700,-313.5"/>
<text text-anchor="middle" x="1721" y="-320.5" font-family="Helvetica,sans-Serif" font-size="10.00">limits</text>
</g>
<!-- Node0&#45;&gt;Node45 -->
<g id="edge73" class="edge"><title>Node0&#45;&gt;Node45</title>
<path fill="none" stroke="midnightblue" d="M1604.26,-369.399C1630.35,-359.251 1665.18,-345.706 1689.99,-336.059"/>
<polygon fill="midnightblue" stroke="midnightblue" points="1691.57,-339.199 1699.63,-332.312 1689.04,-332.675 1691.57,-339.199"/>
</g>
<!-- Node46 -->
<g id="node47" class="node"><title>Node46</title>
<polygon fill="none" stroke="#bfbfbf" points="1760,-313.5 1760,-332.5 1824,-332.5 1824,-313.5 1760,-313.5"/>
<text text-anchor="middle" x="1792" y="-320.5" font-family="Helvetica,sans-Serif" font-size="10.00">stdexcept</text>
</g>
<!-- Node0&#45;&gt;Node46 -->
<g id="edge75" class="edge"><title>Node0&#45;&gt;Node46</title>
<path fill="none" stroke="midnightblue" d="M1620.8,-369.475C1660.29,-358.986 1713.56,-344.837 1750.13,-335.122"/>
<polygon fill="midnightblue" stroke="midnightblue" points="1751.21,-338.456 1759.98,-332.506 1749.41,-331.691 1751.21,-338.456"/>
</g>
<!-- Node47 -->
<g id="node48" class="node"><title>Node47</title>
<polygon fill="none" stroke="#bfbfbf" points="1842,-313.5 1842,-332.5 1942,-332.5 1942,-313.5 1842,-313.5"/>
<text text-anchor="middle" x="1892" y="-320.5" font-family="Helvetica,sans-Serif" font-size="10.00">boost/format.hpp</text>
</g>
<!-- Node0&#45;&gt;Node47 -->
<g id="edge78" class="edge"><title>Node0&#45;&gt;Node47</title>
<path fill="none" stroke="midnightblue" d="M1632.01,-371.745C1691.34,-360.85 1778.75,-344.798 1835.53,-334.37"/>
<polygon fill="midnightblue" stroke="midnightblue" points="1836.21,-337.804 1845.41,-332.555 1834.95,-330.919 1836.21,-337.804"/>
</g>
<!-- Node2 -->
<g id="node3" class="node"><title>Node2</title>
<g id="a_node3"><a xlink:href="Basisnames_8h.html" target="_top" xlink:title="Basisnames.h">
<polygon fill="none" stroke="black" points="652,-252 652,-271 736,-271 736,-252 652,-252"/>
<text text-anchor="middle" x="694" y="-259" font-family="Helvetica,sans-Serif" font-size="10.00">Basisnames.h</text>
</a>
</g>
</g>
<!-- Node1&#45;&gt;Node2 -->
<g id="edge2" class="edge"><title>Node1&#45;&gt;Node2</title>
<path fill="none" stroke="midnightblue" d="M945.877,-313.475C893.153,-302.805 802.872,-284.534 745.926,-273.009"/>
<polygon fill="midnightblue" stroke="midnightblue" points="746.54,-269.562 736.045,-271.009 745.152,-276.423 746.54,-269.562"/>
</g>
<!-- Node1&#45;&gt;Node5 -->
<g id="edge66" class="edge"><title>Node1&#45;&gt;Node5</title>
<path fill="none" stroke="midnightblue" d="M937.884,-322.124C839.079,-321.463 612.616,-315.441 427,-277 261.02,-242.626 192.145,-267.218 66,-154 47.3429,-137.255 37.1401,-109.449 32.1263,-91.0479"/>
<polygon fill="midnightblue" stroke="midnightblue" points="35.4948,-90.0895 29.6973,-81.2215 28.6993,-91.7693 35.4948,-90.0895"/>
</g>
<!-- Node1&#45;&gt;Node6 -->
<g id="edge67" class="edge"><title>Node1&#45;&gt;Node6</title>
<path fill="none" stroke="midnightblue" d="M1004.33,-313.387C1016.96,-305.72 1033.5,-293.213 1041,-277 1070.26,-213.78 1046.02,-127.722 1032.98,-90.679"/>
<polygon fill="midnightblue" stroke="midnightblue" points="1036.23,-89.3938 1029.5,-81.2111 1029.66,-91.8048 1036.23,-89.3938"/>
</g>
<!-- Node10 -->
<g id="node11" class="node"><title>Node10</title>
<g id="a_node11"><a xlink:href="dtypes_8h.html" target="_top" xlink:title="dtypes.h">
<polygon fill="none" stroke="black" points="611,-129 611,-148 669,-148 669,-129 611,-129"/>
<text text-anchor="middle" x="640" y="-136" font-family="Helvetica,sans-Serif" font-size="10.00">dtypes.h</text>
</a>
</g>
</g>
<!-- Node1&#45;&gt;Node10 -->
<g id="edge63" class="edge"><title>Node1&#45;&gt;Node10</title>
<path fill="none" stroke="midnightblue" d="M973.219,-313.498C935.766,-292.045 833.933,-234.272 747,-190 720.65,-176.581 690.101,-162.285 668.407,-152.342"/>
<polygon fill="midnightblue" stroke="midnightblue" points="669.66,-149.067 659.109,-148.099 666.753,-155.435 669.66,-149.067"/>
</g>
<!-- Node22 -->
<g id="node23" class="node"><title>Node22</title>
<polygon fill="none" stroke="#bfbfbf" points="1088.5,-62 1088.5,-81 1145.5,-81 1145.5,-62 1088.5,-62"/>
<text text-anchor="middle" x="1117" y="-69" font-family="Helvetica,sans-Serif" font-size="10.00">memory</text>
</g>
<!-- Node1&#45;&gt;Node22 -->
<g id="edge65" class="edge"><title>Node1&#45;&gt;Node22</title>
<path fill="none" stroke="midnightblue" d="M1009.99,-313.459C1026.1,-306.113 1047.29,-294 1060,-277 1103.2,-219.218 1113.66,-130.233 1116.19,-91.5485"/>
<polygon fill="midnightblue" stroke="midnightblue" points="1119.71,-91.4227 1116.75,-81.2479 1112.72,-91.0438 1119.71,-91.4227"/>
</g>
<!-- Node25 -->
<g id="node26" class="node"><title>Node25</title>
<g id="a_node26"><a xlink:href="Wavefunction_8h.html" target="_top" xlink:title="Wavefunction.h">
<polygon fill="none" stroke="black" points="943.5,-252 943.5,-271 1032.5,-271 1032.5,-252 943.5,-252"/>
<text text-anchor="middle" x="988" y="-259" font-family="Helvetica,sans-Serif" font-size="10.00">Wavefunction.h</text>
</a>
</g>
</g>
<!-- Node1&#45;&gt;Node25 -->
<g id="edge31" class="edge"><title>Node1&#45;&gt;Node25</title>
<path fill="none" stroke="midnightblue" d="M988,-313.475C988,-305.08 988,-291.981 988,-281.163"/>
<polygon fill="midnightblue" stroke="midnightblue" points="991.5,-281.009 988,-271.009 984.5,-281.009 991.5,-281.009"/>
</g>
<!-- Node29 -->
<g id="node30" class="node"><title>Node29</title>
<polygon fill="none" stroke="#bfbfbf" points="1353.5,-62 1353.5,-81 1446.5,-81 1446.5,-62 1353.5,-62"/>
<text text-anchor="middle" x="1400" y="-69" font-family="Helvetica,sans-Serif" font-size="10.00">unordered_map</text>
</g>
<!-- Node1&#45;&gt;Node29 -->
<g id="edge68" class="edge"><title>Node1&#45;&gt;Node29</title>
<path fill="none" stroke="midnightblue" d="M1037.25,-313.453C1108.81,-299.558 1244.12,-267.648 1346,-210 1378.6,-191.551 1393.65,-188.175 1409,-154 1418.09,-133.76 1412.77,-107.956 1407.23,-90.865"/>
<polygon fill="midnightblue" stroke="midnightblue" points="1410.37,-89.2656 1403.7,-81.0381 1403.78,-91.6326 1410.37,-89.2656"/>
</g>
<!-- Node43 -->
<g id="node44" class="node"><title>Node43</title>
<polygon fill="none" stroke="#bfbfbf" points="436.5,-246.5 436.5,-276.5 633.5,-276.5 633.5,-246.5 436.5,-246.5"/>
<text text-anchor="start" x="444.5" y="-264.5" font-family="Helvetica,sans-Serif" font-size="10.00">wignerSymbols/include</text>
<text text-anchor="middle" x="535" y="-253.5" font-family="Helvetica,sans-Serif" font-size="10.00">/wignerSymbols/wignerSymbols&#45;cpp.h</text>
</g>
<!-- Node1&#45;&gt;Node43 -->
<g id="edge64" class="edge"><title>Node1&#45;&gt;Node43</title>
<path fill="none" stroke="midnightblue" d="M937.713,-315.501C872.5,-307.06 754.936,-291.796 643.644,-277.082"/>
<polygon fill="midnightblue" stroke="midnightblue" points="643.959,-273.593 633.586,-275.752 643.041,-280.533 643.959,-273.593"/>
</g>
<!-- Node3 -->
<g id="node4" class="node"><title>Node3</title>
<g id="a_node4"><a xlink:href="ConfParser_8h.html" target="_top" xlink:title="ConfParser.h">
<polygon fill="none" stroke="black" points="75.5,-129 75.5,-148 152.5,-148 152.5,-129 75.5,-129"/>
<text text-anchor="middle" x="114" y="-136" font-family="Helvetica,sans-Serif" font-size="10.00">ConfParser.h</text>
</a>
</g>
</g>
<!-- Node2&#45;&gt;Node3 -->
<g id="edge3" class="edge"><title>Node2&#45;&gt;Node3</title>
<path fill="none" stroke="midnightblue" d="M666.387,-251.984C658.561,-249.794 649.994,-247.605 642,-246 515.528,-220.607 480.294,-236.264 354,-210 279.135,-194.431 193.716,-166.927 147.678,-151.271"/>
<polygon fill="midnightblue" stroke="midnightblue" points="148.795,-147.954 138.2,-148.025 146.527,-154.576 148.795,-147.954"/>
</g>
<!-- Node2&#45;&gt;Node6 -->
<g id="edge28" class="edge"><title>Node2&#45;&gt;Node6</title>
<path fill="none" stroke="midnightblue" d="M726.099,-251.96C776.836,-237.448 877.264,-204.542 950,-154 975.976,-135.95 999.773,-107.712 1013.58,-89.6623"/>
<polygon fill="midnightblue" stroke="midnightblue" points="1016.67,-91.3685 1019.84,-81.2601 1011.06,-87.1833 1016.67,-91.3685"/>
</g>
<!-- Node8 -->
<g id="node9" class="node"><title>Node8</title>
<g id="a_node9"><a xlink:href="Iter_8h.html" target="_top" xlink:title="Iter.h">
<polygon fill="none" stroke="black" points="697.5,-190.5 697.5,-209.5 738.5,-209.5 738.5,-190.5 697.5,-190.5"/>
<text text-anchor="middle" x="718" y="-197.5" font-family="Helvetica,sans-Serif" font-size="10.00">Iter.h</text>
</a>
</g>
</g>
<!-- Node2&#45;&gt;Node8 -->
<g id="edge8" class="edge"><title>Node2&#45;&gt;Node8</title>
<path fill="none" stroke="midnightblue" d="M697.439,-251.975C700.896,-243.404 706.332,-229.927 710.746,-218.983"/>
<polygon fill="midnightblue" stroke="midnightblue" points="714.073,-220.092 714.568,-209.509 707.581,-217.474 714.073,-220.092"/>
</g>
<!-- Node9 -->
<g id="node10" class="node"><title>Node9</title>
<g id="a_node10"><a xlink:href="State_8h.html" target="_top" xlink:title="State.h">
<polygon fill="none" stroke="black" points="435,-190.5 435,-209.5 487,-209.5 487,-190.5 435,-190.5"/>
<text text-anchor="middle" x="461" y="-197.5" font-family="Helvetica,sans-Serif" font-size="10.00">State.h</text>
</a>
</g>
</g>
<!-- Node2&#45;&gt;Node9 -->
<g id="edge9" class="edge"><title>Node2&#45;&gt;Node9</title>
<path fill="none" stroke="midnightblue" d="M664.07,-251.988C656.854,-249.982 649.161,-247.881 642,-246 580.39,-229.818 562.466,-226.607 497.33,-210.312"/>
<polygon fill="midnightblue" stroke="midnightblue" points="497.917,-206.851 487.366,-207.81 496.212,-213.64 497.917,-206.851"/>
</g>
<!-- Node2&#45;&gt;Node10 -->
<g id="edge24" class="edge"><title>Node2&#45;&gt;Node10</title>
<path fill="none" stroke="midnightblue" d="M690.116,-251.798C681.321,-232.089 659.73,-183.711 647.963,-157.342"/>
<polygon fill="midnightblue" stroke="midnightblue" points="651.12,-155.829 643.848,-148.123 644.728,-158.681 651.12,-155.829"/>
</g>
<!-- Node15 -->
<g id="node16" class="node"><title>Node15</title>
<polygon fill="none" stroke="#bfbfbf" points="711.5,-62 711.5,-81 758.5,-81 758.5,-62 711.5,-62"/>
<text text-anchor="middle" x="735" y="-69" font-family="Helvetica,sans-Serif" font-size="10.00">vector</text>
</g>
<!-- Node2&#45;&gt;Node15 -->
<g id="edge30" class="edge"><title>Node2&#45;&gt;Node15</title>
<path fill="none" stroke="midnightblue" d="M708.369,-251.746C721.219,-242.991 739.192,-228.225 747,-210 764.002,-170.315 751.128,-118.381 742.009,-91.0976"/>
<polygon fill="midnightblue" stroke="midnightblue" points="745.183,-89.576 738.542,-81.3209 738.586,-91.9156 745.183,-89.576"/>
</g>
<!-- Node21 -->
<g id="node22" class="node"><title>Node21</title>
<polygon fill="none" stroke="#bfbfbf" points="363,-190.5 363,-209.5 417,-209.5 417,-190.5 363,-190.5"/>
<text text-anchor="middle" x="390" y="-197.5" font-family="Helvetica,sans-Serif" font-size="10.00">fstream</text>
</g>
<!-- Node2&#45;&gt;Node21 -->
<g id="edge25" class="edge"><title>Node2&#45;&gt;Node21</title>
<path fill="none" stroke="midnightblue" d="M665.53,-251.97C657.926,-249.855 649.685,-247.707 642,-246 550.053,-225.579 523.014,-229.528 426.909,-210.041"/>
<polygon fill="midnightblue" stroke="midnightblue" points="427.574,-206.605 417.074,-208.014 426.161,-213.461 427.574,-206.605"/>
</g>
<!-- Node2&#45;&gt;Node22 -->
<g id="edge26" class="edge"><title>Node2&#45;&gt;Node22</title>
<path fill="none" stroke="midnightblue" d="M736.042,-252.34C774.795,-244.092 833.48,-229.744 882,-210 929.182,-190.801 937.968,-179.611 982,-154 1021.8,-130.851 1067.57,-102.945 1094.29,-86.5222"/>
<polygon fill="midnightblue" stroke="midnightblue" points="1096.22,-89.4414 1102.9,-81.2187 1092.55,-83.4803 1096.22,-89.4414"/>
</g>
<!-- Node23 -->
<g id="node24" class="node"><title>Node23</title>
<polygon fill="none" stroke="#bfbfbf" points="505,-190.5 505,-209.5 537,-209.5 537,-190.5 505,-190.5"/>
<text text-anchor="middle" x="521" y="-197.5" font-family="Helvetica,sans-Serif" font-size="10.00">set</text>
</g>
<!-- Node2&#45;&gt;Node23 -->
<g id="edge27" class="edge"><title>Node2&#45;&gt;Node23</title>
<path fill="none" stroke="midnightblue" d="M668.553,-251.961C640.876,-242.643 595.098,-227.139 546.81,-210.245"/>
<polygon fill="midnightblue" stroke="midnightblue" points="547.719,-206.855 537.124,-206.849 545.403,-213.461 547.719,-206.855"/>
</g>
<!-- Node24 -->
<g id="node25" class="node"><title>Node24</title>
<polygon fill="none" stroke="#bfbfbf" points="555,-190.5 555,-209.5 641,-209.5 641,-190.5 555,-190.5"/>
<text text-anchor="middle" x="598" y="-197.5" font-family="Helvetica,sans-Serif" font-size="10.00">unordered_set</text>
</g>
<!-- Node2&#45;&gt;Node24 -->
<g id="edge29" class="edge"><title>Node2&#45;&gt;Node24</title>
<path fill="none" stroke="midnightblue" d="M680.246,-251.975C664.634,-242.299 638.937,-226.372 620.417,-214.894"/>
<polygon fill="midnightblue" stroke="midnightblue" points="622.073,-211.802 611.729,-209.509 618.385,-217.752 622.073,-211.802"/>
</g>
<!-- Node4 -->
<g id="node5" class="node"><title>Node4</title>
<polygon fill="none" stroke="#bfbfbf" points="214,-62 214,-81 252,-81 252,-62 214,-62"/>
<text text-anchor="middle" x="233" y="-69" font-family="Helvetica,sans-Serif" font-size="10.00">map</text>
</g>
<!-- Node3&#45;&gt;Node4 -->
<g id="edge4" class="edge"><title>Node3&#45;&gt;Node4</title>
<path fill="none" stroke="midnightblue" d="M130.049,-128.734C150.122,-117.769 184.703,-98.8809 208.194,-86.0495"/>
<polygon fill="midnightblue" stroke="midnightblue" points="210.107,-88.9927 217.205,-81.1273 206.751,-82.8494 210.107,-88.9927"/>
</g>
<!-- Node3&#45;&gt;Node5 -->
<g id="edge5" class="edge"><title>Node3&#45;&gt;Node5</title>
<path fill="none" stroke="midnightblue" d="M102.402,-128.734C88.3463,-118.111 64.4488,-100.049 47.5342,-87.2642"/>
<polygon fill="midnightblue" stroke="midnightblue" points="49.5027,-84.3648 39.4146,-81.1273 45.2819,-89.9492 49.5027,-84.3648"/>
</g>
<!-- Node3&#45;&gt;Node6 -->
<g id="edge6" class="edge"><title>Node3&#45;&gt;Node6</title>
<path fill="none" stroke="midnightblue" d="M152.834,-130.055C167.558,-127.469 184.506,-124.775 200,-123 240.079,-118.409 845.784,-82.9935 993.633,-74.3824"/>
<polygon fill="midnightblue" stroke="midnightblue" points="994.077,-77.8626 1003.86,-73.7872 993.67,-70.8744 994.077,-77.8626"/>
</g>
<!-- Node7 -->
<g id="node8" class="node"><title>Node7</title>
<polygon fill="none" stroke="#bfbfbf" points="74,-62 74,-81 196,-81 196,-62 74,-62"/>
<text text-anchor="middle" x="135" y="-69" font-family="Helvetica,sans-Serif" font-size="10.00">boost/lexical_cast.hpp</text>
</g>
<!-- Node3&#45;&gt;Node7 -->
<g id="edge7" class="edge"><title>Node3&#45;&gt;Node7</title>
<path fill="none" stroke="midnightblue" d="M116.832,-128.734C119.949,-119.085 125.049,-103.3 129.053,-90.9063"/>
<polygon fill="midnightblue" stroke="midnightblue" points="132.469,-91.719 132.213,-81.1273 125.808,-89.567 132.469,-91.719"/>
</g>
<!-- Node9&#45;&gt;Node6 -->
<g id="edge20" class="edge"><title>Node9&#45;&gt;Node6</title>
<path fill="none" stroke="midnightblue" d="M487.335,-192.059C490.253,-191.34 493.186,-190.64 496,-190 576.406,-171.725 597.723,-172.83 678,-154 729.119,-142.009 740.986,-135.432 792,-123 863.773,-105.51 948.689,-87.9615 993.894,-78.8679"/>
<polygon fill="midnightblue" stroke="midnightblue" points="994.856,-82.2448 1003.97,-76.8483 993.481,-75.3813 994.856,-82.2448"/>
</g>
<!-- Node9&#45;&gt;Node10 -->
<g id="edge10" class="edge"><title>Node9&#45;&gt;Node10</title>
<path fill="none" stroke="midnightblue" d="M487.131,-191.137C515.546,-182.475 562.226,-167.923 602,-154 604.112,-153.261 606.283,-152.482 608.467,-151.686"/>
<polygon fill="midnightblue" stroke="midnightblue" points="609.825,-154.915 617.973,-148.143 607.38,-148.355 609.825,-154.915"/>
</g>
<!-- Node13 -->
<g id="node14" class="node"><title>Node13</title>
<polygon fill="none" stroke="#bfbfbf" points="328.5,-62 328.5,-81 369.5,-81 369.5,-62 328.5,-62"/>
<text text-anchor="middle" x="349" y="-69" font-family="Helvetica,sans-Serif" font-size="10.00">array</text>
</g>
<!-- Node9&#45;&gt;Node13 -->
<g id="edge16" class="edge"><title>Node9&#45;&gt;Node13</title>
<path fill="none" stroke="midnightblue" d="M434.689,-191.952C431.766,-191.254 428.826,-190.587 426,-190 376.208,-179.656 233.011,-192.685 200,-154 163.397,-111.105 264.643,-86.8147 318.201,-77.2715"/>
<polygon fill="midnightblue" stroke="midnightblue" points="318.954,-80.6936 328.222,-75.5584 317.775,-73.7937 318.954,-80.6936"/>
</g>
<!-- Node14 -->
<g id="node15" class="node"><title>Node14</title>
<polygon fill="none" stroke="#bfbfbf" points="441.5,-62 441.5,-81 488.5,-81 488.5,-62 441.5,-62"/>
<text text-anchor="middle" x="465" y="-69" font-family="Helvetica,sans-Serif" font-size="10.00">cmath</text>
</g>
<!-- Node9&#45;&gt;Node14 -->
<g id="edge18" class="edge"><title>Node9&#45;&gt;Node14</title>
<path fill="none" stroke="midnightblue" d="M461.275,-190.305C461.917,-169.994 463.528,-119.053 464.406,-91.2768"/>
<polygon fill="midnightblue" stroke="midnightblue" points="467.905,-91.3614 464.723,-81.2557 460.909,-91.1401 467.905,-91.3614"/>
</g>
<!-- Node16 -->
<g id="node17" class="node"><title>Node16</title>
<polygon fill="none" stroke="#bfbfbf" points="801,-129 801,-148 941,-148 941,-129 801,-129"/>
<text text-anchor="middle" x="871" y="-136" font-family="Helvetica,sans-Serif" font-size="10.00">boost/functional/hash.hpp</text>
</g>
<!-- Node9&#45;&gt;Node16 -->
<g id="edge17" class="edge"><title>Node9&#45;&gt;Node16</title>
<path fill="none" stroke="midnightblue" d="M487.298,-191.884C490.223,-191.198 493.167,-190.553 496,-190 596.887,-170.307 714.544,-155.821 790.779,-147.534"/>
<polygon fill="midnightblue" stroke="midnightblue" points="791.224,-151.006 800.792,-146.455 790.475,-144.047 791.224,-151.006"/>
</g>
<!-- Node9&#45;&gt;Node17 -->
<g id="edge19" class="edge"><title>Node9&#45;&gt;Node17</title>
<path fill="none" stroke="midnightblue" d="M487.252,-191.615C490.185,-190.98 493.145,-190.42 496,-190 692.273,-161.136 1201.5,-221.634 1388,-154 1425.62,-140.358 1460.63,-108.136 1479.5,-88.5411"/>
<polygon fill="midnightblue" stroke="midnightblue" points="1482.27,-90.6985 1486.55,-81.0071 1477.16,-85.9134 1482.27,-90.6985"/>
</g>
<!-- Node18 -->
<g id="node19" class="node"><title>Node18</title>
<polygon fill="none" stroke="#bfbfbf" points="489,-123.5 489,-153.5 593,-153.5 593,-123.5 489,-123.5"/>
<text text-anchor="start" x="497" y="-141.5" font-family="Helvetica,sans-Serif" font-size="10.00">boost/serialization</text>
<text text-anchor="middle" x="541" y="-130.5" font-family="Helvetica,sans-Serif" font-size="10.00">/array.hpp</text>
</g>
<!-- Node9&#45;&gt;Node18 -->
<g id="edge21" class="edge"><title>Node9&#45;&gt;Node18</title>
<path fill="none" stroke="midnightblue" d="M472.462,-190.475C483.196,-182.492 499.65,-170.254 513.746,-159.77"/>
<polygon fill="midnightblue" stroke="midnightblue" points="516.21,-162.299 522.146,-153.523 512.033,-156.682 516.21,-162.299"/>
</g>
<!-- Node19 -->
<g id="node20" class="node"><title>Node19</title>
<polygon fill="none" stroke="#bfbfbf" points="209,-123.5 209,-153.5 313,-153.5 313,-123.5 209,-123.5"/>
<text text-anchor="start" x="217" y="-141.5" font-family="Helvetica,sans-Serif" font-size="10.00">boost/serialization</text>
<text text-anchor="middle" x="261" y="-130.5" font-family="Helvetica,sans-Serif" font-size="10.00">/string.hpp</text>
</g>
<!-- Node9&#45;&gt;Node19 -->
<g id="edge22" class="edge"><title>Node9&#45;&gt;Node19</title>
<path fill="none" stroke="midnightblue" d="M434.853,-191.221C405.403,-182.46 356.642,-167.954 318.244,-156.53"/>
<polygon fill="midnightblue" stroke="midnightblue" points="318.802,-153.045 308.219,-153.548 316.806,-159.754 318.802,-153.045"/>
</g>
<!-- Node20 -->
<g id="node21" class="node"><title>Node20</title>
<polygon fill="none" stroke="#bfbfbf" points="331.5,-129 331.5,-148 432.5,-148 432.5,-129 331.5,-129"/>
<text text-anchor="middle" x="382" y="-136" font-family="Helvetica,sans-Serif" font-size="10.00">boost/variant.hpp</text>
</g>
<!-- Node9&#45;&gt;Node20 -->
<g id="edge23" class="edge"><title>Node9&#45;&gt;Node20</title>
<path fill="none" stroke="midnightblue" d="M449.681,-190.475C437.127,-181.02 416.649,-165.596 401.501,-154.187"/>
<polygon fill="midnightblue" stroke="midnightblue" points="403.391,-151.23 393.298,-148.009 399.18,-156.821 403.391,-151.23"/>
</g>
<!-- Node11 -->
<g id="node12" class="node"><title>Node11</title>
<polygon fill="none" stroke="#bfbfbf" points="510.5,-62 510.5,-81 587.5,-81 587.5,-62 510.5,-62"/>
<text text-anchor="middle" x="549" y="-69" font-family="Helvetica,sans-Serif" font-size="10.00">Eigen/Dense</text>
</g>
<!-- Node10&#45;&gt;Node11 -->
<g id="edge11" class="edge"><title>Node10&#45;&gt;Node11</title>
<path fill="none" stroke="midnightblue" d="M627.727,-128.734C612.855,-118.111 587.568,-100.049 569.67,-87.2642"/>
<polygon fill="midnightblue" stroke="midnightblue" points="571.25,-84.0917 561.078,-81.1273 567.181,-89.7878 571.25,-84.0917"/>
</g>
<!-- Node12 -->
<g id="node13" class="node"><title>Node12</title>
<polygon fill="none" stroke="#bfbfbf" points="606,-62 606,-81 686,-81 686,-62 606,-62"/>
<text text-anchor="middle" x="646" y="-69" font-family="Helvetica,sans-Serif" font-size="10.00">Eigen/Sparse</text>
</g>
<!-- Node10&#45;&gt;Node12 -->
<g id="edge12" class="edge"><title>Node10&#45;&gt;Node12</title>
<path fill="none" stroke="midnightblue" d="M640.809,-128.734C641.691,-119.183 643.128,-103.618 644.266,-91.2829"/>
<polygon fill="midnightblue" stroke="midnightblue" points="647.77,-91.4067 645.204,-81.1273 640.799,-90.7632 647.77,-91.4067"/>
</g>
<!-- Node10&#45;&gt;Node13 -->
<g id="edge13" class="edge"><title>Node10&#45;&gt;Node13</title>
<path fill="none" stroke="midnightblue" d="M619.307,-128.885C613.75,-126.77 607.699,-124.644 602,-123 560.473,-111.024 437.776,-88.405 379.89,-77.9957"/>
<polygon fill="midnightblue" stroke="midnightblue" points="380.331,-74.519 369.87,-76.1995 379.096,-81.4092 380.331,-74.519"/>
</g>
<!-- Node10&#45;&gt;Node14 -->
<g id="edge14" class="edge"><title>Node10&#45;&gt;Node14</title>
<path fill="none" stroke="midnightblue" d="M617.928,-128.983C612.713,-126.997 607.167,-124.906 602,-123 557.291,-106.504 545.556,-103.906 501,-87 499.157,-86.3008 497.266,-85.5722 495.361,-84.8298"/>
<polygon fill="midnightblue" stroke="midnightblue" points="496.47,-81.5047 485.884,-81.0779 493.893,-88.0132 496.47,-81.5047"/>
</g>
<!-- Node10&#45;&gt;Node15 -->
<g id="edge15" class="edge"><title>Node10&#45;&gt;Node15</title>
<path fill="none" stroke="midnightblue" d="M652.812,-128.734C668.481,-118.013 695.222,-99.7165 713.934,-86.9137"/>
<polygon fill="midnightblue" stroke="midnightblue" points="716.114,-89.6628 722.391,-81.1273 712.161,-83.8856 716.114,-89.6628"/>
</g>
<!-- Node25&#45;&gt;Node6 -->
<g id="edge61" class="edge"><title>Node25&#45;&gt;Node6</title>
<path fill="none" stroke="midnightblue" d="M989.732,-251.934C995.506,-223.367 1014.19,-130.926 1022.25,-91.0696"/>
<polygon fill="midnightblue" stroke="midnightblue" points="1025.71,-91.612 1024.26,-81.1168 1018.85,-90.2251 1025.71,-91.612"/>
</g>
<!-- Node25&#45;&gt;Node10 -->
<g id="edge60" class="edge"><title>Node25&#45;&gt;Node10</title>
<path fill="none" stroke="midnightblue" d="M971.526,-251.945C943.476,-237.632 884.381,-208.578 832,-190 780.114,-171.598 718.231,-156.5 679.024,-147.747"/>
<polygon fill="midnightblue" stroke="midnightblue" points="679.599,-144.289 669.08,-145.554 678.092,-151.125 679.599,-144.289"/>
</g>
<!-- Node25&#45;&gt;Node15 -->
<g id="edge62" class="edge"><title>Node25&#45;&gt;Node15</title>
<path fill="none" stroke="midnightblue" d="M974.95,-251.959C953.631,-238.162 909.814,-210.452 871,-190 836.864,-172.013 821.659,-178.68 792,-154 770.499,-136.108 753.384,-108.224 743.715,-90.1586"/>
<polygon fill="midnightblue" stroke="midnightblue" points="746.82,-88.5442 739.128,-81.2584 740.598,-91.7508 746.82,-88.5442"/>
</g>
<!-- Node25&#45;&gt;Node26 -->
<g id="edge32" class="edge"><title>Node25&#45;&gt;Node26</title>
<path fill="none" stroke="midnightblue" d="M1030.7,-251.975C1084.14,-241.305 1175.65,-223.034 1233.37,-211.509"/>
<polygon fill="midnightblue" stroke="midnightblue" points="1234.26,-214.899 1243.38,-209.509 1232.89,-208.035 1234.26,-214.899"/>
</g>
<!-- Node26&#45;&gt;Node6 -->
<g id="edge56" class="edge"><title>Node26&#45;&gt;Node6</title>
<path fill="none" stroke="midnightblue" d="M1269.33,-190.387C1241.59,-176.107 1184.15,-146.748 1135,-123 1107.68,-109.801 1076.21,-95.2959 1054.13,-85.231"/>
<polygon fill="midnightblue" stroke="midnightblue" points="1055.54,-82.0273 1044.99,-81.073 1052.64,-88.3992 1055.54,-82.0273"/>
</g>
<!-- Node26&#45;&gt;Node10 -->
<g id="edge54" class="edge"><title>Node26&#45;&gt;Node10</title>
<path fill="none" stroke="midnightblue" d="M1234.79,-194.408C1145.07,-186.346 953.633,-169.071 792,-154 753.751,-150.434 710.099,-146.258 679.417,-143.307"/>
<polygon fill="midnightblue" stroke="midnightblue" points="679.425,-139.791 669.136,-142.317 678.754,-146.759 679.425,-139.791"/>
</g>
<!-- Node26&#45;&gt;Node16 -->
<g id="edge59" class="edge"><title>Node26&#45;&gt;Node16</title>
<path fill="none" stroke="midnightblue" d="M1234.7,-191.644C1160.69,-181.034 1023.76,-161.402 940.667,-149.488"/>
<polygon fill="midnightblue" stroke="midnightblue" points="940.955,-145.994 930.559,-148.039 939.961,-152.923 940.955,-145.994"/>
</g>
<!-- Node27 -->
<g id="node28" class="node"><title>Node27</title>
<g id="a_node28"><a xlink:href="Cache_8h.html" target="_top" xlink:title="Cache.h">
<polygon fill="none" stroke="black" points="1323,-129 1323,-148 1379,-148 1379,-129 1323,-129"/>
<text text-anchor="middle" x="1351" y="-136" font-family="Helvetica,sans-Serif" font-size="10.00">Cache.h</text>
</a>
</g>
</g>
<!-- Node26&#45;&gt;Node27 -->
<g id="edge33" class="edge"><title>Node26&#45;&gt;Node27</title>
<path fill="none" stroke="midnightblue" d="M1295.31,-190.475C1305.45,-181.197 1321.86,-166.171 1334.25,-154.831"/>
<polygon fill="midnightblue" stroke="midnightblue" points="1336.69,-157.343 1341.7,-148.009 1331.96,-152.18 1336.69,-157.343"/>
</g>
<!-- Node28 -->
<g id="node29" class="node"><title>Node28</title>
<polygon fill="none" stroke="#bfbfbf" points="1163.5,-62 1163.5,-81 1210.5,-81 1210.5,-62 1163.5,-62"/>
<text text-anchor="middle" x="1187" y="-69" font-family="Helvetica,sans-Serif" font-size="10.00">mutex</text>
</g>
<!-- Node26&#45;&gt;Node28 -->
<g id="edge55" class="edge"><title>Node26&#45;&gt;Node28</title>
<path fill="none" stroke="midnightblue" d="M1287.07,-190.15C1288.42,-175.001 1289.09,-143.732 1275,-123 1267.51,-111.972 1238.11,-96.3291 1215.33,-85.3845"/>
<polygon fill="midnightblue" stroke="midnightblue" points="1216.59,-82.1104 1206.05,-81.0087 1213.6,-88.4412 1216.59,-82.1104"/>
</g>
<!-- Node26&#45;&gt;Node29 -->
<g id="edge58" class="edge"><title>Node26&#45;&gt;Node29</title>
<path fill="none" stroke="midnightblue" d="M1328.57,-190.441C1349.66,-183.979 1373.64,-172.864 1388,-154 1401.71,-135.993 1403.06,-109.105 1402.08,-91.1971"/>
<polygon fill="midnightblue" stroke="midnightblue" points="1405.56,-90.8118 1401.24,-81.1379 1398.59,-91.3946 1405.56,-90.8118"/>
</g>
<!-- Node26&#45;&gt;Node31 -->
<g id="edge37" class="edge"><title>Node26&#45;&gt;Node31</title>
<path fill="none" stroke="midnightblue" d="M1327.84,-190.475C1384.43,-178.943 1484.59,-158.534 1539.44,-147.357"/>
<polygon fill="midnightblue" stroke="midnightblue" points="1540.36,-150.742 1549.46,-145.316 1538.96,-143.883 1540.36,-150.742"/>
</g>
<!-- Node42 -->
<g id="node43" class="node"><title>Node42</title>
<polygon fill="none" stroke="#bfbfbf" points="1225.5,-129 1225.5,-148 1266.5,-148 1266.5,-129 1225.5,-129"/>
<text text-anchor="middle" x="1246" y="-136" font-family="Helvetica,sans-Serif" font-size="10.00">tuple</text>
</g>
<!-- Node26&#45;&gt;Node42 -->
<g id="edge57" class="edge"><title>Node26&#45;&gt;Node42</title>
<path fill="none" stroke="midnightblue" d="M1280.27,-190.475C1274.33,-181.638 1264.88,-167.589 1257.41,-156.475"/>
<polygon fill="midnightblue" stroke="midnightblue" points="1260.2,-154.355 1251.72,-148.009 1254.39,-158.261 1260.2,-154.355"/>
</g>
<!-- Node27&#45;&gt;Node28 -->
<g id="edge34" class="edge"><title>Node27&#45;&gt;Node28</title>
<path fill="none" stroke="midnightblue" d="M1327.68,-128.881C1301.38,-119.075 1257.41,-102.419 1220,-87 1218.59,-86.4187 1217.15,-85.8167 1215.7,-85.2031"/>
<polygon fill="midnightblue" stroke="midnightblue" points="1216.7,-81.8247 1206.13,-81.0841 1213.93,-88.2539 1216.7,-81.8247"/>
</g>
<!-- Node27&#45;&gt;Node29 -->
<g id="edge35" class="edge"><title>Node27&#45;&gt;Node29</title>
<path fill="none" stroke="midnightblue" d="M1357.61,-128.734C1365.18,-118.695 1377.75,-102.014 1387.24,-89.4213"/>
<polygon fill="midnightblue" stroke="midnightblue" points="1390.27,-91.2194 1393.5,-81.1273 1384.68,-87.0057 1390.27,-91.2194"/>
</g>
<!-- Node30 -->
<g id="node31" class="node"><title>Node30</title>
<polygon fill="none" stroke="#bfbfbf" points="1229,-62 1229,-81 1335,-81 1335,-62 1229,-62"/>
<text text-anchor="middle" x="1282" y="-69" font-family="Helvetica,sans-Serif" font-size="10.00">boost/optional.hpp</text>
</g>
<!-- Node27&#45;&gt;Node30 -->
<g id="edge36" class="edge"><title>Node27&#45;&gt;Node30</title>
<path fill="none" stroke="midnightblue" d="M1341.69,-128.734C1330.73,-118.403 1312.29,-101.037 1298.81,-88.3315"/>
<polygon fill="midnightblue" stroke="midnightblue" points="1300.84,-85.4366 1291.16,-81.1273 1296.04,-90.5319 1300.84,-85.4366"/>
</g>
<!-- Node31&#45;&gt;Node5 -->
<g id="edge41" class="edge"><title>Node31&#45;&gt;Node5</title>
<path fill="none" stroke="midnightblue" d="M1549.38,-134.877C1512.22,-131.571 1445.32,-125.965 1388,-123 1094.28,-107.805 353.226,-145.531 65,-87 61.9215,-86.3748 58.7677,-85.5134 55.6626,-84.5194"/>
<polygon fill="midnightblue" stroke="midnightblue" points="56.6564,-81.1565 46.0624,-81.0202 54.2591,-87.7332 56.6564,-81.1565"/>
</g>
<!-- Node31&#45;&gt;Node6 -->
<g id="edge42" class="edge"><title>Node31&#45;&gt;Node6</title>
<path fill="none" stroke="midnightblue" d="M1549.19,-135.218C1457.08,-127.825 1170.49,-104.023 1079,-87 1072.13,-85.7221 1064.86,-83.9887 1057.97,-82.165"/>
<polygon fill="midnightblue" stroke="midnightblue" points="1058.82,-78.7685 1048.24,-79.471 1056.95,-85.5143 1058.82,-78.7685"/>
</g>
<!-- Node31&#45;&gt;Node17 -->
<g id="edge38" class="edge"><title>Node31&#45;&gt;Node17</title>
<path fill="none" stroke="midnightblue" d="M1566.67,-128.734C1552.94,-118.111 1529.6,-100.049 1513.08,-87.2642"/>
<polygon fill="midnightblue" stroke="midnightblue" points="1515.2,-84.4791 1505.15,-81.1273 1510.92,-90.0152 1515.2,-84.4791"/>
</g>
<!-- Node31&#45;&gt;Node22 -->
<g id="edge39" class="edge"><title>Node31&#45;&gt;Node22</title>
<path fill="none" stroke="midnightblue" d="M1549.46,-135.056C1467.01,-127.847 1229.58,-105.98 1154,-87 1151.33,-86.33 1148.6,-85.5169 1145.88,-84.6216"/>
<polygon fill="midnightblue" stroke="midnightblue" points="1146.88,-81.2589 1136.28,-81.1274 1144.48,-87.8367 1146.88,-81.2589"/>
</g>
<!-- Node32 -->
<g id="node33" class="node"><title>Node32</title>
<polygon fill="none" stroke="#bfbfbf" points="1593,-0.5 1593,-19.5 1647,-19.5 1647,-0.5 1593,-0.5"/>
<text text-anchor="middle" x="1620" y="-7.5" font-family="Helvetica,sans-Serif" font-size="10.00">random</text>
</g>
<!-- Node31&#45;&gt;Node32 -->
<g id="edge40" class="edge"><title>Node31&#45;&gt;Node32</title>
<path fill="none" stroke="midnightblue" d="M1574.68,-128.968C1569.26,-113.631 1560.15,-80.7035 1571,-56 1576.39,-43.732 1586.96,-33.3414 1596.9,-25.6461"/>
<polygon fill="midnightblue" stroke="midnightblue" points="1599.25,-28.2697 1605.34,-19.598 1595.17,-22.5811 1599.25,-28.2697"/>
</g>
<!-- Node33 -->
<g id="node34" class="node"><title>Node33</title>
<polygon fill="none" stroke="#bfbfbf" points="1580,-62 1580,-81 1628,-81 1628,-62 1580,-62"/>
<text text-anchor="middle" x="1604" y="-69" font-family="Helvetica,sans-Serif" font-size="10.00">thread</text>
</g>
<!-- Node31&#45;&gt;Node33 -->
<g id="edge43" class="edge"><title>Node31&#45;&gt;Node33</title>
<path fill="none" stroke="midnightblue" d="M1581.51,-128.734C1585.4,-118.988 1591.81,-102.981 1596.79,-90.5318"/>
<polygon fill="midnightblue" stroke="midnightblue" points="1600.08,-91.712 1600.55,-81.1273 1593.59,-89.1122 1600.08,-91.712"/>
</g>
<!-- Node34 -->
<g id="node35" class="node"><title>Node34</title>
<polygon fill="none" stroke="#bfbfbf" points="1677,-0.5 1677,-19.5 1745,-19.5 1745,-0.5 1677,-0.5"/>
<text text-anchor="middle" x="1711" y="-7.5" font-family="Helvetica,sans-Serif" font-size="10.00">type_traits</text>
</g>
<!-- Node31&#45;&gt;Node34 -->
<g id="edge44" class="edge"><title>Node31&#45;&gt;Node34</title>
<path fill="none" stroke="midnightblue" d="M1588.7,-128.841C1600.71,-118.999 1620.67,-102.311 1637,-87 1658.28,-67.0463 1681.55,-42.6906 1696.21,-27.0184"/>
<polygon fill="midnightblue" stroke="midnightblue" points="1698.78,-29.3896 1703.03,-19.6837 1693.66,-24.622 1698.78,-29.3896"/>
</g>
<!-- Node35 -->
<g id="node36" class="node"><title>Node35</title>
<polygon fill="none" stroke="#bfbfbf" points="1684,-56.5 1684,-86.5 1804,-86.5 1804,-56.5 1684,-56.5"/>
<text text-anchor="start" x="1692" y="-74.5" font-family="Helvetica,sans-Serif" font-size="10.00">boost/iterator/iterator</text>
<text text-anchor="middle" x="1744" y="-63.5" font-family="Helvetica,sans-Serif" font-size="10.00">_facade.hpp</text>
</g>
<!-- Node31&#45;&gt;Node35 -->
<g id="edge45" class="edge"><title>Node31&#45;&gt;Node35</title>
<path fill="none" stroke="midnightblue" d="M1600.04,-128.869C1625.06,-119.073 1666.54,-102.83 1698.57,-90.2897"/>
<polygon fill="midnightblue" stroke="midnightblue" points="1700.14,-93.4333 1708.17,-86.5281 1697.59,-86.9152 1700.14,-93.4333"/>
</g>
<!-- Node36 -->
<g id="node37" class="node"><title>Node36</title>
<polygon fill="none" stroke="#bfbfbf" points="1822.5,-62 1822.5,-81 1879.5,-81 1879.5,-62 1822.5,-62"/>
<text text-anchor="middle" x="1851" y="-69" font-family="Helvetica,sans-Serif" font-size="10.00">sqlite3.h</text>
</g>
<!-- Node31&#45;&gt;Node36 -->
<g id="edge46" class="edge"><title>Node31&#45;&gt;Node36</title>
<path fill="none" stroke="midnightblue" d="M1601.48,-128.922C1607.77,-126.807 1614.6,-124.671 1621,-123 1705.01,-101.075 1729.44,-110.571 1813,-87 1815.65,-86.253 1818.37,-85.3974 1821.08,-84.4836"/>
<polygon fill="midnightblue" stroke="midnightblue" points="1822.5,-87.6947 1830.72,-81.0093 1820.12,-81.1099 1822.5,-87.6947"/>
</g>
<!-- Node31&#45;&gt;Node37 -->
<g id="edge47" class="edge"><title>Node31&#45;&gt;Node37</title>
<path fill="none" stroke="midnightblue" d="M1600.5,-128.89C1607.03,-126.672 1614.23,-124.492 1621,-123 1765.08,-91.2427 1808.93,-126.791 1951,-87 1952.93,-86.4592 1954.89,-85.8089 1956.84,-85.0875"/>
<polygon fill="midnightblue" stroke="midnightblue" points="1958.46,-88.2003 1966.3,-81.0644 1955.72,-81.7591 1958.46,-88.2003"/>
</g>
<!-- Node38 -->
<g id="node39" class="node"><title>Node38</title>
<g id="a_node39"><a xlink:href="utils_8h.html" target="_top" xlink:title="utils.h">
<polygon fill="none" stroke="black" points="1897.5,-62 1897.5,-81 1942.5,-81 1942.5,-62 1897.5,-62"/>
<text text-anchor="middle" x="1920" y="-69" font-family="Helvetica,sans-Serif" font-size="10.00">utils.h</text>
</a>
</g>
</g>
<!-- Node31&#45;&gt;Node38 -->
<g id="edge48" class="edge"><title>Node31&#45;&gt;Node38</title>
<path fill="none" stroke="midnightblue" d="M1600.97,-128.85C1607.38,-126.685 1614.4,-124.542 1621,-123 1737.6,-95.7451 1772.91,-120.061 1888,-87 1889.93,-86.4443 1891.9,-85.7909 1893.86,-85.0742"/>
<polygon fill="midnightblue" stroke="midnightblue" points="1895.51,-88.1811 1903.41,-81.1232 1892.83,-81.7131 1895.51,-88.1811"/>
</g>
<!-- Node38&#45;&gt;Node32 -->
<g id="edge51" class="edge"><title>Node38&#45;&gt;Node32</title>
<path fill="none" stroke="midnightblue" d="M1903.38,-61.9706C1898.52,-59.7536 1893.14,-57.5545 1888,-56 1793.17,-27.3055 1765.59,-37.1306 1668,-20 1664.51,-19.3877 1660.88,-18.7357 1657.26,-18.0732"/>
<polygon fill="midnightblue" stroke="midnightblue" points="1657.61,-14.5796 1647.14,-16.2025 1656.34,-21.4629 1657.61,-14.5796"/>
</g>
<!-- Node38&#45;&gt;Node34 -->
<g id="edge52" class="edge"><title>Node38&#45;&gt;Node34</title>
<path fill="none" stroke="midnightblue" d="M1902.62,-61.9545C1897.94,-59.8389 1892.83,-57.6951 1888,-56 1843.75,-40.4849 1791.55,-27.877 1755.36,-19.9958"/>
<polygon fill="midnightblue" stroke="midnightblue" points="1755.64,-16.4773 1745.13,-17.8017 1754.17,-23.3215 1755.64,-16.4773"/>
</g>
<!-- Node39 -->
<g id="node40" class="node"><title>Node39</title>
<polygon fill="none" stroke="#bfbfbf" points="1891.5,-0.5 1891.5,-19.5 1948.5,-19.5 1948.5,-0.5 1891.5,-0.5"/>
<text text-anchor="middle" x="1920" y="-7.5" font-family="Helvetica,sans-Serif" font-size="10.00">complex</text>
</g>
<!-- Node38&#45;&gt;Node39 -->
<g id="edge49" class="edge"><title>Node38&#45;&gt;Node39</title>
<path fill="none" stroke="midnightblue" d="M1920,-61.9751C1920,-53.5803 1920,-40.4806 1920,-29.6631"/>
<polygon fill="midnightblue" stroke="midnightblue" points="1923.5,-29.5091 1920,-19.5091 1916.5,-29.5091 1923.5,-29.5091"/>
</g>
<!-- Node40 -->
<g id="node41" class="node"><title>Node40</title>
<polygon fill="none" stroke="#bfbfbf" points="1966.5,-0.5 1966.5,-19.5 2029.5,-19.5 2029.5,-0.5 1966.5,-0.5"/>
<text text-anchor="middle" x="1998" y="-7.5" font-family="Helvetica,sans-Serif" font-size="10.00">functional</text>
</g>
<!-- Node38&#45;&gt;Node40 -->
<g id="edge50" class="edge"><title>Node38&#45;&gt;Node40</title>
<path fill="none" stroke="midnightblue" d="M1931.18,-61.9751C1943.57,-52.5199 1963.79,-37.0961 1978.75,-25.6871"/>
<polygon fill="midnightblue" stroke="midnightblue" points="1981.02,-28.357 1986.85,-19.5091 1976.77,-22.7914 1981.02,-28.357"/>
</g>
<!-- Node41 -->
<g id="node42" class="node"><title>Node41</title>
<polygon fill="none" stroke="#bfbfbf" points="1818.5,-0.5 1818.5,-19.5 1873.5,-19.5 1873.5,-0.5 1818.5,-0.5"/>
<text text-anchor="middle" x="1846" y="-7.5" font-family="Helvetica,sans-Serif" font-size="10.00">unistd.h</text>
</g>
<!-- Node38&#45;&gt;Node41 -->
<g id="edge53" class="edge"><title>Node38&#45;&gt;Node41</title>
<path fill="none" stroke="midnightblue" d="M1909.4,-61.9751C1897.75,-52.6082 1878.81,-37.3839 1864.67,-26.0081"/>
<polygon fill="midnightblue" stroke="midnightblue" points="1866.57,-23.0477 1856.58,-19.5091 1862.18,-28.503 1866.57,-23.0477"/>
</g>
</g>
</svg>
