<?xml version="1.0" encoding="UTF-8" standalone="no"?>
<!DOCTYPE svg PUBLIC "-//W3C//DTD SVG 1.1//EN"
 "http://www.w3.org/Graphics/SVG/1.1/DTD/svg11.dtd">
<!-- Generated by graphviz version 2.38.0 (20140413.2041)
 -->
<!-- Title: selectionRulesMultipoleNew Pages: 1 -->
<svg width="560pt" height="116pt"
 viewBox="0.00 0.00 560.00 115.50" xmlns="http://www.w3.org/2000/svg" xmlns:xlink="http://www.w3.org/1999/xlink">
<g id="graph0" class="graph" transform="scale(1 1) rotate(0) translate(4 111.5)">
<title>selectionRulesMultipoleNew</title>
<!-- Node7 -->
<g id="node1" class="node"><title>Node7</title>
<polygon fill="#bfbfbf" stroke="black" points="0,-50 0,-69 147,-69 147,-50 0,-50"/>
<text text-anchor="middle" x="73.5" y="-57" font-family="Helvetica,sans-Serif" font-size="10.00">selectionRulesMultipoleNew</text>
</g>
<!-- Node8 -->
<g id="node2" class="node"><title>Node8</title>
<g id="a_node2"><a xlink:href="classSystemTwo.html#a5cc89c42ab8066027b0c375b818c8333" target="_top" xlink:title="Method that allows base class to calculate the interaction /////. ">
<polygon fill="none" stroke="black" points="183,-88 183,-107 348,-107 348,-88 183,-88"/>
<text text-anchor="middle" x="265.5" y="-95" font-family="Helvetica,sans-Serif" font-size="10.00">SystemTwo::initializeInteraction</text>
</a>
</g>
</g>
<!-- Node7&#45;&gt;Node8 -->
<g id="edge1" class="edge"><title>Node7&#45;&gt;Node8</title>
<path fill="none" stroke="midnightblue" d="M132.548,-71.1095C159.57,-76.514 191.318,-82.8635 216.9,-87.9799"/>
<polygon fill="midnightblue" stroke="midnightblue" points="132.937,-67.6182 122.445,-69.089 131.564,-74.4823 132.937,-67.6182"/>
</g>
<!-- Node9 -->
<g id="node3" class="node"><title>Node9</title>
<g id="a_node3"><a xlink:href="classSystemOne.html#abf6d26d44765fa787251956c128644a7" target="_top" xlink:title="Method that allows base class to calculate the interaction /////. ">
<polygon fill="none" stroke="black" points="384,-28 384,-47 552,-47 552,-28 384,-28"/>
<text text-anchor="middle" x="468" y="-35" font-family="Helvetica,sans-Serif" font-size="10.00">SystemOne::initializeInteraction</text>
</a>
</g>
</g>
<!-- Node7&#45;&gt;Node9 -->
<g id="edge2" class="edge"><title>Node7&#45;&gt;Node9</title>
<path fill="none" stroke="midnightblue" d="M157.454,-54.8503C224.104,-51.1145 317.271,-45.8925 383.947,-42.1552"/>
<polygon fill="midnightblue" stroke="midnightblue" points="157.195,-51.3593 147.406,-55.4135 157.587,-58.3483 157.195,-51.3593"/>
</g>
<!-- Node10 -->
<g id="node4" class="node"><title>Node10</title>
<g id="a_node4"><a xlink:href="classMatrixElementCache.html#a41efbe3c4a7e3e5f2ed2c807a0b3178e" target="_top" xlink:title="MatrixElementCache\l::precalculateDiamagnetism">
<polygon fill="none" stroke="black" points="189.5,-0.5 189.5,-30.5 341.5,-30.5 341.5,-0.5 189.5,-0.5"/>
<text text-anchor="start" x="197.5" y="-18.5" font-family="Helvetica,sans-Serif" font-size="10.00">MatrixElementCache</text>
<text text-anchor="middle" x="265.5" y="-7.5" font-family="Helvetica,sans-Serif" font-size="10.00">::precalculateDiamagnetism</text>
</a>
</g>
</g>
<!-- Node7&#45;&gt;Node10 -->
<g id="edge3" class="edge"><title>Node7&#45;&gt;Node10</title>
<path fill="none" stroke="midnightblue" d="M125.511,-47.6868C148.241,-42.4231 175.283,-36.1609 199.445,-30.5654"/>
<polygon fill="midnightblue" stroke="midnightblue" points="124.68,-44.2867 115.727,-49.9527 126.259,-51.1063 124.68,-44.2867"/>
</g>
<!-- Node10&#45;&gt;Node9 -->
<g id="edge4" class="edge"><title>Node10&#45;&gt;Node9</title>
<path fill="none" stroke="midnightblue" d="M351.843,-24.8643C362.481,-26.0316 373.349,-27.2241 383.952,-28.3875"/>
<polygon fill="midnightblue" stroke="midnightblue" points="352.051,-21.3663 341.729,-23.7546 351.288,-28.3245 352.051,-21.3663"/>
</g>
</g>
</svg>
