<?xml version="1.0" encoding="UTF-8" standalone="no"?>
<!DOCTYPE svg PUBLIC "-//W3C//DTD SVG 1.1//EN"
 "http://www.w3.org/Graphics/SVG/1.1/DTD/svg11.dtd">
<!-- Generated by graphviz version 2.38.0 (20140413.2041)
 -->
<!-- Title: selectionRulesMultipole Pages: 1 -->
<svg width="539pt" height="154pt"
 viewBox="0.00 0.00 539.00 153.50" xmlns="http://www.w3.org/2000/svg" xmlns:xlink="http://www.w3.org/1999/xlink">
<g id="graph0" class="graph" transform="scale(1 1) rotate(0) translate(4 149.5)">
<title>selectionRulesMultipole</title>
<!-- Node9 -->
<g id="node1" class="node"><title>Node9</title>
<polygon fill="#bfbfbf" stroke="black" points="0,-69 0,-88 127,-88 127,-69 0,-69"/>
<text text-anchor="middle" x="63.5" y="-76" font-family="Helvetica,sans-Serif" font-size="10.00">selectionRulesMultipole</text>
</g>
<!-- Node10 -->
<g id="node2" class="node"><title>Node10</title>
<g id="a_node2"><a xlink:href="classHamiltonianOne.html#a9cb71dcb34ab9f0779c0bd66b758185e" target="_top" xlink:title="HamiltonianOne::build">
<polygon fill="none" stroke="black" points="179.5,-126 179.5,-145 301.5,-145 301.5,-126 179.5,-126"/>
<text text-anchor="middle" x="240.5" y="-133" font-family="Helvetica,sans-Serif" font-size="10.00">HamiltonianOne::build</text>
</a>
</g>
</g>
<!-- Node9&#45;&gt;Node10 -->
<g id="edge1" class="edge"><title>Node9&#45;&gt;Node10</title>
<path fill="none" stroke="midnightblue" d="M96.3314,-91.9424C115.449,-99.7228 140.376,-109.357 163,-116.5 173.962,-119.961 185.966,-123.196 197.149,-125.981"/>
<polygon fill="midnightblue" stroke="midnightblue" points="97.4863,-88.633 86.9067,-88.0658 94.8235,-95.1068 97.4863,-88.633"/>
</g>
<!-- Node12 -->
<g id="node4" class="node"><title>Node12</title>
<g id="a_node4"><a xlink:href="classHamiltonianTwo.html#a6ca0a318f25170b69e571a07064a5afb" target="_top" xlink:title="HamiltonianTwo::calculate">
<polygon fill="none" stroke="black" points="170.5,-88 170.5,-107 310.5,-107 310.5,-88 170.5,-88"/>
<text text-anchor="middle" x="240.5" y="-95" font-family="Helvetica,sans-Serif" font-size="10.00">HamiltonianTwo::calculate</text>
</a>
</g>
</g>
<!-- Node9&#45;&gt;Node12 -->
<g id="edge3" class="edge"><title>Node9&#45;&gt;Node12</title>
<path fill="none" stroke="midnightblue" d="M137.178,-86.3907C148.181,-87.5853 159.505,-88.8149 170.429,-90.0008"/>
<polygon fill="midnightblue" stroke="midnightblue" points="137.504,-82.9057 127.185,-85.3058 136.748,-89.8648 137.504,-82.9057"/>
</g>
<!-- Node14 -->
<g id="node6" class="node"><title>Node14</title>
<g id="a_node6"><a xlink:href="classMatrixElements.html#a8c96cdfdf45e83734ee613bc91526efb" target="_top" xlink:title="MatrixElements::getRadial">
<polygon fill="none" stroke="black" points="170,-50 170,-69 311,-69 311,-50 170,-50"/>
<text text-anchor="middle" x="240.5" y="-57" font-family="Helvetica,sans-Serif" font-size="10.00">MatrixElements::getRadial</text>
</a>
</g>
</g>
<!-- Node9&#45;&gt;Node14 -->
<g id="edge5" class="edge"><title>Node9&#45;&gt;Node14</title>
<path fill="none" stroke="midnightblue" d="M137.369,-70.5885C148.11,-69.4223 159.155,-68.2232 169.83,-67.0642"/>
<polygon fill="midnightblue" stroke="midnightblue" points="136.748,-67.1352 127.185,-71.6942 137.504,-74.0943 136.748,-67.1352"/>
</g>
<!-- Node15 -->
<g id="node7" class="node"><title>Node15</title>
<g id="a_node7"><a xlink:href="classMatrixElements.html#adebeaf2c43204d0ed2f5d36b3ef9846b" target="_top" xlink:title="MatrixElements::precalculate\lDiamagnetism">
<polygon fill="none" stroke="black" points="163,-0.5 163,-30.5 318,-30.5 318,-0.5 163,-0.5"/>
<text text-anchor="start" x="171" y="-18.5" font-family="Helvetica,sans-Serif" font-size="10.00">MatrixElements::precalculate</text>
<text text-anchor="middle" x="240.5" y="-7.5" font-family="Helvetica,sans-Serif" font-size="10.00">Diamagnetism</text>
</a>
</g>
</g>
<!-- Node9&#45;&gt;Node15 -->
<g id="edge6" class="edge"><title>Node9&#45;&gt;Node15</title>
<path fill="none" stroke="midnightblue" d="M97.6746,-65.2039C116.702,-57.7031 141.091,-48.3001 163,-40.5 172.346,-37.1727 182.392,-33.7681 192.031,-30.5849"/>
<polygon fill="midnightblue" stroke="midnightblue" points="96.2633,-61.9983 88.2545,-68.9344 98.8407,-68.5066 96.2633,-61.9983"/>
</g>
<!-- Node11 -->
<g id="node3" class="node"><title>Node11</title>
<g id="a_node3"><a xlink:href="classHamiltonianOne.html#ad3ba2d70879a60c9f065b5a2545dfe36" target="_top" xlink:title="HamiltonianOne::HamiltonianOne">
<polygon fill="none" stroke="black" points="354,-126 354,-145 531,-145 531,-126 354,-126"/>
<text text-anchor="middle" x="442.5" y="-133" font-family="Helvetica,sans-Serif" font-size="10.00">HamiltonianOne::HamiltonianOne</text>
</a>
</g>
</g>
<!-- Node10&#45;&gt;Node11 -->
<g id="edge2" class="edge"><title>Node10&#45;&gt;Node11</title>
<path fill="none" stroke="midnightblue" d="M311.728,-135.5C325.326,-135.5 339.731,-135.5 353.807,-135.5"/>
<polygon fill="midnightblue" stroke="midnightblue" points="311.507,-132 301.507,-135.5 311.507,-139 311.507,-132"/>
</g>
<!-- Node13 -->
<g id="node5" class="node"><title>Node13</title>
<g id="a_node5"><a xlink:href="classHamiltonianTwo.html#abd374713c9b38f72265c7fe496c42b96" target="_top" xlink:title="HamiltonianTwo::HamiltonianTwo">
<polygon fill="none" stroke="black" points="357,-88 357,-107 528,-107 528,-88 357,-88"/>
<text text-anchor="middle" x="442.5" y="-95" font-family="Helvetica,sans-Serif" font-size="10.00">HamiltonianTwo::HamiltonianTwo</text>
</a>
</g>
</g>
<!-- Node12&#45;&gt;Node13 -->
<g id="edge4" class="edge"><title>Node12&#45;&gt;Node13</title>
<path fill="none" stroke="midnightblue" d="M320.877,-97.5C332.7,-97.5 344.925,-97.5 356.852,-97.5"/>
<polygon fill="midnightblue" stroke="midnightblue" points="320.609,-94.0001 310.609,-97.5 320.609,-101 320.609,-94.0001"/>
</g>
</g>
</svg>
