<?xml version="1.0" encoding="UTF-8" standalone="no"?>
<!DOCTYPE svg PUBLIC "-//W3C//DTD SVG 1.1//EN"
 "http://www.w3.org/Graphics/SVG/1.1/DTD/svg11.dtd">
<!-- Generated by graphviz version 2.38.0 (20140413.2041)
 -->
<!-- Title: selectionRulesMomentum Pages: 1 -->
<svg width="552pt" height="116pt"
 viewBox="0.00 0.00 552.00 115.50" xmlns="http://www.w3.org/2000/svg" xmlns:xlink="http://www.w3.org/1999/xlink">
<g id="graph0" class="graph" transform="scale(1 1) rotate(0) translate(4 111.5)">
<title>selectionRulesMomentum</title>
<!-- Node1 -->
<g id="node1" class="node"><title>Node1</title>
<polygon fill="#bfbfbf" stroke="black" points="0,-50 0,-69 140,-69 140,-50 0,-50"/>
<text text-anchor="middle" x="70" y="-57" font-family="Helvetica,sans-Serif" font-size="10.00">selectionRulesMomentum</text>
</g>
<!-- Node2 -->
<g id="node2" class="node"><title>Node2</title>
<g id="a_node2"><a xlink:href="classHamiltonianOne.html#a9cb71dcb34ab9f0779c0bd66b758185e" target="_top" xlink:title="HamiltonianOne::build">
<polygon fill="none" stroke="black" points="192.5,-88 192.5,-107 314.5,-107 314.5,-88 192.5,-88"/>
<text text-anchor="middle" x="253.5" y="-95" font-family="Helvetica,sans-Serif" font-size="10.00">HamiltonianOne::build</text>
</a>
</g>
</g>
<!-- Node1&#45;&gt;Node2 -->
<g id="edge1" class="edge"><title>Node1&#45;&gt;Node2</title>
<path fill="none" stroke="midnightblue" d="M126.792,-71.181C152.531,-76.5699 182.699,-82.8861 207.029,-87.9799"/>
<polygon fill="midnightblue" stroke="midnightblue" points="127.305,-67.7126 116.8,-69.089 125.871,-74.564 127.305,-67.7126"/>
</g>
<!-- Node4 -->
<g id="node4" class="node"><title>Node4</title>
<g id="a_node4"><a xlink:href="classMatrixElements.html#a8c96cdfdf45e83734ee613bc91526efb" target="_top" xlink:title="MatrixElements::getRadial">
<polygon fill="none" stroke="black" points="183,-50 183,-69 324,-69 324,-50 183,-50"/>
<text text-anchor="middle" x="253.5" y="-57" font-family="Helvetica,sans-Serif" font-size="10.00">MatrixElements::getRadial</text>
</a>
</g>
</g>
<!-- Node1&#45;&gt;Node4 -->
<g id="edge3" class="edge"><title>Node1&#45;&gt;Node4</title>
<path fill="none" stroke="midnightblue" d="M150.433,-59.5C161.266,-59.5 172.317,-59.5 182.956,-59.5"/>
<polygon fill="midnightblue" stroke="midnightblue" points="150.135,-56.0001 140.135,-59.5 150.135,-63.0001 150.135,-56.0001"/>
</g>
<!-- Node5 -->
<g id="node5" class="node"><title>Node5</title>
<g id="a_node5"><a xlink:href="classMatrixElements.html#adebeaf2c43204d0ed2f5d36b3ef9846b" target="_top" xlink:title="MatrixElements::precalculate\lDiamagnetism">
<polygon fill="none" stroke="black" points="176,-0.5 176,-30.5 331,-30.5 331,-0.5 176,-0.5"/>
<text text-anchor="start" x="184" y="-18.5" font-family="Helvetica,sans-Serif" font-size="10.00">MatrixElements::precalculate</text>
<text text-anchor="middle" x="253.5" y="-7.5" font-family="Helvetica,sans-Serif" font-size="10.00">Diamagnetism</text>
</a>
</g>
</g>
<!-- Node1&#45;&gt;Node5 -->
<g id="edge4" class="edge"><title>Node1&#45;&gt;Node5</title>
<path fill="none" stroke="midnightblue" d="M120.315,-47.545C141.905,-42.3108 167.481,-36.1107 190.355,-30.5654"/>
<polygon fill="midnightblue" stroke="midnightblue" points="119.277,-44.1951 110.383,-49.9527 120.926,-50.9981 119.277,-44.1951"/>
</g>
<!-- Node3 -->
<g id="node3" class="node"><title>Node3</title>
<g id="a_node3"><a xlink:href="classHamiltonianOne.html#ad3ba2d70879a60c9f065b5a2545dfe36" target="_top" xlink:title="HamiltonianOne::HamiltonianOne">
<polygon fill="none" stroke="black" points="367,-88 367,-107 544,-107 544,-88 367,-88"/>
<text text-anchor="middle" x="455.5" y="-95" font-family="Helvetica,sans-Serif" font-size="10.00">HamiltonianOne::HamiltonianOne</text>
</a>
</g>
</g>
<!-- Node2&#45;&gt;Node3 -->
<g id="edge2" class="edge"><title>Node2&#45;&gt;Node3</title>
<path fill="none" stroke="midnightblue" d="M324.728,-97.5C338.326,-97.5 352.731,-97.5 366.807,-97.5"/>
<polygon fill="midnightblue" stroke="midnightblue" points="324.507,-94.0001 314.507,-97.5 324.507,-101 324.507,-94.0001"/>
</g>
</g>
</svg>
