<?xml version="1.0" encoding="UTF-8" standalone="no"?>
<!DOCTYPE svg PUBLIC "-//W3C//DTD SVG 1.1//EN"
 "http://www.w3.org/Graphics/SVG/1.1/DTD/svg11.dtd">
<!-- Generated by graphviz version 2.38.0 (20140413.2041)
 -->
<!-- Title: utils::get_pid Pages: 1 -->
<svg width="477pt" height="39pt"
 viewBox="0.00 0.00 477.00 39.00" xmlns="http://www.w3.org/2000/svg" xmlns:xlink="http://www.w3.org/1999/xlink">
<g id="graph0" class="graph" transform="scale(1 1) rotate(0) translate(4 35)">
<title>utils::get_pid</title>
<!-- Node5 -->
<g id="node1" class="node"><title>Node5</title>
<polygon fill="#bfbfbf" stroke="black" points="0,-6 0,-25 77,-25 77,-6 0,-6"/>
<text text-anchor="middle" x="38.5" y="-13" font-family="Helvetica,sans-Serif" font-size="10.00">utils::get_pid</text>
</g>
<!-- Node6 -->
<g id="node2" class="node"><title>Node6</title>
<g id="a_node2"><a xlink:href="classMatrixElementCache.html#a41efbe3c4a7e3e5f2ed2c807a0b3178e" target="_top" xlink:title="MatrixElementCache\l::precalculateDiamagnetism">
<polygon fill="none" stroke="black" points="113,-0.5 113,-30.5 265,-30.5 265,-0.5 113,-0.5"/>
<text text-anchor="start" x="121" y="-18.5" font-family="Helvetica,sans-Serif" font-size="10.00">MatrixElementCache</text>
<text text-anchor="middle" x="189" y="-7.5" font-family="Helvetica,sans-Serif" font-size="10.00">::precalculateDiamagnetism</text>
</a>
</g>
</g>
<!-- Node5&#45;&gt;Node6 -->
<g id="edge1" class="edge"><title>Node5&#45;&gt;Node6</title>
<path fill="none" stroke="midnightblue" d="M87.4095,-15.5C95.5802,-15.5 104.24,-15.5 112.915,-15.5"/>
<polygon fill="midnightblue" stroke="midnightblue" points="87.3571,-12.0001 77.3571,-15.5 87.357,-19.0001 87.3571,-12.0001"/>
</g>
<!-- Node7 -->
<g id="node3" class="node"><title>Node7</title>
<g id="a_node3"><a xlink:href="classSystemOne.html#abf6d26d44765fa787251956c128644a7" target="_top" xlink:title="Method that allows base class to calculate the interaction /////. ">
<polygon fill="none" stroke="black" points="301,-6 301,-25 469,-25 469,-6 301,-6"/>
<text text-anchor="middle" x="385" y="-13" font-family="Helvetica,sans-Serif" font-size="10.00">SystemOne::initializeInteraction</text>
</a>
</g>
</g>
<!-- Node6&#45;&gt;Node7 -->
<g id="edge2" class="edge"><title>Node6&#45;&gt;Node7</title>
<path fill="none" stroke="midnightblue" d="M275.272,-15.5C283.753,-15.5 292.355,-15.5 300.814,-15.5"/>
<polygon fill="midnightblue" stroke="midnightblue" points="275.005,-12.0001 265.005,-15.5 275.005,-19.0001 275.005,-12.0001"/>
</g>
</g>
</svg>
