<?xml version="1.0" encoding="UTF-8" standalone="no"?>
<!DOCTYPE svg PUBLIC "-//W3C//DTD SVG 1.1//EN"
 "http://www.w3.org/Graphics/SVG/1.1/DTD/svg11.dtd">
<!-- Generated by graphviz version 2.38.0 (20140413.2041)
 -->
<!-- Title: /travis/libpairinteraction/NumpyUtils.h Pages: 1 -->
<svg width="842pt" height="95pt"
 viewBox="0.00 0.00 841.50 95.00" xmlns="http://www.w3.org/2000/svg" xmlns:xlink="http://www.w3.org/1999/xlink">
<g id="graph0" class="graph" transform="scale(1 1) rotate(0) translate(4 91)">
<title>/travis/libpairinteraction/NumpyUtils.h</title>
<!-- Node0 -->
<g id="node1" class="node"><title>Node0</title>
<polygon fill="#bfbfbf" stroke="black" points="364.5,-56.5 364.5,-86.5 492.5,-86.5 492.5,-56.5 364.5,-56.5"/>
<text text-anchor="start" x="372.5" y="-74.5" font-family="Helvetica,sans-Serif" font-size="10.00">/travis/libpairinteraction</text>
<text text-anchor="middle" x="428.5" y="-63.5" font-family="Helvetica,sans-Serif" font-size="10.00">/NumpyUtils.h</text>
</g>
<!-- Node1 -->
<g id="node2" class="node"><title>Node1</title>
<polygon fill="none" stroke="#bfbfbf" points="0,-0.5 0,-19.5 59,-19.5 59,-0.5 0,-0.5"/>
<text text-anchor="middle" x="29.5" y="-7.5" font-family="Helvetica,sans-Serif" font-size="10.00">Python.h</text>
</g>
<!-- Node0&#45;&gt;Node1 -->
<g id="edge1" class="edge"><title>Node0&#45;&gt;Node1</title>
<path fill="none" stroke="midnightblue" d="M364.498,-63.2362C294.417,-54.8968 178.551,-39.9803 69.1417,-19.9739"/>
<polygon fill="midnightblue" stroke="midnightblue" points="69.7238,-16.5223 59.2545,-18.1485 68.4529,-23.4059 69.7238,-16.5223"/>
</g>
<!-- Node2 -->
<g id="node3" class="node"><title>Node2</title>
<polygon fill="none" stroke="#bfbfbf" points="77.5,-0.5 77.5,-19.5 205.5,-19.5 205.5,-0.5 77.5,-0.5"/>
<text text-anchor="middle" x="141.5" y="-7.5" font-family="Helvetica,sans-Serif" font-size="10.00">numpy/ndarrayobject.h</text>
</g>
<!-- Node0&#45;&gt;Node2 -->
<g id="edge2" class="edge"><title>Node0&#45;&gt;Node2</title>
<path fill="none" stroke="midnightblue" d="M364.449,-57.2211C312.626,-46.4773 240.616,-31.5485 192.608,-21.5956"/>
<polygon fill="midnightblue" stroke="midnightblue" points="193.246,-18.1536 182.744,-19.5506 191.825,-25.0078 193.246,-18.1536"/>
</g>
<!-- Node3 -->
<g id="node4" class="node"><title>Node3</title>
<polygon fill="none" stroke="#bfbfbf" points="224,-0.5 224,-19.5 273,-19.5 273,-0.5 224,-0.5"/>
<text text-anchor="middle" x="248.5" y="-7.5" font-family="Helvetica,sans-Serif" font-size="10.00">cstring</text>
</g>
<!-- Node0&#45;&gt;Node3 -->
<g id="edge3" class="edge"><title>Node0&#45;&gt;Node3</title>
<path fill="none" stroke="midnightblue" d="M385.843,-56.3993C354.41,-46.009 312.206,-32.0583 282.914,-22.3757"/>
<polygon fill="midnightblue" stroke="midnightblue" points="283.723,-18.9571 273.13,-19.1417 281.526,-25.6034 283.723,-18.9571"/>
</g>
<!-- Node4 -->
<g id="node5" class="node"><title>Node4</title>
<polygon fill="none" stroke="#bfbfbf" points="291.5,-0.5 291.5,-19.5 343.5,-19.5 343.5,-0.5 291.5,-0.5"/>
<text text-anchor="middle" x="317.5" y="-7.5" font-family="Helvetica,sans-Serif" font-size="10.00">iterator</text>
</g>
<!-- Node0&#45;&gt;Node4 -->
<g id="edge4" class="edge"><title>Node0&#45;&gt;Node4</title>
<path fill="none" stroke="midnightblue" d="M402.195,-56.3993C384.236,-46.7728 360.576,-34.0902 342.829,-24.5772"/>
<polygon fill="midnightblue" stroke="midnightblue" points="344.119,-21.2975 333.651,-19.6578 340.812,-27.467 344.119,-21.2975"/>
</g>
<!-- Node5 -->
<g id="node6" class="node"><title>Node5</title>
<polygon fill="none" stroke="#bfbfbf" points="361.5,-0.5 361.5,-19.5 417.5,-19.5 417.5,-0.5 361.5,-0.5"/>
<text text-anchor="middle" x="389.5" y="-7.5" font-family="Helvetica,sans-Serif" font-size="10.00">numeric</text>
</g>
<!-- Node0&#45;&gt;Node5 -->
<g id="edge5" class="edge"><title>Node0&#45;&gt;Node5</title>
<path fill="none" stroke="midnightblue" d="M419.258,-56.3993C413.707,-47.9315 406.607,-37.0991 400.734,-28.1393"/>
<polygon fill="midnightblue" stroke="midnightblue" points="403.584,-26.1026 395.175,-19.6578 397.73,-29.94 403.584,-26.1026"/>
</g>
<!-- Node6 -->
<g id="node7" class="node"><title>Node6</title>
<polygon fill="none" stroke="#bfbfbf" points="435.5,-0.5 435.5,-19.5 499.5,-19.5 499.5,-0.5 435.5,-0.5"/>
<text text-anchor="middle" x="467.5" y="-7.5" font-family="Helvetica,sans-Serif" font-size="10.00">stdexcept</text>
</g>
<!-- Node0&#45;&gt;Node6 -->
<g id="edge6" class="edge"><title>Node0&#45;&gt;Node6</title>
<path fill="none" stroke="midnightblue" d="M437.742,-56.3993C443.293,-47.9315 450.393,-37.0991 456.266,-28.1393"/>
<polygon fill="midnightblue" stroke="midnightblue" points="459.27,-29.94 461.825,-19.6578 453.416,-26.1026 459.27,-29.94"/>
</g>
<!-- Node7 -->
<g id="node8" class="node"><title>Node7</title>
<polygon fill="none" stroke="#bfbfbf" points="518,-0.5 518,-19.5 559,-19.5 559,-0.5 518,-0.5"/>
<text text-anchor="middle" x="538.5" y="-7.5" font-family="Helvetica,sans-Serif" font-size="10.00">tuple</text>
</g>
<!-- Node0&#45;&gt;Node7 -->
<g id="edge7" class="edge"><title>Node0&#45;&gt;Node7</title>
<path fill="none" stroke="midnightblue" d="M454.568,-56.3993C472.365,-46.7728 495.812,-34.0902 513.399,-24.5772"/>
<polygon fill="midnightblue" stroke="midnightblue" points="515.364,-27.494 522.494,-19.6578 512.033,-21.337 515.364,-27.494"/>
</g>
<!-- Node8 -->
<g id="node9" class="node"><title>Node8</title>
<polygon fill="none" stroke="#bfbfbf" points="577.5,-0.5 577.5,-19.5 645.5,-19.5 645.5,-0.5 577.5,-0.5"/>
<text text-anchor="middle" x="611.5" y="-7.5" font-family="Helvetica,sans-Serif" font-size="10.00">Eigen/Core</text>
</g>
<!-- Node0&#45;&gt;Node8 -->
<g id="edge8" class="edge"><title>Node0&#45;&gt;Node8</title>
<path fill="none" stroke="midnightblue" d="M471.868,-56.3993C503.49,-46.118 545.833,-32.3506 575.571,-22.6818"/>
<polygon fill="midnightblue" stroke="midnightblue" points="576.711,-25.9915 585.139,-19.5709 574.547,-19.3345 576.711,-25.9915"/>
</g>
<!-- Node9 -->
<g id="node10" class="node"><title>Node9</title>
<polygon fill="none" stroke="#bfbfbf" points="663.5,-0.5 663.5,-19.5 765.5,-19.5 765.5,-0.5 663.5,-0.5"/>
<text text-anchor="middle" x="714.5" y="-7.5" font-family="Helvetica,sans-Serif" font-size="10.00">Eigen/SparseCore</text>
</g>
<!-- Node0&#45;&gt;Node9 -->
<g id="edge9" class="edge"><title>Node0&#45;&gt;Node9</title>
<path fill="none" stroke="midnightblue" d="M492.684,-57.147C544.346,-46.3992 615.966,-31.4991 663.697,-21.5691"/>
<polygon fill="midnightblue" stroke="midnightblue" points="664.427,-24.9924 673.504,-19.5289 663.001,-18.1391 664.427,-24.9924"/>
</g>
<!-- Node10 -->
<g id="node11" class="node"><title>Node10</title>
<g id="a_node11"><a xlink:href="Traits_8h.html" target="_top" xlink:title="Traits.h">
<polygon fill="none" stroke="black" points="783.5,-0.5 783.5,-19.5 833.5,-19.5 833.5,-0.5 783.5,-0.5"/>
<text text-anchor="middle" x="808.5" y="-7.5" font-family="Helvetica,sans-Serif" font-size="10.00">Traits.h</text>
</a>
</g>
</g>
<!-- Node0&#45;&gt;Node10 -->
<g id="edge10" class="edge"><title>Node0&#45;&gt;Node10</title>
<path fill="none" stroke="midnightblue" d="M492.649,-63.3548C560.218,-55.33 669.847,-40.8974 773.331,-20.0438"/>
<polygon fill="midnightblue" stroke="midnightblue" points="774.226,-23.4335 783.324,-18.0057 772.827,-16.5747 774.226,-23.4335"/>
</g>
</g>
</svg>
