<?xml version="1.0" encoding="UTF-8" standalone="no"?>
<!DOCTYPE svg PUBLIC "-//W3C//DTD SVG 1.1//EN"
 "http://www.w3.org/Graphics/SVG/1.1/DTD/svg11.dtd">
<!-- Generated by graphviz version 2.38.0 (20140413.2041)
 -->
<!-- Title: /travis/libpairinteraction/PerturbativeInteraction.h Pages: 1 -->
<svg width="2063pt" height="408pt"
 viewBox="0.00 0.00 2062.50 408.00" xmlns="http://www.w3.org/2000/svg" xmlns:xlink="http://www.w3.org/1999/xlink">
<g id="graph0" class="graph" transform="scale(1 1) rotate(0) translate(4 404)">
<title>/travis/libpairinteraction/PerturbativeInteraction.h</title>
<!-- Node0 -->
<g id="node1" class="node"><title>Node0</title>
<polygon fill="#bfbfbf" stroke="black" points="1509.5,-369.5 1509.5,-399.5 1647.5,-399.5 1647.5,-369.5 1509.5,-369.5"/>
<text text-anchor="start" x="1517.5" y="-387.5" font-family="Helvetica,sans-Serif" font-size="10.00">/travis/libpairinteraction</text>
<text text-anchor="middle" x="1578.5" y="-376.5" font-family="Helvetica,sans-Serif" font-size="10.00">/PerturbativeInteraction.h</text>
</g>
<!-- Node1 -->
<g id="node2" class="node"><title>Node1</title>
<g id="a_node2"><a xlink:href="MatrixElementCache_8h.html" target="_top" xlink:title="MatrixElementCache.h">
<polygon fill="none" stroke="black" points="651,-313.5 651,-332.5 776,-332.5 776,-313.5 651,-313.5"/>
<text text-anchor="middle" x="713.5" y="-320.5" font-family="Helvetica,sans-Serif" font-size="10.00">MatrixElementCache.h</text>
</a>
</g>
</g>
<!-- Node0&#45;&gt;Node1 -->
<g id="edge1" class="edge"><title>Node0&#45;&gt;Node1</title>
<path fill="none" stroke="midnightblue" d="M1509.18,-378.731C1348.18,-367.657 950.225,-340.283 786.082,-328.993"/>
<polygon fill="midnightblue" stroke="midnightblue" points="786.3,-325.499 776.084,-328.305 785.82,-332.483 786.3,-325.499"/>
</g>
<!-- Node9 -->
<g id="node10" class="node"><title>Node9</title>
<g id="a_node10"><a xlink:href="State_8h.html" target="_top" xlink:title="State.h">
<polygon fill="none" stroke="black" points="1606.5,-190.5 1606.5,-209.5 1658.5,-209.5 1658.5,-190.5 1606.5,-190.5"/>
<text text-anchor="middle" x="1632.5" y="-197.5" font-family="Helvetica,sans-Serif" font-size="10.00">State.h</text>
</a>
</g>
</g>
<!-- Node0&#45;&gt;Node9 -->
<g id="edge75" class="edge"><title>Node0&#45;&gt;Node9</title>
<path fill="none" stroke="midnightblue" d="M1582.65,-369.483C1592.27,-336.957 1616.12,-256.343 1626.97,-219.683"/>
<polygon fill="midnightblue" stroke="midnightblue" points="1630.41,-220.401 1629.89,-209.819 1623.7,-218.415 1630.41,-220.401"/>
</g>
<!-- Node10 -->
<g id="node11" class="node"><title>Node10</title>
<g id="a_node11"><a xlink:href="dtypes_8h.html" target="_top" xlink:title="dtypes.h">
<polygon fill="none" stroke="black" points="1490.5,-129 1490.5,-148 1548.5,-148 1548.5,-129 1490.5,-129"/>
<text text-anchor="middle" x="1519.5" y="-136" font-family="Helvetica,sans-Serif" font-size="10.00">dtypes.h</text>
</a>
</g>
</g>
<!-- Node0&#45;&gt;Node10 -->
<g id="edge76" class="edge"><title>Node0&#45;&gt;Node10</title>
<path fill="none" stroke="midnightblue" d="M1575.07,-369.327C1564.98,-327.607 1535.39,-205.228 1524.02,-158.203"/>
<polygon fill="midnightblue" stroke="midnightblue" points="1527.35,-157.093 1521.6,-148.195 1520.55,-158.738 1527.35,-157.093"/>
</g>
<!-- Node13 -->
<g id="node14" class="node"><title>Node13</title>
<polygon fill="none" stroke="#bfbfbf" points="1996,-62 1996,-81 2037,-81 2037,-62 1996,-62"/>
<text text-anchor="middle" x="2016.5" y="-69" font-family="Helvetica,sans-Serif" font-size="10.00">array</text>
</g>
<!-- Node0&#45;&gt;Node13 -->
<g id="edge77" class="edge"><title>Node0&#45;&gt;Node13</title>
<path fill="none" stroke="midnightblue" d="M1647.71,-380.263C1779.73,-372.188 2054.5,-345.422 2054.5,-262.5 2054.5,-262.5 2054.5,-262.5 2054.5,-199 2054.5,-158.85 2036.72,-114.446 2025.49,-90.3892"/>
<polygon fill="midnightblue" stroke="midnightblue" points="2028.51,-88.6043 2021.01,-81.1255 2022.21,-91.6518 2028.51,-88.6043"/>
</g>
<!-- Node15 -->
<g id="node16" class="node"><title>Node15</title>
<polygon fill="none" stroke="#bfbfbf" points="1303,-62 1303,-81 1350,-81 1350,-62 1303,-62"/>
<text text-anchor="middle" x="1326.5" y="-69" font-family="Helvetica,sans-Serif" font-size="10.00">vector</text>
</g>
<!-- Node0&#45;&gt;Node15 -->
<g id="edge78" class="edge"><title>Node0&#45;&gt;Node15</title>
<path fill="none" stroke="midnightblue" d="M1570,-369.243C1550.09,-336.283 1498.09,-252.828 1445.5,-190 1412.49,-150.568 1368.2,-109.455 1344.03,-87.8619"/>
<polygon fill="midnightblue" stroke="midnightblue" points="1346.18,-85.0889 1336.37,-81.073 1341.53,-90.3264 1346.18,-85.0889"/>
</g>
<!-- Node2 -->
<g id="node3" class="node"><title>Node2</title>
<g id="a_node3"><a xlink:href="Basisnames_8h.html" target="_top" xlink:title="Basisnames.h">
<polygon fill="none" stroke="black" points="1198.5,-252 1198.5,-271 1282.5,-271 1282.5,-252 1198.5,-252"/>
<text text-anchor="middle" x="1240.5" y="-259" font-family="Helvetica,sans-Serif" font-size="10.00">Basisnames.h</text>
</a>
</g>
</g>
<!-- Node1&#45;&gt;Node2 -->
<g id="edge2" class="edge"><title>Node1&#45;&gt;Node2</title>
<path fill="none" stroke="midnightblue" d="M776.002,-319.731C867.471,-315.59 1042.86,-304.538 1189.5,-277 1194.28,-276.102 1199.26,-274.957 1204.15,-273.705"/>
<polygon fill="midnightblue" stroke="midnightblue" points="1205.26,-277.033 1213.99,-271.031 1203.42,-270.279 1205.26,-277.033"/>
</g>
<!-- Node5 -->
<g id="node6" class="node"><title>Node5</title>
<polygon fill="none" stroke="#bfbfbf" points="855.5,-62 855.5,-81 911.5,-81 911.5,-62 855.5,-62"/>
<text text-anchor="middle" x="883.5" y="-69" font-family="Helvetica,sans-Serif" font-size="10.00">sstream</text>
</g>
<!-- Node1&#45;&gt;Node5 -->
<g id="edge71" class="edge"><title>Node1&#45;&gt;Node5</title>
<path fill="none" stroke="midnightblue" d="M650.733,-321.145C576.135,-318.643 458.236,-309.495 430.5,-277 421.555,-266.521 421.849,-256.724 430.5,-246 460.836,-208.395 819.384,-186.095 855.5,-154 873.466,-138.034 879.91,-110.009 882.218,-91.3496"/>
<polygon fill="midnightblue" stroke="midnightblue" points="885.727,-91.4186 883.186,-81.133 878.758,-90.7581 885.727,-91.4186"/>
</g>
<!-- Node6 -->
<g id="node7" class="node"><title>Node6</title>
<polygon fill="none" stroke="#bfbfbf" points="929.5,-62 929.5,-81 973.5,-81 973.5,-62 929.5,-62"/>
<text text-anchor="middle" x="951.5" y="-69" font-family="Helvetica,sans-Serif" font-size="10.00">string</text>
</g>
<!-- Node1&#45;&gt;Node6 -->
<g id="edge72" class="edge"><title>Node1&#45;&gt;Node6</title>
<path fill="none" stroke="midnightblue" d="M776.056,-322.847C862.134,-322.52 1010.36,-316.096 1044.5,-277 1094.02,-220.298 980.038,-235.075 958.5,-210 929.775,-176.558 938.807,-119.932 946.101,-90.8871"/>
<polygon fill="midnightblue" stroke="midnightblue" points="949.486,-91.7793 948.729,-81.2115 942.73,-89.9444 949.486,-91.7793"/>
</g>
<!-- Node1&#45;&gt;Node10 -->
<g id="edge63" class="edge"><title>Node1&#45;&gt;Node10</title>
<path fill="none" stroke="midnightblue" d="M776.332,-322.715C883.37,-322.694 1107.38,-317.249 1291.5,-277 1375.71,-258.592 1406.08,-263.709 1473.5,-210 1491.13,-195.956 1504.21,-173.248 1511.83,-157.411"/>
<polygon fill="midnightblue" stroke="midnightblue" points="1515.08,-158.708 1516.04,-148.156 1508.71,-155.81 1515.08,-158.708"/>
</g>
<!-- Node16 -->
<g id="node17" class="node"><title>Node16</title>
<polygon fill="none" stroke="#bfbfbf" points="706.5,-129 706.5,-148 846.5,-148 846.5,-129 706.5,-129"/>
<text text-anchor="middle" x="776.5" y="-136" font-family="Helvetica,sans-Serif" font-size="10.00">boost/functional/hash.hpp</text>
</g>
<!-- Node1&#45;&gt;Node16 -->
<g id="edge67" class="edge"><title>Node1&#45;&gt;Node16</title>
<path fill="none" stroke="midnightblue" d="M650.977,-322.371C568.398,-321.374 429.641,-314.042 397.5,-277 388.47,-266.594 390.099,-257.621 397.5,-246 397.623,-245.806 517.281,-190.071 517.5,-190 536.418,-183.844 648.912,-162.791 719.281,-149.892"/>
<polygon fill="midnightblue" stroke="midnightblue" points="720.134,-153.294 729.341,-148.051 718.874,-146.408 720.134,-153.294"/>
</g>
<!-- Node22 -->
<g id="node23" class="node"><title>Node22</title>
<polygon fill="none" stroke="#bfbfbf" points="364,-62 364,-81 421,-81 421,-62 364,-62"/>
<text text-anchor="middle" x="392.5" y="-69" font-family="Helvetica,sans-Serif" font-size="10.00">memory</text>
</g>
<!-- Node1&#45;&gt;Node22 -->
<g id="edge70" class="edge"><title>Node1&#45;&gt;Node22</title>
<path fill="none" stroke="midnightblue" d="M650.889,-320.228C568.251,-316.746 428.443,-306.549 387.5,-277 353.966,-252.798 348.059,-230.85 354.5,-190 360.237,-153.618 375.387,-113.152 384.732,-90.4666"/>
<polygon fill="midnightblue" stroke="midnightblue" points="388.016,-91.6878 388.676,-81.1135 381.566,-88.9684 388.016,-91.6878"/>
</g>
<!-- Node25 -->
<g id="node26" class="node"><title>Node25</title>
<g id="a_node26"><a xlink:href="Wavefunction_8h.html" target="_top" xlink:title="Wavefunction.h">
<polygon fill="none" stroke="black" points="1092,-252 1092,-271 1181,-271 1181,-252 1092,-252"/>
<text text-anchor="middle" x="1136.5" y="-259" font-family="Helvetica,sans-Serif" font-size="10.00">Wavefunction.h</text>
</a>
</g>
</g>
<!-- Node1&#45;&gt;Node25 -->
<g id="edge31" class="edge"><title>Node1&#45;&gt;Node25</title>
<path fill="none" stroke="midnightblue" d="M776.32,-316.506C849.145,-309.612 972.605,-296.304 1077.5,-277 1083.08,-275.974 1088.91,-274.739 1094.65,-273.429"/>
<polygon fill="midnightblue" stroke="midnightblue" points="1095.88,-276.734 1104.8,-271.018 1094.27,-269.924 1095.88,-276.734"/>
</g>
<!-- Node29 -->
<g id="node30" class="node"><title>Node29</title>
<polygon fill="none" stroke="#bfbfbf" points="0,-62 0,-81 93,-81 93,-62 0,-62"/>
<text text-anchor="middle" x="46.5" y="-69" font-family="Helvetica,sans-Serif" font-size="10.00">unordered_map</text>
</g>
<!-- Node1&#45;&gt;Node29 -->
<g id="edge74" class="edge"><title>Node1&#45;&gt;Node29</title>
<path fill="none" stroke="midnightblue" d="M650.901,-320.644C536.953,-317.454 300.416,-307.297 224.5,-277 142.497,-244.274 117.137,-227.689 68.5,-154 55.8509,-134.835 50.4443,-108.601 48.153,-91.1295"/>
<polygon fill="midnightblue" stroke="midnightblue" points="51.6199,-90.6357 47.0524,-81.076 44.6615,-91.3975 51.6199,-90.6357"/>
</g>
<!-- Node38 -->
<g id="node39" class="node"><title>Node38</title>
<g id="a_node39"><a xlink:href="utils_8h.html" target="_top" xlink:title="utils.h">
<polygon fill="none" stroke="black" points="301,-62 301,-81 346,-81 346,-62 301,-62"/>
<text text-anchor="middle" x="323.5" y="-69" font-family="Helvetica,sans-Serif" font-size="10.00">utils.h</text>
</a>
</g>
</g>
<!-- Node1&#45;&gt;Node38 -->
<g id="edge64" class="edge"><title>Node1&#45;&gt;Node38</title>
<path fill="none" stroke="midnightblue" d="M650.932,-322.843C559.647,-322.677 396.355,-316.641 355.5,-277 304.218,-227.242 313.294,-131.407 319.904,-91.0911"/>
<polygon fill="midnightblue" stroke="midnightblue" points="323.38,-91.5331 321.689,-81.074 316.489,-90.3045 323.38,-91.5331"/>
</g>
<!-- Node42 -->
<g id="node43" class="node"><title>Node42</title>
<polygon fill="none" stroke="#bfbfbf" points="78,-129 78,-148 119,-148 119,-129 78,-129"/>
<text text-anchor="middle" x="98.5" y="-136" font-family="Helvetica,sans-Serif" font-size="10.00">tuple</text>
</g>
<!-- Node1&#45;&gt;Node42 -->
<g id="edge73" class="edge"><title>Node1&#45;&gt;Node42</title>
<path fill="none" stroke="midnightblue" d="M650.875,-319.51C548.19,-314.753 348.888,-302.491 283.5,-277 211.931,-249.099 143.677,-185.734 114.005,-155.774"/>
<polygon fill="midnightblue" stroke="midnightblue" points="116.175,-152.985 106.689,-148.267 111.162,-157.871 116.175,-152.985"/>
</g>
<!-- Node43 -->
<g id="node44" class="node"><title>Node43</title>
<polygon fill="none" stroke="#bfbfbf" points="440,-246.5 440,-276.5 637,-276.5 637,-246.5 440,-246.5"/>
<text text-anchor="start" x="448" y="-264.5" font-family="Helvetica,sans-Serif" font-size="10.00">wignerSymbols/include</text>
<text text-anchor="middle" x="538.5" y="-253.5" font-family="Helvetica,sans-Serif" font-size="10.00">/wignerSymbols/wignerSymbols&#45;cpp.h</text>
</g>
<!-- Node1&#45;&gt;Node43 -->
<g id="edge65" class="edge"><title>Node1&#45;&gt;Node43</title>
<path fill="none" stroke="midnightblue" d="M688.427,-313.475C662.732,-304.739 622.051,-290.907 589.544,-279.855"/>
<polygon fill="midnightblue" stroke="midnightblue" points="590.338,-276.428 579.744,-276.523 588.085,-283.056 590.338,-276.428"/>
</g>
<!-- Node44 -->
<g id="node45" class="node"><title>Node44</title>
<polygon fill="none" stroke="#bfbfbf" points="655.5,-252 655.5,-271 771.5,-271 771.5,-252 655.5,-252"/>
<text text-anchor="middle" x="713.5" y="-259" font-family="Helvetica,sans-Serif" font-size="10.00">boost/filesystem.hpp</text>
</g>
<!-- Node1&#45;&gt;Node44 -->
<g id="edge66" class="edge"><title>Node1&#45;&gt;Node44</title>
<path fill="none" stroke="midnightblue" d="M713.5,-313.475C713.5,-305.08 713.5,-291.981 713.5,-281.163"/>
<polygon fill="midnightblue" stroke="midnightblue" points="717,-281.009 713.5,-271.009 710,-281.009 717,-281.009"/>
</g>
<!-- Node45 -->
<g id="node46" class="node"><title>Node45</title>
<polygon fill="none" stroke="#bfbfbf" points="790,-246.5 790,-276.5 907,-276.5 907,-246.5 790,-246.5"/>
<text text-anchor="start" x="798" y="-264.5" font-family="Helvetica,sans-Serif" font-size="10.00">boost/serialization</text>
<text text-anchor="middle" x="848.5" y="-253.5" font-family="Helvetica,sans-Serif" font-size="10.00">/unordered_map.hpp</text>
</g>
<!-- Node1&#45;&gt;Node45 -->
<g id="edge68" class="edge"><title>Node1&#45;&gt;Node45</title>
<path fill="none" stroke="midnightblue" d="M732.842,-313.475C752.237,-304.927 782.699,-291.501 807.493,-280.573"/>
<polygon fill="midnightblue" stroke="midnightblue" points="808.944,-283.759 816.683,-276.523 806.121,-277.353 808.944,-283.759"/>
</g>
<!-- Node46 -->
<g id="node47" class="node"><title>Node46</title>
<polygon fill="none" stroke="#bfbfbf" points="925.5,-246.5 925.5,-276.5 1035.5,-276.5 1035.5,-246.5 925.5,-246.5"/>
<text text-anchor="start" x="933.5" y="-264.5" font-family="Helvetica,sans-Serif" font-size="10.00">boost/serialization</text>
<text text-anchor="middle" x="980.5" y="-253.5" font-family="Helvetica,sans-Serif" font-size="10.00">/unordered_set.hpp</text>
</g>
<!-- Node1&#45;&gt;Node46 -->
<g id="edge69" class="edge"><title>Node1&#45;&gt;Node46</title>
<path fill="none" stroke="midnightblue" d="M751.85,-313.46C790.419,-304.871 851.873,-291.183 915.034,-277.104"/>
<polygon fill="midnightblue" stroke="midnightblue" points="916.183,-280.433 925.182,-274.841 914.66,-273.601 916.183,-280.433"/>
</g>
<!-- Node3 -->
<g id="node4" class="node"><title>Node3</title>
<g id="a_node4"><a xlink:href="ConfParser_8h.html" target="_top" xlink:title="ConfParser.h">
<polygon fill="none" stroke="black" points="1017,-129 1017,-148 1094,-148 1094,-129 1017,-129"/>
<text text-anchor="middle" x="1055.5" y="-136" font-family="Helvetica,sans-Serif" font-size="10.00">ConfParser.h</text>
</a>
</g>
</g>
<!-- Node2&#45;&gt;Node3 -->
<g id="edge3" class="edge"><title>Node2&#45;&gt;Node3</title>
<path fill="none" stroke="midnightblue" d="M1211.38,-251.942C1186.17,-243.678 1149.46,-229.538 1121.5,-210 1100.13,-195.069 1080.37,-172.269 1068.15,-156.666"/>
<polygon fill="midnightblue" stroke="midnightblue" points="1070.72,-154.257 1061.87,-148.425 1065.15,-158.5 1070.72,-154.257"/>
</g>
<!-- Node2&#45;&gt;Node6 -->
<g id="edge28" class="edge"><title>Node2&#45;&gt;Node6</title>
<path fill="none" stroke="midnightblue" d="M1209.4,-251.951C1179.46,-243.195 1133.29,-228.297 1095.5,-210 1053.78,-189.797 1040.85,-186.197 1007.5,-154 987.779,-134.963 970.874,-107.97 960.944,-90.3501"/>
<polygon fill="midnightblue" stroke="midnightblue" points="963.804,-88.2843 955.935,-81.1899 957.662,-91.643 963.804,-88.2843"/>
</g>
<!-- Node8 -->
<g id="node9" class="node"><title>Node8</title>
<g id="a_node9"><a xlink:href="Iter_8h.html" target="_top" xlink:title="Iter.h">
<polygon fill="none" stroke="black" points="1285,-190.5 1285,-209.5 1326,-209.5 1326,-190.5 1285,-190.5"/>
<text text-anchor="middle" x="1305.5" y="-197.5" font-family="Helvetica,sans-Serif" font-size="10.00">Iter.h</text>
</a>
</g>
</g>
<!-- Node2&#45;&gt;Node8 -->
<g id="edge8" class="edge"><title>Node2&#45;&gt;Node8</title>
<path fill="none" stroke="midnightblue" d="M1249.81,-251.975C1259.95,-242.697 1276.36,-227.671 1288.75,-216.331"/>
<polygon fill="midnightblue" stroke="midnightblue" points="1291.19,-218.843 1296.2,-209.509 1286.46,-213.68 1291.19,-218.843"/>
</g>
<!-- Node2&#45;&gt;Node9 -->
<g id="edge9" class="edge"><title>Node2&#45;&gt;Node9</title>
<path fill="none" stroke="midnightblue" d="M1282.82,-254.076C1360.19,-242.333 1523.16,-217.597 1595.99,-206.542"/>
<polygon fill="midnightblue" stroke="midnightblue" points="1596.7,-209.974 1606.06,-205.013 1595.65,-203.054 1596.7,-209.974"/>
</g>
<!-- Node2&#45;&gt;Node10 -->
<g id="edge24" class="edge"><title>Node2&#45;&gt;Node10</title>
<path fill="none" stroke="midnightblue" d="M1282.86,-256.516C1326.01,-251.024 1393.75,-238.363 1445.5,-210 1470.18,-196.472 1492.69,-172.641 1506.24,-156.469"/>
<polygon fill="midnightblue" stroke="midnightblue" points="1509.22,-158.356 1512.8,-148.386 1503.78,-153.943 1509.22,-158.356"/>
</g>
<!-- Node2&#45;&gt;Node15 -->
<g id="edge30" class="edge"><title>Node2&#45;&gt;Node15</title>
<path fill="none" stroke="midnightblue" d="M1274.58,-251.868C1295.85,-244.525 1321.57,-231.624 1334.5,-210 1356.93,-172.496 1343.26,-118.471 1333.6,-90.6216"/>
<polygon fill="midnightblue" stroke="midnightblue" points="1336.8,-89.1875 1330.06,-81.0149 1330.23,-91.6083 1336.8,-89.1875"/>
</g>
<!-- Node21 -->
<g id="node22" class="node"><title>Node21</title>
<polygon fill="none" stroke="#bfbfbf" points="1382.5,-190.5 1382.5,-209.5 1436.5,-209.5 1436.5,-190.5 1382.5,-190.5"/>
<text text-anchor="middle" x="1409.5" y="-197.5" font-family="Helvetica,sans-Serif" font-size="10.00">fstream</text>
</g>
<!-- Node2&#45;&gt;Node21 -->
<g id="edge25" class="edge"><title>Node2&#45;&gt;Node21</title>
<path fill="none" stroke="midnightblue" d="M1264.71,-251.975C1293.83,-241.725 1342.87,-224.459 1375.7,-212.899"/>
<polygon fill="midnightblue" stroke="midnightblue" points="1377.06,-216.131 1385.33,-209.509 1374.74,-209.529 1377.06,-216.131"/>
</g>
<!-- Node2&#45;&gt;Node22 -->
<g id="edge26" class="edge"><title>Node2&#45;&gt;Node22</title>
<path fill="none" stroke="midnightblue" d="M1212.87,-251.957C1205.34,-249.817 1197.15,-247.66 1189.5,-246 923.285,-188.19 845.536,-228.496 583.5,-154 522.006,-136.517 454.059,-104.15 418.105,-85.9069"/>
<polygon fill="midnightblue" stroke="midnightblue" points="419.34,-82.6069 408.845,-81.1601 416.147,-88.8363 419.34,-82.6069"/>
</g>
<!-- Node23 -->
<g id="node24" class="node"><title>Node23</title>
<polygon fill="none" stroke="#bfbfbf" points="1130.5,-190.5 1130.5,-209.5 1162.5,-209.5 1162.5,-190.5 1130.5,-190.5"/>
<text text-anchor="middle" x="1146.5" y="-197.5" font-family="Helvetica,sans-Serif" font-size="10.00">set</text>
</g>
<!-- Node2&#45;&gt;Node23 -->
<g id="edge27" class="edge"><title>Node2&#45;&gt;Node23</title>
<path fill="none" stroke="midnightblue" d="M1227.03,-251.975C1211.82,-242.343 1186.81,-226.517 1168.7,-215.052"/>
<polygon fill="midnightblue" stroke="midnightblue" points="1170.26,-211.9 1159.94,-209.509 1166.52,-217.815 1170.26,-211.9"/>
</g>
<!-- Node24 -->
<g id="node25" class="node"><title>Node24</title>
<polygon fill="none" stroke="#bfbfbf" points="1180.5,-190.5 1180.5,-209.5 1266.5,-209.5 1266.5,-190.5 1180.5,-190.5"/>
<text text-anchor="middle" x="1223.5" y="-197.5" font-family="Helvetica,sans-Serif" font-size="10.00">unordered_set</text>
</g>
<!-- Node2&#45;&gt;Node24 -->
<g id="edge29" class="edge"><title>Node2&#45;&gt;Node24</title>
<path fill="none" stroke="midnightblue" d="M1238.06,-251.975C1235.64,-243.492 1231.84,-230.204 1228.73,-219.322"/>
<polygon fill="midnightblue" stroke="midnightblue" points="1232.04,-218.163 1225.93,-209.509 1225.31,-220.086 1232.04,-218.163"/>
</g>
<!-- Node4 -->
<g id="node5" class="node"><title>Node4</title>
<polygon fill="none" stroke="#bfbfbf" points="1132.5,-62 1132.5,-81 1170.5,-81 1170.5,-62 1132.5,-62"/>
<text text-anchor="middle" x="1151.5" y="-69" font-family="Helvetica,sans-Serif" font-size="10.00">map</text>
</g>
<!-- Node3&#45;&gt;Node4 -->
<g id="edge4" class="edge"><title>Node3&#45;&gt;Node4</title>
<path fill="none" stroke="midnightblue" d="M1068.45,-128.734C1084.35,-117.964 1111.55,-99.55 1130.47,-86.7395"/>
<polygon fill="midnightblue" stroke="midnightblue" points="1132.44,-89.6321 1138.76,-81.1273 1128.52,-83.8357 1132.44,-89.6321"/>
</g>
<!-- Node3&#45;&gt;Node5 -->
<g id="edge5" class="edge"><title>Node3&#45;&gt;Node5</title>
<path fill="none" stroke="midnightblue" d="M1032.05,-128.852C1005.08,-118.882 959.526,-101.945 920.5,-87 918.664,-86.2968 916.778,-85.5705 914.876,-84.8348"/>
<polygon fill="midnightblue" stroke="midnightblue" points="915.979,-81.5086 905.391,-81.1437 913.441,-88.0321 915.979,-81.5086"/>
</g>
<!-- Node3&#45;&gt;Node6 -->
<g id="edge6" class="edge"><title>Node3&#45;&gt;Node6</title>
<path fill="none" stroke="midnightblue" d="M1041.47,-128.734C1024.17,-117.916 994.513,-99.3832 974.005,-86.5659"/>
<polygon fill="midnightblue" stroke="midnightblue" points="975.639,-83.4593 965.304,-81.1273 971.929,-89.3953 975.639,-83.4593"/>
</g>
<!-- Node7 -->
<g id="node8" class="node"><title>Node7</title>
<polygon fill="none" stroke="#bfbfbf" points="992.5,-62 992.5,-81 1114.5,-81 1114.5,-62 992.5,-62"/>
<text text-anchor="middle" x="1053.5" y="-69" font-family="Helvetica,sans-Serif" font-size="10.00">boost/lexical_cast.hpp</text>
</g>
<!-- Node3&#45;&gt;Node7 -->
<g id="edge7" class="edge"><title>Node3&#45;&gt;Node7</title>
<path fill="none" stroke="midnightblue" d="M1055.23,-128.734C1054.94,-119.183 1054.46,-103.618 1054.08,-91.2829"/>
<polygon fill="midnightblue" stroke="midnightblue" points="1057.57,-91.0149 1053.77,-81.1273 1050.57,-91.2302 1057.57,-91.0149"/>
</g>
<!-- Node9&#45;&gt;Node6 -->
<g id="edge20" class="edge"><title>Node9&#45;&gt;Node6</title>
<path fill="none" stroke="midnightblue" d="M1606.28,-196.886C1517.22,-189.199 1218.76,-159.301 983.5,-87 981.576,-86.4087 979.616,-85.7289 977.662,-84.9933"/>
<polygon fill="midnightblue" stroke="midnightblue" points="978.703,-81.6347 968.127,-81.0006 975.999,-88.0915 978.703,-81.6347"/>
</g>
<!-- Node9&#45;&gt;Node10 -->
<g id="edge10" class="edge"><title>Node9&#45;&gt;Node10</title>
<path fill="none" stroke="midnightblue" d="M1616.31,-190.475C1597.6,-180.622 1566.58,-164.288 1544.7,-152.77"/>
<polygon fill="midnightblue" stroke="midnightblue" points="1546.14,-149.571 1535.66,-148.009 1542.88,-155.765 1546.14,-149.571"/>
</g>
<!-- Node9&#45;&gt;Node13 -->
<g id="edge16" class="edge"><title>Node9&#45;&gt;Node13</title>
<path fill="none" stroke="midnightblue" d="M1658.52,-199.501C1733.46,-200.391 1947.58,-198.871 1997.5,-154 2014.94,-138.322 2017.94,-110.014 2017.78,-91.2353"/>
<polygon fill="midnightblue" stroke="midnightblue" points="2021.27,-91.0651 2017.38,-81.21 2014.28,-91.3395 2021.27,-91.0651"/>
</g>
<!-- Node14 -->
<g id="node15" class="node"><title>Node14</title>
<polygon fill="none" stroke="#bfbfbf" points="1639,-62 1639,-81 1686,-81 1686,-62 1639,-62"/>
<text text-anchor="middle" x="1662.5" y="-69" font-family="Helvetica,sans-Serif" font-size="10.00">cmath</text>
</g>
<!-- Node9&#45;&gt;Node14 -->
<g id="edge18" class="edge"><title>Node9&#45;&gt;Node14</title>
<path fill="none" stroke="midnightblue" d="M1631.23,-190.37C1629.43,-176.066 1627.02,-146.673 1633.5,-123 1636.78,-111.006 1643.61,-98.8794 1649.81,-89.5166"/>
<polygon fill="midnightblue" stroke="midnightblue" points="1652.78,-91.3798 1655.65,-81.1823 1647.05,-87.3616 1652.78,-91.3798"/>
</g>
<!-- Node9&#45;&gt;Node16 -->
<g id="edge17" class="edge"><title>Node9&#45;&gt;Node16</title>
<path fill="none" stroke="midnightblue" d="M1606.41,-197.187C1493.25,-189.321 1042.24,-157.971 856.778,-145.08"/>
<polygon fill="midnightblue" stroke="midnightblue" points="856.767,-141.571 846.548,-144.369 856.281,-148.554 856.767,-141.571"/>
</g>
<!-- Node17 -->
<g id="node18" class="node"><title>Node17</title>
<polygon fill="none" stroke="#bfbfbf" points="1562,-62 1562,-81 1621,-81 1621,-62 1562,-62"/>
<text text-anchor="middle" x="1591.5" y="-69" font-family="Helvetica,sans-Serif" font-size="10.00">iostream</text>
</g>
<!-- Node9&#45;&gt;Node17 -->
<g id="edge19" class="edge"><title>Node9&#45;&gt;Node17</title>
<path fill="none" stroke="midnightblue" d="M1629.68,-190.305C1623.07,-169.904 1606.44,-118.6 1597.47,-90.9078"/>
<polygon fill="midnightblue" stroke="midnightblue" points="1600.75,-89.6894 1594.34,-81.2557 1594.09,-91.8477 1600.75,-89.6894"/>
</g>
<!-- Node18 -->
<g id="node19" class="node"><title>Node18</title>
<polygon fill="none" stroke="#bfbfbf" points="1642.5,-123.5 1642.5,-153.5 1746.5,-153.5 1746.5,-123.5 1642.5,-123.5"/>
<text text-anchor="start" x="1650.5" y="-141.5" font-family="Helvetica,sans-Serif" font-size="10.00">boost/serialization</text>
<text text-anchor="middle" x="1694.5" y="-130.5" font-family="Helvetica,sans-Serif" font-size="10.00">/array.hpp</text>
</g>
<!-- Node9&#45;&gt;Node18 -->
<g id="edge21" class="edge"><title>Node9&#45;&gt;Node18</title>
<path fill="none" stroke="midnightblue" d="M1641.38,-190.475C1649.47,-182.718 1661.74,-170.943 1672.45,-160.665"/>
<polygon fill="midnightblue" stroke="midnightblue" points="1675.1,-162.972 1679.89,-153.523 1670.25,-157.922 1675.1,-162.972"/>
</g>
<!-- Node19 -->
<g id="node20" class="node"><title>Node19</title>
<polygon fill="none" stroke="#bfbfbf" points="1764.5,-123.5 1764.5,-153.5 1868.5,-153.5 1868.5,-123.5 1764.5,-123.5"/>
<text text-anchor="start" x="1772.5" y="-141.5" font-family="Helvetica,sans-Serif" font-size="10.00">boost/serialization</text>
<text text-anchor="middle" x="1816.5" y="-130.5" font-family="Helvetica,sans-Serif" font-size="10.00">/string.hpp</text>
</g>
<!-- Node9&#45;&gt;Node19 -->
<g id="edge22" class="edge"><title>Node9&#45;&gt;Node19</title>
<path fill="none" stroke="midnightblue" d="M1658.86,-190.475C1686,-181.701 1729.02,-167.788 1763.27,-156.712"/>
<polygon fill="midnightblue" stroke="midnightblue" points="1764.7,-159.93 1773.13,-153.523 1762.54,-153.27 1764.7,-159.93"/>
</g>
<!-- Node20 -->
<g id="node21" class="node"><title>Node20</title>
<polygon fill="none" stroke="#bfbfbf" points="1887,-129 1887,-148 1988,-148 1988,-129 1887,-129"/>
<text text-anchor="middle" x="1937.5" y="-136" font-family="Helvetica,sans-Serif" font-size="10.00">boost/variant.hpp</text>
</g>
<!-- Node9&#45;&gt;Node20 -->
<g id="edge23" class="edge"><title>Node9&#45;&gt;Node20</title>
<path fill="none" stroke="midnightblue" d="M1658.7,-194.679C1703.63,-187.16 1798.18,-170.855 1877.5,-154 1882.81,-152.872 1888.36,-151.624 1893.86,-150.346"/>
<polygon fill="midnightblue" stroke="midnightblue" points="1894.7,-153.744 1903.62,-148.034 1893.09,-146.932 1894.7,-153.744"/>
</g>
<!-- Node11 -->
<g id="node12" class="node"><title>Node11</title>
<polygon fill="none" stroke="#bfbfbf" points="1368,-62 1368,-81 1445,-81 1445,-62 1368,-62"/>
<text text-anchor="middle" x="1406.5" y="-69" font-family="Helvetica,sans-Serif" font-size="10.00">Eigen/Dense</text>
</g>
<!-- Node10&#45;&gt;Node11 -->
<g id="edge11" class="edge"><title>Node10&#45;&gt;Node11</title>
<path fill="none" stroke="midnightblue" d="M1504.26,-128.734C1485.28,-117.818 1452.65,-99.0487 1430.35,-86.2209"/>
<polygon fill="midnightblue" stroke="midnightblue" points="1431.91,-83.0796 1421.5,-81.1273 1428.42,-89.1474 1431.91,-83.0796"/>
</g>
<!-- Node12 -->
<g id="node13" class="node"><title>Node12</title>
<polygon fill="none" stroke="#bfbfbf" points="1463.5,-62 1463.5,-81 1543.5,-81 1543.5,-62 1463.5,-62"/>
<text text-anchor="middle" x="1503.5" y="-69" font-family="Helvetica,sans-Serif" font-size="10.00">Eigen/Sparse</text>
</g>
<!-- Node10&#45;&gt;Node12 -->
<g id="edge12" class="edge"><title>Node10&#45;&gt;Node12</title>
<path fill="none" stroke="midnightblue" d="M1517.34,-128.734C1514.97,-119.085 1511.08,-103.3 1508.03,-90.9063"/>
<polygon fill="midnightblue" stroke="midnightblue" points="1511.41,-90.0009 1505.62,-81.1273 1504.62,-91.674 1511.41,-90.0009"/>
</g>
<!-- Node10&#45;&gt;Node13 -->
<g id="edge13" class="edge"><title>Node10&#45;&gt;Node13</title>
<path fill="none" stroke="midnightblue" d="M1548.73,-133.677C1636.41,-122.21 1896.6,-88.1814 1985.96,-76.494"/>
<polygon fill="midnightblue" stroke="midnightblue" points="1986.53,-79.9498 1995.99,-75.1825 1985.62,-73.0089 1986.53,-79.9498"/>
</g>
<!-- Node10&#45;&gt;Node14 -->
<g id="edge14" class="edge"><title>Node10&#45;&gt;Node14</title>
<path fill="none" stroke="midnightblue" d="M1538.49,-128.869C1562.96,-117.748 1605.7,-98.3167 1634.06,-85.4286"/>
<polygon fill="midnightblue" stroke="midnightblue" points="1635.78,-88.4916 1643.43,-81.1672 1632.88,-82.119 1635.78,-88.4916"/>
</g>
<!-- Node10&#45;&gt;Node15 -->
<g id="edge15" class="edge"><title>Node10&#45;&gt;Node15</title>
<path fill="none" stroke="midnightblue" d="M1494.53,-128.943C1488.63,-126.958 1482.35,-124.879 1476.5,-123 1424.29,-106.238 1409.8,-106.356 1358.5,-87 1356.89,-86.3931 1355.25,-85.7441 1353.6,-85.0695"/>
<polygon fill="midnightblue" stroke="midnightblue" points="1354.84,-81.7912 1344.27,-81.0431 1352.06,-88.2185 1354.84,-81.7912"/>
</g>
<!-- Node25&#45;&gt;Node6 -->
<g id="edge61" class="edge"><title>Node25&#45;&gt;Node6</title>
<path fill="none" stroke="midnightblue" d="M1102.57,-251.946C1057.65,-240.32 983.092,-219.853 974.5,-210 945.289,-176.505 946.15,-120.317 948.971,-91.2245"/>
<polygon fill="midnightblue" stroke="midnightblue" points="952.46,-91.5236 950.133,-81.1876 945.506,-90.7189 952.46,-91.5236"/>
</g>
<!-- Node25&#45;&gt;Node10 -->
<g id="edge60" class="edge"><title>Node25&#45;&gt;Node10</title>
<path fill="none" stroke="midnightblue" d="M1130.6,-251.956C1121.33,-237.398 1105.95,-207.651 1121.5,-190 1145.02,-163.304 1384.57,-147.051 1480.29,-141.578"/>
<polygon fill="midnightblue" stroke="midnightblue" points="1480.64,-145.064 1490.43,-141.008 1480.25,-138.075 1480.64,-145.064"/>
</g>
<!-- Node25&#45;&gt;Node15 -->
<g id="edge62" class="edge"><title>Node25&#45;&gt;Node15</title>
<path fill="none" stroke="midnightblue" d="M1128.79,-251.784C1117.56,-237.981 1099.31,-210.552 1111.5,-190 1151,-123.394 1243.05,-92.0986 1292.93,-79.5759"/>
<polygon fill="midnightblue" stroke="midnightblue" points="1294,-82.9202 1302.9,-77.1827 1292.36,-76.1135 1294,-82.9202"/>
</g>
<!-- Node26 -->
<g id="node27" class="node"><title>Node26</title>
<g id="a_node27"><a xlink:href="QuantumDefect_8h.html" target="_top" xlink:title="QuantumDefect.h">
<polygon fill="none" stroke="black" points="363.5,-190.5 363.5,-209.5 465.5,-209.5 465.5,-190.5 363.5,-190.5"/>
<text text-anchor="middle" x="414.5" y="-197.5" font-family="Helvetica,sans-Serif" font-size="10.00">QuantumDefect.h</text>
</a>
</g>
</g>
<!-- Node25&#45;&gt;Node26 -->
<g id="edge32" class="edge"><title>Node25&#45;&gt;Node26</title>
<path fill="none" stroke="midnightblue" d="M1091.68,-252.654C1076.72,-250.243 1059.92,-247.763 1044.5,-246 989.044,-239.661 623.263,-214.938 475.881,-205.086"/>
<polygon fill="midnightblue" stroke="midnightblue" points="475.865,-201.577 465.654,-204.402 475.399,-208.561 475.865,-201.577"/>
</g>
<!-- Node26&#45;&gt;Node6 -->
<g id="edge56" class="edge"><title>Node26&#45;&gt;Node6</title>
<path fill="none" stroke="midnightblue" d="M465.755,-190.908C532.08,-180.227 641.224,-161.86 658.5,-154 678.654,-144.83 677.245,-131.944 697.5,-123 789.339,-82.4458 824.554,-116.552 920.5,-87 922.374,-86.4228 924.28,-85.7536 926.178,-85.0255"/>
<polygon fill="midnightblue" stroke="midnightblue" points="927.622,-88.2144 935.427,-81.0493 924.858,-81.7835 927.622,-88.2144"/>
</g>
<!-- Node26&#45;&gt;Node10 -->
<g id="edge54" class="edge"><title>Node26&#45;&gt;Node10</title>
<path fill="none" stroke="midnightblue" d="M465.58,-196.25C654.651,-186.069 1312.47,-150.648 1480.29,-141.611"/>
<polygon fill="midnightblue" stroke="midnightblue" points="1480.61,-145.1 1490.4,-141.067 1480.23,-138.11 1480.61,-145.1"/>
</g>
<!-- Node26&#45;&gt;Node16 -->
<g id="edge59" class="edge"><title>Node26&#45;&gt;Node16</title>
<path fill="none" stroke="midnightblue" d="M465.509,-190.907C521.286,-182.019 613.295,-167.246 692.5,-154 700.683,-152.631 709.311,-151.167 717.795,-149.714"/>
<polygon fill="midnightblue" stroke="midnightblue" points="718.392,-153.163 727.655,-148.02 717.207,-146.264 718.392,-153.163"/>
</g>
<!-- Node27 -->
<g id="node28" class="node"><title>Node27</title>
<g id="a_node28"><a xlink:href="Cache_8h.html" target="_top" xlink:title="Cache.h">
<polygon fill="none" stroke="black" points="175.5,-129 175.5,-148 231.5,-148 231.5,-129 175.5,-129"/>
<text text-anchor="middle" x="203.5" y="-136" font-family="Helvetica,sans-Serif" font-size="10.00">Cache.h</text>
</a>
</g>
</g>
<!-- Node26&#45;&gt;Node27 -->
<g id="edge33" class="edge"><title>Node26&#45;&gt;Node27</title>
<path fill="none" stroke="midnightblue" d="M379.334,-190.424C345.004,-181.867 291.382,-168.009 245.5,-154 242.733,-153.155 239.876,-152.247 237.014,-151.312"/>
<polygon fill="midnightblue" stroke="midnightblue" points="237.984,-147.945 227.39,-148.082 235.756,-154.582 237.984,-147.945"/>
</g>
<!-- Node28 -->
<g id="node29" class="node"><title>Node28</title>
<polygon fill="none" stroke="#bfbfbf" points="236,-62 236,-81 283,-81 283,-62 236,-62"/>
<text text-anchor="middle" x="259.5" y="-69" font-family="Helvetica,sans-Serif" font-size="10.00">mutex</text>
</g>
<!-- Node26&#45;&gt;Node28 -->
<g id="edge55" class="edge"><title>Node26&#45;&gt;Node28</title>
<path fill="none" stroke="midnightblue" d="M403.846,-190.305C377.853,-169.091 310.919,-114.465 278.143,-87.7152"/>
<polygon fill="midnightblue" stroke="midnightblue" points="280.189,-84.867 270.228,-81.2557 275.763,-90.2902 280.189,-84.867"/>
</g>
<!-- Node26&#45;&gt;Node29 -->
<g id="edge58" class="edge"><title>Node26&#45;&gt;Node29</title>
<path fill="none" stroke="midnightblue" d="M363.418,-196.99C311.708,-193.32 230.469,-182.994 166.5,-154 146.333,-144.859 145.591,-135.767 127.5,-123 108.825,-109.821 86.7599,-96.1834 70.3792,-86.4074"/>
<polygon fill="midnightblue" stroke="midnightblue" points="71.8486,-83.2101 61.4599,-81.1303 68.2841,-89.2346 71.8486,-83.2101"/>
</g>
<!-- Node31 -->
<g id="node32" class="node"><title>Node31</title>
<g id="a_node32"><a xlink:href="SQLite_8h.html" target="_top" xlink:title="SQLite.h">
<polygon fill="none" stroke="black" points="593,-129 593,-148 650,-148 650,-129 593,-129"/>
<text text-anchor="middle" x="621.5" y="-136" font-family="Helvetica,sans-Serif" font-size="10.00">SQLite.h</text>
</a>
</g>
</g>
<!-- Node26&#45;&gt;Node31 -->
<g id="edge37" class="edge"><title>Node26&#45;&gt;Node31</title>
<path fill="none" stroke="midnightblue" d="M444.158,-190.475C480.744,-179.959 543.015,-162.06 583.188,-150.513"/>
<polygon fill="midnightblue" stroke="midnightblue" points="584.252,-153.848 592.896,-147.722 582.318,-147.121 584.252,-153.848"/>
</g>
<!-- Node26&#45;&gt;Node42 -->
<g id="edge57" class="edge"><title>Node26&#45;&gt;Node42</title>
<path fill="none" stroke="midnightblue" d="M363.475,-194.452C306.569,-188.549 212.178,-176.265 133.5,-154 131.063,-153.31 128.568,-152.5 126.087,-151.622"/>
<polygon fill="midnightblue" stroke="midnightblue" points="127.33,-148.35 116.741,-148.002 124.802,-154.877 127.33,-148.35"/>
</g>
<!-- Node27&#45;&gt;Node28 -->
<g id="edge34" class="edge"><title>Node27&#45;&gt;Node28</title>
<path fill="none" stroke="midnightblue" d="M211.052,-128.734C219.785,-118.598 234.352,-101.69 245.237,-89.0556"/>
<polygon fill="midnightblue" stroke="midnightblue" points="248.192,-90.9879 252.067,-81.1273 242.888,-86.4189 248.192,-90.9879"/>
</g>
<!-- Node27&#45;&gt;Node29 -->
<g id="edge35" class="edge"><title>Node27&#45;&gt;Node29</title>
<path fill="none" stroke="midnightblue" d="M182.652,-128.869C155.556,-117.65 108.036,-97.9766 76.9156,-85.0925"/>
<polygon fill="midnightblue" stroke="midnightblue" points="78.0129,-81.7587 67.4346,-81.1672 75.3352,-88.2263 78.0129,-81.7587"/>
</g>
<!-- Node30 -->
<g id="node31" class="node"><title>Node30</title>
<polygon fill="none" stroke="#bfbfbf" points="111.5,-62 111.5,-81 217.5,-81 217.5,-62 111.5,-62"/>
<text text-anchor="middle" x="164.5" y="-69" font-family="Helvetica,sans-Serif" font-size="10.00">boost/optional.hpp</text>
</g>
<!-- Node27&#45;&gt;Node30 -->
<g id="edge36" class="edge"><title>Node27&#45;&gt;Node30</title>
<path fill="none" stroke="midnightblue" d="M198.24,-128.734C192.276,-118.793 182.403,-102.338 174.874,-89.7892"/>
<polygon fill="midnightblue" stroke="midnightblue" points="177.823,-87.9015 169.676,-81.1273 171.82,-91.503 177.823,-87.9015"/>
</g>
<!-- Node31&#45;&gt;Node5 -->
<g id="edge41" class="edge"><title>Node31&#45;&gt;Node5</title>
<path fill="none" stroke="midnightblue" d="M644.995,-128.988C651.283,-126.873 658.11,-124.72 664.5,-123 742.018,-102.134 764.057,-108.145 841.5,-87 844.528,-86.1733 847.654,-85.2431 850.771,-84.2632"/>
<polygon fill="midnightblue" stroke="midnightblue" points="852.165,-87.4887 860.564,-81.0297 849.971,-80.8417 852.165,-87.4887"/>
</g>
<!-- Node31&#45;&gt;Node6 -->
<g id="edge42" class="edge"><title>Node31&#45;&gt;Node6</title>
<path fill="none" stroke="midnightblue" d="M644.48,-128.875C650.891,-126.709 657.907,-124.561 664.5,-123 776.307,-96.5296 810.355,-119.702 920.5,-87 922.38,-86.4419 924.29,-85.7868 926.191,-85.0689"/>
<polygon fill="midnightblue" stroke="midnightblue" points="927.626,-88.2622 935.447,-81.1151 924.876,-81.825 927.626,-88.2622"/>
</g>
<!-- Node31&#45;&gt;Node17 -->
<g id="edge38" class="edge"><title>Node31&#45;&gt;Node17</title>
<path fill="none" stroke="midnightblue" d="M650.218,-130.992C664.378,-128.047 681.755,-124.824 697.5,-123 1075.31,-79.2435 1179.67,-162.196 1552.5,-87 1555.76,-86.343 1559.1,-85.454 1562.4,-84.4375"/>
<polygon fill="midnightblue" stroke="midnightblue" points="1563.71,-87.6893 1572.01,-81.1102 1561.42,-81.0745 1563.71,-87.6893"/>
</g>
<!-- Node31&#45;&gt;Node22 -->
<g id="edge39" class="edge"><title>Node31&#45;&gt;Node22</title>
<path fill="none" stroke="midnightblue" d="M597.057,-128.849C591.023,-126.827 584.554,-124.753 578.5,-123 513.477,-104.167 495.141,-107.107 430.5,-87 428.081,-86.2476 425.594,-85.4213 423.105,-84.5566"/>
<polygon fill="midnightblue" stroke="midnightblue" points="424.233,-81.2424 413.639,-81.1065 421.836,-87.8192 424.233,-81.2424"/>
</g>
<!-- Node32 -->
<g id="node33" class="node"><title>Node32</title>
<polygon fill="none" stroke="#bfbfbf" points="518.5,-0.5 518.5,-19.5 572.5,-19.5 572.5,-0.5 518.5,-0.5"/>
<text text-anchor="middle" x="545.5" y="-7.5" font-family="Helvetica,sans-Serif" font-size="10.00">random</text>
</g>
<!-- Node31&#45;&gt;Node32 -->
<g id="edge40" class="edge"><title>Node31&#45;&gt;Node32</title>
<path fill="none" stroke="midnightblue" d="M648.83,-128.958C668.168,-121.319 692.681,-108.026 704.5,-87 711.251,-74.9897 712.811,-66.9891 704.5,-56 689.832,-36.6051 624.868,-23.164 582.652,-16.2962"/>
<polygon fill="midnightblue" stroke="midnightblue" points="583.137,-12.8296 572.714,-14.7319 582.048,-19.7444 583.137,-12.8296"/>
</g>
<!-- Node33 -->
<g id="node34" class="node"><title>Node33</title>
<polygon fill="none" stroke="#bfbfbf" points="751.5,-62 751.5,-81 799.5,-81 799.5,-62 751.5,-62"/>
<text text-anchor="middle" x="775.5" y="-69" font-family="Helvetica,sans-Serif" font-size="10.00">thread</text>
</g>
<!-- Node31&#45;&gt;Node33 -->
<g id="edge43" class="edge"><title>Node31&#45;&gt;Node33</title>
<path fill="none" stroke="midnightblue" d="M641.95,-128.869C668.528,-117.65 715.14,-97.9766 745.666,-85.0925"/>
<polygon fill="midnightblue" stroke="midnightblue" points="747.113,-88.2804 754.965,-81.1672 744.391,-81.8313 747.113,-88.2804"/>
</g>
<!-- Node34 -->
<g id="node35" class="node"><title>Node34</title>
<polygon fill="none" stroke="#bfbfbf" points="725.5,-0.5 725.5,-19.5 793.5,-19.5 793.5,-0.5 725.5,-0.5"/>
<text text-anchor="middle" x="759.5" y="-7.5" font-family="Helvetica,sans-Serif" font-size="10.00">type_traits</text>
</g>
<!-- Node31&#45;&gt;Node34 -->
<g id="edge44" class="edge"><title>Node31&#45;&gt;Node34</title>
<path fill="none" stroke="midnightblue" d="M645.951,-128.877C651.984,-126.853 658.452,-124.773 664.5,-123 727.807,-104.445 767.901,-138.998 808.5,-87 816.979,-76.1403 814.042,-68.614 808.5,-56 803.11,-43.732 792.542,-33.3414 782.596,-25.6461"/>
<polygon fill="midnightblue" stroke="midnightblue" points="784.328,-22.5811 774.161,-19.598 780.248,-28.2697 784.328,-22.5811"/>
</g>
<!-- Node35 -->
<g id="node36" class="node"><title>Node35</title>
<polygon fill="none" stroke="#bfbfbf" points="439.5,-56.5 439.5,-86.5 559.5,-86.5 559.5,-56.5 439.5,-56.5"/>
<text text-anchor="start" x="447.5" y="-74.5" font-family="Helvetica,sans-Serif" font-size="10.00">boost/iterator/iterator</text>
<text text-anchor="middle" x="499.5" y="-63.5" font-family="Helvetica,sans-Serif" font-size="10.00">_facade.hpp</text>
</g>
<!-- Node31&#45;&gt;Node35 -->
<g id="edge45" class="edge"><title>Node31&#45;&gt;Node35</title>
<path fill="none" stroke="midnightblue" d="M605.299,-128.869C587.446,-119.357 558.183,-103.765 534.953,-91.3888"/>
<polygon fill="midnightblue" stroke="midnightblue" points="536.533,-88.2649 526.061,-86.6516 533.241,-94.4427 536.533,-88.2649"/>
</g>
<!-- Node36 -->
<g id="node37" class="node"><title>Node36</title>
<polygon fill="none" stroke="#bfbfbf" points="578,-62 578,-81 635,-81 635,-62 578,-62"/>
<text text-anchor="middle" x="606.5" y="-69" font-family="Helvetica,sans-Serif" font-size="10.00">sqlite3.h</text>
</g>
<!-- Node31&#45;&gt;Node36 -->
<g id="edge46" class="edge"><title>Node31&#45;&gt;Node36</title>
<path fill="none" stroke="midnightblue" d="M619.477,-128.734C617.25,-119.085 613.608,-103.3 610.748,-90.9063"/>
<polygon fill="midnightblue" stroke="midnightblue" points="614.15,-90.0842 608.491,-81.1273 607.329,-91.6583 614.15,-90.0842"/>
</g>
<!-- Node37 -->
<g id="node38" class="node"><title>Node37</title>
<polygon fill="none" stroke="#bfbfbf" points="653.5,-62 653.5,-81 695.5,-81 695.5,-62 653.5,-62"/>
<text text-anchor="middle" x="674.5" y="-69" font-family="Helvetica,sans-Serif" font-size="10.00">utility</text>
</g>
<!-- Node31&#45;&gt;Node37 -->
<g id="edge47" class="edge"><title>Node31&#45;&gt;Node37</title>
<path fill="none" stroke="midnightblue" d="M628.648,-128.734C636.913,-118.598 650.699,-101.69 661.001,-89.0556"/>
<polygon fill="midnightblue" stroke="midnightblue" points="663.859,-91.0893 667.465,-81.1273 658.433,-86.6657 663.859,-91.0893"/>
</g>
<!-- Node31&#45;&gt;Node38 -->
<g id="edge48" class="edge"><title>Node31&#45;&gt;Node38</title>
<path fill="none" stroke="midnightblue" d="M592.858,-134.47C543.334,-128.708 438.903,-114.243 354.5,-87 352.828,-86.4605 351.13,-85.8522 349.432,-85.1982"/>
<polygon fill="midnightblue" stroke="midnightblue" points="350.492,-81.8442 339.922,-81.1138 347.729,-88.2761 350.492,-81.8442"/>
</g>
<!-- Node38&#45;&gt;Node32 -->
<g id="edge51" class="edge"><title>Node38&#45;&gt;Node32</title>
<path fill="none" stroke="midnightblue" d="M340.293,-61.8776C344.827,-59.7626 349.786,-57.6383 354.5,-56 406.786,-37.8305 469.642,-24.5976 508.588,-17.3541"/>
<polygon fill="midnightblue" stroke="midnightblue" points="509.223,-20.7961 518.432,-15.5565 507.966,-13.91 509.223,-20.7961"/>
</g>
<!-- Node38&#45;&gt;Node34 -->
<g id="edge52" class="edge"><title>Node38&#45;&gt;Node34</title>
<path fill="none" stroke="midnightblue" d="M339.206,-61.9421C343.992,-59.6692 349.352,-57.4474 354.5,-56 421.485,-37.1666 624.657,-20.7065 715.172,-14.0925"/>
<polygon fill="midnightblue" stroke="midnightblue" points="715.657,-17.5666 725.378,-13.3536 715.151,-10.5849 715.657,-17.5666"/>
</g>
<!-- Node39 -->
<g id="node40" class="node"><title>Node39</title>
<polygon fill="none" stroke="#bfbfbf" points="295,-0.5 295,-19.5 352,-19.5 352,-0.5 295,-0.5"/>
<text text-anchor="middle" x="323.5" y="-7.5" font-family="Helvetica,sans-Serif" font-size="10.00">complex</text>
</g>
<!-- Node38&#45;&gt;Node39 -->
<g id="edge49" class="edge"><title>Node38&#45;&gt;Node39</title>
<path fill="none" stroke="midnightblue" d="M323.5,-61.9751C323.5,-53.5803 323.5,-40.4806 323.5,-29.6631"/>
<polygon fill="midnightblue" stroke="midnightblue" points="327,-29.5091 323.5,-19.5091 320,-29.5091 327,-29.5091"/>
</g>
<!-- Node40 -->
<g id="node41" class="node"><title>Node40</title>
<polygon fill="none" stroke="#bfbfbf" points="370,-0.5 370,-19.5 433,-19.5 433,-0.5 370,-0.5"/>
<text text-anchor="middle" x="401.5" y="-7.5" font-family="Helvetica,sans-Serif" font-size="10.00">functional</text>
</g>
<!-- Node38&#45;&gt;Node40 -->
<g id="edge50" class="edge"><title>Node38&#45;&gt;Node40</title>
<path fill="none" stroke="midnightblue" d="M334.675,-61.9751C347.071,-52.5199 367.29,-37.0961 382.246,-25.6871"/>
<polygon fill="midnightblue" stroke="midnightblue" points="384.517,-28.357 390.345,-19.5091 380.272,-22.7914 384.517,-28.357"/>
</g>
<!-- Node41 -->
<g id="node42" class="node"><title>Node41</title>
<polygon fill="none" stroke="#bfbfbf" points="222,-0.5 222,-19.5 277,-19.5 277,-0.5 222,-0.5"/>
<text text-anchor="middle" x="249.5" y="-7.5" font-family="Helvetica,sans-Serif" font-size="10.00">unistd.h</text>
</g>
<!-- Node38&#45;&gt;Node41 -->
<g id="edge53" class="edge"><title>Node38&#45;&gt;Node41</title>
<path fill="none" stroke="midnightblue" d="M312.898,-61.9751C301.248,-52.6082 282.314,-37.3839 268.165,-26.0081"/>
<polygon fill="midnightblue" stroke="midnightblue" points="270.069,-23.0477 260.083,-19.5091 265.683,-28.503 270.069,-23.0477"/>
</g>
</g>
</svg>
