<?xml version="1.0" encoding="UTF-8" standalone="no"?>
<!DOCTYPE svg PUBLIC "-//W3C//DTD SVG 1.1//EN"
 "http://www.w3.org/Graphics/SVG/1.1/DTD/svg11.dtd">
<!-- Generated by graphviz version 2.38.0 (20140413.2041)
 -->
<!-- Title: /travis/libpairinteraction/QuantumDefect.cpp Pages: 1 -->
<!--zoomable 274 -->
<svg id="main" version="1.1" xmlns="http://www.w3.org/2000/svg" xmlns:xlink="http://www.w3.org/1999/xlink" xml:space="preserve" onload="init(evt)">
<style type="text/css"><![CDATA[
.edge:hover path { stroke: red; }
.edge:hover polygon { stroke: red; fill: red; }
]]></style>
<script type="text/javascript"><![CDATA[
var edges = document.getElementsByTagName('g');
if (edges && edges.length) {
  for (var i=0;i<edges.length;i++) {
    if (edges[i].id.substr(0,4)=='edge') {
      edges[i].setAttribute('class','edge');
    }
  }
}
]]></script>
        <defs>
                <circle id="rim" cx="0" cy="0" r="7"/>
                <circle id="rim2" cx="0" cy="0" r="3.5"/>
                <g id="zoomPlus">
                        <use xlink:href="#rim" fill="#404040">
                                <set attributeName="fill" to="#808080" begin="zoomplus.mouseover" end="zoomplus.mouseout"/>
                        </use>
                        <path d="M-4,0h8M0,-4v8" fill="none" stroke="white" stroke-width="1.5" pointer-events="none"/>
                </g>
                <g id="zoomMin">
                        <use xlink:href="#rim" fill="#404040">
                                <set attributeName="fill" to="#808080" begin="zoomminus.mouseover" end="zoomminus.mouseout"/>
                        </use>
                        <path d="M-4,0h8" fill="none" stroke="white" stroke-width="1.5" pointer-events="none"/>
                </g>
                <g id="dirArrow">
                        <path fill="none" stroke="white" stroke-width="1.5" d="M0,-3.0v7 M-2.5,-0.5L0,-3.0L2.5,-0.5"/>
                </g>
               <g id="resetDef">
                       <use xlink:href="#rim2" fill="#404040">
                               <set attributeName="fill" to="#808080" begin="reset.mouseover" end="reset.mouseout"/>
                       </use>
               </g>
        </defs>

<script type="text/javascript">
var viewWidth = 1660;
var viewHeight = 274;
var sectionId = 'dynsection-0';
</script>
<script xlink:href="svgpan.js"/>
<svg id="graph" class="graph">
<g id="viewport">
<title>/travis/libpairinteraction/QuantumDefect.cpp</title>
<!-- Node0 -->
<g id="node1" class="node"><title>Node0</title>
<polygon fill="#bfbfbf" stroke="black" points="1217.5,-235.5 1217.5,-265.5 1345.5,-265.5 1345.5,-235.5 1217.5,-235.5"/>
<text text-anchor="start" x="1225.5" y="-253.5" font-family="Helvetica,sans-Serif" font-size="10.00">/travis/libpairinteraction</text>
<text text-anchor="middle" x="1281.5" y="-242.5" font-family="Helvetica,sans-Serif" font-size="10.00">/QuantumDefect.cpp</text>
</g>
<!-- Node1 -->
<g id="node2" class="node"><title>Node1</title>
<g id="a_node2"><a xlink:href="QuantumDefect_8h.html" target="_top" xlink:title="QuantumDefect.h">
<polygon fill="none" stroke="black" points="288.5,-179.5 288.5,-198.5 390.5,-198.5 390.5,-179.5 288.5,-179.5"/>
<text text-anchor="middle" x="339.5" y="-186.5" font-family="Helvetica,sans-Serif" font-size="10.00">QuantumDefect.h</text>
</a>
</g>
</g>
<!-- Node0&#45;&gt;Node1 -->
<g id="edge1" class="edge"><title>Node0&#45;&gt;Node1</title>
<path fill="none" stroke="midnightblue" d="M1217.49,-245.457C1044.62,-234.538 569.938,-204.555 400.554,-193.856"/>
<polygon fill="midnightblue" stroke="midnightblue" points="400.762,-190.363 390.561,-193.225 400.32,-197.349 400.762,-190.363"/>
</g>
<!-- Node6 -->
<g id="node7" class="node"><title>Node6</title>
<g id="a_node7"><a xlink:href="SQLite_8h.html" target="_top" xlink:title="SQLite.h">
<polygon fill="none" stroke="black" points="1089,-123.5 1089,-142.5 1146,-142.5 1146,-123.5 1089,-123.5"/>
<text text-anchor="middle" x="1117.5" y="-130.5" font-family="Helvetica,sans-Serif" font-size="10.00">SQLite.h</text>
</a>
</g>
</g>
<!-- Node0&#45;&gt;Node6 -->
<g id="edge35" class="edge"><title>Node0&#45;&gt;Node6</title>
<path fill="none" stroke="midnightblue" d="M1261.39,-235.337C1230.1,-213.297 1170.05,-171.007 1138.32,-148.664"/>
<polygon fill="midnightblue" stroke="midnightblue" points="1140,-145.566 1129.81,-142.669 1135.97,-151.289 1140,-145.566"/>
</g>
<!-- Node7 -->
<g id="node8" class="node"><title>Node7</title>
<polygon fill="none" stroke="#bfbfbf" points="1265,-62 1265,-81 1324,-81 1324,-62 1265,-62"/>
<text text-anchor="middle" x="1294.5" y="-69" font-family="Helvetica,sans-Serif" font-size="10.00">iostream</text>
</g>
<!-- Node0&#45;&gt;Node7 -->
<g id="edge39" class="edge"><title>Node0&#45;&gt;Node7</title>
<path fill="none" stroke="midnightblue" d="M1281.52,-235.423C1281.67,-212.027 1282.49,-163.683 1286.5,-123 1287.55,-112.333 1289.39,-100.494 1291.04,-90.9609"/>
<polygon fill="midnightblue" stroke="midnightblue" points="1294.5,-91.5012 1292.83,-81.0384 1287.61,-90.2574 1294.5,-91.5012"/>
</g>
<!-- Node10 -->
<g id="node11" class="node"><title>Node10</title>
<polygon fill="none" stroke="#bfbfbf" points="1342.5,-62 1342.5,-81 1398.5,-81 1398.5,-62 1342.5,-62"/>
<text text-anchor="middle" x="1370.5" y="-69" font-family="Helvetica,sans-Serif" font-size="10.00">sstream</text>
</g>
<!-- Node0&#45;&gt;Node10 -->
<g id="edge40" class="edge"><title>Node0&#45;&gt;Node10</title>
<path fill="none" stroke="midnightblue" d="M1284.3,-235.414C1289.53,-211.173 1302.33,-160.554 1324.5,-123 1332.13,-110.074 1343.46,-97.5861 1352.96,-88.2621"/>
<polygon fill="midnightblue" stroke="midnightblue" points="1355.54,-90.6471 1360.4,-81.234 1350.73,-85.5602 1355.54,-90.6471"/>
</g>
<!-- Node11 -->
<g id="node12" class="node"><title>Node11</title>
<polygon fill="none" stroke="#bfbfbf" points="1202.5,-62 1202.5,-81 1246.5,-81 1246.5,-62 1202.5,-62"/>
<text text-anchor="middle" x="1224.5" y="-69" font-family="Helvetica,sans-Serif" font-size="10.00">string</text>
</g>
<!-- Node0&#45;&gt;Node11 -->
<g id="edge41" class="edge"><title>Node0&#45;&gt;Node11</title>
<path fill="none" stroke="midnightblue" d="M1276.93,-235.315C1266.69,-203.496 1241.87,-126.446 1230.44,-90.9573"/>
<polygon fill="midnightblue" stroke="midnightblue" points="1233.75,-89.8198 1227.36,-81.3741 1227.09,-91.9656 1233.75,-89.8198"/>
</g>
<!-- Node16 -->
<g id="node17" class="node"><title>Node16</title>
<polygon fill="none" stroke="#bfbfbf" points="1416.5,-62 1416.5,-81 1458.5,-81 1458.5,-62 1416.5,-62"/>
<text text-anchor="middle" x="1437.5" y="-69" font-family="Helvetica,sans-Serif" font-size="10.00">utility</text>
</g>
<!-- Node0&#45;&gt;Node16 -->
<g id="edge42" class="edge"><title>Node0&#45;&gt;Node16</title>
<path fill="none" stroke="midnightblue" d="M1294,-235.315C1322.53,-202.947 1392.31,-123.776 1422.82,-89.1592"/>
<polygon fill="midnightblue" stroke="midnightblue" points="1425.69,-91.1904 1429.68,-81.3741 1420.44,-86.562 1425.69,-91.1904"/>
</g>
<!-- Node25 -->
<g id="node26" class="node"><title>Node25</title>
<polygon fill="none" stroke="#bfbfbf" points="643,-62 643,-81 690,-81 690,-62 643,-62"/>
<text text-anchor="middle" x="666.5" y="-69" font-family="Helvetica,sans-Serif" font-size="10.00">cmath</text>
</g>
<!-- Node0&#45;&gt;Node25 -->
<g id="edge37" class="edge"><title>Node0&#45;&gt;Node25</title>
<path fill="none" stroke="midnightblue" d="M1220.29,-235.442C1113.25,-210.189 885.72,-153.531 699.5,-87 697.839,-86.4065 696.144,-85.768 694.442,-85.1014"/>
<polygon fill="midnightblue" stroke="midnightblue" points="695.392,-81.706 684.814,-81.0972 692.703,-88.1693 695.392,-81.706"/>
</g>
<!-- Node29 -->
<g id="node30" class="node"><title>Node29</title>
<polygon fill="none" stroke="#bfbfbf" points="1366.5,-179.5 1366.5,-198.5 1490.5,-198.5 1490.5,-179.5 1366.5,-179.5"/>
<text text-anchor="middle" x="1428.5" y="-186.5" font-family="Helvetica,sans-Serif" font-size="10.00">EmbeddedDatabase.h</text>
</g>
<!-- Node0&#45;&gt;Node29 -->
<g id="edge34" class="edge"><title>Node0&#45;&gt;Node29</title>
<path fill="none" stroke="midnightblue" d="M1316.34,-235.399C1341,-225.416 1373.79,-212.147 1397.53,-202.534"/>
<polygon fill="midnightblue" stroke="midnightblue" points="1399.15,-205.654 1407.11,-198.658 1396.53,-199.165 1399.15,-205.654"/>
</g>
<!-- Node30 -->
<g id="node31" class="node"><title>Node30</title>
<polygon fill="none" stroke="#bfbfbf" points="1508.5,-179.5 1508.5,-198.5 1570.5,-198.5 1570.5,-179.5 1508.5,-179.5"/>
<text text-anchor="middle" x="1539.5" y="-186.5" font-family="Helvetica,sans-Serif" font-size="10.00">algorithm</text>
</g>
<!-- Node0&#45;&gt;Node30 -->
<g id="edge36" class="edge"><title>Node0&#45;&gt;Node30</title>
<path fill="none" stroke="midnightblue" d="M1342.32,-235.475C1390.49,-224.366 1456.46,-209.152 1498.53,-199.448"/>
<polygon fill="midnightblue" stroke="midnightblue" points="1499.47,-202.823 1508.43,-197.165 1497.9,-196.002 1499.47,-202.823"/>
</g>
<!-- Node31 -->
<g id="node32" class="node"><title>Node31</title>
<polygon fill="none" stroke="#bfbfbf" points="1589,-179.5 1589,-198.5 1652,-198.5 1652,-179.5 1589,-179.5"/>
<text text-anchor="middle" x="1620.5" y="-186.5" font-family="Helvetica,sans-Serif" font-size="10.00">exception</text>
</g>
<!-- Node0&#45;&gt;Node31 -->
<g id="edge38" class="edge"><title>Node0&#45;&gt;Node31</title>
<path fill="none" stroke="midnightblue" d="M1345.61,-239.553C1403.82,-230.311 1492.28,-215.749 1578.76,-199.067"/>
<polygon fill="midnightblue" stroke="midnightblue" points="1579.6,-202.469 1588.75,-197.128 1578.26,-195.598 1579.6,-202.469"/>
</g>
<!-- Node2 -->
<g id="node3" class="node"><title>Node2</title>
<g id="a_node3"><a xlink:href="Cache_8h.html" target="_top" xlink:title="Cache.h">
<polygon fill="none" stroke="black" points="255.5,-123.5 255.5,-142.5 311.5,-142.5 311.5,-123.5 255.5,-123.5"/>
<text text-anchor="middle" x="283.5" y="-130.5" font-family="Helvetica,sans-Serif" font-size="10.00">Cache.h</text>
</a>
</g>
</g>
<!-- Node1&#45;&gt;Node2 -->
<g id="edge2" class="edge"><title>Node1&#45;&gt;Node2</title>
<path fill="none" stroke="midnightblue" d="M330.503,-179.324C322.306,-171.42 309.994,-159.548 300.028,-149.938"/>
<polygon fill="midnightblue" stroke="midnightblue" points="302.289,-147.256 292.661,-142.834 297.43,-152.295 302.289,-147.256"/>
</g>
<!-- Node3 -->
<g id="node4" class="node"><title>Node3</title>
<polygon fill="none" stroke="#bfbfbf" points="260,-62 260,-81 307,-81 307,-62 260,-62"/>
<text text-anchor="middle" x="283.5" y="-69" font-family="Helvetica,sans-Serif" font-size="10.00">mutex</text>
</g>
<!-- Node1&#45;&gt;Node3 -->
<g id="edge29" class="edge"><title>Node1&#45;&gt;Node3</title>
<path fill="none" stroke="midnightblue" d="M337.946,-179.233C335.453,-166.403 329.864,-141.978 320.5,-123 314.462,-110.762 305.446,-98.3798 297.825,-88.9394"/>
<polygon fill="midnightblue" stroke="midnightblue" points="300.444,-86.6141 291.345,-81.1852 295.072,-91.1029 300.444,-86.6141"/>
</g>
<!-- Node4 -->
<g id="node5" class="node"><title>Node4</title>
<polygon fill="none" stroke="#bfbfbf" points="24,-62 24,-81 117,-81 117,-62 24,-62"/>
<text text-anchor="middle" x="70.5" y="-69" font-family="Helvetica,sans-Serif" font-size="10.00">unordered_map</text>
</g>
<!-- Node1&#45;&gt;Node4 -->
<g id="edge32" class="edge"><title>Node1&#45;&gt;Node4</title>
<path fill="none" stroke="midnightblue" d="M321.234,-179.386C302.416,-170.459 272.278,-156.016 246.5,-143 229.463,-134.398 225.945,-130.741 208.5,-123 174.751,-108.024 135.055,-93.8407 106.923,-84.3405"/>
<polygon fill="midnightblue" stroke="midnightblue" points="107.708,-80.9125 97.1144,-81.0594 105.488,-87.5509 107.708,-80.9125"/>
</g>
<!-- Node1&#45;&gt;Node6 -->
<g id="edge6" class="edge"><title>Node1&#45;&gt;Node6</title>
<path fill="none" stroke="midnightblue" d="M390.547,-184.457C535.881,-174.369 949.69,-145.647 1078.64,-136.697"/>
<polygon fill="midnightblue" stroke="midnightblue" points="1079.1,-140.174 1088.83,-135.99 1078.61,-133.191 1079.1,-140.174"/>
</g>
<!-- Node1&#45;&gt;Node11 -->
<g id="edge30" class="edge"><title>Node1&#45;&gt;Node11</title>
<path fill="none" stroke="midnightblue" d="M390.535,-187.326C558.311,-184.814 1086.08,-174.469 1155.5,-143 1180.64,-131.604 1201.47,-106.618 1213.46,-89.6675"/>
<polygon fill="midnightblue" stroke="midnightblue" points="1216.47,-91.4584 1219.18,-81.2149 1210.67,-87.5353 1216.47,-91.4584"/>
</g>
<!-- Node21 -->
<g id="node22" class="node"><title>Node21</title>
<g id="a_node22"><a xlink:href="dtypes_8h.html" target="_top" xlink:title="dtypes.h">
<polygon fill="none" stroke="black" points="448.5,-123.5 448.5,-142.5 506.5,-142.5 506.5,-123.5 448.5,-123.5"/>
<text text-anchor="middle" x="477.5" y="-130.5" font-family="Helvetica,sans-Serif" font-size="10.00">dtypes.h</text>
</a>
</g>
</g>
<!-- Node1&#45;&gt;Node21 -->
<g id="edge23" class="edge"><title>Node1&#45;&gt;Node21</title>
<path fill="none" stroke="midnightblue" d="M361.367,-179.444C384.279,-170.478 420.475,-156.314 446.366,-146.183"/>
<polygon fill="midnightblue" stroke="midnightblue" points="447.699,-149.42 455.736,-142.516 445.148,-142.901 447.699,-149.42"/>
</g>
<!-- Node27 -->
<g id="node28" class="node"><title>Node27</title>
<polygon fill="none" stroke="#bfbfbf" points="0,-123.5 0,-142.5 41,-142.5 41,-123.5 0,-123.5"/>
<text text-anchor="middle" x="20.5" y="-130.5" font-family="Helvetica,sans-Serif" font-size="10.00">tuple</text>
</g>
<!-- Node1&#45;&gt;Node27 -->
<g id="edge31" class="edge"><title>Node1&#45;&gt;Node27</title>
<path fill="none" stroke="midnightblue" d="M288.462,-182.2C232.5,-175.363 139.944,-162.656 51.0391,-142.831"/>
<polygon fill="midnightblue" stroke="midnightblue" points="51.5842,-139.366 41.0582,-140.572 50.0386,-146.194 51.5842,-139.366"/>
</g>
<!-- Node28 -->
<g id="node29" class="node"><title>Node28</title>
<polygon fill="none" stroke="#bfbfbf" points="59.5,-123.5 59.5,-142.5 199.5,-142.5 199.5,-123.5 59.5,-123.5"/>
<text text-anchor="middle" x="129.5" y="-130.5" font-family="Helvetica,sans-Serif" font-size="10.00">boost/functional/hash.hpp</text>
</g>
<!-- Node1&#45;&gt;Node28 -->
<g id="edge33" class="edge"><title>Node1&#45;&gt;Node28</title>
<path fill="none" stroke="midnightblue" d="M306.225,-179.444C270.052,-170.142 212.123,-155.246 172.519,-145.062"/>
<polygon fill="midnightblue" stroke="midnightblue" points="173.176,-141.617 162.619,-142.516 171.433,-148.397 173.176,-141.617"/>
</g>
<!-- Node2&#45;&gt;Node3 -->
<g id="edge3" class="edge"><title>Node2&#45;&gt;Node3</title>
<path fill="none" stroke="midnightblue" d="M283.5,-123.475C283.5,-115.08 283.5,-101.981 283.5,-91.1631"/>
<polygon fill="midnightblue" stroke="midnightblue" points="287,-91.0091 283.5,-81.0091 280,-91.0091 287,-91.0091"/>
</g>
<!-- Node2&#45;&gt;Node4 -->
<g id="edge4" class="edge"><title>Node2&#45;&gt;Node4</title>
<path fill="none" stroke="midnightblue" d="M255.215,-124.099C218.128,-113.739 152.838,-95.5007 110.646,-83.7144"/>
<polygon fill="midnightblue" stroke="midnightblue" points="111.543,-80.3311 100.97,-81.0116 109.66,-87.073 111.543,-80.3311"/>
</g>
<!-- Node5 -->
<g id="node6" class="node"><title>Node5</title>
<polygon fill="none" stroke="#bfbfbf" points="135.5,-62 135.5,-81 241.5,-81 241.5,-62 135.5,-62"/>
<text text-anchor="middle" x="188.5" y="-69" font-family="Helvetica,sans-Serif" font-size="10.00">boost/optional.hpp</text>
</g>
<!-- Node2&#45;&gt;Node5 -->
<g id="edge5" class="edge"><title>Node2&#45;&gt;Node5</title>
<path fill="none" stroke="midnightblue" d="M269.889,-123.475C254.439,-113.799 229.01,-97.8721 210.684,-86.3941"/>
<polygon fill="midnightblue" stroke="midnightblue" points="212.419,-83.3509 202.086,-81.0091 208.703,-89.2834 212.419,-83.3509"/>
</g>
<!-- Node6&#45;&gt;Node7 -->
<g id="edge7" class="edge"><title>Node6&#45;&gt;Node7</title>
<path fill="none" stroke="midnightblue" d="M1144.84,-123.446C1172.76,-114.626 1217.31,-100.32 1255.5,-87 1257.74,-86.2172 1260.06,-85.396 1262.38,-84.5594"/>
<polygon fill="midnightblue" stroke="midnightblue" points="1263.68,-87.8109 1271.87,-81.0907 1261.28,-81.2362 1263.68,-87.8109"/>
</g>
<!-- Node8 -->
<g id="node9" class="node"><title>Node8</title>
<polygon fill="none" stroke="#bfbfbf" points="1089,-62 1089,-81 1146,-81 1146,-62 1089,-62"/>
<text text-anchor="middle" x="1117.5" y="-69" font-family="Helvetica,sans-Serif" font-size="10.00">memory</text>
</g>
<!-- Node6&#45;&gt;Node8 -->
<g id="edge8" class="edge"><title>Node6&#45;&gt;Node8</title>
<path fill="none" stroke="midnightblue" d="M1117.5,-123.475C1117.5,-115.08 1117.5,-101.981 1117.5,-91.1631"/>
<polygon fill="midnightblue" stroke="midnightblue" points="1121,-91.0091 1117.5,-81.0091 1114,-91.0091 1121,-91.0091"/>
</g>
<!-- Node9 -->
<g id="node10" class="node"><title>Node9</title>
<polygon fill="none" stroke="#bfbfbf" points="1147.5,-0.5 1147.5,-19.5 1201.5,-19.5 1201.5,-0.5 1147.5,-0.5"/>
<text text-anchor="middle" x="1174.5" y="-7.5" font-family="Helvetica,sans-Serif" font-size="10.00">random</text>
</g>
<!-- Node6&#45;&gt;Node9 -->
<g id="edge9" class="edge"><title>Node6&#45;&gt;Node9</title>
<path fill="none" stroke="midnightblue" d="M1127.04,-123.265C1135.71,-114.803 1148.23,-101.199 1155.5,-87 1164.78,-68.8799 1169.7,-45.9694 1172.19,-30.0637"/>
<polygon fill="midnightblue" stroke="midnightblue" points="1175.69,-30.2746 1173.6,-19.8887 1168.76,-29.3133 1175.69,-30.2746"/>
</g>
<!-- Node6&#45;&gt;Node10 -->
<g id="edge10" class="edge"><title>Node6&#45;&gt;Node10</title>
<path fill="none" stroke="midnightblue" d="M1146.18,-127.604C1187.92,-120.853 1267.6,-106.625 1333.5,-87 1335.93,-86.2763 1338.42,-85.4616 1340.92,-84.5969"/>
<polygon fill="midnightblue" stroke="midnightblue" points="1342.2,-87.8552 1350.36,-81.1009 1339.77,-81.2907 1342.2,-87.8552"/>
</g>
<!-- Node6&#45;&gt;Node11 -->
<g id="edge11" class="edge"><title>Node6&#45;&gt;Node11</title>
<path fill="none" stroke="midnightblue" d="M1132.83,-123.475C1150.47,-113.666 1179.66,-97.4346 1200.36,-85.925"/>
<polygon fill="midnightblue" stroke="midnightblue" points="1202.16,-88.9279 1209.2,-81.0091 1198.76,-82.8102 1202.16,-88.9279"/>
</g>
<!-- Node12 -->
<g id="node13" class="node"><title>Node12</title>
<polygon fill="none" stroke="#bfbfbf" points="708.5,-62 708.5,-81 756.5,-81 756.5,-62 708.5,-62"/>
<text text-anchor="middle" x="732.5" y="-69" font-family="Helvetica,sans-Serif" font-size="10.00">thread</text>
</g>
<!-- Node6&#45;&gt;Node12 -->
<g id="edge12" class="edge"><title>Node6&#45;&gt;Node12</title>
<path fill="none" stroke="midnightblue" d="M1088.74,-130.562C1028.75,-127.066 886.254,-116.156 770.5,-87 767.675,-86.2886 764.775,-85.4299 761.895,-84.49"/>
<polygon fill="midnightblue" stroke="midnightblue" points="762.926,-81.1417 752.331,-81.0769 760.573,-87.7344 762.926,-81.1417"/>
</g>
<!-- Node13 -->
<g id="node14" class="node"><title>Node13</title>
<polygon fill="none" stroke="#bfbfbf" points="790.5,-0.5 790.5,-19.5 858.5,-19.5 858.5,-0.5 790.5,-0.5"/>
<text text-anchor="middle" x="824.5" y="-7.5" font-family="Helvetica,sans-Serif" font-size="10.00">type_traits</text>
</g>
<!-- Node6&#45;&gt;Node13 -->
<g id="edge13" class="edge"><title>Node6&#45;&gt;Node13</title>
<path fill="none" stroke="midnightblue" d="M1088.97,-132.435C1018.71,-132.835 840.385,-129.548 803.5,-87 789.125,-70.4184 800.989,-44.8007 811.867,-27.9666"/>
<polygon fill="midnightblue" stroke="midnightblue" points="814.822,-29.8458 817.635,-19.6311 809.066,-25.8623 814.822,-29.8458"/>
</g>
<!-- Node14 -->
<g id="node15" class="node"><title>Node14</title>
<polygon fill="none" stroke="#bfbfbf" points="812.5,-56.5 812.5,-86.5 932.5,-86.5 932.5,-56.5 812.5,-56.5"/>
<text text-anchor="start" x="820.5" y="-74.5" font-family="Helvetica,sans-Serif" font-size="10.00">boost/iterator/iterator</text>
<text text-anchor="middle" x="872.5" y="-63.5" font-family="Helvetica,sans-Serif" font-size="10.00">_facade.hpp</text>
</g>
<!-- Node6&#45;&gt;Node14 -->
<g id="edge14" class="edge"><title>Node6&#45;&gt;Node14</title>
<path fill="none" stroke="midnightblue" d="M1088.92,-125.058C1052.66,-116.254 988.981,-100.788 940.052,-88.9054"/>
<polygon fill="midnightblue" stroke="midnightblue" points="940.707,-85.4628 930.163,-86.5039 939.054,-92.2651 940.707,-85.4628"/>
</g>
<!-- Node15 -->
<g id="node16" class="node"><title>Node15</title>
<polygon fill="none" stroke="#bfbfbf" points="951,-62 951,-81 1008,-81 1008,-62 951,-62"/>
<text text-anchor="middle" x="979.5" y="-69" font-family="Helvetica,sans-Serif" font-size="10.00">sqlite3.h</text>
</g>
<!-- Node6&#45;&gt;Node15 -->
<g id="edge15" class="edge"><title>Node6&#45;&gt;Node15</title>
<path fill="none" stroke="midnightblue" d="M1097.73,-123.475C1074.36,-113.401 1035.29,-96.5525 1008.5,-85.0023"/>
<polygon fill="midnightblue" stroke="midnightblue" points="1009.8,-81.7544 999.235,-81.0091 1007.03,-88.1824 1009.8,-81.7544"/>
</g>
<!-- Node6&#45;&gt;Node16 -->
<g id="edge16" class="edge"><title>Node6&#45;&gt;Node16</title>
<path fill="none" stroke="midnightblue" d="M1146.12,-130.369C1198.89,-126.752 1314.59,-115.952 1407.5,-87 1409.17,-86.4794 1410.87,-85.8793 1412.56,-85.2259"/>
<polygon fill="midnightblue" stroke="midnightblue" points="1414.23,-88.3116 1421.98,-81.0811 1411.41,-81.9043 1414.23,-88.3116"/>
</g>
<!-- Node17 -->
<g id="node18" class="node"><title>Node17</title>
<g id="a_node18"><a xlink:href="utils_8h.html" target="_top" xlink:title="utils.h">
<polygon fill="none" stroke="black" points="1026,-62 1026,-81 1071,-81 1071,-62 1026,-62"/>
<text text-anchor="middle" x="1048.5" y="-69" font-family="Helvetica,sans-Serif" font-size="10.00">utils.h</text>
</a>
</g>
</g>
<!-- Node6&#45;&gt;Node17 -->
<g id="edge17" class="edge"><title>Node6&#45;&gt;Node17</title>
<path fill="none" stroke="midnightblue" d="M1107.61,-123.475C1096.85,-114.197 1079.43,-99.1706 1066.28,-87.831"/>
<polygon fill="midnightblue" stroke="midnightblue" points="1068.23,-84.889 1058.37,-81.0091 1063.66,-90.1902 1068.23,-84.889"/>
</g>
<!-- Node17&#45;&gt;Node9 -->
<g id="edge20" class="edge"><title>Node17&#45;&gt;Node9</title>
<path fill="none" stroke="midnightblue" d="M1066.55,-61.9751C1087.7,-51.9897 1122.94,-35.3476 1147.38,-23.8075"/>
<polygon fill="midnightblue" stroke="midnightblue" points="1148.93,-26.9441 1156.48,-19.5091 1145.94,-20.6143 1148.93,-26.9441"/>
</g>
<!-- Node17&#45;&gt;Node13 -->
<g id="edge21" class="edge"><title>Node17&#45;&gt;Node13</title>
<path fill="none" stroke="midnightblue" d="M1031.14,-61.8931C1026.46,-59.7779 1021.35,-57.6497 1016.5,-56 966.959,-39.1508 908.134,-26.3803 868.771,-18.8243"/>
<polygon fill="midnightblue" stroke="midnightblue" points="869.18,-15.3399 858.705,-16.9244 867.882,-22.2184 869.18,-15.3399"/>
</g>
<!-- Node18 -->
<g id="node19" class="node"><title>Node18</title>
<polygon fill="none" stroke="#bfbfbf" points="918,-0.5 918,-19.5 975,-19.5 975,-0.5 918,-0.5"/>
<text text-anchor="middle" x="946.5" y="-7.5" font-family="Helvetica,sans-Serif" font-size="10.00">complex</text>
</g>
<!-- Node17&#45;&gt;Node18 -->
<g id="edge18" class="edge"><title>Node17&#45;&gt;Node18</title>
<path fill="none" stroke="midnightblue" d="M1033.89,-61.9751C1017.15,-52.2106 989.496,-36.0807 969.781,-24.5808"/>
<polygon fill="midnightblue" stroke="midnightblue" points="971.488,-21.5246 961.087,-19.5091 967.961,-27.5711 971.488,-21.5246"/>
</g>
<!-- Node19 -->
<g id="node20" class="node"><title>Node19</title>
<polygon fill="none" stroke="#bfbfbf" points="993,-0.5 993,-19.5 1056,-19.5 1056,-0.5 993,-0.5"/>
<text text-anchor="middle" x="1024.5" y="-7.5" font-family="Helvetica,sans-Serif" font-size="10.00">functional</text>
</g>
<!-- Node17&#45;&gt;Node19 -->
<g id="edge19" class="edge"><title>Node17&#45;&gt;Node19</title>
<path fill="none" stroke="midnightblue" d="M1045.06,-61.9751C1041.6,-53.4035 1036.17,-39.9269 1031.75,-28.983"/>
<polygon fill="midnightblue" stroke="midnightblue" points="1034.92,-27.4738 1027.93,-19.5091 1028.43,-30.0924 1034.92,-27.4738"/>
</g>
<!-- Node20 -->
<g id="node21" class="node"><title>Node20</title>
<polygon fill="none" stroke="#bfbfbf" points="1074,-0.5 1074,-19.5 1129,-19.5 1129,-0.5 1074,-0.5"/>
<text text-anchor="middle" x="1101.5" y="-7.5" font-family="Helvetica,sans-Serif" font-size="10.00">unistd.h</text>
</g>
<!-- Node17&#45;&gt;Node20 -->
<g id="edge22" class="edge"><title>Node17&#45;&gt;Node20</title>
<path fill="none" stroke="midnightblue" d="M1056.09,-61.9751C1064.2,-52.8733 1077.23,-38.241 1087.26,-26.983"/>
<polygon fill="midnightblue" stroke="midnightblue" points="1089.88,-29.3043 1093.92,-19.5091 1084.66,-24.6483 1089.88,-29.3043"/>
</g>
<!-- Node22 -->
<g id="node23" class="node"><title>Node22</title>
<polygon fill="none" stroke="#bfbfbf" points="390,-62 390,-81 467,-81 467,-62 390,-62"/>
<text text-anchor="middle" x="428.5" y="-69" font-family="Helvetica,sans-Serif" font-size="10.00">Eigen/Dense</text>
</g>
<!-- Node21&#45;&gt;Node22 -->
<g id="edge24" class="edge"><title>Node21&#45;&gt;Node22</title>
<path fill="none" stroke="midnightblue" d="M470.479,-123.475C463.057,-114.462 451.167,-100.025 441.933,-88.8118"/>
<polygon fill="midnightblue" stroke="midnightblue" points="444.566,-86.5034 435.507,-81.0091 439.163,-90.9534 444.566,-86.5034"/>
</g>
<!-- Node23 -->
<g id="node24" class="node"><title>Node23</title>
<polygon fill="none" stroke="#bfbfbf" points="485.5,-62 485.5,-81 565.5,-81 565.5,-62 485.5,-62"/>
<text text-anchor="middle" x="525.5" y="-69" font-family="Helvetica,sans-Serif" font-size="10.00">Eigen/Sparse</text>
</g>
<!-- Node21&#45;&gt;Node23 -->
<g id="edge25" class="edge"><title>Node21&#45;&gt;Node23</title>
<path fill="none" stroke="midnightblue" d="M484.377,-123.475C491.649,-114.462 503.295,-100.025 512.341,-88.8118"/>
<polygon fill="midnightblue" stroke="midnightblue" points="515.081,-90.9898 518.636,-81.0091 509.633,-86.5946 515.081,-90.9898"/>
</g>
<!-- Node24 -->
<g id="node25" class="node"><title>Node24</title>
<polygon fill="none" stroke="#bfbfbf" points="584,-62 584,-81 625,-81 625,-62 584,-62"/>
<text text-anchor="middle" x="604.5" y="-69" font-family="Helvetica,sans-Serif" font-size="10.00">array</text>
</g>
<!-- Node21&#45;&gt;Node24 -->
<g id="edge26" class="edge"><title>Node21&#45;&gt;Node24</title>
<path fill="none" stroke="midnightblue" d="M496.136,-123.461C515.696,-114.473 547.32,-99.8722 574.5,-87 575.493,-86.5296 576.504,-86.0491 577.525,-85.5626"/>
<polygon fill="midnightblue" stroke="midnightblue" points="579.254,-88.6155 586.755,-81.134 576.225,-82.3044 579.254,-88.6155"/>
</g>
<!-- Node21&#45;&gt;Node25 -->
<g id="edge27" class="edge"><title>Node21&#45;&gt;Node25</title>
<path fill="none" stroke="midnightblue" d="M506.621,-124.84C538.236,-116.781 590.034,-102.739 633.5,-87 635.159,-86.3994 636.852,-85.7553 638.552,-85.0846"/>
<polygon fill="midnightblue" stroke="midnightblue" points="640.295,-88.1501 648.175,-81.0686 637.599,-81.6901 640.295,-88.1501"/>
</g>
<!-- Node26 -->
<g id="node27" class="node"><title>Node26</title>
<polygon fill="none" stroke="#bfbfbf" points="325,-62 325,-81 372,-81 372,-62 325,-62"/>
<text text-anchor="middle" x="348.5" y="-69" font-family="Helvetica,sans-Serif" font-size="10.00">vector</text>
</g>
<!-- Node21&#45;&gt;Node26 -->
<g id="edge28" class="edge"><title>Node21&#45;&gt;Node26</title>
<path fill="none" stroke="midnightblue" d="M459.017,-123.475C437.368,-113.49 401.287,-96.8476 376.268,-85.3075"/>
<polygon fill="midnightblue" stroke="midnightblue" points="377.495,-82.0193 366.948,-81.0091 374.563,-88.3757 377.495,-82.0193"/>
</g>
</g>
</svg>
        <g id="navigator" transform="translate(0 0)" fill="#404254">
                <rect fill="#f2f5e9" fill-opacity="0.5" stroke="#606060" stroke-width=".5" x="0" y="0" width="60" height="60"/>
                <use id="zoomplus" xlink:href="#zoomPlus" x="17" y="9" onmousedown="handleZoom(evt,'in')"/>
                <use id="zoomminus" xlink:href="#zoomMin" x="42" y="9" onmousedown="handleZoom(evt,'out')"/>
                <use id="reset" xlink:href="#resetDef" x="30" y="36" onmousedown="handleReset()"/>
                <g id="arrowUp" xlink:href="#dirArrow" transform="translate(30 24)" onmousedown="handlePan(0,-1)">
                  <use xlink:href="#rim" fill="#404040">
                        <set attributeName="fill" to="#808080" begin="arrowUp.mouseover" end="arrowUp.mouseout"/>
                  </use>
                  <path fill="none" stroke="white" stroke-width="1.5" d="M0,-3.0v7 M-2.5,-0.5L0,-3.0L2.5,-0.5"/>
                </g>
                <g id="arrowRight" xlink:href="#dirArrow" transform="rotate(90) translate(36 -43)" onmousedown="handlePan(1,0)">
                  <use xlink:href="#rim" fill="#404040">
                        <set attributeName="fill" to="#808080" begin="arrowRight.mouseover" end="arrowRight.mouseout"/>
                  </use>
                  <path fill="none" stroke="white" stroke-width="1.5" d="M0,-3.0v7 M-2.5,-0.5L0,-3.0L2.5,-0.5"/>
                </g>
                <g id="arrowDown" xlink:href="#dirArrow" transform="rotate(180) translate(-30 -48)" onmousedown="handlePan(0,1)">
                  <use xlink:href="#rim" fill="#404040">
                        <set attributeName="fill" to="#808080" begin="arrowDown.mouseover" end="arrowDown.mouseout"/>
                  </use>
                  <path fill="none" stroke="white" stroke-width="1.5" d="M0,-3.0v7 M-2.5,-0.5L0,-3.0L2.5,-0.5"/>
                </g>
                <g id="arrowLeft" xlink:href="#dirArrow" transform="rotate(270) translate(-36 17)" onmousedown="handlePan(-1,0)">
                  <use xlink:href="#rim" fill="#404040">
                        <set attributeName="fill" to="#808080" begin="arrowLeft.mouseover" end="arrowLeft.mouseout"/>
                  </use>
                  <path fill="none" stroke="white" stroke-width="1.5" d="M0,-3.0v7 M-2.5,-0.5L0,-3.0L2.5,-0.5"/>
                </g>
        </g>
        <svg viewBox="0 0 15 15" width="100%" height="30px" preserveAspectRatio="xMaxYMin meet">
         <g id="arrow_out" transform="scale(0.3 0.3)">
          <a xlink:href="QuantumDefect_8cpp__incl_org.svg" target="_base">
           <rect id="button" ry="5" rx="5" y="6" x="6" height="38" width="38"
                fill="#f2f5e9" fill-opacity="0.5" stroke="#606060" stroke-width="1.0"/>
           <path id="arrow"
             d="M 11.500037,31.436501 C 11.940474,20.09759 22.043105,11.32322 32.158766,21.979434 L 37.068811,17.246167 C 37.068811,17.246167 37.088388,32 37.088388,32 L 22.160133,31.978069 C 22.160133,31.978069 26.997745,27.140456 26.997745,27.140456 C 18.528582,18.264221 13.291696,25.230495 11.500037,31.436501 z"
             style="fill:#404040;"/>
          </a>
         </g>
        </svg>
</svg>
