<?xml version="1.0" encoding="UTF-8" standalone="no"?>
<!DOCTYPE svg PUBLIC "-//W3C//DTD SVG 1.1//EN"
 "http://www.w3.org/Graphics/SVG/1.1/DTD/svg11.dtd">
<!-- Generated by graphviz version 2.38.0 (20140413.2041)
 -->
<!-- Title: /travis/libpairinteraction/QuantumDefect.h Pages: 1 -->
<svg width="1444pt" height="218pt"
 viewBox="0.00 0.00 1443.50 218.00" xmlns="http://www.w3.org/2000/svg" xmlns:xlink="http://www.w3.org/1999/xlink">
<g id="graph0" class="graph" transform="scale(1 1) rotate(0) translate(4 214)">
<title>/travis/libpairinteraction/QuantumDefect.h</title>
<!-- Node0 -->
<g id="node1" class="node"><title>Node0</title>
<polygon fill="#bfbfbf" stroke="black" points="780.5,-179.5 780.5,-209.5 908.5,-209.5 908.5,-179.5 780.5,-179.5"/>
<text text-anchor="start" x="788.5" y="-197.5" font-family="Helvetica,sans-Serif" font-size="10.00">/travis/libpairinteraction</text>
<text text-anchor="middle" x="844.5" y="-186.5" font-family="Helvetica,sans-Serif" font-size="10.00">/QuantumDefect.h</text>
</g>
<!-- Node1 -->
<g id="node2" class="node"><title>Node1</title>
<g id="a_node2"><a xlink:href="Cache_8h.html" target="_top" xlink:title="Cache.h">
<polygon fill="none" stroke="black" points="169.5,-123.5 169.5,-142.5 225.5,-142.5 225.5,-123.5 169.5,-123.5"/>
<text text-anchor="middle" x="197.5" y="-130.5" font-family="Helvetica,sans-Serif" font-size="10.00">Cache.h</text>
</a>
</g>
</g>
<!-- Node0&#45;&gt;Node1 -->
<g id="edge1" class="edge"><title>Node0&#45;&gt;Node1</title>
<path fill="none" stroke="midnightblue" d="M780.395,-187.605C646.937,-175.332 342.776,-147.36 235.675,-137.511"/>
<polygon fill="midnightblue" stroke="midnightblue" points="235.924,-134.019 225.645,-136.588 235.283,-140.989 235.924,-134.019"/>
</g>
<!-- Node2 -->
<g id="node3" class="node"><title>Node2</title>
<polygon fill="none" stroke="#bfbfbf" points="0,-62 0,-81 47,-81 47,-62 0,-62"/>
<text text-anchor="middle" x="23.5" y="-69" font-family="Helvetica,sans-Serif" font-size="10.00">mutex</text>
</g>
<!-- Node0&#45;&gt;Node2 -->
<g id="edge28" class="edge"><title>Node0&#45;&gt;Node2</title>
<path fill="none" stroke="midnightblue" d="M780.399,-192.029C633.433,-188.132 275.976,-175.516 160.5,-143 116.7,-130.667 70.6177,-103.595 44.6256,-86.8178"/>
<polygon fill="midnightblue" stroke="midnightblue" points="46.2791,-83.7163 36,-81.1488 42.4345,-89.566 46.2791,-83.7163"/>
</g>
<!-- Node3 -->
<g id="node4" class="node"><title>Node3</title>
<polygon fill="none" stroke="#bfbfbf" points="190,-62 190,-81 283,-81 283,-62 190,-62"/>
<text text-anchor="middle" x="236.5" y="-69" font-family="Helvetica,sans-Serif" font-size="10.00">unordered_map</text>
</g>
<!-- Node0&#45;&gt;Node3 -->
<g id="edge31" class="edge"><title>Node0&#45;&gt;Node3</title>
<path fill="none" stroke="midnightblue" d="M780.481,-182.495C677.336,-164.463 468.155,-126.645 292.5,-87 287.789,-85.9366 282.871,-84.761 277.991,-83.5529"/>
<polygon fill="midnightblue" stroke="midnightblue" points="278.657,-80.1114 268.105,-81.053 276.941,-86.8978 278.657,-80.1114"/>
</g>
<!-- Node5 -->
<g id="node6" class="node"><title>Node5</title>
<g id="a_node6"><a xlink:href="SQLite_8h.html" target="_top" xlink:title="SQLite.h">
<polygon fill="none" stroke="black" points="729,-123.5 729,-142.5 786,-142.5 786,-123.5 729,-123.5"/>
<text text-anchor="middle" x="757.5" y="-130.5" font-family="Helvetica,sans-Serif" font-size="10.00">SQLite.h</text>
</a>
</g>
</g>
<!-- Node0&#45;&gt;Node5 -->
<g id="edge5" class="edge"><title>Node0&#45;&gt;Node5</title>
<path fill="none" stroke="midnightblue" d="M823.882,-179.399C810.197,-170.04 792.289,-157.792 778.522,-148.377"/>
<polygon fill="midnightblue" stroke="midnightblue" points="780.389,-145.414 770.159,-142.658 776.438,-151.192 780.389,-145.414"/>
</g>
<!-- Node10 -->
<g id="node11" class="node"><title>Node10</title>
<polygon fill="none" stroke="#bfbfbf" points="1008.5,-62 1008.5,-81 1052.5,-81 1052.5,-62 1008.5,-62"/>
<text text-anchor="middle" x="1030.5" y="-69" font-family="Helvetica,sans-Serif" font-size="10.00">string</text>
</g>
<!-- Node0&#45;&gt;Node10 -->
<g id="edge29" class="edge"><title>Node0&#45;&gt;Node10</title>
<path fill="none" stroke="midnightblue" d="M866.201,-179.383C901.916,-156.149 972.692,-110.106 1008.56,-86.7714"/>
<polygon fill="midnightblue" stroke="midnightblue" points="1010.82,-89.4791 1017.29,-81.0922 1007,-83.6114 1010.82,-89.4791"/>
</g>
<!-- Node20 -->
<g id="node21" class="node"><title>Node20</title>
<g id="a_node21"><a xlink:href="dtypes_8h.html" target="_top" xlink:title="dtypes.h">
<polygon fill="none" stroke="black" points="1093.5,-123.5 1093.5,-142.5 1151.5,-142.5 1151.5,-123.5 1093.5,-123.5"/>
<text text-anchor="middle" x="1122.5" y="-130.5" font-family="Helvetica,sans-Serif" font-size="10.00">dtypes.h</text>
</a>
</g>
</g>
<!-- Node0&#45;&gt;Node20 -->
<g id="edge22" class="edge"><title>Node0&#45;&gt;Node20</title>
<path fill="none" stroke="midnightblue" d="M908.628,-179.775C962.629,-168.217 1038.12,-152.06 1083.47,-142.354"/>
<polygon fill="midnightblue" stroke="midnightblue" points="1084.45,-145.724 1093.49,-140.208 1082.98,-138.879 1084.45,-145.724"/>
</g>
<!-- Node26 -->
<g id="node27" class="node"><title>Node26</title>
<polygon fill="none" stroke="#bfbfbf" points="1170,-123.5 1170,-142.5 1211,-142.5 1211,-123.5 1170,-123.5"/>
<text text-anchor="middle" x="1190.5" y="-130.5" font-family="Helvetica,sans-Serif" font-size="10.00">tuple</text>
</g>
<!-- Node0&#45;&gt;Node26 -->
<g id="edge30" class="edge"><title>Node0&#45;&gt;Node26</title>
<path fill="none" stroke="midnightblue" d="M908.531,-185.809C970.516,-177.79 1067.23,-163.767 1160.1,-142.812"/>
<polygon fill="midnightblue" stroke="midnightblue" points="1160.97,-146.202 1169.94,-140.561 1159.41,-139.378 1160.97,-146.202"/>
</g>
<!-- Node27 -->
<g id="node28" class="node"><title>Node27</title>
<polygon fill="none" stroke="#bfbfbf" points="1229.5,-123.5 1229.5,-142.5 1369.5,-142.5 1369.5,-123.5 1229.5,-123.5"/>
<text text-anchor="middle" x="1299.5" y="-130.5" font-family="Helvetica,sans-Serif" font-size="10.00">boost/functional/hash.hpp</text>
</g>
<!-- Node0&#45;&gt;Node27 -->
<g id="edge32" class="edge"><title>Node0&#45;&gt;Node27</title>
<path fill="none" stroke="midnightblue" d="M908.725,-185.101C991.87,-174.228 1136.51,-155.314 1224.57,-143.798"/>
<polygon fill="midnightblue" stroke="midnightblue" points="1225.04,-147.268 1234.5,-142.5 1224.13,-140.327 1225.04,-147.268"/>
</g>
<!-- Node1&#45;&gt;Node2 -->
<g id="edge2" class="edge"><title>Node1&#45;&gt;Node2</title>
<path fill="none" stroke="midnightblue" d="M169.379,-123.974C140.705,-115.57 95.0764,-101.585 56.5,-87 54.8903,-86.3914 53.2456,-85.7463 51.5921,-85.0794"/>
<polygon fill="midnightblue" stroke="midnightblue" points="52.7807,-81.7823 42.2062,-81.1265 50.0637,-88.2335 52.7807,-81.7823"/>
</g>
<!-- Node1&#45;&gt;Node3 -->
<g id="edge3" class="edge"><title>Node1&#45;&gt;Node3</title>
<path fill="none" stroke="midnightblue" d="M203.088,-123.475C208.88,-114.638 218.089,-100.589 225.374,-89.475"/>
<polygon fill="midnightblue" stroke="midnightblue" points="228.368,-91.2913 230.923,-81.0091 222.513,-87.4539 228.368,-91.2913"/>
</g>
<!-- Node4 -->
<g id="node5" class="node"><title>Node4</title>
<polygon fill="none" stroke="#bfbfbf" points="65.5,-62 65.5,-81 171.5,-81 171.5,-62 65.5,-62"/>
<text text-anchor="middle" x="118.5" y="-69" font-family="Helvetica,sans-Serif" font-size="10.00">boost/optional.hpp</text>
</g>
<!-- Node1&#45;&gt;Node4 -->
<g id="edge4" class="edge"><title>Node1&#45;&gt;Node4</title>
<path fill="none" stroke="midnightblue" d="M186.181,-123.475C173.627,-114.02 153.149,-98.5961 138.001,-87.1871"/>
<polygon fill="midnightblue" stroke="midnightblue" points="139.891,-84.2295 129.798,-81.0091 135.68,-89.821 139.891,-84.2295"/>
</g>
<!-- Node6 -->
<g id="node7" class="node"><title>Node6</title>
<polygon fill="none" stroke="#bfbfbf" points="576,-62 576,-81 635,-81 635,-62 576,-62"/>
<text text-anchor="middle" x="605.5" y="-69" font-family="Helvetica,sans-Serif" font-size="10.00">iostream</text>
</g>
<!-- Node5&#45;&gt;Node6 -->
<g id="edge6" class="edge"><title>Node5&#45;&gt;Node6</title>
<path fill="none" stroke="midnightblue" d="M735.722,-123.475C709.762,-113.313 666.189,-96.2564 636.665,-84.6996"/>
<polygon fill="midnightblue" stroke="midnightblue" points="637.825,-81.3951 627.237,-81.0091 635.274,-87.9135 637.825,-81.3951"/>
</g>
<!-- Node7 -->
<g id="node8" class="node"><title>Node7</title>
<polygon fill="none" stroke="#bfbfbf" points="653,-62 653,-81 710,-81 710,-62 653,-62"/>
<text text-anchor="middle" x="681.5" y="-69" font-family="Helvetica,sans-Serif" font-size="10.00">memory</text>
</g>
<!-- Node5&#45;&gt;Node7 -->
<g id="edge7" class="edge"><title>Node5&#45;&gt;Node7</title>
<path fill="none" stroke="midnightblue" d="M746.611,-123.475C734.534,-114.02 714.833,-98.5961 700.26,-87.1871"/>
<polygon fill="midnightblue" stroke="midnightblue" points="702.4,-84.4177 692.369,-81.0091 698.085,-89.9295 702.4,-84.4177"/>
</g>
<!-- Node8 -->
<g id="node9" class="node"><title>Node8</title>
<polygon fill="none" stroke="#bfbfbf" points="670.5,-0.5 670.5,-19.5 724.5,-19.5 724.5,-0.5 670.5,-0.5"/>
<text text-anchor="middle" x="697.5" y="-7.5" font-family="Helvetica,sans-Serif" font-size="10.00">random</text>
</g>
<!-- Node5&#45;&gt;Node8 -->
<g id="edge8" class="edge"><title>Node5&#45;&gt;Node8</title>
<path fill="none" stroke="midnightblue" d="M753.185,-123.298C743.412,-103.589 719.423,-55.2106 706.347,-28.842"/>
<polygon fill="midnightblue" stroke="midnightblue" points="709.354,-27.0273 701.776,-19.6232 703.083,-30.1371 709.354,-27.0273"/>
</g>
<!-- Node9 -->
<g id="node10" class="node"><title>Node9</title>
<polygon fill="none" stroke="#bfbfbf" points="868.5,-62 868.5,-81 924.5,-81 924.5,-62 868.5,-62"/>
<text text-anchor="middle" x="896.5" y="-69" font-family="Helvetica,sans-Serif" font-size="10.00">sstream</text>
</g>
<!-- Node5&#45;&gt;Node9 -->
<g id="edge9" class="edge"><title>Node5&#45;&gt;Node9</title>
<path fill="none" stroke="midnightblue" d="M777.415,-123.475C800.949,-113.401 840.31,-96.5525 867.293,-85.0023"/>
<polygon fill="midnightblue" stroke="midnightblue" points="868.806,-88.162 876.622,-81.0091 866.051,-81.7267 868.806,-88.162"/>
</g>
<!-- Node5&#45;&gt;Node10 -->
<g id="edge10" class="edge"><title>Node5&#45;&gt;Node10</title>
<path fill="none" stroke="midnightblue" d="M786.02,-129.071C831.869,-123.837 924.43,-111.103 999.5,-87 1001.17,-86.463 1002.87,-85.8567 1004.57,-85.2042"/>
<polygon fill="midnightblue" stroke="midnightblue" points="1006.27,-88.283 1014.08,-81.1238 1003.51,-81.85 1006.27,-88.283"/>
</g>
<!-- Node11 -->
<g id="node12" class="node"><title>Node11</title>
<polygon fill="none" stroke="#bfbfbf" points="942.5,-62 942.5,-81 990.5,-81 990.5,-62 942.5,-62"/>
<text text-anchor="middle" x="966.5" y="-69" font-family="Helvetica,sans-Serif" font-size="10.00">thread</text>
</g>
<!-- Node5&#45;&gt;Node11 -->
<g id="edge11" class="edge"><title>Node5&#45;&gt;Node11</title>
<path fill="none" stroke="midnightblue" d="M786.272,-126.162C821.475,-118.674 882.666,-104.535 933.5,-87 935.363,-86.3572 937.268,-85.6531 939.175,-84.9124"/>
<polygon fill="midnightblue" stroke="midnightblue" points="940.662,-88.085 948.557,-81.0197 937.979,-81.6195 940.662,-88.085"/>
</g>
<!-- Node12 -->
<g id="node13" class="node"><title>Node12</title>
<polygon fill="none" stroke="#bfbfbf" points="742.5,-0.5 742.5,-19.5 810.5,-19.5 810.5,-0.5 742.5,-0.5"/>
<text text-anchor="middle" x="776.5" y="-7.5" font-family="Helvetica,sans-Serif" font-size="10.00">type_traits</text>
</g>
<!-- Node5&#45;&gt;Node12 -->
<g id="edge12" class="edge"><title>Node5&#45;&gt;Node12</title>
<path fill="none" stroke="midnightblue" d="M758.866,-123.298C761.934,-103.763 769.424,-56.0646 773.588,-29.5471"/>
<polygon fill="midnightblue" stroke="midnightblue" points="777.052,-30.0451 775.146,-19.6232 770.137,-28.9592 777.052,-30.0451"/>
</g>
<!-- Node13 -->
<g id="node14" class="node"><title>Node13</title>
<polygon fill="none" stroke="#bfbfbf" points="301.5,-56.5 301.5,-86.5 421.5,-86.5 421.5,-56.5 301.5,-56.5"/>
<text text-anchor="start" x="309.5" y="-74.5" font-family="Helvetica,sans-Serif" font-size="10.00">boost/iterator/iterator</text>
<text text-anchor="middle" x="361.5" y="-63.5" font-family="Helvetica,sans-Serif" font-size="10.00">_facade.hpp</text>
</g>
<!-- Node5&#45;&gt;Node13 -->
<g id="edge13" class="edge"><title>Node5&#45;&gt;Node13</title>
<path fill="none" stroke="midnightblue" d="M728.965,-128.758C673.635,-122.326 547.716,-106.973 431.773,-87.1479"/>
<polygon fill="midnightblue" stroke="midnightblue" points="432.112,-83.6547 421.663,-85.4031 430.922,-90.5528 432.112,-83.6547"/>
</g>
<!-- Node14 -->
<g id="node15" class="node"><title>Node14</title>
<polygon fill="none" stroke="#bfbfbf" points="440,-62 440,-81 497,-81 497,-62 440,-62"/>
<text text-anchor="middle" x="468.5" y="-69" font-family="Helvetica,sans-Serif" font-size="10.00">sqlite3.h</text>
</g>
<!-- Node5&#45;&gt;Node14 -->
<g id="edge14" class="edge"><title>Node5&#45;&gt;Node14</title>
<path fill="none" stroke="midnightblue" d="M728.88,-128.642C681.871,-122.734 585.627,-108.981 506.5,-87 503.849,-86.2635 501.124,-85.4152 498.41,-84.5063"/>
<polygon fill="midnightblue" stroke="midnightblue" points="499.37,-81.1321 488.775,-81.04 497,-87.7187 499.37,-81.1321"/>
</g>
<!-- Node15 -->
<g id="node16" class="node"><title>Node15</title>
<polygon fill="none" stroke="#bfbfbf" points="515.5,-62 515.5,-81 557.5,-81 557.5,-62 515.5,-62"/>
<text text-anchor="middle" x="536.5" y="-69" font-family="Helvetica,sans-Serif" font-size="10.00">utility</text>
</g>
<!-- Node5&#45;&gt;Node15 -->
<g id="edge15" class="edge"><title>Node5&#45;&gt;Node15</title>
<path fill="none" stroke="midnightblue" d="M728.787,-127.263C690.92,-120.56 622.529,-106.87 566.5,-87 565.069,-86.4924 563.616,-85.9365 562.16,-85.3475"/>
<polygon fill="midnightblue" stroke="midnightblue" points="563.286,-82.0174 552.728,-81.1415 560.435,-88.4106 563.286,-82.0174"/>
</g>
<!-- Node16 -->
<g id="node17" class="node"><title>Node16</title>
<g id="a_node17"><a xlink:href="utils_8h.html" target="_top" xlink:title="utils.h">
<polygon fill="none" stroke="black" points="805,-62 805,-81 850,-81 850,-62 805,-62"/>
<text text-anchor="middle" x="827.5" y="-69" font-family="Helvetica,sans-Serif" font-size="10.00">utils.h</text>
</a>
</g>
</g>
<!-- Node5&#45;&gt;Node16 -->
<g id="edge16" class="edge"><title>Node5&#45;&gt;Node16</title>
<path fill="none" stroke="midnightblue" d="M767.529,-123.475C778.549,-114.108 796.46,-98.8839 809.843,-87.5081"/>
<polygon fill="midnightblue" stroke="midnightblue" points="812.137,-90.1524 817.489,-81.0091 807.603,-84.8188 812.137,-90.1524"/>
</g>
<!-- Node16&#45;&gt;Node8 -->
<g id="edge19" class="edge"><title>Node16&#45;&gt;Node8</title>
<path fill="none" stroke="midnightblue" d="M808.874,-61.9751C787.057,-51.9897 750.696,-35.3476 725.483,-23.8075"/>
<polygon fill="midnightblue" stroke="midnightblue" points="726.641,-20.4884 716.091,-19.5091 723.728,-26.8534 726.641,-20.4884"/>
</g>
<!-- Node16&#45;&gt;Node12 -->
<g id="edge20" class="edge"><title>Node16&#45;&gt;Node12</title>
<path fill="none" stroke="midnightblue" d="M820.193,-61.9751C812.467,-52.9617 800.092,-38.5246 790.482,-27.3118"/>
<polygon fill="midnightblue" stroke="midnightblue" points="792.959,-24.8239 783.794,-19.5091 787.644,-29.3795 792.959,-24.8239"/>
</g>
<!-- Node17 -->
<g id="node18" class="node"><title>Node17</title>
<polygon fill="none" stroke="#bfbfbf" points="829,-0.5 829,-19.5 886,-19.5 886,-0.5 829,-0.5"/>
<text text-anchor="middle" x="857.5" y="-7.5" font-family="Helvetica,sans-Serif" font-size="10.00">complex</text>
</g>
<!-- Node16&#45;&gt;Node17 -->
<g id="edge17" class="edge"><title>Node16&#45;&gt;Node17</title>
<path fill="none" stroke="midnightblue" d="M831.798,-61.9751C836.165,-53.3152 843.055,-39.6486 848.603,-28.6453"/>
<polygon fill="midnightblue" stroke="midnightblue" points="851.833,-30.0141 853.21,-19.5091 845.582,-26.8625 851.833,-30.0141"/>
</g>
<!-- Node18 -->
<g id="node19" class="node"><title>Node18</title>
<polygon fill="none" stroke="#bfbfbf" points="904,-0.5 904,-19.5 967,-19.5 967,-0.5 904,-0.5"/>
<text text-anchor="middle" x="935.5" y="-7.5" font-family="Helvetica,sans-Serif" font-size="10.00">functional</text>
</g>
<!-- Node16&#45;&gt;Node18 -->
<g id="edge18" class="edge"><title>Node16&#45;&gt;Node18</title>
<path fill="none" stroke="midnightblue" d="M842.974,-61.9751C860.778,-52.1664 890.241,-35.9346 911.132,-24.425"/>
<polygon fill="midnightblue" stroke="midnightblue" points="912.985,-27.4001 920.055,-19.5091 909.607,-21.269 912.985,-27.4001"/>
</g>
<!-- Node19 -->
<g id="node20" class="node"><title>Node19</title>
<polygon fill="none" stroke="#bfbfbf" points="985,-0.5 985,-19.5 1040,-19.5 1040,-0.5 985,-0.5"/>
<text text-anchor="middle" x="1012.5" y="-7.5" font-family="Helvetica,sans-Serif" font-size="10.00">unistd.h</text>
</g>
<!-- Node16&#45;&gt;Node19 -->
<g id="edge21" class="edge"><title>Node16&#45;&gt;Node19</title>
<path fill="none" stroke="midnightblue" d="M845.256,-61.9243C849.844,-59.8557 854.812,-57.742 859.5,-56 898.091,-41.6611 943.469,-28.7978 974.73,-20.5334"/>
<polygon fill="midnightblue" stroke="midnightblue" points="975.971,-23.8268 984.761,-17.9115 974.2,-17.0544 975.971,-23.8268"/>
</g>
<!-- Node21 -->
<g id="node22" class="node"><title>Node21</title>
<polygon fill="none" stroke="#bfbfbf" points="1260,-62 1260,-81 1337,-81 1337,-62 1260,-62"/>
<text text-anchor="middle" x="1298.5" y="-69" font-family="Helvetica,sans-Serif" font-size="10.00">Eigen/Dense</text>
</g>
<!-- Node20&#45;&gt;Node21 -->
<g id="edge23" class="edge"><title>Node20&#45;&gt;Node21</title>
<path fill="none" stroke="midnightblue" d="M1147.72,-123.475C1178.17,-113.18 1229.55,-95.8103 1263.74,-84.2502"/>
<polygon fill="midnightblue" stroke="midnightblue" points="1264.98,-87.5274 1273.33,-81.0091 1262.74,-80.8961 1264.98,-87.5274"/>
</g>
<!-- Node22 -->
<g id="node23" class="node"><title>Node22</title>
<polygon fill="none" stroke="#bfbfbf" points="1355.5,-62 1355.5,-81 1435.5,-81 1435.5,-62 1355.5,-62"/>
<text text-anchor="middle" x="1395.5" y="-69" font-family="Helvetica,sans-Serif" font-size="10.00">Eigen/Sparse</text>
</g>
<!-- Node20&#45;&gt;Node22 -->
<g id="edge24" class="edge"><title>Node20&#45;&gt;Node22</title>
<path fill="none" stroke="midnightblue" d="M1151.86,-125.109C1155.11,-124.381 1158.37,-123.665 1161.5,-123 1243.43,-105.58 1265.14,-106.907 1346.5,-87 1350.41,-86.043 1354.48,-84.9695 1358.52,-83.8509"/>
<polygon fill="midnightblue" stroke="midnightblue" points="1359.76,-87.1355 1368.41,-81.0182 1357.83,-80.4059 1359.76,-87.1355"/>
</g>
<!-- Node23 -->
<g id="node24" class="node"><title>Node23</title>
<polygon fill="none" stroke="#bfbfbf" points="1071,-62 1071,-81 1112,-81 1112,-62 1071,-62"/>
<text text-anchor="middle" x="1091.5" y="-69" font-family="Helvetica,sans-Serif" font-size="10.00">array</text>
</g>
<!-- Node20&#45;&gt;Node23 -->
<g id="edge25" class="edge"><title>Node20&#45;&gt;Node23</title>
<path fill="none" stroke="midnightblue" d="M1118.06,-123.475C1113.55,-114.815 1106.43,-101.149 1100.69,-90.1453"/>
<polygon fill="midnightblue" stroke="midnightblue" points="1103.66,-88.2604 1095.93,-81.0091 1097.45,-91.4948 1103.66,-88.2604"/>
</g>
<!-- Node24 -->
<g id="node25" class="node"><title>Node24</title>
<polygon fill="none" stroke="#bfbfbf" points="1130,-62 1130,-81 1177,-81 1177,-62 1130,-62"/>
<text text-anchor="middle" x="1153.5" y="-69" font-family="Helvetica,sans-Serif" font-size="10.00">cmath</text>
</g>
<!-- Node20&#45;&gt;Node24 -->
<g id="edge26" class="edge"><title>Node20&#45;&gt;Node24</title>
<path fill="none" stroke="midnightblue" d="M1126.94,-123.475C1131.45,-114.815 1138.57,-101.149 1144.31,-90.1453"/>
<polygon fill="midnightblue" stroke="midnightblue" points="1147.55,-91.4948 1149.07,-81.0091 1141.34,-88.2604 1147.55,-91.4948"/>
</g>
<!-- Node25 -->
<g id="node26" class="node"><title>Node25</title>
<polygon fill="none" stroke="#bfbfbf" points="1195,-62 1195,-81 1242,-81 1242,-62 1195,-62"/>
<text text-anchor="middle" x="1218.5" y="-69" font-family="Helvetica,sans-Serif" font-size="10.00">vector</text>
</g>
<!-- Node20&#45;&gt;Node25 -->
<g id="edge27" class="edge"><title>Node20&#45;&gt;Node25</title>
<path fill="none" stroke="midnightblue" d="M1136.25,-123.475C1151.87,-113.799 1177.56,-97.8721 1196.08,-86.3941"/>
<polygon fill="midnightblue" stroke="midnightblue" points="1198.12,-89.2522 1204.77,-81.0091 1194.43,-83.3023 1198.12,-89.2522"/>
</g>
</g>
</svg>
