<?xml version="1.0" encoding="UTF-8" standalone="no"?>
<!DOCTYPE svg PUBLIC "-//W3C//DTD SVG 1.1//EN"
 "http://www.w3.org/Graphics/SVG/1.1/DTD/svg11.dtd">
<!-- Generated by graphviz version 2.38.0 (20140413.2041)
 -->
<!-- Title: nstar Pages: 1 -->
<svg width="342pt" height="66pt"
 viewBox="0.00 0.00 342.00 66.00" xmlns="http://www.w3.org/2000/svg" xmlns:xlink="http://www.w3.org/1999/xlink">
<g id="graph0" class="graph" transform="scale(1 1) rotate(0) translate(4 62)">
<title>nstar</title>
<!-- Node10 -->
<g id="node1" class="node"><title>Node10</title>
<polygon fill="#bfbfbf" stroke="black" points="0,-19.5 0,-38.5 41,-38.5 41,-19.5 0,-19.5"/>
<text text-anchor="middle" x="20.5" y="-26.5" font-family="Helvetica,sans-Serif" font-size="10.00">nstar</text>
</g>
<!-- Node11 -->
<g id="node2" class="node"><title>Node11</title>
<g id="a_node2"><a xlink:href="classStateOne.html#ad4e2058552ab21809e3dd455a29214ae" target="_top" xlink:title="StateOne::getNStar">
<polygon fill="none" stroke="black" points="77,-38.5 77,-57.5 189,-57.5 189,-38.5 77,-38.5"/>
<text text-anchor="middle" x="133" y="-45.5" font-family="Helvetica,sans-Serif" font-size="10.00">StateOne::getNStar</text>
</a>
</g>
</g>
<!-- Node10&#45;&gt;Node11 -->
<g id="edge1" class="edge"><title>Node10&#45;&gt;Node11</title>
<path fill="none" stroke="midnightblue" d="M50.8659,-34.0493C58.8361,-35.4198 67.7348,-36.9499 76.6375,-38.4806"/>
<polygon fill="midnightblue" stroke="midnightblue" points="51.4493,-30.5984 41.0008,-32.3531 50.2631,-37.4971 51.4493,-30.5984"/>
</g>
<!-- Node13 -->
<g id="node4" class="node"><title>Node13</title>
<g id="a_node4"><a xlink:href="structno__potential.html#ac32f2ce23a3ae3d1f6a4bcf8dd446158" target="_top" xlink:title="no_potential::what">
<polygon fill="none" stroke="black" points="81,-0.5 81,-19.5 185,-19.5 185,-0.5 81,-0.5"/>
<text text-anchor="middle" x="133" y="-7.5" font-family="Helvetica,sans-Serif" font-size="10.00">no_potential::what</text>
</a>
</g>
</g>
<!-- Node10&#45;&gt;Node13 -->
<g id="edge3" class="edge"><title>Node10&#45;&gt;Node13</title>
<path fill="none" stroke="midnightblue" d="M51.1349,-23.9044C60.313,-22.3263 70.7024,-20.5399 80.9019,-18.7861"/>
<polygon fill="midnightblue" stroke="midnightblue" points="50.2631,-20.5029 41.0008,-25.6469 51.4493,-27.4016 50.2631,-20.5029"/>
</g>
<!-- Node12 -->
<g id="node3" class="node"><title>Node12</title>
<g id="a_node3"><a xlink:href="classStateTwo.html#a3fd811a11be91fc027b2cf3a45ba81b6" target="_top" xlink:title="StateTwo::getNStar">
<polygon fill="none" stroke="black" points="225,-38.5 225,-57.5 334,-57.5 334,-38.5 225,-38.5"/>
<text text-anchor="middle" x="279.5" y="-45.5" font-family="Helvetica,sans-Serif" font-size="10.00">StateTwo::getNStar</text>
</a>
</g>
</g>
<!-- Node11&#45;&gt;Node12 -->
<g id="edge2" class="edge"><title>Node11&#45;&gt;Node12</title>
<path fill="none" stroke="midnightblue" d="M199.267,-48C207.728,-48 216.318,-48 224.567,-48"/>
<polygon fill="midnightblue" stroke="midnightblue" points="199.042,-44.5001 189.041,-48 199.041,-51.5001 199.042,-44.5001"/>
</g>
</g>
</svg>
