<?xml version="1.0" encoding="UTF-8" standalone="no"?>
<!DOCTYPE svg PUBLIC "-//W3C//DTD SVG 1.1//EN"
 "http://www.w3.org/Graphics/SVG/1.1/DTD/svg11.dtd">
<!-- Generated by graphviz version 2.38.0 (20140413.2041)
 -->
<!-- Title: energy_level Pages: 1 -->
<svg width="646pt" height="142pt"
 viewBox="0.00 0.00 646.00 142.00" xmlns="http://www.w3.org/2000/svg" xmlns:xlink="http://www.w3.org/1999/xlink">
<g id="graph0" class="graph" transform="scale(1 1) rotate(0) translate(4 138)">
<title>energy_level</title>
<!-- Node1 -->
<g id="node1" class="node"><title>Node1</title>
<polygon fill="#bfbfbf" stroke="black" points="0,-75.5 0,-94.5 77,-94.5 77,-75.5 0,-75.5"/>
<text text-anchor="middle" x="38.5" y="-82.5" font-family="Helvetica,sans-Serif" font-size="10.00">energy_level</text>
</g>
<!-- Node2 -->
<g id="node2" class="node"><title>Node2</title>
<g id="a_node2"><a xlink:href="classHamiltonianOne.html#a9cb71dcb34ab9f0779c0bd66b758185e" target="_top" xlink:title="HamiltonianOne::build">
<polygon fill="none" stroke="black" points="113,-104.5 113,-123.5 235,-123.5 235,-104.5 113,-104.5"/>
<text text-anchor="middle" x="174" y="-111.5" font-family="Helvetica,sans-Serif" font-size="10.00">HamiltonianOne::build</text>
</a>
</g>
</g>
<!-- Node1&#45;&gt;Node2 -->
<g id="edge1" class="edge"><title>Node1&#45;&gt;Node2</title>
<path fill="none" stroke="midnightblue" d="M86.8212,-95.2795C100.596,-98.2718 115.58,-101.527 129.133,-104.471"/>
<polygon fill="midnightblue" stroke="midnightblue" points="87.5576,-91.8579 77.0425,-93.1553 86.0716,-98.6984 87.5576,-91.8579"/>
</g>
<!-- Node4 -->
<g id="node4" class="node"><title>Node4</title>
<g id="a_node4"><a xlink:href="classStateOne.html#a6262da11406dbaa811f361cab2cf71b6" target="_top" xlink:title="StateOne::getEnergy">
<polygon fill="none" stroke="black" points="115.5,-47.5 115.5,-66.5 232.5,-66.5 232.5,-47.5 115.5,-47.5"/>
<text text-anchor="middle" x="174" y="-54.5" font-family="Helvetica,sans-Serif" font-size="10.00">StateOne::getEnergy</text>
</a>
</g>
</g>
<!-- Node1&#45;&gt;Node4 -->
<g id="edge3" class="edge"><title>Node1&#45;&gt;Node4</title>
<path fill="none" stroke="midnightblue" d="M86.9244,-75.0533C100.182,-72.2728 114.552,-69.2588 127.684,-66.5045"/>
<polygon fill="midnightblue" stroke="midnightblue" points="86.111,-71.6477 77.0425,-77.1259 87.548,-78.4986 86.111,-71.6477"/>
</g>
<!-- Node3 -->
<g id="node3" class="node"><title>Node3</title>
<g id="a_node3"><a xlink:href="classHamiltonianOne.html#ad3ba2d70879a60c9f065b5a2545dfe36" target="_top" xlink:title="HamiltonianOne::HamiltonianOne">
<polygon fill="none" stroke="black" points="271,-114.5 271,-133.5 448,-133.5 448,-114.5 271,-114.5"/>
<text text-anchor="middle" x="359.5" y="-121.5" font-family="Helvetica,sans-Serif" font-size="10.00">HamiltonianOne::HamiltonianOne</text>
</a>
</g>
</g>
<!-- Node2&#45;&gt;Node3 -->
<g id="edge2" class="edge"><title>Node2&#45;&gt;Node3</title>
<path fill="none" stroke="midnightblue" d="M245.224,-117.827C253.658,-118.287 262.35,-118.76 270.991,-119.231"/>
<polygon fill="midnightblue" stroke="midnightblue" points="245.26,-114.324 235.085,-117.274 244.879,-121.313 245.26,-114.324"/>
</g>
<!-- Node5 -->
<g id="node5" class="node"><title>Node5</title>
<g id="a_node5"><a xlink:href="classStateTwo.html#a3f9e530a17bed5048f16653dcd9c7991" target="_top" xlink:title="StateTwo::getEnergy">
<polygon fill="none" stroke="black" points="302.5,-76.5 302.5,-95.5 416.5,-95.5 416.5,-76.5 302.5,-76.5"/>
<text text-anchor="middle" x="359.5" y="-83.5" font-family="Helvetica,sans-Serif" font-size="10.00">StateTwo::getEnergy</text>
</a>
</g>
</g>
<!-- Node4&#45;&gt;Node5 -->
<g id="edge4" class="edge"><title>Node4&#45;&gt;Node5</title>
<path fill="none" stroke="midnightblue" d="M242.666,-67.6939C262.315,-70.799 283.549,-74.1548 302.404,-77.1347"/>
<polygon fill="midnightblue" stroke="midnightblue" points="242.981,-64.2002 232.557,-66.0962 241.888,-71.1144 242.981,-64.2002"/>
</g>
<!-- Node7 -->
<g id="node7" class="node"><title>Node7</title>
<g id="a_node7"><a xlink:href="integration__test_8cpp.html#a0edc7e03850724a3784df426b75fb1d2" target="_top" xlink:title="BOOST_FIXTURE_TEST_CASE">
<polygon fill="none" stroke="black" points="484,-38.5 484,-57.5 638,-57.5 638,-38.5 484,-38.5"/>
<text text-anchor="middle" x="561" y="-45.5" font-family="Helvetica,sans-Serif" font-size="10.00">BOOST_FIXTURE_TEST_CASE</text>
</a>
</g>
</g>
<!-- Node4&#45;&gt;Node7 -->
<g id="edge8" class="edge"><title>Node4&#45;&gt;Node7</title>
<path fill="none" stroke="midnightblue" d="M242.727,-55.4168C310.141,-53.8409 413.426,-51.4264 483.698,-49.7837"/>
<polygon fill="midnightblue" stroke="midnightblue" points="242.554,-51.9198 232.638,-55.6526 242.717,-58.9179 242.554,-51.9198"/>
</g>
<!-- Node8 -->
<g id="node8" class="node"><title>Node8</title>
<g id="a_node8"><a xlink:href="classSystemOne.html#a1548df0406b8a36e4307f8dbf9226990" target="_top" xlink:title="Method that allows base class to initialize Basis //////////////. ">
<polygon fill="none" stroke="black" points="288,-0.5 288,-19.5 431,-19.5 431,-0.5 288,-0.5"/>
<text text-anchor="middle" x="359.5" y="-7.5" font-family="Helvetica,sans-Serif" font-size="10.00">SystemOne::initializeBasis</text>
</a>
</g>
</g>
<!-- Node4&#45;&gt;Node8 -->
<g id="edge7" class="edge"><title>Node4&#45;&gt;Node8</title>
<path fill="none" stroke="midnightblue" d="M222.198,-44.9112C252.954,-37.0336 292.531,-26.8967 321.107,-19.5776"/>
<polygon fill="midnightblue" stroke="midnightblue" points="220.953,-41.617 212.134,-47.4888 222.69,-48.3981 220.953,-41.617"/>
</g>
<!-- Node6 -->
<g id="node6" class="node"><title>Node6</title>
<g id="a_node6"><a xlink:href="classPerturbativeInteraction.html#a6ed147d3eeaa7057c3c4e9b1dce6747a" target="_top" xlink:title="PerturbativeInteraction\l::getC6">
<polygon fill="none" stroke="black" points="498,-77 498,-107 624,-107 624,-77 498,-77"/>
<text text-anchor="start" x="506" y="-95" font-family="Helvetica,sans-Serif" font-size="10.00">PerturbativeInteraction</text>
<text text-anchor="middle" x="561" y="-84" font-family="Helvetica,sans-Serif" font-size="10.00">::getC6</text>
</a>
</g>
</g>
<!-- Node5&#45;&gt;Node6 -->
<g id="edge5" class="edge"><title>Node5&#45;&gt;Node6</title>
<path fill="none" stroke="midnightblue" d="M426.885,-87.9965C449.71,-88.683 475.17,-89.4487 497.662,-90.1252"/>
<polygon fill="midnightblue" stroke="midnightblue" points="426.704,-84.4896 416.603,-87.6873 426.493,-91.4864 426.704,-84.4896"/>
</g>
<!-- Node5&#45;&gt;Node7 -->
<g id="edge6" class="edge"><title>Node5&#45;&gt;Node7</title>
<path fill="none" stroke="midnightblue" d="M420.445,-74.5819C448.99,-69.1448 482.737,-62.7168 509.895,-57.5439"/>
<polygon fill="midnightblue" stroke="midnightblue" points="419.753,-71.1507 410.585,-76.46 421.063,-78.027 419.753,-71.1507"/>
</g>
</g>
</svg>
