<?xml version="1.0" encoding="UTF-8" standalone="no"?>
<!DOCTYPE svg PUBLIC "-//W3C//DTD SVG 1.1//EN"
 "http://www.w3.org/Graphics/SVG/1.1/DTD/svg11.dtd">
<!-- Generated by graphviz version 2.38.0 (20140413.2041)
 -->
<!-- Title: /travis/libpairinteraction/Serializable.h Pages: 1 -->
<svg width="752pt" height="151pt"
 viewBox="0.00 0.00 752.00 151.00" xmlns="http://www.w3.org/2000/svg" xmlns:xlink="http://www.w3.org/1999/xlink">
<g id="graph0" class="graph" transform="scale(1 1) rotate(0) translate(4 147)">
<title>/travis/libpairinteraction/Serializable.h</title>
<!-- Node0 -->
<g id="node1" class="node"><title>Node0</title>
<polygon fill="#bfbfbf" stroke="black" points="386.5,-112.5 386.5,-142.5 514.5,-142.5 514.5,-112.5 386.5,-112.5"/>
<text text-anchor="start" x="394.5" y="-130.5" font-family="Helvetica,sans-Serif" font-size="10.00">/travis/libpairinteraction</text>
<text text-anchor="middle" x="450.5" y="-119.5" font-family="Helvetica,sans-Serif" font-size="10.00">/Serializable.h</text>
</g>
<!-- Node1 -->
<g id="node2" class="node"><title>Node1</title>
<g id="a_node2"><a xlink:href="dtypes_8h.html" target="_top" xlink:title="dtypes.h">
<polygon fill="none" stroke="black" points="202.5,-56.5 202.5,-75.5 260.5,-75.5 260.5,-56.5 202.5,-56.5"/>
<text text-anchor="middle" x="231.5" y="-63.5" font-family="Helvetica,sans-Serif" font-size="10.00">dtypes.h</text>
</a>
</g>
</g>
<!-- Node0&#45;&gt;Node1 -->
<g id="edge1" class="edge"><title>Node0&#45;&gt;Node1</title>
<path fill="none" stroke="midnightblue" d="M398.877,-112.475C359.63,-101.812 306.461,-87.3661 270.67,-77.6421"/>
<polygon fill="midnightblue" stroke="midnightblue" points="271.177,-74.1531 260.609,-74.9087 269.342,-80.9082 271.177,-74.1531"/>
</g>
<!-- Node6 -->
<g id="node7" class="node"><title>Node6</title>
<polygon fill="none" stroke="#bfbfbf" points="318,-0.5 318,-19.5 365,-19.5 365,-0.5 318,-0.5"/>
<text text-anchor="middle" x="341.5" y="-7.5" font-family="Helvetica,sans-Serif" font-size="10.00">vector</text>
</g>
<!-- Node0&#45;&gt;Node6 -->
<g id="edge12" class="edge"><title>Node0&#45;&gt;Node6</title>
<path fill="none" stroke="midnightblue" d="M391.592,-112.455C372.686,-104.884 353.746,-93.3768 342.5,-76 333.694,-62.3932 334.453,-43.5975 336.817,-29.7166"/>
<polygon fill="midnightblue" stroke="midnightblue" points="340.263,-30.3385 338.905,-19.8311 333.414,-28.892 340.263,-30.3385"/>
</g>
<!-- Node7 -->
<g id="node8" class="node"><title>Node7</title>
<polygon fill="none" stroke="#bfbfbf" points="351.5,-56.5 351.5,-75.5 403.5,-75.5 403.5,-56.5 351.5,-56.5"/>
<text text-anchor="middle" x="377.5" y="-63.5" font-family="Helvetica,sans-Serif" font-size="10.00">iterator</text>
</g>
<!-- Node0&#45;&gt;Node7 -->
<g id="edge7" class="edge"><title>Node0&#45;&gt;Node7</title>
<path fill="none" stroke="midnightblue" d="M433.2,-112.399C422.045,-103.308 407.546,-91.4899 396.138,-82.1909"/>
<polygon fill="midnightblue" stroke="midnightblue" points="398.085,-79.2627 388.122,-75.6578 393.662,-84.6887 398.085,-79.2627"/>
</g>
<!-- Node8 -->
<g id="node9" class="node"><title>Node8</title>
<polygon fill="none" stroke="#bfbfbf" points="422,-56.5 422,-75.5 479,-75.5 479,-56.5 422,-56.5"/>
<text text-anchor="middle" x="450.5" y="-63.5" font-family="Helvetica,sans-Serif" font-size="10.00">memory</text>
</g>
<!-- Node0&#45;&gt;Node8 -->
<g id="edge8" class="edge"><title>Node0&#45;&gt;Node8</title>
<path fill="none" stroke="midnightblue" d="M450.5,-112.399C450.5,-104.466 450.5,-94.458 450.5,-85.8583"/>
<polygon fill="midnightblue" stroke="midnightblue" points="454,-85.6577 450.5,-75.6578 447,-85.6578 454,-85.6577"/>
</g>
<!-- Node9 -->
<g id="node10" class="node"><title>Node9</title>
<polygon fill="none" stroke="#bfbfbf" points="497,-56.5 497,-75.5 560,-75.5 560,-56.5 497,-56.5"/>
<text text-anchor="middle" x="528.5" y="-63.5" font-family="Helvetica,sans-Serif" font-size="10.00">typeindex</text>
</g>
<!-- Node0&#45;&gt;Node9 -->
<g id="edge9" class="edge"><title>Node0&#45;&gt;Node9</title>
<path fill="none" stroke="midnightblue" d="M468.985,-112.399C481.02,-103.218 496.7,-91.2579 508.943,-81.9182"/>
<polygon fill="midnightblue" stroke="midnightblue" points="511.322,-84.5056 517.15,-75.6578 507.077,-78.9401 511.322,-84.5056"/>
</g>
<!-- Node10 -->
<g id="node11" class="node"><title>Node10</title>
<polygon fill="none" stroke="#bfbfbf" points="578,-56.5 578,-75.5 633,-75.5 633,-56.5 578,-56.5"/>
<text text-anchor="middle" x="605.5" y="-63.5" font-family="Helvetica,sans-Serif" font-size="10.00">typeinfo</text>
</g>
<!-- Node0&#45;&gt;Node10 -->
<g id="edge10" class="edge"><title>Node0&#45;&gt;Node10</title>
<path fill="none" stroke="midnightblue" d="M487.233,-112.399C513.471,-102.327 548.425,-88.9093 573.518,-79.2769"/>
<polygon fill="midnightblue" stroke="midnightblue" points="574.865,-82.5091 582.946,-75.6578 572.356,-75.9741 574.865,-82.5091"/>
</g>
<!-- Node11 -->
<g id="node12" class="node"><title>Node11</title>
<polygon fill="none" stroke="#bfbfbf" points="651,-56.5 651,-75.5 744,-75.5 744,-56.5 651,-56.5"/>
<text text-anchor="middle" x="697.5" y="-63.5" font-family="Helvetica,sans-Serif" font-size="10.00">unordered_map</text>
</g>
<!-- Node0&#45;&gt;Node11 -->
<g id="edge11" class="edge"><title>Node0&#45;&gt;Node11</title>
<path fill="none" stroke="midnightblue" d="M508.723,-112.475C552.638,-101.896 612.006,-87.5946 652.359,-77.874"/>
<polygon fill="midnightblue" stroke="midnightblue" points="653.286,-81.251 662.188,-75.5064 651.646,-74.4457 653.286,-81.251"/>
</g>
<!-- Node2 -->
<g id="node3" class="node"><title>Node2</title>
<polygon fill="none" stroke="#bfbfbf" points="0,-0.5 0,-19.5 77,-19.5 77,-0.5 0,-0.5"/>
<text text-anchor="middle" x="38.5" y="-7.5" font-family="Helvetica,sans-Serif" font-size="10.00">Eigen/Dense</text>
</g>
<!-- Node1&#45;&gt;Node2 -->
<g id="edge2" class="edge"><title>Node1&#45;&gt;Node2</title>
<path fill="none" stroke="midnightblue" d="M202.187,-56.7986C169.319,-47.6021 115.805,-32.6294 78.9643,-22.3216"/>
<polygon fill="midnightblue" stroke="midnightblue" points="79.6197,-18.8706 69.0465,-19.5467 77.7335,-25.6118 79.6197,-18.8706"/>
</g>
<!-- Node3 -->
<g id="node4" class="node"><title>Node3</title>
<polygon fill="none" stroke="#bfbfbf" points="95.5,-0.5 95.5,-19.5 175.5,-19.5 175.5,-0.5 95.5,-0.5"/>
<text text-anchor="middle" x="135.5" y="-7.5" font-family="Helvetica,sans-Serif" font-size="10.00">Eigen/Sparse</text>
</g>
<!-- Node1&#45;&gt;Node3 -->
<g id="edge3" class="edge"><title>Node1&#45;&gt;Node3</title>
<path fill="none" stroke="midnightblue" d="M216.076,-56.324C200.96,-47.8215 177.685,-34.7288 160.029,-24.7975"/>
<polygon fill="midnightblue" stroke="midnightblue" points="161.317,-21.5066 150.886,-19.6545 157.886,-27.6077 161.317,-21.5066"/>
</g>
<!-- Node4 -->
<g id="node5" class="node"><title>Node4</title>
<polygon fill="none" stroke="#bfbfbf" points="194,-0.5 194,-19.5 235,-19.5 235,-0.5 194,-0.5"/>
<text text-anchor="middle" x="214.5" y="-7.5" font-family="Helvetica,sans-Serif" font-size="10.00">array</text>
</g>
<!-- Node1&#45;&gt;Node4 -->
<g id="edge4" class="edge"><title>Node1&#45;&gt;Node4</title>
<path fill="none" stroke="midnightblue" d="M228.693,-56.083C226.415,-48.8486 223.129,-38.4087 220.292,-29.3968"/>
<polygon fill="midnightblue" stroke="midnightblue" points="223.596,-28.2385 217.255,-19.7511 216.919,-30.3406 223.596,-28.2385"/>
</g>
<!-- Node5 -->
<g id="node6" class="node"><title>Node5</title>
<polygon fill="none" stroke="#bfbfbf" points="253,-0.5 253,-19.5 300,-19.5 300,-0.5 253,-0.5"/>
<text text-anchor="middle" x="276.5" y="-7.5" font-family="Helvetica,sans-Serif" font-size="10.00">cmath</text>
</g>
<!-- Node1&#45;&gt;Node5 -->
<g id="edge5" class="edge"><title>Node1&#45;&gt;Node5</title>
<path fill="none" stroke="midnightblue" d="M238.931,-56.083C245.353,-48.3768 254.806,-37.0333 262.622,-27.6531"/>
<polygon fill="midnightblue" stroke="midnightblue" points="265.494,-29.674 269.207,-19.7511 260.117,-25.1927 265.494,-29.674"/>
</g>
<!-- Node1&#45;&gt;Node6 -->
<g id="edge6" class="edge"><title>Node1&#45;&gt;Node6</title>
<path fill="none" stroke="midnightblue" d="M249.173,-56.324C266.894,-47.6247 294.403,-34.1202 314.788,-24.113"/>
<polygon fill="midnightblue" stroke="midnightblue" points="316.436,-27.2031 323.87,-19.6545 313.351,-20.9195 316.436,-27.2031"/>
</g>
</g>
</svg>
