<?xml version="1.0" encoding="UTF-8" standalone="no"?>
<!DOCTYPE svg PUBLIC "-//W3C//DTD SVG 1.1//EN"
 "http://www.w3.org/Graphics/SVG/1.1/DTD/svg11.dtd">
<!-- Generated by graphviz version 2.38.0 (20140413.2041)
 -->
<!-- Title: /travis/libpairinteraction/SQLite.h Pages: 1 -->
<!--zoomable 530 -->
<svg id="main" version="1.1" xmlns="http://www.w3.org/2000/svg" xmlns:xlink="http://www.w3.org/1999/xlink" xml:space="preserve" onload="init(evt)">
<style type="text/css"><![CDATA[
.edge:hover path { stroke: red; }
.edge:hover polygon { stroke: red; fill: red; }
]]></style>
<script type="text/javascript"><![CDATA[
var edges = document.getElementsByTagName('g');
if (edges && edges.length) {
  for (var i=0;i<edges.length;i++) {
    if (edges[i].id.substr(0,4)=='edge') {
      edges[i].setAttribute('class','edge');
    }
  }
}
]]></script>
        <defs>
                <circle id="rim" cx="0" cy="0" r="7"/>
                <circle id="rim2" cx="0" cy="0" r="3.5"/>
                <g id="zoomPlus">
                        <use xlink:href="#rim" fill="#404040">
                                <set attributeName="fill" to="#808080" begin="zoomplus.mouseover" end="zoomplus.mouseout"/>
                        </use>
                        <path d="M-4,0h8M0,-4v8" fill="none" stroke="white" stroke-width="1.5" pointer-events="none"/>
                </g>
                <g id="zoomMin">
                        <use xlink:href="#rim" fill="#404040">
                                <set attributeName="fill" to="#808080" begin="zoomminus.mouseover" end="zoomminus.mouseout"/>
                        </use>
                        <path d="M-4,0h8" fill="none" stroke="white" stroke-width="1.5" pointer-events="none"/>
                </g>
                <g id="dirArrow">
                        <path fill="none" stroke="white" stroke-width="1.5" d="M0,-3.0v7 M-2.5,-0.5L0,-3.0L2.5,-0.5"/>
                </g>
               <g id="resetDef">
                       <use xlink:href="#rim2" fill="#404040">
                               <set attributeName="fill" to="#808080" begin="reset.mouseover" end="reset.mouseout"/>
                       </use>
               </g>
        </defs>

<script type="text/javascript">
var viewWidth = 1248;
var viewHeight = 530;
var sectionId = 'dynsection-1';
</script>
<script xlink:href="svgpan.js"/>
<svg id="graph" class="graph">
<g id="viewport">
<title>/travis/libpairinteraction/SQLite.h</title>
<!-- Node15 -->
<g id="node1" class="node"><title>Node15</title>
<polygon fill="#bfbfbf" stroke="black" points="851.5,-491.5 851.5,-521.5 979.5,-521.5 979.5,-491.5 851.5,-491.5"/>
<text text-anchor="start" x="859.5" y="-509.5" font-family="Helvetica,sans-Serif" font-size="10.00">/travis/libpairinteraction</text>
<text text-anchor="middle" x="915.5" y="-498.5" font-family="Helvetica,sans-Serif" font-size="10.00">/SQLite.h</text>
</g>
<!-- Node16 -->
<g id="node2" class="node"><title>Node16</title>
<g id="a_node2"><a xlink:href="QuantumDefect_8h.html" target="_top" xlink:title="/travis/libpairinteraction\l/QuantumDefect.h">
<polygon fill="none" stroke="black" points="467.5,-424.5 467.5,-454.5 595.5,-454.5 595.5,-424.5 467.5,-424.5"/>
<text text-anchor="start" x="475.5" y="-442.5" font-family="Helvetica,sans-Serif" font-size="10.00">/travis/libpairinteraction</text>
<text text-anchor="middle" x="531.5" y="-431.5" font-family="Helvetica,sans-Serif" font-size="10.00">/QuantumDefect.h</text>
</a>
</g>
</g>
<!-- Node15&#45;&gt;Node16 -->
<g id="edge1" class="edge"><title>Node15&#45;&gt;Node16</title>
<path fill="none" stroke="midnightblue" d="M840.972,-492.885C769.677,-480.816 663.283,-462.807 595.662,-451.361"/>
<polygon fill="midnightblue" stroke="midnightblue" points="840.783,-496.402 851.227,-494.62 841.951,-489.501 840.783,-496.402"/>
</g>
<!-- Node19 -->
<g id="node5" class="node"><title>Node19</title>
<g id="a_node5"><a xlink:href="HamiltonianOne_8h.html" target="_top" xlink:title="/travis/libpairinteraction\l/HamiltonianOne.h">
<polygon fill="none" stroke="black" points="1019.5,-201.5 1019.5,-231.5 1147.5,-231.5 1147.5,-201.5 1019.5,-201.5"/>
<text text-anchor="start" x="1027.5" y="-219.5" font-family="Helvetica,sans-Serif" font-size="10.00">/travis/libpairinteraction</text>
<text text-anchor="middle" x="1083.5" y="-208.5" font-family="Helvetica,sans-Serif" font-size="10.00">/HamiltonianOne.h</text>
</a>
</g>
</g>
<!-- Node15&#45;&gt;Node19 -->
<g id="edge34" class="edge"><title>Node15&#45;&gt;Node19</title>
<path fill="none" stroke="midnightblue" d="M963.802,-486.762C978.899,-478.898 994.472,-468.406 1005.5,-455 1062.99,-385.119 1078.57,-271.526 1082.38,-231.778"/>
<polygon fill="midnightblue" stroke="midnightblue" points="961.944,-483.775 954.508,-491.321 965.027,-490.059 961.944,-483.775"/>
</g>
<!-- Node21 -->
<g id="node7" class="node"><title>Node21</title>
<g id="a_node7"><a xlink:href="HamiltonianTwo_8h.html" target="_top" xlink:title="/travis/libpairinteraction\l/HamiltonianTwo.h">
<polygon fill="none" stroke="black" points="927.5,-134.5 927.5,-164.5 1055.5,-164.5 1055.5,-134.5 927.5,-134.5"/>
<text text-anchor="start" x="935.5" y="-152.5" font-family="Helvetica,sans-Serif" font-size="10.00">/travis/libpairinteraction</text>
<text text-anchor="middle" x="991.5" y="-141.5" font-family="Helvetica,sans-Serif" font-size="10.00">/HamiltonianTwo.h</text>
</a>
</g>
</g>
<!-- Node15&#45;&gt;Node21 -->
<g id="edge35" class="edge"><title>Node15&#45;&gt;Node21</title>
<path fill="none" stroke="midnightblue" d="M936.697,-483.684C959.184,-458.149 991.5,-413.532 991.5,-368 991.5,-368 991.5,-368 991.5,-288 991.5,-242.883 991.5,-189.438 991.5,-164.554"/>
<polygon fill="midnightblue" stroke="midnightblue" points="933.929,-481.526 929.795,-491.281 939.11,-486.233 933.929,-481.526"/>
</g>
<!-- Node24 -->
<g id="node10" class="node"><title>Node24</title>
<g id="a_node10"><a xlink:href="MatrixElements_8cpp.html" target="_top" xlink:title="/travis/libpairinteraction\l/MatrixElements.cpp">
<polygon fill="none" stroke="black" points="627.5,-201.5 627.5,-231.5 755.5,-231.5 755.5,-201.5 627.5,-201.5"/>
<text text-anchor="start" x="635.5" y="-219.5" font-family="Helvetica,sans-Serif" font-size="10.00">/travis/libpairinteraction</text>
<text text-anchor="middle" x="691.5" y="-208.5" font-family="Helvetica,sans-Serif" font-size="10.00">/MatrixElements.cpp</text>
</a>
</g>
</g>
<!-- Node15&#45;&gt;Node24 -->
<g id="edge37" class="edge"><title>Node15&#45;&gt;Node24</title>
<path fill="none" stroke="midnightblue" d="M928.536,-482.38C932.565,-474.021 936.474,-464.338 938.5,-455 948.912,-407.016 949.945,-385.292 920.5,-346 875.117,-285.441 792.302,-249.389 739.682,-231.525"/>
<polygon fill="midnightblue" stroke="midnightblue" points="925.316,-480.99 923.858,-491.484 931.542,-484.189 925.316,-480.99"/>
</g>
<!-- Node26 -->
<g id="node12" class="node"><title>Node26</title>
<g id="a_node12"><a xlink:href="MatrixElementCache_8cpp.html" target="_top" xlink:title="/travis/libpairinteraction\l/MatrixElementCache.cpp">
<polygon fill="none" stroke="black" points="0,-201.5 0,-231.5 139,-231.5 139,-201.5 0,-201.5"/>
<text text-anchor="start" x="8" y="-219.5" font-family="Helvetica,sans-Serif" font-size="10.00">/travis/libpairinteraction</text>
<text text-anchor="middle" x="69.5" y="-208.5" font-family="Helvetica,sans-Serif" font-size="10.00">/MatrixElementCache.cpp</text>
</a>
</g>
</g>
<!-- Node15&#45;&gt;Node26 -->
<g id="edge36" class="edge"><title>Node15&#45;&gt;Node26</title>
<path fill="none" stroke="midnightblue" d="M841.229,-503.545C664.512,-497.521 225.224,-474.056 110.5,-388 61.0608,-350.915 64.2483,-265.434 67.6872,-231.629"/>
<polygon fill="midnightblue" stroke="midnightblue" points="841.362,-507.051 851.473,-503.884 841.594,-500.055 841.362,-507.051"/>
</g>
<!-- Node35 -->
<g id="node21" class="node"><title>Node35</title>
<g id="a_node21"><a xlink:href="wavefunction__test_8cpp.html" target="_top" xlink:title="/travis/libpairinteraction\l/unit_test/wavefunction\l_test.cpp">
<polygon fill="none" stroke="black" points="535.5,-268.5 535.5,-309.5 663.5,-309.5 663.5,-268.5 535.5,-268.5"/>
<text text-anchor="start" x="543.5" y="-297.5" font-family="Helvetica,sans-Serif" font-size="10.00">/travis/libpairinteraction</text>
<text text-anchor="start" x="543.5" y="-286.5" font-family="Helvetica,sans-Serif" font-size="10.00">/unit_test/wavefunction</text>
<text text-anchor="middle" x="599.5" y="-275.5" font-family="Helvetica,sans-Serif" font-size="10.00">_test.cpp</text>
</a>
</g>
</g>
<!-- Node15&#45;&gt;Node35 -->
<g id="edge41" class="edge"><title>Node15&#45;&gt;Node35</title>
<path fill="none" stroke="midnightblue" d="M920.393,-481.102C925.831,-446.283 929.816,-382.521 895.5,-346 864.611,-313.126 740.953,-299.128 663.571,-293.495"/>
<polygon fill="midnightblue" stroke="midnightblue" points="916.882,-480.868 918.623,-491.319 923.779,-482.063 916.882,-480.868"/>
</g>
<!-- Node37 -->
<g id="node23" class="node"><title>Node37</title>
<g id="a_node23"><a xlink:href="QuantumDefect_8cpp.html" target="_top" xlink:title="/travis/libpairinteraction\l/QuantumDefect.cpp">
<polygon fill="none" stroke="black" points="597.5,-352 597.5,-382 725.5,-382 725.5,-352 597.5,-352"/>
<text text-anchor="start" x="605.5" y="-370" font-family="Helvetica,sans-Serif" font-size="10.00">/travis/libpairinteraction</text>
<text text-anchor="middle" x="661.5" y="-359" font-family="Helvetica,sans-Serif" font-size="10.00">/QuantumDefect.cpp</text>
</a>
</g>
</g>
<!-- Node15&#45;&gt;Node37 -->
<g id="edge38" class="edge"><title>Node15&#45;&gt;Node37</title>
<path fill="none" stroke="midnightblue" d="M880.469,-486.536C828.849,-458.593 733.516,-406.985 687.583,-382.12"/>
<polygon fill="midnightblue" stroke="midnightblue" points="878.814,-489.62 889.274,-491.303 882.146,-483.464 878.814,-489.62"/>
</g>
<!-- Node39 -->
<g id="node25" class="node"><title>Node39</title>
<g id="a_node25"><a xlink:href="quantum__defect__test_8cpp.html" target="_top" xlink:title="/travis/libpairinteraction\l/unit_test/quantum_defect\l_test.cpp">
<polygon fill="none" stroke="black" points="744,-346.5 744,-387.5 887,-387.5 887,-346.5 744,-346.5"/>
<text text-anchor="start" x="752" y="-375.5" font-family="Helvetica,sans-Serif" font-size="10.00">/travis/libpairinteraction</text>
<text text-anchor="start" x="752" y="-364.5" font-family="Helvetica,sans-Serif" font-size="10.00">/unit_test/quantum_defect</text>
<text text-anchor="middle" x="815.5" y="-353.5" font-family="Helvetica,sans-Serif" font-size="10.00">_test.cpp</text>
</a>
</g>
</g>
<!-- Node15&#45;&gt;Node39 -->
<g id="edge39" class="edge"><title>Node15&#45;&gt;Node39</title>
<path fill="none" stroke="midnightblue" d="M899.149,-483.017C879.859,-456.493 848.102,-412.828 829.768,-387.618"/>
<polygon fill="midnightblue" stroke="midnightblue" points="896.463,-485.274 905.175,-491.303 902.124,-481.157 896.463,-485.274"/>
</g>
<!-- Node40 -->
<g id="node26" class="node"><title>Node40</title>
<g id="a_node26"><a xlink:href="sqlite__test_8cpp.html" target="_top" xlink:title="/travis/libpairinteraction\l/unit_test/sqlite_test.cpp">
<polygon fill="none" stroke="black" points="1057.5,-424.5 1057.5,-454.5 1191.5,-454.5 1191.5,-424.5 1057.5,-424.5"/>
<text text-anchor="start" x="1065.5" y="-442.5" font-family="Helvetica,sans-Serif" font-size="10.00">/travis/libpairinteraction</text>
<text text-anchor="middle" x="1124.5" y="-431.5" font-family="Helvetica,sans-Serif" font-size="10.00">/unit_test/sqlite_test.cpp</text>
</a>
</g>
</g>
<!-- Node15&#45;&gt;Node40 -->
<g id="edge40" class="edge"><title>Node15&#45;&gt;Node40</title>
<path fill="none" stroke="midnightblue" d="M970.341,-488.444C1004.22,-477.908 1047.17,-464.549 1079.13,-454.611"/>
<polygon fill="midnightblue" stroke="midnightblue" points="969.102,-485.164 960.593,-491.476 971.181,-491.848 969.102,-485.164"/>
</g>
<!-- Node17 -->
<g id="node3" class="node"><title>Node17</title>
<g id="a_node3"><a xlink:href="Wavefunction_8h.html" target="_top" xlink:title="/travis/libpairinteraction\l/Wavefunction.h">
<polygon fill="none" stroke="black" points="229.5,-352 229.5,-382 357.5,-382 357.5,-352 229.5,-352"/>
<text text-anchor="start" x="237.5" y="-370" font-family="Helvetica,sans-Serif" font-size="10.00">/travis/libpairinteraction</text>
<text text-anchor="middle" x="293.5" y="-359" font-family="Helvetica,sans-Serif" font-size="10.00">/Wavefunction.h</text>
</a>
</g>
</g>
<!-- Node16&#45;&gt;Node17 -->
<g id="edge2" class="edge"><title>Node16&#45;&gt;Node17</title>
<path fill="none" stroke="midnightblue" d="M474.409,-421.589C433.677,-409.523 379.533,-393.484 341.123,-382.107"/>
<polygon fill="midnightblue" stroke="midnightblue" points="473.612,-425.003 484.194,-424.487 475.6,-418.291 473.612,-425.003"/>
</g>
<!-- Node16&#45;&gt;Node24 -->
<g id="edge28" class="edge"><title>Node16&#45;&gt;Node24</title>
<path fill="none" stroke="midnightblue" d="M543.499,-415.636C556.422,-391.689 576.71,-356.169 588.5,-346 619.257,-319.471 646.826,-341.474 672.5,-310 690.946,-287.387 692.926,-251.5 692.42,-231.731"/>
<polygon fill="midnightblue" stroke="midnightblue" points="540.403,-414.004 538.78,-424.473 546.578,-417.301 540.403,-414.004"/>
</g>
<!-- Node16&#45;&gt;Node26 -->
<g id="edge27" class="edge"><title>Node16&#45;&gt;Node26</title>
<path fill="none" stroke="midnightblue" d="M456.953,-432.64C368.951,-424.88 228.492,-409.608 180.5,-388 131.619,-365.992 115.834,-356.114 88.5,-310 73.7872,-285.179 70.324,-250.766 69.5963,-231.682"/>
<polygon fill="midnightblue" stroke="midnightblue" points="456.884,-436.147 467.15,-433.526 457.491,-429.173 456.884,-436.147"/>
</g>
<!-- Node16&#45;&gt;Node35 -->
<g id="edge32" class="edge"><title>Node16&#45;&gt;Node35</title>
<path fill="none" stroke="midnightblue" d="M534.962,-414.347C538.37,-395.1 544.677,-367.85 555.5,-346 562.031,-332.815 571.998,-319.788 580.795,-309.62"/>
<polygon fill="midnightblue" stroke="midnightblue" points="531.479,-413.958 533.317,-424.393 538.387,-415.09 531.479,-413.958"/>
</g>
<!-- Node36 -->
<g id="node22" class="node"><title>Node36</title>
<g id="a_node22"><a xlink:href="Wavefunction_8cpp.html" target="_top" xlink:title="/travis/libpairinteraction\l/Wavefunction.cpp">
<polygon fill="none" stroke="black" points="97.5,-274 97.5,-304 225.5,-304 225.5,-274 97.5,-274"/>
<text text-anchor="start" x="105.5" y="-292" font-family="Helvetica,sans-Serif" font-size="10.00">/travis/libpairinteraction</text>
<text text-anchor="middle" x="161.5" y="-281" font-family="Helvetica,sans-Serif" font-size="10.00">/Wavefunction.cpp</text>
</a>
</g>
</g>
<!-- Node16&#45;&gt;Node36 -->
<g id="edge33" class="edge"><title>Node16&#45;&gt;Node36</title>
<path fill="none" stroke="midnightblue" d="M456.875,-433.576C377.425,-427.093 258.057,-413.415 220.5,-388 190.237,-367.521 172.998,-325.853 165.694,-304.036"/>
<polygon fill="midnightblue" stroke="midnightblue" points="457.078,-437.103 467.324,-434.406 457.632,-430.125 457.078,-437.103"/>
</g>
<!-- Node16&#45;&gt;Node37 -->
<g id="edge29" class="edge"><title>Node16&#45;&gt;Node37</title>
<path fill="none" stroke="midnightblue" d="M566.429,-419.558C588.192,-407.756 615.722,-392.826 635.55,-382.073"/>
<polygon fill="midnightblue" stroke="midnightblue" points="564.617,-416.559 557.495,-424.403 567.954,-422.712 564.617,-416.559"/>
</g>
<!-- Node38 -->
<g id="node24" class="node"><title>Node38</title>
<g id="a_node24"><a xlink:href="State_8cpp.html" target="_top" xlink:title="/travis/libpairinteraction\l/State.cpp">
<polygon fill="none" stroke="black" points="375.5,-352 375.5,-382 503.5,-382 503.5,-352 375.5,-352"/>
<text text-anchor="start" x="383.5" y="-370" font-family="Helvetica,sans-Serif" font-size="10.00">/travis/libpairinteraction</text>
<text text-anchor="middle" x="439.5" y="-359" font-family="Helvetica,sans-Serif" font-size="10.00">/State.cpp</text>
</a>
</g>
</g>
<!-- Node16&#45;&gt;Node38 -->
<g id="edge30" class="edge"><title>Node16&#45;&gt;Node38</title>
<path fill="none" stroke="midnightblue" d="M504.892,-418.11C489.779,-406.529 471.247,-392.328 457.776,-382.005"/>
<polygon fill="midnightblue" stroke="midnightblue" points="502.816,-420.929 512.882,-424.233 507.074,-415.373 502.816,-420.929"/>
</g>
<!-- Node16&#45;&gt;Node39 -->
<g id="edge31" class="edge"><title>Node16&#45;&gt;Node39</title>
<path fill="none" stroke="midnightblue" d="M597.916,-422.013C641.675,-411.15 698.948,-396.933 743.75,-385.811"/>
<polygon fill="midnightblue" stroke="midnightblue" points="596.811,-418.681 587.949,-424.487 598.498,-425.475 596.811,-418.681"/>
</g>
<!-- Node18 -->
<g id="node4" class="node"><title>Node18</title>
<g id="a_node4"><a xlink:href="MatrixElements_8h.html" target="_top" xlink:title="/travis/libpairinteraction\l/MatrixElements.h">
<polygon fill="none" stroke="black" points="389.5,-274 389.5,-304 517.5,-304 517.5,-274 389.5,-274"/>
<text text-anchor="start" x="397.5" y="-292" font-family="Helvetica,sans-Serif" font-size="10.00">/travis/libpairinteraction</text>
<text text-anchor="middle" x="453.5" y="-281" font-family="Helvetica,sans-Serif" font-size="10.00">/MatrixElements.h</text>
</a>
</g>
</g>
<!-- Node17&#45;&gt;Node18 -->
<g id="edge3" class="edge"><title>Node17&#45;&gt;Node18</title>
<path fill="none" stroke="midnightblue" d="M332.396,-347.524C360.602,-334.126 398.168,-316.283 423.939,-304.041"/>
<polygon fill="midnightblue" stroke="midnightblue" points="330.751,-344.431 323.22,-351.883 333.754,-350.754 330.751,-344.431"/>
</g>
<!-- Node25 -->
<g id="node11" class="node"><title>Node25</title>
<g id="a_node11"><a xlink:href="MatrixElementCache_8h.html" target="_top" xlink:title="/travis/libpairinteraction\l/MatrixElementCache.h">
<polygon fill="none" stroke="black" points="243.5,-274 243.5,-304 371.5,-304 371.5,-274 243.5,-274"/>
<text text-anchor="start" x="251.5" y="-292" font-family="Helvetica,sans-Serif" font-size="10.00">/travis/libpairinteraction</text>
<text text-anchor="middle" x="307.5" y="-281" font-family="Helvetica,sans-Serif" font-size="10.00">/MatrixElementCache.h</text>
</a>
</g>
</g>
<!-- Node17&#45;&gt;Node25 -->
<g id="edge12" class="edge"><title>Node17&#45;&gt;Node25</title>
<path fill="none" stroke="midnightblue" d="M297.997,-341.59C300.269,-329.257 302.946,-314.724 304.879,-304.231"/>
<polygon fill="midnightblue" stroke="midnightblue" points="294.503,-341.236 296.133,-351.705 301.387,-342.505 294.503,-341.236"/>
</g>
<!-- Node17&#45;&gt;Node35 -->
<g id="edge25" class="edge"><title>Node17&#45;&gt;Node35</title>
<path fill="none" stroke="midnightblue" d="M353.385,-349.355C357.817,-348.196 362.225,-347.066 366.5,-346 437.223,-328.365 455.777,-327.635 526.5,-310 529.433,-309.269 532.427,-308.508 535.45,-307.727"/>
<polygon fill="midnightblue" stroke="midnightblue" points="352.456,-345.98 343.685,-351.924 354.248,-352.747 352.456,-345.98"/>
</g>
<!-- Node17&#45;&gt;Node36 -->
<g id="edge26" class="edge"><title>Node17&#45;&gt;Node36</title>
<path fill="none" stroke="midnightblue" d="M260.19,-346.821C237.066,-333.508 206.779,-316.07 185.888,-304.041"/>
<polygon fill="midnightblue" stroke="midnightblue" points="258.569,-349.927 268.981,-351.883 262.061,-343.86 258.569,-349.927"/>
</g>
<!-- Node18&#45;&gt;Node19 -->
<g id="edge4" class="edge"><title>Node18&#45;&gt;Node19</title>
<path fill="none" stroke="midnightblue" d="M509.915,-271.486C515.489,-270.173 521.085,-268.979 526.5,-268 703.025,-236.076 914.859,-223.928 1019.1,-219.639"/>
<polygon fill="midnightblue" stroke="midnightblue" points="508.814,-268.152 499.95,-273.955 510.498,-274.947 508.814,-268.152"/>
</g>
<!-- Node18&#45;&gt;Node21 -->
<g id="edge10" class="edge"><title>Node18&#45;&gt;Node21</title>
<path fill="none" stroke="midnightblue" d="M482.74,-268.501C514.679,-248.201 568.038,-217.159 618.5,-201 723.366,-167.42 851.781,-156.167 927.314,-152.397"/>
<polygon fill="midnightblue" stroke="midnightblue" points="480.834,-265.565 474.319,-273.92 484.622,-271.451 480.834,-265.565"/>
</g>
<!-- Node18&#45;&gt;Node24 -->
<g id="edge11" class="edge"><title>Node18&#45;&gt;Node24</title>
<path fill="none" stroke="midnightblue" d="M510.591,-271.089C551.323,-259.023 605.467,-242.984 643.877,-231.607"/>
<polygon fill="midnightblue" stroke="midnightblue" points="509.4,-267.791 500.806,-273.987 511.388,-274.503 509.4,-267.791"/>
</g>
<!-- Node20 -->
<g id="node6" class="node"><title>Node20</title>
<g id="a_node6"><a xlink:href="HamiltonianOne_8cpp.html" target="_top" xlink:title="/travis/libpairinteraction\l/HamiltonianOne.cpp">
<polygon fill="none" stroke="black" points="1111.5,-134.5 1111.5,-164.5 1239.5,-164.5 1239.5,-134.5 1111.5,-134.5"/>
<text text-anchor="start" x="1119.5" y="-152.5" font-family="Helvetica,sans-Serif" font-size="10.00">/travis/libpairinteraction</text>
<text text-anchor="middle" x="1175.5" y="-141.5" font-family="Helvetica,sans-Serif" font-size="10.00">/HamiltonianOne.cpp</text>
</a>
</g>
</g>
<!-- Node19&#45;&gt;Node20 -->
<g id="edge5" class="edge"><title>Node19&#45;&gt;Node20</title>
<path fill="none" stroke="midnightblue" d="M1111.88,-195.451C1126.03,-185.452 1142.81,-173.6 1155.58,-164.577"/>
<polygon fill="midnightblue" stroke="midnightblue" points="1109.61,-192.767 1103.46,-201.396 1113.65,-198.484 1109.61,-192.767"/>
</g>
<!-- Node19&#45;&gt;Node21 -->
<g id="edge6" class="edge"><title>Node19&#45;&gt;Node21</title>
<path fill="none" stroke="midnightblue" d="M1055.12,-195.451C1040.97,-185.452 1024.19,-173.6 1011.42,-164.577"/>
<polygon fill="midnightblue" stroke="midnightblue" points="1053.35,-198.484 1063.54,-201.396 1057.39,-192.767 1053.35,-198.484"/>
</g>
<!-- Node23 -->
<g id="node9" class="node"><title>Node23</title>
<g id="a_node9"><a xlink:href="Interface_8cpp.html" target="_top" xlink:title="/travis/libpairinteraction\l/Interface.cpp">
<polygon fill="none" stroke="black" points="1019.5,-67.5 1019.5,-97.5 1147.5,-97.5 1147.5,-67.5 1019.5,-67.5"/>
<text text-anchor="start" x="1027.5" y="-85.5" font-family="Helvetica,sans-Serif" font-size="10.00">/travis/libpairinteraction</text>
<text text-anchor="middle" x="1083.5" y="-74.5" font-family="Helvetica,sans-Serif" font-size="10.00">/Interface.cpp</text>
</a>
</g>
</g>
<!-- Node19&#45;&gt;Node23 -->
<g id="edge9" class="edge"><title>Node19&#45;&gt;Node23</title>
<path fill="none" stroke="midnightblue" d="M1083.5,-191.024C1083.5,-163.512 1083.5,-119.789 1083.5,-97.5247"/>
<polygon fill="midnightblue" stroke="midnightblue" points="1080,-191.374 1083.5,-201.374 1087,-191.374 1080,-191.374"/>
</g>
<!-- Node22 -->
<g id="node8" class="node"><title>Node22</title>
<g id="a_node8"><a xlink:href="HamiltonianTwo_8cpp.html" target="_top" xlink:title="/travis/libpairinteraction\l/HamiltonianTwo.cpp">
<polygon fill="none" stroke="black" points="873.5,-67.5 873.5,-97.5 1001.5,-97.5 1001.5,-67.5 873.5,-67.5"/>
<text text-anchor="start" x="881.5" y="-85.5" font-family="Helvetica,sans-Serif" font-size="10.00">/travis/libpairinteraction</text>
<text text-anchor="middle" x="937.5" y="-74.5" font-family="Helvetica,sans-Serif" font-size="10.00">/HamiltonianTwo.cpp</text>
</a>
</g>
</g>
<!-- Node21&#45;&gt;Node22 -->
<g id="edge7" class="edge"><title>Node21&#45;&gt;Node22</title>
<path fill="none" stroke="midnightblue" d="M973.179,-126.447C965.247,-116.899 956.195,-106.004 949.194,-97.5765"/>
<polygon fill="midnightblue" stroke="midnightblue" points="970.7,-128.941 979.783,-134.396 976.085,-124.467 970.7,-128.941"/>
</g>
<!-- Node21&#45;&gt;Node23 -->
<g id="edge8" class="edge"><title>Node21&#45;&gt;Node23</title>
<path fill="none" stroke="midnightblue" d="M1019.88,-128.451C1034.03,-118.452 1050.81,-106.6 1063.58,-97.5765"/>
<polygon fill="midnightblue" stroke="midnightblue" points="1017.61,-125.767 1011.46,-134.396 1021.65,-131.484 1017.61,-125.767"/>
</g>
<!-- Node25&#45;&gt;Node26 -->
<g id="edge13" class="edge"><title>Node25&#45;&gt;Node26</title>
<path fill="none" stroke="midnightblue" d="M250.409,-271.089C209.677,-259.023 155.533,-242.984 117.123,-231.607"/>
<polygon fill="midnightblue" stroke="midnightblue" points="249.612,-274.503 260.194,-273.987 251.6,-267.791 249.612,-274.503"/>
</g>
<!-- Node27 -->
<g id="node13" class="node"><title>Node27</title>
<g id="a_node13"><a xlink:href="PerturbativeInteraction_8h.html" target="_top" xlink:title="/travis/libpairinteraction\l/PerturbativeInteraction.h">
<polygon fill="none" stroke="black" points="238.5,-201.5 238.5,-231.5 376.5,-231.5 376.5,-201.5 238.5,-201.5"/>
<text text-anchor="start" x="246.5" y="-219.5" font-family="Helvetica,sans-Serif" font-size="10.00">/travis/libpairinteraction</text>
<text text-anchor="middle" x="307.5" y="-208.5" font-family="Helvetica,sans-Serif" font-size="10.00">/PerturbativeInteraction.h</text>
</a>
</g>
</g>
<!-- Node25&#45;&gt;Node27 -->
<g id="edge14" class="edge"><title>Node25&#45;&gt;Node27</title>
<path fill="none" stroke="midnightblue" d="M307.5,-263.732C307.5,-253.068 307.5,-240.914 307.5,-231.746"/>
<polygon fill="midnightblue" stroke="midnightblue" points="304,-263.733 307.5,-273.733 311,-263.733 304,-263.733"/>
</g>
<!-- Node29 -->
<g id="node15" class="node"><title>Node29</title>
<g id="a_node15"><a xlink:href="SystemBase_8h.html" target="_top" xlink:title="/travis/libpairinteraction\l/SystemBase.h">
<polygon fill="none" stroke="black" points="400.5,-201.5 400.5,-231.5 528.5,-231.5 528.5,-201.5 400.5,-201.5"/>
<text text-anchor="start" x="408.5" y="-219.5" font-family="Helvetica,sans-Serif" font-size="10.00">/travis/libpairinteraction</text>
<text text-anchor="middle" x="464.5" y="-208.5" font-family="Helvetica,sans-Serif" font-size="10.00">/SystemBase.h</text>
</a>
</g>
</g>
<!-- Node25&#45;&gt;Node29 -->
<g id="edge16" class="edge"><title>Node25&#45;&gt;Node29</title>
<path fill="none" stroke="midnightblue" d="M348.283,-269.687C374.776,-257.79 408.787,-242.518 433.16,-231.573"/>
<polygon fill="midnightblue" stroke="midnightblue" points="346.583,-266.613 338.894,-273.903 349.45,-272.999 346.583,-266.613"/>
</g>
<!-- Node34 -->
<g id="node20" class="node"><title>Node34</title>
<g id="a_node20"><a xlink:href="integration__test_8cpp.html" target="_top" xlink:title="/travis/libpairinteraction\l/unit_test/integration_test.cpp">
<polygon fill="none" stroke="black" points="238,-0.5 238,-30.5 399,-30.5 399,-0.5 238,-0.5"/>
<text text-anchor="start" x="246" y="-18.5" font-family="Helvetica,sans-Serif" font-size="10.00">/travis/libpairinteraction</text>
<text text-anchor="middle" x="318.5" y="-7.5" font-family="Helvetica,sans-Serif" font-size="10.00">/unit_test/integration_test.cpp</text>
</a>
</g>
</g>
<!-- Node25&#45;&gt;Node34 -->
<g id="edge24" class="edge"><title>Node25&#45;&gt;Node34</title>
<path fill="none" stroke="midnightblue" d="M267.567,-268.658C253.139,-259.585 238.26,-247.346 229.5,-232 207.866,-194.103 208.949,-175.14 223.5,-134 238.982,-90.2255 278.47,-50.8129 301.366,-30.6566"/>
<polygon fill="midnightblue" stroke="midnightblue" points="266.044,-271.824 276.434,-273.898 269.606,-265.797 266.044,-271.824"/>
</g>
<!-- Node28 -->
<g id="node14" class="node"><title>Node28</title>
<g id="a_node14"><a xlink:href="PerturbativeInteraction_8cpp.html" target="_top" xlink:title="/travis/libpairinteraction\l/PerturbativeInteraction.cpp">
<polygon fill="none" stroke="black" points="233,-134.5 233,-164.5 382,-164.5 382,-134.5 233,-134.5"/>
<text text-anchor="start" x="241" y="-152.5" font-family="Helvetica,sans-Serif" font-size="10.00">/travis/libpairinteraction</text>
<text text-anchor="middle" x="307.5" y="-141.5" font-family="Helvetica,sans-Serif" font-size="10.00">/PerturbativeInteraction.cpp</text>
</a>
</g>
</g>
<!-- Node27&#45;&gt;Node28 -->
<g id="edge15" class="edge"><title>Node27&#45;&gt;Node28</title>
<path fill="none" stroke="midnightblue" d="M307.5,-191.108C307.5,-182.154 307.5,-172.323 307.5,-164.577"/>
<polygon fill="midnightblue" stroke="midnightblue" points="304,-191.396 307.5,-201.396 311,-191.396 304,-191.396"/>
</g>
<!-- Node30 -->
<g id="node16" class="node"><title>Node30</title>
<g id="a_node16"><a xlink:href="SystemOne_8h.html" target="_top" xlink:title="/travis/libpairinteraction\l/SystemOne.h">
<polygon fill="none" stroke="black" points="400.5,-134.5 400.5,-164.5 528.5,-164.5 528.5,-134.5 400.5,-134.5"/>
<text text-anchor="start" x="408.5" y="-152.5" font-family="Helvetica,sans-Serif" font-size="10.00">/travis/libpairinteraction</text>
<text text-anchor="middle" x="464.5" y="-141.5" font-family="Helvetica,sans-Serif" font-size="10.00">/SystemOne.h</text>
</a>
</g>
</g>
<!-- Node29&#45;&gt;Node30 -->
<g id="edge17" class="edge"><title>Node29&#45;&gt;Node30</title>
<path fill="none" stroke="midnightblue" d="M464.5,-191.108C464.5,-182.154 464.5,-172.323 464.5,-164.577"/>
<polygon fill="midnightblue" stroke="midnightblue" points="461,-191.396 464.5,-201.396 468,-191.396 461,-191.396"/>
</g>
<!-- Node32 -->
<g id="node18" class="node"><title>Node32</title>
<g id="a_node18"><a xlink:href="SystemTwo_8h.html" target="_top" xlink:title="/travis/libpairinteraction\l/SystemTwo.h">
<polygon fill="none" stroke="black" points="492.5,-67.5 492.5,-97.5 620.5,-97.5 620.5,-67.5 492.5,-67.5"/>
<text text-anchor="start" x="500.5" y="-85.5" font-family="Helvetica,sans-Serif" font-size="10.00">/travis/libpairinteraction</text>
<text text-anchor="middle" x="556.5" y="-74.5" font-family="Helvetica,sans-Serif" font-size="10.00">/SystemTwo.h</text>
</a>
</g>
</g>
<!-- Node29&#45;&gt;Node32 -->
<g id="edge23" class="edge"><title>Node29&#45;&gt;Node32</title>
<path fill="none" stroke="midnightblue" d="M503.154,-196.277C515.814,-188.222 528.838,-177.734 537.5,-165 551.473,-144.458 555.256,-114.995 556.228,-97.6943"/>
<polygon fill="midnightblue" stroke="midnightblue" points="501.282,-193.318 494.505,-201.462 504.881,-199.322 501.282,-193.318"/>
</g>
<!-- Node31 -->
<g id="node17" class="node"><title>Node31</title>
<g id="a_node17"><a xlink:href="SystemOne_8cpp.html" target="_top" xlink:title="/travis/libpairinteraction\l/SystemOne.cpp">
<polygon fill="none" stroke="black" points="346.5,-67.5 346.5,-97.5 474.5,-97.5 474.5,-67.5 346.5,-67.5"/>
<text text-anchor="start" x="354.5" y="-85.5" font-family="Helvetica,sans-Serif" font-size="10.00">/travis/libpairinteraction</text>
<text text-anchor="middle" x="410.5" y="-74.5" font-family="Helvetica,sans-Serif" font-size="10.00">/SystemOne.cpp</text>
</a>
</g>
</g>
<!-- Node30&#45;&gt;Node31 -->
<g id="edge18" class="edge"><title>Node30&#45;&gt;Node31</title>
<path fill="none" stroke="midnightblue" d="M446.179,-126.447C438.247,-116.899 429.195,-106.004 422.194,-97.5765"/>
<polygon fill="midnightblue" stroke="midnightblue" points="443.7,-128.941 452.783,-134.396 449.085,-124.467 443.7,-128.941"/>
</g>
<!-- Node30&#45;&gt;Node32 -->
<g id="edge19" class="edge"><title>Node30&#45;&gt;Node32</title>
<path fill="none" stroke="midnightblue" d="M492.877,-128.451C507.03,-118.452 523.805,-106.6 536.576,-97.5765"/>
<polygon fill="midnightblue" stroke="midnightblue" points="490.61,-125.767 484.463,-134.396 494.649,-131.484 490.61,-125.767"/>
</g>
<!-- Node30&#45;&gt;Node34 -->
<g id="edge22" class="edge"><title>Node30&#45;&gt;Node34</title>
<path fill="none" stroke="midnightblue" d="M390.712,-132.595C370.988,-125.078 351.334,-114.073 337.5,-98 321.103,-78.95 318.191,-48.4278 318.026,-30.6386"/>
<polygon fill="midnightblue" stroke="midnightblue" points="389.781,-135.978 400.375,-136.012 392.114,-129.379 389.781,-135.978"/>
</g>
<!-- Node33 -->
<g id="node19" class="node"><title>Node33</title>
<g id="a_node19"><a xlink:href="SystemTwo_8cpp.html" target="_top" xlink:title="/travis/libpairinteraction\l/SystemTwo.cpp">
<polygon fill="none" stroke="black" points="492.5,-0.5 492.5,-30.5 620.5,-30.5 620.5,-0.5 492.5,-0.5"/>
<text text-anchor="start" x="500.5" y="-18.5" font-family="Helvetica,sans-Serif" font-size="10.00">/travis/libpairinteraction</text>
<text text-anchor="middle" x="556.5" y="-7.5" font-family="Helvetica,sans-Serif" font-size="10.00">/SystemTwo.cpp</text>
</a>
</g>
</g>
<!-- Node32&#45;&gt;Node33 -->
<g id="edge20" class="edge"><title>Node32&#45;&gt;Node33</title>
<path fill="none" stroke="midnightblue" d="M556.5,-57.1081C556.5,-48.1539 556.5,-38.3227 556.5,-30.5765"/>
<polygon fill="midnightblue" stroke="midnightblue" points="553,-57.3959 556.5,-67.396 560,-57.396 553,-57.3959"/>
</g>
<!-- Node32&#45;&gt;Node34 -->
<g id="edge21" class="edge"><title>Node32&#45;&gt;Node34</title>
<path fill="none" stroke="midnightblue" d="M495.041,-64.7149C456.311,-54.1373 406.871,-40.6348 370.168,-30.6109"/>
<polygon fill="midnightblue" stroke="midnightblue" points="494.582,-68.2177 505.151,-67.476 496.426,-61.465 494.582,-68.2177"/>
</g>
</g>
</svg>
        <g id="navigator" transform="translate(0 0)" fill="#404254">
                <rect fill="#f2f5e9" fill-opacity="0.5" stroke="#606060" stroke-width=".5" x="0" y="0" width="60" height="60"/>
                <use id="zoomplus" xlink:href="#zoomPlus" x="17" y="9" onmousedown="handleZoom(evt,'in')"/>
                <use id="zoomminus" xlink:href="#zoomMin" x="42" y="9" onmousedown="handleZoom(evt,'out')"/>
                <use id="reset" xlink:href="#resetDef" x="30" y="36" onmousedown="handleReset()"/>
                <g id="arrowUp" xlink:href="#dirArrow" transform="translate(30 24)" onmousedown="handlePan(0,-1)">
                  <use xlink:href="#rim" fill="#404040">
                        <set attributeName="fill" to="#808080" begin="arrowUp.mouseover" end="arrowUp.mouseout"/>
                  </use>
                  <path fill="none" stroke="white" stroke-width="1.5" d="M0,-3.0v7 M-2.5,-0.5L0,-3.0L2.5,-0.5"/>
                </g>
                <g id="arrowRight" xlink:href="#dirArrow" transform="rotate(90) translate(36 -43)" onmousedown="handlePan(1,0)">
                  <use xlink:href="#rim" fill="#404040">
                        <set attributeName="fill" to="#808080" begin="arrowRight.mouseover" end="arrowRight.mouseout"/>
                  </use>
                  <path fill="none" stroke="white" stroke-width="1.5" d="M0,-3.0v7 M-2.5,-0.5L0,-3.0L2.5,-0.5"/>
                </g>
                <g id="arrowDown" xlink:href="#dirArrow" transform="rotate(180) translate(-30 -48)" onmousedown="handlePan(0,1)">
                  <use xlink:href="#rim" fill="#404040">
                        <set attributeName="fill" to="#808080" begin="arrowDown.mouseover" end="arrowDown.mouseout"/>
                  </use>
                  <path fill="none" stroke="white" stroke-width="1.5" d="M0,-3.0v7 M-2.5,-0.5L0,-3.0L2.5,-0.5"/>
                </g>
                <g id="arrowLeft" xlink:href="#dirArrow" transform="rotate(270) translate(-36 17)" onmousedown="handlePan(-1,0)">
                  <use xlink:href="#rim" fill="#404040">
                        <set attributeName="fill" to="#808080" begin="arrowLeft.mouseover" end="arrowLeft.mouseout"/>
                  </use>
                  <path fill="none" stroke="white" stroke-width="1.5" d="M0,-3.0v7 M-2.5,-0.5L0,-3.0L2.5,-0.5"/>
                </g>
        </g>
        <svg viewBox="0 0 15 15" width="100%" height="30px" preserveAspectRatio="xMaxYMin meet">
         <g id="arrow_out" transform="scale(0.3 0.3)">
          <a xlink:href="SQLite_8h__dep__incl_org.svg" target="_base">
           <rect id="button" ry="5" rx="5" y="6" x="6" height="38" width="38"
                fill="#f2f5e9" fill-opacity="0.5" stroke="#606060" stroke-width="1.0"/>
           <path id="arrow"
             d="M 11.500037,31.436501 C 11.940474,20.09759 22.043105,11.32322 32.158766,21.979434 L 37.068811,17.246167 C 37.068811,17.246167 37.088388,32 37.088388,32 L 22.160133,31.978069 C 22.160133,31.978069 26.997745,27.140456 26.997745,27.140456 C 18.528582,18.264221 13.291696,25.230495 11.500037,31.436501 z"
             style="fill:#404040;"/>
          </a>
         </g>
        </svg>
</svg>
