<?xml version="1.0" encoding="UTF-8" standalone="no"?>
<!DOCTYPE svg PUBLIC "-//W3C//DTD SVG 1.1//EN"
 "http://www.w3.org/Graphics/SVG/1.1/DTD/svg11.dtd">
<!-- Generated by graphviz version 2.38.0 (20140413.2041)
 -->
<!-- Title: /travis/libpairinteraction/SQLite.h Pages: 1 -->
<svg width="759pt" height="162pt"
 viewBox="0.00 0.00 758.50 162.00" xmlns="http://www.w3.org/2000/svg" xmlns:xlink="http://www.w3.org/1999/xlink">
<g id="graph0" class="graph" transform="scale(1 1) rotate(0) translate(4 158)">
<title>/travis/libpairinteraction/SQLite.h</title>
<!-- Node0 -->
<g id="node1" class="node"><title>Node0</title>
<polygon fill="#bfbfbf" stroke="black" points="256.5,-123.5 256.5,-153.5 384.5,-153.5 384.5,-123.5 256.5,-123.5"/>
<text text-anchor="start" x="264.5" y="-141.5" font-family="Helvetica,sans-Serif" font-size="10.00">/travis/libpairinteraction</text>
<text text-anchor="middle" x="320.5" y="-130.5" font-family="Helvetica,sans-Serif" font-size="10.00">/SQLite.h</text>
</g>
<!-- Node1 -->
<g id="node2" class="node"><title>Node1</title>
<polygon fill="none" stroke="#bfbfbf" points="0,-62 0,-81 59,-81 59,-62 0,-62"/>
<text text-anchor="middle" x="29.5" y="-69" font-family="Helvetica,sans-Serif" font-size="10.00">iostream</text>
</g>
<!-- Node0&#45;&gt;Node1 -->
<g id="edge1" class="edge"><title>Node0&#45;&gt;Node1</title>
<path fill="none" stroke="midnightblue" d="M256.366,-127.753C204.794,-119.187 130.763,-105.244 67.5,-87 64.9176,-86.2553 62.263,-85.4114 59.6149,-84.5145"/>
<polygon fill="midnightblue" stroke="midnightblue" points="60.7873,-81.2167 50.1929,-81.1152 58.4117,-87.8013 60.7873,-81.2167"/>
</g>
<!-- Node2 -->
<g id="node3" class="node"><title>Node2</title>
<polygon fill="none" stroke="#bfbfbf" points="77,-62 77,-81 134,-81 134,-62 77,-62"/>
<text text-anchor="middle" x="105.5" y="-69" font-family="Helvetica,sans-Serif" font-size="10.00">memory</text>
</g>
<!-- Node0&#45;&gt;Node2 -->
<g id="edge2" class="edge"><title>Node0&#45;&gt;Node2</title>
<path fill="none" stroke="midnightblue" d="M270.665,-123.434C236.242,-113.579 189.46,-99.9136 148.5,-87 145.753,-86.1339 142.913,-85.2194 140.064,-84.288"/>
<polygon fill="midnightblue" stroke="midnightblue" points="141.05,-80.9278 130.457,-81.1021 138.847,-87.572 141.05,-80.9278"/>
</g>
<!-- Node3 -->
<g id="node4" class="node"><title>Node3</title>
<polygon fill="none" stroke="#bfbfbf" points="94.5,-0.5 94.5,-19.5 148.5,-19.5 148.5,-0.5 94.5,-0.5"/>
<text text-anchor="middle" x="121.5" y="-7.5" font-family="Helvetica,sans-Serif" font-size="10.00">random</text>
</g>
<!-- Node0&#45;&gt;Node3 -->
<g id="edge3" class="edge"><title>Node0&#45;&gt;Node3</title>
<path fill="none" stroke="midnightblue" d="M278.02,-123.439C254.724,-114.737 225.908,-102.302 202.5,-87 176.385,-69.9286 150.925,-44.078 135.724,-27.3647"/>
<polygon fill="midnightblue" stroke="midnightblue" points="138.027,-24.6886 128.76,-19.5524 132.801,-29.3463 138.027,-24.6886"/>
</g>
<!-- Node4 -->
<g id="node5" class="node"><title>Node4</title>
<polygon fill="none" stroke="#bfbfbf" points="292.5,-62 292.5,-81 348.5,-81 348.5,-62 292.5,-62"/>
<text text-anchor="middle" x="320.5" y="-69" font-family="Helvetica,sans-Serif" font-size="10.00">sstream</text>
</g>
<!-- Node0&#45;&gt;Node4 -->
<g id="edge4" class="edge"><title>Node0&#45;&gt;Node4</title>
<path fill="none" stroke="midnightblue" d="M320.5,-123.396C320.5,-114.064 320.5,-101.714 320.5,-91.5173"/>
<polygon fill="midnightblue" stroke="midnightblue" points="324,-91.1945 320.5,-81.1945 317,-91.1946 324,-91.1945"/>
</g>
<!-- Node5 -->
<g id="node6" class="node"><title>Node5</title>
<polygon fill="none" stroke="#bfbfbf" points="366.5,-62 366.5,-81 410.5,-81 410.5,-62 366.5,-62"/>
<text text-anchor="middle" x="388.5" y="-69" font-family="Helvetica,sans-Serif" font-size="10.00">string</text>
</g>
<!-- Node0&#45;&gt;Node5 -->
<g id="edge5" class="edge"><title>Node0&#45;&gt;Node5</title>
<path fill="none" stroke="midnightblue" d="M335.255,-123.396C346.068,-113.06 360.752,-99.0237 371.961,-88.309"/>
<polygon fill="midnightblue" stroke="midnightblue" points="374.594,-90.6344 379.404,-81.1945 369.757,-85.5743 374.594,-90.6344"/>
</g>
<!-- Node6 -->
<g id="node7" class="node"><title>Node6</title>
<polygon fill="none" stroke="#bfbfbf" points="428.5,-62 428.5,-81 476.5,-81 476.5,-62 428.5,-62"/>
<text text-anchor="middle" x="452.5" y="-69" font-family="Helvetica,sans-Serif" font-size="10.00">thread</text>
</g>
<!-- Node0&#45;&gt;Node6 -->
<g id="edge6" class="edge"><title>Node0&#45;&gt;Node6</title>
<path fill="none" stroke="midnightblue" d="M349.142,-123.396C371.995,-112.142 403.759,-96.501 426.024,-85.5375"/>
<polygon fill="midnightblue" stroke="midnightblue" points="427.799,-88.5647 435.224,-81.007 424.707,-82.2848 427.799,-88.5647"/>
</g>
<!-- Node7 -->
<g id="node8" class="node"><title>Node7</title>
<polygon fill="none" stroke="#bfbfbf" points="166.5,-0.5 166.5,-19.5 234.5,-19.5 234.5,-0.5 166.5,-0.5"/>
<text text-anchor="middle" x="200.5" y="-7.5" font-family="Helvetica,sans-Serif" font-size="10.00">type_traits</text>
</g>
<!-- Node0&#45;&gt;Node7 -->
<g id="edge7" class="edge"><title>Node0&#45;&gt;Node7</title>
<path fill="none" stroke="midnightblue" d="M273.667,-123.403C254.683,-115.507 234.079,-103.784 220.5,-87 207.252,-70.6256 202.709,-46.3629 201.19,-29.6799"/>
<polygon fill="midnightblue" stroke="midnightblue" points="204.672,-29.2918 200.551,-19.5313 197.686,-29.7314 204.672,-29.2918"/>
</g>
<!-- Node8 -->
<g id="node9" class="node"><title>Node8</title>
<polygon fill="none" stroke="#bfbfbf" points="494.5,-56.5 494.5,-86.5 614.5,-86.5 614.5,-56.5 494.5,-56.5"/>
<text text-anchor="start" x="502.5" y="-74.5" font-family="Helvetica,sans-Serif" font-size="10.00">boost/iterator/iterator</text>
<text text-anchor="middle" x="554.5" y="-63.5" font-family="Helvetica,sans-Serif" font-size="10.00">_facade.hpp</text>
</g>
<!-- Node0&#45;&gt;Node8 -->
<g id="edge8" class="edge"><title>Node0&#45;&gt;Node8</title>
<path fill="none" stroke="midnightblue" d="M370.986,-123.476C407,-113.472 455.603,-99.9714 493.743,-89.3769"/>
<polygon fill="midnightblue" stroke="midnightblue" points="495.002,-92.6597 503.701,-86.6109 493.129,-85.9151 495.002,-92.6597"/>
</g>
<!-- Node9 -->
<g id="node10" class="node"><title>Node9</title>
<polygon fill="none" stroke="#bfbfbf" points="633,-62 633,-81 690,-81 690,-62 633,-62"/>
<text text-anchor="middle" x="661.5" y="-69" font-family="Helvetica,sans-Serif" font-size="10.00">sqlite3.h</text>
</g>
<!-- Node0&#45;&gt;Node9 -->
<g id="edge9" class="edge"><title>Node0&#45;&gt;Node9</title>
<path fill="none" stroke="midnightblue" d="M384.549,-130.589C446.428,-123.034 542.434,-108.986 623.5,-87 626.156,-86.2797 628.883,-85.4428 631.6,-84.5413"/>
<polygon fill="midnightblue" stroke="midnightblue" points="633.005,-87.7559 641.238,-81.0875 630.643,-81.1662 633.005,-87.7559"/>
</g>
<!-- Node10 -->
<g id="node11" class="node"><title>Node10</title>
<polygon fill="none" stroke="#bfbfbf" points="708.5,-62 708.5,-81 750.5,-81 750.5,-62 708.5,-62"/>
<text text-anchor="middle" x="729.5" y="-69" font-family="Helvetica,sans-Serif" font-size="10.00">utility</text>
</g>
<!-- Node0&#45;&gt;Node10 -->
<g id="edge10" class="edge"><title>Node0&#45;&gt;Node10</title>
<path fill="none" stroke="midnightblue" d="M384.834,-135.132C461.294,-130.91 592.045,-119.223 699.5,-87 701.176,-86.4974 702.875,-85.911 704.568,-85.2678"/>
<polygon fill="midnightblue" stroke="midnightblue" points="706.235,-88.3591 713.998,-81.1486 703.433,-81.9445 706.235,-88.3591"/>
</g>
<!-- Node11 -->
<g id="node12" class="node"><title>Node11</title>
<g id="a_node12"><a xlink:href="utils_8h.html" target="_top" xlink:title="utils.h">
<polygon fill="none" stroke="black" points="229,-62 229,-81 274,-81 274,-62 229,-62"/>
<text text-anchor="middle" x="251.5" y="-69" font-family="Helvetica,sans-Serif" font-size="10.00">utils.h</text>
</a>
</g>
</g>
<!-- Node0&#45;&gt;Node11 -->
<g id="edge11" class="edge"><title>Node0&#45;&gt;Node11</title>
<path fill="none" stroke="midnightblue" d="M305.528,-123.396C294.556,-113.06 279.656,-99.0237 268.282,-88.309"/>
<polygon fill="midnightblue" stroke="midnightblue" points="270.408,-85.5039 260.73,-81.1945 265.609,-90.5991 270.408,-85.5039"/>
</g>
<!-- Node11&#45;&gt;Node3 -->
<g id="edge14" class="edge"><title>Node11&#45;&gt;Node3</title>
<path fill="none" stroke="midnightblue" d="M232.874,-61.9751C211.057,-51.9897 174.696,-35.3476 149.483,-23.8075"/>
<polygon fill="midnightblue" stroke="midnightblue" points="150.641,-20.4884 140.091,-19.5091 147.728,-26.8534 150.641,-20.4884"/>
</g>
<!-- Node11&#45;&gt;Node7 -->
<g id="edge15" class="edge"><title>Node11&#45;&gt;Node7</title>
<path fill="none" stroke="midnightblue" d="M244.193,-61.9751C236.467,-52.9617 224.092,-38.5246 214.482,-27.3118"/>
<polygon fill="midnightblue" stroke="midnightblue" points="216.959,-24.8239 207.794,-19.5091 211.644,-29.3795 216.959,-24.8239"/>
</g>
<!-- Node12 -->
<g id="node13" class="node"><title>Node12</title>
<polygon fill="none" stroke="#bfbfbf" points="253,-0.5 253,-19.5 310,-19.5 310,-0.5 253,-0.5"/>
<text text-anchor="middle" x="281.5" y="-7.5" font-family="Helvetica,sans-Serif" font-size="10.00">complex</text>
</g>
<!-- Node11&#45;&gt;Node12 -->
<g id="edge12" class="edge"><title>Node11&#45;&gt;Node12</title>
<path fill="none" stroke="midnightblue" d="M255.798,-61.9751C260.165,-53.3152 267.055,-39.6486 272.603,-28.6453"/>
<polygon fill="midnightblue" stroke="midnightblue" points="275.833,-30.0141 277.21,-19.5091 269.582,-26.8625 275.833,-30.0141"/>
</g>
<!-- Node13 -->
<g id="node14" class="node"><title>Node13</title>
<polygon fill="none" stroke="#bfbfbf" points="328,-0.5 328,-19.5 391,-19.5 391,-0.5 328,-0.5"/>
<text text-anchor="middle" x="359.5" y="-7.5" font-family="Helvetica,sans-Serif" font-size="10.00">functional</text>
</g>
<!-- Node11&#45;&gt;Node13 -->
<g id="edge13" class="edge"><title>Node11&#45;&gt;Node13</title>
<path fill="none" stroke="midnightblue" d="M266.974,-61.9751C284.778,-52.1664 314.241,-35.9346 335.132,-24.425"/>
<polygon fill="midnightblue" stroke="midnightblue" points="336.985,-27.4001 344.055,-19.5091 333.607,-21.269 336.985,-27.4001"/>
</g>
<!-- Node14 -->
<g id="node15" class="node"><title>Node14</title>
<polygon fill="none" stroke="#bfbfbf" points="409,-0.5 409,-19.5 464,-19.5 464,-0.5 409,-0.5"/>
<text text-anchor="middle" x="436.5" y="-7.5" font-family="Helvetica,sans-Serif" font-size="10.00">unistd.h</text>
</g>
<!-- Node11&#45;&gt;Node14 -->
<g id="edge16" class="edge"><title>Node11&#45;&gt;Node14</title>
<path fill="none" stroke="midnightblue" d="M269.256,-61.9243C273.844,-59.8557 278.812,-57.742 283.5,-56 322.091,-41.6611 367.469,-28.7978 398.73,-20.5334"/>
<polygon fill="midnightblue" stroke="midnightblue" points="399.971,-23.8268 408.761,-17.9115 398.2,-17.0544 399.971,-23.8268"/>
</g>
</g>
</svg>
