<?xml version="1.0" encoding="UTF-8" standalone="no"?>
<!DOCTYPE svg PUBLIC "-//W3C//DTD SVG 1.1//EN"
 "http://www.w3.org/Graphics/SVG/1.1/DTD/svg11.dtd">
<!-- Generated by graphviz version 2.38.0 (20140413.2041)
 -->
<!-- Title: /travis/libpairinteraction/State.cpp Pages: 1 -->
<svg width="1622pt" height="285pt"
 viewBox="0.00 0.00 1622.00 285.00" xmlns="http://www.w3.org/2000/svg" xmlns:xlink="http://www.w3.org/1999/xlink">
<g id="graph0" class="graph" transform="scale(1 1) rotate(0) translate(4 281)">
<title>/travis/libpairinteraction/State.cpp</title>
<!-- Node0 -->
<g id="node1" class="node"><title>Node0</title>
<polygon fill="#bfbfbf" stroke="black" points="586.5,-246.5 586.5,-276.5 714.5,-276.5 714.5,-246.5 586.5,-246.5"/>
<text text-anchor="start" x="594.5" y="-264.5" font-family="Helvetica,sans-Serif" font-size="10.00">/travis/libpairinteraction</text>
<text text-anchor="middle" x="650.5" y="-253.5" font-family="Helvetica,sans-Serif" font-size="10.00">/State.cpp</text>
</g>
<!-- Node1 -->
<g id="node2" class="node"><title>Node1</title>
<g id="a_node2"><a xlink:href="State_8h.html" target="_top" xlink:title="State.h">
<polygon fill="none" stroke="black" points="390.5,-190.5 390.5,-209.5 442.5,-209.5 442.5,-190.5 390.5,-190.5"/>
<text text-anchor="middle" x="416.5" y="-197.5" font-family="Helvetica,sans-Serif" font-size="10.00">State.h</text>
</a>
</g>
</g>
<!-- Node0&#45;&gt;Node1 -->
<g id="edge1" class="edge"><title>Node0&#45;&gt;Node1</title>
<path fill="none" stroke="midnightblue" d="M595.342,-246.475C551.373,-235.295 491.053,-219.957 452.927,-210.262"/>
<polygon fill="midnightblue" stroke="midnightblue" points="453.348,-206.758 442.794,-207.686 451.623,-213.542 453.348,-206.758"/>
</g>
<!-- Node2 -->
<g id="node3" class="node"><title>Node2</title>
<g id="a_node3"><a xlink:href="dtypes_8h.html" target="_top" xlink:title="dtypes.h">
<polygon fill="none" stroke="black" points="526.5,-129 526.5,-148 584.5,-148 584.5,-129 526.5,-129"/>
<text text-anchor="middle" x="555.5" y="-136" font-family="Helvetica,sans-Serif" font-size="10.00">dtypes.h</text>
</a>
</g>
</g>
<!-- Node0&#45;&gt;Node2 -->
<g id="edge44" class="edge"><title>Node0&#45;&gt;Node2</title>
<path fill="none" stroke="midnightblue" d="M639.229,-246.145C621.535,-223.608 587.328,-180.038 568.577,-156.156"/>
<polygon fill="midnightblue" stroke="midnightblue" points="571.143,-153.756 562.215,-148.052 565.637,-158.079 571.143,-153.756"/>
</g>
<!-- Node5 -->
<g id="node6" class="node"><title>Node5</title>
<polygon fill="none" stroke="#bfbfbf" points="0,-62 0,-81 41,-81 41,-62 0,-62"/>
<text text-anchor="middle" x="20.5" y="-69" font-family="Helvetica,sans-Serif" font-size="10.00">array</text>
</g>
<!-- Node0&#45;&gt;Node5 -->
<g id="edge45" class="edge"><title>Node0&#45;&gt;Node5</title>
<path fill="none" stroke="midnightblue" d="M586.216,-257.981C466.483,-252.675 213.987,-238.426 131.5,-210 87.6707,-194.896 71.1689,-191.196 43.5,-154 29.7517,-135.518 24.2168,-109.131 21.9914,-91.4376"/>
<polygon fill="midnightblue" stroke="midnightblue" points="25.4479,-90.8313 20.9539,-81.2368 18.4839,-91.5397 25.4479,-90.8313"/>
</g>
<!-- Node9 -->
<g id="node10" class="node"><title>Node9</title>
<polygon fill="none" stroke="#bfbfbf" points="189,-62 189,-81 248,-81 248,-62 189,-62"/>
<text text-anchor="middle" x="218.5" y="-69" font-family="Helvetica,sans-Serif" font-size="10.00">iostream</text>
</g>
<!-- Node0&#45;&gt;Node9 -->
<g id="edge48" class="edge"><title>Node0&#45;&gt;Node9</title>
<path fill="none" stroke="midnightblue" d="M586.479,-258.483C450.843,-252.723 141.695,-231.226 77.5,-154 45.2207,-115.168 126.603,-90.8518 178.769,-79.697"/>
<polygon fill="midnightblue" stroke="midnightblue" points="179.68,-83.083 188.77,-77.6411 178.27,-76.2264 179.68,-83.083"/>
</g>
<!-- Node10 -->
<g id="node11" class="node"><title>Node10</title>
<polygon fill="none" stroke="#bfbfbf" points="639.5,-62 639.5,-81 683.5,-81 683.5,-62 639.5,-62"/>
<text text-anchor="middle" x="661.5" y="-69" font-family="Helvetica,sans-Serif" font-size="10.00">string</text>
</g>
<!-- Node0&#45;&gt;Node10 -->
<g id="edge49" class="edge"><title>Node0&#45;&gt;Node10</title>
<path fill="none" stroke="midnightblue" d="M651.327,-246.369C653.283,-212.938 658.196,-128.974 660.4,-91.3035"/>
<polygon fill="midnightblue" stroke="midnightblue" points="663.9,-91.3935 660.991,-81.2062 656.912,-90.9846 663.9,-91.3935"/>
</g>
<!-- Node14 -->
<g id="node15" class="node"><title>Node14</title>
<g id="a_node15"><a xlink:href="QuantumDefect_8h.html" target="_top" xlink:title="QuantumDefect.h">
<polygon fill="none" stroke="black" points="844.5,-190.5 844.5,-209.5 946.5,-209.5 946.5,-190.5 844.5,-190.5"/>
<text text-anchor="middle" x="895.5" y="-197.5" font-family="Helvetica,sans-Serif" font-size="10.00">QuantumDefect.h</text>
</a>
</g>
</g>
<!-- Node0&#45;&gt;Node14 -->
<g id="edge16" class="edge"><title>Node0&#45;&gt;Node14</title>
<path fill="none" stroke="midnightblue" d="M708.251,-246.475C751.811,-235.896 810.699,-221.595 850.725,-211.874"/>
<polygon fill="midnightblue" stroke="midnightblue" points="851.582,-215.268 860.474,-209.506 849.93,-208.465 851.582,-215.268"/>
</g>
<!-- Node27 -->
<g id="node28" class="node"><title>Node27</title>
<polygon fill="none" stroke="#bfbfbf" points="1270.5,-62 1270.5,-81 1312.5,-81 1312.5,-62 1270.5,-62"/>
<text text-anchor="middle" x="1291.5" y="-69" font-family="Helvetica,sans-Serif" font-size="10.00">utility</text>
</g>
<!-- Node0&#45;&gt;Node27 -->
<g id="edge50" class="edge"><title>Node0&#45;&gt;Node27</title>
<path fill="none" stroke="midnightblue" d="M714.765,-253.987C777.107,-246.707 873.971,-232.84 955.5,-210 1075.16,-176.478 1209.8,-113.032 1265.37,-85.6389"/>
<polygon fill="midnightblue" stroke="midnightblue" points="1267.11,-88.6876 1274.51,-81.1089 1264,-82.4165 1267.11,-88.6876"/>
</g>
<!-- Node33 -->
<g id="node34" class="node"><title>Node33</title>
<polygon fill="none" stroke="#bfbfbf" points="1047.5,-190.5 1047.5,-209.5 1095.5,-209.5 1095.5,-190.5 1047.5,-190.5"/>
<text text-anchor="middle" x="1071.5" y="-197.5" font-family="Helvetica,sans-Serif" font-size="10.00">cctype</text>
</g>
<!-- Node0&#45;&gt;Node33 -->
<g id="edge46" class="edge"><title>Node0&#45;&gt;Node33</title>
<path fill="none" stroke="midnightblue" d="M714.512,-254.068C790.816,-245.939 922.023,-230.496 1033.5,-210 1034.78,-209.766 1036.07,-209.516 1037.38,-209.255"/>
<polygon fill="midnightblue" stroke="midnightblue" points="1038.42,-212.612 1047.46,-207.084 1036.94,-205.769 1038.42,-212.612"/>
</g>
<!-- Node34 -->
<g id="node35" class="node"><title>Node34</title>
<polygon fill="none" stroke="#bfbfbf" points="1114,-190.5 1114,-209.5 1169,-209.5 1169,-190.5 1114,-190.5"/>
<text text-anchor="middle" x="1141.5" y="-197.5" font-family="Helvetica,sans-Serif" font-size="10.00">iomanip</text>
</g>
<!-- Node0&#45;&gt;Node34 -->
<g id="edge47" class="edge"><title>Node0&#45;&gt;Node34</title>
<path fill="none" stroke="midnightblue" d="M714.776,-255.953C801.096,-249.269 959.346,-234.989 1103.77,-209.911"/>
<polygon fill="midnightblue" stroke="midnightblue" points="1104.46,-213.344 1113.7,-208.166 1103.25,-206.45 1104.46,-213.344"/>
</g>
<!-- Node1&#45;&gt;Node2 -->
<g id="edge2" class="edge"><title>Node1&#45;&gt;Node2</title>
<path fill="none" stroke="midnightblue" d="M436.415,-190.475C459.949,-180.401 499.31,-163.553 526.293,-152.002"/>
<polygon fill="midnightblue" stroke="midnightblue" points="527.806,-155.162 535.622,-148.009 525.051,-148.727 527.806,-155.162"/>
</g>
<!-- Node1&#45;&gt;Node5 -->
<g id="edge8" class="edge"><title>Node1&#45;&gt;Node5</title>
<path fill="none" stroke="midnightblue" d="M390.275,-198.212C320.162,-195.688 130.134,-185.998 77.5,-154 53.225,-139.243 36.6085,-109.79 27.8333,-90.6266"/>
<polygon fill="midnightblue" stroke="midnightblue" points="30.9408,-88.9937 23.7661,-81.1978 24.5132,-91.7663 30.9408,-88.9937"/>
</g>
<!-- Node6 -->
<g id="node7" class="node"><title>Node6</title>
<polygon fill="none" stroke="#bfbfbf" points="315,-62 315,-81 362,-81 362,-62 315,-62"/>
<text text-anchor="middle" x="338.5" y="-69" font-family="Helvetica,sans-Serif" font-size="10.00">cmath</text>
</g>
<!-- Node1&#45;&gt;Node6 -->
<g id="edge10" class="edge"><title>Node1&#45;&gt;Node6</title>
<path fill="none" stroke="midnightblue" d="M411.139,-190.305C398.392,-169.633 366.082,-117.232 349.178,-89.8176"/>
<polygon fill="midnightblue" stroke="midnightblue" points="352.126,-87.9307 343.899,-81.2557 346.168,-91.6047 352.126,-87.9307"/>
</g>
<!-- Node8 -->
<g id="node9" class="node"><title>Node8</title>
<polygon fill="none" stroke="#bfbfbf" points="678.5,-129 678.5,-148 818.5,-148 818.5,-129 678.5,-129"/>
<text text-anchor="middle" x="748.5" y="-136" font-family="Helvetica,sans-Serif" font-size="10.00">boost/functional/hash.hpp</text>
</g>
<!-- Node1&#45;&gt;Node8 -->
<g id="edge9" class="edge"><title>Node1&#45;&gt;Node8</title>
<path fill="none" stroke="midnightblue" d="M442.551,-194.331C495.767,-184.794 618.059,-162.877 690.891,-149.824"/>
<polygon fill="midnightblue" stroke="midnightblue" points="691.602,-153.253 700.828,-148.044 690.367,-146.363 691.602,-153.253"/>
</g>
<!-- Node1&#45;&gt;Node9 -->
<g id="edge11" class="edge"><title>Node1&#45;&gt;Node9</title>
<path fill="none" stroke="midnightblue" d="M390.497,-195.804C346.176,-189.832 258.726,-175.596 237.5,-154 221.223,-137.439 217.864,-109.79 217.638,-91.3525"/>
<polygon fill="midnightblue" stroke="midnightblue" points="221.139,-91.3044 217.815,-81.2447 214.14,-91.1821 221.139,-91.3044"/>
</g>
<!-- Node1&#45;&gt;Node10 -->
<g id="edge12" class="edge"><title>Node1&#45;&gt;Node10</title>
<path fill="none" stroke="midnightblue" d="M442.79,-197.364C479.205,-194.032 545.883,-184 593.5,-154 619.257,-137.772 640.089,-108.549 651.626,-89.8602"/>
<polygon fill="midnightblue" stroke="midnightblue" points="654.689,-91.557 656.789,-81.1723 648.671,-87.9811 654.689,-91.557"/>
</g>
<!-- Node11 -->
<g id="node12" class="node"><title>Node11</title>
<polygon fill="none" stroke="#bfbfbf" points="404.5,-123.5 404.5,-153.5 508.5,-153.5 508.5,-123.5 404.5,-123.5"/>
<text text-anchor="start" x="412.5" y="-141.5" font-family="Helvetica,sans-Serif" font-size="10.00">boost/serialization</text>
<text text-anchor="middle" x="456.5" y="-130.5" font-family="Helvetica,sans-Serif" font-size="10.00">/array.hpp</text>
</g>
<!-- Node1&#45;&gt;Node11 -->
<g id="edge13" class="edge"><title>Node1&#45;&gt;Node11</title>
<path fill="none" stroke="midnightblue" d="M422.231,-190.475C427.243,-183.019 434.751,-171.852 441.462,-161.869"/>
<polygon fill="midnightblue" stroke="midnightblue" points="444.398,-163.775 447.073,-153.523 438.589,-159.869 444.398,-163.775"/>
</g>
<!-- Node12 -->
<g id="node13" class="node"><title>Node12</title>
<polygon fill="none" stroke="#bfbfbf" points="86.5,-123.5 86.5,-153.5 190.5,-153.5 190.5,-123.5 86.5,-123.5"/>
<text text-anchor="start" x="94.5" y="-141.5" font-family="Helvetica,sans-Serif" font-size="10.00">boost/serialization</text>
<text text-anchor="middle" x="138.5" y="-130.5" font-family="Helvetica,sans-Serif" font-size="10.00">/string.hpp</text>
</g>
<!-- Node1&#45;&gt;Node12 -->
<g id="edge14" class="edge"><title>Node1&#45;&gt;Node12</title>
<path fill="none" stroke="midnightblue" d="M390.377,-193.517C350.349,-185.102 271.435,-168.457 204.5,-154 203.242,-153.728 201.971,-153.453 200.69,-153.176"/>
<polygon fill="midnightblue" stroke="midnightblue" points="201.247,-149.715 190.731,-151.011 199.76,-156.555 201.247,-149.715"/>
</g>
<!-- Node13 -->
<g id="node14" class="node"><title>Node13</title>
<polygon fill="none" stroke="#bfbfbf" points="247,-129 247,-148 348,-148 348,-129 247,-129"/>
<text text-anchor="middle" x="297.5" y="-136" font-family="Helvetica,sans-Serif" font-size="10.00">boost/variant.hpp</text>
</g>
<!-- Node1&#45;&gt;Node13 -->
<g id="edge15" class="edge"><title>Node1&#45;&gt;Node13</title>
<path fill="none" stroke="midnightblue" d="M399.45,-190.475C379.656,-180.578 346.783,-164.142 323.73,-152.615"/>
<polygon fill="midnightblue" stroke="midnightblue" points="325.028,-149.351 314.518,-148.009 321.897,-155.612 325.028,-149.351"/>
</g>
<!-- Node3 -->
<g id="node4" class="node"><title>Node3</title>
<polygon fill="none" stroke="#bfbfbf" points="544,-62 544,-81 621,-81 621,-62 544,-62"/>
<text text-anchor="middle" x="582.5" y="-69" font-family="Helvetica,sans-Serif" font-size="10.00">Eigen/Dense</text>
</g>
<!-- Node2&#45;&gt;Node3 -->
<g id="edge3" class="edge"><title>Node2&#45;&gt;Node3</title>
<path fill="none" stroke="midnightblue" d="M559.141,-128.734C563.19,-118.988 569.839,-102.981 575.01,-90.5318"/>
<polygon fill="midnightblue" stroke="midnightblue" points="578.312,-91.7049 578.916,-81.1273 571.848,-89.0196 578.312,-91.7049"/>
</g>
<!-- Node4 -->
<g id="node5" class="node"><title>Node4</title>
<polygon fill="none" stroke="#bfbfbf" points="380.5,-62 380.5,-81 460.5,-81 460.5,-62 380.5,-62"/>
<text text-anchor="middle" x="420.5" y="-69" font-family="Helvetica,sans-Serif" font-size="10.00">Eigen/Sparse</text>
</g>
<!-- Node2&#45;&gt;Node4 -->
<g id="edge4" class="edge"><title>Node2&#45;&gt;Node4</title>
<path fill="none" stroke="midnightblue" d="M537.573,-128.869C514.577,-117.796 474.471,-98.4862 447.703,-85.5978"/>
<polygon fill="midnightblue" stroke="midnightblue" points="449.03,-82.3519 438.501,-81.1672 445.993,-88.6589 449.03,-82.3519"/>
</g>
<!-- Node2&#45;&gt;Node5 -->
<g id="edge5" class="edge"><title>Node2&#45;&gt;Node5</title>
<path fill="none" stroke="midnightblue" d="M536.088,-128.966C530.216,-126.694 523.684,-124.467 517.5,-123 494.705,-117.593 156.238,-85.3289 51.2916,-75.4035"/>
<polygon fill="midnightblue" stroke="midnightblue" points="51.3363,-71.8922 41.0513,-74.4359 50.6777,-78.8612 51.3363,-71.8922"/>
</g>
<!-- Node2&#45;&gt;Node6 -->
<g id="edge6" class="edge"><title>Node2&#45;&gt;Node6</title>
<path fill="none" stroke="midnightblue" d="M534.358,-128.906C528.911,-126.837 523.026,-124.728 517.5,-123 453.715,-103.049 434.772,-108.522 371.5,-87 369.634,-86.3652 367.727,-85.6671 365.818,-84.9308"/>
<polygon fill="midnightblue" stroke="midnightblue" points="367.012,-81.6369 356.433,-81.0486 364.336,-88.1053 367.012,-81.6369"/>
</g>
<!-- Node7 -->
<g id="node8" class="node"><title>Node7</title>
<polygon fill="none" stroke="#bfbfbf" points="479,-62 479,-81 526,-81 526,-62 479,-62"/>
<text text-anchor="middle" x="502.5" y="-69" font-family="Helvetica,sans-Serif" font-size="10.00">vector</text>
</g>
<!-- Node2&#45;&gt;Node7 -->
<g id="edge7" class="edge"><title>Node2&#45;&gt;Node7</title>
<path fill="none" stroke="midnightblue" d="M548.352,-128.734C540.087,-118.598 526.301,-101.69 515.999,-89.0556"/>
<polygon fill="midnightblue" stroke="midnightblue" points="518.567,-86.6657 509.535,-81.1273 513.141,-91.0893 518.567,-86.6657"/>
</g>
<!-- Node14&#45;&gt;Node2 -->
<g id="edge38" class="edge"><title>Node14&#45;&gt;Node2</title>
<path fill="none" stroke="midnightblue" d="M846.786,-190.475C778.917,-178.598 657.234,-157.304 594.805,-146.378"/>
<polygon fill="midnightblue" stroke="midnightblue" points="595.041,-142.866 584.587,-144.59 593.834,-149.762 595.041,-142.866"/>
</g>
<!-- Node14&#45;&gt;Node8 -->
<g id="edge43" class="edge"><title>Node14&#45;&gt;Node8</title>
<path fill="none" stroke="midnightblue" d="M874.438,-190.475C849.441,-180.357 807.558,-163.405 779.013,-151.851"/>
<polygon fill="midnightblue" stroke="midnightblue" points="780.105,-148.517 769.522,-148.009 777.479,-155.005 780.105,-148.517"/>
</g>
<!-- Node14&#45;&gt;Node10 -->
<g id="edge40" class="edge"><title>Node14&#45;&gt;Node10</title>
<path fill="none" stroke="midnightblue" d="M890.306,-190.461C880.233,-174.645 856.467,-140.79 827.5,-123 774.585,-90.5032 750.852,-108.238 692.5,-87 690.888,-86.4132 689.245,-85.7744 687.599,-85.1026"/>
<polygon fill="midnightblue" stroke="midnightblue" points="688.889,-81.8467 678.326,-81.0294 686.074,-88.2557 688.889,-81.8467"/>
</g>
<!-- Node15 -->
<g id="node16" class="node"><title>Node15</title>
<g id="a_node16"><a xlink:href="Cache_8h.html" target="_top" xlink:title="Cache.h">
<polygon fill="none" stroke="black" points="1365.5,-129 1365.5,-148 1421.5,-148 1421.5,-129 1365.5,-129"/>
<text text-anchor="middle" x="1393.5" y="-136" font-family="Helvetica,sans-Serif" font-size="10.00">Cache.h</text>
</a>
</g>
</g>
<!-- Node14&#45;&gt;Node15 -->
<g id="edge17" class="edge"><title>Node14&#45;&gt;Node15</title>
<path fill="none" stroke="midnightblue" d="M946.919,-192.857C1047.1,-180.887 1266.36,-154.69 1355.09,-144.089"/>
<polygon fill="midnightblue" stroke="midnightblue" points="1355.73,-147.537 1365.25,-142.876 1354.9,-140.587 1355.73,-147.537"/>
</g>
<!-- Node16 -->
<g id="node17" class="node"><title>Node16</title>
<polygon fill="none" stroke="#bfbfbf" points="1331,-62 1331,-81 1378,-81 1378,-62 1331,-62"/>
<text text-anchor="middle" x="1354.5" y="-69" font-family="Helvetica,sans-Serif" font-size="10.00">mutex</text>
</g>
<!-- Node14&#45;&gt;Node16 -->
<g id="edge39" class="edge"><title>Node14&#45;&gt;Node16</title>
<path fill="none" stroke="midnightblue" d="M936.667,-190.437C1013.44,-173.971 1183.22,-135.222 1321.5,-87 1323.17,-86.4192 1324.86,-85.7904 1326.57,-85.1314"/>
<polygon fill="midnightblue" stroke="midnightblue" points="1328.3,-88.2034 1336.2,-81.1482 1325.62,-81.7345 1328.3,-88.2034"/>
</g>
<!-- Node17 -->
<g id="node18" class="node"><title>Node17</title>
<polygon fill="none" stroke="#bfbfbf" points="1521,-62 1521,-81 1614,-81 1614,-62 1521,-62"/>
<text text-anchor="middle" x="1567.5" y="-69" font-family="Helvetica,sans-Serif" font-size="10.00">unordered_map</text>
</g>
<!-- Node14&#45;&gt;Node17 -->
<g id="edge42" class="edge"><title>Node14&#45;&gt;Node17</title>
<path fill="none" stroke="midnightblue" d="M946.609,-195.325C1075.95,-185.941 1407.67,-161.319 1430.5,-154 1476.71,-139.185 1523.88,-106.435 1549.03,-87.2653"/>
<polygon fill="midnightblue" stroke="midnightblue" points="1551.21,-90.0001 1556.96,-81.1029 1546.92,-84.4709 1551.21,-90.0001"/>
</g>
<!-- Node19 -->
<g id="node20" class="node"><title>Node19</title>
<g id="a_node20"><a xlink:href="SQLite_8h.html" target="_top" xlink:title="SQLite.h">
<polygon fill="none" stroke="black" points="934,-129 934,-148 991,-148 991,-129 934,-129"/>
<text text-anchor="middle" x="962.5" y="-136" font-family="Helvetica,sans-Serif" font-size="10.00">SQLite.h</text>
</a>
</g>
</g>
<!-- Node14&#45;&gt;Node19 -->
<g id="edge21" class="edge"><title>Node14&#45;&gt;Node19</title>
<path fill="none" stroke="midnightblue" d="M905.099,-190.475C915.548,-181.197 932.468,-166.171 945.236,-154.831"/>
<polygon fill="midnightblue" stroke="midnightblue" points="947.765,-157.266 952.918,-148.009 943.117,-152.032 947.765,-157.266"/>
</g>
<!-- Node32 -->
<g id="node33" class="node"><title>Node32</title>
<polygon fill="none" stroke="#bfbfbf" points="875,-129 875,-148 916,-148 916,-129 875,-129"/>
<text text-anchor="middle" x="895.5" y="-136" font-family="Helvetica,sans-Serif" font-size="10.00">tuple</text>
</g>
<!-- Node14&#45;&gt;Node32 -->
<g id="edge41" class="edge"><title>Node14&#45;&gt;Node32</title>
<path fill="none" stroke="midnightblue" d="M895.5,-190.475C895.5,-182.08 895.5,-168.981 895.5,-158.163"/>
<polygon fill="midnightblue" stroke="midnightblue" points="899,-158.009 895.5,-148.009 892,-158.009 899,-158.009"/>
</g>
<!-- Node15&#45;&gt;Node16 -->
<g id="edge18" class="edge"><title>Node15&#45;&gt;Node16</title>
<path fill="none" stroke="midnightblue" d="M1388.24,-128.734C1382.28,-118.793 1372.4,-102.338 1364.87,-89.7892"/>
<polygon fill="midnightblue" stroke="midnightblue" points="1367.82,-87.9015 1359.68,-81.1273 1361.82,-91.503 1367.82,-87.9015"/>
</g>
<!-- Node15&#45;&gt;Node17 -->
<g id="edge19" class="edge"><title>Node15&#45;&gt;Node17</title>
<path fill="none" stroke="midnightblue" d="M1416.61,-128.869C1446.98,-117.522 1500.51,-97.5246 1534.97,-84.6522"/>
<polygon fill="midnightblue" stroke="midnightblue" points="1536.43,-87.8419 1544.58,-81.0637 1533.98,-81.2845 1536.43,-87.8419"/>
</g>
<!-- Node18 -->
<g id="node19" class="node"><title>Node18</title>
<polygon fill="none" stroke="#bfbfbf" points="1396.5,-62 1396.5,-81 1502.5,-81 1502.5,-62 1396.5,-62"/>
<text text-anchor="middle" x="1449.5" y="-69" font-family="Helvetica,sans-Serif" font-size="10.00">boost/optional.hpp</text>
</g>
<!-- Node15&#45;&gt;Node18 -->
<g id="edge20" class="edge"><title>Node15&#45;&gt;Node18</title>
<path fill="none" stroke="midnightblue" d="M1401.05,-128.734C1409.78,-118.598 1424.35,-101.69 1435.24,-89.0556"/>
<polygon fill="midnightblue" stroke="midnightblue" points="1438.19,-90.9879 1442.07,-81.1273 1432.89,-86.4189 1438.19,-90.9879"/>
</g>
<!-- Node19&#45;&gt;Node9 -->
<g id="edge22" class="edge"><title>Node19&#45;&gt;Node9</title>
<path fill="none" stroke="midnightblue" d="M943.516,-128.95C937.546,-126.618 930.852,-124.363 924.5,-123 655.054,-65.2006 579.361,-117.696 305.5,-87 289.921,-85.2538 272.889,-82.5854 258.058,-80.0116"/>
<polygon fill="midnightblue" stroke="midnightblue" points="258.644,-76.5611 248.186,-78.2573 257.42,-83.4531 258.644,-76.5611"/>
</g>
<!-- Node19&#45;&gt;Node10 -->
<g id="edge26" class="edge"><title>Node19&#45;&gt;Node10</title>
<path fill="none" stroke="midnightblue" d="M942.249,-128.869C936.584,-126.704 930.37,-124.557 924.5,-123 823.641,-96.252 792.316,-117.41 692.5,-87 690.624,-86.4286 688.717,-85.7635 686.818,-85.0385"/>
<polygon fill="midnightblue" stroke="midnightblue" points="688.137,-81.796 677.567,-81.0691 685.377,-88.2288 688.137,-81.796"/>
</g>
<!-- Node20 -->
<g id="node21" class="node"><title>Node20</title>
<polygon fill="none" stroke="#bfbfbf" points="777,-62 777,-81 834,-81 834,-62 777,-62"/>
<text text-anchor="middle" x="805.5" y="-69" font-family="Helvetica,sans-Serif" font-size="10.00">memory</text>
</g>
<!-- Node19&#45;&gt;Node20 -->
<g id="edge23" class="edge"><title>Node19&#45;&gt;Node20</title>
<path fill="none" stroke="midnightblue" d="M941.652,-128.869C914.556,-117.65 867.036,-97.9766 835.916,-85.0925"/>
<polygon fill="midnightblue" stroke="midnightblue" points="837.013,-81.7587 826.435,-81.1672 834.335,-88.2263 837.013,-81.7587"/>
</g>
<!-- Node21 -->
<g id="node22" class="node"><title>Node21</title>
<polygon fill="none" stroke="#bfbfbf" points="794.5,-0.5 794.5,-19.5 848.5,-19.5 848.5,-0.5 794.5,-0.5"/>
<text text-anchor="middle" x="821.5" y="-7.5" font-family="Helvetica,sans-Serif" font-size="10.00">random</text>
</g>
<!-- Node19&#45;&gt;Node21 -->
<g id="edge24" class="edge"><title>Node19&#45;&gt;Node21</title>
<path fill="none" stroke="midnightblue" d="M952.582,-128.997C940.981,-119.02 921.231,-101.94 904.5,-87 881.417,-66.3884 855.124,-42.1888 838.43,-26.7314"/>
<polygon fill="midnightblue" stroke="midnightblue" points="840.356,-23.7436 830.643,-19.5104 835.596,-28.8764 840.356,-23.7436"/>
</g>
<!-- Node22 -->
<g id="node23" class="node"><title>Node22</title>
<polygon fill="none" stroke="#bfbfbf" points="992.5,-62 992.5,-81 1048.5,-81 1048.5,-62 992.5,-62"/>
<text text-anchor="middle" x="1020.5" y="-69" font-family="Helvetica,sans-Serif" font-size="10.00">sstream</text>
</g>
<!-- Node19&#45;&gt;Node22 -->
<g id="edge25" class="edge"><title>Node19&#45;&gt;Node22</title>
<path fill="none" stroke="midnightblue" d="M970.322,-128.734C979.453,-118.5 994.744,-101.364 1006.05,-88.6924"/>
<polygon fill="midnightblue" stroke="midnightblue" points="1008.76,-90.919 1012.8,-81.1273 1003.53,-86.2585 1008.76,-90.919"/>
</g>
<!-- Node23 -->
<g id="node24" class="node"><title>Node23</title>
<polygon fill="none" stroke="#bfbfbf" points="1066.5,-62 1066.5,-81 1114.5,-81 1114.5,-62 1066.5,-62"/>
<text text-anchor="middle" x="1090.5" y="-69" font-family="Helvetica,sans-Serif" font-size="10.00">thread</text>
</g>
<!-- Node19&#45;&gt;Node23 -->
<g id="edge27" class="edge"><title>Node19&#45;&gt;Node23</title>
<path fill="none" stroke="midnightblue" d="M979.497,-128.869C1001.21,-117.845 1038.99,-98.6554 1064.37,-85.7678"/>
<polygon fill="midnightblue" stroke="midnightblue" points="1066.1,-88.8157 1073.43,-81.1672 1062.93,-82.5743 1066.1,-88.8157"/>
</g>
<!-- Node24 -->
<g id="node25" class="node"><title>Node24</title>
<polygon fill="none" stroke="#bfbfbf" points="866.5,-0.5 866.5,-19.5 934.5,-19.5 934.5,-0.5 866.5,-0.5"/>
<text text-anchor="middle" x="900.5" y="-7.5" font-family="Helvetica,sans-Serif" font-size="10.00">type_traits</text>
</g>
<!-- Node19&#45;&gt;Node24 -->
<g id="edge28" class="edge"><title>Node19&#45;&gt;Node24</title>
<path fill="none" stroke="midnightblue" d="M952.817,-128.783C942.987,-119.404 928.034,-103.588 919.5,-87 910.187,-68.899 905.269,-45.9852 902.791,-30.0736"/>
<polygon fill="midnightblue" stroke="midnightblue" points="906.221,-29.323 901.389,-19.894 899.286,-30.278 906.221,-29.323"/>
</g>
<!-- Node25 -->
<g id="node26" class="node"><title>Node25</title>
<polygon fill="none" stroke="#bfbfbf" points="1132.5,-56.5 1132.5,-86.5 1252.5,-86.5 1252.5,-56.5 1132.5,-56.5"/>
<text text-anchor="start" x="1140.5" y="-74.5" font-family="Helvetica,sans-Serif" font-size="10.00">boost/iterator/iterator</text>
<text text-anchor="middle" x="1192.5" y="-63.5" font-family="Helvetica,sans-Serif" font-size="10.00">_facade.hpp</text>
</g>
<!-- Node19&#45;&gt;Node25 -->
<g id="edge29" class="edge"><title>Node19&#45;&gt;Node25</title>
<path fill="none" stroke="midnightblue" d="M986.975,-128.957C993.008,-126.931 999.469,-124.829 1005.5,-123 1045.65,-110.821 1091.08,-98.5182 1127.11,-89.1048"/>
<polygon fill="midnightblue" stroke="midnightblue" points="1128.22,-92.4342 1137.01,-86.5289 1126.46,-85.6597 1128.22,-92.4342"/>
</g>
<!-- Node26 -->
<g id="node27" class="node"><title>Node26</title>
<polygon fill="none" stroke="#bfbfbf" points="702,-62 702,-81 759,-81 759,-62 702,-62"/>
<text text-anchor="middle" x="730.5" y="-69" font-family="Helvetica,sans-Serif" font-size="10.00">sqlite3.h</text>
</g>
<!-- Node19&#45;&gt;Node26 -->
<g id="edge30" class="edge"><title>Node19&#45;&gt;Node26</title>
<path fill="none" stroke="midnightblue" d="M941.775,-128.994C936.217,-126.878 930.175,-124.724 924.5,-123 856.003,-102.189 835.903,-108.118 767.5,-87 765.077,-86.252 762.588,-85.42 760.1,-84.5435"/>
<polygon fill="midnightblue" stroke="midnightblue" points="761.257,-81.2394 750.664,-81.0258 758.812,-87.7984 761.257,-81.2394"/>
</g>
<!-- Node19&#45;&gt;Node27 -->
<g id="edge31" class="edge"><title>Node19&#45;&gt;Node27</title>
<path fill="none" stroke="midnightblue" d="M985.48,-128.875C991.891,-126.709 998.907,-124.561 1005.5,-123 1117.31,-96.5296 1151.56,-120.402 1261.5,-87 1263.17,-86.4913 1264.87,-85.9003 1266.56,-85.2537"/>
<polygon fill="midnightblue" stroke="midnightblue" points="1268.23,-88.3431 1275.99,-81.1258 1265.43,-81.9309 1268.23,-88.3431"/>
</g>
<!-- Node28 -->
<g id="node29" class="node"><title>Node28</title>
<g id="a_node29"><a xlink:href="utils_8h.html" target="_top" xlink:title="utils.h">
<polygon fill="none" stroke="black" points="929,-62 929,-81 974,-81 974,-62 929,-62"/>
<text text-anchor="middle" x="951.5" y="-69" font-family="Helvetica,sans-Serif" font-size="10.00">utils.h</text>
</a>
</g>
</g>
<!-- Node19&#45;&gt;Node28 -->
<g id="edge32" class="edge"><title>Node19&#45;&gt;Node28</title>
<path fill="none" stroke="midnightblue" d="M961.016,-128.734C959.4,-119.183 956.766,-103.618 954.679,-91.2829"/>
<polygon fill="midnightblue" stroke="midnightblue" points="958.08,-90.4031 952.96,-81.1273 951.178,-91.5711 958.08,-90.4031"/>
</g>
<!-- Node28&#45;&gt;Node21 -->
<g id="edge35" class="edge"><title>Node28&#45;&gt;Node21</title>
<path fill="none" stroke="midnightblue" d="M932.874,-61.9751C911.057,-51.9897 874.696,-35.3476 849.483,-23.8075"/>
<polygon fill="midnightblue" stroke="midnightblue" points="850.641,-20.4884 840.091,-19.5091 847.728,-26.8534 850.641,-20.4884"/>
</g>
<!-- Node28&#45;&gt;Node24 -->
<g id="edge36" class="edge"><title>Node28&#45;&gt;Node24</title>
<path fill="none" stroke="midnightblue" d="M944.193,-61.9751C936.467,-52.9617 924.092,-38.5246 914.482,-27.3118"/>
<polygon fill="midnightblue" stroke="midnightblue" points="916.959,-24.8239 907.794,-19.5091 911.644,-29.3795 916.959,-24.8239"/>
</g>
<!-- Node29 -->
<g id="node30" class="node"><title>Node29</title>
<polygon fill="none" stroke="#bfbfbf" points="1026,-0.5 1026,-19.5 1083,-19.5 1083,-0.5 1026,-0.5"/>
<text text-anchor="middle" x="1054.5" y="-7.5" font-family="Helvetica,sans-Serif" font-size="10.00">complex</text>
</g>
<!-- Node28&#45;&gt;Node29 -->
<g id="edge33" class="edge"><title>Node28&#45;&gt;Node29</title>
<path fill="none" stroke="midnightblue" d="M966.257,-61.9751C983.161,-52.2106 1011.08,-36.0807 1030.99,-24.5808"/>
<polygon fill="midnightblue" stroke="midnightblue" points="1032.86,-27.5419 1039.77,-19.5091 1029.36,-21.4805 1032.86,-27.5419"/>
</g>
<!-- Node30 -->
<g id="node31" class="node"><title>Node30</title>
<polygon fill="none" stroke="#bfbfbf" points="1101,-0.5 1101,-19.5 1164,-19.5 1164,-0.5 1101,-0.5"/>
<text text-anchor="middle" x="1132.5" y="-7.5" font-family="Helvetica,sans-Serif" font-size="10.00">functional</text>
</g>
<!-- Node28&#45;&gt;Node30 -->
<g id="edge34" class="edge"><title>Node28&#45;&gt;Node30</title>
<path fill="none" stroke="midnightblue" d="M969.265,-61.9478C973.852,-59.8788 978.818,-57.759 983.5,-56 1019.29,-42.5523 1061.04,-30.2221 1091.23,-21.8827"/>
<polygon fill="midnightblue" stroke="midnightblue" points="1092.27,-25.2255 1100.99,-19.2117 1090.42,-18.4734 1092.27,-25.2255"/>
</g>
<!-- Node31 -->
<g id="node32" class="node"><title>Node31</title>
<polygon fill="none" stroke="#bfbfbf" points="953,-0.5 953,-19.5 1008,-19.5 1008,-0.5 953,-0.5"/>
<text text-anchor="middle" x="980.5" y="-7.5" font-family="Helvetica,sans-Serif" font-size="10.00">unistd.h</text>
</g>
<!-- Node28&#45;&gt;Node31 -->
<g id="edge37" class="edge"><title>Node28&#45;&gt;Node31</title>
<path fill="none" stroke="midnightblue" d="M955.655,-61.9751C959.876,-53.3152 966.537,-39.6486 971.9,-28.6453"/>
<polygon fill="midnightblue" stroke="midnightblue" points="975.118,-30.0317 976.353,-19.5091 968.825,-26.9648 975.118,-30.0317"/>
</g>
</g>
</svg>
