<?xml version="1.0" encoding="UTF-8" standalone="no"?>
<!DOCTYPE svg PUBLIC "-//W3C//DTD SVG 1.1//EN"
 "http://www.w3.org/Graphics/SVG/1.1/DTD/svg11.dtd">
<!-- Generated by graphviz version 2.38.0 (20140413.2041)
 -->
<!-- Title: /travis/libpairinteraction/State.h Pages: 1 -->
<svg width="997pt" height="162pt"
 viewBox="0.00 0.00 997.00 162.00" xmlns="http://www.w3.org/2000/svg" xmlns:xlink="http://www.w3.org/1999/xlink">
<g id="graph0" class="graph" transform="scale(1 1) rotate(0) translate(4 158)">
<title>/travis/libpairinteraction/State.h</title>
<!-- Node0 -->
<g id="node1" class="node"><title>Node0</title>
<polygon fill="#bfbfbf" stroke="black" points="469.5,-123.5 469.5,-153.5 597.5,-153.5 597.5,-123.5 469.5,-123.5"/>
<text text-anchor="start" x="477.5" y="-141.5" font-family="Helvetica,sans-Serif" font-size="10.00">/travis/libpairinteraction</text>
<text text-anchor="middle" x="533.5" y="-130.5" font-family="Helvetica,sans-Serif" font-size="10.00">/State.h</text>
</g>
<!-- Node1 -->
<g id="node2" class="node"><title>Node1</title>
<g id="a_node2"><a xlink:href="dtypes_8h.html" target="_top" xlink:title="dtypes.h">
<polygon fill="none" stroke="black" points="190.5,-62 190.5,-81 248.5,-81 248.5,-62 190.5,-62"/>
<text text-anchor="middle" x="219.5" y="-69" font-family="Helvetica,sans-Serif" font-size="10.00">dtypes.h</text>
</a>
</g>
</g>
<!-- Node0&#45;&gt;Node1 -->
<g id="edge1" class="edge"><title>Node0&#45;&gt;Node1</title>
<path fill="none" stroke="midnightblue" d="M469.41,-127.629C414.823,-118.697 334.5,-104.311 265.5,-87 261.876,-86.0907 258.117,-85.0579 254.381,-83.9721"/>
<polygon fill="midnightblue" stroke="midnightblue" points="255.239,-80.5748 244.653,-81.0232 253.208,-87.2737 255.239,-80.5748"/>
</g>
<!-- Node4 -->
<g id="node5" class="node"><title>Node4</title>
<polygon fill="none" stroke="#bfbfbf" points="259,-0.5 259,-19.5 300,-19.5 300,-0.5 259,-0.5"/>
<text text-anchor="middle" x="279.5" y="-7.5" font-family="Helvetica,sans-Serif" font-size="10.00">array</text>
</g>
<!-- Node0&#45;&gt;Node4 -->
<g id="edge7" class="edge"><title>Node0&#45;&gt;Node4</title>
<path fill="none" stroke="midnightblue" d="M469.14,-135.127C424.437,-130.553 365.576,-118.393 323.5,-87 304.071,-72.5037 291.803,-46.697 285.296,-29.2215"/>
<polygon fill="midnightblue" stroke="midnightblue" points="288.544,-27.9059 281.976,-19.5928 281.927,-30.1876 288.544,-27.9059"/>
</g>
<!-- Node5 -->
<g id="node6" class="node"><title>Node5</title>
<polygon fill="none" stroke="#bfbfbf" points="318,-0.5 318,-19.5 365,-19.5 365,-0.5 318,-0.5"/>
<text text-anchor="middle" x="341.5" y="-7.5" font-family="Helvetica,sans-Serif" font-size="10.00">cmath</text>
</g>
<!-- Node0&#45;&gt;Node5 -->
<g id="edge9" class="edge"><title>Node0&#45;&gt;Node5</title>
<path fill="none" stroke="midnightblue" d="M469.257,-129.572C418.228,-121.8 352.815,-108.025 336.5,-87 323.865,-70.7179 328.469,-46.0909 334.003,-29.3155"/>
<polygon fill="midnightblue" stroke="midnightblue" points="337.413,-30.1851 337.603,-19.592 330.849,-27.7548 337.413,-30.1851"/>
</g>
<!-- Node7 -->
<g id="node8" class="node"><title>Node7</title>
<polygon fill="none" stroke="#bfbfbf" points="345.5,-62 345.5,-81 485.5,-81 485.5,-62 345.5,-62"/>
<text text-anchor="middle" x="415.5" y="-69" font-family="Helvetica,sans-Serif" font-size="10.00">boost/functional/hash.hpp</text>
</g>
<!-- Node0&#45;&gt;Node7 -->
<g id="edge8" class="edge"><title>Node0&#45;&gt;Node7</title>
<path fill="none" stroke="midnightblue" d="M507.896,-123.396C487.649,-112.243 459.58,-96.7812 439.706,-85.8336"/>
<polygon fill="midnightblue" stroke="midnightblue" points="441.391,-82.7663 430.943,-81.007 438.014,-88.8976 441.391,-82.7663"/>
</g>
<!-- Node8 -->
<g id="node9" class="node"><title>Node8</title>
<polygon fill="none" stroke="#bfbfbf" points="504,-62 504,-81 563,-81 563,-62 504,-62"/>
<text text-anchor="middle" x="533.5" y="-69" font-family="Helvetica,sans-Serif" font-size="10.00">iostream</text>
</g>
<!-- Node0&#45;&gt;Node8 -->
<g id="edge10" class="edge"><title>Node0&#45;&gt;Node8</title>
<path fill="none" stroke="midnightblue" d="M533.5,-123.396C533.5,-114.064 533.5,-101.714 533.5,-91.5173"/>
<polygon fill="midnightblue" stroke="midnightblue" points="537,-91.1945 533.5,-81.1945 530,-91.1946 537,-91.1945"/>
</g>
<!-- Node9 -->
<g id="node10" class="node"><title>Node9</title>
<polygon fill="none" stroke="#bfbfbf" points="581.5,-62 581.5,-81 625.5,-81 625.5,-62 581.5,-62"/>
<text text-anchor="middle" x="603.5" y="-69" font-family="Helvetica,sans-Serif" font-size="10.00">string</text>
</g>
<!-- Node0&#45;&gt;Node9 -->
<g id="edge11" class="edge"><title>Node0&#45;&gt;Node9</title>
<path fill="none" stroke="midnightblue" d="M548.689,-123.396C559.82,-113.06 574.936,-99.0237 586.475,-88.309"/>
<polygon fill="midnightblue" stroke="midnightblue" points="589.19,-90.5639 594.137,-81.1945 584.427,-85.4343 589.19,-90.5639"/>
</g>
<!-- Node10 -->
<g id="node11" class="node"><title>Node10</title>
<polygon fill="none" stroke="#bfbfbf" points="643.5,-56.5 643.5,-86.5 747.5,-86.5 747.5,-56.5 643.5,-56.5"/>
<text text-anchor="start" x="651.5" y="-74.5" font-family="Helvetica,sans-Serif" font-size="10.00">boost/serialization</text>
<text text-anchor="middle" x="695.5" y="-63.5" font-family="Helvetica,sans-Serif" font-size="10.00">/array.hpp</text>
</g>
<!-- Node0&#45;&gt;Node10 -->
<g id="edge12" class="edge"><title>Node0&#45;&gt;Node10</title>
<path fill="none" stroke="midnightblue" d="M568.652,-123.396C592.746,-113.728 624.911,-100.823 650.822,-90.4262"/>
<polygon fill="midnightblue" stroke="midnightblue" points="652.44,-93.5486 660.417,-86.5765 649.833,-87.0521 652.44,-93.5486"/>
</g>
<!-- Node11 -->
<g id="node12" class="node"><title>Node11</title>
<polygon fill="none" stroke="#bfbfbf" points="765.5,-56.5 765.5,-86.5 869.5,-86.5 869.5,-56.5 765.5,-56.5"/>
<text text-anchor="start" x="773.5" y="-74.5" font-family="Helvetica,sans-Serif" font-size="10.00">boost/serialization</text>
<text text-anchor="middle" x="817.5" y="-63.5" font-family="Helvetica,sans-Serif" font-size="10.00">/string.hpp</text>
</g>
<!-- Node0&#45;&gt;Node11 -->
<g id="edge13" class="edge"><title>Node0&#45;&gt;Node11</title>
<path fill="none" stroke="midnightblue" d="M596.501,-123.421C638.83,-113.918 696.132,-100.971 755.358,-87.2529"/>
<polygon fill="midnightblue" stroke="midnightblue" points="756.315,-90.6241 765.265,-84.9552 754.733,-83.8051 756.315,-90.6241"/>
</g>
<!-- Node12 -->
<g id="node13" class="node"><title>Node12</title>
<polygon fill="none" stroke="#bfbfbf" points="888,-62 888,-81 989,-81 989,-62 888,-62"/>
<text text-anchor="middle" x="938.5" y="-69" font-family="Helvetica,sans-Serif" font-size="10.00">boost/variant.hpp</text>
</g>
<!-- Node0&#45;&gt;Node12 -->
<g id="edge14" class="edge"><title>Node0&#45;&gt;Node12</title>
<path fill="none" stroke="midnightblue" d="M597.7,-129.893C667.206,-121.24 781.182,-105.841 878.5,-87 884.024,-85.9306 889.805,-84.6901 895.506,-83.3935"/>
<polygon fill="midnightblue" stroke="midnightblue" points="896.673,-86.715 905.609,-81.0239 895.074,-79.8999 896.673,-86.715"/>
</g>
<!-- Node2 -->
<g id="node3" class="node"><title>Node2</title>
<polygon fill="none" stroke="#bfbfbf" points="0,-0.5 0,-19.5 77,-19.5 77,-0.5 0,-0.5"/>
<text text-anchor="middle" x="38.5" y="-7.5" font-family="Helvetica,sans-Serif" font-size="10.00">Eigen/Dense</text>
</g>
<!-- Node1&#45;&gt;Node2 -->
<g id="edge2" class="edge"><title>Node1&#45;&gt;Node2</title>
<path fill="none" stroke="midnightblue" d="M193.567,-61.9751C162.25,-51.6804 109.41,-34.3103 74.2444,-22.7502"/>
<polygon fill="midnightblue" stroke="midnightblue" points="74.9777,-19.3071 64.3848,-19.5091 72.7916,-25.957 74.9777,-19.3071"/>
</g>
<!-- Node3 -->
<g id="node4" class="node"><title>Node3</title>
<polygon fill="none" stroke="#bfbfbf" points="95.5,-0.5 95.5,-19.5 175.5,-19.5 175.5,-0.5 95.5,-0.5"/>
<text text-anchor="middle" x="135.5" y="-7.5" font-family="Helvetica,sans-Serif" font-size="10.00">Eigen/Sparse</text>
</g>
<!-- Node1&#45;&gt;Node3 -->
<g id="edge3" class="edge"><title>Node1&#45;&gt;Node3</title>
<path fill="none" stroke="midnightblue" d="M207.465,-61.9751C193.992,-52.4315 171.934,-36.8073 155.785,-25.3683"/>
<polygon fill="midnightblue" stroke="midnightblue" points="157.696,-22.4332 147.513,-19.5091 153.65,-28.1454 157.696,-22.4332"/>
</g>
<!-- Node1&#45;&gt;Node4 -->
<g id="edge4" class="edge"><title>Node1&#45;&gt;Node4</title>
<path fill="none" stroke="midnightblue" d="M228.097,-61.9751C237.364,-52.785 252.317,-37.9563 263.712,-26.656"/>
<polygon fill="midnightblue" stroke="midnightblue" points="266.283,-29.0358 270.919,-19.5091 261.354,-24.0653 266.283,-29.0358"/>
</g>
<!-- Node1&#45;&gt;Node5 -->
<g id="edge5" class="edge"><title>Node1&#45;&gt;Node5</title>
<path fill="none" stroke="midnightblue" d="M236.98,-61.9751C257.363,-52.0338 291.275,-35.4947 314.925,-23.961"/>
<polygon fill="midnightblue" stroke="midnightblue" points="316.599,-27.0385 324.053,-19.5091 313.531,-20.7468 316.599,-27.0385"/>
</g>
<!-- Node6 -->
<g id="node7" class="node"><title>Node6</title>
<polygon fill="none" stroke="#bfbfbf" points="194,-0.5 194,-19.5 241,-19.5 241,-0.5 194,-0.5"/>
<text text-anchor="middle" x="217.5" y="-7.5" font-family="Helvetica,sans-Serif" font-size="10.00">vector</text>
</g>
<!-- Node1&#45;&gt;Node6 -->
<g id="edge6" class="edge"><title>Node1&#45;&gt;Node6</title>
<path fill="none" stroke="midnightblue" d="M219.213,-61.9751C218.931,-53.5803 218.491,-40.4806 218.127,-29.6631"/>
<polygon fill="midnightblue" stroke="midnightblue" points="221.62,-29.3858 217.786,-19.5091 214.624,-29.6211 221.62,-29.3858"/>
</g>
</g>
</svg>
