<?xml version="1.0" encoding="UTF-8" standalone="no"?>
<!DOCTYPE svg PUBLIC "-//W3C//DTD SVG 1.1//EN"
 "http://www.w3.org/Graphics/SVG/1.1/DTD/svg11.dtd">
<!-- Generated by graphviz version 2.38.0 (20140413.2041)
 -->
<!-- Title: /travis/libpairinteraction/State.h Pages: 1 -->
<!--zoomable 441 -->
<svg id="main" version="1.1" xmlns="http://www.w3.org/2000/svg" xmlns:xlink="http://www.w3.org/1999/xlink" xml:space="preserve" onload="init(evt)">
<style type="text/css"><![CDATA[
.edge:hover path { stroke: red; }
.edge:hover polygon { stroke: red; fill: red; }
]]></style>
<script type="text/javascript"><![CDATA[
var edges = document.getElementsByTagName('g');
if (edges && edges.length) {
  for (var i=0;i<edges.length;i++) {
    if (edges[i].id.substr(0,4)=='edge') {
      edges[i].setAttribute('class','edge');
    }
  }
}
]]></script>
        <defs>
                <circle id="rim" cx="0" cy="0" r="7"/>
                <circle id="rim2" cx="0" cy="0" r="3.5"/>
                <g id="zoomPlus">
                        <use xlink:href="#rim" fill="#404040">
                                <set attributeName="fill" to="#808080" begin="zoomplus.mouseover" end="zoomplus.mouseout"/>
                        </use>
                        <path d="M-4,0h8M0,-4v8" fill="none" stroke="white" stroke-width="1.5" pointer-events="none"/>
                </g>
                <g id="zoomMin">
                        <use xlink:href="#rim" fill="#404040">
                                <set attributeName="fill" to="#808080" begin="zoomminus.mouseover" end="zoomminus.mouseout"/>
                        </use>
                        <path d="M-4,0h8" fill="none" stroke="white" stroke-width="1.5" pointer-events="none"/>
                </g>
                <g id="dirArrow">
                        <path fill="none" stroke="white" stroke-width="1.5" d="M0,-3.0v7 M-2.5,-0.5L0,-3.0L2.5,-0.5"/>
                </g>
               <g id="resetDef">
                       <use xlink:href="#rim2" fill="#404040">
                               <set attributeName="fill" to="#808080" begin="reset.mouseover" end="reset.mouseout"/>
                       </use>
               </g>
        </defs>

<script type="text/javascript">
var viewWidth = 1288;
var viewHeight = 441;
var sectionId = 'dynsection-1';
</script>
<script xlink:href="svgpan.js"/>
<svg id="graph" class="graph">
<g id="viewport">
<title>/travis/libpairinteraction/State.h</title>
<!-- Node13 -->
<g id="node1" class="node"><title>Node13</title>
<polygon fill="#bfbfbf" stroke="black" points="838,-402.5 838,-432.5 966,-432.5 966,-402.5 838,-402.5"/>
<text text-anchor="start" x="846" y="-420.5" font-family="Helvetica,sans-Serif" font-size="10.00">/travis/libpairinteraction</text>
<text text-anchor="middle" x="902" y="-409.5" font-family="Helvetica,sans-Serif" font-size="10.00">/State.h</text>
</g>
<!-- Node14 -->
<g id="node2" class="node"><title>Node14</title>
<g id="a_node2"><a xlink:href="Basisnames_8h.html" target="_top" xlink:title="/travis/libpairinteraction\l/Basisnames.h">
<polygon fill="none" stroke="black" points="422,-335.5 422,-365.5 550,-365.5 550,-335.5 422,-335.5"/>
<text text-anchor="start" x="430" y="-353.5" font-family="Helvetica,sans-Serif" font-size="10.00">/travis/libpairinteraction</text>
<text text-anchor="middle" x="486" y="-342.5" font-family="Helvetica,sans-Serif" font-size="10.00">/Basisnames.h</text>
</a>
</g>
</g>
<!-- Node13&#45;&gt;Node14 -->
<g id="edge1" class="edge"><title>Node13&#45;&gt;Node14</title>
<path fill="none" stroke="midnightblue" d="M828.031,-404.942C749.051,-392.602 625.161,-373.244 550.161,-361.525"/>
<polygon fill="midnightblue" stroke="midnightblue" points="827.491,-408.4 837.912,-406.486 828.572,-401.484 827.491,-408.4"/>
</g>
<!-- Node16 -->
<g id="node4" class="node"><title>Node16</title>
<g id="a_node4"><a xlink:href="Hamiltonianmatrix_8h.html" target="_top" xlink:title="/travis/libpairinteraction\l/Hamiltonianmatrix.h">
<polygon fill="none" stroke="black" points="146,-268.5 146,-298.5 274,-298.5 274,-268.5 146,-268.5"/>
<text text-anchor="start" x="154" y="-286.5" font-family="Helvetica,sans-Serif" font-size="10.00">/travis/libpairinteraction</text>
<text text-anchor="middle" x="210" y="-275.5" font-family="Helvetica,sans-Serif" font-size="10.00">/Hamiltonianmatrix.h</text>
</a>
</g>
</g>
<!-- Node13&#45;&gt;Node16 -->
<g id="edge32" class="edge"><title>Node13&#45;&gt;Node16</title>
<path fill="none" stroke="midnightblue" d="M827.453,-415.227C730.605,-412.12 556.893,-401.571 413,-366 347.929,-349.914 276.09,-317.269 237.746,-298.544"/>
<polygon fill="midnightblue" stroke="midnightblue" points="827.627,-418.734 837.728,-415.538 827.838,-411.737 827.627,-418.734"/>
</g>
<!-- Node28 -->
<g id="node16" class="node"><title>Node28</title>
<g id="a_node16"><a xlink:href="PerturbativeInteraction_8h.html" target="_top" xlink:title="/travis/libpairinteraction\l/PerturbativeInteraction.h">
<polygon fill="none" stroke="black" points="712,-201.5 712,-231.5 850,-231.5 850,-201.5 712,-201.5"/>
<text text-anchor="start" x="720" y="-219.5" font-family="Helvetica,sans-Serif" font-size="10.00">/travis/libpairinteraction</text>
<text text-anchor="middle" x="781" y="-208.5" font-family="Helvetica,sans-Serif" font-size="10.00">/PerturbativeInteraction.h</text>
</a>
</g>
</g>
<!-- Node13&#45;&gt;Node28 -->
<g id="edge33" class="edge"><title>Node13&#45;&gt;Node28</title>
<path fill="none" stroke="midnightblue" d="M886.987,-393.987C881.271,-385.297 874.752,-375.238 869,-366 838.588,-317.155 804.294,-258.046 789.048,-231.545"/>
<polygon fill="midnightblue" stroke="midnightblue" points="884.152,-396.046 892.587,-402.457 889.991,-392.185 884.152,-396.046"/>
</g>
<!-- Node30 -->
<g id="node18" class="node"><title>Node30</title>
<g id="a_node18"><a xlink:href="SystemBase_8h.html" target="_top" xlink:title="/travis/libpairinteraction\l/SystemBase.h">
<polygon fill="none" stroke="black" points="949,-201.5 949,-231.5 1077,-231.5 1077,-201.5 949,-201.5"/>
<text text-anchor="start" x="957" y="-219.5" font-family="Helvetica,sans-Serif" font-size="10.00">/travis/libpairinteraction</text>
<text text-anchor="middle" x="1013" y="-208.5" font-family="Helvetica,sans-Serif" font-size="10.00">/SystemBase.h</text>
</a>
</g>
</g>
<!-- Node13&#45;&gt;Node30 -->
<g id="edge35" class="edge"><title>Node13&#45;&gt;Node30</title>
<path fill="none" stroke="midnightblue" d="M917.513,-393.768C923.198,-385.18 929.566,-375.249 935,-366 963.325,-317.793 993.037,-258.365 1006.12,-231.664"/>
<polygon fill="midnightblue" stroke="midnightblue" points="914.559,-391.889 911.903,-402.146 920.375,-395.783 914.559,-391.889"/>
</g>
<!-- Node31 -->
<g id="node19" class="node"><title>Node31</title>
<g id="a_node19"><a xlink:href="SystemOne_8h.html" target="_top" xlink:title="/travis/libpairinteraction\l/SystemOne.h">
<polygon fill="none" stroke="black" points="930,-134.5 930,-164.5 1058,-164.5 1058,-134.5 930,-134.5"/>
<text text-anchor="start" x="938" y="-152.5" font-family="Helvetica,sans-Serif" font-size="10.00">/travis/libpairinteraction</text>
<text text-anchor="middle" x="994" y="-141.5" font-family="Helvetica,sans-Serif" font-size="10.00">/SystemOne.h</text>
</a>
</g>
</g>
<!-- Node13&#45;&gt;Node31 -->
<g id="edge36" class="edge"><title>Node13&#45;&gt;Node31</title>
<path fill="none" stroke="midnightblue" d="M901.415,-392.376C901.416,-350.748 905.932,-263.852 940,-201 947.891,-186.443 961.541,-173.733 973.142,-164.706"/>
<polygon fill="midnightblue" stroke="midnightblue" points="897.915,-392.433 901.505,-402.402 904.915,-392.371 897.915,-392.433"/>
</g>
<!-- Node33 -->
<g id="node21" class="node"><title>Node33</title>
<g id="a_node21"><a xlink:href="SystemTwo_8h.html" target="_top" xlink:title="/travis/libpairinteraction\l/SystemTwo.h">
<polygon fill="none" stroke="black" points="1085,-67.5 1085,-97.5 1213,-97.5 1213,-67.5 1085,-67.5"/>
<text text-anchor="start" x="1093" y="-85.5" font-family="Helvetica,sans-Serif" font-size="10.00">/travis/libpairinteraction</text>
<text text-anchor="middle" x="1149" y="-74.5" font-family="Helvetica,sans-Serif" font-size="10.00">/SystemTwo.h</text>
</a>
</g>
</g>
<!-- Node13&#45;&gt;Node33 -->
<g id="edge37" class="edge"><title>Node13&#45;&gt;Node33</title>
<path fill="none" stroke="midnightblue" d="M975.993,-404.114C1040.56,-388.572 1124,-354.874 1124,-284.5 1124,-284.5 1124,-284.5 1124,-215.5 1124,-171.884 1137.34,-121.555 1144.53,-97.5932"/>
<polygon fill="midnightblue" stroke="midnightblue" points="975.171,-400.711 966.212,-406.366 976.742,-407.533 975.171,-400.711"/>
</g>
<!-- Node35 -->
<g id="node23" class="node"><title>Node35</title>
<g id="a_node23"><a xlink:href="integration__test_8cpp.html" target="_top" xlink:title="/travis/libpairinteraction\l/unit_test/integration_test.cpp">
<polygon fill="none" stroke="black" points="811.5,-0.5 811.5,-30.5 972.5,-30.5 972.5,-0.5 811.5,-0.5"/>
<text text-anchor="start" x="819.5" y="-18.5" font-family="Helvetica,sans-Serif" font-size="10.00">/travis/libpairinteraction</text>
<text text-anchor="middle" x="892" y="-7.5" font-family="Helvetica,sans-Serif" font-size="10.00">/unit_test/integration_test.cpp</text>
</a>
</g>
</g>
<!-- Node13&#45;&gt;Node35 -->
<g id="edge38" class="edge"><title>Node13&#45;&gt;Node35</title>
<path fill="none" stroke="midnightblue" d="M896.439,-392.493C890.831,-366.153 883,-322.553 883,-284.5 883,-284.5 883,-284.5 883,-215.5 883,-146.332 888.493,-63.7791 890.896,-30.9719"/>
<polygon fill="midnightblue" stroke="midnightblue" points="893.037,-393.322 898.603,-402.337 899.874,-391.819 893.037,-393.322"/>
</g>
<!-- Node36 -->
<g id="node24" class="node"><title>Node36</title>
<g id="a_node24"><a xlink:href="State_8cpp.html" target="_top" xlink:title="/travis/libpairinteraction\l/State.cpp">
<polygon fill="none" stroke="black" points="1152,-335.5 1152,-365.5 1280,-365.5 1280,-335.5 1152,-335.5"/>
<text text-anchor="start" x="1160" y="-353.5" font-family="Helvetica,sans-Serif" font-size="10.00">/travis/libpairinteraction</text>
<text text-anchor="middle" x="1216" y="-342.5" font-family="Helvetica,sans-Serif" font-size="10.00">/State.cpp</text>
</a>
</g>
</g>
<!-- Node13&#45;&gt;Node36 -->
<g id="edge34" class="edge"><title>Node13&#45;&gt;Node36</title>
<path fill="none" stroke="midnightblue" d="M976.385,-401.102C1029.74,-390.056 1100.9,-375.326 1151.79,-364.793"/>
<polygon fill="midnightblue" stroke="midnightblue" points="975.383,-397.735 966.3,-403.189 976.802,-404.59 975.383,-397.735"/>
</g>
<!-- Node15 -->
<g id="node3" class="node"><title>Node15</title>
<g id="a_node3"><a xlink:href="Basisnames_8cpp.html" target="_top" xlink:title="/travis/libpairinteraction\l/Basisnames.cpp">
<polygon fill="none" stroke="black" points="514,-268.5 514,-298.5 642,-298.5 642,-268.5 514,-268.5"/>
<text text-anchor="start" x="522" y="-286.5" font-family="Helvetica,sans-Serif" font-size="10.00">/travis/libpairinteraction</text>
<text text-anchor="middle" x="578" y="-275.5" font-family="Helvetica,sans-Serif" font-size="10.00">/Basisnames.cpp</text>
</a>
</g>
</g>
<!-- Node14&#45;&gt;Node15 -->
<g id="edge2" class="edge"><title>Node14&#45;&gt;Node15</title>
<path fill="none" stroke="midnightblue" d="M514.377,-329.451C528.53,-319.452 545.305,-307.6 558.076,-298.577"/>
<polygon fill="midnightblue" stroke="midnightblue" points="512.11,-326.767 505.963,-335.396 516.149,-332.484 512.11,-326.767"/>
</g>
<!-- Node14&#45;&gt;Node16 -->
<g id="edge3" class="edge"><title>Node14&#45;&gt;Node16</title>
<path fill="none" stroke="midnightblue" d="M416.442,-333.119C371.28,-322.483 313.023,-308.763 269.917,-298.611"/>
<polygon fill="midnightblue" stroke="midnightblue" points="415.916,-336.59 426.452,-335.476 417.521,-329.777 415.916,-336.59"/>
</g>
<!-- Node18 -->
<g id="node6" class="node"><title>Node18</title>
<g id="a_node6"><a xlink:href="HamiltonianOne_8h.html" target="_top" xlink:title="/travis/libpairinteraction\l/HamiltonianOne.h">
<polygon fill="none" stroke="black" points="146,-134.5 146,-164.5 274,-164.5 274,-134.5 146,-134.5"/>
<text text-anchor="start" x="154" y="-152.5" font-family="Helvetica,sans-Serif" font-size="10.00">/travis/libpairinteraction</text>
<text text-anchor="middle" x="210" y="-141.5" font-family="Helvetica,sans-Serif" font-size="10.00">/HamiltonianOne.h</text>
</a>
</g>
</g>
<!-- Node14&#45;&gt;Node18 -->
<g id="edge13" class="edge"><title>Node14&#45;&gt;Node18</title>
<path fill="none" stroke="midnightblue" d="M457.013,-329.712C423.733,-306.799 367.717,-267.63 321,-232 303.669,-218.782 300.42,-214.099 283,-201 266.003,-188.219 246.117,-174.543 231.397,-164.65"/>
<polygon fill="midnightblue" stroke="midnightblue" points="455.143,-332.674 465.367,-335.452 459.106,-326.904 455.143,-332.674"/>
</g>
<!-- Node20 -->
<g id="node8" class="node"><title>Node20</title>
<g id="a_node8"><a xlink:href="HamiltonianTwo_8h.html" target="_top" xlink:title="/travis/libpairinteraction\l/HamiltonianTwo.h">
<polygon fill="none" stroke="black" points="338,-67.5 338,-97.5 466,-97.5 466,-67.5 338,-67.5"/>
<text text-anchor="start" x="346" y="-85.5" font-family="Helvetica,sans-Serif" font-size="10.00">/travis/libpairinteraction</text>
<text text-anchor="middle" x="402" y="-74.5" font-family="Helvetica,sans-Serif" font-size="10.00">/HamiltonianTwo.h</text>
</a>
</g>
</g>
<!-- Node14&#45;&gt;Node20 -->
<g id="edge18" class="edge"><title>Node14&#45;&gt;Node20</title>
<path fill="none" stroke="midnightblue" d="M486.276,-325.302C485.735,-283.562 480.069,-196.502 445,-134 437.45,-120.543 426.022,-107.338 416.845,-97.8074"/>
<polygon fill="midnightblue" stroke="midnightblue" points="482.776,-325.37 486.315,-335.356 489.776,-325.342 482.776,-325.37"/>
</g>
<!-- Node24 -->
<g id="node12" class="node"><title>Node24</title>
<g id="a_node12"><a xlink:href="MatrixElements_8h.html" target="_top" xlink:title="/travis/libpairinteraction\l/MatrixElements.h">
<polygon fill="none" stroke="black" points="330,-201.5 330,-231.5 458,-231.5 458,-201.5 330,-201.5"/>
<text text-anchor="start" x="338" y="-219.5" font-family="Helvetica,sans-Serif" font-size="10.00">/travis/libpairinteraction</text>
<text text-anchor="middle" x="394" y="-208.5" font-family="Helvetica,sans-Serif" font-size="10.00">/MatrixElements.h</text>
</a>
</g>
</g>
<!-- Node14&#45;&gt;Node24 -->
<g id="edge14" class="edge"><title>Node14&#45;&gt;Node24</title>
<path fill="none" stroke="midnightblue" d="M470.202,-326.834C451.128,-299.466 419.637,-254.284 403.775,-231.525"/>
<polygon fill="midnightblue" stroke="midnightblue" points="467.565,-329.171 476.154,-335.374 473.308,-325.168 467.565,-329.171"/>
</g>
<!-- Node26 -->
<g id="node14" class="node"><title>Node26</title>
<g id="a_node14"><a xlink:href="MatrixElementCache_8h.html" target="_top" xlink:title="/travis/libpairinteraction\l/MatrixElementCache.h">
<polygon fill="none" stroke="black" points="660,-268.5 660,-298.5 788,-298.5 788,-268.5 660,-268.5"/>
<text text-anchor="start" x="668" y="-286.5" font-family="Helvetica,sans-Serif" font-size="10.00">/travis/libpairinteraction</text>
<text text-anchor="middle" x="724" y="-275.5" font-family="Helvetica,sans-Serif" font-size="10.00">/MatrixElementCache.h</text>
</a>
</g>
</g>
<!-- Node14&#45;&gt;Node26 -->
<g id="edge19" class="edge"><title>Node14&#45;&gt;Node26</title>
<path fill="none" stroke="midnightblue" d="M547.459,-332.715C586.189,-322.137 635.629,-308.635 672.332,-298.611"/>
<polygon fill="midnightblue" stroke="midnightblue" points="546.074,-329.465 537.349,-335.476 547.918,-336.218 546.074,-329.465"/>
</g>
<!-- Node17 -->
<g id="node5" class="node"><title>Node17</title>
<g id="a_node5"><a xlink:href="Hamiltonian_8h.html" target="_top" xlink:title="/travis/libpairinteraction\l/Hamiltonian.h">
<polygon fill="none" stroke="black" points="146,-201.5 146,-231.5 274,-231.5 274,-201.5 146,-201.5"/>
<text text-anchor="start" x="154" y="-219.5" font-family="Helvetica,sans-Serif" font-size="10.00">/travis/libpairinteraction</text>
<text text-anchor="middle" x="210" y="-208.5" font-family="Helvetica,sans-Serif" font-size="10.00">/Hamiltonian.h</text>
</a>
</g>
</g>
<!-- Node16&#45;&gt;Node17 -->
<g id="edge4" class="edge"><title>Node16&#45;&gt;Node17</title>
<path fill="none" stroke="midnightblue" d="M210,-258.108C210,-249.154 210,-239.323 210,-231.577"/>
<polygon fill="midnightblue" stroke="midnightblue" points="206.5,-258.396 210,-268.396 213.5,-258.396 206.5,-258.396"/>
</g>
<!-- Node23 -->
<g id="node11" class="node"><title>Node23</title>
<g id="a_node11"><a xlink:href="Hamiltonianmatrix_8cpp.html" target="_top" xlink:title="/travis/libpairinteraction\l/Hamiltonianmatrix.cpp">
<polygon fill="none" stroke="black" points="0,-201.5 0,-231.5 128,-231.5 128,-201.5 0,-201.5"/>
<text text-anchor="start" x="8" y="-219.5" font-family="Helvetica,sans-Serif" font-size="10.00">/travis/libpairinteraction</text>
<text text-anchor="middle" x="64" y="-208.5" font-family="Helvetica,sans-Serif" font-size="10.00">/Hamiltonianmatrix.cpp</text>
</a>
</g>
</g>
<!-- Node16&#45;&gt;Node23 -->
<g id="edge12" class="edge"><title>Node16&#45;&gt;Node23</title>
<path fill="none" stroke="midnightblue" d="M169.05,-264.269C145.796,-253.916 117.128,-241.153 95.618,-231.577"/>
<polygon fill="midnightblue" stroke="midnightblue" points="167.761,-267.526 178.32,-268.396 170.608,-261.131 167.761,-267.526"/>
</g>
<!-- Node17&#45;&gt;Node18 -->
<g id="edge5" class="edge"><title>Node17&#45;&gt;Node18</title>
<path fill="none" stroke="midnightblue" d="M210,-191.108C210,-182.154 210,-172.323 210,-164.577"/>
<polygon fill="midnightblue" stroke="midnightblue" points="206.5,-191.396 210,-201.396 213.5,-191.396 206.5,-191.396"/>
</g>
<!-- Node17&#45;&gt;Node20 -->
<g id="edge11" class="edge"><title>Node17&#45;&gt;Node20</title>
<path fill="none" stroke="midnightblue" d="M173.003,-196.149C146.672,-179.861 118.908,-155.8 137,-134 164.723,-100.595 286.377,-106.229 329,-98 331.918,-97.4367 334.901,-96.8575 337.914,-96.2699"/>
<polygon fill="midnightblue" stroke="midnightblue" points="171.421,-199.28 181.81,-201.36 174.986,-193.255 171.421,-199.28"/>
</g>
<!-- Node19 -->
<g id="node7" class="node"><title>Node19</title>
<g id="a_node7"><a xlink:href="HamiltonianOne_8cpp.html" target="_top" xlink:title="/travis/libpairinteraction\l/HamiltonianOne.cpp">
<polygon fill="none" stroke="black" points="192,-67.5 192,-97.5 320,-97.5 320,-67.5 192,-67.5"/>
<text text-anchor="start" x="200" y="-85.5" font-family="Helvetica,sans-Serif" font-size="10.00">/travis/libpairinteraction</text>
<text text-anchor="middle" x="256" y="-74.5" font-family="Helvetica,sans-Serif" font-size="10.00">/HamiltonianOne.cpp</text>
</a>
</g>
</g>
<!-- Node18&#45;&gt;Node19 -->
<g id="edge6" class="edge"><title>Node18&#45;&gt;Node19</title>
<path fill="none" stroke="midnightblue" d="M225.812,-126.157C232.52,-116.679 240.135,-105.919 246.038,-97.5765"/>
<polygon fill="midnightblue" stroke="midnightblue" points="222.901,-124.211 219.981,-134.396 228.615,-128.255 222.901,-124.211"/>
</g>
<!-- Node18&#45;&gt;Node20 -->
<g id="edge7" class="edge"><title>Node18&#45;&gt;Node20</title>
<path fill="none" stroke="midnightblue" d="M261.422,-131.092C292.416,-120.599 331.379,-107.408 360.42,-97.5765"/>
<polygon fill="midnightblue" stroke="midnightblue" points="260.011,-127.874 251.661,-134.396 262.255,-134.504 260.011,-127.874"/>
</g>
<!-- Node22 -->
<g id="node10" class="node"><title>Node22</title>
<g id="a_node10"><a xlink:href="Interface_8cpp.html" target="_top" xlink:title="/travis/libpairinteraction\l/Interface.cpp">
<polygon fill="none" stroke="black" points="146,-0.5 146,-30.5 274,-30.5 274,-0.5 146,-0.5"/>
<text text-anchor="start" x="154" y="-18.5" font-family="Helvetica,sans-Serif" font-size="10.00">/travis/libpairinteraction</text>
<text text-anchor="middle" x="210" y="-7.5" font-family="Helvetica,sans-Serif" font-size="10.00">/Interface.cpp</text>
</a>
</g>
</g>
<!-- Node18&#45;&gt;Node22 -->
<g id="edge10" class="edge"><title>Node18&#45;&gt;Node22</title>
<path fill="none" stroke="midnightblue" d="M194.663,-125.541C189.955,-117.226 185.388,-107.529 183,-98 179.652,-84.6353 179.652,-80.3647 183,-67 186.286,-53.8845 193.701,-40.4518 199.93,-30.7405"/>
<polygon fill="midnightblue" stroke="midnightblue" points="191.763,-127.51 199.93,-134.26 197.755,-123.89 191.763,-127.51"/>
</g>
<!-- Node21 -->
<g id="node9" class="node"><title>Node21</title>
<g id="a_node9"><a xlink:href="HamiltonianTwo_8cpp.html" target="_top" xlink:title="/travis/libpairinteraction\l/HamiltonianTwo.cpp">
<polygon fill="none" stroke="black" points="338,-0.5 338,-30.5 466,-30.5 466,-0.5 338,-0.5"/>
<text text-anchor="start" x="346" y="-18.5" font-family="Helvetica,sans-Serif" font-size="10.00">/travis/libpairinteraction</text>
<text text-anchor="middle" x="402" y="-7.5" font-family="Helvetica,sans-Serif" font-size="10.00">/HamiltonianTwo.cpp</text>
</a>
</g>
</g>
<!-- Node20&#45;&gt;Node21 -->
<g id="edge8" class="edge"><title>Node20&#45;&gt;Node21</title>
<path fill="none" stroke="midnightblue" d="M402,-57.1081C402,-48.1539 402,-38.3227 402,-30.5765"/>
<polygon fill="midnightblue" stroke="midnightblue" points="398.5,-57.3959 402,-67.396 405.5,-57.396 398.5,-57.3959"/>
</g>
<!-- Node20&#45;&gt;Node22 -->
<g id="edge9" class="edge"><title>Node20&#45;&gt;Node22</title>
<path fill="none" stroke="midnightblue" d="M350.578,-64.0917C319.584,-53.5988 280.621,-40.4082 251.58,-30.5765"/>
<polygon fill="midnightblue" stroke="midnightblue" points="349.745,-67.5044 360.339,-67.396 351.989,-60.8741 349.745,-67.5044"/>
</g>
<!-- Node24&#45;&gt;Node18 -->
<g id="edge15" class="edge"><title>Node24&#45;&gt;Node18</title>
<path fill="none" stroke="midnightblue" d="M344.335,-197.955C314.695,-187.485 277.558,-174.366 249.847,-164.577"/>
<polygon fill="midnightblue" stroke="midnightblue" points="343.48,-201.365 354.075,-201.396 345.812,-194.765 343.48,-201.365"/>
</g>
<!-- Node24&#45;&gt;Node20 -->
<g id="edge16" class="edge"><title>Node24&#45;&gt;Node20</title>
<path fill="none" stroke="midnightblue" d="M413.706,-193.302C419.846,-185.005 425.834,-175.125 429,-165 433.111,-151.85 432.348,-147.365 429,-134 425.714,-120.885 418.299,-107.452 412.07,-97.7405"/>
<polygon fill="midnightblue" stroke="midnightblue" points="410.823,-191.305 407.364,-201.319 416.313,-195.648 410.823,-191.305"/>
</g>
<!-- Node25 -->
<g id="node13" class="node"><title>Node25</title>
<g id="a_node13"><a xlink:href="MatrixElements_8cpp.html" target="_top" xlink:title="/travis/libpairinteraction\l/MatrixElements.cpp">
<polygon fill="none" stroke="black" points="292,-134.5 292,-164.5 420,-164.5 420,-134.5 292,-134.5"/>
<text text-anchor="start" x="300" y="-152.5" font-family="Helvetica,sans-Serif" font-size="10.00">/travis/libpairinteraction</text>
<text text-anchor="middle" x="356" y="-141.5" font-family="Helvetica,sans-Serif" font-size="10.00">/MatrixElements.cpp</text>
</a>
</g>
</g>
<!-- Node24&#45;&gt;Node25 -->
<g id="edge17" class="edge"><title>Node24&#45;&gt;Node25</title>
<path fill="none" stroke="midnightblue" d="M380.598,-192.576C375.141,-183.241 369.007,-172.748 364.229,-164.577"/>
<polygon fill="midnightblue" stroke="midnightblue" points="377.686,-194.529 385.755,-201.396 383.729,-190.997 377.686,-194.529"/>
</g>
<!-- Node27 -->
<g id="node15" class="node"><title>Node27</title>
<g id="a_node15"><a xlink:href="MatrixElementCache_8cpp.html" target="_top" xlink:title="/travis/libpairinteraction\l/MatrixElementCache.cpp">
<polygon fill="none" stroke="black" points="514.5,-201.5 514.5,-231.5 653.5,-231.5 653.5,-201.5 514.5,-201.5"/>
<text text-anchor="start" x="522.5" y="-219.5" font-family="Helvetica,sans-Serif" font-size="10.00">/travis/libpairinteraction</text>
<text text-anchor="middle" x="584" y="-208.5" font-family="Helvetica,sans-Serif" font-size="10.00">/MatrixElementCache.cpp</text>
</a>
</g>
</g>
<!-- Node26&#45;&gt;Node27 -->
<g id="edge20" class="edge"><title>Node26&#45;&gt;Node27</title>
<path fill="none" stroke="midnightblue" d="M684.435,-264.131C662.19,-253.802 634.853,-241.11 614.319,-231.577"/>
<polygon fill="midnightblue" stroke="midnightblue" points="683.078,-267.359 693.622,-268.396 686.026,-261.01 683.078,-267.359"/>
</g>
<!-- Node26&#45;&gt;Node28 -->
<g id="edge21" class="edge"><title>Node26&#45;&gt;Node28</title>
<path fill="none" stroke="midnightblue" d="M743.085,-260.736C751.519,-251.119 761.191,-240.089 768.656,-231.577"/>
<polygon fill="midnightblue" stroke="midnightblue" points="740.33,-258.57 736.368,-268.396 745.593,-263.185 740.33,-258.57"/>
</g>
<!-- Node26&#45;&gt;Node30 -->
<g id="edge23" class="edge"><title>Node26&#45;&gt;Node30</title>
<path fill="none" stroke="midnightblue" d="M796.239,-266.252C843.61,-255.598 904.934,-241.805 950.261,-231.611"/>
<polygon fill="midnightblue" stroke="midnightblue" points="795.341,-262.867 786.353,-268.476 796.877,-269.696 795.341,-262.867"/>
</g>
<!-- Node26&#45;&gt;Node35 -->
<g id="edge31" class="edge"><title>Node26&#45;&gt;Node35</title>
<path fill="none" stroke="midnightblue" d="M710.841,-259.328C695.356,-228.694 674.437,-173.938 697,-134 728.009,-79.1111 796.075,-47.0069 842.983,-30.6027"/>
<polygon fill="midnightblue" stroke="midnightblue" points="707.854,-261.166 715.616,-268.377 714.045,-257.899 707.854,-261.166"/>
</g>
<!-- Node29 -->
<g id="node17" class="node"><title>Node29</title>
<g id="a_node17"><a xlink:href="PerturbativeInteraction_8cpp.html" target="_top" xlink:title="/travis/libpairinteraction\l/PerturbativeInteraction.cpp">
<polygon fill="none" stroke="black" points="706.5,-134.5 706.5,-164.5 855.5,-164.5 855.5,-134.5 706.5,-134.5"/>
<text text-anchor="start" x="714.5" y="-152.5" font-family="Helvetica,sans-Serif" font-size="10.00">/travis/libpairinteraction</text>
<text text-anchor="middle" x="781" y="-141.5" font-family="Helvetica,sans-Serif" font-size="10.00">/PerturbativeInteraction.cpp</text>
</a>
</g>
</g>
<!-- Node28&#45;&gt;Node29 -->
<g id="edge22" class="edge"><title>Node28&#45;&gt;Node29</title>
<path fill="none" stroke="midnightblue" d="M781,-191.108C781,-182.154 781,-172.323 781,-164.577"/>
<polygon fill="midnightblue" stroke="midnightblue" points="777.5,-191.396 781,-201.396 784.5,-191.396 777.5,-191.396"/>
</g>
<!-- Node30&#45;&gt;Node31 -->
<g id="edge24" class="edge"><title>Node30&#45;&gt;Node31</title>
<path fill="none" stroke="midnightblue" d="M1006.04,-191.697C1003.38,-182.587 1000.43,-172.493 998.115,-164.577"/>
<polygon fill="midnightblue" stroke="midnightblue" points="1002.71,-192.78 1008.88,-201.396 1009.43,-190.816 1002.71,-192.78"/>
</g>
<!-- Node30&#45;&gt;Node33 -->
<g id="edge30" class="edge"><title>Node30&#45;&gt;Node33</title>
<path fill="none" stroke="midnightblue" d="M1035.62,-194.637C1045.34,-185.593 1056.79,-174.842 1067,-165 1091.13,-141.735 1118.67,-114.141 1134.91,-97.7665"/>
<polygon fill="midnightblue" stroke="midnightblue" points="1033.2,-192.106 1028.25,-201.473 1037.96,-197.238 1033.2,-192.106"/>
</g>
<!-- Node32 -->
<g id="node20" class="node"><title>Node32</title>
<g id="a_node20"><a xlink:href="SystemOne_8cpp.html" target="_top" xlink:title="/travis/libpairinteraction\l/SystemOne.cpp">
<polygon fill="none" stroke="black" points="939,-67.5 939,-97.5 1067,-97.5 1067,-67.5 939,-67.5"/>
<text text-anchor="start" x="947" y="-85.5" font-family="Helvetica,sans-Serif" font-size="10.00">/travis/libpairinteraction</text>
<text text-anchor="middle" x="1003" y="-74.5" font-family="Helvetica,sans-Serif" font-size="10.00">/SystemOne.cpp</text>
</a>
</g>
</g>
<!-- Node31&#45;&gt;Node32 -->
<g id="edge25" class="edge"><title>Node31&#45;&gt;Node32</title>
<path fill="none" stroke="midnightblue" d="M997.337,-124.403C998.587,-115.37 999.967,-105.408 1001.05,-97.5765"/>
<polygon fill="midnightblue" stroke="midnightblue" points="993.858,-124.01 995.953,-134.396 1000.79,-124.971 993.858,-124.01"/>
</g>
<!-- Node31&#45;&gt;Node33 -->
<g id="edge26" class="edge"><title>Node31&#45;&gt;Node33</title>
<path fill="none" stroke="midnightblue" d="M1037.15,-130.407C1061.89,-120.029 1092.5,-107.195 1115.43,-97.5765"/>
<polygon fill="midnightblue" stroke="midnightblue" points="1035.5,-127.301 1027.63,-134.396 1038.21,-133.756 1035.5,-127.301"/>
</g>
<!-- Node31&#45;&gt;Node35 -->
<g id="edge29" class="edge"><title>Node31&#45;&gt;Node35</title>
<path fill="none" stroke="midnightblue" d="M962.634,-128.34C951.315,-119.959 939.1,-109.497 930,-98 913.432,-77.0672 902.043,-47.7355 896.306,-30.5651"/>
<polygon fill="midnightblue" stroke="midnightblue" points="960.871,-131.382 971.049,-134.327 964.929,-125.678 960.871,-131.382"/>
</g>
<!-- Node34 -->
<g id="node22" class="node"><title>Node34</title>
<g id="a_node22"><a xlink:href="SystemTwo_8cpp.html" target="_top" xlink:title="/travis/libpairinteraction\l/SystemTwo.cpp">
<polygon fill="none" stroke="black" points="1085,-0.5 1085,-30.5 1213,-30.5 1213,-0.5 1085,-0.5"/>
<text text-anchor="start" x="1093" y="-18.5" font-family="Helvetica,sans-Serif" font-size="10.00">/travis/libpairinteraction</text>
<text text-anchor="middle" x="1149" y="-7.5" font-family="Helvetica,sans-Serif" font-size="10.00">/SystemTwo.cpp</text>
</a>
</g>
</g>
<!-- Node33&#45;&gt;Node34 -->
<g id="edge27" class="edge"><title>Node33&#45;&gt;Node34</title>
<path fill="none" stroke="midnightblue" d="M1149,-57.1081C1149,-48.1539 1149,-38.3227 1149,-30.5765"/>
<polygon fill="midnightblue" stroke="midnightblue" points="1145.5,-57.3959 1149,-67.396 1152.5,-57.396 1145.5,-57.3959"/>
</g>
<!-- Node33&#45;&gt;Node35 -->
<g id="edge28" class="edge"><title>Node33&#45;&gt;Node35</title>
<path fill="none" stroke="midnightblue" d="M1083.7,-64.9844C1041.72,-54.3674 987.763,-40.7201 947.792,-30.6109"/>
<polygon fill="midnightblue" stroke="midnightblue" points="1083,-68.4171 1093.55,-67.476 1084.71,-61.6308 1083,-68.4171"/>
</g>
</g>
</svg>
        <g id="navigator" transform="translate(0 0)" fill="#404254">
                <rect fill="#f2f5e9" fill-opacity="0.5" stroke="#606060" stroke-width=".5" x="0" y="0" width="60" height="60"/>
                <use id="zoomplus" xlink:href="#zoomPlus" x="17" y="9" onmousedown="handleZoom(evt,'in')"/>
                <use id="zoomminus" xlink:href="#zoomMin" x="42" y="9" onmousedown="handleZoom(evt,'out')"/>
                <use id="reset" xlink:href="#resetDef" x="30" y="36" onmousedown="handleReset()"/>
                <g id="arrowUp" xlink:href="#dirArrow" transform="translate(30 24)" onmousedown="handlePan(0,-1)">
                  <use xlink:href="#rim" fill="#404040">
                        <set attributeName="fill" to="#808080" begin="arrowUp.mouseover" end="arrowUp.mouseout"/>
                  </use>
                  <path fill="none" stroke="white" stroke-width="1.5" d="M0,-3.0v7 M-2.5,-0.5L0,-3.0L2.5,-0.5"/>
                </g>
                <g id="arrowRight" xlink:href="#dirArrow" transform="rotate(90) translate(36 -43)" onmousedown="handlePan(1,0)">
                  <use xlink:href="#rim" fill="#404040">
                        <set attributeName="fill" to="#808080" begin="arrowRight.mouseover" end="arrowRight.mouseout"/>
                  </use>
                  <path fill="none" stroke="white" stroke-width="1.5" d="M0,-3.0v7 M-2.5,-0.5L0,-3.0L2.5,-0.5"/>
                </g>
                <g id="arrowDown" xlink:href="#dirArrow" transform="rotate(180) translate(-30 -48)" onmousedown="handlePan(0,1)">
                  <use xlink:href="#rim" fill="#404040">
                        <set attributeName="fill" to="#808080" begin="arrowDown.mouseover" end="arrowDown.mouseout"/>
                  </use>
                  <path fill="none" stroke="white" stroke-width="1.5" d="M0,-3.0v7 M-2.5,-0.5L0,-3.0L2.5,-0.5"/>
                </g>
                <g id="arrowLeft" xlink:href="#dirArrow" transform="rotate(270) translate(-36 17)" onmousedown="handlePan(-1,0)">
                  <use xlink:href="#rim" fill="#404040">
                        <set attributeName="fill" to="#808080" begin="arrowLeft.mouseover" end="arrowLeft.mouseout"/>
                  </use>
                  <path fill="none" stroke="white" stroke-width="1.5" d="M0,-3.0v7 M-2.5,-0.5L0,-3.0L2.5,-0.5"/>
                </g>
        </g>
        <svg viewBox="0 0 15 15" width="100%" height="30px" preserveAspectRatio="xMaxYMin meet">
         <g id="arrow_out" transform="scale(0.3 0.3)">
          <a xlink:href="State_8h__dep__incl_org.svg" target="_base">
           <rect id="button" ry="5" rx="5" y="6" x="6" height="38" width="38"
                fill="#f2f5e9" fill-opacity="0.5" stroke="#606060" stroke-width="1.0"/>
           <path id="arrow"
             d="M 11.500037,31.436501 C 11.940474,20.09759 22.043105,11.32322 32.158766,21.979434 L 37.068811,17.246167 C 37.068811,17.246167 37.088388,32 37.088388,32 L 22.160133,31.978069 C 22.160133,31.978069 26.997745,27.140456 26.997745,27.140456 C 18.528582,18.264221 13.291696,25.230495 11.500037,31.436501 z"
             style="fill:#404040;"/>
          </a>
         </g>
        </svg>
</svg>
