<?xml version="1.0" encoding="UTF-8" standalone="no"?>
<!DOCTYPE svg PUBLIC "-//W3C//DTD SVG 1.1//EN"
 "http://www.w3.org/Graphics/SVG/1.1/DTD/svg11.dtd">
<!-- Generated by graphviz version 2.38.0 (20140413.2041)
 -->
<!-- Title: /travis/libpairinteraction/utils.h Pages: 1 -->
<svg width="378pt" height="95pt"
 viewBox="0.00 0.00 378.00 95.00" xmlns="http://www.w3.org/2000/svg" xmlns:xlink="http://www.w3.org/1999/xlink">
<g id="graph0" class="graph" transform="scale(1 1) rotate(0) translate(4 91)">
<title>/travis/libpairinteraction/utils.h</title>
<!-- Node0 -->
<g id="node1" class="node"><title>Node0</title>
<polygon fill="#bfbfbf" stroke="black" points="119.5,-56.5 119.5,-86.5 247.5,-86.5 247.5,-56.5 119.5,-56.5"/>
<text text-anchor="start" x="127.5" y="-74.5" font-family="Helvetica,sans-Serif" font-size="10.00">/travis/libpairinteraction</text>
<text text-anchor="middle" x="183.5" y="-63.5" font-family="Helvetica,sans-Serif" font-size="10.00">/utils.h</text>
</g>
<!-- Node1 -->
<g id="node2" class="node"><title>Node1</title>
<polygon fill="none" stroke="#bfbfbf" points="0,-0.5 0,-19.5 57,-19.5 57,-0.5 0,-0.5"/>
<text text-anchor="middle" x="28.5" y="-7.5" font-family="Helvetica,sans-Serif" font-size="10.00">complex</text>
</g>
<!-- Node0&#45;&gt;Node1 -->
<g id="edge1" class="edge"><title>Node0&#45;&gt;Node1</title>
<path fill="none" stroke="midnightblue" d="M146.767,-56.3993C120.529,-46.3271 85.5747,-32.9093 60.4819,-23.2769"/>
<polygon fill="midnightblue" stroke="midnightblue" points="61.644,-19.9741 51.0539,-19.6578 59.1353,-26.5091 61.644,-19.9741"/>
</g>
<!-- Node2 -->
<g id="node3" class="node"><title>Node2</title>
<polygon fill="none" stroke="#bfbfbf" points="75,-0.5 75,-19.5 138,-19.5 138,-0.5 75,-0.5"/>
<text text-anchor="middle" x="106.5" y="-7.5" font-family="Helvetica,sans-Serif" font-size="10.00">functional</text>
</g>
<!-- Node0&#45;&gt;Node2 -->
<g id="edge2" class="edge"><title>Node0&#45;&gt;Node2</title>
<path fill="none" stroke="midnightblue" d="M165.252,-56.3993C153.371,-47.2185 137.893,-35.2579 125.806,-25.9182"/>
<polygon fill="midnightblue" stroke="midnightblue" points="127.757,-23.0028 117.704,-19.6578 123.477,-28.5418 127.757,-23.0028"/>
</g>
<!-- Node3 -->
<g id="node4" class="node"><title>Node3</title>
<polygon fill="none" stroke="#bfbfbf" points="156.5,-0.5 156.5,-19.5 210.5,-19.5 210.5,-0.5 156.5,-0.5"/>
<text text-anchor="middle" x="183.5" y="-7.5" font-family="Helvetica,sans-Serif" font-size="10.00">random</text>
</g>
<!-- Node0&#45;&gt;Node3 -->
<g id="edge3" class="edge"><title>Node0&#45;&gt;Node3</title>
<path fill="none" stroke="midnightblue" d="M183.5,-56.3993C183.5,-48.4664 183.5,-38.458 183.5,-29.8583"/>
<polygon fill="midnightblue" stroke="midnightblue" points="187,-29.6577 183.5,-19.6578 180,-29.6578 187,-29.6577"/>
</g>
<!-- Node4 -->
<g id="node5" class="node"><title>Node4</title>
<polygon fill="none" stroke="#bfbfbf" points="228.5,-0.5 228.5,-19.5 296.5,-19.5 296.5,-0.5 228.5,-0.5"/>
<text text-anchor="middle" x="262.5" y="-7.5" font-family="Helvetica,sans-Serif" font-size="10.00">type_traits</text>
</g>
<!-- Node0&#45;&gt;Node4 -->
<g id="edge4" class="edge"><title>Node0&#45;&gt;Node4</title>
<path fill="none" stroke="midnightblue" d="M202.222,-56.3993C214.412,-47.2185 230.292,-35.2579 242.693,-25.9182"/>
<polygon fill="midnightblue" stroke="midnightblue" points="245.123,-28.4697 251.005,-19.6578 240.911,-22.8782 245.123,-28.4697"/>
</g>
<!-- Node5 -->
<g id="node6" class="node"><title>Node5</title>
<polygon fill="none" stroke="#bfbfbf" points="315,-0.5 315,-19.5 370,-19.5 370,-0.5 315,-0.5"/>
<text text-anchor="middle" x="342.5" y="-7.5" font-family="Helvetica,sans-Serif" font-size="10.00">unistd.h</text>
</g>
<!-- Node0&#45;&gt;Node5 -->
<g id="edge5" class="edge"><title>Node0&#45;&gt;Node5</title>
<path fill="none" stroke="midnightblue" d="M221.181,-56.3993C248.096,-46.3271 283.952,-32.9093 309.693,-23.2769"/>
<polygon fill="midnightblue" stroke="midnightblue" points="311.225,-26.4406 319.364,-19.6578 308.772,-19.8846 311.225,-26.4406"/>
</g>
</g>
</svg>
