<?xml version="1.0" encoding="UTF-8" standalone="no"?>
<!DOCTYPE svg PUBLIC "-//W3C//DTD SVG 1.1//EN"
 "http://www.w3.org/Graphics/SVG/1.1/DTD/svg11.dtd">
<!-- Generated by graphviz version 2.38.0 (20140413.2041)
 -->
<!-- Title: /travis/libpairinteraction/utils.h Pages: 1 -->
<svg width="1688pt" height="597pt"
 viewBox="0.00 0.00 1687.50 597.00" xmlns="http://www.w3.org/2000/svg" xmlns:xlink="http://www.w3.org/1999/xlink">
<g id="graph0" class="graph" transform="scale(1 1) rotate(0) translate(4 593)">
<title>/travis/libpairinteraction/utils.h</title>
<!-- Node6 -->
<g id="node1" class="node"><title>Node6</title>
<polygon fill="#bfbfbf" stroke="black" points="1081,-558.5 1081,-588.5 1209,-588.5 1209,-558.5 1081,-558.5"/>
<text text-anchor="start" x="1089" y="-576.5" font-family="Helvetica,sans-Serif" font-size="10.00">/travis/libpairinteraction</text>
<text text-anchor="middle" x="1145" y="-565.5" font-family="Helvetica,sans-Serif" font-size="10.00">/utils.h</text>
</g>
<!-- Node7 -->
<g id="node2" class="node"><title>Node7</title>
<g id="a_node2"><a xlink:href="Hamiltonianmatrix_8h.html" target="_top" xlink:title="/travis/libpairinteraction\l/Hamiltonianmatrix.h">
<polygon fill="none" stroke="black" points="0,-352 0,-382 128,-382 128,-352 0,-352"/>
<text text-anchor="start" x="8" y="-370" font-family="Helvetica,sans-Serif" font-size="10.00">/travis/libpairinteraction</text>
<text text-anchor="middle" x="64" y="-359" font-family="Helvetica,sans-Serif" font-size="10.00">/Hamiltonianmatrix.h</text>
</a>
</g>
</g>
<!-- Node6&#45;&gt;Node7 -->
<g id="edge1" class="edge"><title>Node6&#45;&gt;Node7</title>
<path fill="none" stroke="midnightblue" d="M1070.62,-570.542C866.875,-564.128 304.171,-539.068 142,-455 109.583,-438.195 84.1901,-402.011 71.9705,-382.007"/>
<polygon fill="midnightblue" stroke="midnightblue" points="1070.81,-574.05 1080.92,-570.86 1071.03,-567.053 1070.81,-574.05"/>
</g>
<!-- Node15 -->
<g id="node10" class="node"><title>Node15</title>
<g id="a_node10"><a xlink:href="SQLite_8h.html" target="_top" xlink:title="/travis/libpairinteraction\l/SQLite.h">
<polygon fill="none" stroke="black" points="921,-491.5 921,-521.5 1049,-521.5 1049,-491.5 921,-491.5"/>
<text text-anchor="start" x="929" y="-509.5" font-family="Helvetica,sans-Serif" font-size="10.00">/travis/libpairinteraction</text>
<text text-anchor="middle" x="985" y="-498.5" font-family="Helvetica,sans-Serif" font-size="10.00">/SQLite.h</text>
</a>
</g>
</g>
<!-- Node6&#45;&gt;Node15 -->
<g id="edge11" class="edge"><title>Node6&#45;&gt;Node15</title>
<path fill="none" stroke="midnightblue" d="M1100.8,-554.544C1075.2,-544.143 1043.43,-531.238 1019.65,-521.577"/>
<polygon fill="midnightblue" stroke="midnightblue" points="1099.7,-557.875 1110.28,-558.396 1102.34,-551.39 1099.7,-557.875"/>
</g>
<!-- Node20 -->
<g id="node15" class="node"><title>Node20</title>
<g id="a_node15"><a xlink:href="MatrixElementCache_8h.html" target="_top" xlink:title="/travis/libpairinteraction\l/MatrixElementCache.h">
<polygon fill="none" stroke="black" points="1269,-274 1269,-304 1397,-304 1397,-274 1269,-274"/>
<text text-anchor="start" x="1277" y="-292" font-family="Helvetica,sans-Serif" font-size="10.00">/travis/libpairinteraction</text>
<text text-anchor="middle" x="1333" y="-281" font-family="Helvetica,sans-Serif" font-size="10.00">/MatrixElementCache.h</text>
</a>
</g>
</g>
<!-- Node6&#45;&gt;Node20 -->
<g id="edge48" class="edge"><title>Node6&#45;&gt;Node20</title>
<path fill="none" stroke="midnightblue" d="M1167.64,-551.437C1190.81,-529.06 1226.9,-491.888 1252,-455 1287.19,-403.29 1315.97,-334.041 1327.54,-304.421"/>
<polygon fill="midnightblue" stroke="midnightblue" points="1165.12,-549 1160.3,-558.437 1169.95,-554.062 1165.12,-549"/>
</g>
<!-- Node36 -->
<g id="node31" class="node"><title>Node36</title>
<g id="a_node31"><a xlink:href="utils__test_8cpp.html" target="_top" xlink:title="/travis/libpairinteraction\l/unit_test/utils_test.cpp">
<polygon fill="none" stroke="black" points="1304,-491.5 1304,-521.5 1432,-521.5 1432,-491.5 1304,-491.5"/>
<text text-anchor="start" x="1312" y="-509.5" font-family="Helvetica,sans-Serif" font-size="10.00">/travis/libpairinteraction</text>
<text text-anchor="middle" x="1368" y="-498.5" font-family="Helvetica,sans-Serif" font-size="10.00">/unit_test/utils_test.cpp</text>
</a>
</g>
</g>
<!-- Node6&#45;&gt;Node36 -->
<g id="edge49" class="edge"><title>Node6&#45;&gt;Node36</title>
<path fill="none" stroke="midnightblue" d="M1203.05,-555.58C1239.27,-545.022 1285.35,-531.592 1319.59,-521.611"/>
<polygon fill="midnightblue" stroke="midnightblue" points="1201.73,-552.317 1193.11,-558.476 1203.69,-559.038 1201.73,-552.317"/>
</g>
<!-- Node8 -->
<g id="node3" class="node"><title>Node8</title>
<g id="a_node3"><a xlink:href="Hamiltonian_8h.html" target="_top" xlink:title="/travis/libpairinteraction\l/Hamiltonian.h">
<polygon fill="none" stroke="black" points="184,-274 184,-304 312,-304 312,-274 184,-274"/>
<text text-anchor="start" x="192" y="-292" font-family="Helvetica,sans-Serif" font-size="10.00">/travis/libpairinteraction</text>
<text text-anchor="middle" x="248" y="-281" font-family="Helvetica,sans-Serif" font-size="10.00">/Hamiltonian.h</text>
</a>
</g>
</g>
<!-- Node7&#45;&gt;Node8 -->
<g id="edge2" class="edge"><title>Node7&#45;&gt;Node8</title>
<path fill="none" stroke="midnightblue" d="M107.467,-348.046C140.038,-334.593 183.982,-316.442 214.005,-304.041"/>
<polygon fill="midnightblue" stroke="midnightblue" points="106.084,-344.831 98.1778,-351.883 108.757,-351.3 106.084,-344.831"/>
</g>
<!-- Node14 -->
<g id="node9" class="node"><title>Node14</title>
<g id="a_node9"><a xlink:href="Hamiltonianmatrix_8cpp.html" target="_top" xlink:title="/travis/libpairinteraction\l/Hamiltonianmatrix.cpp">
<polygon fill="none" stroke="black" points="0,-274 0,-304 128,-304 128,-274 0,-274"/>
<text text-anchor="start" x="8" y="-292" font-family="Helvetica,sans-Serif" font-size="10.00">/travis/libpairinteraction</text>
<text text-anchor="middle" x="64" y="-281" font-family="Helvetica,sans-Serif" font-size="10.00">/Hamiltonianmatrix.cpp</text>
</a>
</g>
</g>
<!-- Node7&#45;&gt;Node14 -->
<g id="edge10" class="edge"><title>Node7&#45;&gt;Node14</title>
<path fill="none" stroke="midnightblue" d="M64,-341.59C64,-329.257 64,-314.724 64,-304.231"/>
<polygon fill="midnightblue" stroke="midnightblue" points="60.5001,-341.705 64,-351.705 67.5001,-341.705 60.5001,-341.705"/>
</g>
<!-- Node9 -->
<g id="node4" class="node"><title>Node9</title>
<g id="a_node4"><a xlink:href="HamiltonianOne_8h.html" target="_top" xlink:title="/travis/libpairinteraction\l/HamiltonianOne.h">
<polygon fill="none" stroke="black" points="270,-201.5 270,-231.5 398,-231.5 398,-201.5 270,-201.5"/>
<text text-anchor="start" x="278" y="-219.5" font-family="Helvetica,sans-Serif" font-size="10.00">/travis/libpairinteraction</text>
<text text-anchor="middle" x="334" y="-208.5" font-family="Helvetica,sans-Serif" font-size="10.00">/HamiltonianOne.h</text>
</a>
</g>
</g>
<!-- Node8&#45;&gt;Node9 -->
<g id="edge3" class="edge"><title>Node8&#45;&gt;Node9</title>
<path fill="none" stroke="midnightblue" d="M273.266,-267.288C287.321,-255.766 304.44,-241.733 316.916,-231.505"/>
<polygon fill="midnightblue" stroke="midnightblue" points="270.918,-264.687 265.403,-273.733 275.356,-270.1 270.918,-264.687"/>
</g>
<!-- Node11 -->
<g id="node6" class="node"><title>Node11</title>
<g id="a_node6"><a xlink:href="HamiltonianTwo_8h.html" target="_top" xlink:title="/travis/libpairinteraction\l/HamiltonianTwo.h">
<polygon fill="none" stroke="black" points="472,-134.5 472,-164.5 600,-164.5 600,-134.5 472,-134.5"/>
<text text-anchor="start" x="480" y="-152.5" font-family="Helvetica,sans-Serif" font-size="10.00">/travis/libpairinteraction</text>
<text text-anchor="middle" x="536" y="-141.5" font-family="Helvetica,sans-Serif" font-size="10.00">/HamiltonianTwo.h</text>
</a>
</g>
</g>
<!-- Node8&#45;&gt;Node11 -->
<g id="edge9" class="edge"><title>Node8&#45;&gt;Node11</title>
<path fill="none" stroke="midnightblue" d="M306.472,-270.89C337.084,-261.071 374.796,-247.598 407,-232 448.008,-212.138 492.144,-182.175 516.693,-164.65"/>
<polygon fill="midnightblue" stroke="midnightblue" points="305.278,-267.597 296.798,-273.948 307.388,-274.271 305.278,-267.597"/>
</g>
<!-- Node10 -->
<g id="node5" class="node"><title>Node10</title>
<g id="a_node5"><a xlink:href="HamiltonianOne_8cpp.html" target="_top" xlink:title="/travis/libpairinteraction\l/HamiltonianOne.cpp">
<polygon fill="none" stroke="black" points="326,-134.5 326,-164.5 454,-164.5 454,-134.5 326,-134.5"/>
<text text-anchor="start" x="334" y="-152.5" font-family="Helvetica,sans-Serif" font-size="10.00">/travis/libpairinteraction</text>
<text text-anchor="middle" x="390" y="-141.5" font-family="Helvetica,sans-Serif" font-size="10.00">/HamiltonianOne.cpp</text>
</a>
</g>
</g>
<!-- Node9&#45;&gt;Node10 -->
<g id="edge4" class="edge"><title>Node9&#45;&gt;Node10</title>
<path fill="none" stroke="midnightblue" d="M352.75,-193.736C361.036,-184.119 370.539,-173.089 377.873,-164.577"/>
<polygon fill="midnightblue" stroke="midnightblue" points="350.027,-191.535 346.151,-201.396 355.33,-196.104 350.027,-191.535"/>
</g>
<!-- Node9&#45;&gt;Node11 -->
<g id="edge5" class="edge"><title>Node9&#45;&gt;Node11</title>
<path fill="none" stroke="midnightblue" d="M387.677,-198.228C420.353,-187.713 461.568,-174.451 492.255,-164.577"/>
<polygon fill="midnightblue" stroke="midnightblue" points="386.278,-195.001 377.831,-201.396 388.422,-201.665 386.278,-195.001"/>
</g>
<!-- Node13 -->
<g id="node8" class="node"><title>Node13</title>
<g id="a_node8"><a xlink:href="Interface_8cpp.html" target="_top" xlink:title="/travis/libpairinteraction\l/Interface.cpp">
<polygon fill="none" stroke="black" points="280,-67.5 280,-97.5 408,-97.5 408,-67.5 280,-67.5"/>
<text text-anchor="start" x="288" y="-85.5" font-family="Helvetica,sans-Serif" font-size="10.00">/travis/libpairinteraction</text>
<text text-anchor="middle" x="344" y="-74.5" font-family="Helvetica,sans-Serif" font-size="10.00">/Interface.cpp</text>
</a>
</g>
</g>
<!-- Node9&#45;&gt;Node13 -->
<g id="edge8" class="edge"><title>Node9&#45;&gt;Node13</title>
<path fill="none" stroke="midnightblue" d="M323.443,-191.953C317.494,-175.615 312.142,-153.39 317,-134 320.286,-120.885 327.701,-107.452 333.93,-97.7405"/>
<polygon fill="midnightblue" stroke="midnightblue" points="320.202,-193.278 327.137,-201.288 326.711,-190.701 320.202,-193.278"/>
</g>
<!-- Node12 -->
<g id="node7" class="node"><title>Node12</title>
<g id="a_node7"><a xlink:href="HamiltonianTwo_8cpp.html" target="_top" xlink:title="/travis/libpairinteraction\l/HamiltonianTwo.cpp">
<polygon fill="none" stroke="black" points="472,-67.5 472,-97.5 600,-97.5 600,-67.5 472,-67.5"/>
<text text-anchor="start" x="480" y="-85.5" font-family="Helvetica,sans-Serif" font-size="10.00">/travis/libpairinteraction</text>
<text text-anchor="middle" x="536" y="-74.5" font-family="Helvetica,sans-Serif" font-size="10.00">/HamiltonianTwo.cpp</text>
</a>
</g>
</g>
<!-- Node11&#45;&gt;Node12 -->
<g id="edge6" class="edge"><title>Node11&#45;&gt;Node12</title>
<path fill="none" stroke="midnightblue" d="M536,-124.108C536,-115.154 536,-105.323 536,-97.5765"/>
<polygon fill="midnightblue" stroke="midnightblue" points="532.5,-124.396 536,-134.396 539.5,-124.396 532.5,-124.396"/>
</g>
<!-- Node11&#45;&gt;Node13 -->
<g id="edge7" class="edge"><title>Node11&#45;&gt;Node13</title>
<path fill="none" stroke="midnightblue" d="M484.578,-131.092C453.584,-120.599 414.621,-107.408 385.58,-97.5765"/>
<polygon fill="midnightblue" stroke="midnightblue" points="483.745,-134.504 494.339,-134.396 485.989,-127.874 483.745,-134.504"/>
</g>
<!-- Node15&#45;&gt;Node9 -->
<g id="edge40" class="edge"><title>Node15&#45;&gt;Node9</title>
<path fill="none" stroke="midnightblue" d="M910.452,-501.963C784.888,-495.416 536.718,-479.773 453,-455 319.375,-415.459 247.245,-429.163 175,-310 165.323,-294.038 163.978,-283.065 175,-268 196.633,-238.431 235.711,-225.753 269.71,-220.494"/>
<polygon fill="midnightblue" stroke="midnightblue" points="910.578,-505.474 920.745,-502.494 910.939,-498.484 910.578,-505.474"/>
</g>
<!-- Node15&#45;&gt;Node11 -->
<g id="edge41" class="edge"><title>Node15&#45;&gt;Node11</title>
<path fill="none" stroke="midnightblue" d="M1059.13,-504.336C1104.37,-499.996 1160.84,-487.637 1200,-455 1232.41,-427.984 1238,-410.194 1238,-368 1238,-368 1238,-368 1238,-288 1238,-248.325 1248.1,-226.843 1218,-201 1171.75,-161.294 760.772,-152.794 600.037,-150.985"/>
<polygon fill="midnightblue" stroke="midnightblue" points="1058.74,-500.856 1049.07,-505.188 1059.33,-507.831 1058.74,-500.856"/>
</g>
<!-- Node16 -->
<g id="node11" class="node"><title>Node16</title>
<g id="a_node11"><a xlink:href="QuantumDefect_8h.html" target="_top" xlink:title="/travis/libpairinteraction\l/QuantumDefect.h">
<polygon fill="none" stroke="black" points="733,-424.5 733,-454.5 861,-454.5 861,-424.5 733,-424.5"/>
<text text-anchor="start" x="741" y="-442.5" font-family="Helvetica,sans-Serif" font-size="10.00">/travis/libpairinteraction</text>
<text text-anchor="middle" x="797" y="-431.5" font-family="Helvetica,sans-Serif" font-size="10.00">/QuantumDefect.h</text>
</a>
</g>
</g>
<!-- Node15&#45;&gt;Node16 -->
<g id="edge12" class="edge"><title>Node15&#45;&gt;Node16</title>
<path fill="none" stroke="midnightblue" d="M934.65,-488.092C904.301,-477.599 866.15,-464.408 837.714,-454.577"/>
<polygon fill="midnightblue" stroke="midnightblue" points="933.612,-491.436 944.207,-491.396 935.899,-484.82 933.612,-491.436"/>
</g>
<!-- Node19 -->
<g id="node14" class="node"><title>Node19</title>
<g id="a_node14"><a xlink:href="MatrixElements_8cpp.html" target="_top" xlink:title="/travis/libpairinteraction\l/MatrixElements.cpp">
<polygon fill="none" stroke="black" points="714,-201.5 714,-231.5 842,-231.5 842,-201.5 714,-201.5"/>
<text text-anchor="start" x="722" y="-219.5" font-family="Helvetica,sans-Serif" font-size="10.00">/travis/libpairinteraction</text>
<text text-anchor="middle" x="778" y="-208.5" font-family="Helvetica,sans-Serif" font-size="10.00">/MatrixElements.cpp</text>
</a>
</g>
</g>
<!-- Node15&#45;&gt;Node19 -->
<g id="edge43" class="edge"><title>Node15&#45;&gt;Node19</title>
<path fill="none" stroke="midnightblue" d="M1028.16,-487.155C1087.5,-459.266 1182.58,-403.358 1142,-346 1073.78,-249.574 926.961,-225.013 842.105,-219.068"/>
<polygon fill="midnightblue" stroke="midnightblue" points="1026.59,-484.024 1018.97,-491.386 1029.52,-490.383 1026.59,-484.024"/>
</g>
<!-- Node21 -->
<g id="node16" class="node"><title>Node21</title>
<g id="a_node16"><a xlink:href="MatrixElementCache_8cpp.html" target="_top" xlink:title="/travis/libpairinteraction\l/MatrixElementCache.cpp">
<polygon fill="none" stroke="black" points="1070.5,-201.5 1070.5,-231.5 1209.5,-231.5 1209.5,-201.5 1070.5,-201.5"/>
<text text-anchor="start" x="1078.5" y="-219.5" font-family="Helvetica,sans-Serif" font-size="10.00">/travis/libpairinteraction</text>
<text text-anchor="middle" x="1140" y="-208.5" font-family="Helvetica,sans-Serif" font-size="10.00">/MatrixElementCache.cpp</text>
</a>
</g>
</g>
<!-- Node15&#45;&gt;Node21 -->
<g id="edge42" class="edge"><title>Node15&#45;&gt;Node21</title>
<path fill="none" stroke="midnightblue" d="M1059,-495.351C1106.31,-487.173 1161.45,-473.902 1176,-455 1226.7,-389.148 1201.33,-347.158 1176,-268 1171.6,-254.258 1161.95,-241.066 1153.74,-231.613"/>
<polygon fill="midnightblue" stroke="midnightblue" points="1058.32,-491.916 1049.04,-497.019 1059.48,-498.819 1058.32,-491.916"/>
</g>
<!-- Node30 -->
<g id="node25" class="node"><title>Node30</title>
<g id="a_node25"><a xlink:href="wavefunction__test_8cpp.html" target="_top" xlink:title="/travis/libpairinteraction\l/unit_test/wavefunction\l_test.cpp">
<polygon fill="none" stroke="black" points="330,-268.5 330,-309.5 458,-309.5 458,-268.5 330,-268.5"/>
<text text-anchor="start" x="338" y="-297.5" font-family="Helvetica,sans-Serif" font-size="10.00">/travis/libpairinteraction</text>
<text text-anchor="start" x="338" y="-286.5" font-family="Helvetica,sans-Serif" font-size="10.00">/unit_test/wavefunction</text>
<text text-anchor="middle" x="394" y="-275.5" font-family="Helvetica,sans-Serif" font-size="10.00">_test.cpp</text>
</a>
</g>
</g>
<!-- Node15&#45;&gt;Node30 -->
<g id="edge47" class="edge"><title>Node15&#45;&gt;Node30</title>
<path fill="none" stroke="midnightblue" d="M910.804,-502.708C827.201,-498.124 687.854,-486.132 572,-455 498.733,-435.312 463.249,-446.547 415,-388 396.63,-365.71 393.254,-331.121 393.15,-309.556"/>
<polygon fill="midnightblue" stroke="midnightblue" points="910.798,-506.212 920.969,-503.244 911.167,-499.222 910.798,-506.212"/>
</g>
<!-- Node32 -->
<g id="node27" class="node"><title>Node32</title>
<g id="a_node27"><a xlink:href="QuantumDefect_8cpp.html" target="_top" xlink:title="/travis/libpairinteraction\l/QuantumDefect.cpp">
<polygon fill="none" stroke="black" points="844,-352 844,-382 972,-382 972,-352 844,-352"/>
<text text-anchor="start" x="852" y="-370" font-family="Helvetica,sans-Serif" font-size="10.00">/travis/libpairinteraction</text>
<text text-anchor="middle" x="908" y="-359" font-family="Helvetica,sans-Serif" font-size="10.00">/QuantumDefect.cpp</text>
</a>
</g>
</g>
<!-- Node15&#45;&gt;Node32 -->
<g id="edge44" class="edge"><title>Node15&#45;&gt;Node32</title>
<path fill="none" stroke="midnightblue" d="M972.072,-482.414C956.076,-453.849 929.328,-406.085 916.022,-382.326"/>
<polygon fill="midnightblue" stroke="midnightblue" points="969.11,-484.288 977.05,-491.303 975.217,-480.868 969.11,-484.288"/>
</g>
<!-- Node34 -->
<g id="node29" class="node"><title>Node34</title>
<g id="a_node29"><a xlink:href="quantum__defect__test_8cpp.html" target="_top" xlink:title="/travis/libpairinteraction\l/unit_test/quantum_defect\l_test.cpp">
<polygon fill="none" stroke="black" points="990.5,-346.5 990.5,-387.5 1133.5,-387.5 1133.5,-346.5 990.5,-346.5"/>
<text text-anchor="start" x="998.5" y="-375.5" font-family="Helvetica,sans-Serif" font-size="10.00">/travis/libpairinteraction</text>
<text text-anchor="start" x="998.5" y="-364.5" font-family="Helvetica,sans-Serif" font-size="10.00">/unit_test/quantum_defect</text>
<text text-anchor="middle" x="1062" y="-353.5" font-family="Helvetica,sans-Serif" font-size="10.00">_test.cpp</text>
</a>
</g>
</g>
<!-- Node15&#45;&gt;Node34 -->
<g id="edge45" class="edge"><title>Node15&#45;&gt;Node34</title>
<path fill="none" stroke="midnightblue" d="M997.98,-482.321C1012.87,-455.735 1037.02,-412.608 1051.01,-387.618"/>
<polygon fill="midnightblue" stroke="midnightblue" points="994.783,-480.868 992.95,-491.303 1000.89,-484.288 994.783,-480.868"/>
</g>
<!-- Node35 -->
<g id="node30" class="node"><title>Node35</title>
<g id="a_node30"><a xlink:href="sqlite__test_8cpp.html" target="_top" xlink:title="/travis/libpairinteraction\l/unit_test/sqlite_test.cpp">
<polygon fill="none" stroke="black" points="581,-424.5 581,-454.5 715,-454.5 715,-424.5 581,-424.5"/>
<text text-anchor="start" x="589" y="-442.5" font-family="Helvetica,sans-Serif" font-size="10.00">/travis/libpairinteraction</text>
<text text-anchor="middle" x="648" y="-431.5" font-family="Helvetica,sans-Serif" font-size="10.00">/unit_test/sqlite_test.cpp</text>
</a>
</g>
</g>
<!-- Node15&#45;&gt;Node35 -->
<g id="edge46" class="edge"><title>Node15&#45;&gt;Node35</title>
<path fill="none" stroke="midnightblue" d="M910.911,-491.21C852.474,-479.939 771.667,-464.353 715.115,-453.445"/>
<polygon fill="midnightblue" stroke="midnightblue" points="910.338,-494.664 920.82,-493.121 911.664,-487.79 910.338,-494.664"/>
</g>
<!-- Node17 -->
<g id="node12" class="node"><title>Node17</title>
<g id="a_node12"><a xlink:href="Wavefunction_8h.html" target="_top" xlink:title="/travis/libpairinteraction\l/Wavefunction.h">
<polygon fill="none" stroke="black" points="476,-352 476,-382 604,-382 604,-352 476,-352"/>
<text text-anchor="start" x="484" y="-370" font-family="Helvetica,sans-Serif" font-size="10.00">/travis/libpairinteraction</text>
<text text-anchor="middle" x="540" y="-359" font-family="Helvetica,sans-Serif" font-size="10.00">/Wavefunction.h</text>
</a>
</g>
</g>
<!-- Node16&#45;&gt;Node17 -->
<g id="edge13" class="edge"><title>Node16&#45;&gt;Node17</title>
<path fill="none" stroke="midnightblue" d="M736.186,-421.818C692.109,-409.727 633.164,-393.557 591.425,-382.107"/>
<polygon fill="midnightblue" stroke="midnightblue" points="735.348,-425.217 745.918,-424.487 737.2,-418.466 735.348,-425.217"/>
</g>
<!-- Node16&#45;&gt;Node19 -->
<g id="edge34" class="edge"><title>Node16&#45;&gt;Node19</title>
<path fill="none" stroke="midnightblue" d="M794.92,-414.302C790.942,-368.037 782.373,-268.363 779.207,-231.543"/>
<polygon fill="midnightblue" stroke="midnightblue" points="791.439,-414.676 795.783,-424.339 798.413,-414.076 791.439,-414.676"/>
</g>
<!-- Node16&#45;&gt;Node21 -->
<g id="edge33" class="edge"><title>Node16&#45;&gt;Node21</title>
<path fill="none" stroke="midnightblue" d="M801.479,-414.56C806.454,-394.003 816.371,-364.796 835,-346 899.615,-280.804 1002.36,-246.937 1070.48,-230.687"/>
<polygon fill="midnightblue" stroke="midnightblue" points="798.041,-413.901 799.308,-424.42 804.877,-415.406 798.041,-413.901"/>
</g>
<!-- Node16&#45;&gt;Node30 -->
<g id="edge38" class="edge"><title>Node16&#45;&gt;Node30</title>
<path fill="none" stroke="midnightblue" d="M723.025,-424.002C602.865,-406.766 554.505,-451.155 456,-388 427.357,-369.636 409.512,-332.809 400.691,-309.899"/>
<polygon fill="midnightblue" stroke="midnightblue" points="722.529,-427.467 732.947,-425.542 723.602,-420.55 722.529,-427.467"/>
</g>
<!-- Node31 -->
<g id="node26" class="node"><title>Node31</title>
<g id="a_node26"><a xlink:href="Wavefunction_8cpp.html" target="_top" xlink:title="/travis/libpairinteraction\l/Wavefunction.cpp">
<polygon fill="none" stroke="black" points="476,-274 476,-304 604,-304 604,-274 476,-274"/>
<text text-anchor="start" x="484" y="-292" font-family="Helvetica,sans-Serif" font-size="10.00">/travis/libpairinteraction</text>
<text text-anchor="middle" x="540" y="-281" font-family="Helvetica,sans-Serif" font-size="10.00">/Wavefunction.cpp</text>
</a>
</g>
</g>
<!-- Node16&#45;&gt;Node31 -->
<g id="edge39" class="edge"><title>Node16&#45;&gt;Node31</title>
<path fill="none" stroke="midnightblue" d="M722.64,-424.116C651.587,-415.907 502.996,-429.39 467,-388 454.75,-373.915 458.743,-362.741 467,-346 476.115,-327.52 494.58,-313.445 510.657,-304.028"/>
<polygon fill="midnightblue" stroke="midnightblue" points="722.555,-427.638 732.944,-425.562 723.527,-420.706 722.555,-427.638"/>
</g>
<!-- Node16&#45;&gt;Node32 -->
<g id="edge35" class="edge"><title>Node16&#45;&gt;Node32</title>
<path fill="none" stroke="midnightblue" d="M827.824,-418.922C846.243,-407.224 869.215,-392.634 885.843,-382.073"/>
<polygon fill="midnightblue" stroke="midnightblue" points="825.761,-416.087 819.196,-424.403 829.514,-421.996 825.761,-416.087"/>
</g>
<!-- Node33 -->
<g id="node28" class="node"><title>Node33</title>
<g id="a_node28"><a xlink:href="State_8cpp.html" target="_top" xlink:title="/travis/libpairinteraction\l/State.cpp">
<polygon fill="none" stroke="black" points="622,-352 622,-382 750,-382 750,-352 622,-352"/>
<text text-anchor="start" x="630" y="-370" font-family="Helvetica,sans-Serif" font-size="10.00">/travis/libpairinteraction</text>
<text text-anchor="middle" x="686" y="-359" font-family="Helvetica,sans-Serif" font-size="10.00">/State.cpp</text>
</a>
</g>
</g>
<!-- Node16&#45;&gt;Node33 -->
<g id="edge36" class="edge"><title>Node16&#45;&gt;Node33</title>
<path fill="none" stroke="midnightblue" d="M766.176,-418.922C747.757,-407.224 724.785,-392.634 708.157,-382.073"/>
<polygon fill="midnightblue" stroke="midnightblue" points="764.486,-421.996 774.804,-424.403 768.239,-416.087 764.486,-421.996"/>
</g>
<!-- Node16&#45;&gt;Node34 -->
<g id="edge37" class="edge"><title>Node16&#45;&gt;Node34</title>
<path fill="none" stroke="midnightblue" d="M859.393,-421.901C898.654,-411.456 949.45,-397.942 990.359,-387.059"/>
<polygon fill="midnightblue" stroke="midnightblue" points="858.436,-418.534 849.672,-424.487 860.236,-425.299 858.436,-418.534"/>
</g>
<!-- Node18 -->
<g id="node13" class="node"><title>Node18</title>
<g id="a_node13"><a xlink:href="MatrixElements_8h.html" target="_top" xlink:title="/travis/libpairinteraction\l/MatrixElements.h">
<polygon fill="none" stroke="black" points="622,-274 622,-304 750,-304 750,-274 622,-274"/>
<text text-anchor="start" x="630" y="-292" font-family="Helvetica,sans-Serif" font-size="10.00">/travis/libpairinteraction</text>
<text text-anchor="middle" x="686" y="-281" font-family="Helvetica,sans-Serif" font-size="10.00">/MatrixElements.h</text>
</a>
</g>
</g>
<!-- Node17&#45;&gt;Node18 -->
<g id="edge14" class="edge"><title>Node17&#45;&gt;Node18</title>
<path fill="none" stroke="midnightblue" d="M576.166,-347.174C601.826,-333.817 635.714,-316.176 659.026,-304.041"/>
<polygon fill="midnightblue" stroke="midnightblue" points="574.373,-344.161 567.119,-351.883 577.606,-350.37 574.373,-344.161"/>
</g>
<!-- Node17&#45;&gt;Node20 -->
<g id="edge18" class="edge"><title>Node17&#45;&gt;Node20</title>
<path fill="none" stroke="midnightblue" d="M596.152,-349.471C601.811,-348.15 607.498,-346.959 613,-346 852.622,-304.246 1142.55,-293.616 1268.93,-290.916"/>
<polygon fill="midnightblue" stroke="midnightblue" points="594.912,-346.172 586.042,-351.965 596.589,-352.968 594.912,-346.172"/>
</g>
<!-- Node17&#45;&gt;Node30 -->
<g id="edge31" class="edge"><title>Node17&#45;&gt;Node30</title>
<path fill="none" stroke="midnightblue" d="M503.877,-347.196C481.925,-335.769 453.939,-321.201 431.706,-309.628"/>
<polygon fill="midnightblue" stroke="midnightblue" points="502.394,-350.37 512.881,-351.883 505.627,-344.161 502.394,-350.37"/>
</g>
<!-- Node17&#45;&gt;Node31 -->
<g id="edge32" class="edge"><title>Node17&#45;&gt;Node31</title>
<path fill="none" stroke="midnightblue" d="M540,-341.59C540,-329.257 540,-314.724 540,-304.231"/>
<polygon fill="midnightblue" stroke="midnightblue" points="536.5,-341.705 540,-351.705 543.5,-341.705 536.5,-341.705"/>
</g>
<!-- Node18&#45;&gt;Node9 -->
<g id="edge15" class="edge"><title>Node18&#45;&gt;Node9</title>
<path fill="none" stroke="midnightblue" d="M627.233,-271.418C622.43,-270.21 617.641,-269.054 613,-268 539.795,-251.381 454.801,-236.641 398.04,-227.44"/>
<polygon fill="midnightblue" stroke="midnightblue" points="626.508,-274.845 637.066,-273.954 628.257,-268.067 626.508,-274.845"/>
</g>
<!-- Node18&#45;&gt;Node11 -->
<g id="edge16" class="edge"><title>Node18&#45;&gt;Node11</title>
<path fill="none" stroke="midnightblue" d="M662.818,-266.749C631.931,-238.437 578.111,-189.102 551.628,-164.826"/>
<polygon fill="midnightblue" stroke="midnightblue" points="660.776,-269.626 670.512,-273.803 665.506,-264.466 660.776,-269.626"/>
</g>
<!-- Node18&#45;&gt;Node19 -->
<g id="edge17" class="edge"><title>Node18&#45;&gt;Node19</title>
<path fill="none" stroke="midnightblue" d="M712.608,-267.61C727.721,-256.029 746.253,-241.828 759.724,-231.505"/>
<polygon fill="midnightblue" stroke="midnightblue" points="710.426,-264.873 704.618,-273.733 714.684,-270.429 710.426,-264.873"/>
</g>
<!-- Node20&#45;&gt;Node21 -->
<g id="edge19" class="edge"><title>Node20&#45;&gt;Node21</title>
<path fill="none" stroke="midnightblue" d="M1285,-270.465C1252.14,-258.462 1209.14,-242.758 1178.53,-231.573"/>
<polygon fill="midnightblue" stroke="midnightblue" points="1283.81,-273.759 1294.41,-273.903 1286.22,-267.184 1283.81,-273.759"/>
</g>
<!-- Node22 -->
<g id="node17" class="node"><title>Node22</title>
<g id="a_node17"><a xlink:href="PerturbativeInteraction_8h.html" target="_top" xlink:title="/travis/libpairinteraction\l/PerturbativeInteraction.h">
<polygon fill="none" stroke="black" points="1266,-201.5 1266,-231.5 1404,-231.5 1404,-201.5 1266,-201.5"/>
<text text-anchor="start" x="1274" y="-219.5" font-family="Helvetica,sans-Serif" font-size="10.00">/travis/libpairinteraction</text>
<text text-anchor="middle" x="1335" y="-208.5" font-family="Helvetica,sans-Serif" font-size="10.00">/PerturbativeInteraction.h</text>
</a>
</g>
</g>
<!-- Node20&#45;&gt;Node22 -->
<g id="edge20" class="edge"><title>Node20&#45;&gt;Node22</title>
<path fill="none" stroke="midnightblue" d="M1333.69,-263.732C1333.99,-253.068 1334.34,-240.914 1334.6,-231.746"/>
<polygon fill="midnightblue" stroke="midnightblue" points="1330.19,-263.638 1333.4,-273.733 1337.19,-263.837 1330.19,-263.638"/>
</g>
<!-- Node24 -->
<g id="node19" class="node"><title>Node24</title>
<g id="a_node19"><a xlink:href="SystemBase_8h.html" target="_top" xlink:title="/travis/libpairinteraction\l/SystemBase.h">
<polygon fill="none" stroke="black" points="1422,-201.5 1422,-231.5 1550,-231.5 1550,-201.5 1422,-201.5"/>
<text text-anchor="start" x="1430" y="-219.5" font-family="Helvetica,sans-Serif" font-size="10.00">/travis/libpairinteraction</text>
<text text-anchor="middle" x="1486" y="-208.5" font-family="Helvetica,sans-Serif" font-size="10.00">/SystemBase.h</text>
</a>
</g>
</g>
<!-- Node20&#45;&gt;Node24 -->
<g id="edge22" class="edge"><title>Node20&#45;&gt;Node24</title>
<path fill="none" stroke="midnightblue" d="M1372.74,-269.687C1398.56,-257.79 1431.71,-242.518 1455.46,-231.573"/>
<polygon fill="midnightblue" stroke="midnightblue" points="1371.21,-266.539 1363.59,-273.903 1374.14,-272.896 1371.21,-266.539"/>
</g>
<!-- Node29 -->
<g id="node24" class="node"><title>Node29</title>
<g id="a_node24"><a xlink:href="integration__test_8cpp.html" target="_top" xlink:title="/travis/libpairinteraction\l/unit_test/integration_test.cpp">
<polygon fill="none" stroke="black" points="1518.5,-0.5 1518.5,-30.5 1679.5,-30.5 1679.5,-0.5 1518.5,-0.5"/>
<text text-anchor="start" x="1526.5" y="-18.5" font-family="Helvetica,sans-Serif" font-size="10.00">/travis/libpairinteraction</text>
<text text-anchor="middle" x="1599" y="-7.5" font-family="Helvetica,sans-Serif" font-size="10.00">/unit_test/integration_test.cpp</text>
</a>
</g>
</g>
<!-- Node20&#45;&gt;Node29 -->
<g id="edge30" class="edge"><title>Node20&#45;&gt;Node29</title>
<path fill="none" stroke="midnightblue" d="M1407.16,-277.609C1464.29,-268.183 1537.09,-252.611 1559,-232 1616.64,-177.762 1607.02,-69.3969 1601.39,-30.667"/>
<polygon fill="midnightblue" stroke="midnightblue" points="1406.37,-274.192 1397.05,-279.241 1407.48,-281.102 1406.37,-274.192"/>
</g>
<!-- Node23 -->
<g id="node18" class="node"><title>Node23</title>
<g id="a_node18"><a xlink:href="PerturbativeInteraction_8cpp.html" target="_top" xlink:title="/travis/libpairinteraction\l/PerturbativeInteraction.cpp">
<polygon fill="none" stroke="black" points="1238.5,-134.5 1238.5,-164.5 1387.5,-164.5 1387.5,-134.5 1238.5,-134.5"/>
<text text-anchor="start" x="1246.5" y="-152.5" font-family="Helvetica,sans-Serif" font-size="10.00">/travis/libpairinteraction</text>
<text text-anchor="middle" x="1313" y="-141.5" font-family="Helvetica,sans-Serif" font-size="10.00">/PerturbativeInteraction.cpp</text>
</a>
</g>
</g>
<!-- Node22&#45;&gt;Node23 -->
<g id="edge21" class="edge"><title>Node22&#45;&gt;Node23</title>
<path fill="none" stroke="midnightblue" d="M1326.94,-191.697C1323.86,-182.587 1320.44,-172.493 1317.76,-164.577"/>
<polygon fill="midnightblue" stroke="midnightblue" points="1323.71,-193.046 1330.23,-201.396 1330.34,-190.802 1323.71,-193.046"/>
</g>
<!-- Node25 -->
<g id="node20" class="node"><title>Node25</title>
<g id="a_node20"><a xlink:href="SystemOne_8h.html" target="_top" xlink:title="/travis/libpairinteraction\l/SystemOne.h">
<polygon fill="none" stroke="black" points="1443,-134.5 1443,-164.5 1571,-164.5 1571,-134.5 1443,-134.5"/>
<text text-anchor="start" x="1451" y="-152.5" font-family="Helvetica,sans-Serif" font-size="10.00">/travis/libpairinteraction</text>
<text text-anchor="middle" x="1507" y="-141.5" font-family="Helvetica,sans-Serif" font-size="10.00">/SystemOne.h</text>
</a>
</g>
</g>
<!-- Node24&#45;&gt;Node25 -->
<g id="edge23" class="edge"><title>Node24&#45;&gt;Node25</title>
<path fill="none" stroke="midnightblue" d="M1493.69,-191.697C1496.63,-182.587 1499.89,-172.493 1502.45,-164.577"/>
<polygon fill="midnightblue" stroke="midnightblue" points="1490.3,-190.804 1490.56,-201.396 1496.96,-192.956 1490.3,-190.804"/>
</g>
<!-- Node27 -->
<g id="node22" class="node"><title>Node27</title>
<g id="a_node22"><a xlink:href="SystemTwo_8h.html" target="_top" xlink:title="/travis/libpairinteraction\l/SystemTwo.h">
<polygon fill="none" stroke="black" points="1297,-67.5 1297,-97.5 1425,-97.5 1425,-67.5 1297,-67.5"/>
<text text-anchor="start" x="1305" y="-85.5" font-family="Helvetica,sans-Serif" font-size="10.00">/travis/libpairinteraction</text>
<text text-anchor="middle" x="1361" y="-74.5" font-family="Helvetica,sans-Serif" font-size="10.00">/SystemTwo.h</text>
</a>
</g>
</g>
<!-- Node24&#45;&gt;Node27 -->
<g id="edge29" class="edge"><title>Node24&#45;&gt;Node27</title>
<path fill="none" stroke="midnightblue" d="M1463.35,-194.162C1454.1,-185.285 1443.4,-174.785 1434,-165 1411.89,-141.984 1387.36,-114.078 1373.11,-97.6113"/>
<polygon fill="midnightblue" stroke="midnightblue" points="1461.06,-196.815 1470.71,-201.186 1465.89,-191.751 1461.06,-196.815"/>
</g>
<!-- Node26 -->
<g id="node21" class="node"><title>Node26</title>
<g id="a_node21"><a xlink:href="SystemOne_8cpp.html" target="_top" xlink:title="/travis/libpairinteraction\l/SystemOne.cpp">
<polygon fill="none" stroke="black" points="1443,-67.5 1443,-97.5 1571,-97.5 1571,-67.5 1443,-67.5"/>
<text text-anchor="start" x="1451" y="-85.5" font-family="Helvetica,sans-Serif" font-size="10.00">/travis/libpairinteraction</text>
<text text-anchor="middle" x="1507" y="-74.5" font-family="Helvetica,sans-Serif" font-size="10.00">/SystemOne.cpp</text>
</a>
</g>
</g>
<!-- Node25&#45;&gt;Node26 -->
<g id="edge24" class="edge"><title>Node25&#45;&gt;Node26</title>
<path fill="none" stroke="midnightblue" d="M1507,-124.108C1507,-115.154 1507,-105.323 1507,-97.5765"/>
<polygon fill="midnightblue" stroke="midnightblue" points="1503.5,-124.396 1507,-134.396 1510.5,-124.396 1503.5,-124.396"/>
</g>
<!-- Node25&#45;&gt;Node27 -->
<g id="edge25" class="edge"><title>Node25&#45;&gt;Node27</title>
<path fill="none" stroke="midnightblue" d="M1466.05,-130.269C1442.8,-119.916 1414.13,-107.153 1392.62,-97.5765"/>
<polygon fill="midnightblue" stroke="midnightblue" points="1464.76,-133.526 1475.32,-134.396 1467.61,-127.131 1464.76,-133.526"/>
</g>
<!-- Node25&#45;&gt;Node29 -->
<g id="edge28" class="edge"><title>Node25&#45;&gt;Node29</title>
<path fill="none" stroke="midnightblue" d="M1545.65,-129.277C1558.31,-121.222 1571.34,-110.734 1580,-98 1593.97,-77.4578 1597.76,-47.9948 1598.73,-30.6943"/>
<polygon fill="midnightblue" stroke="midnightblue" points="1543.78,-126.318 1537.01,-134.462 1547.38,-132.322 1543.78,-126.318"/>
</g>
<!-- Node28 -->
<g id="node23" class="node"><title>Node28</title>
<g id="a_node23"><a xlink:href="SystemTwo_8cpp.html" target="_top" xlink:title="/travis/libpairinteraction\l/SystemTwo.cpp">
<polygon fill="none" stroke="black" points="1297,-0.5 1297,-30.5 1425,-30.5 1425,-0.5 1297,-0.5"/>
<text text-anchor="start" x="1305" y="-18.5" font-family="Helvetica,sans-Serif" font-size="10.00">/travis/libpairinteraction</text>
<text text-anchor="middle" x="1361" y="-7.5" font-family="Helvetica,sans-Serif" font-size="10.00">/SystemTwo.cpp</text>
</a>
</g>
</g>
<!-- Node27&#45;&gt;Node28 -->
<g id="edge26" class="edge"><title>Node27&#45;&gt;Node28</title>
<path fill="none" stroke="midnightblue" d="M1361,-57.1081C1361,-48.1539 1361,-38.3227 1361,-30.5765"/>
<polygon fill="midnightblue" stroke="midnightblue" points="1357.5,-57.3959 1361,-67.396 1364.5,-57.396 1357.5,-57.3959"/>
</g>
<!-- Node27&#45;&gt;Node29 -->
<g id="edge27" class="edge"><title>Node27&#45;&gt;Node29</title>
<path fill="none" stroke="midnightblue" d="M1422.46,-64.7149C1461.19,-54.1373 1510.63,-40.6348 1547.33,-30.6109"/>
<polygon fill="midnightblue" stroke="midnightblue" points="1421.07,-61.465 1412.35,-67.476 1422.92,-68.2177 1421.07,-61.465"/>
</g>
</g>
</svg>
