<?xml version="1.0" encoding="UTF-8" standalone="no"?>
<!DOCTYPE svg PUBLIC "-//W3C//DTD SVG 1.1//EN"
 "http://www.w3.org/Graphics/SVG/1.1/DTD/svg11.dtd">
<!-- Generated by graphviz version 2.38.0 (20140413.2041)
 -->
<!-- Title: /travis/libpairinteraction/Wavefunction.h Pages: 1 -->
<svg width="1443pt" height="274pt"
 viewBox="0.00 0.00 1442.50 274.00" xmlns="http://www.w3.org/2000/svg" xmlns:xlink="http://www.w3.org/1999/xlink">
<g id="graph0" class="graph" transform="scale(1 1) rotate(0) translate(4 270)">
<title>/travis/libpairinteraction/Wavefunction.h</title>
<!-- Node0 -->
<g id="node1" class="node"><title>Node0</title>
<polygon fill="#bfbfbf" stroke="black" points="918,-235.5 918,-265.5 1046,-265.5 1046,-235.5 918,-235.5"/>
<text text-anchor="start" x="926" y="-253.5" font-family="Helvetica,sans-Serif" font-size="10.00">/travis/libpairinteraction</text>
<text text-anchor="middle" x="982" y="-242.5" font-family="Helvetica,sans-Serif" font-size="10.00">/Wavefunction.h</text>
</g>
<!-- Node1 -->
<g id="node2" class="node"><title>Node1</title>
<g id="a_node2"><a xlink:href="QuantumDefect_8h.html" target="_top" xlink:title="QuantumDefect.h">
<polygon fill="none" stroke="black" points="842,-179.5 842,-198.5 944,-198.5 944,-179.5 842,-179.5"/>
<text text-anchor="middle" x="893" y="-186.5" font-family="Helvetica,sans-Serif" font-size="10.00">QuantumDefect.h</text>
</a>
</g>
</g>
<!-- Node0&#45;&gt;Node1 -->
<g id="edge1" class="edge"><title>Node0&#45;&gt;Node1</title>
<path fill="none" stroke="midnightblue" d="M960.908,-235.399C946.909,-226.04 928.589,-213.792 914.505,-204.377"/>
<polygon fill="midnightblue" stroke="midnightblue" points="916.209,-201.306 905.95,-198.658 912.318,-207.125 916.209,-201.306"/>
</g>
<!-- Node11 -->
<g id="node12" class="node"><title>Node11</title>
<polygon fill="none" stroke="#bfbfbf" points="706,-62 706,-81 750,-81 750,-62 706,-62"/>
<text text-anchor="middle" x="728" y="-69" font-family="Helvetica,sans-Serif" font-size="10.00">string</text>
</g>
<!-- Node0&#45;&gt;Node11 -->
<g id="edge35" class="edge"><title>Node0&#45;&gt;Node11</title>
<path fill="none" stroke="midnightblue" d="M917.735,-240.031C823.214,-224.642 653.98,-191.015 618,-143 581.585,-94.4043 652.353,-107.614 697,-87 698.153,-86.4676 699.33,-85.9231 700.518,-85.3721"/>
<polygon fill="midnightblue" stroke="midnightblue" points="702.067,-88.5117 709.655,-81.1175 699.112,-82.1659 702.067,-88.5117"/>
</g>
<!-- Node21 -->
<g id="node22" class="node"><title>Node21</title>
<g id="a_node22"><a xlink:href="dtypes_8h.html" target="_top" xlink:title="dtypes.h">
<polygon fill="none" stroke="black" points="1144,-123.5 1144,-142.5 1202,-142.5 1202,-123.5 1144,-123.5"/>
<text text-anchor="middle" x="1173" y="-130.5" font-family="Helvetica,sans-Serif" font-size="10.00">dtypes.h</text>
</a>
</g>
</g>
<!-- Node0&#45;&gt;Node21 -->
<g id="edge34" class="edge"><title>Node0&#45;&gt;Node21</title>
<path fill="none" stroke="midnightblue" d="M1005.42,-235.337C1042.18,-213.108 1113,-170.28 1149.69,-148.093"/>
<polygon fill="midnightblue" stroke="midnightblue" points="1151.92,-150.839 1158.66,-142.669 1148.3,-144.849 1151.92,-150.839"/>
</g>
<!-- Node26 -->
<g id="node27" class="node"><title>Node26</title>
<polygon fill="none" stroke="#bfbfbf" points="1387.5,-62 1387.5,-81 1434.5,-81 1434.5,-62 1387.5,-62"/>
<text text-anchor="middle" x="1411" y="-69" font-family="Helvetica,sans-Serif" font-size="10.00">vector</text>
</g>
<!-- Node0&#45;&gt;Node26 -->
<g id="edge36" class="edge"><title>Node0&#45;&gt;Node26</title>
<path fill="none" stroke="midnightblue" d="M1017.08,-235.441C1086.31,-207.623 1245.31,-143.367 1378,-87 1379.4,-86.4036 1380.84,-85.7893 1382.29,-85.166"/>
<polygon fill="midnightblue" stroke="midnightblue" points="1384.06,-88.2106 1391.84,-81.014 1381.27,-81.7909 1384.06,-88.2106"/>
</g>
<!-- Node2 -->
<g id="node3" class="node"><title>Node2</title>
<g id="a_node3"><a xlink:href="Cache_8h.html" target="_top" xlink:title="Cache.h">
<polygon fill="none" stroke="black" points="921,-123.5 921,-142.5 977,-142.5 977,-123.5 921,-123.5"/>
<text text-anchor="middle" x="949" y="-130.5" font-family="Helvetica,sans-Serif" font-size="10.00">Cache.h</text>
</a>
</g>
</g>
<!-- Node1&#45;&gt;Node2 -->
<g id="edge2" class="edge"><title>Node1&#45;&gt;Node2</title>
<path fill="none" stroke="midnightblue" d="M901.997,-179.324C910.194,-171.42 922.506,-159.548 932.472,-149.938"/>
<polygon fill="midnightblue" stroke="midnightblue" points="935.07,-152.295 939.839,-142.834 930.211,-147.256 935.07,-152.295"/>
</g>
<!-- Node3 -->
<g id="node4" class="node"><title>Node3</title>
<polygon fill="none" stroke="#bfbfbf" points="768.5,-62 768.5,-81 815.5,-81 815.5,-62 768.5,-62"/>
<text text-anchor="middle" x="792" y="-69" font-family="Helvetica,sans-Serif" font-size="10.00">mutex</text>
</g>
<!-- Node1&#45;&gt;Node3 -->
<g id="edge29" class="edge"><title>Node1&#45;&gt;Node3</title>
<path fill="none" stroke="midnightblue" d="M891.56,-179.141C889.01,-165.758 882.63,-140.133 869,-123 856.271,-106.999 837.041,-94.3814 820.984,-85.7603"/>
<polygon fill="midnightblue" stroke="midnightblue" points="822.466,-82.5873 811.969,-81.1508 819.279,-88.8198 822.466,-82.5873"/>
</g>
<!-- Node4 -->
<g id="node5" class="node"><title>Node4</title>
<polygon fill="none" stroke="#bfbfbf" points="958.5,-62 958.5,-81 1051.5,-81 1051.5,-62 958.5,-62"/>
<text text-anchor="middle" x="1005" y="-69" font-family="Helvetica,sans-Serif" font-size="10.00">unordered_map</text>
</g>
<!-- Node1&#45;&gt;Node4 -->
<g id="edge32" class="edge"><title>Node1&#45;&gt;Node4</title>
<path fill="none" stroke="midnightblue" d="M926.692,-179.389C946.644,-172.629 970.898,-161.235 986,-143 997.984,-128.53 1002.46,-107.183 1004.11,-91.7724"/>
<polygon fill="midnightblue" stroke="midnightblue" points="1007.63,-91.592 1004.89,-81.3577 1000.65,-91.067 1007.63,-91.592"/>
</g>
<!-- Node6 -->
<g id="node7" class="node"><title>Node6</title>
<g id="a_node7"><a xlink:href="SQLite_8h.html" target="_top" xlink:title="SQLite.h">
<polygon fill="none" stroke="black" points="407.5,-123.5 407.5,-142.5 464.5,-142.5 464.5,-123.5 407.5,-123.5"/>
<text text-anchor="middle" x="436" y="-130.5" font-family="Helvetica,sans-Serif" font-size="10.00">SQLite.h</text>
</a>
</g>
</g>
<!-- Node1&#45;&gt;Node6 -->
<g id="edge6" class="edge"><title>Node1&#45;&gt;Node6</title>
<path fill="none" stroke="midnightblue" d="M841.907,-181.963C749.64,-171.06 557.165,-148.317 474.777,-138.582"/>
<polygon fill="midnightblue" stroke="midnightblue" points="474.937,-135.077 464.595,-137.379 474.115,-142.028 474.937,-135.077"/>
</g>
<!-- Node1&#45;&gt;Node11 -->
<g id="edge30" class="edge"><title>Node1&#45;&gt;Node11</title>
<path fill="none" stroke="midnightblue" d="M887.25,-179.403C877.868,-165.907 858.083,-139.583 836,-123 835.945,-122.958 787.617,-100.366 755.637,-85.4176"/>
<polygon fill="midnightblue" stroke="midnightblue" points="756.849,-82.121 746.308,-81.0572 753.885,-88.4625 756.849,-82.121"/>
</g>
<!-- Node1&#45;&gt;Node21 -->
<g id="edge23" class="edge"><title>Node1&#45;&gt;Node21</title>
<path fill="none" stroke="midnightblue" d="M937.367,-179.444C991.466,-169.01 1082.06,-151.538 1133.74,-141.572"/>
<polygon fill="midnightblue" stroke="midnightblue" points="1134.68,-144.955 1143.84,-139.624 1133.35,-138.081 1134.68,-144.955"/>
</g>
<!-- Node27 -->
<g id="node28" class="node"><title>Node27</title>
<polygon fill="none" stroke="#bfbfbf" points="627.5,-123.5 627.5,-142.5 668.5,-142.5 668.5,-123.5 627.5,-123.5"/>
<text text-anchor="middle" x="648" y="-130.5" font-family="Helvetica,sans-Serif" font-size="10.00">tuple</text>
</g>
<!-- Node1&#45;&gt;Node27 -->
<g id="edge31" class="edge"><title>Node1&#45;&gt;Node27</title>
<path fill="none" stroke="midnightblue" d="M846.604,-179.473C805.018,-171.565 742.167,-158.961 678.415,-142.926"/>
<polygon fill="midnightblue" stroke="midnightblue" points="679.147,-139.5 668.592,-140.429 677.422,-146.285 679.147,-139.5"/>
</g>
<!-- Node28 -->
<g id="node29" class="node"><title>Node28</title>
<polygon fill="none" stroke="#bfbfbf" points="687,-123.5 687,-142.5 827,-142.5 827,-123.5 687,-123.5"/>
<text text-anchor="middle" x="757" y="-130.5" font-family="Helvetica,sans-Serif" font-size="10.00">boost/functional/hash.hpp</text>
</g>
<!-- Node1&#45;&gt;Node28 -->
<g id="edge33" class="edge"><title>Node1&#45;&gt;Node28</title>
<path fill="none" stroke="midnightblue" d="M871.45,-179.444C848.969,-170.517 813.512,-156.439 788.02,-146.317"/>
<polygon fill="midnightblue" stroke="midnightblue" points="789.035,-142.954 778.449,-142.516 786.451,-149.46 789.035,-142.954"/>
</g>
<!-- Node2&#45;&gt;Node3 -->
<g id="edge3" class="edge"><title>Node2&#45;&gt;Node3</title>
<path fill="none" stroke="midnightblue" d="M923.642,-123.347C898.449,-114.622 858.802,-100.542 825,-87 823.584,-86.4327 822.139,-85.842 820.682,-85.2375"/>
<polygon fill="midnightblue" stroke="midnightblue" points="821.676,-81.8562 811.105,-81.1491 818.928,-88.2941 821.676,-81.8562"/>
</g>
<!-- Node2&#45;&gt;Node4 -->
<g id="edge4" class="edge"><title>Node2&#45;&gt;Node4</title>
<path fill="none" stroke="midnightblue" d="M957.023,-123.475C965.59,-114.373 979.361,-99.741 989.957,-88.483"/>
<polygon fill="midnightblue" stroke="midnightblue" points="992.686,-90.6899 996.991,-81.0091 987.589,-85.8923 992.686,-90.6899"/>
</g>
<!-- Node5 -->
<g id="node6" class="node"><title>Node5</title>
<polygon fill="none" stroke="#bfbfbf" points="834,-62 834,-81 940,-81 940,-62 834,-62"/>
<text text-anchor="middle" x="887" y="-69" font-family="Helvetica,sans-Serif" font-size="10.00">boost/optional.hpp</text>
</g>
<!-- Node2&#45;&gt;Node5 -->
<g id="edge5" class="edge"><title>Node2&#45;&gt;Node5</title>
<path fill="none" stroke="midnightblue" d="M940.117,-123.475C930.541,-114.285 915.089,-99.4563 903.314,-88.156"/>
<polygon fill="midnightblue" stroke="midnightblue" points="905.505,-85.408 895.867,-81.0091 900.658,-90.4585 905.505,-85.408"/>
</g>
<!-- Node7 -->
<g id="node8" class="node"><title>Node7</title>
<polygon fill="none" stroke="#bfbfbf" points="441.5,-62 441.5,-81 500.5,-81 500.5,-62 441.5,-62"/>
<text text-anchor="middle" x="471" y="-69" font-family="Helvetica,sans-Serif" font-size="10.00">iostream</text>
</g>
<!-- Node6&#45;&gt;Node7 -->
<g id="edge7" class="edge"><title>Node6&#45;&gt;Node7</title>
<path fill="none" stroke="midnightblue" d="M441.015,-123.475C446.161,-114.727 454.312,-100.869 460.818,-89.8093"/>
<polygon fill="midnightblue" stroke="midnightblue" points="463.941,-91.403 465.995,-81.0091 457.908,-87.8539 463.941,-91.403"/>
</g>
<!-- Node8 -->
<g id="node9" class="node"><title>Node8</title>
<polygon fill="none" stroke="#bfbfbf" points="518.5,-62 518.5,-81 575.5,-81 575.5,-62 518.5,-62"/>
<text text-anchor="middle" x="547" y="-69" font-family="Helvetica,sans-Serif" font-size="10.00">memory</text>
</g>
<!-- Node6&#45;&gt;Node8 -->
<g id="edge8" class="edge"><title>Node6&#45;&gt;Node8</title>
<path fill="none" stroke="midnightblue" d="M451.904,-123.475C470.285,-113.622 500.756,-97.2883 522.245,-85.7697"/>
<polygon fill="midnightblue" stroke="midnightblue" points="523.966,-88.8183 531.126,-81.0091 520.659,-82.6488 523.966,-88.8183"/>
</g>
<!-- Node9 -->
<g id="node10" class="node"><title>Node9</title>
<polygon fill="none" stroke="#bfbfbf" points="549,-0.5 549,-19.5 603,-19.5 603,-0.5 549,-0.5"/>
<text text-anchor="middle" x="576" y="-7.5" font-family="Helvetica,sans-Serif" font-size="10.00">random</text>
</g>
<!-- Node6&#45;&gt;Node9 -->
<g id="edge9" class="edge"><title>Node6&#45;&gt;Node9</title>
<path fill="none" stroke="midnightblue" d="M464.766,-132.623C499.474,-131.623 556.575,-124.003 584,-87 596.313,-70.387 590.667,-45.832 584.367,-29.1635"/>
<polygon fill="midnightblue" stroke="midnightblue" points="587.413,-27.3766 580.314,-19.5116 580.959,-30.0868 587.413,-27.3766"/>
</g>
<!-- Node10 -->
<g id="node11" class="node"><title>Node10</title>
<polygon fill="none" stroke="#bfbfbf" points="632,-62 632,-81 688,-81 688,-62 632,-62"/>
<text text-anchor="middle" x="660" y="-69" font-family="Helvetica,sans-Serif" font-size="10.00">sstream</text>
</g>
<!-- Node6&#45;&gt;Node10 -->
<g id="edge10" class="edge"><title>Node6&#45;&gt;Node10</title>
<path fill="none" stroke="midnightblue" d="M464.585,-125.77C500.61,-117.728 564.313,-102.87 618,-87 620.938,-86.1315 623.976,-85.1834 627.011,-84.2014"/>
<polygon fill="midnightblue" stroke="midnightblue" points="628.199,-87.4946 636.574,-81.0049 625.98,-80.8556 628.199,-87.4946"/>
</g>
<!-- Node6&#45;&gt;Node11 -->
<g id="edge11" class="edge"><title>Node6&#45;&gt;Node11</title>
<path fill="none" stroke="midnightblue" d="M464.782,-129.567C513.51,-124.891 614.961,-112.749 697,-87 698.871,-86.4128 700.774,-85.7361 702.671,-85.0027"/>
<polygon fill="midnightblue" stroke="midnightblue" points="704.12,-88.1894 711.916,-81.0149 701.348,-81.7619 704.12,-88.1894"/>
</g>
<!-- Node12 -->
<g id="node13" class="node"><title>Node12</title>
<polygon fill="none" stroke="#bfbfbf" points="0,-62 0,-81 48,-81 48,-62 0,-62"/>
<text text-anchor="middle" x="24" y="-69" font-family="Helvetica,sans-Serif" font-size="10.00">thread</text>
</g>
<!-- Node6&#45;&gt;Node12 -->
<g id="edge12" class="edge"><title>Node6&#45;&gt;Node12</title>
<path fill="none" stroke="midnightblue" d="M407.424,-130.942C344.258,-128.088 188.347,-118.205 62,-87 59.1722,-86.3016 56.2691,-85.4518 53.3884,-84.5175"/>
<polygon fill="midnightblue" stroke="midnightblue" points="54.417,-81.1686 43.8223,-81.1128 52.0698,-87.7633 54.417,-81.1686"/>
</g>
<!-- Node13 -->
<g id="node14" class="node"><title>Node13</title>
<polygon fill="none" stroke="#bfbfbf" points="124,-0.5 124,-19.5 192,-19.5 192,-0.5 124,-0.5"/>
<text text-anchor="middle" x="158" y="-7.5" font-family="Helvetica,sans-Serif" font-size="10.00">type_traits</text>
</g>
<!-- Node6&#45;&gt;Node13 -->
<g id="edge13" class="edge"><title>Node6&#45;&gt;Node13</title>
<path fill="none" stroke="midnightblue" d="M407.256,-130.345C328.811,-125.536 115.519,-110.405 95,-87 85.9173,-76.6399 88.6955,-68.2508 95,-56 102.077,-42.2475 115.521,-31.7663 128.178,-24.3942"/>
<polygon fill="midnightblue" stroke="midnightblue" points="129.999,-27.3888 137.153,-19.5733 126.687,-21.2221 129.999,-27.3888"/>
</g>
<!-- Node14 -->
<g id="node15" class="node"><title>Node14</title>
<polygon fill="none" stroke="#bfbfbf" points="104,-56.5 104,-86.5 224,-86.5 224,-56.5 104,-56.5"/>
<text text-anchor="start" x="112" y="-74.5" font-family="Helvetica,sans-Serif" font-size="10.00">boost/iterator/iterator</text>
<text text-anchor="middle" x="164" y="-63.5" font-family="Helvetica,sans-Serif" font-size="10.00">_facade.hpp</text>
</g>
<!-- Node6&#45;&gt;Node14 -->
<g id="edge14" class="edge"><title>Node6&#45;&gt;Node14</title>
<path fill="none" stroke="midnightblue" d="M407.405,-125.745C366.617,-116.822 290.44,-100.159 234.128,-87.8404"/>
<polygon fill="midnightblue" stroke="midnightblue" points="234.728,-84.3891 224.211,-85.6712 233.232,-91.2274 234.728,-84.3891"/>
</g>
<!-- Node15 -->
<g id="node16" class="node"><title>Node15</title>
<polygon fill="none" stroke="#bfbfbf" points="242.5,-62 242.5,-81 299.5,-81 299.5,-62 242.5,-62"/>
<text text-anchor="middle" x="271" y="-69" font-family="Helvetica,sans-Serif" font-size="10.00">sqlite3.h</text>
</g>
<!-- Node6&#45;&gt;Node15 -->
<g id="edge15" class="edge"><title>Node6&#45;&gt;Node15</title>
<path fill="none" stroke="midnightblue" d="M411.115,-123.38C385.464,-114.449 344.345,-100.003 309,-87 306.9,-86.2275 304.738,-85.424 302.561,-84.6091"/>
<polygon fill="midnightblue" stroke="midnightblue" points="303.661,-81.2835 293.07,-81.0239 301.188,-87.8318 303.661,-81.2835"/>
</g>
<!-- Node16 -->
<g id="node17" class="node"><title>Node16</title>
<polygon fill="none" stroke="#bfbfbf" points="318,-62 318,-81 360,-81 360,-62 318,-62"/>
<text text-anchor="middle" x="339" y="-69" font-family="Helvetica,sans-Serif" font-size="10.00">utility</text>
</g>
<!-- Node6&#45;&gt;Node16 -->
<g id="edge16" class="edge"><title>Node6&#45;&gt;Node16</title>
<path fill="none" stroke="midnightblue" d="M422.102,-123.475C406.328,-113.799 380.363,-97.8721 361.651,-86.3941"/>
<polygon fill="midnightblue" stroke="midnightblue" points="363.226,-83.2544 352.872,-81.0091 359.566,-89.2213 363.226,-83.2544"/>
</g>
<!-- Node17 -->
<g id="node18" class="node"><title>Node17</title>
<g id="a_node18"><a xlink:href="utils_8h.html" target="_top" xlink:title="utils.h">
<polygon fill="none" stroke="black" points="378.5,-62 378.5,-81 423.5,-81 423.5,-62 378.5,-62"/>
<text text-anchor="middle" x="401" y="-69" font-family="Helvetica,sans-Serif" font-size="10.00">utils.h</text>
</a>
</g>
</g>
<!-- Node6&#45;&gt;Node17 -->
<g id="edge17" class="edge"><title>Node6&#45;&gt;Node17</title>
<path fill="none" stroke="midnightblue" d="M430.985,-123.475C425.839,-114.727 417.688,-100.869 411.182,-89.8093"/>
<polygon fill="midnightblue" stroke="midnightblue" points="414.092,-87.8539 406.005,-81.0091 408.059,-91.403 414.092,-87.8539"/>
</g>
<!-- Node17&#45;&gt;Node9 -->
<g id="edge20" class="edge"><title>Node17&#45;&gt;Node9</title>
<path fill="none" stroke="midnightblue" d="M418.201,-61.953C422.645,-59.8839 427.458,-57.7627 432,-56 467.713,-42.1403 509.62,-29.4291 538.988,-21.0779"/>
<polygon fill="midnightblue" stroke="midnightblue" points="540.144,-24.3887 548.822,-18.3111 538.248,-17.6504 540.144,-24.3887"/>
</g>
<!-- Node17&#45;&gt;Node13 -->
<g id="edge21" class="edge"><title>Node17&#45;&gt;Node13</title>
<path fill="none" stroke="midnightblue" d="M383.999,-61.978C379.229,-59.8132 373.983,-57.639 369,-56 312.673,-37.4722 245.322,-24.6509 202.121,-17.5636"/>
<polygon fill="midnightblue" stroke="midnightblue" points="202.644,-14.1027 192.215,-15.9696 201.532,-21.0138 202.644,-14.1027"/>
</g>
<!-- Node18 -->
<g id="node19" class="node"><title>Node18</title>
<polygon fill="none" stroke="#bfbfbf" points="446.5,-0.5 446.5,-19.5 503.5,-19.5 503.5,-0.5 446.5,-0.5"/>
<text text-anchor="middle" x="475" y="-7.5" font-family="Helvetica,sans-Serif" font-size="10.00">complex</text>
</g>
<!-- Node17&#45;&gt;Node18 -->
<g id="edge18" class="edge"><title>Node17&#45;&gt;Node18</title>
<path fill="none" stroke="midnightblue" d="M411.602,-61.9751C423.252,-52.6082 442.186,-37.3839 456.335,-26.0081"/>
<polygon fill="midnightblue" stroke="midnightblue" points="458.817,-28.503 464.417,-19.5091 454.431,-23.0477 458.817,-28.503"/>
</g>
<!-- Node19 -->
<g id="node20" class="node"><title>Node19</title>
<polygon fill="none" stroke="#bfbfbf" points="292.5,-0.5 292.5,-19.5 355.5,-19.5 355.5,-0.5 292.5,-0.5"/>
<text text-anchor="middle" x="324" y="-7.5" font-family="Helvetica,sans-Serif" font-size="10.00">functional</text>
</g>
<!-- Node17&#45;&gt;Node19 -->
<g id="edge19" class="edge"><title>Node17&#45;&gt;Node19</title>
<path fill="none" stroke="midnightblue" d="M389.968,-61.9751C377.732,-52.5199 357.771,-37.0961 343.007,-25.6871"/>
<polygon fill="midnightblue" stroke="midnightblue" points="345.065,-22.8541 335.012,-19.5091 340.785,-28.3931 345.065,-22.8541"/>
</g>
<!-- Node20 -->
<g id="node21" class="node"><title>Node20</title>
<polygon fill="none" stroke="#bfbfbf" points="373.5,-0.5 373.5,-19.5 428.5,-19.5 428.5,-0.5 373.5,-0.5"/>
<text text-anchor="middle" x="401" y="-7.5" font-family="Helvetica,sans-Serif" font-size="10.00">unistd.h</text>
</g>
<!-- Node17&#45;&gt;Node20 -->
<g id="edge22" class="edge"><title>Node17&#45;&gt;Node20</title>
<path fill="none" stroke="midnightblue" d="M401,-61.9751C401,-53.5803 401,-40.4806 401,-29.6631"/>
<polygon fill="midnightblue" stroke="midnightblue" points="404.5,-29.5091 401,-19.5091 397.5,-29.5091 404.5,-29.5091"/>
</g>
<!-- Node22 -->
<g id="node23" class="node"><title>Node22</title>
<polygon fill="none" stroke="#bfbfbf" points="1134.5,-62 1134.5,-81 1211.5,-81 1211.5,-62 1134.5,-62"/>
<text text-anchor="middle" x="1173" y="-69" font-family="Helvetica,sans-Serif" font-size="10.00">Eigen/Dense</text>
</g>
<!-- Node21&#45;&gt;Node22 -->
<g id="edge24" class="edge"><title>Node21&#45;&gt;Node22</title>
<path fill="none" stroke="midnightblue" d="M1173,-123.475C1173,-115.08 1173,-101.981 1173,-91.1631"/>
<polygon fill="midnightblue" stroke="midnightblue" points="1176.5,-91.0091 1173,-81.0091 1169.5,-91.0091 1176.5,-91.0091"/>
</g>
<!-- Node23 -->
<g id="node24" class="node"><title>Node23</title>
<polygon fill="none" stroke="#bfbfbf" points="1230,-62 1230,-81 1310,-81 1310,-62 1230,-62"/>
<text text-anchor="middle" x="1270" y="-69" font-family="Helvetica,sans-Serif" font-size="10.00">Eigen/Sparse</text>
</g>
<!-- Node21&#45;&gt;Node23 -->
<g id="edge25" class="edge"><title>Node21&#45;&gt;Node23</title>
<path fill="none" stroke="midnightblue" d="M1186.9,-123.475C1202.67,-113.799 1228.64,-97.8721 1247.35,-86.3941"/>
<polygon fill="midnightblue" stroke="midnightblue" points="1249.43,-89.2213 1256.13,-81.0091 1245.77,-83.2544 1249.43,-89.2213"/>
</g>
<!-- Node24 -->
<g id="node25" class="node"><title>Node24</title>
<polygon fill="none" stroke="#bfbfbf" points="1328.5,-62 1328.5,-81 1369.5,-81 1369.5,-62 1328.5,-62"/>
<text text-anchor="middle" x="1349" y="-69" font-family="Helvetica,sans-Serif" font-size="10.00">array</text>
</g>
<!-- Node21&#45;&gt;Node24 -->
<g id="edge26" class="edge"><title>Node21&#45;&gt;Node24</title>
<path fill="none" stroke="midnightblue" d="M1202.25,-124.388C1232.05,-116.31 1279.38,-102.577 1319,-87 1320.38,-86.4576 1321.78,-85.8785 1323.19,-85.2755"/>
<polygon fill="midnightblue" stroke="midnightblue" points="1324.74,-88.4192 1332.38,-81.0844 1321.83,-82.0505 1324.74,-88.4192"/>
</g>
<!-- Node25 -->
<g id="node26" class="node"><title>Node25</title>
<polygon fill="none" stroke="#bfbfbf" points="1069.5,-62 1069.5,-81 1116.5,-81 1116.5,-62 1069.5,-62"/>
<text text-anchor="middle" x="1093" y="-69" font-family="Helvetica,sans-Serif" font-size="10.00">cmath</text>
</g>
<!-- Node21&#45;&gt;Node25 -->
<g id="edge27" class="edge"><title>Node21&#45;&gt;Node25</title>
<path fill="none" stroke="midnightblue" d="M1161.54,-123.475C1148.83,-114.02 1128.09,-98.5961 1112.75,-87.1871"/>
<polygon fill="midnightblue" stroke="midnightblue" points="1114.55,-84.1686 1104.44,-81.0091 1110.38,-89.7854 1114.55,-84.1686"/>
</g>
<!-- Node21&#45;&gt;Node26 -->
<g id="edge28" class="edge"><title>Node21&#45;&gt;Node26</title>
<path fill="none" stroke="midnightblue" d="M1202.34,-127.442C1242.58,-120.767 1316.85,-106.928 1378,-87 1379.87,-86.3892 1381.79,-85.7092 1383.7,-84.9862"/>
<polygon fill="midnightblue" stroke="midnightblue" points="1385.17,-88.1663 1393.1,-81.1353 1382.52,-81.6893 1385.17,-88.1663"/>
</g>
</g>
</svg>
