<?xml version="1.0" encoding="UTF-8" standalone="no"?>
<!DOCTYPE svg PUBLIC "-//W3C//DTD SVG 1.1//EN"
 "http://www.w3.org/Graphics/SVG/1.1/DTD/svg11.dtd">
<!-- Generated by graphviz version 2.38.0 (20140413.2041)
 -->
<!-- Title: /travis/libpairinteraction/Wavefunction.h Pages: 1 -->
<!--zoomable 385 -->
<svg id="main" version="1.1" xmlns="http://www.w3.org/2000/svg" xmlns:xlink="http://www.w3.org/1999/xlink" xml:space="preserve" onload="init(evt)">
<style type="text/css"><![CDATA[
.edge:hover path { stroke: red; }
.edge:hover polygon { stroke: red; fill: red; }
]]></style>
<script type="text/javascript"><![CDATA[
var edges = document.getElementsByTagName('g');
if (edges && edges.length) {
  for (var i=0;i<edges.length;i++) {
    if (edges[i].id.substr(0,4)=='edge') {
      edges[i].setAttribute('class','edge');
    }
  }
}
]]></script>
        <defs>
                <circle id="rim" cx="0" cy="0" r="7"/>
                <circle id="rim2" cx="0" cy="0" r="3.5"/>
                <g id="zoomPlus">
                        <use xlink:href="#rim" fill="#404040">
                                <set attributeName="fill" to="#808080" begin="zoomplus.mouseover" end="zoomplus.mouseout"/>
                        </use>
                        <path d="M-4,0h8M0,-4v8" fill="none" stroke="white" stroke-width="1.5" pointer-events="none"/>
                </g>
                <g id="zoomMin">
                        <use xlink:href="#rim" fill="#404040">
                                <set attributeName="fill" to="#808080" begin="zoomminus.mouseover" end="zoomminus.mouseout"/>
                        </use>
                        <path d="M-4,0h8" fill="none" stroke="white" stroke-width="1.5" pointer-events="none"/>
                </g>
                <g id="dirArrow">
                        <path fill="none" stroke="white" stroke-width="1.5" d="M0,-3.0v7 M-2.5,-0.5L0,-3.0L2.5,-0.5"/>
                </g>
               <g id="resetDef">
                       <use xlink:href="#rim2" fill="#404040">
                               <set attributeName="fill" to="#808080" begin="reset.mouseover" end="reset.mouseout"/>
                       </use>
               </g>
        </defs>

<script type="text/javascript">
var viewWidth = 977;
var viewHeight = 385;
var sectionId = 'dynsection-1';
</script>
<script xlink:href="svgpan.js"/>
<svg id="graph" class="graph">
<g id="viewport">
<title>/travis/libpairinteraction/Wavefunction.h</title>
<!-- Node29 -->
<g id="node1" class="node"><title>Node29</title>
<polygon fill="#bfbfbf" stroke="black" points="622,-346.5 622,-376.5 750,-376.5 750,-346.5 622,-346.5"/>
<text text-anchor="start" x="630" y="-364.5" font-family="Helvetica,sans-Serif" font-size="10.00">/travis/libpairinteraction</text>
<text text-anchor="middle" x="686" y="-353.5" font-family="Helvetica,sans-Serif" font-size="10.00">/Wavefunction.h</text>
</g>
<!-- Node30 -->
<g id="node2" class="node"><title>Node30</title>
<g id="a_node2"><a xlink:href="MatrixElements_8h.html" target="_top" xlink:title="/travis/libpairinteraction\l/MatrixElements.h">
<polygon fill="none" stroke="black" points="165,-274 165,-304 293,-304 293,-274 165,-274"/>
<text text-anchor="start" x="173" y="-292" font-family="Helvetica,sans-Serif" font-size="10.00">/travis/libpairinteraction</text>
<text text-anchor="middle" x="229" y="-281" font-family="Helvetica,sans-Serif" font-size="10.00">/MatrixElements.h</text>
</a>
</g>
</g>
<!-- Node29&#45;&gt;Node30 -->
<g id="edge1" class="edge"><title>Node29&#45;&gt;Node30</title>
<path fill="none" stroke="midnightblue" d="M612.021,-349.088C523.636,-335.453 377.213,-312.864 293.328,-299.924"/>
<polygon fill="midnightblue" stroke="midnightblue" points="611.558,-352.557 621.975,-350.623 612.625,-345.639 611.558,-352.557"/>
</g>
<!-- Node37 -->
<g id="node9" class="node"><title>Node37</title>
<g id="a_node9"><a xlink:href="MatrixElementCache_8h.html" target="_top" xlink:title="/travis/libpairinteraction\l/MatrixElementCache.h">
<polygon fill="none" stroke="black" points="549,-274 549,-304 677,-304 677,-274 549,-274"/>
<text text-anchor="start" x="557" y="-292" font-family="Helvetica,sans-Serif" font-size="10.00">/travis/libpairinteraction</text>
<text text-anchor="middle" x="613" y="-281" font-family="Helvetica,sans-Serif" font-size="10.00">/MatrixElementCache.h</text>
</a>
</g>
</g>
<!-- Node29&#45;&gt;Node37 -->
<g id="edge10" class="edge"><title>Node29&#45;&gt;Node37</title>
<path fill="none" stroke="midnightblue" d="M663.932,-339.188C652.216,-327.873 638.135,-314.274 627.751,-304.246"/>
<polygon fill="midnightblue" stroke="midnightblue" points="661.603,-341.804 671.227,-346.233 666.466,-336.769 661.603,-341.804"/>
</g>
<!-- Node47 -->
<g id="node19" class="node"><title>Node47</title>
<g id="a_node19"><a xlink:href="wavefunction__test_8cpp.html" target="_top" xlink:title="/travis/libpairinteraction\l/unit_test/wavefunction\l_test.cpp">
<polygon fill="none" stroke="black" points="695,-268.5 695,-309.5 823,-309.5 823,-268.5 695,-268.5"/>
<text text-anchor="start" x="703" y="-297.5" font-family="Helvetica,sans-Serif" font-size="10.00">/travis/libpairinteraction</text>
<text text-anchor="start" x="703" y="-286.5" font-family="Helvetica,sans-Serif" font-size="10.00">/unit_test/wavefunction</text>
<text text-anchor="middle" x="759" y="-275.5" font-family="Helvetica,sans-Serif" font-size="10.00">_test.cpp</text>
</a>
</g>
</g>
<!-- Node29&#45;&gt;Node47 -->
<g id="edge23" class="edge"><title>Node29&#45;&gt;Node47</title>
<path fill="none" stroke="midnightblue" d="M708.158,-339.101C717.881,-329.711 729.219,-318.762 738.717,-309.588"/>
<polygon fill="midnightblue" stroke="midnightblue" points="705.534,-336.769 700.773,-346.233 710.397,-341.804 705.534,-336.769"/>
</g>
<!-- Node48 -->
<g id="node20" class="node"><title>Node48</title>
<g id="a_node20"><a xlink:href="Wavefunction_8cpp.html" target="_top" xlink:title="/travis/libpairinteraction\l/Wavefunction.cpp">
<polygon fill="none" stroke="black" points="841,-274 841,-304 969,-304 969,-274 841,-274"/>
<text text-anchor="start" x="849" y="-292" font-family="Helvetica,sans-Serif" font-size="10.00">/travis/libpairinteraction</text>
<text text-anchor="middle" x="905" y="-281" font-family="Helvetica,sans-Serif" font-size="10.00">/Wavefunction.cpp</text>
</a>
</g>
</g>
<!-- Node29&#45;&gt;Node48 -->
<g id="edge24" class="edge"><title>Node29&#45;&gt;Node48</title>
<path fill="none" stroke="midnightblue" d="M739.248,-343.358C776.645,-331.32 826.06,-315.412 861.179,-304.107"/>
<polygon fill="midnightblue" stroke="midnightblue" points="737.976,-340.091 729.529,-346.487 740.121,-346.754 737.976,-340.091"/>
</g>
<!-- Node31 -->
<g id="node3" class="node"><title>Node31</title>
<g id="a_node3"><a xlink:href="HamiltonianOne_8h.html" target="_top" xlink:title="/travis/libpairinteraction\l/HamiltonianOne.h">
<polygon fill="none" stroke="black" points="238,-201.5 238,-231.5 366,-231.5 366,-201.5 238,-201.5"/>
<text text-anchor="start" x="246" y="-219.5" font-family="Helvetica,sans-Serif" font-size="10.00">/travis/libpairinteraction</text>
<text text-anchor="middle" x="302" y="-208.5" font-family="Helvetica,sans-Serif" font-size="10.00">/HamiltonianOne.h</text>
</a>
</g>
</g>
<!-- Node30&#45;&gt;Node31 -->
<g id="edge2" class="edge"><title>Node30&#45;&gt;Node31</title>
<path fill="none" stroke="midnightblue" d="M251.068,-266.688C262.784,-255.373 276.865,-241.774 287.249,-231.746"/>
<polygon fill="midnightblue" stroke="midnightblue" points="248.534,-264.269 243.773,-273.733 253.397,-269.304 248.534,-264.269"/>
</g>
<!-- Node33 -->
<g id="node5" class="node"><title>Node33</title>
<g id="a_node5"><a xlink:href="HamiltonianTwo_8h.html" target="_top" xlink:title="/travis/libpairinteraction\l/HamiltonianTwo.h">
<polygon fill="none" stroke="black" points="27,-134.5 27,-164.5 155,-164.5 155,-134.5 27,-134.5"/>
<text text-anchor="start" x="35" y="-152.5" font-family="Helvetica,sans-Serif" font-size="10.00">/travis/libpairinteraction</text>
<text text-anchor="middle" x="91" y="-141.5" font-family="Helvetica,sans-Serif" font-size="10.00">/HamiltonianTwo.h</text>
</a>
</g>
</g>
<!-- Node30&#45;&gt;Node33 -->
<g id="edge8" class="edge"><title>Node30&#45;&gt;Node33</title>
<path fill="none" stroke="midnightblue" d="M154.825,-277.471C127.596,-269.615 99.437,-255.909 83,-232 69.1466,-211.849 77.52,-181.985 84.5066,-164.557"/>
<polygon fill="midnightblue" stroke="midnightblue" points="154.228,-280.933 164.791,-280.108 156.019,-274.166 154.228,-280.933"/>
</g>
<!-- Node36 -->
<g id="node8" class="node"><title>Node36</title>
<g id="a_node8"><a xlink:href="MatrixElements_8cpp.html" target="_top" xlink:title="/travis/libpairinteraction\l/MatrixElements.cpp">
<polygon fill="none" stroke="black" points="92,-201.5 92,-231.5 220,-231.5 220,-201.5 92,-201.5"/>
<text text-anchor="start" x="100" y="-219.5" font-family="Helvetica,sans-Serif" font-size="10.00">/travis/libpairinteraction</text>
<text text-anchor="middle" x="156" y="-208.5" font-family="Helvetica,sans-Serif" font-size="10.00">/MatrixElements.cpp</text>
</a>
</g>
</g>
<!-- Node30&#45;&gt;Node36 -->
<g id="edge9" class="edge"><title>Node30&#45;&gt;Node36</title>
<path fill="none" stroke="midnightblue" d="M206.932,-266.688C195.216,-255.373 181.135,-241.774 170.751,-231.746"/>
<polygon fill="midnightblue" stroke="midnightblue" points="204.603,-269.304 214.227,-273.733 209.466,-264.269 204.603,-269.304"/>
</g>
<!-- Node32 -->
<g id="node4" class="node"><title>Node32</title>
<g id="a_node4"><a xlink:href="HamiltonianOne_8cpp.html" target="_top" xlink:title="/travis/libpairinteraction\l/HamiltonianOne.cpp">
<polygon fill="none" stroke="black" points="238,-134.5 238,-164.5 366,-164.5 366,-134.5 238,-134.5"/>
<text text-anchor="start" x="246" y="-152.5" font-family="Helvetica,sans-Serif" font-size="10.00">/travis/libpairinteraction</text>
<text text-anchor="middle" x="302" y="-141.5" font-family="Helvetica,sans-Serif" font-size="10.00">/HamiltonianOne.cpp</text>
</a>
</g>
</g>
<!-- Node31&#45;&gt;Node32 -->
<g id="edge3" class="edge"><title>Node31&#45;&gt;Node32</title>
<path fill="none" stroke="midnightblue" d="M302,-191.108C302,-182.154 302,-172.323 302,-164.577"/>
<polygon fill="midnightblue" stroke="midnightblue" points="298.5,-191.396 302,-201.396 305.5,-191.396 298.5,-191.396"/>
</g>
<!-- Node31&#45;&gt;Node33 -->
<g id="edge4" class="edge"><title>Node31&#45;&gt;Node33</title>
<path fill="none" stroke="midnightblue" d="M246.634,-198.444C212.431,-187.908 169.068,-174.549 136.806,-164.611"/>
<polygon fill="midnightblue" stroke="midnightblue" points="245.889,-201.877 256.476,-201.476 247.95,-195.187 245.889,-201.877"/>
</g>
<!-- Node35 -->
<g id="node7" class="node"><title>Node35</title>
<g id="a_node7"><a xlink:href="Interface_8cpp.html" target="_top" xlink:title="/travis/libpairinteraction\l/Interface.cpp">
<polygon fill="none" stroke="black" points="146,-67.5 146,-97.5 274,-97.5 274,-67.5 146,-67.5"/>
<text text-anchor="start" x="154" y="-85.5" font-family="Helvetica,sans-Serif" font-size="10.00">/travis/libpairinteraction</text>
<text text-anchor="middle" x="210" y="-74.5" font-family="Helvetica,sans-Serif" font-size="10.00">/Interface.cpp</text>
</a>
</g>
</g>
<!-- Node31&#45;&gt;Node35 -->
<g id="edge7" class="edge"><title>Node31&#45;&gt;Node35</title>
<path fill="none" stroke="midnightblue" d="M263.346,-196.277C250.686,-188.222 237.662,-177.734 229,-165 215.027,-144.458 211.244,-114.995 210.272,-97.6943"/>
<polygon fill="midnightblue" stroke="midnightblue" points="261.619,-199.322 271.995,-201.462 265.218,-193.318 261.619,-199.322"/>
</g>
<!-- Node34 -->
<g id="node6" class="node"><title>Node34</title>
<g id="a_node6"><a xlink:href="HamiltonianTwo_8cpp.html" target="_top" xlink:title="/travis/libpairinteraction\l/HamiltonianTwo.cpp">
<polygon fill="none" stroke="black" points="0,-67.5 0,-97.5 128,-97.5 128,-67.5 0,-67.5"/>
<text text-anchor="start" x="8" y="-85.5" font-family="Helvetica,sans-Serif" font-size="10.00">/travis/libpairinteraction</text>
<text text-anchor="middle" x="64" y="-74.5" font-family="Helvetica,sans-Serif" font-size="10.00">/HamiltonianTwo.cpp</text>
</a>
</g>
</g>
<!-- Node33&#45;&gt;Node34 -->
<g id="edge5" class="edge"><title>Node33&#45;&gt;Node34</title>
<path fill="none" stroke="midnightblue" d="M81.2346,-124.991C77.4188,-115.804 73.1709,-105.578 69.8472,-97.5765"/>
<polygon fill="midnightblue" stroke="midnightblue" points="78.073,-126.504 85.1414,-134.396 84.5375,-123.818 78.073,-126.504"/>
</g>
<!-- Node33&#45;&gt;Node35 -->
<g id="edge6" class="edge"><title>Node33&#45;&gt;Node35</title>
<path fill="none" stroke="midnightblue" d="M125.647,-129.575C144.367,-119.35 167.087,-106.94 184.229,-97.5765"/>
<polygon fill="midnightblue" stroke="midnightblue" points="123.92,-126.531 116.821,-134.396 127.275,-132.674 123.92,-126.531"/>
</g>
<!-- Node38 -->
<g id="node10" class="node"><title>Node38</title>
<g id="a_node10"><a xlink:href="MatrixElementCache_8cpp.html" target="_top" xlink:title="/travis/libpairinteraction\l/MatrixElementCache.cpp">
<polygon fill="none" stroke="black" points="543.5,-201.5 543.5,-231.5 682.5,-231.5 682.5,-201.5 543.5,-201.5"/>
<text text-anchor="start" x="551.5" y="-219.5" font-family="Helvetica,sans-Serif" font-size="10.00">/travis/libpairinteraction</text>
<text text-anchor="middle" x="613" y="-208.5" font-family="Helvetica,sans-Serif" font-size="10.00">/MatrixElementCache.cpp</text>
</a>
</g>
</g>
<!-- Node37&#45;&gt;Node38 -->
<g id="edge11" class="edge"><title>Node37&#45;&gt;Node38</title>
<path fill="none" stroke="midnightblue" d="M613,-263.732C613,-253.068 613,-240.914 613,-231.746"/>
<polygon fill="midnightblue" stroke="midnightblue" points="609.5,-263.733 613,-273.733 616.5,-263.733 609.5,-263.733"/>
</g>
<!-- Node39 -->
<g id="node11" class="node"><title>Node39</title>
<g id="a_node11"><a xlink:href="PerturbativeInteraction_8h.html" target="_top" xlink:title="/travis/libpairinteraction\l/PerturbativeInteraction.h">
<polygon fill="none" stroke="black" points="387,-201.5 387,-231.5 525,-231.5 525,-201.5 387,-201.5"/>
<text text-anchor="start" x="395" y="-219.5" font-family="Helvetica,sans-Serif" font-size="10.00">/travis/libpairinteraction</text>
<text text-anchor="middle" x="456" y="-208.5" font-family="Helvetica,sans-Serif" font-size="10.00">/PerturbativeInteraction.h</text>
</a>
</g>
</g>
<!-- Node37&#45;&gt;Node39 -->
<g id="edge12" class="edge"><title>Node37&#45;&gt;Node39</title>
<path fill="none" stroke="midnightblue" d="M572.217,-269.687C545.724,-257.79 511.713,-242.518 487.34,-231.573"/>
<polygon fill="midnightblue" stroke="midnightblue" points="571.05,-272.999 581.606,-273.903 573.917,-266.613 571.05,-272.999"/>
</g>
<!-- Node41 -->
<g id="node13" class="node"><title>Node41</title>
<g id="a_node13"><a xlink:href="SystemBase_8h.html" target="_top" xlink:title="/travis/libpairinteraction\l/SystemBase.h">
<polygon fill="none" stroke="black" points="701,-201.5 701,-231.5 829,-231.5 829,-201.5 701,-201.5"/>
<text text-anchor="start" x="709" y="-219.5" font-family="Helvetica,sans-Serif" font-size="10.00">/travis/libpairinteraction</text>
<text text-anchor="middle" x="765" y="-208.5" font-family="Helvetica,sans-Serif" font-size="10.00">/SystemBase.h</text>
</a>
</g>
</g>
<!-- Node37&#45;&gt;Node41 -->
<g id="edge14" class="edge"><title>Node37&#45;&gt;Node41</title>
<path fill="none" stroke="midnightblue" d="M652.484,-269.687C678.133,-257.79 711.061,-242.518 734.659,-231.573"/>
<polygon fill="midnightblue" stroke="midnightblue" points="650.993,-266.52 643.394,-273.903 653.939,-272.87 650.993,-266.52"/>
</g>
<!-- Node46 -->
<g id="node18" class="node"><title>Node46</title>
<g id="a_node18"><a xlink:href="integration__test_8cpp.html" target="_top" xlink:title="/travis/libpairinteraction\l/unit_test/integration_test.cpp">
<polygon fill="none" stroke="black" points="776.5,-0.5 776.5,-30.5 937.5,-30.5 937.5,-0.5 776.5,-0.5"/>
<text text-anchor="start" x="784.5" y="-18.5" font-family="Helvetica,sans-Serif" font-size="10.00">/travis/libpairinteraction</text>
<text text-anchor="middle" x="857" y="-7.5" font-family="Helvetica,sans-Serif" font-size="10.00">/unit_test/integration_test.cpp</text>
</a>
</g>
</g>
<!-- Node37&#45;&gt;Node46 -->
<g id="edge22" class="edge"><title>Node37&#45;&gt;Node46</title>
<path fill="none" stroke="midnightblue" d="M672.899,-271.409C677.327,-270.238 681.731,-269.09 686,-268 753.266,-250.825 790.838,-282.946 838,-232 890.942,-174.81 870.543,-68.7497 860.913,-30.6156"/>
<polygon fill="midnightblue" stroke="midnightblue" points="671.962,-268.036 663.204,-273.998 673.768,-274.799 671.962,-268.036"/>
</g>
<!-- Node40 -->
<g id="node12" class="node"><title>Node40</title>
<g id="a_node12"><a xlink:href="PerturbativeInteraction_8cpp.html" target="_top" xlink:title="/travis/libpairinteraction\l/PerturbativeInteraction.cpp">
<polygon fill="none" stroke="black" points="384.5,-134.5 384.5,-164.5 533.5,-164.5 533.5,-134.5 384.5,-134.5"/>
<text text-anchor="start" x="392.5" y="-152.5" font-family="Helvetica,sans-Serif" font-size="10.00">/travis/libpairinteraction</text>
<text text-anchor="middle" x="459" y="-141.5" font-family="Helvetica,sans-Serif" font-size="10.00">/PerturbativeInteraction.cpp</text>
</a>
</g>
</g>
<!-- Node39&#45;&gt;Node40 -->
<g id="edge13" class="edge"><title>Node39&#45;&gt;Node40</title>
<path fill="none" stroke="midnightblue" d="M457.112,-191.403C457.529,-182.37 457.989,-172.408 458.35,-164.577"/>
<polygon fill="midnightblue" stroke="midnightblue" points="453.616,-191.245 456.651,-201.396 460.608,-191.568 453.616,-191.245"/>
</g>
<!-- Node42 -->
<g id="node14" class="node"><title>Node42</title>
<g id="a_node14"><a xlink:href="SystemOne_8h.html" target="_top" xlink:title="/travis/libpairinteraction\l/SystemOne.h">
<polygon fill="none" stroke="black" points="701,-134.5 701,-164.5 829,-164.5 829,-134.5 701,-134.5"/>
<text text-anchor="start" x="709" y="-152.5" font-family="Helvetica,sans-Serif" font-size="10.00">/travis/libpairinteraction</text>
<text text-anchor="middle" x="765" y="-141.5" font-family="Helvetica,sans-Serif" font-size="10.00">/SystemOne.h</text>
</a>
</g>
</g>
<!-- Node41&#45;&gt;Node42 -->
<g id="edge15" class="edge"><title>Node41&#45;&gt;Node42</title>
<path fill="none" stroke="midnightblue" d="M765,-191.108C765,-182.154 765,-172.323 765,-164.577"/>
<polygon fill="midnightblue" stroke="midnightblue" points="761.5,-191.396 765,-201.396 768.5,-191.396 761.5,-191.396"/>
</g>
<!-- Node44 -->
<g id="node16" class="node"><title>Node44</title>
<g id="a_node16"><a xlink:href="SystemTwo_8h.html" target="_top" xlink:title="/travis/libpairinteraction\l/SystemTwo.h">
<polygon fill="none" stroke="black" points="555,-67.5 555,-97.5 683,-97.5 683,-67.5 555,-67.5"/>
<text text-anchor="start" x="563" y="-85.5" font-family="Helvetica,sans-Serif" font-size="10.00">/travis/libpairinteraction</text>
<text text-anchor="middle" x="619" y="-74.5" font-family="Helvetica,sans-Serif" font-size="10.00">/SystemTwo.h</text>
</a>
</g>
</g>
<!-- Node41&#45;&gt;Node44 -->
<g id="edge21" class="edge"><title>Node41&#45;&gt;Node44</title>
<path fill="none" stroke="midnightblue" d="M733.228,-195.881C719.958,-187.098 704.704,-176.205 692,-165 667.782,-143.64 643.537,-114.709 629.981,-97.6814"/>
<polygon fill="midnightblue" stroke="midnightblue" points="731.324,-198.818 741.616,-201.331 735.137,-192.948 731.324,-198.818"/>
</g>
<!-- Node43 -->
<g id="node15" class="node"><title>Node43</title>
<g id="a_node15"><a xlink:href="SystemOne_8cpp.html" target="_top" xlink:title="/travis/libpairinteraction\l/SystemOne.cpp">
<polygon fill="none" stroke="black" points="701,-67.5 701,-97.5 829,-97.5 829,-67.5 701,-67.5"/>
<text text-anchor="start" x="709" y="-85.5" font-family="Helvetica,sans-Serif" font-size="10.00">/travis/libpairinteraction</text>
<text text-anchor="middle" x="765" y="-74.5" font-family="Helvetica,sans-Serif" font-size="10.00">/SystemOne.cpp</text>
</a>
</g>
</g>
<!-- Node42&#45;&gt;Node43 -->
<g id="edge16" class="edge"><title>Node42&#45;&gt;Node43</title>
<path fill="none" stroke="midnightblue" d="M765,-124.108C765,-115.154 765,-105.323 765,-97.5765"/>
<polygon fill="midnightblue" stroke="midnightblue" points="761.5,-124.396 765,-134.396 768.5,-124.396 761.5,-124.396"/>
</g>
<!-- Node42&#45;&gt;Node44 -->
<g id="edge17" class="edge"><title>Node42&#45;&gt;Node44</title>
<path fill="none" stroke="midnightblue" d="M724.05,-130.269C700.796,-119.916 672.128,-107.153 650.618,-97.5765"/>
<polygon fill="midnightblue" stroke="midnightblue" points="722.761,-133.526 733.32,-134.396 725.608,-127.131 722.761,-133.526"/>
</g>
<!-- Node42&#45;&gt;Node46 -->
<g id="edge20" class="edge"><title>Node42&#45;&gt;Node46</title>
<path fill="none" stroke="midnightblue" d="M803.654,-129.277C816.314,-121.222 829.338,-110.734 838,-98 851.973,-77.4578 855.756,-47.9948 856.728,-30.6943"/>
<polygon fill="midnightblue" stroke="midnightblue" points="801.782,-126.318 795.005,-134.462 805.381,-132.322 801.782,-126.318"/>
</g>
<!-- Node45 -->
<g id="node17" class="node"><title>Node45</title>
<g id="a_node17"><a xlink:href="SystemTwo_8cpp.html" target="_top" xlink:title="/travis/libpairinteraction\l/SystemTwo.cpp">
<polygon fill="none" stroke="black" points="555,-0.5 555,-30.5 683,-30.5 683,-0.5 555,-0.5"/>
<text text-anchor="start" x="563" y="-18.5" font-family="Helvetica,sans-Serif" font-size="10.00">/travis/libpairinteraction</text>
<text text-anchor="middle" x="619" y="-7.5" font-family="Helvetica,sans-Serif" font-size="10.00">/SystemTwo.cpp</text>
</a>
</g>
</g>
<!-- Node44&#45;&gt;Node45 -->
<g id="edge18" class="edge"><title>Node44&#45;&gt;Node45</title>
<path fill="none" stroke="midnightblue" d="M619,-57.1081C619,-48.1539 619,-38.3227 619,-30.5765"/>
<polygon fill="midnightblue" stroke="midnightblue" points="615.5,-57.3959 619,-67.396 622.5,-57.396 615.5,-57.3959"/>
</g>
<!-- Node44&#45;&gt;Node46 -->
<g id="edge19" class="edge"><title>Node44&#45;&gt;Node46</title>
<path fill="none" stroke="midnightblue" d="M680.459,-64.7149C719.189,-54.1373 768.629,-40.6348 805.332,-30.6109"/>
<polygon fill="midnightblue" stroke="midnightblue" points="679.074,-61.465 670.349,-67.476 680.918,-68.2177 679.074,-61.465"/>
</g>
</g>
</svg>
        <g id="navigator" transform="translate(0 0)" fill="#404254">
                <rect fill="#f2f5e9" fill-opacity="0.5" stroke="#606060" stroke-width=".5" x="0" y="0" width="60" height="60"/>
                <use id="zoomplus" xlink:href="#zoomPlus" x="17" y="9" onmousedown="handleZoom(evt,'in')"/>
                <use id="zoomminus" xlink:href="#zoomMin" x="42" y="9" onmousedown="handleZoom(evt,'out')"/>
                <use id="reset" xlink:href="#resetDef" x="30" y="36" onmousedown="handleReset()"/>
                <g id="arrowUp" xlink:href="#dirArrow" transform="translate(30 24)" onmousedown="handlePan(0,-1)">
                  <use xlink:href="#rim" fill="#404040">
                        <set attributeName="fill" to="#808080" begin="arrowUp.mouseover" end="arrowUp.mouseout"/>
                  </use>
                  <path fill="none" stroke="white" stroke-width="1.5" d="M0,-3.0v7 M-2.5,-0.5L0,-3.0L2.5,-0.5"/>
                </g>
                <g id="arrowRight" xlink:href="#dirArrow" transform="rotate(90) translate(36 -43)" onmousedown="handlePan(1,0)">
                  <use xlink:href="#rim" fill="#404040">
                        <set attributeName="fill" to="#808080" begin="arrowRight.mouseover" end="arrowRight.mouseout"/>
                  </use>
                  <path fill="none" stroke="white" stroke-width="1.5" d="M0,-3.0v7 M-2.5,-0.5L0,-3.0L2.5,-0.5"/>
                </g>
                <g id="arrowDown" xlink:href="#dirArrow" transform="rotate(180) translate(-30 -48)" onmousedown="handlePan(0,1)">
                  <use xlink:href="#rim" fill="#404040">
                        <set attributeName="fill" to="#808080" begin="arrowDown.mouseover" end="arrowDown.mouseout"/>
                  </use>
                  <path fill="none" stroke="white" stroke-width="1.5" d="M0,-3.0v7 M-2.5,-0.5L0,-3.0L2.5,-0.5"/>
                </g>
                <g id="arrowLeft" xlink:href="#dirArrow" transform="rotate(270) translate(-36 17)" onmousedown="handlePan(-1,0)">
                  <use xlink:href="#rim" fill="#404040">
                        <set attributeName="fill" to="#808080" begin="arrowLeft.mouseover" end="arrowLeft.mouseout"/>
                  </use>
                  <path fill="none" stroke="white" stroke-width="1.5" d="M0,-3.0v7 M-2.5,-0.5L0,-3.0L2.5,-0.5"/>
                </g>
        </g>
        <svg viewBox="0 0 15 15" width="100%" height="30px" preserveAspectRatio="xMaxYMin meet">
         <g id="arrow_out" transform="scale(0.3 0.3)">
          <a xlink:href="Wavefunction_8h__dep__incl_org.svg" target="_base">
           <rect id="button" ry="5" rx="5" y="6" x="6" height="38" width="38"
                fill="#f2f5e9" fill-opacity="0.5" stroke="#606060" stroke-width="1.0"/>
           <path id="arrow"
             d="M 11.500037,31.436501 C 11.940474,20.09759 22.043105,11.32322 32.158766,21.979434 L 37.068811,17.246167 C 37.068811,17.246167 37.088388,32 37.088388,32 L 22.160133,31.978069 C 22.160133,31.978069 26.997745,27.140456 26.997745,27.140456 C 18.528582,18.264221 13.291696,25.230495 11.500037,31.436501 z"
             style="fill:#404040;"/>
          </a>
         </g>
        </svg>
</svg>
