<?xml version="1.0" encoding="UTF-8" standalone="no"?>
<!DOCTYPE svg PUBLIC "-//W3C//DTD SVG 1.1//EN"
 "http://www.w3.org/Graphics/SVG/1.1/DTD/svg11.dtd">
<!-- Generated by graphviz version 2.38.0 (20140413.2041)
 -->
<!-- Title: /travis/libpairinteraction/Wavefunction.cpp Pages: 1 -->
<!--zoomable 330 -->
<svg id="main" version="1.1" xmlns="http://www.w3.org/2000/svg" xmlns:xlink="http://www.w3.org/1999/xlink" xml:space="preserve" onload="init(evt)">
<style type="text/css"><![CDATA[
.edge:hover path { stroke: red; }
.edge:hover polygon { stroke: red; fill: red; }
]]></style>
<script type="text/javascript"><![CDATA[
var edges = document.getElementsByTagName('g');
if (edges && edges.length) {
  for (var i=0;i<edges.length;i++) {
    if (edges[i].id.substr(0,4)=='edge') {
      edges[i].setAttribute('class','edge');
    }
  }
}
]]></script>
        <defs>
                <circle id="rim" cx="0" cy="0" r="7"/>
                <circle id="rim2" cx="0" cy="0" r="3.5"/>
                <g id="zoomPlus">
                        <use xlink:href="#rim" fill="#404040">
                                <set attributeName="fill" to="#808080" begin="zoomplus.mouseover" end="zoomplus.mouseout"/>
                        </use>
                        <path d="M-4,0h8M0,-4v8" fill="none" stroke="white" stroke-width="1.5" pointer-events="none"/>
                </g>
                <g id="zoomMin">
                        <use xlink:href="#rim" fill="#404040">
                                <set attributeName="fill" to="#808080" begin="zoomminus.mouseover" end="zoomminus.mouseout"/>
                        </use>
                        <path d="M-4,0h8" fill="none" stroke="white" stroke-width="1.5" pointer-events="none"/>
                </g>
                <g id="dirArrow">
                        <path fill="none" stroke="white" stroke-width="1.5" d="M0,-3.0v7 M-2.5,-0.5L0,-3.0L2.5,-0.5"/>
                </g>
               <g id="resetDef">
                       <use xlink:href="#rim2" fill="#404040">
                               <set attributeName="fill" to="#808080" begin="reset.mouseover" end="reset.mouseout"/>
                       </use>
               </g>
        </defs>

<script type="text/javascript">
var viewWidth = 1509;
var viewHeight = 330;
var sectionId = 'dynsection-0';
</script>
<script xlink:href="svgpan.js"/>
<svg id="graph" class="graph">
<g id="viewport">
<title>/travis/libpairinteraction/Wavefunction.cpp</title>
<!-- Node0 -->
<g id="node1" class="node"><title>Node0</title>
<polygon fill="#bfbfbf" stroke="black" points="1197.5,-291.5 1197.5,-321.5 1325.5,-321.5 1325.5,-291.5 1197.5,-291.5"/>
<text text-anchor="start" x="1205.5" y="-309.5" font-family="Helvetica,sans-Serif" font-size="10.00">/travis/libpairinteraction</text>
<text text-anchor="middle" x="1261.5" y="-298.5" font-family="Helvetica,sans-Serif" font-size="10.00">/Wavefunction.cpp</text>
</g>
<!-- Node1 -->
<g id="node2" class="node"><title>Node1</title>
<g id="a_node2"><a xlink:href="Wavefunction_8h.html" target="_top" xlink:title="Wavefunction.h">
<polygon fill="none" stroke="black" points="1122,-235.5 1122,-254.5 1211,-254.5 1211,-235.5 1122,-235.5"/>
<text text-anchor="middle" x="1166.5" y="-242.5" font-family="Helvetica,sans-Serif" font-size="10.00">Wavefunction.h</text>
</a>
</g>
</g>
<!-- Node0&#45;&gt;Node1 -->
<g id="edge1" class="edge"><title>Node0&#45;&gt;Node1</title>
<path fill="none" stroke="midnightblue" d="M1238.99,-291.399C1223.9,-281.951 1204.11,-269.559 1189.03,-260.109"/>
<polygon fill="midnightblue" stroke="midnightblue" points="1190.66,-257 1180.32,-254.658 1186.94,-262.932 1190.66,-257"/>
</g>
<!-- Node2 -->
<g id="node3" class="node"><title>Node2</title>
<g id="a_node3"><a xlink:href="QuantumDefect_8h.html" target="_top" xlink:title="QuantumDefect.h">
<polygon fill="none" stroke="black" points="635.5,-179.5 635.5,-198.5 737.5,-198.5 737.5,-179.5 635.5,-179.5"/>
<text text-anchor="middle" x="686.5" y="-186.5" font-family="Helvetica,sans-Serif" font-size="10.00">QuantumDefect.h</text>
</a>
</g>
</g>
<!-- Node0&#45;&gt;Node2 -->
<g id="edge38" class="edge"><title>Node0&#45;&gt;Node2</title>
<path fill="none" stroke="midnightblue" d="M1197.49,-292.643C1082.9,-269.624 844.821,-221.802 739.074,-200.561"/>
<polygon fill="midnightblue" stroke="midnightblue" points="739.454,-197.067 728.96,-198.529 738.075,-203.93 739.454,-197.067"/>
</g>
<!-- Node12 -->
<g id="node13" class="node"><title>Node12</title>
<polygon fill="none" stroke="#bfbfbf" points="1006.5,-62 1006.5,-81 1050.5,-81 1050.5,-62 1006.5,-62"/>
<text text-anchor="middle" x="1028.5" y="-69" font-family="Helvetica,sans-Serif" font-size="10.00">string</text>
</g>
<!-- Node0&#45;&gt;Node12 -->
<g id="edge42" class="edge"><title>Node0&#45;&gt;Node12</title>
<path fill="none" stroke="midnightblue" d="M1197.31,-295.639C1168.56,-288.452 1135.94,-276.111 1112.5,-255 1062.22,-209.719 1039.9,-128.258 1032.05,-91.4586"/>
<polygon fill="midnightblue" stroke="midnightblue" points="1035.38,-90.2992 1029.99,-81.1825 1028.52,-91.6754 1035.38,-90.2992"/>
</g>
<!-- Node26 -->
<g id="node27" class="node"><title>Node26</title>
<polygon fill="none" stroke="#bfbfbf" points="1322,-62 1322,-81 1369,-81 1369,-62 1322,-62"/>
<text text-anchor="middle" x="1345.5" y="-69" font-family="Helvetica,sans-Serif" font-size="10.00">cmath</text>
</g>
<!-- Node0&#45;&gt;Node26 -->
<g id="edge40" class="edge"><title>Node0&#45;&gt;Node26</title>
<path fill="none" stroke="midnightblue" d="M1260.04,-291.17C1257.42,-258.915 1254.8,-179.06 1285.5,-123 1293.79,-107.863 1308.58,-95.3358 1321.4,-86.5445"/>
<polygon fill="midnightblue" stroke="midnightblue" points="1323.36,-89.4416 1329.86,-81.0689 1319.56,-83.5655 1323.36,-89.4416"/>
</g>
<!-- Node27 -->
<g id="node28" class="node"><title>Node27</title>
<polygon fill="none" stroke="#bfbfbf" points="1387,-62 1387,-81 1434,-81 1434,-62 1387,-62"/>
<text text-anchor="middle" x="1410.5" y="-69" font-family="Helvetica,sans-Serif" font-size="10.00">vector</text>
</g>
<!-- Node0&#45;&gt;Node27 -->
<g id="edge43" class="edge"><title>Node0&#45;&gt;Node27</title>
<path fill="none" stroke="midnightblue" d="M1270.6,-291.276C1296.61,-250.589 1371.28,-133.834 1399.51,-89.6873"/>
<polygon fill="midnightblue" stroke="midnightblue" points="1402.5,-91.5113 1404.94,-81.201 1396.6,-87.74 1402.5,-91.5113"/>
</g>
<!-- Node30 -->
<g id="node31" class="node"><title>Node30</title>
<polygon fill="none" stroke="#bfbfbf" points="1327.5,-235.5 1327.5,-254.5 1375.5,-254.5 1375.5,-235.5 1327.5,-235.5"/>
<text text-anchor="middle" x="1351.5" y="-242.5" font-family="Helvetica,sans-Serif" font-size="10.00">cctype</text>
</g>
<!-- Node0&#45;&gt;Node30 -->
<g id="edge39" class="edge"><title>Node0&#45;&gt;Node30</title>
<path fill="none" stroke="midnightblue" d="M1282.83,-291.399C1296.99,-282.04 1315.51,-269.792 1329.75,-260.377"/>
<polygon fill="midnightblue" stroke="midnightblue" points="1331.99,-263.092 1338.4,-254.658 1328.13,-257.253 1331.99,-263.092"/>
</g>
<!-- Node31 -->
<g id="node32" class="node"><title>Node31</title>
<polygon fill="none" stroke="#bfbfbf" points="1394,-235.5 1394,-254.5 1501,-254.5 1501,-235.5 1394,-235.5"/>
<text text-anchor="middle" x="1447.5" y="-242.5" font-family="Helvetica,sans-Serif" font-size="10.00">gsl/gsl_sf_hyperg.h</text>
</g>
<!-- Node0&#45;&gt;Node31 -->
<g id="edge41" class="edge"><title>Node0&#45;&gt;Node31</title>
<path fill="none" stroke="midnightblue" d="M1305.58,-291.399C1337.72,-281.118 1380.76,-267.351 1410.98,-257.682"/>
<polygon fill="midnightblue" stroke="midnightblue" points="1412.25,-260.951 1420.71,-254.571 1410.12,-254.284 1412.25,-260.951"/>
</g>
<!-- Node1&#45;&gt;Node2 -->
<g id="edge2" class="edge"><title>Node1&#45;&gt;Node2</title>
<path fill="none" stroke="midnightblue" d="M1121.77,-238.968C1035.46,-229.258 845.8,-207.921 747.806,-196.897"/>
<polygon fill="midnightblue" stroke="midnightblue" points="748.083,-193.406 737.755,-195.766 747.301,-200.362 748.083,-193.406"/>
</g>
<!-- Node1&#45;&gt;Node12 -->
<g id="edge36" class="edge"><title>Node1&#45;&gt;Node12</title>
<path fill="none" stroke="midnightblue" d="M1159.47,-235.26C1137.59,-208.076 1070.51,-124.708 1041.78,-89.0059"/>
<polygon fill="midnightblue" stroke="midnightblue" points="1044.35,-86.6161 1035.36,-81.0194 1038.9,-91.0045 1044.35,-86.6161"/>
</g>
<!-- Node22 -->
<g id="node23" class="node"><title>Node22</title>
<g id="a_node23"><a xlink:href="dtypes_8h.html" target="_top" xlink:title="dtypes.h">
<polygon fill="none" stroke="black" points="1137.5,-123.5 1137.5,-142.5 1195.5,-142.5 1195.5,-123.5 1137.5,-123.5"/>
<text text-anchor="middle" x="1166.5" y="-130.5" font-family="Helvetica,sans-Serif" font-size="10.00">dtypes.h</text>
</a>
</g>
</g>
<!-- Node1&#45;&gt;Node22 -->
<g id="edge35" class="edge"><title>Node1&#45;&gt;Node22</title>
<path fill="none" stroke="midnightblue" d="M1166.5,-235.368C1166.5,-217.617 1166.5,-176.666 1166.5,-152.597"/>
<polygon fill="midnightblue" stroke="midnightblue" points="1170,-152.591 1166.5,-142.591 1163,-152.591 1170,-152.591"/>
</g>
<!-- Node1&#45;&gt;Node27 -->
<g id="edge37" class="edge"><title>Node1&#45;&gt;Node27</title>
<path fill="none" stroke="midnightblue" d="M1172.78,-235.468C1189.11,-213.848 1235.09,-156.271 1285.5,-123 1322.15,-98.8142 1336.95,-103.835 1377.5,-87 1378.91,-86.4152 1380.35,-85.8102 1381.8,-85.1943"/>
<polygon fill="midnightblue" stroke="midnightblue" points="1383.57,-88.2437 1391.36,-81.0676 1380.79,-81.8167 1383.57,-88.2437"/>
</g>
<!-- Node3 -->
<g id="node4" class="node"><title>Node3</title>
<g id="a_node4"><a xlink:href="Cache_8h.html" target="_top" xlink:title="Cache.h">
<polygon fill="none" stroke="black" points="208.5,-123.5 208.5,-142.5 264.5,-142.5 264.5,-123.5 208.5,-123.5"/>
<text text-anchor="middle" x="236.5" y="-130.5" font-family="Helvetica,sans-Serif" font-size="10.00">Cache.h</text>
</a>
</g>
</g>
<!-- Node2&#45;&gt;Node3 -->
<g id="edge3" class="edge"><title>Node2&#45;&gt;Node3</title>
<path fill="none" stroke="midnightblue" d="M635.317,-181.858C544.156,-170.919 355.662,-148.299 274.755,-138.591"/>
<polygon fill="midnightblue" stroke="midnightblue" points="274.872,-135.08 264.526,-137.363 274.038,-142.03 274.872,-135.08"/>
</g>
<!-- Node4 -->
<g id="node5" class="node"><title>Node4</title>
<polygon fill="none" stroke="#bfbfbf" points="0,-62 0,-81 47,-81 47,-62 0,-62"/>
<text text-anchor="middle" x="23.5" y="-69" font-family="Helvetica,sans-Serif" font-size="10.00">mutex</text>
</g>
<!-- Node2&#45;&gt;Node4 -->
<g id="edge30" class="edge"><title>Node2&#45;&gt;Node4</title>
<path fill="none" stroke="midnightblue" d="M635.243,-185.798C527.344,-180.749 280.09,-166.901 199.5,-143 181.202,-137.573 179.023,-130.562 161.5,-123 116.204,-103.454 102.456,-104.938 56.5,-87 54.8969,-86.3742 53.2574,-85.7156 51.6078,-85.0384"/>
<polygon fill="midnightblue" stroke="midnightblue" points="52.8058,-81.7446 42.2334,-81.0557 50.0687,-88.1873 52.8058,-81.7446"/>
</g>
<!-- Node5 -->
<g id="node6" class="node"><title>Node5</title>
<polygon fill="none" stroke="#bfbfbf" points="190,-62 190,-81 283,-81 283,-62 190,-62"/>
<text text-anchor="middle" x="236.5" y="-69" font-family="Helvetica,sans-Serif" font-size="10.00">unordered_map</text>
</g>
<!-- Node2&#45;&gt;Node5 -->
<g id="edge33" class="edge"><title>Node2&#45;&gt;Node5</title>
<path fill="none" stroke="midnightblue" d="M652.662,-179.438C584.352,-162.134 425.096,-121.69 291.5,-87 287.36,-85.9251 283.047,-84.7988 278.737,-83.6693"/>
<polygon fill="midnightblue" stroke="midnightblue" points="279.333,-80.207 268.771,-81.0508 277.554,-86.9772 279.333,-80.207"/>
</g>
<!-- Node7 -->
<g id="node8" class="node"><title>Node7</title>
<g id="a_node8"><a xlink:href="SQLite_8h.html" target="_top" xlink:title="SQLite.h">
<polygon fill="none" stroke="black" points="624,-123.5 624,-142.5 681,-142.5 681,-123.5 624,-123.5"/>
<text text-anchor="middle" x="652.5" y="-130.5" font-family="Helvetica,sans-Serif" font-size="10.00">SQLite.h</text>
</a>
</g>
</g>
<!-- Node2&#45;&gt;Node7 -->
<g id="edge7" class="edge"><title>Node2&#45;&gt;Node7</title>
<path fill="none" stroke="midnightblue" d="M680.886,-179.083C676.133,-171.534 669.182,-160.495 663.348,-151.23"/>
<polygon fill="midnightblue" stroke="midnightblue" points="666.3,-149.349 658.01,-142.751 660.376,-153.078 666.3,-149.349"/>
</g>
<!-- Node2&#45;&gt;Node12 -->
<g id="edge31" class="edge"><title>Node2&#45;&gt;Node12</title>
<path fill="none" stroke="midnightblue" d="M716.96,-179.468C773.16,-163.429 896.637,-126.791 997.5,-87 998.916,-86.4413 1000.36,-85.8491 1001.81,-85.2358"/>
<polygon fill="midnightblue" stroke="midnightblue" points="1003.58,-88.2804 1011.29,-81.012 1000.73,-81.8869 1003.58,-88.2804"/>
</g>
<!-- Node2&#45;&gt;Node22 -->
<g id="edge24" class="edge"><title>Node2&#45;&gt;Node22</title>
<path fill="none" stroke="midnightblue" d="M737.868,-182.221C834.333,-171.369 1040.63,-148.16 1127.09,-138.433"/>
<polygon fill="midnightblue" stroke="midnightblue" points="1127.72,-141.885 1137.27,-137.288 1126.94,-134.928 1127.72,-141.885"/>
</g>
<!-- Node28 -->
<g id="node29" class="node"><title>Node28</title>
<polygon fill="none" stroke="#bfbfbf" points="699,-123.5 699,-142.5 740,-142.5 740,-123.5 699,-123.5"/>
<text text-anchor="middle" x="719.5" y="-130.5" font-family="Helvetica,sans-Serif" font-size="10.00">tuple</text>
</g>
<!-- Node2&#45;&gt;Node28 -->
<g id="edge32" class="edge"><title>Node2&#45;&gt;Node28</title>
<path fill="none" stroke="midnightblue" d="M691.949,-179.083C696.514,-171.613 703.168,-160.724 708.793,-151.52"/>
<polygon fill="midnightblue" stroke="midnightblue" points="711.924,-153.109 714.152,-142.751 705.951,-149.459 711.924,-153.109"/>
</g>
<!-- Node29 -->
<g id="node30" class="node"><title>Node29</title>
<polygon fill="none" stroke="#bfbfbf" points="12.5,-123.5 12.5,-142.5 152.5,-142.5 152.5,-123.5 12.5,-123.5"/>
<text text-anchor="middle" x="82.5" y="-130.5" font-family="Helvetica,sans-Serif" font-size="10.00">boost/functional/hash.hpp</text>
</g>
<!-- Node2&#45;&gt;Node29 -->
<g id="edge34" class="edge"><title>Node2&#45;&gt;Node29</title>
<path fill="none" stroke="midnightblue" d="M635.172,-183.908C541.835,-176.388 338.093,-159.615 166.5,-143 165.227,-142.877 163.944,-142.751 162.652,-142.624"/>
<polygon fill="midnightblue" stroke="midnightblue" points="162.914,-139.133 152.615,-141.621 162.217,-146.099 162.914,-139.133"/>
</g>
<!-- Node3&#45;&gt;Node4 -->
<g id="edge4" class="edge"><title>Node3&#45;&gt;Node4</title>
<path fill="none" stroke="midnightblue" d="M208.448,-125.599C165.261,-115.641 84.5407,-96.5886 56.5,-87 54.6348,-86.3622 52.729,-85.6618 50.8208,-84.9239"/>
<polygon fill="midnightblue" stroke="midnightblue" points="52.0152,-81.6303 41.4369,-81.0377 49.3368,-88.0977 52.0152,-81.6303"/>
</g>
<!-- Node3&#45;&gt;Node5 -->
<g id="edge5" class="edge"><title>Node3&#45;&gt;Node5</title>
<path fill="none" stroke="midnightblue" d="M236.5,-123.475C236.5,-115.08 236.5,-101.981 236.5,-91.1631"/>
<polygon fill="midnightblue" stroke="midnightblue" points="240,-91.0091 236.5,-81.0091 233,-91.0091 240,-91.0091"/>
</g>
<!-- Node6 -->
<g id="node7" class="node"><title>Node6</title>
<polygon fill="none" stroke="#bfbfbf" points="65.5,-62 65.5,-81 171.5,-81 171.5,-62 65.5,-62"/>
<text text-anchor="middle" x="118.5" y="-69" font-family="Helvetica,sans-Serif" font-size="10.00">boost/optional.hpp</text>
</g>
<!-- Node3&#45;&gt;Node6 -->
<g id="edge6" class="edge"><title>Node3&#45;&gt;Node6</title>
<path fill="none" stroke="midnightblue" d="M219.593,-123.475C199.966,-113.578 167.369,-97.1416 144.51,-85.6151"/>
<polygon fill="midnightblue" stroke="midnightblue" points="145.88,-82.3863 135.375,-81.0091 142.728,-88.6367 145.88,-82.3863"/>
</g>
<!-- Node8 -->
<g id="node9" class="node"><title>Node8</title>
<polygon fill="none" stroke="#bfbfbf" points="364,-62 364,-81 423,-81 423,-62 364,-62"/>
<text text-anchor="middle" x="393.5" y="-69" font-family="Helvetica,sans-Serif" font-size="10.00">iostream</text>
</g>
<!-- Node7&#45;&gt;Node8 -->
<g id="edge8" class="edge"><title>Node7&#45;&gt;Node8</title>
<path fill="none" stroke="midnightblue" d="M623.881,-127.711C581.4,-121 499.37,-106.715 431.5,-87 428.919,-86.2503 426.265,-85.403 423.618,-84.5036"/>
<polygon fill="midnightblue" stroke="midnightblue" points="424.792,-81.2062 414.197,-81.1004 422.413,-87.7898 424.792,-81.2062"/>
</g>
<!-- Node9 -->
<g id="node10" class="node"><title>Node9</title>
<polygon fill="none" stroke="#bfbfbf" points="441,-62 441,-81 498,-81 498,-62 441,-62"/>
<text text-anchor="middle" x="469.5" y="-69" font-family="Helvetica,sans-Serif" font-size="10.00">memory</text>
</g>
<!-- Node7&#45;&gt;Node9 -->
<g id="edge9" class="edge"><title>Node7&#45;&gt;Node9</title>
<path fill="none" stroke="midnightblue" d="M625.624,-123.486C597.412,-114.52 551.784,-99.9362 512.5,-87 509.923,-86.1514 507.261,-85.2687 504.584,-84.3765"/>
<polygon fill="midnightblue" stroke="midnightblue" points="505.54,-81.0055 494.946,-81.1473 503.316,-87.6429 505.54,-81.0055"/>
</g>
<!-- Node10 -->
<g id="node11" class="node"><title>Node10</title>
<polygon fill="none" stroke="#bfbfbf" points="472.5,-0.5 472.5,-19.5 526.5,-19.5 526.5,-0.5 472.5,-0.5"/>
<text text-anchor="middle" x="499.5" y="-7.5" font-family="Helvetica,sans-Serif" font-size="10.00">random</text>
</g>
<!-- Node7&#45;&gt;Node10 -->
<g id="edge10" class="edge"><title>Node7&#45;&gt;Node10</title>
<path fill="none" stroke="midnightblue" d="M623.958,-125.273C600.745,-118.65 568.226,-106.625 545.5,-87 527.133,-71.1393 513.967,-46.0654 506.546,-29.0951"/>
<polygon fill="midnightblue" stroke="midnightblue" points="509.73,-27.6341 502.673,-19.7308 503.261,-30.3093 509.73,-27.6341"/>
</g>
<!-- Node11 -->
<g id="node12" class="node"><title>Node11</title>
<polygon fill="none" stroke="#bfbfbf" points="554.5,-62 554.5,-81 610.5,-81 610.5,-62 554.5,-62"/>
<text text-anchor="middle" x="582.5" y="-69" font-family="Helvetica,sans-Serif" font-size="10.00">sstream</text>
</g>
<!-- Node7&#45;&gt;Node11 -->
<g id="edge11" class="edge"><title>Node7&#45;&gt;Node11</title>
<path fill="none" stroke="midnightblue" d="M642.471,-123.475C631.451,-114.108 613.54,-98.8839 600.157,-87.5081"/>
<polygon fill="midnightblue" stroke="midnightblue" points="602.397,-84.8188 592.511,-81.0091 597.863,-90.1524 602.397,-84.8188"/>
</g>
<!-- Node7&#45;&gt;Node12 -->
<g id="edge12" class="edge"><title>Node7&#45;&gt;Node12</title>
<path fill="none" stroke="midnightblue" d="M681.11,-124.675C683.935,-124.062 686.767,-123.49 689.5,-123 825.156,-98.6675 864.93,-124.681 997.5,-87 999.429,-86.4517 1001.39,-85.796 1003.34,-85.0707"/>
<polygon fill="midnightblue" stroke="midnightblue" points="1004.96,-88.1817 1012.79,-81.0395 1002.22,-81.7428 1004.96,-88.1817"/>
</g>
<!-- Node13 -->
<g id="node14" class="node"><title>Node13</title>
<polygon fill="none" stroke="#bfbfbf" points="628.5,-62 628.5,-81 676.5,-81 676.5,-62 628.5,-62"/>
<text text-anchor="middle" x="652.5" y="-69" font-family="Helvetica,sans-Serif" font-size="10.00">thread</text>
</g>
<!-- Node7&#45;&gt;Node13 -->
<g id="edge13" class="edge"><title>Node7&#45;&gt;Node13</title>
<path fill="none" stroke="midnightblue" d="M652.5,-123.475C652.5,-115.08 652.5,-101.981 652.5,-91.1631"/>
<polygon fill="midnightblue" stroke="midnightblue" points="656,-91.0091 652.5,-81.0091 649,-91.0091 656,-91.0091"/>
</g>
<!-- Node14 -->
<g id="node15" class="node"><title>Node14</title>
<polygon fill="none" stroke="#bfbfbf" points="607.5,-0.5 607.5,-19.5 675.5,-19.5 675.5,-0.5 607.5,-0.5"/>
<text text-anchor="middle" x="641.5" y="-7.5" font-family="Helvetica,sans-Serif" font-size="10.00">type_traits</text>
</g>
<!-- Node7&#45;&gt;Node14 -->
<g id="edge14" class="edge"><title>Node7&#45;&gt;Node14</title>
<path fill="none" stroke="midnightblue" d="M661.52,-123.34C669.572,-114.932 680.798,-101.363 685.5,-87 689.787,-73.906 690.701,-68.7584 685.5,-56 680.7,-44.2251 671.171,-33.8564 662.205,-26.0486"/>
<polygon fill="midnightblue" stroke="midnightblue" points="664.255,-23.2048 654.281,-19.6314 659.85,-28.6448 664.255,-23.2048"/>
</g>
<!-- Node15 -->
<g id="node16" class="node"><title>Node15</title>
<polygon fill="none" stroke="#bfbfbf" points="732.5,-56.5 732.5,-86.5 852.5,-86.5 852.5,-56.5 732.5,-56.5"/>
<text text-anchor="start" x="740.5" y="-74.5" font-family="Helvetica,sans-Serif" font-size="10.00">boost/iterator/iterator</text>
<text text-anchor="middle" x="792.5" y="-63.5" font-family="Helvetica,sans-Serif" font-size="10.00">_facade.hpp</text>
</g>
<!-- Node7&#45;&gt;Node15 -->
<g id="edge15" class="edge"><title>Node7&#45;&gt;Node15</title>
<path fill="none" stroke="midnightblue" d="M672.559,-123.475C692.671,-114.927 724.262,-101.501 749.974,-90.5734"/>
<polygon fill="midnightblue" stroke="midnightblue" points="751.67,-93.6556 759.505,-86.523 748.932,-87.2133 751.67,-93.6556"/>
</g>
<!-- Node16 -->
<g id="node17" class="node"><title>Node16</title>
<polygon fill="none" stroke="#bfbfbf" points="871,-62 871,-81 928,-81 928,-62 871,-62"/>
<text text-anchor="middle" x="899.5" y="-69" font-family="Helvetica,sans-Serif" font-size="10.00">sqlite3.h</text>
</g>
<!-- Node7&#45;&gt;Node16 -->
<g id="edge16" class="edge"><title>Node7&#45;&gt;Node16</title>
<path fill="none" stroke="midnightblue" d="M681.162,-124.932C683.976,-124.266 686.792,-123.613 689.5,-123 765.676,-105.768 786.559,-108.991 861.5,-87 864.079,-86.2432 866.731,-85.391 869.377,-84.4883"/>
<polygon fill="midnightblue" stroke="midnightblue" points="870.585,-87.7737 878.797,-81.0793 868.202,-81.1915 870.585,-87.7737"/>
</g>
<!-- Node17 -->
<g id="node18" class="node"><title>Node17</title>
<polygon fill="none" stroke="#bfbfbf" points="946.5,-62 946.5,-81 988.5,-81 988.5,-62 946.5,-62"/>
<text text-anchor="middle" x="967.5" y="-69" font-family="Helvetica,sans-Serif" font-size="10.00">utility</text>
</g>
<!-- Node7&#45;&gt;Node17 -->
<g id="edge17" class="edge"><title>Node7&#45;&gt;Node17</title>
<path fill="none" stroke="midnightblue" d="M681.125,-124.756C683.947,-124.127 686.774,-123.529 689.5,-123 798.406,-101.867 830.23,-118.842 936.5,-87 938.378,-86.4372 940.287,-85.7786 942.188,-85.0582"/>
<polygon fill="midnightblue" stroke="midnightblue" points="943.625,-88.2504 951.442,-81.0989 940.871,-81.8147 943.625,-88.2504"/>
</g>
<!-- Node18 -->
<g id="node19" class="node"><title>Node18</title>
<g id="a_node19"><a xlink:href="utils_8h.html" target="_top" xlink:title="utils.h">
<polygon fill="none" stroke="black" points="301,-62 301,-81 346,-81 346,-62 301,-62"/>
<text text-anchor="middle" x="323.5" y="-69" font-family="Helvetica,sans-Serif" font-size="10.00">utils.h</text>
</a>
</g>
</g>
<!-- Node7&#45;&gt;Node18 -->
<g id="edge18" class="edge"><title>Node7&#45;&gt;Node18</title>
<path fill="none" stroke="midnightblue" d="M623.967,-130.422C570.204,-126.853 450.658,-116.082 354.5,-87 352.623,-86.4324 350.715,-85.7702 348.815,-85.0472"/>
<polygon fill="midnightblue" stroke="midnightblue" points="350.133,-81.8043 339.563,-81.0822 347.376,-88.2383 350.133,-81.8043"/>
</g>
<!-- Node18&#45;&gt;Node10 -->
<g id="edge21" class="edge"><title>Node18&#45;&gt;Node10</title>
<path fill="none" stroke="midnightblue" d="M340.698,-61.9469C345.143,-59.8778 349.956,-57.7583 354.5,-56 390.562,-42.0453 432.91,-29.3065 462.497,-20.9727"/>
<polygon fill="midnightblue" stroke="midnightblue" points="463.706,-24.2695 472.399,-18.2139 461.827,-17.5263 463.706,-24.2695"/>
</g>
<!-- Node18&#45;&gt;Node14 -->
<g id="edge22" class="edge"><title>Node18&#45;&gt;Node14</title>
<path fill="none" stroke="midnightblue" d="M339.569,-61.936C344.274,-59.7186 349.5,-57.5278 354.5,-56 438.051,-30.4731 539.933,-18.8884 597.088,-14.0655"/>
<polygon fill="midnightblue" stroke="midnightblue" points="597.541,-17.5403 607.224,-13.2418 596.974,-10.5633 597.541,-17.5403"/>
</g>
<!-- Node19 -->
<g id="node20" class="node"><title>Node19</title>
<polygon fill="none" stroke="#bfbfbf" points="217,-0.5 217,-19.5 274,-19.5 274,-0.5 217,-0.5"/>
<text text-anchor="middle" x="245.5" y="-7.5" font-family="Helvetica,sans-Serif" font-size="10.00">complex</text>
</g>
<!-- Node18&#45;&gt;Node19 -->
<g id="edge19" class="edge"><title>Node18&#45;&gt;Node19</title>
<path fill="none" stroke="midnightblue" d="M312.325,-61.9751C299.929,-52.5199 279.71,-37.0961 264.754,-25.6871"/>
<polygon fill="midnightblue" stroke="midnightblue" points="266.728,-22.7914 256.655,-19.5091 262.483,-28.357 266.728,-22.7914"/>
</g>
<!-- Node20 -->
<g id="node21" class="node"><title>Node20</title>
<polygon fill="none" stroke="#bfbfbf" points="292,-0.5 292,-19.5 355,-19.5 355,-0.5 292,-0.5"/>
<text text-anchor="middle" x="323.5" y="-7.5" font-family="Helvetica,sans-Serif" font-size="10.00">functional</text>
</g>
<!-- Node18&#45;&gt;Node20 -->
<g id="edge20" class="edge"><title>Node18&#45;&gt;Node20</title>
<path fill="none" stroke="midnightblue" d="M323.5,-61.9751C323.5,-53.5803 323.5,-40.4806 323.5,-29.6631"/>
<polygon fill="midnightblue" stroke="midnightblue" points="327,-29.5091 323.5,-19.5091 320,-29.5091 327,-29.5091"/>
</g>
<!-- Node21 -->
<g id="node22" class="node"><title>Node21</title>
<polygon fill="none" stroke="#bfbfbf" points="373,-0.5 373,-19.5 428,-19.5 428,-0.5 373,-0.5"/>
<text text-anchor="middle" x="400.5" y="-7.5" font-family="Helvetica,sans-Serif" font-size="10.00">unistd.h</text>
</g>
<!-- Node18&#45;&gt;Node21 -->
<g id="edge23" class="edge"><title>Node18&#45;&gt;Node21</title>
<path fill="none" stroke="midnightblue" d="M334.532,-61.9751C346.768,-52.5199 366.729,-37.0961 381.493,-25.6871"/>
<polygon fill="midnightblue" stroke="midnightblue" points="383.715,-28.3931 389.488,-19.5091 379.435,-22.8541 383.715,-28.3931"/>
</g>
<!-- Node23 -->
<g id="node24" class="node"><title>Node23</title>
<polygon fill="none" stroke="#bfbfbf" points="1128,-62 1128,-81 1205,-81 1205,-62 1128,-62"/>
<text text-anchor="middle" x="1166.5" y="-69" font-family="Helvetica,sans-Serif" font-size="10.00">Eigen/Dense</text>
</g>
<!-- Node22&#45;&gt;Node23 -->
<g id="edge25" class="edge"><title>Node22&#45;&gt;Node23</title>
<path fill="none" stroke="midnightblue" d="M1166.5,-123.475C1166.5,-115.08 1166.5,-101.981 1166.5,-91.1631"/>
<polygon fill="midnightblue" stroke="midnightblue" points="1170,-91.0091 1166.5,-81.0091 1163,-91.0091 1170,-91.0091"/>
</g>
<!-- Node24 -->
<g id="node25" class="node"><title>Node24</title>
<polygon fill="none" stroke="#bfbfbf" points="1223.5,-62 1223.5,-81 1303.5,-81 1303.5,-62 1223.5,-62"/>
<text text-anchor="middle" x="1263.5" y="-69" font-family="Helvetica,sans-Serif" font-size="10.00">Eigen/Sparse</text>
</g>
<!-- Node22&#45;&gt;Node24 -->
<g id="edge26" class="edge"><title>Node22&#45;&gt;Node24</title>
<path fill="none" stroke="midnightblue" d="M1180.4,-123.475C1196.17,-113.799 1222.14,-97.8721 1240.85,-86.3941"/>
<polygon fill="midnightblue" stroke="midnightblue" points="1242.93,-89.2213 1249.63,-81.0091 1239.27,-83.2544 1242.93,-89.2213"/>
</g>
<!-- Node25 -->
<g id="node26" class="node"><title>Node25</title>
<polygon fill="none" stroke="#bfbfbf" points="1069,-62 1069,-81 1110,-81 1110,-62 1069,-62"/>
<text text-anchor="middle" x="1089.5" y="-69" font-family="Helvetica,sans-Serif" font-size="10.00">array</text>
</g>
<!-- Node22&#45;&gt;Node25 -->
<g id="edge27" class="edge"><title>Node22&#45;&gt;Node25</title>
<path fill="none" stroke="midnightblue" d="M1155.47,-123.475C1143.23,-114.02 1123.27,-98.5961 1108.51,-87.1871"/>
<polygon fill="midnightblue" stroke="midnightblue" points="1110.56,-84.3541 1100.51,-81.0091 1106.28,-89.8931 1110.56,-84.3541"/>
</g>
<!-- Node22&#45;&gt;Node26 -->
<g id="edge28" class="edge"><title>Node22&#45;&gt;Node26</title>
<path fill="none" stroke="midnightblue" d="M1195.64,-124.088C1225.35,-115.773 1272.61,-101.857 1312.5,-87 1314.15,-86.3844 1315.84,-85.7286 1317.54,-85.0489"/>
<polygon fill="midnightblue" stroke="midnightblue" points="1319.29,-88.1095 1327.15,-81.008 1316.58,-81.6563 1319.29,-88.1095"/>
</g>
<!-- Node22&#45;&gt;Node27 -->
<g id="edge29" class="edge"><title>Node22&#45;&gt;Node27</title>
<path fill="none" stroke="midnightblue" d="M1195.55,-125.883C1252.39,-113.908 1373.14,-88.4051 1377.5,-87 1379.42,-86.3804 1381.38,-85.6868 1383.34,-84.9476"/>
<polygon fill="midnightblue" stroke="midnightblue" points="1385.02,-88.04 1392.95,-81.0044 1382.37,-81.5644 1385.02,-88.04"/>
</g>
</g>
</svg>
        <g id="navigator" transform="translate(0 0)" fill="#404254">
                <rect fill="#f2f5e9" fill-opacity="0.5" stroke="#606060" stroke-width=".5" x="0" y="0" width="60" height="60"/>
                <use id="zoomplus" xlink:href="#zoomPlus" x="17" y="9" onmousedown="handleZoom(evt,'in')"/>
                <use id="zoomminus" xlink:href="#zoomMin" x="42" y="9" onmousedown="handleZoom(evt,'out')"/>
                <use id="reset" xlink:href="#resetDef" x="30" y="36" onmousedown="handleReset()"/>
                <g id="arrowUp" xlink:href="#dirArrow" transform="translate(30 24)" onmousedown="handlePan(0,-1)">
                  <use xlink:href="#rim" fill="#404040">
                        <set attributeName="fill" to="#808080" begin="arrowUp.mouseover" end="arrowUp.mouseout"/>
                  </use>
                  <path fill="none" stroke="white" stroke-width="1.5" d="M0,-3.0v7 M-2.5,-0.5L0,-3.0L2.5,-0.5"/>
                </g>
                <g id="arrowRight" xlink:href="#dirArrow" transform="rotate(90) translate(36 -43)" onmousedown="handlePan(1,0)">
                  <use xlink:href="#rim" fill="#404040">
                        <set attributeName="fill" to="#808080" begin="arrowRight.mouseover" end="arrowRight.mouseout"/>
                  </use>
                  <path fill="none" stroke="white" stroke-width="1.5" d="M0,-3.0v7 M-2.5,-0.5L0,-3.0L2.5,-0.5"/>
                </g>
                <g id="arrowDown" xlink:href="#dirArrow" transform="rotate(180) translate(-30 -48)" onmousedown="handlePan(0,1)">
                  <use xlink:href="#rim" fill="#404040">
                        <set attributeName="fill" to="#808080" begin="arrowDown.mouseover" end="arrowDown.mouseout"/>
                  </use>
                  <path fill="none" stroke="white" stroke-width="1.5" d="M0,-3.0v7 M-2.5,-0.5L0,-3.0L2.5,-0.5"/>
                </g>
                <g id="arrowLeft" xlink:href="#dirArrow" transform="rotate(270) translate(-36 17)" onmousedown="handlePan(-1,0)">
                  <use xlink:href="#rim" fill="#404040">
                        <set attributeName="fill" to="#808080" begin="arrowLeft.mouseover" end="arrowLeft.mouseout"/>
                  </use>
                  <path fill="none" stroke="white" stroke-width="1.5" d="M0,-3.0v7 M-2.5,-0.5L0,-3.0L2.5,-0.5"/>
                </g>
        </g>
        <svg viewBox="0 0 15 15" width="100%" height="30px" preserveAspectRatio="xMaxYMin meet">
         <g id="arrow_out" transform="scale(0.3 0.3)">
          <a xlink:href="Wavefunction_8cpp__incl_org.svg" target="_base">
           <rect id="button" ry="5" rx="5" y="6" x="6" height="38" width="38"
                fill="#f2f5e9" fill-opacity="0.5" stroke="#606060" stroke-width="1.0"/>
           <path id="arrow"
             d="M 11.500037,31.436501 C 11.940474,20.09759 22.043105,11.32322 32.158766,21.979434 L 37.068811,17.246167 C 37.068811,17.246167 37.088388,32 37.088388,32 L 22.160133,31.978069 C 22.160133,31.978069 26.997745,27.140456 26.997745,27.140456 C 18.528582,18.264221 13.291696,25.230495 11.500037,31.436501 z"
             style="fill:#404040;"/>
          </a>
         </g>
        </svg>
</svg>
