<?xml version="1.0" encoding="UTF-8" standalone="no"?>
<!DOCTYPE svg PUBLIC "-//W3C//DTD SVG 1.1//EN"
 "http://www.w3.org/Graphics/SVG/1.1/DTD/svg11.dtd">
<!-- Generated by graphviz version 2.38.0 (20140413.2041)
 -->
<!-- Title: /travis/libpairinteraction/WignerD.h Pages: 1 -->
<svg width="570pt" height="106pt"
 viewBox="0.00 0.00 569.50 106.00" xmlns="http://www.w3.org/2000/svg" xmlns:xlink="http://www.w3.org/1999/xlink">
<g id="graph0" class="graph" transform="scale(1 1) rotate(0) translate(4 102)">
<title>/travis/libpairinteraction/WignerD.h</title>
<!-- Node0 -->
<g id="node1" class="node"><title>Node0</title>
<polygon fill="#bfbfbf" stroke="black" points="294,-67.5 294,-97.5 422,-97.5 422,-67.5 294,-67.5"/>
<text text-anchor="start" x="302" y="-85.5" font-family="Helvetica,sans-Serif" font-size="10.00">/travis/libpairinteraction</text>
<text text-anchor="middle" x="358" y="-74.5" font-family="Helvetica,sans-Serif" font-size="10.00">/WignerD.h</text>
</g>
<!-- Node1 -->
<g id="node2" class="node"><title>Node1</title>
<polygon fill="none" stroke="#bfbfbf" points="0,-0.5 0,-30.5 130,-30.5 130,-0.5 0,-0.5"/>
<text text-anchor="start" x="8" y="-18.5" font-family="Helvetica,sans-Serif" font-size="10.00">boost/math/special</text>
<text text-anchor="middle" x="65" y="-7.5" font-family="Helvetica,sans-Serif" font-size="10.00">_functions/binomial.hpp</text>
</g>
<!-- Node0&#45;&gt;Node1 -->
<g id="edge1" class="edge"><title>Node0&#45;&gt;Node1</title>
<path fill="none" stroke="midnightblue" d="M294.784,-67.476C248.844,-57.2846 186.543,-43.4635 138.402,-32.7837"/>
<polygon fill="midnightblue" stroke="midnightblue" points="138.876,-29.3038 128.355,-30.5549 137.36,-36.1376 138.876,-29.3038"/>
</g>
<!-- Node2 -->
<g id="node3" class="node"><title>Node2</title>
<polygon fill="none" stroke="#bfbfbf" points="148.5,-0.5 148.5,-30.5 281.5,-30.5 281.5,-0.5 148.5,-0.5"/>
<text text-anchor="start" x="156.5" y="-18.5" font-family="Helvetica,sans-Serif" font-size="10.00">boost/math/special</text>
<text text-anchor="middle" x="215" y="-7.5" font-family="Helvetica,sans-Serif" font-size="10.00">_functions/factorials.hpp</text>
</g>
<!-- Node0&#45;&gt;Node2 -->
<g id="edge2" class="edge"><title>Node0&#45;&gt;Node2</title>
<path fill="none" stroke="midnightblue" d="M326.971,-67.396C305.983,-57.8561 278.059,-45.1632 255.347,-34.8397"/>
<polygon fill="midnightblue" stroke="midnightblue" points="256.52,-31.5283 245.968,-30.5765 253.624,-37.9009 256.52,-31.5283"/>
</g>
<!-- Node3 -->
<g id="node4" class="node"><title>Node3</title>
<polygon fill="none" stroke="#bfbfbf" points="299.5,-6 299.5,-25 346.5,-25 346.5,-6 299.5,-6"/>
<text text-anchor="middle" x="323" y="-13" font-family="Helvetica,sans-Serif" font-size="10.00">cmath</text>
</g>
<!-- Node0&#45;&gt;Node3 -->
<g id="edge3" class="edge"><title>Node0&#45;&gt;Node3</title>
<path fill="none" stroke="midnightblue" d="M350.406,-67.396C345.164,-57.6624 338.156,-44.6464 332.538,-34.2139"/>
<polygon fill="midnightblue" stroke="midnightblue" points="335.504,-32.3399 327.682,-25.1945 329.341,-35.6586 335.504,-32.3399"/>
</g>
<!-- Node4 -->
<g id="node5" class="node"><title>Node4</title>
<polygon fill="none" stroke="#bfbfbf" points="364.5,-6 364.5,-25 421.5,-25 421.5,-6 364.5,-6"/>
<text text-anchor="middle" x="393" y="-13" font-family="Helvetica,sans-Serif" font-size="10.00">complex</text>
</g>
<!-- Node0&#45;&gt;Node4 -->
<g id="edge4" class="edge"><title>Node0&#45;&gt;Node4</title>
<path fill="none" stroke="midnightblue" d="M365.594,-67.396C370.836,-57.6624 377.844,-44.6464 383.462,-34.2139"/>
<polygon fill="midnightblue" stroke="midnightblue" points="386.659,-35.6586 388.318,-25.1945 380.496,-32.3399 386.659,-35.6586"/>
</g>
<!-- Node5 -->
<g id="node6" class="node"><title>Node5</title>
<polygon fill="none" stroke="#bfbfbf" points="440,-6 440,-25 496,-25 496,-6 440,-6"/>
<text text-anchor="middle" x="468" y="-13" font-family="Helvetica,sans-Serif" font-size="10.00">numeric</text>
</g>
<!-- Node0&#45;&gt;Node5 -->
<g id="edge5" class="edge"><title>Node0&#45;&gt;Node5</title>
<path fill="none" stroke="midnightblue" d="M381.868,-67.396C400.571,-56.3442 426.436,-41.0607 444.931,-30.1319"/>
<polygon fill="midnightblue" stroke="midnightblue" points="446.775,-33.1076 453.604,-25.007 443.214,-27.0811 446.775,-33.1076"/>
</g>
<!-- Node6 -->
<g id="node7" class="node"><title>Node6</title>
<polygon fill="none" stroke="#bfbfbf" points="514.5,-6 514.5,-25 561.5,-25 561.5,-6 514.5,-6"/>
<text text-anchor="middle" x="538" y="-13" font-family="Helvetica,sans-Serif" font-size="10.00">vector</text>
</g>
<!-- Node0&#45;&gt;Node6 -->
<g id="edge6" class="edge"><title>Node0&#45;&gt;Node6</title>
<path fill="none" stroke="midnightblue" d="M402.086,-67.4174C431.466,-57.7727 470.817,-44.3549 505,-31 506.603,-30.3738 508.242,-29.7147 509.892,-29.0372"/>
<polygon fill="midnightblue" stroke="midnightblue" points="511.431,-32.186 519.266,-25.0537 508.693,-25.7435 511.431,-32.186"/>
</g>
</g>
</svg>
