<?xml version="1.0" encoding="UTF-8" standalone="no"?>
<!DOCTYPE svg PUBLIC "-//W3C//DTD SVG 1.1//EN"
 "http://www.w3.org/Graphics/SVG/1.1/DTD/svg11.dtd">
<!-- Generated by graphviz version 2.38.0 (20140413.2041)
 -->
<!-- Title: /travis/libpairinteraction/WignerD.cpp Pages: 1 -->
<svg width="570pt" height="162pt"
 viewBox="0.00 0.00 569.50 162.00" xmlns="http://www.w3.org/2000/svg" xmlns:xlink="http://www.w3.org/1999/xlink">
<g id="graph0" class="graph" transform="scale(1 1) rotate(0) translate(4 158)">
<title>/travis/libpairinteraction/WignerD.cpp</title>
<!-- Node0 -->
<g id="node1" class="node"><title>Node0</title>
<polygon fill="#bfbfbf" stroke="black" points="294,-123.5 294,-153.5 422,-153.5 422,-123.5 294,-123.5"/>
<text text-anchor="start" x="302" y="-141.5" font-family="Helvetica,sans-Serif" font-size="10.00">/travis/libpairinteraction</text>
<text text-anchor="middle" x="358" y="-130.5" font-family="Helvetica,sans-Serif" font-size="10.00">/WignerD.cpp</text>
</g>
<!-- Node1 -->
<g id="node2" class="node"><title>Node1</title>
<g id="a_node2"><a xlink:href="WignerD_8h.html" target="_top" xlink:title="WignerD.h">
<polygon fill="none" stroke="black" points="325.5,-67.5 325.5,-86.5 390.5,-86.5 390.5,-67.5 325.5,-67.5"/>
<text text-anchor="middle" x="358" y="-74.5" font-family="Helvetica,sans-Serif" font-size="10.00">WignerD.h</text>
</a>
</g>
</g>
<!-- Node0&#45;&gt;Node1 -->
<g id="edge1" class="edge"><title>Node0&#45;&gt;Node1</title>
<path fill="none" stroke="midnightblue" d="M358,-123.399C358,-115.466 358,-105.458 358,-96.8583"/>
<polygon fill="midnightblue" stroke="midnightblue" points="361.5,-96.6577 358,-86.6578 354.5,-96.6578 361.5,-96.6577"/>
</g>
<!-- Node2 -->
<g id="node3" class="node"><title>Node2</title>
<polygon fill="none" stroke="#bfbfbf" points="0,-0.5 0,-30.5 130,-30.5 130,-0.5 0,-0.5"/>
<text text-anchor="start" x="8" y="-18.5" font-family="Helvetica,sans-Serif" font-size="10.00">boost/math/special</text>
<text text-anchor="middle" x="65" y="-7.5" font-family="Helvetica,sans-Serif" font-size="10.00">_functions/binomial.hpp</text>
</g>
<!-- Node1&#45;&gt;Node2 -->
<g id="edge2" class="edge"><title>Node1&#45;&gt;Node2</title>
<path fill="none" stroke="midnightblue" d="M325.242,-69.3478C280.775,-60.3179 200.006,-43.9158 140.2,-31.7711"/>
<polygon fill="midnightblue" stroke="midnightblue" points="140.539,-28.2685 130.043,-29.7083 139.146,-35.1285 140.539,-28.2685"/>
</g>
<!-- Node3 -->
<g id="node4" class="node"><title>Node3</title>
<polygon fill="none" stroke="#bfbfbf" points="148.5,-0.5 148.5,-30.5 281.5,-30.5 281.5,-0.5 148.5,-0.5"/>
<text text-anchor="start" x="156.5" y="-18.5" font-family="Helvetica,sans-Serif" font-size="10.00">boost/math/special</text>
<text text-anchor="middle" x="215" y="-7.5" font-family="Helvetica,sans-Serif" font-size="10.00">_functions/factorials.hpp</text>
</g>
<!-- Node1&#45;&gt;Node3 -->
<g id="edge3" class="edge"><title>Node1&#45;&gt;Node3</title>
<path fill="none" stroke="midnightblue" d="M337.512,-67.4751C316.877,-58.8895 284.416,-45.3827 258.09,-34.4291"/>
<polygon fill="midnightblue" stroke="midnightblue" points="259.28,-31.1332 248.702,-30.523 256.59,-37.596 259.28,-31.1332"/>
</g>
<!-- Node4 -->
<g id="node5" class="node"><title>Node4</title>
<polygon fill="none" stroke="#bfbfbf" points="299.5,-6 299.5,-25 346.5,-25 346.5,-6 299.5,-6"/>
<text text-anchor="middle" x="323" y="-13" font-family="Helvetica,sans-Serif" font-size="10.00">cmath</text>
</g>
<!-- Node1&#45;&gt;Node4 -->
<g id="edge4" class="edge"><title>Node1&#45;&gt;Node4</title>
<path fill="none" stroke="midnightblue" d="M352.985,-67.4751C347.839,-58.7268 339.688,-44.8691 333.182,-33.8093"/>
<polygon fill="midnightblue" stroke="midnightblue" points="336.092,-31.8539 328.005,-25.0091 330.059,-35.403 336.092,-31.8539"/>
</g>
<!-- Node5 -->
<g id="node6" class="node"><title>Node5</title>
<polygon fill="none" stroke="#bfbfbf" points="364.5,-6 364.5,-25 421.5,-25 421.5,-6 364.5,-6"/>
<text text-anchor="middle" x="393" y="-13" font-family="Helvetica,sans-Serif" font-size="10.00">complex</text>
</g>
<!-- Node1&#45;&gt;Node5 -->
<g id="edge5" class="edge"><title>Node1&#45;&gt;Node5</title>
<path fill="none" stroke="midnightblue" d="M363.015,-67.4751C368.161,-58.7268 376.312,-44.8691 382.818,-33.8093"/>
<polygon fill="midnightblue" stroke="midnightblue" points="385.941,-35.403 387.995,-25.0091 379.908,-31.8539 385.941,-35.403"/>
</g>
<!-- Node6 -->
<g id="node7" class="node"><title>Node6</title>
<polygon fill="none" stroke="#bfbfbf" points="440,-6 440,-25 496,-25 496,-6 440,-6"/>
<text text-anchor="middle" x="468" y="-13" font-family="Helvetica,sans-Serif" font-size="10.00">numeric</text>
</g>
<!-- Node1&#45;&gt;Node6 -->
<g id="edge6" class="edge"><title>Node1&#45;&gt;Node6</title>
<path fill="none" stroke="midnightblue" d="M373.76,-67.4751C391.976,-57.6222 422.173,-41.2883 443.468,-29.7697"/>
<polygon fill="midnightblue" stroke="midnightblue" points="445.138,-32.8453 452.269,-25.0091 441.808,-26.6883 445.138,-32.8453"/>
</g>
<!-- Node7 -->
<g id="node8" class="node"><title>Node7</title>
<polygon fill="none" stroke="#bfbfbf" points="514.5,-6 514.5,-25 561.5,-25 561.5,-6 514.5,-6"/>
<text text-anchor="middle" x="538" y="-13" font-family="Helvetica,sans-Serif" font-size="10.00">vector</text>
</g>
<!-- Node1&#45;&gt;Node7 -->
<g id="edge7" class="edge"><title>Node1&#45;&gt;Node7</title>
<path fill="none" stroke="midnightblue" d="M389.612,-67.4797C419.624,-59.1197 465.843,-45.5395 505,-31 506.654,-30.386 508.343,-29.7314 510.041,-29.0526"/>
<polygon fill="midnightblue" stroke="midnightblue" points="511.791,-32.1138 519.655,-25.0144 509.08,-25.6599 511.791,-32.1138"/>
</g>
</g>
</svg>
